%TF.GenerationSoftware,KiCad,Pcbnew,9.0.0*%
%TF.CreationDate,2025-05-23T15:58:18+04:00*%
%TF.ProjectId,02_02_sensor_barometer_DPS310XTSA1,30325f30-325f-4736-956e-736f725f6261,rev?*%
%TF.SameCoordinates,Original*%
%TF.FileFunction,Legend,Bot*%
%TF.FilePolarity,Positive*%
%FSLAX46Y46*%
G04 Gerber Fmt 4.6, Leading zero omitted, Abs format (unit mm)*
G04 Created by KiCad (PCBNEW 9.0.0) date 2025-05-23 15:58:18*
%MOMM*%
%LPD*%
G01*
G04 APERTURE LIST*
G04 Aperture macros list*
%AMRoundRect*
0 Rectangle with rounded corners*
0 $1 Rounding radius*
0 $2 $3 $4 $5 $6 $7 $8 $9 X,Y pos of 4 corners*
0 Add a 4 corners polygon primitive as box body*
4,1,4,$2,$3,$4,$5,$6,$7,$8,$9,$2,$3,0*
0 Add four circle primitives for the rounded corners*
1,1,$1+$1,$2,$3*
1,1,$1+$1,$4,$5*
1,1,$1+$1,$6,$7*
1,1,$1+$1,$8,$9*
0 Add four rect primitives between the rounded corners*
20,1,$1+$1,$2,$3,$4,$5,0*
20,1,$1+$1,$4,$5,$6,$7,0*
20,1,$1+$1,$6,$7,$8,$9,0*
20,1,$1+$1,$8,$9,$2,$3,0*%
G04 Aperture macros list end*
%ADD10C,0.175000*%
%ADD11C,0.000000*%
%ADD12C,0.100000*%
%ADD13RoundRect,0.050000X-0.175000X-0.975000X0.175000X-0.975000X0.175000X0.975000X-0.175000X0.975000X0*%
%ADD14C,0.554000*%
G04 APERTURE END LIST*
D10*
X144099114Y-94193702D02*
X143349114Y-94193702D01*
X143349114Y-94193702D02*
X143349114Y-94372273D01*
X143349114Y-94372273D02*
X143384828Y-94479416D01*
X143384828Y-94479416D02*
X143456257Y-94550845D01*
X143456257Y-94550845D02*
X143527685Y-94586559D01*
X143527685Y-94586559D02*
X143670542Y-94622273D01*
X143670542Y-94622273D02*
X143777685Y-94622273D01*
X143777685Y-94622273D02*
X143920542Y-94586559D01*
X143920542Y-94586559D02*
X143991971Y-94550845D01*
X143991971Y-94550845D02*
X144063400Y-94479416D01*
X144063400Y-94479416D02*
X144099114Y-94372273D01*
X144099114Y-94372273D02*
X144099114Y-94193702D01*
X143599114Y-95265131D02*
X144099114Y-95265131D01*
X143599114Y-94943702D02*
X143991971Y-94943702D01*
X143991971Y-94943702D02*
X144063400Y-94979416D01*
X144063400Y-94979416D02*
X144099114Y-95050845D01*
X144099114Y-95050845D02*
X144099114Y-95157988D01*
X144099114Y-95157988D02*
X144063400Y-95229416D01*
X144063400Y-95229416D02*
X144027685Y-95265131D01*
X144099114Y-95622273D02*
X143599114Y-95622273D01*
X143670542Y-95622273D02*
X143634828Y-95657987D01*
X143634828Y-95657987D02*
X143599114Y-95729416D01*
X143599114Y-95729416D02*
X143599114Y-95836559D01*
X143599114Y-95836559D02*
X143634828Y-95907987D01*
X143634828Y-95907987D02*
X143706257Y-95943702D01*
X143706257Y-95943702D02*
X144099114Y-95943702D01*
X143706257Y-95943702D02*
X143634828Y-95979416D01*
X143634828Y-95979416D02*
X143599114Y-96050844D01*
X143599114Y-96050844D02*
X143599114Y-96157987D01*
X143599114Y-96157987D02*
X143634828Y-96229416D01*
X143634828Y-96229416D02*
X143706257Y-96265130D01*
X143706257Y-96265130D02*
X144099114Y-96265130D01*
X143599114Y-96622273D02*
X144349114Y-96622273D01*
X143634828Y-96622273D02*
X143599114Y-96693702D01*
X143599114Y-96693702D02*
X143599114Y-96836559D01*
X143599114Y-96836559D02*
X143634828Y-96907987D01*
X143634828Y-96907987D02*
X143670542Y-96943702D01*
X143670542Y-96943702D02*
X143741971Y-96979416D01*
X143741971Y-96979416D02*
X143956257Y-96979416D01*
X143956257Y-96979416D02*
X144027685Y-96943702D01*
X144027685Y-96943702D02*
X144063400Y-96907987D01*
X144063400Y-96907987D02*
X144099114Y-96836559D01*
X144099114Y-96836559D02*
X144099114Y-96693702D01*
X144099114Y-96693702D02*
X144063400Y-96622273D01*
X144099114Y-97407987D02*
X144063400Y-97336558D01*
X144063400Y-97336558D02*
X143991971Y-97300844D01*
X143991971Y-97300844D02*
X143349114Y-97300844D01*
X144099114Y-97693701D02*
X143599114Y-97693701D01*
X143349114Y-97693701D02*
X143384828Y-97657987D01*
X143384828Y-97657987D02*
X143420542Y-97693701D01*
X143420542Y-97693701D02*
X143384828Y-97729415D01*
X143384828Y-97729415D02*
X143349114Y-97693701D01*
X143349114Y-97693701D02*
X143420542Y-97693701D01*
X143599114Y-98050844D02*
X144099114Y-98050844D01*
X143670542Y-98050844D02*
X143634828Y-98086558D01*
X143634828Y-98086558D02*
X143599114Y-98157987D01*
X143599114Y-98157987D02*
X143599114Y-98265130D01*
X143599114Y-98265130D02*
X143634828Y-98336558D01*
X143634828Y-98336558D02*
X143706257Y-98372273D01*
X143706257Y-98372273D02*
X144099114Y-98372273D01*
X143599114Y-99050844D02*
X144206257Y-99050844D01*
X144206257Y-99050844D02*
X144277685Y-99015129D01*
X144277685Y-99015129D02*
X144313400Y-98979415D01*
X144313400Y-98979415D02*
X144349114Y-98907986D01*
X144349114Y-98907986D02*
X144349114Y-98800844D01*
X144349114Y-98800844D02*
X144313400Y-98729415D01*
X144063400Y-99050844D02*
X144099114Y-98979415D01*
X144099114Y-98979415D02*
X144099114Y-98836558D01*
X144099114Y-98836558D02*
X144063400Y-98765129D01*
X144063400Y-98765129D02*
X144027685Y-98729415D01*
X144027685Y-98729415D02*
X143956257Y-98693701D01*
X143956257Y-98693701D02*
X143741971Y-98693701D01*
X143741971Y-98693701D02*
X143670542Y-98729415D01*
X143670542Y-98729415D02*
X143634828Y-98765129D01*
X143634828Y-98765129D02*
X143599114Y-98836558D01*
X143599114Y-98836558D02*
X143599114Y-98979415D01*
X143599114Y-98979415D02*
X143634828Y-99050844D01*
X144170542Y-99229415D02*
X144170542Y-99800843D01*
X143706257Y-100229415D02*
X143741971Y-100336558D01*
X143741971Y-100336558D02*
X143777685Y-100372272D01*
X143777685Y-100372272D02*
X143849114Y-100407986D01*
X143849114Y-100407986D02*
X143956257Y-100407986D01*
X143956257Y-100407986D02*
X144027685Y-100372272D01*
X144027685Y-100372272D02*
X144063400Y-100336558D01*
X144063400Y-100336558D02*
X144099114Y-100265129D01*
X144099114Y-100265129D02*
X144099114Y-99979415D01*
X144099114Y-99979415D02*
X143349114Y-99979415D01*
X143349114Y-99979415D02*
X143349114Y-100229415D01*
X143349114Y-100229415D02*
X143384828Y-100300844D01*
X143384828Y-100300844D02*
X143420542Y-100336558D01*
X143420542Y-100336558D02*
X143491971Y-100372272D01*
X143491971Y-100372272D02*
X143563400Y-100372272D01*
X143563400Y-100372272D02*
X143634828Y-100336558D01*
X143634828Y-100336558D02*
X143670542Y-100300844D01*
X143670542Y-100300844D02*
X143706257Y-100229415D01*
X143706257Y-100229415D02*
X143706257Y-99979415D01*
X144099114Y-101050844D02*
X143706257Y-101050844D01*
X143706257Y-101050844D02*
X143634828Y-101015129D01*
X143634828Y-101015129D02*
X143599114Y-100943701D01*
X143599114Y-100943701D02*
X143599114Y-100800844D01*
X143599114Y-100800844D02*
X143634828Y-100729415D01*
X144063400Y-101050844D02*
X144099114Y-100979415D01*
X144099114Y-100979415D02*
X144099114Y-100800844D01*
X144099114Y-100800844D02*
X144063400Y-100729415D01*
X144063400Y-100729415D02*
X143991971Y-100693701D01*
X143991971Y-100693701D02*
X143920542Y-100693701D01*
X143920542Y-100693701D02*
X143849114Y-100729415D01*
X143849114Y-100729415D02*
X143813400Y-100800844D01*
X143813400Y-100800844D02*
X143813400Y-100979415D01*
X143813400Y-100979415D02*
X143777685Y-101050844D01*
X144099114Y-101407986D02*
X143599114Y-101407986D01*
X143741971Y-101407986D02*
X143670542Y-101443700D01*
X143670542Y-101443700D02*
X143634828Y-101479415D01*
X143634828Y-101479415D02*
X143599114Y-101550843D01*
X143599114Y-101550843D02*
X143599114Y-101622272D01*
X144099114Y-101979415D02*
X144063400Y-101907986D01*
X144063400Y-101907986D02*
X144027685Y-101872272D01*
X144027685Y-101872272D02*
X143956257Y-101836558D01*
X143956257Y-101836558D02*
X143741971Y-101836558D01*
X143741971Y-101836558D02*
X143670542Y-101872272D01*
X143670542Y-101872272D02*
X143634828Y-101907986D01*
X143634828Y-101907986D02*
X143599114Y-101979415D01*
X143599114Y-101979415D02*
X143599114Y-102086558D01*
X143599114Y-102086558D02*
X143634828Y-102157986D01*
X143634828Y-102157986D02*
X143670542Y-102193701D01*
X143670542Y-102193701D02*
X143741971Y-102229415D01*
X143741971Y-102229415D02*
X143956257Y-102229415D01*
X143956257Y-102229415D02*
X144027685Y-102193701D01*
X144027685Y-102193701D02*
X144063400Y-102157986D01*
X144063400Y-102157986D02*
X144099114Y-102086558D01*
X144099114Y-102086558D02*
X144099114Y-101979415D01*
X144099114Y-102550843D02*
X143599114Y-102550843D01*
X143670542Y-102550843D02*
X143634828Y-102586557D01*
X143634828Y-102586557D02*
X143599114Y-102657986D01*
X143599114Y-102657986D02*
X143599114Y-102765129D01*
X143599114Y-102765129D02*
X143634828Y-102836557D01*
X143634828Y-102836557D02*
X143706257Y-102872272D01*
X143706257Y-102872272D02*
X144099114Y-102872272D01*
X143706257Y-102872272D02*
X143634828Y-102907986D01*
X143634828Y-102907986D02*
X143599114Y-102979414D01*
X143599114Y-102979414D02*
X143599114Y-103086557D01*
X143599114Y-103086557D02*
X143634828Y-103157986D01*
X143634828Y-103157986D02*
X143706257Y-103193700D01*
X143706257Y-103193700D02*
X144099114Y-103193700D01*
X144063400Y-103836557D02*
X144099114Y-103765129D01*
X144099114Y-103765129D02*
X144099114Y-103622272D01*
X144099114Y-103622272D02*
X144063400Y-103550843D01*
X144063400Y-103550843D02*
X143991971Y-103515129D01*
X143991971Y-103515129D02*
X143706257Y-103515129D01*
X143706257Y-103515129D02*
X143634828Y-103550843D01*
X143634828Y-103550843D02*
X143599114Y-103622272D01*
X143599114Y-103622272D02*
X143599114Y-103765129D01*
X143599114Y-103765129D02*
X143634828Y-103836557D01*
X143634828Y-103836557D02*
X143706257Y-103872272D01*
X143706257Y-103872272D02*
X143777685Y-103872272D01*
X143777685Y-103872272D02*
X143849114Y-103515129D01*
X143599114Y-104086557D02*
X143599114Y-104372271D01*
X143349114Y-104193700D02*
X143991971Y-104193700D01*
X143991971Y-104193700D02*
X144063400Y-104229414D01*
X144063400Y-104229414D02*
X144099114Y-104300843D01*
X144099114Y-104300843D02*
X144099114Y-104372271D01*
X144063400Y-104907985D02*
X144099114Y-104836557D01*
X144099114Y-104836557D02*
X144099114Y-104693700D01*
X144099114Y-104693700D02*
X144063400Y-104622271D01*
X144063400Y-104622271D02*
X143991971Y-104586557D01*
X143991971Y-104586557D02*
X143706257Y-104586557D01*
X143706257Y-104586557D02*
X143634828Y-104622271D01*
X143634828Y-104622271D02*
X143599114Y-104693700D01*
X143599114Y-104693700D02*
X143599114Y-104836557D01*
X143599114Y-104836557D02*
X143634828Y-104907985D01*
X143634828Y-104907985D02*
X143706257Y-104943700D01*
X143706257Y-104943700D02*
X143777685Y-104943700D01*
X143777685Y-104943700D02*
X143849114Y-104586557D01*
X144099114Y-105265128D02*
X143599114Y-105265128D01*
X143741971Y-105265128D02*
X143670542Y-105300842D01*
X143670542Y-105300842D02*
X143634828Y-105336557D01*
X143634828Y-105336557D02*
X143599114Y-105407985D01*
X143599114Y-105407985D02*
X143599114Y-105479414D01*
X143599114Y-106229414D02*
X144099114Y-106407986D01*
X144099114Y-106407986D02*
X143599114Y-106586557D01*
X143349114Y-107015129D02*
X143349114Y-107086558D01*
X143349114Y-107086558D02*
X143384828Y-107157986D01*
X143384828Y-107157986D02*
X143420542Y-107193701D01*
X143420542Y-107193701D02*
X143491971Y-107229415D01*
X143491971Y-107229415D02*
X143634828Y-107265129D01*
X143634828Y-107265129D02*
X143813400Y-107265129D01*
X143813400Y-107265129D02*
X143956257Y-107229415D01*
X143956257Y-107229415D02*
X144027685Y-107193701D01*
X144027685Y-107193701D02*
X144063400Y-107157986D01*
X144063400Y-107157986D02*
X144099114Y-107086558D01*
X144099114Y-107086558D02*
X144099114Y-107015129D01*
X144099114Y-107015129D02*
X144063400Y-106943701D01*
X144063400Y-106943701D02*
X144027685Y-106907986D01*
X144027685Y-106907986D02*
X143956257Y-106872272D01*
X143956257Y-106872272D02*
X143813400Y-106836558D01*
X143813400Y-106836558D02*
X143634828Y-106836558D01*
X143634828Y-106836558D02*
X143491971Y-106872272D01*
X143491971Y-106872272D02*
X143420542Y-106907986D01*
X143420542Y-106907986D02*
X143384828Y-106943701D01*
X143384828Y-106943701D02*
X143349114Y-107015129D01*
X144027685Y-107586558D02*
X144063400Y-107622272D01*
X144063400Y-107622272D02*
X144099114Y-107586558D01*
X144099114Y-107586558D02*
X144063400Y-107550844D01*
X144063400Y-107550844D02*
X144027685Y-107586558D01*
X144027685Y-107586558D02*
X144099114Y-107586558D01*
X144099114Y-108336558D02*
X144099114Y-107907987D01*
X144099114Y-108122272D02*
X143349114Y-108122272D01*
X143349114Y-108122272D02*
X143456257Y-108050844D01*
X143456257Y-108050844D02*
X143527685Y-107979415D01*
X143527685Y-107979415D02*
X143563400Y-107907987D01*
D11*
%TO.C,G\u002A\u002A\u002A*%
G36*
X141209590Y-101798960D02*
G01*
X141235638Y-101802981D01*
X141257029Y-101810145D01*
X141282225Y-101826217D01*
X141304979Y-101848753D01*
X141322756Y-101875332D01*
X141333924Y-101903965D01*
X141335657Y-101915771D01*
X141336491Y-101932361D01*
X141336206Y-101949937D01*
X141331619Y-101979823D01*
X141319758Y-102010611D01*
X141301448Y-102037279D01*
X141277350Y-102058892D01*
X141248124Y-102074517D01*
X141247228Y-102074862D01*
X141221676Y-102081407D01*
X141192520Y-102083908D01*
X141163230Y-102082302D01*
X141137278Y-102076527D01*
X141136399Y-102076221D01*
X141114348Y-102065001D01*
X141092635Y-102047956D01*
X141073519Y-102027165D01*
X141059257Y-102004707D01*
X141056469Y-101998855D01*
X141051902Y-101987362D01*
X141049263Y-101975898D01*
X141048047Y-101961711D01*
X141047747Y-101942047D01*
X141047854Y-101927472D01*
X141048671Y-101912384D01*
X141050790Y-101900579D01*
X141054796Y-101889183D01*
X141061269Y-101875324D01*
X141063472Y-101871010D01*
X141082615Y-101842949D01*
X141106853Y-101821107D01*
X141135690Y-101805946D01*
X141155534Y-101800765D01*
X141181888Y-101798187D01*
X141209590Y-101798960D01*
G37*
G36*
X140787106Y-98391908D02*
G01*
X140834688Y-98392198D01*
X140876176Y-98392748D01*
X140912199Y-98393585D01*
X140943388Y-98394735D01*
X140970370Y-98396224D01*
X140993777Y-98398079D01*
X141014237Y-98400326D01*
X141032381Y-98402991D01*
X141048837Y-98406101D01*
X141064235Y-98409682D01*
X141078905Y-98413665D01*
X141130992Y-98432592D01*
X141177451Y-98457508D01*
X141218201Y-98488319D01*
X141253160Y-98524928D01*
X141282247Y-98567238D01*
X141305380Y-98615153D01*
X141322478Y-98668578D01*
X141333459Y-98727415D01*
X141336606Y-98759688D01*
X141337065Y-98819139D01*
X141330534Y-98876299D01*
X141317196Y-98930514D01*
X141297233Y-98981129D01*
X141270828Y-99027491D01*
X141238163Y-99068943D01*
X141209756Y-99099772D01*
X141267771Y-99099772D01*
X141325786Y-99099772D01*
X141325786Y-99204816D01*
X141325786Y-99309860D01*
X140856179Y-99309860D01*
X140386571Y-99309860D01*
X140386571Y-99198803D01*
X140386571Y-99087746D01*
X140659479Y-99086427D01*
X140676630Y-99086345D01*
X140730349Y-99086092D01*
X140776703Y-99085832D01*
X140816369Y-99085504D01*
X140850023Y-99085047D01*
X140878341Y-99084397D01*
X140901999Y-99083495D01*
X140921674Y-99082277D01*
X140938042Y-99080682D01*
X140951779Y-99078648D01*
X140963562Y-99076114D01*
X140974067Y-99073017D01*
X140983971Y-99069295D01*
X140993949Y-99064888D01*
X141004678Y-99059733D01*
X141016834Y-99053768D01*
X141034010Y-99044454D01*
X141066759Y-99020636D01*
X141094007Y-98991993D01*
X141114595Y-98959640D01*
X141127041Y-98930124D01*
X141137715Y-98890565D01*
X141142729Y-98849942D01*
X141142204Y-98809533D01*
X141136265Y-98770617D01*
X141125035Y-98734472D01*
X141108637Y-98702378D01*
X141087194Y-98675613D01*
X141085158Y-98673628D01*
X141059923Y-98653597D01*
X141029860Y-98637683D01*
X140993455Y-98625070D01*
X140992595Y-98624829D01*
X140986213Y-98623111D01*
X140979851Y-98621628D01*
X140972874Y-98620360D01*
X140964646Y-98619285D01*
X140954532Y-98618384D01*
X140941898Y-98617636D01*
X140926107Y-98617019D01*
X140906525Y-98616513D01*
X140882516Y-98616098D01*
X140853444Y-98615753D01*
X140818675Y-98615456D01*
X140777573Y-98615188D01*
X140729503Y-98614928D01*
X140673830Y-98614654D01*
X140386438Y-98613273D01*
X140387534Y-98503287D01*
X140388631Y-98393301D01*
X140644032Y-98392119D01*
X140671141Y-98392005D01*
X140732800Y-98391852D01*
X140787106Y-98391908D01*
G37*
G36*
X141325786Y-96310774D02*
G01*
X141325786Y-96421808D01*
X141048759Y-96423254D01*
X141031349Y-96423344D01*
X140977083Y-96423626D01*
X140930203Y-96423914D01*
X140890052Y-96424264D01*
X140855972Y-96424735D01*
X140827304Y-96425384D01*
X140803390Y-96426268D01*
X140783571Y-96427446D01*
X140767189Y-96428974D01*
X140753587Y-96430911D01*
X140742105Y-96433314D01*
X140732085Y-96436241D01*
X140722870Y-96439749D01*
X140713800Y-96443895D01*
X140704217Y-96448738D01*
X140693464Y-96454335D01*
X140670902Y-96467923D01*
X140639486Y-96494508D01*
X140613095Y-96527087D01*
X140592234Y-96564993D01*
X140577409Y-96607557D01*
X140574378Y-96622270D01*
X140571394Y-96648470D01*
X140570237Y-96677396D01*
X140570904Y-96706356D01*
X140573388Y-96732661D01*
X140577685Y-96753618D01*
X140582273Y-96767707D01*
X140598118Y-96803111D01*
X140618635Y-96832295D01*
X140644482Y-96856073D01*
X140676322Y-96875261D01*
X140684819Y-96879366D01*
X140695399Y-96884168D01*
X140705834Y-96888306D01*
X140716769Y-96891830D01*
X140728850Y-96894790D01*
X140742721Y-96897233D01*
X140759027Y-96899211D01*
X140778413Y-96900771D01*
X140801523Y-96901963D01*
X140829003Y-96902837D01*
X140861497Y-96903441D01*
X140899651Y-96903826D01*
X140944108Y-96904039D01*
X140995515Y-96904131D01*
X141054515Y-96904151D01*
X141325921Y-96904151D01*
X141324824Y-97014344D01*
X141323727Y-97124537D01*
X141064207Y-97125742D01*
X141036074Y-97125861D01*
X140974610Y-97126014D01*
X140920494Y-97125963D01*
X140873098Y-97125681D01*
X140831796Y-97125144D01*
X140795961Y-97124325D01*
X140764967Y-97123199D01*
X140738186Y-97121740D01*
X140714991Y-97119922D01*
X140694758Y-97117720D01*
X140676857Y-97115107D01*
X140660663Y-97112058D01*
X140645549Y-97108548D01*
X140637352Y-97106378D01*
X140585836Y-97088201D01*
X140539367Y-97063574D01*
X140498148Y-97032702D01*
X140462387Y-96995794D01*
X140432288Y-96953057D01*
X140408058Y-96904698D01*
X140389903Y-96850925D01*
X140389583Y-96849697D01*
X140385495Y-96828383D01*
X140382284Y-96801178D01*
X140380034Y-96770240D01*
X140378826Y-96737724D01*
X140378744Y-96705789D01*
X140379871Y-96676592D01*
X140382288Y-96652289D01*
X140388370Y-96619431D01*
X140403802Y-96566535D01*
X140425369Y-96517185D01*
X140452556Y-96472478D01*
X140484847Y-96433513D01*
X140507835Y-96409827D01*
X140447203Y-96409827D01*
X140386571Y-96409827D01*
X140386571Y-96304783D01*
X140386571Y-96199740D01*
X140856179Y-96199740D01*
X141325786Y-96199740D01*
X141325786Y-96310774D01*
G37*
G36*
X140882654Y-93351314D02*
G01*
X140921667Y-93352172D01*
X140957832Y-93353704D01*
X140989438Y-93355909D01*
X141014774Y-93358785D01*
X141020753Y-93359688D01*
X141055016Y-93365358D01*
X141090254Y-93371929D01*
X141124179Y-93378931D01*
X141154501Y-93385897D01*
X141178931Y-93392357D01*
X141189911Y-93396045D01*
X141197824Y-93399808D01*
X141199528Y-93402388D01*
X141199465Y-93402442D01*
X141194861Y-93406293D01*
X141185326Y-93414228D01*
X141172218Y-93425117D01*
X141156892Y-93437832D01*
X141124650Y-93465041D01*
X141082626Y-93501621D01*
X141039629Y-93540119D01*
X140998180Y-93578269D01*
X140960804Y-93613809D01*
X140910927Y-93662211D01*
X140853688Y-93662216D01*
X140811811Y-93663129D01*
X140726930Y-93670695D01*
X140644616Y-93685728D01*
X140565253Y-93708002D01*
X140489222Y-93737290D01*
X140416905Y-93773366D01*
X140348686Y-93816002D01*
X140284945Y-93864972D01*
X140226065Y-93920049D01*
X140172429Y-93981007D01*
X140124418Y-94047619D01*
X140082415Y-94119658D01*
X140062546Y-94159958D01*
X140035697Y-94224595D01*
X140015509Y-94289089D01*
X140001582Y-94355101D01*
X139993513Y-94424294D01*
X139990901Y-94498330D01*
X139993033Y-94563095D01*
X140002150Y-94642895D01*
X140018569Y-94719333D01*
X140042435Y-94792917D01*
X140073889Y-94864154D01*
X140113073Y-94933551D01*
X140135928Y-94969955D01*
X140123344Y-95031822D01*
X140120686Y-95045084D01*
X140107232Y-95119758D01*
X140096217Y-95195781D01*
X140087139Y-95276535D01*
X140080103Y-95348157D01*
X140030425Y-95297132D01*
X140011456Y-95277278D01*
X139955285Y-95213222D01*
X139905489Y-95147427D01*
X139860674Y-95077951D01*
X139819449Y-95002851D01*
X139814215Y-94992439D01*
X139778752Y-94914828D01*
X139750354Y-94838232D01*
X139728502Y-94760851D01*
X139712677Y-94680885D01*
X139702360Y-94596533D01*
X139702005Y-94592323D01*
X139700230Y-94560280D01*
X139699459Y-94523139D01*
X139699635Y-94483118D01*
X139700706Y-94442435D01*
X139702615Y-94403308D01*
X139705309Y-94367956D01*
X139708731Y-94338596D01*
X139712792Y-94313041D01*
X139732936Y-94219336D01*
X139760949Y-94127733D01*
X139796664Y-94038610D01*
X139839916Y-93952347D01*
X139890540Y-93869321D01*
X139948370Y-93789911D01*
X139949538Y-93788446D01*
X139966674Y-93768236D01*
X139988540Y-93744217D01*
X140013713Y-93717807D01*
X140040772Y-93690425D01*
X140068293Y-93663487D01*
X140094855Y-93638411D01*
X140119034Y-93616615D01*
X140139409Y-93599517D01*
X140157963Y-93585100D01*
X140238095Y-93529247D01*
X140322362Y-93480446D01*
X140410438Y-93438837D01*
X140501998Y-93404561D01*
X140596716Y-93377761D01*
X140694266Y-93358578D01*
X140704711Y-93357167D01*
X140732315Y-93354640D01*
X140765622Y-93352792D01*
X140802921Y-93351623D01*
X140842501Y-93351130D01*
X140882654Y-93351314D01*
G37*
G36*
X140905809Y-105388039D02*
G01*
X140964794Y-105397098D01*
X141021699Y-105412846D01*
X141075317Y-105435285D01*
X141119983Y-105460821D01*
X141168231Y-105496868D01*
X141211092Y-105538744D01*
X141248251Y-105585980D01*
X141279393Y-105638109D01*
X141304203Y-105694662D01*
X141322368Y-105755172D01*
X141333571Y-105819171D01*
X141337568Y-105872596D01*
X141336269Y-105936486D01*
X141328231Y-105997431D01*
X141313642Y-106054964D01*
X141292692Y-106108622D01*
X141265569Y-106157937D01*
X141232461Y-106202444D01*
X141193557Y-106241676D01*
X141149045Y-106275170D01*
X141146622Y-106276724D01*
X141133945Y-106284570D01*
X141124279Y-106290093D01*
X141119552Y-106292182D01*
X141118268Y-106290911D01*
X141113212Y-106283666D01*
X141105033Y-106270872D01*
X141094348Y-106253519D01*
X141081771Y-106232598D01*
X141067920Y-106209099D01*
X141019396Y-106126016D01*
X141033563Y-106115590D01*
X141040646Y-106110107D01*
X141061244Y-106091638D01*
X141081580Y-106070241D01*
X141099427Y-106048371D01*
X141112559Y-106028483D01*
X141118744Y-106016906D01*
X141131925Y-105987210D01*
X141140493Y-105957673D01*
X141145087Y-105925647D01*
X141146345Y-105888484D01*
X141146041Y-105873119D01*
X141141918Y-105828443D01*
X141132600Y-105788941D01*
X141117581Y-105753316D01*
X141096355Y-105720270D01*
X141068417Y-105688504D01*
X141054842Y-105675554D01*
X141024961Y-105651950D01*
X140993430Y-105634140D01*
X140958785Y-105621531D01*
X140919567Y-105613528D01*
X140874313Y-105609536D01*
X140845085Y-105609115D01*
X140793995Y-105613334D01*
X140747625Y-105624164D01*
X140705730Y-105641695D01*
X140668065Y-105666016D01*
X140634385Y-105697216D01*
X140619174Y-105715529D01*
X140595931Y-105752651D01*
X140579031Y-105793080D01*
X140568464Y-105835734D01*
X140564223Y-105879531D01*
X140566296Y-105923391D01*
X140574677Y-105966232D01*
X140589355Y-106006973D01*
X140610321Y-106044532D01*
X140637567Y-106077829D01*
X140642605Y-106082873D01*
X140656583Y-106096312D01*
X140669399Y-106107925D01*
X140678795Y-106115641D01*
X140692962Y-106126016D01*
X140644438Y-106209099D01*
X140635940Y-106223566D01*
X140622776Y-106245625D01*
X140611252Y-106264507D01*
X140601986Y-106279221D01*
X140595595Y-106288777D01*
X140592696Y-106292182D01*
X140590993Y-106291572D01*
X140583418Y-106287448D01*
X140571585Y-106280291D01*
X140557194Y-106271108D01*
X140555582Y-106270048D01*
X140513306Y-106237236D01*
X140476154Y-106198236D01*
X140444417Y-106153525D01*
X140418388Y-106103581D01*
X140398361Y-106048880D01*
X140384627Y-105989899D01*
X140383385Y-105981841D01*
X140380497Y-105953258D01*
X140378848Y-105919971D01*
X140378439Y-105884552D01*
X140379269Y-105849568D01*
X140381338Y-105817591D01*
X140384646Y-105791189D01*
X140388166Y-105772554D01*
X140404930Y-105709459D01*
X140428284Y-105650812D01*
X140458006Y-105596932D01*
X140493869Y-105548136D01*
X140535650Y-105504741D01*
X140583125Y-105467066D01*
X140636068Y-105435426D01*
X140673191Y-105418687D01*
X140728435Y-105400993D01*
X140786423Y-105389987D01*
X140845950Y-105385668D01*
X140905809Y-105388039D01*
G37*
G36*
X140918978Y-100590876D02*
G01*
X140966671Y-100596964D01*
X141009851Y-100606556D01*
X141050371Y-100620087D01*
X141090088Y-100637994D01*
X141098755Y-100642531D01*
X141143788Y-100670760D01*
X141186308Y-100705022D01*
X141224885Y-100743908D01*
X141258090Y-100786006D01*
X141284495Y-100829905D01*
X141288244Y-100837535D01*
X141304211Y-100876130D01*
X141317943Y-100919235D01*
X141328585Y-100963865D01*
X141335282Y-101007038D01*
X141337325Y-101032413D01*
X141336934Y-101090622D01*
X141329603Y-101147291D01*
X141315599Y-101201520D01*
X141295189Y-101252409D01*
X141268640Y-101299058D01*
X141236220Y-101340569D01*
X141209992Y-101369306D01*
X141266859Y-101370454D01*
X141323727Y-101371601D01*
X141324827Y-101475615D01*
X141325928Y-101579629D01*
X140672869Y-101579629D01*
X140019811Y-101579629D01*
X140020909Y-101471496D01*
X140022008Y-101363363D01*
X140260283Y-101362299D01*
X140498559Y-101361236D01*
X140478238Y-101339001D01*
X140454460Y-101310346D01*
X140429707Y-101272301D01*
X140409289Y-101229832D01*
X140392268Y-101181221D01*
X140388723Y-101167340D01*
X140383666Y-101137747D01*
X140380228Y-101103674D01*
X140564833Y-101103674D01*
X140568655Y-101138757D01*
X140580041Y-101184301D01*
X140598073Y-101225614D01*
X140622299Y-101262313D01*
X140652268Y-101294015D01*
X140687527Y-101320337D01*
X140727623Y-101340895D01*
X140772105Y-101355308D01*
X140820520Y-101363191D01*
X140872415Y-101364163D01*
X140883808Y-101363515D01*
X140916517Y-101360201D01*
X140944824Y-101354508D01*
X140971563Y-101345748D01*
X140999565Y-101333231D01*
X141021917Y-101320902D01*
X141059149Y-101293456D01*
X141090483Y-101260496D01*
X141115498Y-101222500D01*
X141133771Y-101179952D01*
X141138413Y-101164820D01*
X141142812Y-101145575D01*
X141145415Y-101125028D01*
X141146781Y-101099723D01*
X141147041Y-101090076D01*
X141146889Y-101062225D01*
X141144906Y-101038782D01*
X141140751Y-101016894D01*
X141134082Y-100993705D01*
X141123824Y-100967389D01*
X141102101Y-100928942D01*
X141074266Y-100894592D01*
X141041338Y-100865525D01*
X141004337Y-100842925D01*
X140985939Y-100834259D01*
X140962323Y-100824732D01*
X140939876Y-100818181D01*
X140916261Y-100814109D01*
X140889141Y-100812019D01*
X140856179Y-100811414D01*
X140854036Y-100811414D01*
X140823366Y-100811864D01*
X140798517Y-100813490D01*
X140777242Y-100816756D01*
X140757291Y-100822123D01*
X140736415Y-100830056D01*
X140712366Y-100841016D01*
X140673179Y-100864026D01*
X140639161Y-100892987D01*
X140611098Y-100927103D01*
X140589312Y-100965802D01*
X140574125Y-101008512D01*
X140565858Y-101054660D01*
X140564833Y-101103674D01*
X140380228Y-101103674D01*
X140380224Y-101103639D01*
X140378482Y-101067309D01*
X140378525Y-101031048D01*
X140380439Y-100997149D01*
X140384310Y-100967904D01*
X140393651Y-100926367D01*
X140413250Y-100867261D01*
X140439388Y-100813095D01*
X140472130Y-100763742D01*
X140511539Y-100719075D01*
X140536683Y-100695844D01*
X140583954Y-100660291D01*
X140634840Y-100631895D01*
X140689556Y-100610578D01*
X140748316Y-100596263D01*
X140811338Y-100588874D01*
X140854036Y-100588532D01*
X140878835Y-100588334D01*
X140918978Y-100590876D01*
G37*
G36*
X141945665Y-94137580D02*
G01*
X141949240Y-94147523D01*
X141953951Y-94162997D01*
X141959389Y-94182473D01*
X141965145Y-94204422D01*
X141970811Y-94227315D01*
X141975978Y-94249623D01*
X141980237Y-94269817D01*
X141981519Y-94276469D01*
X141986037Y-94302758D01*
X141990248Y-94332308D01*
X141994372Y-94366775D01*
X141998631Y-94407816D01*
X141998810Y-94409788D01*
X141999790Y-94427157D01*
X142000400Y-94450498D01*
X142000656Y-94477851D01*
X142000573Y-94507255D01*
X142000164Y-94536747D01*
X141999446Y-94564366D01*
X141998433Y-94588150D01*
X141997139Y-94606139D01*
X141987566Y-94681732D01*
X141971963Y-94762461D01*
X141950786Y-94839937D01*
X141923501Y-94916068D01*
X141889578Y-94992766D01*
X141863316Y-95044410D01*
X141819492Y-95119404D01*
X141770857Y-95189695D01*
X141716268Y-95256886D01*
X141654584Y-95322579D01*
X141612723Y-95362217D01*
X141539526Y-95422546D01*
X141461456Y-95476513D01*
X141379028Y-95523860D01*
X141292756Y-95564331D01*
X141203155Y-95597667D01*
X141110739Y-95623612D01*
X141016025Y-95641908D01*
X140996731Y-95644370D01*
X140962114Y-95647379D01*
X140922777Y-95649507D01*
X140880810Y-95650725D01*
X140838306Y-95651003D01*
X140797355Y-95650313D01*
X140760048Y-95648625D01*
X140728479Y-95645910D01*
X140681560Y-95639609D01*
X140593914Y-95622791D01*
X140511205Y-95600028D01*
X140433944Y-95571449D01*
X140416806Y-95564211D01*
X140399387Y-95556872D01*
X140385552Y-95551061D01*
X140377303Y-95547622D01*
X140369357Y-95543397D01*
X140365975Y-95539663D01*
X140366388Y-95537793D01*
X140369947Y-95529106D01*
X140376708Y-95514895D01*
X140386132Y-95496148D01*
X140397681Y-95473852D01*
X140410817Y-95448995D01*
X140425000Y-95422563D01*
X140439691Y-95395543D01*
X140454354Y-95368924D01*
X140468447Y-95343691D01*
X140481434Y-95320832D01*
X140492775Y-95301335D01*
X140501932Y-95286186D01*
X140508366Y-95276373D01*
X140511539Y-95272883D01*
X140512160Y-95273065D01*
X140518402Y-95275328D01*
X140529835Y-95279633D01*
X140544619Y-95285289D01*
X140600543Y-95304277D01*
X140669749Y-95321196D01*
X140743071Y-95332233D01*
X140821517Y-95337577D01*
X140844643Y-95338090D01*
X140919987Y-95336391D01*
X140990861Y-95329152D01*
X141058752Y-95316108D01*
X141125147Y-95296992D01*
X141191533Y-95271541D01*
X141252809Y-95242590D01*
X141327226Y-95199489D01*
X141396729Y-95149792D01*
X141461231Y-95093559D01*
X141499500Y-95054323D01*
X141551203Y-94991684D01*
X141596046Y-94924715D01*
X141633815Y-94853831D01*
X141664298Y-94779449D01*
X141687281Y-94701985D01*
X141702551Y-94621856D01*
X141704916Y-94600763D01*
X141707157Y-94568596D01*
X141708514Y-94532712D01*
X141708964Y-94495488D01*
X141708483Y-94459305D01*
X141707051Y-94426542D01*
X141704644Y-94399577D01*
X141704499Y-94398440D01*
X141701772Y-94380267D01*
X141697884Y-94358277D01*
X141693253Y-94334460D01*
X141688295Y-94310808D01*
X141683425Y-94289312D01*
X141679061Y-94271963D01*
X141675618Y-94260752D01*
X141674976Y-94258936D01*
X141674494Y-94254773D01*
X141676770Y-94250944D01*
X141682992Y-94246517D01*
X141694346Y-94240559D01*
X141712020Y-94232136D01*
X141746932Y-94215877D01*
X141786863Y-94197620D01*
X141823648Y-94181174D01*
X141856677Y-94166794D01*
X141885341Y-94154735D01*
X141909030Y-94145254D01*
X141927137Y-94138605D01*
X141939050Y-94135043D01*
X141944162Y-94134825D01*
X141945665Y-94137580D01*
G37*
G36*
X140856615Y-103202659D02*
G01*
X141027132Y-103202659D01*
X141667694Y-103202659D01*
X141667694Y-103311822D01*
X141667694Y-103420985D01*
X141441129Y-103420985D01*
X141414744Y-103421007D01*
X141373900Y-103421134D01*
X141336089Y-103421362D01*
X141302055Y-103421681D01*
X141272541Y-103422081D01*
X141248291Y-103422550D01*
X141230049Y-103423078D01*
X141218559Y-103423655D01*
X141214564Y-103424268D01*
X141216125Y-103427146D01*
X141222270Y-103434437D01*
X141231481Y-103443835D01*
X141242925Y-103455546D01*
X141272043Y-103492914D01*
X141295931Y-103535479D01*
X141314485Y-103582293D01*
X141327603Y-103632408D01*
X141335181Y-103684877D01*
X141337116Y-103738752D01*
X141333307Y-103793085D01*
X141323649Y-103846930D01*
X141308040Y-103899337D01*
X141286377Y-103949360D01*
X141282637Y-103956552D01*
X141250573Y-104008666D01*
X141212933Y-104054809D01*
X141169958Y-104094831D01*
X141121888Y-104128585D01*
X141068964Y-104155923D01*
X141011426Y-104176695D01*
X140949514Y-104190755D01*
X140883470Y-104197952D01*
X140833087Y-104198506D01*
X140769891Y-104192672D01*
X140709802Y-104179696D01*
X140653243Y-104159873D01*
X140600637Y-104133498D01*
X140552407Y-104100867D01*
X140508974Y-104062276D01*
X140470763Y-104018020D01*
X140438196Y-103968394D01*
X140411696Y-103913695D01*
X140391685Y-103854217D01*
X140387992Y-103839892D01*
X140385247Y-103827151D01*
X140383305Y-103814359D01*
X140382023Y-103799880D01*
X140381254Y-103782075D01*
X140380854Y-103759306D01*
X140380678Y-103729937D01*
X140380670Y-103727219D01*
X140380687Y-103716012D01*
X140564940Y-103716012D01*
X140564978Y-103716678D01*
X140571597Y-103765015D01*
X140585370Y-103809453D01*
X140606001Y-103849604D01*
X140633191Y-103885078D01*
X140666641Y-103915484D01*
X140706056Y-103940434D01*
X140751135Y-103959537D01*
X140759308Y-103962221D01*
X140770744Y-103965542D01*
X140781753Y-103967850D01*
X140794068Y-103969327D01*
X140809422Y-103970156D01*
X140829548Y-103970519D01*
X140856179Y-103970600D01*
X140873748Y-103970573D01*
X140896093Y-103970336D01*
X140913021Y-103969701D01*
X140926265Y-103968487D01*
X140937558Y-103966510D01*
X140948633Y-103963587D01*
X140961223Y-103959537D01*
X140971935Y-103955718D01*
X141014691Y-103935515D01*
X141052435Y-103909375D01*
X141084630Y-103877894D01*
X141110741Y-103841669D01*
X141130232Y-103801299D01*
X141142566Y-103757381D01*
X141144052Y-103748911D01*
X141148283Y-103699667D01*
X141144969Y-103651917D01*
X141134336Y-103606397D01*
X141116609Y-103563839D01*
X141092011Y-103524978D01*
X141060769Y-103490546D01*
X141059538Y-103489423D01*
X141040154Y-103474546D01*
X141015557Y-103459487D01*
X140988371Y-103445719D01*
X140961223Y-103434714D01*
X140953451Y-103432060D01*
X140941955Y-103428546D01*
X140931069Y-103426108D01*
X140919024Y-103424548D01*
X140904051Y-103423667D01*
X140884379Y-103423267D01*
X140858239Y-103423148D01*
X140856615Y-103423146D01*
X140830124Y-103423241D01*
X140809988Y-103423708D01*
X140794424Y-103424714D01*
X140781647Y-103426427D01*
X140769872Y-103429016D01*
X140757314Y-103432649D01*
X140713926Y-103449784D01*
X140673885Y-103473580D01*
X140639548Y-103502929D01*
X140611244Y-103537346D01*
X140589303Y-103576348D01*
X140574052Y-103619449D01*
X140565822Y-103666165D01*
X140564940Y-103716012D01*
X140380687Y-103716012D01*
X140380716Y-103697031D01*
X140381116Y-103673438D01*
X140381969Y-103654918D01*
X140383376Y-103639951D01*
X140385435Y-103627017D01*
X140388248Y-103614595D01*
X140396965Y-103584497D01*
X140418059Y-103532121D01*
X140445459Y-103484864D01*
X140479325Y-103442427D01*
X140506804Y-103412746D01*
X140446688Y-103412746D01*
X140386571Y-103412746D01*
X140386571Y-103307703D01*
X140386571Y-103202659D01*
X140856615Y-103202659D01*
G37*
G36*
X141233270Y-102194981D02*
G01*
X141237630Y-102200026D01*
X141244388Y-102211184D01*
X141252857Y-102227033D01*
X141262351Y-102246152D01*
X141272182Y-102267118D01*
X141281665Y-102288508D01*
X141290111Y-102308902D01*
X141296834Y-102326876D01*
X141298716Y-102332485D01*
X141307303Y-102361889D01*
X141315687Y-102396187D01*
X141323290Y-102432653D01*
X141329534Y-102468566D01*
X141333840Y-102501202D01*
X141334466Y-102508023D01*
X141335829Y-102533730D01*
X141336337Y-102564351D01*
X141336050Y-102597694D01*
X141335025Y-102631572D01*
X141333321Y-102663794D01*
X141330997Y-102692171D01*
X141328113Y-102714514D01*
X141325055Y-102731218D01*
X141310904Y-102787644D01*
X141291965Y-102838390D01*
X141268479Y-102883199D01*
X141240689Y-102921816D01*
X141208838Y-102953983D01*
X141173168Y-102979445D01*
X141133922Y-102997945D01*
X141091342Y-103009227D01*
X141045670Y-103013036D01*
X141038438Y-103012961D01*
X140993659Y-103008770D01*
X140953814Y-102998037D01*
X140918621Y-102980593D01*
X140887800Y-102956264D01*
X140861071Y-102924879D01*
X140838152Y-102886268D01*
X140824389Y-102856747D01*
X140812470Y-102826355D01*
X140802328Y-102794239D01*
X140793508Y-102758770D01*
X140785554Y-102718320D01*
X140778010Y-102671261D01*
X140772856Y-102638234D01*
X140764280Y-102591270D01*
X140755309Y-102551405D01*
X140746030Y-102519017D01*
X140736533Y-102494488D01*
X140725555Y-102473426D01*
X140712658Y-102455742D01*
X140698325Y-102444357D01*
X140681230Y-102438264D01*
X140660046Y-102436457D01*
X140651038Y-102436876D01*
X140626401Y-102443074D01*
X140605281Y-102456558D01*
X140587770Y-102477162D01*
X140573957Y-102504721D01*
X140563932Y-102539070D01*
X140557786Y-102580044D01*
X140555609Y-102627479D01*
X140555782Y-102643757D01*
X140560231Y-102703400D01*
X140570416Y-102761087D01*
X140585991Y-102815215D01*
X140606609Y-102864178D01*
X140624771Y-102900340D01*
X140540728Y-102942302D01*
X140456685Y-102984264D01*
X140443733Y-102958606D01*
X140443033Y-102957215D01*
X140420062Y-102903247D01*
X140401986Y-102843179D01*
X140388926Y-102777614D01*
X140381001Y-102707152D01*
X140378333Y-102632395D01*
X140379132Y-102593876D01*
X140384690Y-102528848D01*
X140395601Y-102469861D01*
X140411932Y-102416716D01*
X140433751Y-102369211D01*
X140461125Y-102327147D01*
X140494123Y-102290325D01*
X140510611Y-102275685D01*
X140548013Y-102249954D01*
X140588221Y-102231954D01*
X140631275Y-102221675D01*
X140677217Y-102219105D01*
X140726086Y-102224231D01*
X140764235Y-102234538D01*
X140801000Y-102252469D01*
X140833611Y-102277433D01*
X140861883Y-102309289D01*
X140885629Y-102347891D01*
X140889740Y-102356028D01*
X140898396Y-102374101D01*
X140905862Y-102391554D01*
X140912427Y-102409482D01*
X140918379Y-102428986D01*
X140924009Y-102451162D01*
X140929606Y-102477108D01*
X140935460Y-102507922D01*
X140941860Y-102544701D01*
X140949096Y-102588545D01*
X140952721Y-102610645D01*
X140958386Y-102643786D01*
X140963374Y-102670563D01*
X140967964Y-102692126D01*
X140972432Y-102709623D01*
X140977056Y-102724202D01*
X140982113Y-102737011D01*
X140987880Y-102749199D01*
X140999798Y-102769197D01*
X141015849Y-102786483D01*
X141034124Y-102796166D01*
X141055265Y-102798558D01*
X141079911Y-102793970D01*
X141098375Y-102785470D01*
X141117173Y-102768632D01*
X141132366Y-102744720D01*
X141143876Y-102713952D01*
X141151625Y-102676545D01*
X141155536Y-102632720D01*
X141155528Y-102582694D01*
X141155445Y-102580553D01*
X141149089Y-102510612D01*
X141135622Y-102444035D01*
X141114703Y-102379520D01*
X141085993Y-102315764D01*
X141078925Y-102301709D01*
X141072232Y-102287740D01*
X141067959Y-102277992D01*
X141066811Y-102274003D01*
X141066983Y-102273853D01*
X141072911Y-102270206D01*
X141084620Y-102263975D01*
X141100794Y-102255787D01*
X141120119Y-102246267D01*
X141141279Y-102236041D01*
X141162958Y-102225735D01*
X141183841Y-102215974D01*
X141202611Y-102207385D01*
X141217955Y-102200593D01*
X141228555Y-102196224D01*
X141233097Y-102194903D01*
X141233270Y-102194981D01*
G37*
G36*
X141598573Y-97220181D02*
G01*
X141606579Y-97230839D01*
X141616097Y-97245080D01*
X141625897Y-97260983D01*
X141634752Y-97276624D01*
X141641432Y-97290079D01*
X141651273Y-97315180D01*
X141662126Y-97350255D01*
X141670571Y-97386182D01*
X141675580Y-97419071D01*
X141676021Y-97423877D01*
X141677388Y-97471153D01*
X141673849Y-97519168D01*
X141665719Y-97565269D01*
X141653313Y-97606800D01*
X141648807Y-97617958D01*
X141626815Y-97658641D01*
X141597102Y-97696837D01*
X141559818Y-97732396D01*
X141515113Y-97765170D01*
X141463138Y-97795011D01*
X141460242Y-97796406D01*
X141449298Y-97801415D01*
X141431627Y-97809341D01*
X141407773Y-97819945D01*
X141378278Y-97832991D01*
X141343685Y-97848243D01*
X141304538Y-97865463D01*
X141261378Y-97884415D01*
X141214748Y-97904862D01*
X141165193Y-97926567D01*
X141113254Y-97949294D01*
X141059474Y-97972804D01*
X141004397Y-97996863D01*
X140948564Y-98021233D01*
X140892520Y-98045676D01*
X140836806Y-98069957D01*
X140781966Y-98093838D01*
X140728543Y-98117083D01*
X140677079Y-98139454D01*
X140628117Y-98160716D01*
X140582201Y-98180630D01*
X140539872Y-98198961D01*
X140501675Y-98215472D01*
X140468151Y-98229925D01*
X140439844Y-98242084D01*
X140417296Y-98251712D01*
X140401050Y-98258573D01*
X140391650Y-98262428D01*
X140390348Y-98262017D01*
X140389038Y-98258230D01*
X140388104Y-98250065D01*
X140387517Y-98236751D01*
X140387246Y-98217515D01*
X140387261Y-98191587D01*
X140387531Y-98158194D01*
X140388631Y-98051911D01*
X140731503Y-97905415D01*
X140734102Y-97904305D01*
X140784266Y-97882843D01*
X140832186Y-97862293D01*
X140877329Y-97842884D01*
X140919160Y-97824848D01*
X140957147Y-97808418D01*
X140990755Y-97793825D01*
X141019451Y-97781301D01*
X141042701Y-97771078D01*
X141059972Y-97763386D01*
X141070729Y-97758458D01*
X141074440Y-97756526D01*
X141074427Y-97756498D01*
X141070282Y-97754386D01*
X141059114Y-97749310D01*
X141041458Y-97741500D01*
X141017847Y-97731187D01*
X140988813Y-97718601D01*
X140954892Y-97703972D01*
X140916615Y-97687529D01*
X140874516Y-97669503D01*
X140829130Y-97650125D01*
X140780989Y-97629623D01*
X140730627Y-97608229D01*
X140386748Y-97462325D01*
X140386660Y-97348012D01*
X140386658Y-97344307D01*
X140386709Y-97314872D01*
X140386870Y-97288442D01*
X140387126Y-97266063D01*
X140387462Y-97248781D01*
X140387862Y-97237645D01*
X140388312Y-97233700D01*
X140391767Y-97235117D01*
X140402346Y-97239636D01*
X140419594Y-97247065D01*
X140443054Y-97257207D01*
X140472270Y-97269864D01*
X140506786Y-97284837D01*
X140546146Y-97301928D01*
X140589894Y-97320940D01*
X140637574Y-97341674D01*
X140688729Y-97363932D01*
X140742905Y-97387517D01*
X140799644Y-97412229D01*
X140858490Y-97437872D01*
X140890166Y-97451677D01*
X140956185Y-97480440D01*
X141015234Y-97506144D01*
X141067714Y-97528956D01*
X141114028Y-97549042D01*
X141154577Y-97566567D01*
X141189762Y-97581699D01*
X141219984Y-97594602D01*
X141245646Y-97605444D01*
X141267148Y-97614390D01*
X141284893Y-97621607D01*
X141299281Y-97627261D01*
X141310714Y-97631517D01*
X141319594Y-97634542D01*
X141326322Y-97636503D01*
X141331300Y-97637564D01*
X141334929Y-97637893D01*
X141337610Y-97637655D01*
X141339745Y-97637017D01*
X141365097Y-97626150D01*
X141399721Y-97607933D01*
X141429821Y-97587906D01*
X141454484Y-97566785D01*
X141472800Y-97545283D01*
X141483856Y-97524115D01*
X141490583Y-97497677D01*
X141493795Y-97461366D01*
X141490827Y-97425044D01*
X141489215Y-97417127D01*
X141481670Y-97391605D01*
X141470949Y-97364893D01*
X141458409Y-97340118D01*
X141445407Y-97320407D01*
X141441278Y-97314995D01*
X141435261Y-97306123D01*
X141432901Y-97301077D01*
X141433166Y-97300558D01*
X141438406Y-97296518D01*
X141449381Y-97289669D01*
X141464800Y-97280699D01*
X141483377Y-97270296D01*
X141503823Y-97259150D01*
X141524850Y-97247947D01*
X141545169Y-97237378D01*
X141563492Y-97228129D01*
X141578530Y-97220891D01*
X141588996Y-97216351D01*
X141593601Y-97215198D01*
X141598573Y-97220181D01*
G37*
G36*
X140894886Y-106393173D02*
G01*
X140957610Y-106401296D01*
X140962474Y-106402245D01*
X141020867Y-106417988D01*
X141075510Y-106440807D01*
X141126037Y-106470281D01*
X141172079Y-106505993D01*
X141213265Y-106547525D01*
X141249228Y-106594457D01*
X141279600Y-106646372D01*
X141304010Y-106702851D01*
X141322090Y-106763474D01*
X141333473Y-106827825D01*
X141335018Y-106845068D01*
X141336198Y-106875036D01*
X141336203Y-106908786D01*
X141335118Y-106943922D01*
X141333029Y-106978046D01*
X141330020Y-107008760D01*
X141326177Y-107033668D01*
X141319191Y-107064516D01*
X141301516Y-107120413D01*
X141278236Y-107170943D01*
X141248966Y-107216875D01*
X141213320Y-107258981D01*
X141184765Y-107288625D01*
X141127155Y-107238385D01*
X141109885Y-107223350D01*
X141092078Y-107207907D01*
X141076822Y-107194738D01*
X141065334Y-107184892D01*
X141058830Y-107179419D01*
X141048114Y-107170694D01*
X141071387Y-107144976D01*
X141081799Y-107132571D01*
X141103869Y-107099907D01*
X141122602Y-107063202D01*
X141136442Y-107025316D01*
X141137178Y-107022673D01*
X141142006Y-106998834D01*
X141145552Y-106969651D01*
X141147700Y-106937607D01*
X141148335Y-106905185D01*
X141147342Y-106874866D01*
X141144606Y-106849134D01*
X141137641Y-106816359D01*
X141122337Y-106771897D01*
X141101319Y-106731496D01*
X141075146Y-106696007D01*
X141044377Y-106666281D01*
X141009570Y-106643172D01*
X141008285Y-106642493D01*
X140991377Y-106634275D01*
X140973083Y-106626433D01*
X140955589Y-106619799D01*
X140941080Y-106615208D01*
X140931742Y-106613492D01*
X140931478Y-106613565D01*
X140930531Y-106615333D01*
X140929700Y-106619810D01*
X140928978Y-106627458D01*
X140928358Y-106638737D01*
X140927832Y-106654108D01*
X140927395Y-106674032D01*
X140927038Y-106698969D01*
X140926755Y-106729380D01*
X140926540Y-106765726D01*
X140926384Y-106808468D01*
X140926282Y-106858066D01*
X140926225Y-106914982D01*
X140926208Y-106979675D01*
X140926204Y-107020550D01*
X140926178Y-107079303D01*
X140926119Y-107130628D01*
X140926020Y-107175022D01*
X140925870Y-107212984D01*
X140925662Y-107245011D01*
X140925386Y-107271601D01*
X140925034Y-107293253D01*
X140924596Y-107310464D01*
X140924065Y-107323732D01*
X140923431Y-107333556D01*
X140922686Y-107340432D01*
X140921820Y-107344859D01*
X140920825Y-107347335D01*
X140919692Y-107348358D01*
X140914385Y-107349500D01*
X140900950Y-107350548D01*
X140882251Y-107350928D01*
X140860026Y-107350687D01*
X140836013Y-107349869D01*
X140811949Y-107348522D01*
X140789573Y-107346690D01*
X140770622Y-107344420D01*
X140715537Y-107333144D01*
X140657403Y-107313839D01*
X140603540Y-107287840D01*
X140554348Y-107255498D01*
X140510228Y-107217166D01*
X140471579Y-107173199D01*
X140438803Y-107123949D01*
X140412300Y-107069769D01*
X140392469Y-107011011D01*
X140388729Y-106994706D01*
X140383734Y-106962603D01*
X140380305Y-106926154D01*
X140378568Y-106888574D01*
X140554535Y-106888574D01*
X140556507Y-106920259D01*
X140561125Y-106947161D01*
X140566468Y-106965244D01*
X140584136Y-107005847D01*
X140608332Y-107043447D01*
X140637981Y-107076529D01*
X140672010Y-107103579D01*
X140679391Y-107108068D01*
X140697871Y-107117472D01*
X140718754Y-107126332D01*
X140739652Y-107133761D01*
X140758178Y-107138870D01*
X140771945Y-107140771D01*
X140782030Y-107140771D01*
X140782030Y-106877375D01*
X140782026Y-106864174D01*
X140781953Y-106818993D01*
X140781794Y-106776482D01*
X140781556Y-106737335D01*
X140781249Y-106702250D01*
X140780879Y-106671922D01*
X140780455Y-106647048D01*
X140779985Y-106628324D01*
X140779478Y-106616447D01*
X140778941Y-106612112D01*
X140778591Y-106611985D01*
X140772327Y-106612346D01*
X140760675Y-106614445D01*
X140745844Y-106617897D01*
X140742722Y-106618714D01*
X140700430Y-106634115D01*
X140662132Y-106656208D01*
X140628553Y-106684278D01*
X140600419Y-106717613D01*
X140578457Y-106755499D01*
X140563393Y-106797221D01*
X140558341Y-106822871D01*
X140555161Y-106855110D01*
X140554535Y-106888574D01*
X140378568Y-106888574D01*
X140378528Y-106887709D01*
X140378491Y-106849616D01*
X140380283Y-106814226D01*
X140383991Y-106783887D01*
X140387444Y-106765841D01*
X140403949Y-106705348D01*
X140427196Y-106648675D01*
X140456847Y-106596359D01*
X140492564Y-106548938D01*
X140534009Y-106506951D01*
X140580844Y-106470934D01*
X140600674Y-106458528D01*
X140653665Y-106431932D01*
X140710561Y-106411917D01*
X140770382Y-106398665D01*
X140778591Y-106397827D01*
X140832151Y-106392357D01*
X140894886Y-106393173D01*
G37*
G36*
X141072241Y-99530906D02*
G01*
X141099601Y-99532803D01*
X141123682Y-99537223D01*
X141147325Y-99544747D01*
X141173370Y-99555954D01*
X141174282Y-99556384D01*
X141190669Y-99565003D01*
X141205492Y-99575015D01*
X141220979Y-99588106D01*
X141239356Y-99605966D01*
X141240658Y-99607291D01*
X141273729Y-99646715D01*
X141299527Y-99689965D01*
X141318112Y-99737164D01*
X141329545Y-99788434D01*
X141329638Y-99789065D01*
X141332098Y-99805448D01*
X141334311Y-99819735D01*
X141335807Y-99828899D01*
X141336702Y-99839065D01*
X141336961Y-99856314D01*
X141336554Y-99877984D01*
X141335581Y-99902094D01*
X141334141Y-99926667D01*
X141332334Y-99949724D01*
X141330259Y-99969287D01*
X141328017Y-99983376D01*
X141325972Y-99992429D01*
X141311218Y-100040721D01*
X141291210Y-100084165D01*
X141266367Y-100121974D01*
X141237111Y-100153364D01*
X141212919Y-100174926D01*
X141269353Y-100174926D01*
X141325786Y-100174926D01*
X141325786Y-100278120D01*
X141325786Y-100381313D01*
X141005506Y-100379942D01*
X140685225Y-100378570D01*
X140644032Y-100367453D01*
X140642432Y-100367018D01*
X140590153Y-100349042D01*
X140543670Y-100325290D01*
X140502936Y-100295707D01*
X140467908Y-100260240D01*
X140438539Y-100218835D01*
X140414784Y-100171437D01*
X140396598Y-100117994D01*
X140383935Y-100058451D01*
X140382445Y-100047573D01*
X140379885Y-100016937D01*
X140378649Y-99981245D01*
X140378682Y-99942651D01*
X140379930Y-99903310D01*
X140382338Y-99865376D01*
X140385852Y-99831005D01*
X140390417Y-99802349D01*
X140393726Y-99787073D01*
X140402053Y-99754163D01*
X140411993Y-99720268D01*
X140422812Y-99687668D01*
X140433776Y-99658641D01*
X140444153Y-99635467D01*
X140446797Y-99630332D01*
X140455847Y-99613868D01*
X140465713Y-99597189D01*
X140475436Y-99581780D01*
X140484058Y-99569127D01*
X140490618Y-99560717D01*
X140494157Y-99558034D01*
X140499495Y-99560511D01*
X140510933Y-99566371D01*
X140526572Y-99574678D01*
X140545139Y-99584726D01*
X140565360Y-99595811D01*
X140585965Y-99607226D01*
X140605678Y-99618265D01*
X140623228Y-99628223D01*
X140637343Y-99636393D01*
X140646748Y-99642070D01*
X140650171Y-99644548D01*
X140648828Y-99647781D01*
X140643783Y-99656156D01*
X140636270Y-99667205D01*
X140627484Y-99680413D01*
X140608269Y-99715678D01*
X140591232Y-99755794D01*
X140577296Y-99798431D01*
X140567384Y-99841258D01*
X140567202Y-99842299D01*
X140565116Y-99859000D01*
X140563434Y-99880978D01*
X140562323Y-99905498D01*
X140561952Y-99929824D01*
X140562146Y-99950367D01*
X140562963Y-99971849D01*
X140564645Y-99989294D01*
X140567445Y-100005078D01*
X140571612Y-100021582D01*
X140574395Y-100030871D01*
X140590046Y-100068073D01*
X140611115Y-100099087D01*
X140637474Y-100123811D01*
X140668996Y-100142145D01*
X140705552Y-100153989D01*
X140747016Y-100159243D01*
X140775851Y-100160508D01*
X140778170Y-99995558D01*
X140922629Y-99995558D01*
X140922892Y-100047226D01*
X140924148Y-100160508D01*
X140976546Y-100161660D01*
X140997863Y-100162051D01*
X141013593Y-100161940D01*
X141025004Y-100161024D01*
X141034083Y-100159016D01*
X141042815Y-100155628D01*
X141053187Y-100150574D01*
X141064762Y-100144224D01*
X141096743Y-100120532D01*
X141124100Y-100090379D01*
X141146409Y-100054298D01*
X141163242Y-100012823D01*
X141164486Y-100008736D01*
X141171733Y-99975233D01*
X141175485Y-99938165D01*
X141175537Y-99901053D01*
X141171685Y-99867418D01*
X141164709Y-99841614D01*
X141153184Y-99814603D01*
X141138768Y-99790993D01*
X141122716Y-99773199D01*
X141101466Y-99758940D01*
X141074450Y-99749177D01*
X141046014Y-99746362D01*
X141017668Y-99750440D01*
X140990926Y-99761352D01*
X140967299Y-99779043D01*
X140959499Y-99787375D01*
X140949936Y-99800487D01*
X140942038Y-99815780D01*
X140935681Y-99834009D01*
X140930739Y-99855925D01*
X140927087Y-99882285D01*
X140924602Y-99913841D01*
X140923157Y-99951347D01*
X140922629Y-99995558D01*
X140778170Y-99995558D01*
X140778312Y-99985435D01*
X140778432Y-99976941D01*
X140779059Y-99935043D01*
X140779670Y-99900295D01*
X140780315Y-99871776D01*
X140781043Y-99848566D01*
X140781903Y-99829744D01*
X140782945Y-99814390D01*
X140784219Y-99801582D01*
X140785773Y-99790401D01*
X140787657Y-99779927D01*
X140789921Y-99769237D01*
X140796262Y-99743659D01*
X140813311Y-99693394D01*
X140834987Y-99649893D01*
X140861349Y-99613084D01*
X140892455Y-99582890D01*
X140928366Y-99559238D01*
X140969138Y-99542054D01*
X140973298Y-99540731D01*
X140990495Y-99535978D01*
X141006994Y-99533011D01*
X141025767Y-99531413D01*
X141046014Y-99530870D01*
X141049789Y-99530769D01*
X141072241Y-99530906D01*
G37*
G36*
X141086436Y-104330557D02*
G01*
X141110902Y-104333096D01*
X141129901Y-104337042D01*
X141148166Y-104343204D01*
X141189455Y-104362889D01*
X141226050Y-104389284D01*
X141258385Y-104422678D01*
X141262272Y-104427546D01*
X141285465Y-104462529D01*
X141305132Y-104502523D01*
X141320187Y-104545015D01*
X141329545Y-104587493D01*
X141329638Y-104588125D01*
X141332097Y-104604507D01*
X141334306Y-104618795D01*
X141335798Y-104627959D01*
X141336562Y-104634924D01*
X141337077Y-104651384D01*
X141336831Y-104672740D01*
X141335929Y-104696977D01*
X141334475Y-104722081D01*
X141332572Y-104746035D01*
X141330324Y-104766825D01*
X141327835Y-104782435D01*
X141323286Y-104801683D01*
X141308608Y-104845867D01*
X141289147Y-104886403D01*
X141265638Y-104921899D01*
X141238818Y-104950962D01*
X141218071Y-104969615D01*
X141270899Y-104970771D01*
X141323727Y-104971926D01*
X141324827Y-105075940D01*
X141325928Y-105179954D01*
X141030185Y-105179954D01*
X140975666Y-105179899D01*
X140921376Y-105179724D01*
X140871700Y-105179435D01*
X140827156Y-105179039D01*
X140788261Y-105178543D01*
X140755534Y-105177953D01*
X140729492Y-105177275D01*
X140710653Y-105176518D01*
X140699535Y-105175686D01*
X140664439Y-105170133D01*
X140611153Y-105156053D01*
X140563280Y-105135785D01*
X140520787Y-105109297D01*
X140483643Y-105076560D01*
X140451816Y-105037545D01*
X140425273Y-104992219D01*
X140403982Y-104940554D01*
X140387911Y-104882519D01*
X140386498Y-104875707D01*
X140384325Y-104862609D01*
X140382721Y-104847988D01*
X140381611Y-104830501D01*
X140380923Y-104808806D01*
X140380584Y-104781560D01*
X140380518Y-104747420D01*
X140380581Y-104722163D01*
X140380806Y-104695050D01*
X140381299Y-104673470D01*
X140382171Y-104655885D01*
X140383536Y-104640759D01*
X140385506Y-104626555D01*
X140388193Y-104611736D01*
X140391711Y-104594763D01*
X140409091Y-104526964D01*
X140431414Y-104464283D01*
X140458370Y-104408271D01*
X140490001Y-104358826D01*
X140490017Y-104358809D01*
X140494121Y-104360043D01*
X140504162Y-104364505D01*
X140518855Y-104371533D01*
X140536917Y-104380468D01*
X140557064Y-104390649D01*
X140578011Y-104401417D01*
X140598474Y-104412112D01*
X140617169Y-104422074D01*
X140632812Y-104430643D01*
X140644119Y-104437158D01*
X140649805Y-104440960D01*
X140648734Y-104444520D01*
X140644049Y-104453058D01*
X140636764Y-104464597D01*
X140633191Y-104470077D01*
X140605838Y-104519942D01*
X140584484Y-104574097D01*
X140569573Y-104630893D01*
X140561550Y-104688680D01*
X140560861Y-104745807D01*
X140562963Y-104771530D01*
X140570095Y-104813460D01*
X140581702Y-104849351D01*
X140598049Y-104879930D01*
X140619405Y-104905926D01*
X140620264Y-104906780D01*
X140646532Y-104928353D01*
X140675949Y-104943785D01*
X140709726Y-104953566D01*
X140749075Y-104958184D01*
X140775851Y-104959568D01*
X140778218Y-104791161D01*
X140922784Y-104791161D01*
X140922984Y-104844225D01*
X140924148Y-104959568D01*
X140975487Y-104960731D01*
X140996825Y-104961137D01*
X141012249Y-104961009D01*
X141023575Y-104960019D01*
X141032882Y-104957848D01*
X141042249Y-104954176D01*
X141053755Y-104948683D01*
X141081382Y-104931695D01*
X141109746Y-104905980D01*
X141134089Y-104874521D01*
X141153551Y-104838453D01*
X141167271Y-104798912D01*
X141170156Y-104785621D01*
X141174004Y-104756229D01*
X141175621Y-104724288D01*
X141174893Y-104693256D01*
X141171703Y-104666590D01*
X141163098Y-104634084D01*
X141148531Y-104603022D01*
X141128682Y-104577969D01*
X141103341Y-104558592D01*
X141099310Y-104556275D01*
X141089699Y-104551728D01*
X141079624Y-104549112D01*
X141066497Y-104547916D01*
X141047729Y-104547631D01*
X141039340Y-104547668D01*
X141023178Y-104548253D01*
X141011584Y-104549957D01*
X141001946Y-104553300D01*
X140991653Y-104558802D01*
X140980375Y-104566005D01*
X140966649Y-104577094D01*
X140955153Y-104590010D01*
X140945717Y-104605463D01*
X140938169Y-104624162D01*
X140932338Y-104646815D01*
X140928055Y-104674133D01*
X140925149Y-104706824D01*
X140923449Y-104745597D01*
X140922784Y-104791161D01*
X140778218Y-104791161D01*
X140778312Y-104784495D01*
X140778432Y-104775987D01*
X140779059Y-104734091D01*
X140779670Y-104699344D01*
X140780315Y-104670825D01*
X140781043Y-104647613D01*
X140781904Y-104628788D01*
X140782946Y-104613428D01*
X140784220Y-104600614D01*
X140785775Y-104589422D01*
X140787660Y-104578934D01*
X140789925Y-104568228D01*
X140802199Y-104522832D01*
X140821221Y-104474792D01*
X140845003Y-104433466D01*
X140873560Y-104398837D01*
X140906903Y-104370891D01*
X140945045Y-104349613D01*
X140987999Y-104334988D01*
X141006809Y-104331761D01*
X141031732Y-104329851D01*
X141047729Y-104329625D01*
X141059160Y-104329463D01*
X141086436Y-104330557D01*
G37*
%TD*%
%LPC*%
D12*
X138600000Y-113850000D02*
X158500000Y-113850000D01*
X158500000Y-114400000D01*
X138600000Y-114400000D01*
X138600000Y-113850000D01*
G36*
X138600000Y-113850000D02*
G01*
X158500000Y-113850000D01*
X158500000Y-114400000D01*
X138600000Y-114400000D01*
X138600000Y-113850000D01*
G37*
D11*
%TO.C,J1*%
G36*
X150777686Y-92669501D02*
G01*
X150856638Y-92964152D01*
X150985556Y-93240617D01*
X151160522Y-93490495D01*
X151376222Y-93706195D01*
X151626100Y-93881161D01*
X151902565Y-94010079D01*
X152197216Y-94089031D01*
X152501100Y-94115617D01*
X152804984Y-94089031D01*
X153099635Y-94010079D01*
X153376100Y-93881161D01*
X153625978Y-93706195D01*
X153841678Y-93490495D01*
X154016644Y-93240617D01*
X154145562Y-92964152D01*
X154224514Y-92669501D01*
X154251100Y-92365617D01*
X155251100Y-92365617D01*
X155157396Y-93077369D01*
X155041769Y-93417996D01*
X154882670Y-93740617D01*
X154682822Y-94039711D01*
X154445644Y-94310161D01*
X154175194Y-94547339D01*
X153876100Y-94747187D01*
X153553479Y-94906286D01*
X153212852Y-95021913D01*
X152860047Y-95092090D01*
X152501100Y-95115617D01*
X152142153Y-95092090D01*
X151789348Y-95021913D01*
X151448721Y-94906286D01*
X151126100Y-94747187D01*
X150827006Y-94547339D01*
X150556556Y-94310161D01*
X150319378Y-94039711D01*
X150119530Y-93740617D01*
X149960431Y-93417996D01*
X149844804Y-93077369D01*
X149774627Y-92724564D01*
X149751100Y-92365617D01*
X150751100Y-92365617D01*
X150777686Y-92669501D01*
G37*
%TD*%
D13*
%TO.C,J1*%
X157501100Y-112840617D03*
X157001100Y-112840617D03*
X156501100Y-112840617D03*
X156001100Y-112840617D03*
X155501100Y-112840617D03*
X155001100Y-112840617D03*
X154501100Y-112840617D03*
X154001100Y-112840617D03*
X153501100Y-112840617D03*
X153001100Y-112840617D03*
X152501100Y-112840617D03*
X150001100Y-112840617D03*
X149501100Y-112840617D03*
X149001100Y-112840617D03*
X148501100Y-112840617D03*
X148001100Y-112840617D03*
X147501100Y-112840617D03*
X147001100Y-112840617D03*
X146501100Y-112840617D03*
X146001100Y-112840617D03*
X145501100Y-112840617D03*
X145001100Y-112840617D03*
X144501100Y-112840617D03*
X144001100Y-112840617D03*
X143501100Y-112840617D03*
X143001100Y-112840617D03*
X142501100Y-112840617D03*
X142001100Y-112840617D03*
X141501100Y-112840617D03*
X141001100Y-112840617D03*
X140501100Y-112840617D03*
X140001100Y-112840617D03*
X139501100Y-112840617D03*
D14*
X150401100Y-93365617D03*
X152501100Y-94665617D03*
X154601100Y-93365617D03*
%TD*%
%LPD*%
M02*
