M48
; DRILL file {KiCad 9.0.0} date 2025-05-22T17:38:36+0400
; FORMAT={-:-/ absolute / inch / decimal}
; #@! TF.CreationDate,2025-05-22T17:38:36+04:00
; #@! TF.GenerationSoftware,Kicad,Pcbnew,9.0.0
; #@! TF.FileFunction,Plated,1,2,PTH
FMAT,2
INCH
; #@! TA.AperFunction,Plated,PTH,ComponentDrill
T1C0.0079
; #@! TA.AperFunction,Plated,PTH,ViaDrill
T2C0.0118
%
G90
G05
T1
X5.9213Y-3.6758
X6.004Y-3.727
X6.0867Y-3.6758
T2
X5.5433Y-4.1102
X5.6102Y-4.248
X5.6445Y-3.9973
X5.7244Y-4.2126
X5.752Y-3.7165
X5.752Y-3.7559
X5.752Y-3.7953
X5.7913Y-3.7165
X5.7913Y-3.7559
X5.8268Y-3.8465
X5.8268Y-3.937
X5.8307Y-3.7165
X5.8307Y-4.248
X5.8386Y-4.1654
X6.0906Y-3.748
X6.126Y-3.9961
X6.1654Y-3.9567
X6.1654Y-3.9961
X6.2047Y-3.9173
X6.2047Y-3.9567
X6.2047Y-3.9961
M30
