%TF.GenerationSoftware,KiCad,Pcbnew,9.0.0*%
%TF.CreationDate,2025-05-22T17:38:36+04:00*%
%TF.ProjectId,02_06_sensor_temphumid_HDC3022DEJR,30325f30-365f-4736-956e-736f725f7465,rev?*%
%TF.SameCoordinates,Original*%
%TF.FileFunction,Copper,L2,Bot*%
%TF.FilePolarity,Positive*%
%FSLAX46Y46*%
G04 Gerber Fmt 4.6, Leading zero omitted, Abs format (unit mm)*
G04 Created by KiCad (PCBNEW 9.0.0) date 2025-05-22 17:38:36*
%MOMM*%
%LPD*%
G01*
G04 APERTURE LIST*
%TA.AperFunction,SMDPad,CuDef*%
%ADD10R,0.350000X1.950000*%
%TD*%
%TA.AperFunction,ComponentPad*%
%ADD11C,0.454000*%
%TD*%
%TA.AperFunction,SMDPad,CuDef*%
%ADD12R,1.000000X1.500000*%
%TD*%
%TA.AperFunction,ViaPad*%
%ADD13C,0.700000*%
%TD*%
%TA.AperFunction,ViaPad*%
%ADD14C,0.500000*%
%TD*%
%TA.AperFunction,Conductor*%
%ADD15C,0.250000*%
%TD*%
%TA.AperFunction,Conductor*%
%ADD16C,0.500000*%
%TD*%
G04 APERTURE END LIST*
D10*
%TO.P,J1,2,3.3V*%
%TO.N,+3V3*%
X157501100Y-112840617D03*
%TO.P,J1,4,3.3V_EN*%
%TO.N,/3.3V_EN*%
X157001100Y-112840617D03*
%TO.P,J1,6,~{RESET}*%
%TO.N,+5V*%
X156501100Y-112840617D03*
%TO.P,J1,8,G11*%
%TO.N,/G11-SWO*%
X156001100Y-112840617D03*
%TO.P,J1,10,D0*%
%TO.N,/D0*%
X155501100Y-112840617D03*
%TO.P,J1,12,I2C_SDA*%
%TO.N,HDC3022DEJR_SDA*%
X155001100Y-112840617D03*
%TO.P,J1,14,I2C_SCL*%
%TO.N,HDC3022DEJR_SCL*%
X154501100Y-112840617D03*
%TO.P,J1,16,I2C_~{INT}*%
%TO.N,/I2C_~{INT}*%
X154001100Y-112840617D03*
%TO.P,J1,18,D1/CAM_TRIG*%
%TO.N,/D1-CAM_TRIG*%
X153501100Y-112840617D03*
%TO.P,J1,20,RX2*%
%TO.N,/UART_RX2*%
X153001100Y-112840617D03*
%TO.P,J1,22,TX2*%
%TO.N,/UART_TX2*%
X152501100Y-112840617D03*
%TO.P,J1,32,PWM0*%
%TO.N,/PWM0*%
X150001100Y-112840617D03*
%TO.P,J1,34,A0*%
%TO.N,/A0*%
X149501100Y-112840617D03*
%TO.P,J1,36,GND*%
%TO.N,GND*%
X149001100Y-112840617D03*
%TO.P,J1,38,A1*%
%TO.N,/A1*%
X148501100Y-112840617D03*
%TO.P,J1,40,G0/BUS0*%
%TO.N,/G0*%
X148001100Y-112840617D03*
%TO.P,J1,42,G1/BUS1*%
%TO.N,HDC3022DEJR_pwr_cyc*%
X147501100Y-112840617D03*
%TO.P,J1,44,G2/BUS2*%
%TO.N,HDC3022DEJR_INT*%
X147001100Y-112840617D03*
%TO.P,J1,46,G3/BUS3*%
%TO.N,/G3*%
X146501100Y-112840617D03*
%TO.P,J1,48,G4/BUS4*%
%TO.N,/G4*%
X146001100Y-112840617D03*
%TO.P,J1,50,AUD_BCLK*%
%TO.N,/AUD_BCLK*%
X145501100Y-112840617D03*
%TO.P,J1,52,AUD_LRCLK*%
%TO.N,/AUD_LRCLK*%
X145001100Y-112840617D03*
%TO.P,J1,54,AUD_IN/CAM_PCLK*%
%TO.N,/AUD_IN-CAM_PCLK*%
X144501100Y-112840617D03*
%TO.P,J1,56,AUD_OUT/CAM_MCLK*%
%TO.N,/AUD_OUT-CAM_MCLK*%
X144001100Y-112840617D03*
%TO.P,J1,58,AUD_MCLK*%
%TO.N,/AUD_MCLK*%
X143501100Y-112840617D03*
%TO.P,J1,60,SPI_SCK1/SDIO_CLK*%
%TO.N,HDC3022DEJR_MOSI*%
X143001100Y-112840617D03*
%TO.P,J1,62,SPI_SDO1/SDIO_CMD*%
%TO.N,HDC3022DEJR_MISO*%
X142501100Y-112840617D03*
%TO.P,J1,64,SPI_SDI1/SDIO_DATA0*%
%TO.N,HDC3022DEJR_SCK*%
X142001100Y-112840617D03*
%TO.P,J1,66,SDIO_DATA1*%
%TO.N,HDC3022DEJR_CS*%
X141501100Y-112840617D03*
%TO.P,J1,68,SDIO_DATA2*%
%TO.N,/SDIO_DATA2*%
X141001100Y-112840617D03*
%TO.P,J1,70,SPI_~{CS1}/SDIO_DATA3*%
%TO.N,/SDIO_DATA3-~{SPI_CS1}*%
X140501100Y-112840617D03*
%TO.P,J1,72,RTC_3V*%
%TO.N,/RTC_3V_BATT*%
X140001100Y-112840617D03*
%TO.P,J1,74,3.3V*%
%TO.N,+3V3*%
X139501100Y-112840617D03*
D11*
%TO.P,J1,GND1,GND*%
%TO.N,GND*%
X150401100Y-93365617D03*
%TO.P,J1,GND2,GND*%
X152501100Y-94665617D03*
%TO.P,J1,GND3,GND*%
X154601100Y-93365617D03*
%TD*%
D12*
%TO.P,ADDR1,1,A*%
%TO.N,HDC3022DEJR_ADDR1*%
X149700000Y-97300000D03*
%TO.P,ADDR1,2,B*%
%TO.N,+3V3*%
X151000000Y-97300000D03*
%TD*%
%TO.P,ADDR0,1,A*%
%TO.N,HDC3022DEJR_ADDR*%
X149700000Y-100000000D03*
%TO.P,ADDR0,2,B*%
%TO.N,+3V3*%
X151000000Y-100000000D03*
%TD*%
D13*
%TO.N,GND*%
X156600000Y-101500000D03*
X156600000Y-100500000D03*
X157600000Y-99500000D03*
X157600000Y-100500000D03*
X157600000Y-101500000D03*
X155600000Y-101500000D03*
X147100000Y-94400000D03*
X147100000Y-95400000D03*
X146100000Y-96400000D03*
X146100000Y-95400000D03*
X146100000Y-94400000D03*
X148100000Y-94400000D03*
D14*
%TO.N,+3V3*%
X148300000Y-105800000D03*
X154700000Y-95200000D03*
X143369809Y-101530191D03*
%TO.N,HDC3022DEJR_SCL*%
X140800000Y-104400000D03*
X145400000Y-107000000D03*
%TO.N,HDC3022DEJR_SDA*%
X148100000Y-107900000D03*
%TO.N,HDC3022DEJR_ADDR*%
X142500000Y-107900000D03*
X148000000Y-100000000D03*
%TO.N,HDC3022DEJR_ADDR1*%
X148000000Y-97700000D03*
%TD*%
D15*
%TO.N,HDC3022DEJR_ADDR1*%
X149500000Y-97500000D02*
G75*
G02*
X149017157Y-97699953I-482800J482900D01*
G01*
X148000000Y-97700000D02*
X149017157Y-97700000D01*
X149500000Y-97500000D02*
X149700000Y-97300000D01*
D16*
%TO.N,+3V3*%
X150330330Y-105269669D02*
X150400000Y-105200000D01*
X151000000Y-103751471D02*
X151000000Y-100400000D01*
X151800000Y-97300000D02*
X151000000Y-97300000D01*
X152199999Y-99599999D02*
X152082842Y-99717157D01*
X153165685Y-96734314D02*
X154700000Y-95200000D01*
X148300000Y-105800000D02*
X149050000Y-105800000D01*
X152600000Y-98100000D02*
X152600000Y-98634314D01*
X145313172Y-105800000D02*
X148300000Y-105800000D01*
X143350000Y-103836827D02*
X143350000Y-101550000D01*
X145313172Y-105800000D02*
G75*
G02*
X143925008Y-105224992I28J1963200D01*
G01*
X152600000Y-98634314D02*
G75*
G02*
X152199996Y-99599996I-1365700J14D01*
G01*
X153165685Y-96734314D02*
G75*
G02*
X151800000Y-97299991I-1365685J1365714D01*
G01*
X151000000Y-103751471D02*
G75*
G02*
X150400008Y-105200008I-2048500J-29D01*
G01*
X151400000Y-100000000D02*
G75*
G03*
X151000000Y-100400000I0J-400000D01*
G01*
X151400000Y-100000000D02*
G75*
G03*
X152082846Y-99717161I0J965700D01*
G01*
X143925000Y-105225000D02*
G75*
G02*
X143349989Y-103836827I1388200J1388200D01*
G01*
X153165685Y-96734314D02*
G75*
G03*
X152600008Y-98100000I1365715J-1365686D01*
G01*
X150330330Y-105269669D02*
G75*
G02*
X149050000Y-105799988I-1280330J1280369D01*
G01*
X152600000Y-98100000D02*
G75*
G03*
X151800000Y-97300000I-800000J0D01*
G01*
D15*
%TO.N,HDC3022DEJR_SCL*%
X154027509Y-111027509D02*
X153650550Y-110650550D01*
X146800000Y-108400000D02*
X145400000Y-107000000D01*
X151597140Y-109800000D02*
X150179898Y-109800000D01*
X144205025Y-108800000D02*
X141994974Y-108800000D01*
X140800000Y-107605025D02*
X140800000Y-104400000D01*
X154501100Y-112170858D02*
X154501100Y-112840617D01*
X145400000Y-107000000D02*
X145400000Y-107605025D01*
X154027509Y-111027509D02*
G75*
G02*
X154501141Y-112170858I-1143309J-1143391D01*
G01*
X140800000Y-107605025D02*
G75*
G03*
X141150007Y-108449993I1195000J25D01*
G01*
X141994974Y-108800000D02*
G75*
G02*
X141150007Y-108449993I26J1195000D01*
G01*
X144205025Y-108800000D02*
G75*
G03*
X145049993Y-108449993I-25J1195000D01*
G01*
X146800000Y-108400000D02*
G75*
G03*
X150179898Y-109800000I3379900J3379900D01*
G01*
X145050000Y-108450000D02*
G75*
G03*
X145400010Y-107605025I-845000J845000D01*
G01*
X153650550Y-110650550D02*
G75*
G03*
X151597140Y-109799983I-2053450J-2053450D01*
G01*
%TO.N,HDC3022DEJR_SDA*%
X154421443Y-110621443D02*
X154000550Y-110200550D01*
X148100000Y-107900000D02*
X148100000Y-108250000D01*
X155001100Y-112020858D02*
X155001100Y-112840617D01*
X151585008Y-109200000D02*
X149124264Y-109200000D01*
X148400000Y-108900000D02*
X148347487Y-108847487D01*
X155001100Y-112020858D02*
G75*
G03*
X154421428Y-110621458I-1979100J-42D01*
G01*
X151585008Y-109200000D02*
G75*
G02*
X154000547Y-110200553I-8J-3416100D01*
G01*
X148400000Y-108900000D02*
G75*
G03*
X149124264Y-109200015I724300J724300D01*
G01*
X148100000Y-108250000D02*
G75*
G03*
X148347482Y-108847492I845000J0D01*
G01*
%TO.N,HDC3022DEJR_ADDR*%
X148000000Y-100000000D02*
X149700000Y-100000000D01*
%TD*%
%TA.AperFunction,Conductor*%
%TO.N,GND*%
G36*
X150256125Y-92435802D02*
G01*
X150301880Y-92488606D01*
X150311824Y-92557764D01*
X150282799Y-92621320D01*
X150224021Y-92659094D01*
X150213277Y-92661734D01*
X150189049Y-92666553D01*
X150071678Y-92715168D01*
X150561613Y-93205104D01*
X151051547Y-93695038D01*
X151055949Y-93694162D01*
X151091477Y-93650076D01*
X151157771Y-93628010D01*
X151225470Y-93645288D01*
X151243401Y-93658218D01*
X151419344Y-93810673D01*
X151419350Y-93810677D01*
X151635996Y-93949907D01*
X151636019Y-93949920D01*
X151862774Y-94053475D01*
X151915578Y-94099229D01*
X151935263Y-94166269D01*
X151915579Y-94233308D01*
X151914366Y-94235159D01*
X151856840Y-94321254D01*
X151802038Y-94453558D01*
X151802036Y-94453566D01*
X151774100Y-94594009D01*
X151774100Y-94737224D01*
X151802035Y-94877667D01*
X151802038Y-94877676D01*
X151850650Y-94995037D01*
X152252905Y-94592784D01*
X152314228Y-94559299D01*
X152383920Y-94564283D01*
X152428267Y-94592784D01*
X152430389Y-94594906D01*
X152416324Y-94608972D01*
X152401100Y-94645726D01*
X152401100Y-94685508D01*
X152416324Y-94722262D01*
X152444455Y-94750393D01*
X152481209Y-94765617D01*
X152520991Y-94765617D01*
X152557745Y-94750393D01*
X152585876Y-94722262D01*
X152601100Y-94685508D01*
X152601100Y-94645726D01*
X152585876Y-94608972D01*
X152571810Y-94594906D01*
X152573932Y-94592785D01*
X152635255Y-94559300D01*
X152704947Y-94564284D01*
X152749294Y-94592785D01*
X153151547Y-94995038D01*
X153200161Y-94877675D01*
X153200163Y-94877667D01*
X153228099Y-94737224D01*
X153228100Y-94737221D01*
X153228100Y-94594013D01*
X153228099Y-94594009D01*
X153200163Y-94453566D01*
X153200161Y-94453558D01*
X153145358Y-94321250D01*
X153087834Y-94235159D01*
X153066956Y-94168482D01*
X153085441Y-94101102D01*
X153137420Y-94054412D01*
X153139316Y-94053524D01*
X153221343Y-94016064D01*
X154271677Y-94016064D01*
X154389041Y-94064678D01*
X154389049Y-94064680D01*
X154529492Y-94092616D01*
X154529496Y-94092617D01*
X154672704Y-94092617D01*
X154672707Y-94092616D01*
X154813150Y-94064680D01*
X154813158Y-94064678D01*
X154930521Y-94016064D01*
X154601101Y-93686643D01*
X154601100Y-93686643D01*
X154271677Y-94016064D01*
X153221343Y-94016064D01*
X153366192Y-93949914D01*
X153582856Y-93810673D01*
X153758800Y-93658216D01*
X153822353Y-93629193D01*
X153891511Y-93639136D01*
X153944315Y-93684891D01*
X153949503Y-93694810D01*
X153950650Y-93695038D01*
X154299964Y-93345726D01*
X154501100Y-93345726D01*
X154501100Y-93385508D01*
X154516324Y-93422262D01*
X154544455Y-93450393D01*
X154581209Y-93465617D01*
X154620991Y-93465617D01*
X154657745Y-93450393D01*
X154685876Y-93422262D01*
X154701100Y-93385508D01*
X154701100Y-93365616D01*
X154922126Y-93365616D01*
X154922126Y-93365617D01*
X155251547Y-93695038D01*
X155300161Y-93577675D01*
X155300163Y-93577667D01*
X155328099Y-93437224D01*
X155328100Y-93437221D01*
X155328100Y-93294013D01*
X155328099Y-93294009D01*
X155300163Y-93153566D01*
X155300161Y-93153558D01*
X155251547Y-93036194D01*
X154922126Y-93365616D01*
X154701100Y-93365616D01*
X154701100Y-93345726D01*
X154685876Y-93308972D01*
X154657745Y-93280841D01*
X154620991Y-93265617D01*
X154581209Y-93265617D01*
X154544455Y-93280841D01*
X154516324Y-93308972D01*
X154501100Y-93345726D01*
X154299964Y-93345726D01*
X154419117Y-93226574D01*
X154440587Y-93205104D01*
X154930521Y-92715168D01*
X154813159Y-92666555D01*
X154813150Y-92666553D01*
X154788923Y-92661734D01*
X154727012Y-92629350D01*
X154692438Y-92568634D01*
X154696177Y-92498865D01*
X154737043Y-92442192D01*
X154802061Y-92416611D01*
X154813114Y-92416117D01*
X158493234Y-92416117D01*
X158506716Y-92416852D01*
X158537216Y-92420187D01*
X158653104Y-92432863D01*
X158673654Y-92436890D01*
X158811775Y-92476317D01*
X158831349Y-92483743D01*
X158960838Y-92545843D01*
X158960865Y-92545856D01*
X158978917Y-92556475D01*
X159067068Y-92618914D01*
X159096114Y-92639488D01*
X159096133Y-92639501D01*
X159112142Y-92653009D01*
X159213701Y-92754570D01*
X159227208Y-92770578D01*
X159310233Y-92887796D01*
X159320852Y-92905850D01*
X159382957Y-93035356D01*
X159390387Y-93054939D01*
X159429813Y-93193063D01*
X159433840Y-93213617D01*
X159449865Y-93360146D01*
X159450600Y-93373627D01*
X159450600Y-109755872D01*
X159449451Y-109772714D01*
X159435814Y-109872185D01*
X159429333Y-109898169D01*
X159396341Y-109987818D01*
X159384432Y-110011804D01*
X159379611Y-110019341D01*
X159332964Y-110092274D01*
X159316183Y-110113144D01*
X159248633Y-110180692D01*
X159227763Y-110197471D01*
X159147286Y-110248941D01*
X159123298Y-110260850D01*
X159033656Y-110293836D01*
X159007671Y-110300317D01*
X158906155Y-110314230D01*
X158892791Y-110315329D01*
X158872130Y-110315907D01*
X158864324Y-110317542D01*
X158838078Y-110319407D01*
X158838072Y-110319408D01*
X158723484Y-110352555D01*
X158618415Y-110409056D01*
X158618407Y-110409062D01*
X158527573Y-110486380D01*
X158455019Y-110581074D01*
X158455018Y-110581076D01*
X158403992Y-110688904D01*
X158388678Y-110754259D01*
X158376775Y-110805053D01*
X158376007Y-110844291D01*
X158375600Y-110844699D01*
X158375600Y-110865177D01*
X158375590Y-110865687D01*
X158375579Y-110866282D01*
X158375579Y-110866318D01*
X158375020Y-110896650D01*
X158375600Y-110900539D01*
X158375600Y-114191117D01*
X158355915Y-114258156D01*
X158303111Y-114303911D01*
X158251600Y-114315117D01*
X151900600Y-114315117D01*
X151833561Y-114295432D01*
X151787806Y-114242628D01*
X151776600Y-114191117D01*
X151776600Y-111392323D01*
X151776599Y-111392319D01*
X151770504Y-111365617D01*
X151743981Y-111249411D01*
X151680379Y-111117340D01*
X151667532Y-111101231D01*
X151654618Y-111085037D01*
X151588983Y-111002734D01*
X151523346Y-110950390D01*
X151474379Y-110911339D01*
X151474376Y-110911337D01*
X151342309Y-110847737D01*
X151342307Y-110847736D01*
X151342306Y-110847736D01*
X151297254Y-110837453D01*
X151199397Y-110815117D01*
X151199394Y-110815117D01*
X151052806Y-110815117D01*
X151052802Y-110815117D01*
X150909890Y-110847737D01*
X150777823Y-110911337D01*
X150777820Y-110911339D01*
X150663217Y-111002734D01*
X150571822Y-111117337D01*
X150571820Y-111117340D01*
X150508220Y-111249407D01*
X150475600Y-111392319D01*
X150475600Y-111592609D01*
X150455915Y-111659648D01*
X150403111Y-111705403D01*
X150333953Y-111715347D01*
X150282710Y-111695712D01*
X150265080Y-111683932D01*
X150254331Y-111676750D01*
X150254330Y-111676749D01*
X150254329Y-111676749D01*
X150254329Y-111676748D01*
X150195852Y-111665117D01*
X150195848Y-111665117D01*
X149806352Y-111665117D01*
X149806351Y-111665117D01*
X149775288Y-111671295D01*
X149767053Y-111671300D01*
X149762330Y-111673167D01*
X149727549Y-111671328D01*
X149727084Y-111671329D01*
X149726378Y-111671189D01*
X149695848Y-111665117D01*
X149695617Y-111665117D01*
X149689493Y-111663908D01*
X149663592Y-111650407D01*
X149636509Y-111639452D01*
X149630266Y-111633035D01*
X149627535Y-111631612D01*
X149625619Y-111628260D01*
X149614243Y-111616567D01*
X149533290Y-111508429D01*
X149533287Y-111508426D01*
X149418193Y-111422266D01*
X149418186Y-111422262D01*
X149283479Y-111372020D01*
X149283472Y-111372018D01*
X149223944Y-111365617D01*
X149176100Y-111365617D01*
X149176100Y-111691603D01*
X149173549Y-111700288D01*
X149174838Y-111709250D01*
X149158065Y-111753021D01*
X149156415Y-111758642D01*
X149155661Y-111759294D01*
X149155202Y-111760494D01*
X149137233Y-111787386D01*
X149137231Y-111787390D01*
X149125600Y-111845864D01*
X149125600Y-112716617D01*
X149123049Y-112725302D01*
X149124338Y-112734264D01*
X149113359Y-112758304D01*
X149105915Y-112783656D01*
X149099074Y-112789583D01*
X149095313Y-112797820D01*
X149073078Y-112812109D01*
X149053111Y-112829411D01*
X149042596Y-112831698D01*
X149036535Y-112835594D01*
X149001600Y-112840617D01*
X149000600Y-112840617D01*
X148933561Y-112820932D01*
X148887806Y-112768128D01*
X148876600Y-112716617D01*
X148876600Y-111845866D01*
X148876599Y-111845864D01*
X148864968Y-111787390D01*
X148864967Y-111787389D01*
X148864967Y-111787386D01*
X148846997Y-111760493D01*
X148843960Y-111750793D01*
X148837306Y-111743114D01*
X148833697Y-111718014D01*
X148826120Y-111693816D01*
X148826100Y-111691603D01*
X148826100Y-111365617D01*
X148778255Y-111365617D01*
X148718727Y-111372018D01*
X148718720Y-111372020D01*
X148584013Y-111422262D01*
X148584006Y-111422266D01*
X148468912Y-111508426D01*
X148387956Y-111616568D01*
X148365880Y-111633092D01*
X148346007Y-111652214D01*
X148336583Y-111655023D01*
X148332022Y-111658438D01*
X148312706Y-111663908D01*
X148306582Y-111665117D01*
X148306352Y-111665117D01*
X148275824Y-111671189D01*
X148275116Y-111671329D01*
X148274742Y-111671295D01*
X148226912Y-111671295D01*
X148195849Y-111665117D01*
X148195848Y-111665117D01*
X147806352Y-111665117D01*
X147806351Y-111665117D01*
X147775288Y-111671295D01*
X147726912Y-111671295D01*
X147695849Y-111665117D01*
X147695848Y-111665117D01*
X147306352Y-111665117D01*
X147306351Y-111665117D01*
X147275288Y-111671295D01*
X147226912Y-111671295D01*
X147195849Y-111665117D01*
X147195848Y-111665117D01*
X146806352Y-111665117D01*
X146806351Y-111665117D01*
X146775288Y-111671295D01*
X146726912Y-111671295D01*
X146695849Y-111665117D01*
X146695848Y-111665117D01*
X146306352Y-111665117D01*
X146306351Y-111665117D01*
X146275288Y-111671295D01*
X146226912Y-111671295D01*
X146195849Y-111665117D01*
X146195848Y-111665117D01*
X145806352Y-111665117D01*
X145806351Y-111665117D01*
X145775288Y-111671295D01*
X145726912Y-111671295D01*
X145695849Y-111665117D01*
X145695848Y-111665117D01*
X145306352Y-111665117D01*
X145306351Y-111665117D01*
X145275288Y-111671295D01*
X145226912Y-111671295D01*
X145195849Y-111665117D01*
X145195848Y-111665117D01*
X144806352Y-111665117D01*
X144806351Y-111665117D01*
X144775288Y-111671295D01*
X144726912Y-111671295D01*
X144695849Y-111665117D01*
X144695848Y-111665117D01*
X144306352Y-111665117D01*
X144306351Y-111665117D01*
X144275288Y-111671295D01*
X144226912Y-111671295D01*
X144195849Y-111665117D01*
X144195848Y-111665117D01*
X143806352Y-111665117D01*
X143806351Y-111665117D01*
X143775288Y-111671295D01*
X143726912Y-111671295D01*
X143695849Y-111665117D01*
X143695848Y-111665117D01*
X143306352Y-111665117D01*
X143306351Y-111665117D01*
X143275288Y-111671295D01*
X143226912Y-111671295D01*
X143195849Y-111665117D01*
X143195848Y-111665117D01*
X142806352Y-111665117D01*
X142806351Y-111665117D01*
X142775288Y-111671295D01*
X142726912Y-111671295D01*
X142695849Y-111665117D01*
X142695848Y-111665117D01*
X142306352Y-111665117D01*
X142306351Y-111665117D01*
X142275288Y-111671295D01*
X142226912Y-111671295D01*
X142195849Y-111665117D01*
X142195848Y-111665117D01*
X141806352Y-111665117D01*
X141806351Y-111665117D01*
X141775288Y-111671295D01*
X141726912Y-111671295D01*
X141695849Y-111665117D01*
X141695848Y-111665117D01*
X141306352Y-111665117D01*
X141306351Y-111665117D01*
X141275288Y-111671295D01*
X141226912Y-111671295D01*
X141195849Y-111665117D01*
X141195848Y-111665117D01*
X140806352Y-111665117D01*
X140806351Y-111665117D01*
X140775288Y-111671295D01*
X140726912Y-111671295D01*
X140695849Y-111665117D01*
X140695848Y-111665117D01*
X140306352Y-111665117D01*
X140306351Y-111665117D01*
X140275288Y-111671295D01*
X140226912Y-111671295D01*
X140195849Y-111665117D01*
X140195848Y-111665117D01*
X139806352Y-111665117D01*
X139806351Y-111665117D01*
X139775288Y-111671295D01*
X139726912Y-111671295D01*
X139695849Y-111665117D01*
X139695848Y-111665117D01*
X139306352Y-111665117D01*
X139306347Y-111665117D01*
X139247870Y-111676748D01*
X139247869Y-111676749D01*
X139181547Y-111721064D01*
X139137232Y-111787386D01*
X139137231Y-111787387D01*
X139125600Y-111845864D01*
X139125600Y-113835369D01*
X139137231Y-113893846D01*
X139137232Y-113893847D01*
X139181547Y-113960169D01*
X139247869Y-114004484D01*
X139247870Y-114004485D01*
X139306347Y-114016116D01*
X139306350Y-114016117D01*
X139306352Y-114016117D01*
X139695851Y-114016117D01*
X139719479Y-114011416D01*
X139726905Y-114009939D01*
X139775295Y-114009939D01*
X139782720Y-114011416D01*
X139806349Y-114016117D01*
X139806352Y-114016117D01*
X140195851Y-114016117D01*
X140219479Y-114011416D01*
X140226905Y-114009939D01*
X140275295Y-114009939D01*
X140282720Y-114011416D01*
X140306349Y-114016117D01*
X140306352Y-114016117D01*
X140695851Y-114016117D01*
X140719479Y-114011416D01*
X140726905Y-114009939D01*
X140775295Y-114009939D01*
X140782720Y-114011416D01*
X140806349Y-114016117D01*
X140806352Y-114016117D01*
X141195851Y-114016117D01*
X141219479Y-114011416D01*
X141226905Y-114009939D01*
X141275295Y-114009939D01*
X141282720Y-114011416D01*
X141306349Y-114016117D01*
X141306352Y-114016117D01*
X141695851Y-114016117D01*
X141719479Y-114011416D01*
X141726905Y-114009939D01*
X141775295Y-114009939D01*
X141782720Y-114011416D01*
X141806349Y-114016117D01*
X141806352Y-114016117D01*
X142195851Y-114016117D01*
X142219479Y-114011416D01*
X142226905Y-114009939D01*
X142275295Y-114009939D01*
X142282720Y-114011416D01*
X142306349Y-114016117D01*
X142306352Y-114016117D01*
X142695851Y-114016117D01*
X142719479Y-114011416D01*
X142726905Y-114009939D01*
X142775295Y-114009939D01*
X142782720Y-114011416D01*
X142806349Y-114016117D01*
X142806352Y-114016117D01*
X143195851Y-114016117D01*
X143219479Y-114011416D01*
X143226905Y-114009939D01*
X143275295Y-114009939D01*
X143282720Y-114011416D01*
X143306349Y-114016117D01*
X143306352Y-114016117D01*
X143695851Y-114016117D01*
X143719479Y-114011416D01*
X143726905Y-114009939D01*
X143775295Y-114009939D01*
X143782720Y-114011416D01*
X143806349Y-114016117D01*
X143806352Y-114016117D01*
X144195851Y-114016117D01*
X144219479Y-114011416D01*
X144226905Y-114009939D01*
X144275295Y-114009939D01*
X144282720Y-114011416D01*
X144306349Y-114016117D01*
X144306352Y-114016117D01*
X144695851Y-114016117D01*
X144719479Y-114011416D01*
X144726905Y-114009939D01*
X144775295Y-114009939D01*
X144782720Y-114011416D01*
X144806349Y-114016117D01*
X144806352Y-114016117D01*
X145195851Y-114016117D01*
X145219479Y-114011416D01*
X145226905Y-114009939D01*
X145275295Y-114009939D01*
X145282720Y-114011416D01*
X145306349Y-114016117D01*
X145306352Y-114016117D01*
X145695851Y-114016117D01*
X145719479Y-114011416D01*
X145726905Y-114009939D01*
X145775295Y-114009939D01*
X145782720Y-114011416D01*
X145806349Y-114016117D01*
X145806352Y-114016117D01*
X146195851Y-114016117D01*
X146219479Y-114011416D01*
X146226905Y-114009939D01*
X146275295Y-114009939D01*
X146282720Y-114011416D01*
X146306349Y-114016117D01*
X146306352Y-114016117D01*
X146695851Y-114016117D01*
X146719479Y-114011416D01*
X146726905Y-114009939D01*
X146775295Y-114009939D01*
X146782720Y-114011416D01*
X146806349Y-114016117D01*
X146806352Y-114016117D01*
X147195851Y-114016117D01*
X147219479Y-114011416D01*
X147226905Y-114009939D01*
X147275295Y-114009939D01*
X147282720Y-114011416D01*
X147306349Y-114016117D01*
X147306352Y-114016117D01*
X147695851Y-114016117D01*
X147719479Y-114011416D01*
X147726905Y-114009939D01*
X147775295Y-114009939D01*
X147782720Y-114011416D01*
X147806349Y-114016117D01*
X147806352Y-114016117D01*
X148195851Y-114016117D01*
X148219479Y-114011416D01*
X148226904Y-114009938D01*
X148235142Y-114009932D01*
X148239873Y-114008064D01*
X148274622Y-114009903D01*
X148275114Y-114009903D01*
X148306352Y-114016117D01*
X148306592Y-114016117D01*
X148312710Y-114017325D01*
X148338501Y-114030769D01*
X148365484Y-114041617D01*
X148371867Y-114048163D01*
X148374667Y-114049623D01*
X148376615Y-114053032D01*
X148387958Y-114064666D01*
X148426990Y-114116806D01*
X148451407Y-114182270D01*
X148436556Y-114250543D01*
X148387151Y-114299949D01*
X148327723Y-114315117D01*
X138750600Y-114315117D01*
X138683561Y-114295432D01*
X138637806Y-114242628D01*
X138626600Y-114191117D01*
X138626600Y-110881241D01*
X138627044Y-110880593D01*
X138626600Y-110864897D01*
X138626600Y-110844699D01*
X138626600Y-110826203D01*
X138625358Y-110820392D01*
X138624921Y-110804774D01*
X138596979Y-110689222D01*
X138545670Y-110581983D01*
X138473227Y-110487723D01*
X138382803Y-110410546D01*
X138278333Y-110353810D01*
X138278331Y-110353809D01*
X138278326Y-110353807D01*
X138164368Y-110319986D01*
X138164370Y-110319986D01*
X138164365Y-110319985D01*
X138164363Y-110319984D01*
X138164360Y-110319984D01*
X138138070Y-110317895D01*
X138137667Y-110317863D01*
X138119954Y-110316397D01*
X138118915Y-110315596D01*
X138105852Y-110315230D01*
X138102491Y-110314952D01*
X138101888Y-110314719D01*
X138095880Y-110314225D01*
X137994523Y-110300333D01*
X137968538Y-110293853D01*
X137878887Y-110260863D01*
X137854901Y-110248955D01*
X137774423Y-110197486D01*
X137753555Y-110180709D01*
X137685997Y-110113152D01*
X137669222Y-110092288D01*
X137617751Y-110011812D01*
X137605842Y-109987826D01*
X137572848Y-109898172D01*
X137566367Y-109872187D01*
X137552749Y-109772844D01*
X137551600Y-109756003D01*
X137551600Y-104340691D01*
X140349500Y-104340691D01*
X140349500Y-104459309D01*
X140380201Y-104573886D01*
X140439511Y-104676613D01*
X140439514Y-104676616D01*
X140444458Y-104683059D01*
X140443026Y-104684157D01*
X140471666Y-104736606D01*
X140474500Y-104762964D01*
X140474500Y-107545883D01*
X140474499Y-107553675D01*
X140474489Y-107553709D01*
X140474490Y-107704683D01*
X140474491Y-107704693D01*
X140496746Y-107873704D01*
X140500511Y-107902297D01*
X140552098Y-108094815D01*
X140552101Y-108094824D01*
X140624373Y-108269297D01*
X140628375Y-108278959D01*
X140647636Y-108312320D01*
X140728033Y-108451571D01*
X140849362Y-108609687D01*
X140849370Y-108609696D01*
X140963011Y-108723337D01*
X140963103Y-108723416D01*
X140990309Y-108750621D01*
X140990310Y-108750622D01*
X141018181Y-108772008D01*
X141148436Y-108871957D01*
X141321045Y-108971614D01*
X141505184Y-109047890D01*
X141697704Y-109099478D01*
X141895311Y-109125498D01*
X141952117Y-109125499D01*
X141952121Y-109125500D01*
X141994967Y-109125500D01*
X142046521Y-109125501D01*
X142046524Y-109125500D01*
X144153475Y-109125500D01*
X144153478Y-109125501D01*
X144153662Y-109125500D01*
X144153696Y-109125510D01*
X144205032Y-109125509D01*
X144205032Y-109125510D01*
X144304689Y-109125509D01*
X144502297Y-109099489D01*
X144694818Y-109047901D01*
X144878959Y-108971625D01*
X145051570Y-108871967D01*
X145209695Y-108750631D01*
X145280163Y-108680163D01*
X145316617Y-108643709D01*
X145316618Y-108643707D01*
X145323641Y-108636684D01*
X145323720Y-108636590D01*
X145350623Y-108609688D01*
X145471957Y-108451563D01*
X145571615Y-108278955D01*
X145647890Y-108094815D01*
X145674002Y-107997369D01*
X145710367Y-107937710D01*
X145773214Y-107907182D01*
X145842590Y-107915477D01*
X145881457Y-107941784D01*
X146607203Y-108667530D01*
X146607209Y-108667535D01*
X146711677Y-108772003D01*
X147016739Y-109032550D01*
X147341303Y-109268360D01*
X147341307Y-109268362D01*
X147341312Y-109268366D01*
X147683349Y-109477967D01*
X147683354Y-109477970D01*
X147683359Y-109477972D01*
X147683368Y-109477978D01*
X148040825Y-109660111D01*
X148411470Y-109813637D01*
X148793017Y-109937610D01*
X149183116Y-110031264D01*
X149579360Y-110094023D01*
X149979306Y-110125500D01*
X150137045Y-110125500D01*
X151593654Y-110125500D01*
X151600607Y-110125694D01*
X151878883Y-110141325D01*
X151892689Y-110142881D01*
X152164037Y-110188988D01*
X152177588Y-110192082D01*
X152374990Y-110248955D01*
X152442049Y-110268275D01*
X152455172Y-110272866D01*
X152709454Y-110378195D01*
X152721976Y-110384225D01*
X152962867Y-110517363D01*
X152974621Y-110524748D01*
X153151769Y-110650443D01*
X153199091Y-110684020D01*
X153209961Y-110692688D01*
X153418010Y-110878611D01*
X153423055Y-110883382D01*
X153760897Y-111221223D01*
X153760899Y-111221227D01*
X153789080Y-111249407D01*
X153789232Y-111249559D01*
X153793902Y-111254229D01*
X153800511Y-111261377D01*
X153922635Y-111404356D01*
X153934072Y-111420098D01*
X153968530Y-111476324D01*
X153986777Y-111543769D01*
X153965663Y-111610372D01*
X153911893Y-111654987D01*
X153862805Y-111665117D01*
X153806351Y-111665117D01*
X153775288Y-111671295D01*
X153726912Y-111671295D01*
X153695849Y-111665117D01*
X153695848Y-111665117D01*
X153306352Y-111665117D01*
X153306351Y-111665117D01*
X153275288Y-111671295D01*
X153226912Y-111671295D01*
X153195849Y-111665117D01*
X153195848Y-111665117D01*
X152806352Y-111665117D01*
X152806351Y-111665117D01*
X152775288Y-111671295D01*
X152726912Y-111671295D01*
X152695849Y-111665117D01*
X152695848Y-111665117D01*
X152306352Y-111665117D01*
X152306347Y-111665117D01*
X152247870Y-111676748D01*
X152247869Y-111676749D01*
X152181547Y-111721064D01*
X152137232Y-111787386D01*
X152137231Y-111787387D01*
X152125600Y-111845864D01*
X152125600Y-113835369D01*
X152137231Y-113893846D01*
X152137232Y-113893847D01*
X152181547Y-113960169D01*
X152247869Y-114004484D01*
X152247870Y-114004485D01*
X152306347Y-114016116D01*
X152306350Y-114016117D01*
X152306352Y-114016117D01*
X152695851Y-114016117D01*
X152719479Y-114011416D01*
X152726905Y-114009939D01*
X152775295Y-114009939D01*
X152782720Y-114011416D01*
X152806349Y-114016117D01*
X152806352Y-114016117D01*
X153195851Y-114016117D01*
X153219479Y-114011416D01*
X153226905Y-114009939D01*
X153275295Y-114009939D01*
X153282720Y-114011416D01*
X153306349Y-114016117D01*
X153306352Y-114016117D01*
X153695851Y-114016117D01*
X153719479Y-114011416D01*
X153726905Y-114009939D01*
X153775295Y-114009939D01*
X153782720Y-114011416D01*
X153806349Y-114016117D01*
X153806352Y-114016117D01*
X154195851Y-114016117D01*
X154219479Y-114011416D01*
X154226905Y-114009939D01*
X154275295Y-114009939D01*
X154282720Y-114011416D01*
X154306349Y-114016117D01*
X154306352Y-114016117D01*
X154695851Y-114016117D01*
X154719479Y-114011416D01*
X154726905Y-114009939D01*
X154775295Y-114009939D01*
X154782720Y-114011416D01*
X154806349Y-114016117D01*
X154806352Y-114016117D01*
X155195851Y-114016117D01*
X155219479Y-114011416D01*
X155226905Y-114009939D01*
X155275295Y-114009939D01*
X155282720Y-114011416D01*
X155306349Y-114016117D01*
X155306352Y-114016117D01*
X155695851Y-114016117D01*
X155719479Y-114011416D01*
X155726905Y-114009939D01*
X155775295Y-114009939D01*
X155782720Y-114011416D01*
X155806349Y-114016117D01*
X155806352Y-114016117D01*
X156195851Y-114016117D01*
X156219479Y-114011416D01*
X156226905Y-114009939D01*
X156275295Y-114009939D01*
X156282720Y-114011416D01*
X156306349Y-114016117D01*
X156306352Y-114016117D01*
X156695851Y-114016117D01*
X156719479Y-114011416D01*
X156726905Y-114009939D01*
X156775295Y-114009939D01*
X156782720Y-114011416D01*
X156806349Y-114016117D01*
X156806352Y-114016117D01*
X157195851Y-114016117D01*
X157219479Y-114011416D01*
X157226905Y-114009939D01*
X157275295Y-114009939D01*
X157282720Y-114011416D01*
X157306349Y-114016117D01*
X157306352Y-114016117D01*
X157695850Y-114016117D01*
X157695851Y-114016116D01*
X157710668Y-114013169D01*
X157754329Y-114004485D01*
X157754329Y-114004484D01*
X157754331Y-114004484D01*
X157820652Y-113960169D01*
X157864967Y-113893848D01*
X157864967Y-113893846D01*
X157864968Y-113893846D01*
X157876599Y-113835369D01*
X157876600Y-113835367D01*
X157876600Y-111845866D01*
X157876599Y-111845864D01*
X157864968Y-111787387D01*
X157864967Y-111787386D01*
X157820652Y-111721064D01*
X157754330Y-111676749D01*
X157754329Y-111676748D01*
X157695852Y-111665117D01*
X157695848Y-111665117D01*
X157306352Y-111665117D01*
X157306351Y-111665117D01*
X157275288Y-111671295D01*
X157226912Y-111671295D01*
X157195849Y-111665117D01*
X157195848Y-111665117D01*
X156806352Y-111665117D01*
X156806351Y-111665117D01*
X156775288Y-111671295D01*
X156726912Y-111671295D01*
X156695849Y-111665117D01*
X156695848Y-111665117D01*
X156306352Y-111665117D01*
X156306351Y-111665117D01*
X156275288Y-111671295D01*
X156226912Y-111671295D01*
X156195849Y-111665117D01*
X156195848Y-111665117D01*
X155806352Y-111665117D01*
X155806351Y-111665117D01*
X155775288Y-111671295D01*
X155726912Y-111671295D01*
X155695849Y-111665117D01*
X155695848Y-111665117D01*
X155403571Y-111665117D01*
X155336532Y-111645432D01*
X155290777Y-111592628D01*
X155282681Y-111568716D01*
X155240029Y-111381860D01*
X155154535Y-111137542D01*
X155042224Y-110904333D01*
X154948416Y-110755041D01*
X154904510Y-110685166D01*
X154904508Y-110685164D01*
X154903596Y-110684020D01*
X154743121Y-110482794D01*
X154651605Y-110391279D01*
X154651605Y-110391278D01*
X154651604Y-110391278D01*
X154639264Y-110378938D01*
X154194788Y-109934460D01*
X154194737Y-109934415D01*
X154115199Y-109854877D01*
X153864919Y-109644866D01*
X153597284Y-109457465D01*
X153597281Y-109457463D01*
X153597278Y-109457461D01*
X153513214Y-109408927D01*
X153314334Y-109294103D01*
X153314318Y-109294095D01*
X153018234Y-109156027D01*
X153018226Y-109156024D01*
X153018224Y-109156023D01*
X153018217Y-109156020D01*
X152711198Y-109044274D01*
X152711197Y-109044273D01*
X152711187Y-109044270D01*
X152395615Y-108959714D01*
X152395618Y-108959714D01*
X152395608Y-108959712D01*
X152315980Y-108945671D01*
X152073850Y-108902976D01*
X152073853Y-108902976D01*
X151748371Y-108874500D01*
X151748370Y-108874500D01*
X151627861Y-108874500D01*
X149130374Y-108874500D01*
X149118216Y-108873902D01*
X149000105Y-108862265D01*
X148976265Y-108857523D01*
X148868554Y-108824847D01*
X148846097Y-108815544D01*
X148746830Y-108762483D01*
X148726619Y-108748978D01*
X148634760Y-108673589D01*
X148625745Y-108665418D01*
X148581971Y-108621644D01*
X148573798Y-108612627D01*
X148571385Y-108609687D01*
X148520798Y-108548044D01*
X148507294Y-108527833D01*
X148478788Y-108474500D01*
X148470807Y-108459568D01*
X148461506Y-108437114D01*
X148460628Y-108434219D01*
X148439031Y-108363022D01*
X148434292Y-108339195D01*
X148427812Y-108273398D01*
X148440831Y-108204755D01*
X148456238Y-108183593D01*
X148455542Y-108183059D01*
X148460481Y-108176620D01*
X148460489Y-108176613D01*
X148519799Y-108073886D01*
X148550500Y-107959309D01*
X148550500Y-107840691D01*
X148519799Y-107726114D01*
X148460489Y-107623387D01*
X148376613Y-107539511D01*
X148273886Y-107480201D01*
X148159309Y-107449500D01*
X148040691Y-107449500D01*
X147926114Y-107480201D01*
X147926112Y-107480201D01*
X147926112Y-107480202D01*
X147823387Y-107539511D01*
X147823384Y-107539513D01*
X147739513Y-107623384D01*
X147739511Y-107623387D01*
X147692569Y-107704693D01*
X147680201Y-107726114D01*
X147649500Y-107840691D01*
X147649500Y-107959309D01*
X147680201Y-108073886D01*
X147739511Y-108176613D01*
X147739513Y-108176615D01*
X147744458Y-108183059D01*
X147743026Y-108184157D01*
X147752878Y-108202198D01*
X147769470Y-108228004D01*
X147770364Y-108234223D01*
X147771666Y-108236606D01*
X147774500Y-108262938D01*
X147774500Y-108292853D01*
X147774506Y-108292875D01*
X147774508Y-108301243D01*
X147774506Y-108301247D01*
X147774508Y-108301269D01*
X147774508Y-108342122D01*
X147803328Y-108524083D01*
X147804467Y-108528829D01*
X147802152Y-108529384D01*
X147803836Y-108589466D01*
X147767723Y-108649279D01*
X147705006Y-108680073D01*
X147635596Y-108672071D01*
X147608440Y-108656254D01*
X147582806Y-108636584D01*
X147320949Y-108435654D01*
X147312667Y-108428703D01*
X147274614Y-108393834D01*
X147218181Y-108342122D01*
X147032137Y-108171643D01*
X147028229Y-108167902D01*
X145886819Y-107026492D01*
X145853334Y-106965169D01*
X145851568Y-106948749D01*
X145851561Y-106948751D01*
X145850500Y-106940694D01*
X145850500Y-106940693D01*
X145850500Y-106940691D01*
X145819799Y-106826114D01*
X145760489Y-106723387D01*
X145676613Y-106639511D01*
X145573886Y-106580201D01*
X145459309Y-106549500D01*
X145340691Y-106549500D01*
X145226114Y-106580201D01*
X145226112Y-106580201D01*
X145226112Y-106580202D01*
X145123387Y-106639511D01*
X145123384Y-106639513D01*
X145039513Y-106723384D01*
X145039511Y-106723387D01*
X144980201Y-106826114D01*
X144949500Y-106940691D01*
X144949500Y-107059309D01*
X144980201Y-107173886D01*
X145039511Y-107276613D01*
X145039514Y-107276616D01*
X145044458Y-107283059D01*
X145043026Y-107284157D01*
X145052884Y-107302210D01*
X145069477Y-107328029D01*
X145070368Y-107334229D01*
X145071666Y-107336606D01*
X145074500Y-107362964D01*
X145074500Y-107600139D01*
X145074118Y-107609870D01*
X145064558Y-107731310D01*
X145061513Y-107750529D01*
X145034219Y-107864207D01*
X145028207Y-107882711D01*
X144983461Y-107990735D01*
X144974627Y-108008072D01*
X144913536Y-108107762D01*
X144902099Y-108123503D01*
X144826125Y-108212456D01*
X144812367Y-108226214D01*
X144723509Y-108302107D01*
X144707768Y-108313544D01*
X144608077Y-108374636D01*
X144590740Y-108383470D01*
X144482714Y-108428217D01*
X144464209Y-108434229D01*
X144350530Y-108461523D01*
X144331312Y-108464568D01*
X144209998Y-108474118D01*
X144200267Y-108474500D01*
X142861964Y-108474500D01*
X142794925Y-108454815D01*
X142749170Y-108402011D01*
X142739226Y-108332853D01*
X142768251Y-108269297D01*
X142774283Y-108262819D01*
X142817273Y-108219829D01*
X142860489Y-108176613D01*
X142919799Y-108073886D01*
X142950500Y-107959309D01*
X142950500Y-107840691D01*
X142919799Y-107726114D01*
X142860489Y-107623387D01*
X142776613Y-107539511D01*
X142673886Y-107480201D01*
X142559309Y-107449500D01*
X142440691Y-107449500D01*
X142326114Y-107480201D01*
X142326112Y-107480201D01*
X142326112Y-107480202D01*
X142223387Y-107539511D01*
X142223384Y-107539513D01*
X142139513Y-107623384D01*
X142139511Y-107623387D01*
X142092569Y-107704693D01*
X142080201Y-107726114D01*
X142049500Y-107840691D01*
X142049500Y-107959309D01*
X142080201Y-108073886D01*
X142139511Y-108176613D01*
X142139513Y-108176615D01*
X142225717Y-108262819D01*
X142236329Y-108282255D01*
X142250830Y-108298989D01*
X142252746Y-108312320D01*
X142259202Y-108324142D01*
X142257622Y-108346228D01*
X142260774Y-108368147D01*
X142255178Y-108380398D01*
X142254218Y-108393834D01*
X142240947Y-108411560D01*
X142231749Y-108431703D01*
X142220417Y-108438985D01*
X142212346Y-108449767D01*
X142191600Y-108457504D01*
X142172971Y-108469477D01*
X142151052Y-108472628D01*
X142146882Y-108474184D01*
X142138036Y-108474500D01*
X141999859Y-108474500D01*
X141990129Y-108474118D01*
X141968374Y-108472405D01*
X141868689Y-108464558D01*
X141849472Y-108461513D01*
X141735792Y-108434219D01*
X141717287Y-108428207D01*
X141609264Y-108383461D01*
X141591927Y-108374627D01*
X141492237Y-108313536D01*
X141476496Y-108302099D01*
X141387543Y-108226125D01*
X141373785Y-108212367D01*
X141297892Y-108123509D01*
X141286455Y-108107768D01*
X141286451Y-108107762D01*
X141225360Y-108008072D01*
X141216529Y-107990740D01*
X141203508Y-107959306D01*
X141171781Y-107882711D01*
X141165770Y-107864209D01*
X141160124Y-107840693D01*
X141138475Y-107750526D01*
X141135431Y-107731311D01*
X141125882Y-107609996D01*
X141125500Y-107600266D01*
X141125500Y-104762964D01*
X141145185Y-104695925D01*
X141155548Y-104683064D01*
X141155542Y-104683059D01*
X141160481Y-104676620D01*
X141160489Y-104676613D01*
X141219799Y-104573886D01*
X141250500Y-104459309D01*
X141250500Y-104340691D01*
X141219799Y-104226114D01*
X141160489Y-104123387D01*
X141076613Y-104039511D01*
X140973886Y-103980201D01*
X140859309Y-103949500D01*
X140740691Y-103949500D01*
X140626114Y-103980201D01*
X140626112Y-103980201D01*
X140626112Y-103980202D01*
X140523387Y-104039511D01*
X140523384Y-104039513D01*
X140439513Y-104123384D01*
X140439511Y-104123387D01*
X140380201Y-104226114D01*
X140349500Y-104340691D01*
X137551600Y-104340691D01*
X137551600Y-103785499D01*
X142899488Y-103785499D01*
X142899490Y-103972385D01*
X142929845Y-104241764D01*
X142929846Y-104241770D01*
X142976093Y-104444378D01*
X142990175Y-104506074D01*
X143018098Y-104585871D01*
X143070843Y-104736606D01*
X143079715Y-104761958D01*
X143197341Y-105006208D01*
X143341574Y-105235752D01*
X143510601Y-105447704D01*
X143564511Y-105501613D01*
X143606448Y-105543552D01*
X143648387Y-105585489D01*
X143648417Y-105585506D01*
X143654214Y-105591302D01*
X143654214Y-105591303D01*
X143654221Y-105591309D01*
X143702303Y-105639391D01*
X143914254Y-105808417D01*
X144143797Y-105952649D01*
X144388046Y-106070275D01*
X144420596Y-106081665D01*
X144643925Y-106159813D01*
X144643931Y-106159815D01*
X144669022Y-106165542D01*
X144908226Y-106220142D01*
X144908235Y-106220143D01*
X145177614Y-106250498D01*
X145177618Y-106250498D01*
X145253859Y-106250499D01*
X145253863Y-106250500D01*
X145313166Y-106250500D01*
X145372475Y-106250501D01*
X145372479Y-106250500D01*
X148240691Y-106250500D01*
X148990691Y-106250500D01*
X149050000Y-106250500D01*
X149109309Y-106250500D01*
X149117259Y-106250500D01*
X149117460Y-106250487D01*
X149176986Y-106250487D01*
X149176987Y-106250486D01*
X149305952Y-106235956D01*
X149429337Y-106222055D01*
X149429341Y-106222054D01*
X149429352Y-106222053D01*
X149676951Y-106165541D01*
X149916666Y-106081663D01*
X150145483Y-105971473D01*
X150360524Y-105836357D01*
X150559085Y-105678014D01*
X150606938Y-105630161D01*
X150606941Y-105630160D01*
X150651613Y-105585489D01*
X150682226Y-105554875D01*
X150682264Y-105554855D01*
X150718559Y-105518559D01*
X150718560Y-105518560D01*
X150817798Y-105419322D01*
X150883802Y-105336556D01*
X150889097Y-105329915D01*
X150992803Y-105199872D01*
X151142136Y-104962207D01*
X151263920Y-104709317D01*
X151356623Y-104444380D01*
X151419079Y-104170730D01*
X151450502Y-103891808D01*
X151450500Y-103751465D01*
X151450500Y-101066038D01*
X151470185Y-100998999D01*
X151522989Y-100953244D01*
X151550305Y-100944421D01*
X151578231Y-100938867D01*
X151644552Y-100894552D01*
X151688867Y-100828231D01*
X151688867Y-100828229D01*
X151688868Y-100828229D01*
X151700499Y-100769752D01*
X151700500Y-100769750D01*
X151700500Y-100515083D01*
X151720185Y-100448044D01*
X151772989Y-100402289D01*
X151792405Y-100395308D01*
X151856192Y-100378218D01*
X152027703Y-100307176D01*
X152188474Y-100214356D01*
X152335755Y-100101346D01*
X152359455Y-100077645D01*
X152359457Y-100077645D01*
X152503523Y-99933577D01*
X152518551Y-99918551D01*
X152518550Y-99918550D01*
X152554841Y-99882265D01*
X152554866Y-99882234D01*
X152560490Y-99876611D01*
X152560491Y-99876609D01*
X152567534Y-99869566D01*
X152567574Y-99869518D01*
X152602720Y-99834375D01*
X152747653Y-99645496D01*
X152866692Y-99439315D01*
X152957801Y-99219361D01*
X153019422Y-98989397D01*
X153050499Y-98753357D01*
X153050500Y-98634319D01*
X153050500Y-98575009D01*
X153050500Y-98104066D01*
X153050765Y-98095957D01*
X153051028Y-98091938D01*
X153062638Y-97914795D01*
X153064752Y-97898743D01*
X153099375Y-97724679D01*
X153103563Y-97709047D01*
X153160618Y-97540966D01*
X153166809Y-97526019D01*
X153245309Y-97366835D01*
X153253405Y-97352812D01*
X153352007Y-97205242D01*
X153361865Y-97192395D01*
X153481490Y-97055984D01*
X153487010Y-97050092D01*
X153536374Y-97000729D01*
X153536381Y-97000719D01*
X155060489Y-95476614D01*
X155119798Y-95373887D01*
X155119799Y-95373886D01*
X155150500Y-95259309D01*
X155150500Y-95140691D01*
X155119799Y-95026114D01*
X155060489Y-94923387D01*
X155014770Y-94877667D01*
X154976616Y-94839512D01*
X154917304Y-94805268D01*
X154917304Y-94805267D01*
X154873892Y-94780204D01*
X154873887Y-94780201D01*
X154845241Y-94772525D01*
X154759309Y-94749500D01*
X154640691Y-94749500D01*
X154580542Y-94765617D01*
X154526112Y-94780201D01*
X154526107Y-94780204D01*
X154482695Y-94805267D01*
X154482696Y-94805268D01*
X154423389Y-94839508D01*
X154423383Y-94839513D01*
X152889070Y-96373825D01*
X152850034Y-96412861D01*
X152844110Y-96418410D01*
X152707609Y-96538117D01*
X152694741Y-96547990D01*
X152547194Y-96646577D01*
X152533147Y-96654688D01*
X152373994Y-96733172D01*
X152359008Y-96739379D01*
X152190965Y-96796420D01*
X152175299Y-96800617D01*
X152001269Y-96835234D01*
X151985188Y-96837352D01*
X151832610Y-96847352D01*
X151764426Y-96832093D01*
X151715316Y-96782395D01*
X151700500Y-96723617D01*
X151700500Y-96530249D01*
X151700499Y-96530247D01*
X151688868Y-96471770D01*
X151688867Y-96471769D01*
X151644552Y-96405447D01*
X151578230Y-96361132D01*
X151578229Y-96361131D01*
X151519752Y-96349500D01*
X151519748Y-96349500D01*
X150480252Y-96349500D01*
X150480247Y-96349500D01*
X150421770Y-96361131D01*
X150421768Y-96361132D01*
X150418887Y-96363058D01*
X150411655Y-96365322D01*
X150410487Y-96365806D01*
X150410443Y-96365701D01*
X150352209Y-96383933D01*
X150284829Y-96365446D01*
X150281113Y-96363058D01*
X150278231Y-96361132D01*
X150278229Y-96361131D01*
X150219752Y-96349500D01*
X150219748Y-96349500D01*
X149180252Y-96349500D01*
X149180247Y-96349500D01*
X149121770Y-96361131D01*
X149121769Y-96361132D01*
X149055447Y-96405447D01*
X149011132Y-96471769D01*
X149011131Y-96471770D01*
X148999500Y-96530247D01*
X148999500Y-97250500D01*
X148979815Y-97317539D01*
X148927011Y-97363294D01*
X148875500Y-97374500D01*
X148362964Y-97374500D01*
X148295925Y-97354815D01*
X148283064Y-97344451D01*
X148283059Y-97344458D01*
X148276615Y-97339513D01*
X148276613Y-97339511D01*
X148173886Y-97280201D01*
X148059309Y-97249500D01*
X147940691Y-97249500D01*
X147826114Y-97280201D01*
X147826112Y-97280201D01*
X147826112Y-97280202D01*
X147723387Y-97339511D01*
X147723384Y-97339513D01*
X147639513Y-97423384D01*
X147639511Y-97423387D01*
X147580201Y-97526114D01*
X147549500Y-97640691D01*
X147549500Y-97759309D01*
X147580201Y-97873886D01*
X147639511Y-97976613D01*
X147723387Y-98060489D01*
X147826114Y-98119799D01*
X147940691Y-98150500D01*
X147940694Y-98150500D01*
X148059306Y-98150500D01*
X148059309Y-98150500D01*
X148173886Y-98119799D01*
X148276613Y-98060489D01*
X148276620Y-98060481D01*
X148283059Y-98055542D01*
X148284157Y-98056973D01*
X148336606Y-98028334D01*
X148362964Y-98025500D01*
X148888934Y-98025500D01*
X148955973Y-98045185D01*
X149001728Y-98097989D01*
X149010551Y-98125309D01*
X149011131Y-98128229D01*
X149011132Y-98128230D01*
X149055447Y-98194552D01*
X149121769Y-98238867D01*
X149121770Y-98238868D01*
X149180247Y-98250499D01*
X149180250Y-98250500D01*
X149180252Y-98250500D01*
X150219750Y-98250500D01*
X150219751Y-98250499D01*
X150234568Y-98247552D01*
X150278229Y-98238868D01*
X150278231Y-98238867D01*
X150281108Y-98236945D01*
X150288335Y-98234681D01*
X150289513Y-98234194D01*
X150289556Y-98234299D01*
X150347785Y-98216066D01*
X150415165Y-98234550D01*
X150418892Y-98236945D01*
X150421768Y-98238867D01*
X150421770Y-98238868D01*
X150480247Y-98250499D01*
X150480250Y-98250500D01*
X150480252Y-98250500D01*
X151519750Y-98250500D01*
X151519751Y-98250499D01*
X151534568Y-98247552D01*
X151578229Y-98238868D01*
X151578229Y-98238867D01*
X151578231Y-98238867D01*
X151644552Y-98194552D01*
X151688867Y-98128231D01*
X151688867Y-98128229D01*
X151688868Y-98128229D01*
X151700499Y-98069752D01*
X151700500Y-98069750D01*
X151700500Y-97878795D01*
X151705319Y-97862381D01*
X151705116Y-97845278D01*
X151714958Y-97829553D01*
X151720185Y-97811756D01*
X151733111Y-97800555D01*
X151742188Y-97786055D01*
X151758970Y-97778147D01*
X151772989Y-97766001D01*
X151790239Y-97763415D01*
X151805394Y-97756276D01*
X151840682Y-97755856D01*
X151874275Y-97760278D01*
X151905539Y-97768656D01*
X151959666Y-97791076D01*
X151987698Y-97807259D01*
X152034184Y-97842929D01*
X152057070Y-97865815D01*
X152063264Y-97873887D01*
X152092739Y-97912300D01*
X152108923Y-97940333D01*
X152131343Y-97994460D01*
X152139721Y-98025725D01*
X152145517Y-98069750D01*
X152148439Y-98091938D01*
X152149500Y-98108125D01*
X152149500Y-98629432D01*
X152149118Y-98639163D01*
X152138996Y-98767748D01*
X152135952Y-98786965D01*
X152106983Y-98907627D01*
X152100970Y-98926133D01*
X152053479Y-99040783D01*
X152044645Y-99058119D01*
X151979810Y-99163920D01*
X151968374Y-99179661D01*
X151908973Y-99249211D01*
X151850466Y-99287405D01*
X151780598Y-99287904D01*
X151721551Y-99250550D01*
X151693064Y-99192870D01*
X151688867Y-99171769D01*
X151650000Y-99113601D01*
X151644552Y-99105447D01*
X151578230Y-99061132D01*
X151578229Y-99061131D01*
X151519752Y-99049500D01*
X151519748Y-99049500D01*
X150480252Y-99049500D01*
X150480247Y-99049500D01*
X150421770Y-99061131D01*
X150421768Y-99061132D01*
X150418887Y-99063058D01*
X150411655Y-99065322D01*
X150410487Y-99065806D01*
X150410443Y-99065701D01*
X150352209Y-99083933D01*
X150284829Y-99065446D01*
X150281113Y-99063058D01*
X150278231Y-99061132D01*
X150278229Y-99061131D01*
X150219752Y-99049500D01*
X150219748Y-99049500D01*
X149180252Y-99049500D01*
X149180247Y-99049500D01*
X149121770Y-99061131D01*
X149121769Y-99061132D01*
X149055447Y-99105447D01*
X149011132Y-99171769D01*
X149011131Y-99171770D01*
X148999500Y-99230247D01*
X148999500Y-99550500D01*
X148979815Y-99617539D01*
X148927011Y-99663294D01*
X148875500Y-99674500D01*
X148362964Y-99674500D01*
X148295925Y-99654815D01*
X148283064Y-99644451D01*
X148283059Y-99644458D01*
X148276615Y-99639513D01*
X148276613Y-99639511D01*
X148173886Y-99580201D01*
X148059309Y-99549500D01*
X147940691Y-99549500D01*
X147826114Y-99580201D01*
X147826112Y-99580201D01*
X147826112Y-99580202D01*
X147723387Y-99639511D01*
X147723384Y-99639513D01*
X147639513Y-99723384D01*
X147639511Y-99723387D01*
X147580201Y-99826114D01*
X147549500Y-99940691D01*
X147549500Y-100059309D01*
X147580201Y-100173886D01*
X147639511Y-100276613D01*
X147723387Y-100360489D01*
X147826114Y-100419799D01*
X147940691Y-100450500D01*
X147940694Y-100450500D01*
X148059306Y-100450500D01*
X148059309Y-100450500D01*
X148173886Y-100419799D01*
X148276613Y-100360489D01*
X148276620Y-100360481D01*
X148283059Y-100355542D01*
X148284157Y-100356973D01*
X148336606Y-100328334D01*
X148362964Y-100325500D01*
X148875500Y-100325500D01*
X148942539Y-100345185D01*
X148988294Y-100397989D01*
X148999500Y-100449500D01*
X148999500Y-100769752D01*
X149011131Y-100828229D01*
X149011132Y-100828230D01*
X149055447Y-100894552D01*
X149121769Y-100938867D01*
X149121770Y-100938868D01*
X149180247Y-100950499D01*
X149180250Y-100950500D01*
X149180252Y-100950500D01*
X150219750Y-100950500D01*
X150219751Y-100950499D01*
X150234568Y-100947552D01*
X150278229Y-100938868D01*
X150278231Y-100938867D01*
X150281108Y-100936945D01*
X150288335Y-100934681D01*
X150289513Y-100934194D01*
X150289556Y-100934299D01*
X150347785Y-100916066D01*
X150390364Y-100922799D01*
X150405541Y-100928024D01*
X150421769Y-100938867D01*
X150457931Y-100946060D01*
X150465864Y-100948791D01*
X150487785Y-100964346D01*
X150511601Y-100976804D01*
X150515846Y-100984260D01*
X150522845Y-100989226D01*
X150532875Y-101014163D01*
X150546176Y-101037519D01*
X150547769Y-101051190D01*
X150548919Y-101054048D01*
X150548411Y-101056702D01*
X150549500Y-101066038D01*
X150549500Y-103747411D01*
X150549235Y-103755520D01*
X150536362Y-103951952D01*
X150534245Y-103968033D01*
X150496638Y-104157108D01*
X150492440Y-104172776D01*
X150430475Y-104355324D01*
X150424267Y-104370309D01*
X150339007Y-104543201D01*
X150330898Y-104557248D01*
X150223795Y-104717541D01*
X150213920Y-104730410D01*
X150084253Y-104878267D01*
X150078710Y-104884185D01*
X150068042Y-104894854D01*
X150068037Y-104894859D01*
X150014661Y-104948234D01*
X150008738Y-104953781D01*
X149884130Y-105063056D01*
X149871263Y-105072930D01*
X149736840Y-105162747D01*
X149722793Y-105170857D01*
X149577794Y-105242361D01*
X149562816Y-105248564D01*
X149452000Y-105286181D01*
X149409739Y-105300527D01*
X149394072Y-105304724D01*
X149235507Y-105336264D01*
X149219426Y-105338381D01*
X149053848Y-105349234D01*
X149045738Y-105349500D01*
X145317233Y-105349500D01*
X145309121Y-105349234D01*
X145123847Y-105337087D01*
X145107767Y-105334970D01*
X144929643Y-105299537D01*
X144913975Y-105295339D01*
X144741998Y-105236959D01*
X144727014Y-105230752D01*
X144564134Y-105150428D01*
X144550087Y-105142318D01*
X144399081Y-105041418D01*
X144386213Y-105031544D01*
X144249604Y-104911740D01*
X144238135Y-104900271D01*
X144118446Y-104763793D01*
X144108572Y-104750925D01*
X144099004Y-104736606D01*
X144007669Y-104599914D01*
X143999561Y-104585871D01*
X143993651Y-104573887D01*
X143919234Y-104422985D01*
X143913028Y-104408002D01*
X143890179Y-104340693D01*
X143854648Y-104236024D01*
X143850451Y-104220360D01*
X143815017Y-104042231D01*
X143812901Y-104026154D01*
X143800766Y-103841044D01*
X143800500Y-103832933D01*
X143800500Y-101679752D01*
X143804725Y-101647659D01*
X143820309Y-101589500D01*
X143820309Y-101470882D01*
X143789608Y-101356305D01*
X143730298Y-101253578D01*
X143646422Y-101169702D01*
X143543695Y-101110392D01*
X143429118Y-101079691D01*
X143310500Y-101079691D01*
X143195923Y-101110392D01*
X143195921Y-101110392D01*
X143195921Y-101110393D01*
X143093196Y-101169702D01*
X143093193Y-101169704D01*
X142989513Y-101273384D01*
X142989511Y-101273387D01*
X142930201Y-101376114D01*
X142899500Y-101490691D01*
X142899500Y-101490693D01*
X142899500Y-103785459D01*
X142899488Y-103785499D01*
X137551600Y-103785499D01*
X137551600Y-95316064D01*
X152171677Y-95316064D01*
X152289041Y-95364678D01*
X152289049Y-95364680D01*
X152429492Y-95392616D01*
X152429496Y-95392617D01*
X152572704Y-95392617D01*
X152572707Y-95392616D01*
X152713150Y-95364680D01*
X152713158Y-95364678D01*
X152830521Y-95316064D01*
X152501101Y-94986643D01*
X152501100Y-94986643D01*
X152171677Y-95316064D01*
X137551600Y-95316064D01*
X137551600Y-94016064D01*
X150071677Y-94016064D01*
X150189041Y-94064678D01*
X150189049Y-94064680D01*
X150329492Y-94092616D01*
X150329496Y-94092617D01*
X150472704Y-94092617D01*
X150472707Y-94092616D01*
X150613150Y-94064680D01*
X150613158Y-94064678D01*
X150730521Y-94016064D01*
X150401101Y-93686643D01*
X150401100Y-93686643D01*
X150071677Y-94016064D01*
X137551600Y-94016064D01*
X137551600Y-93373470D01*
X137552335Y-93359989D01*
X137559551Y-93294009D01*
X149674100Y-93294009D01*
X149674100Y-93437224D01*
X149702035Y-93577667D01*
X149702038Y-93577676D01*
X149750650Y-93695037D01*
X150080073Y-93365617D01*
X150060182Y-93345726D01*
X150301100Y-93345726D01*
X150301100Y-93385508D01*
X150316324Y-93422262D01*
X150344455Y-93450393D01*
X150381209Y-93465617D01*
X150420991Y-93465617D01*
X150457745Y-93450393D01*
X150485876Y-93422262D01*
X150501100Y-93385508D01*
X150501100Y-93345726D01*
X150485876Y-93308972D01*
X150457745Y-93280841D01*
X150420991Y-93265617D01*
X150381209Y-93265617D01*
X150344455Y-93280841D01*
X150316324Y-93308972D01*
X150301100Y-93345726D01*
X150060182Y-93345726D01*
X149750651Y-93036195D01*
X149702036Y-93153566D01*
X149702035Y-93153566D01*
X149674100Y-93294009D01*
X137559551Y-93294009D01*
X137561691Y-93274441D01*
X137561691Y-93274440D01*
X137568343Y-93213615D01*
X137572370Y-93193061D01*
X137583643Y-93153566D01*
X137611797Y-93054931D01*
X137619223Y-93035356D01*
X137681335Y-92905836D01*
X137691953Y-92887786D01*
X137774980Y-92770565D01*
X137788478Y-92754566D01*
X137890053Y-92652989D01*
X137906048Y-92639493D01*
X138023275Y-92556459D01*
X138041318Y-92545845D01*
X138170846Y-92483726D01*
X138190415Y-92476302D01*
X138328541Y-92436873D01*
X138349091Y-92432846D01*
X138495327Y-92416851D01*
X138508809Y-92416117D01*
X150189086Y-92416117D01*
X150256125Y-92435802D01*
G37*
%TD.AperFunction*%
%TD*%
M02*
