%TF.GenerationSoftware,KiCad,Pcbnew,9.0.0*%
%TF.CreationDate,2025-05-22T17:38:36+04:00*%
%TF.ProjectId,02_06_sensor_temphumid_HDC3022DEJR,30325f30-365f-4736-956e-736f725f7465,rev?*%
%TF.SameCoordinates,Original*%
%TF.FileFunction,Copper,L1,Top*%
%TF.FilePolarity,Positive*%
%FSLAX46Y46*%
G04 Gerber Fmt 4.6, Leading zero omitted, Abs format (unit mm)*
G04 Created by KiCad (PCBNEW 9.0.0) date 2025-05-22 17:38:36*
%MOMM*%
%LPD*%
G01*
G04 APERTURE LIST*
G04 Aperture macros list*
%AMRoundRect*
0 Rectangle with rounded corners*
0 $1 Rounding radius*
0 $2 $3 $4 $5 $6 $7 $8 $9 X,Y pos of 4 corners*
0 Add a 4 corners polygon primitive as box body*
4,1,4,$2,$3,$4,$5,$6,$7,$8,$9,$2,$3,0*
0 Add four circle primitives for the rounded corners*
1,1,$1+$1,$2,$3*
1,1,$1+$1,$4,$5*
1,1,$1+$1,$6,$7*
1,1,$1+$1,$8,$9*
0 Add four rect primitives between the rounded corners*
20,1,$1+$1,$2,$3,$4,$5,0*
20,1,$1+$1,$4,$5,$6,$7,0*
20,1,$1+$1,$6,$7,$8,$9,0*
20,1,$1+$1,$8,$9,$2,$3,0*%
%AMFreePoly0*
4,1,6,0.900000,-0.650013,-0.750013,-0.650013,-0.900000,-0.500000,-0.900000,0.650013,0.900000,0.650013,0.900000,-0.650013,0.900000,-0.650013,$1*%
G04 Aperture macros list end*
%TA.AperFunction,EtchedComponent*%
%ADD10C,0.101600*%
%TD*%
%TA.AperFunction,EtchedComponent*%
%ADD11C,0.000000*%
%TD*%
%TA.AperFunction,SMDPad,CuDef*%
%ADD12R,0.350000X1.450000*%
%TD*%
%TA.AperFunction,ComponentPad*%
%ADD13C,0.454000*%
%TD*%
%TA.AperFunction,SMDPad,CuDef*%
%ADD14RoundRect,0.218750X-0.256250X0.218750X-0.256250X-0.218750X0.256250X-0.218750X0.256250X0.218750X0*%
%TD*%
%TA.AperFunction,SMDPad,CuDef*%
%ADD15C,1.000000*%
%TD*%
%TA.AperFunction,SMDPad,CuDef*%
%ADD16RoundRect,0.135000X-0.135000X-0.185000X0.135000X-0.185000X0.135000X0.185000X-0.135000X0.185000X0*%
%TD*%
%TA.AperFunction,SMDPad,CuDef*%
%ADD17R,0.250013X0.700000*%
%TD*%
%TA.AperFunction,SMDPad,CuDef*%
%ADD18FreePoly0,0.000000*%
%TD*%
%TA.AperFunction,SMDPad,CuDef*%
%ADD19RoundRect,0.150000X0.512500X0.150000X-0.512500X0.150000X-0.512500X-0.150000X0.512500X-0.150000X0*%
%TD*%
%TA.AperFunction,SMDPad,CuDef*%
%ADD20RoundRect,0.140000X-0.140000X-0.170000X0.140000X-0.170000X0.140000X0.170000X-0.140000X0.170000X0*%
%TD*%
%TA.AperFunction,SMDPad,CuDef*%
%ADD21RoundRect,0.135000X0.135000X0.185000X-0.135000X0.185000X-0.135000X-0.185000X0.135000X-0.185000X0*%
%TD*%
%TA.AperFunction,SMDPad,CuDef*%
%ADD22RoundRect,0.250000X0.650000X-0.325000X0.650000X0.325000X-0.650000X0.325000X-0.650000X-0.325000X0*%
%TD*%
%TA.AperFunction,SMDPad,CuDef*%
%ADD23RoundRect,0.200000X-0.275000X0.200000X-0.275000X-0.200000X0.275000X-0.200000X0.275000X0.200000X0*%
%TD*%
%TA.AperFunction,ViaPad*%
%ADD24C,0.700000*%
%TD*%
%TA.AperFunction,ViaPad*%
%ADD25C,0.500000*%
%TD*%
%TA.AperFunction,Conductor*%
%ADD26C,0.500000*%
%TD*%
%TA.AperFunction,Conductor*%
%ADD27C,0.250000*%
%TD*%
%TA.AperFunction,Conductor*%
%ADD28C,0.750000*%
%TD*%
%TA.AperFunction,Conductor*%
%ADD29C,0.300000*%
%TD*%
G04 APERTURE END LIST*
D10*
%TO.C,J1*%
X150401100Y-93365617D02*
X149501100Y-93365617D01*
X150401100Y-93365617D02*
X150401100Y-94465617D01*
X152501100Y-94665617D02*
X152501100Y-95365617D01*
X154601100Y-93365617D02*
X154601100Y-94465617D01*
X154601100Y-93365617D02*
X155501100Y-93365617D01*
D11*
%TA.AperFunction,EtchedComponent*%
G36*
X150589520Y-92903790D02*
G01*
X150672547Y-93182404D01*
X150798137Y-93444600D01*
X150963197Y-93683921D01*
X151163663Y-93894475D01*
X151394599Y-94071077D01*
X151650318Y-94209378D01*
X151924524Y-94305973D01*
X152501100Y-94365617D01*
X152791735Y-94358484D01*
X153077676Y-94305973D01*
X153351882Y-94209378D01*
X153607601Y-94071077D01*
X153838537Y-93894475D01*
X154039003Y-93683921D01*
X154204063Y-93444600D01*
X154329653Y-93182404D01*
X154451100Y-92615617D01*
X155251100Y-92615617D01*
X155188052Y-92979552D01*
X155077551Y-93331991D01*
X154921527Y-93666775D01*
X154722708Y-93978053D01*
X154484567Y-94260387D01*
X154211266Y-94508843D01*
X153907580Y-94719078D01*
X153578818Y-94887420D01*
X153230723Y-95010926D01*
X152869379Y-95087437D01*
X152501100Y-95115617D01*
X152131911Y-95089990D01*
X151769434Y-95015377D01*
X151420137Y-94893111D01*
X151090257Y-94725373D01*
X150785681Y-94515157D01*
X150511846Y-94266216D01*
X150273640Y-93982994D01*
X150075315Y-93670545D01*
X149920411Y-93334448D01*
X149751100Y-92615617D01*
X150551100Y-92615617D01*
X150589520Y-92903790D01*
G37*
%TD.AperFunction*%
%TD*%
D12*
%TO.P,J1,1,GND*%
%TO.N,GND*%
X157751100Y-113090617D03*
%TO.P,J1,3,USB_D+*%
%TO.N,/USB_D+*%
X157251100Y-113090617D03*
%TO.P,J1,5,USB_D-*%
%TO.N,/USB_D-*%
X156751100Y-113090617D03*
%TO.P,J1,7,GND*%
%TO.N,GND*%
X156251100Y-113090617D03*
%TO.P,J1,9,USB_VIN*%
%TO.N,/V_USB*%
X155751100Y-113090617D03*
%TO.P,J1,11,~{BOOT}*%
%TO.N,VIN*%
X155251100Y-113090617D03*
%TO.P,J1,13,RTS1*%
%TO.N,/UART_RTS1*%
X154751100Y-113090617D03*
%TO.P,J1,15,CTS1*%
%TO.N,/UART_CTS1*%
X154251100Y-113090617D03*
%TO.P,J1,17,TX1*%
%TO.N,HDC3022DEJR_TX*%
X153751100Y-113090617D03*
%TO.P,J1,19,RX1*%
%TO.N,HDC3022DEJR_RX*%
X153251100Y-113090617D03*
%TO.P,J1,21,SWDCK*%
%TO.N,/SWDCK*%
X152751100Y-113090617D03*
%TO.P,J1,23,SWDIO*%
%TO.N,/SWDIO*%
X152251100Y-113090617D03*
%TO.P,J1,33,GND*%
%TO.N,GND*%
X149751100Y-113090617D03*
%TO.P,J1,35,USBHOST_D+*%
%TO.N,/USBHOST_D+*%
X149251100Y-113090617D03*
%TO.P,J1,37,USBHOST_D-*%
%TO.N,/USBHOST_D-*%
X148751100Y-113090617D03*
%TO.P,J1,39,GND*%
%TO.N,GND*%
X148251100Y-113090617D03*
%TO.P,J1,41,CAN-RX*%
%TO.N,/CAN-RX*%
X147751100Y-113090617D03*
%TO.P,J1,43,CAN-TX*%
%TO.N,/CAN-TX*%
X147251100Y-113090617D03*
%TO.P,J1,45,GND*%
%TO.N,GND*%
X146751100Y-113090617D03*
%TO.P,J1,47,PWM1*%
%TO.N,/PWM1*%
X146251100Y-113090617D03*
%TO.P,J1,49,BATT_VIN/3*%
%TO.N,/BATT_VIN*%
X145751100Y-113090617D03*
%TO.P,J1,51,I2C_SDA1*%
%TO.N,/I2C_SDA1*%
X145251100Y-113090617D03*
%TO.P,J1,53,I2C_SCL1*%
%TO.N,/I2C_SCL1*%
X144751100Y-113090617D03*
%TO.P,J1,55,SPI_~{CS}*%
%TO.N,/~{SPI_CS}*%
X144251100Y-113090617D03*
%TO.P,J1,57,SPI_SCK*%
%TO.N,/SPI_SCK*%
X143751100Y-113090617D03*
%TO.P,J1,59,SPI_SDO*%
%TO.N,/SPI_COPI-LED_DAT*%
X143251100Y-113090617D03*
%TO.P,J1,61,SPI_SDI*%
%TO.N,/SPI_CIPO-LED_CLK*%
X142751100Y-113090617D03*
%TO.P,J1,63,G10/ADC_D+/CAM_VSYNC*%
%TO.N,/G10-CAM_VSYNC*%
X142251100Y-113090617D03*
%TO.P,J1,65,G9/ADC_D-/CAM_HSYNC*%
%TO.N,/G9-CAM_HSYNC*%
X141751100Y-113090617D03*
%TO.P,J1,67,G8*%
%TO.N,/G8*%
X141251100Y-113090617D03*
%TO.P,J1,69,G7/BUS7*%
%TO.N,/G7*%
X140751100Y-113090617D03*
%TO.P,J1,71,G6/BUS6*%
%TO.N,/G6*%
X140251100Y-113090617D03*
%TO.P,J1,73,G5/BUS5*%
%TO.N,/G5*%
X139751100Y-113090617D03*
%TO.P,J1,75,GND*%
%TO.N,GND*%
X139251100Y-113090617D03*
D13*
%TO.P,J1,GND1,GND*%
X150401100Y-93365617D03*
%TO.P,J1,GND2,GND*%
X152501100Y-94665617D03*
%TO.P,J1,GND3,GND*%
X154601100Y-93365617D03*
%TD*%
D14*
%TO.P,D1,1,K*%
%TO.N,GND*%
X157660000Y-95112500D03*
%TO.P,D1,2,A*%
%TO.N,Net-(D1-A)*%
X157660000Y-96687500D03*
%TD*%
D15*
%TO.P,SCL,1,1*%
%TO.N,HDC3022DEJR_SCL*%
X142500000Y-94600000D03*
%TD*%
%TO.P,SDA,1,1*%
%TO.N,HDC3022DEJR_SDA*%
X140000000Y-94600000D03*
%TD*%
D16*
%TO.P,R2,1*%
%TO.N,HDC3022DEJR_ADDR*%
X142439809Y-107099950D03*
%TO.P,R2,2*%
%TO.N,GND*%
X143459809Y-107099950D03*
%TD*%
D17*
%TO.P,U1,1,SDA*%
%TO.N,HDC3022DEJR_SDA*%
X142149936Y-106099950D03*
%TO.P,U1,2,ADDR*%
%TO.N,HDC3022DEJR_ADDR*%
X142649809Y-106099950D03*
%TO.P,U1,3,ALERT*%
%TO.N,HDC3022DEJR_INT*%
X143149936Y-106099950D03*
%TO.P,U1,4,SCL*%
%TO.N,HDC3022DEJR_SCL*%
X143650064Y-106099950D03*
%TO.P,U1,5,VDD*%
%TO.N,+3V3*%
X143650064Y-103500000D03*
%TO.P,U1,6,RESET#*%
%TO.N,unconnected-(U1-RESET#-Pad6)*%
X143149936Y-103500000D03*
%TO.P,U1,7,ADDR1*%
%TO.N,HDC3022DEJR_ADDR1*%
X142649809Y-103500000D03*
%TO.P,U1,8,GND*%
%TO.N,GND*%
X142149936Y-103500000D03*
D18*
%TO.P,U1,9,EP*%
X142884760Y-104787275D03*
%TD*%
D19*
%TO.P,U2,1,VIN*%
%TO.N,VIN*%
X154537500Y-105750000D03*
%TO.P,U2,2,GND*%
%TO.N,GND*%
X154537500Y-104800000D03*
%TO.P,U2,3,EN*%
%TO.N,VIN*%
X154537500Y-103850000D03*
%TO.P,U2,4,NC*%
%TO.N,unconnected-(U2-NC-Pad4)*%
X152262500Y-103850000D03*
%TO.P,U2,5,VOUT*%
%TO.N,+3V3*%
X152262500Y-105750000D03*
%TD*%
D20*
%TO.P,C1,1*%
%TO.N,+3V3*%
X143369809Y-102499950D03*
%TO.P,C1,2*%
%TO.N,GND*%
X144329809Y-102499950D03*
%TD*%
D21*
%TO.P,R3,1*%
%TO.N,HDC3022DEJR_ADDR1*%
X142459809Y-102499950D03*
%TO.P,R3,2*%
%TO.N,GND*%
X141439809Y-102499950D03*
%TD*%
D22*
%TO.P,C3,1*%
%TO.N,VIN*%
X156737500Y-106275000D03*
%TO.P,C3,2*%
%TO.N,GND*%
X156737500Y-103325000D03*
%TD*%
D23*
%TO.P,R1,1*%
%TO.N,+3V3*%
X156000000Y-95075000D03*
%TO.P,R1,2*%
%TO.N,Net-(D1-A)*%
X156000000Y-96725000D03*
%TD*%
D22*
%TO.P,C4,1*%
%TO.N,+3V3*%
X150137500Y-106275000D03*
%TO.P,C4,2*%
%TO.N,GND*%
X150137500Y-103325000D03*
%TD*%
D24*
%TO.N,GND*%
X156600000Y-101500000D03*
X156600000Y-100500000D03*
X157600000Y-99500000D03*
X157600000Y-100500000D03*
X157600000Y-101500000D03*
X155600000Y-101500000D03*
X147100000Y-94400000D03*
X147100000Y-95400000D03*
X146100000Y-96400000D03*
X146100000Y-95400000D03*
X146100000Y-94400000D03*
X148100000Y-94400000D03*
D25*
%TO.N,+3V3*%
X148300000Y-105800000D03*
X154700000Y-95200000D03*
X143369809Y-101530191D03*
%TO.N,HDC3022DEJR_SCL*%
X140800000Y-104400000D03*
X145400000Y-107000000D03*
%TO.N,HDC3022DEJR_SDA*%
X148100000Y-107900000D03*
%TO.N,HDC3022DEJR_ADDR*%
X142500000Y-107900000D03*
X148000000Y-100000000D03*
%TO.N,HDC3022DEJR_ADDR1*%
X148000000Y-97700000D03*
%TD*%
D26*
%TO.N,+3V3*%
X154700000Y-95200000D02*
X154825000Y-95075000D01*
X154825000Y-95075000D02*
X156000000Y-95075000D01*
D27*
%TO.N,HDC3022DEJR_ADDR1*%
X142768937Y-101316474D02*
G75*
G03*
X142459780Y-102062776I746263J-746326D01*
G01*
X147192706Y-97700000D02*
G75*
G03*
X145814561Y-98270836I-6J-1949000D01*
G01*
%TO.N,HDC3022DEJR_ADDR*%
X142439809Y-107099950D02*
X142439809Y-107389900D01*
D28*
%TO.N,VIN*%
X155104100Y-105750000D02*
X154537500Y-105750000D01*
D29*
%TO.N,GND*%
X142615008Y-104517523D02*
G75*
G03*
X143266246Y-104787246I651192J651223D01*
G01*
X144506362Y-104593637D02*
G75*
G02*
X144038880Y-104787273I-467462J467437D01*
G01*
D27*
X142052275Y-103402339D02*
G75*
G02*
X142149926Y-103638112I-235775J-235761D01*
G01*
%TO.N,+3V3*%
X143369809Y-102400865D02*
G75*
G03*
X143439859Y-102570026I239191J-35D01*
G01*
D29*
%TO.N,GND*%
X144506362Y-104593637D02*
X144700000Y-104400000D01*
X143266246Y-104787275D02*
X144038880Y-104787275D01*
D27*
%TO.N,HDC3022DEJR_ADDR1*%
X148000000Y-97700000D02*
X147192706Y-97700000D01*
X142768937Y-101316474D02*
X145814568Y-98270843D01*
X142459809Y-102062776D02*
X142459809Y-102499950D01*
%TO.N,+3V3*%
X143650064Y-102978375D02*
X143650064Y-103500000D01*
D28*
X148537500Y-106037500D02*
X148300000Y-105800000D01*
X150137500Y-106275000D02*
X149110875Y-106275000D01*
X150137500Y-106275000D02*
X151366268Y-106275000D01*
D27*
X143369809Y-101530191D02*
X143369809Y-102400865D01*
X143509936Y-102640077D02*
X143439872Y-102570013D01*
D28*
X152000000Y-106012500D02*
X152262500Y-105750000D01*
D27*
X143509936Y-102640077D02*
G75*
G02*
X143650070Y-102978375I-338336J-338323D01*
G01*
D28*
X148537500Y-106037500D02*
G75*
G03*
X149110875Y-106275010I573400J573400D01*
G01*
X151366268Y-106275000D02*
G75*
G03*
X152000009Y-106012509I32J896200D01*
G01*
%TO.N,GND*%
X156618529Y-103780470D02*
X155974296Y-104424702D01*
X156737500Y-103493250D02*
X156737500Y-103325000D01*
D29*
X142615008Y-104517523D02*
X142345256Y-104247771D01*
D27*
X141542312Y-102892376D02*
X142052275Y-103402339D01*
X141439809Y-102644911D02*
X141439809Y-102499950D01*
D28*
X155068250Y-104800000D02*
X154537500Y-104800000D01*
D29*
X142149936Y-103776225D02*
X142149936Y-103638112D01*
D27*
X141542312Y-102892376D02*
G75*
G02*
X141439808Y-102644911I247488J247476D01*
G01*
D28*
X156737500Y-103493250D02*
G75*
G02*
X156618506Y-103780447I-406200J50D01*
G01*
D29*
X142149936Y-103776225D02*
G75*
G03*
X142345269Y-104247758I666864J25D01*
G01*
D28*
X155068250Y-104800000D02*
G75*
G03*
X155974263Y-104424669I-50J1281300D01*
G01*
%TO.N,VIN*%
X154537500Y-105750000D02*
X154254200Y-105750000D01*
D26*
X154254200Y-103850000D02*
X154537500Y-103850000D01*
D28*
X156475000Y-106012500D02*
X156737500Y-106275000D01*
X155841268Y-105750000D02*
X155104100Y-105750000D01*
X155841268Y-105750000D02*
G75*
G02*
X156475009Y-106012491I32J-896200D01*
G01*
D26*
%TO.N,Net-(D1-A)*%
X157641250Y-96706250D02*
X157660000Y-96687500D01*
X157595983Y-96725000D02*
X156000000Y-96725000D01*
X157595983Y-96725000D02*
G75*
G03*
X157641255Y-96706255I17J64000D01*
G01*
D27*
%TO.N,HDC3022DEJR_SCL*%
X144935785Y-106435785D02*
X145364644Y-106864644D01*
X140800000Y-97502081D02*
X140800000Y-104400000D01*
X141650000Y-95450000D02*
X142500000Y-94600000D01*
X144125007Y-106099950D02*
X143650064Y-106099950D01*
X145400000Y-107000000D02*
X145400000Y-106950000D01*
X144935785Y-106435785D02*
G75*
G03*
X144125007Y-106099956I-810785J-810815D01*
G01*
X145364644Y-106864644D02*
G75*
G02*
X145400003Y-106950000I-85344J-85356D01*
G01*
X140800000Y-97502081D02*
G75*
G02*
X141650005Y-95450005I2902100J-19D01*
G01*
%TO.N,HDC3022DEJR_SDA*%
X142400000Y-108700000D02*
X142212692Y-108512692D01*
X148100000Y-107900000D02*
X147350000Y-108650000D01*
X141617649Y-106099950D02*
X142149936Y-106099950D01*
X139962000Y-94638000D02*
X140000000Y-94600000D01*
X145539339Y-109400000D02*
X144089949Y-109400000D01*
X142149936Y-106099950D02*
X141924968Y-106324918D01*
X141700000Y-107274943D02*
X141700000Y-106868038D01*
X139924000Y-104117381D02*
X139924000Y-94729740D01*
X140504681Y-105519269D02*
X140708978Y-105723566D01*
X139924000Y-94729740D02*
G75*
G02*
X139961988Y-94637988I129700J40D01*
G01*
X141700000Y-107274943D02*
G75*
G03*
X142212722Y-108512662I1750400J43D01*
G01*
X145539339Y-109400000D02*
G75*
G03*
X147349988Y-108649988I-39J2560700D01*
G01*
X140504681Y-105519269D02*
G75*
G02*
X139924022Y-104117381I1401919J1401869D01*
G01*
X141924968Y-106324918D02*
G75*
G03*
X141700031Y-106868038I543132J-543082D01*
G01*
X140708978Y-105723566D02*
G75*
G03*
X141617649Y-106099987I908722J908666D01*
G01*
X142400000Y-108700000D02*
G75*
G03*
X144089949Y-109400021I1690000J1690000D01*
G01*
%TO.N,HDC3022DEJR_ADDR*%
X142544809Y-106705000D02*
X142542321Y-106707487D01*
X142649809Y-106451507D02*
X142649809Y-106099950D01*
X145652747Y-108800000D02*
X144036396Y-108800000D01*
X142950000Y-108350000D02*
X142500000Y-107900000D01*
X142439809Y-107797247D02*
X142439809Y-107389900D01*
X148000000Y-100000000D02*
X147700000Y-100300000D01*
X142439809Y-106954975D02*
X142439809Y-107099950D01*
X147400000Y-107052747D02*
X147400000Y-101024264D01*
X142469904Y-107869904D02*
X142500000Y-107900000D01*
X142544809Y-106705000D02*
G75*
G03*
X142649810Y-106451507I-253509J253500D01*
G01*
X142950000Y-108350000D02*
G75*
G03*
X144036396Y-108800002I1086400J1086400D01*
G01*
X147400000Y-101024264D02*
G75*
G02*
X147700011Y-100300011I1024300J-36D01*
G01*
X142439809Y-107797247D02*
G75*
G03*
X142469920Y-107869888I102791J47D01*
G01*
X146888241Y-108288241D02*
G75*
G02*
X145652747Y-108800019I-1235541J1235541D01*
G01*
X146888241Y-108288241D02*
G75*
G03*
X147400019Y-107052747I-1235541J1235541D01*
G01*
X142439809Y-106954975D02*
G75*
G02*
X142542336Y-106707502I349991J-25D01*
G01*
%TO.N,HDC3022DEJR_ADDR1*%
X142649809Y-102824300D02*
X142649809Y-103500000D01*
X142554809Y-102594950D02*
G75*
G02*
X142459821Y-102365599I229391J229350D01*
G01*
X142649809Y-102824300D02*
G75*
G03*
X142554801Y-102594958I-324309J0D01*
G01*
%TD*%
%TA.AperFunction,Conductor*%
%TO.N,VIN*%
G36*
X155580039Y-103419685D02*
G01*
X155625794Y-103472489D01*
X155637000Y-103524000D01*
X155637000Y-103704269D01*
X155639853Y-103734698D01*
X155668701Y-103817141D01*
X155669546Y-103833707D01*
X155675343Y-103849249D01*
X155671290Y-103867878D01*
X155672262Y-103886920D01*
X155663893Y-103901880D01*
X155660491Y-103917522D01*
X155639340Y-103945776D01*
X155621098Y-103964018D01*
X155621058Y-103964054D01*
X155571644Y-104013473D01*
X155562628Y-104021644D01*
X155469819Y-104097818D01*
X155449609Y-104111324D01*
X155349115Y-104165046D01*
X155326656Y-104174350D01*
X155217616Y-104207432D01*
X155193776Y-104212175D01*
X155084626Y-104222930D01*
X155074763Y-104223902D01*
X155062605Y-104224500D01*
X154461734Y-104224500D01*
X154315365Y-104263719D01*
X154315364Y-104263719D01*
X154315362Y-104263720D01*
X154315359Y-104263721D01*
X154282166Y-104282886D01*
X154220165Y-104299500D01*
X153991739Y-104299500D01*
X153923608Y-104309426D01*
X153818514Y-104360803D01*
X153735803Y-104443514D01*
X153684426Y-104548608D01*
X153674500Y-104616739D01*
X153674500Y-104983260D01*
X153684426Y-105051391D01*
X153735803Y-105156485D01*
X153818514Y-105239196D01*
X153818515Y-105239196D01*
X153818517Y-105239198D01*
X153923607Y-105290573D01*
X153957673Y-105295536D01*
X153991739Y-105300500D01*
X153991740Y-105300500D01*
X154220165Y-105300500D01*
X154282166Y-105317114D01*
X154315359Y-105336278D01*
X154315360Y-105336278D01*
X154315365Y-105336281D01*
X154461734Y-105375500D01*
X154990775Y-105375500D01*
X154998383Y-105375500D01*
X154998394Y-105375503D01*
X155016875Y-105375502D01*
X155017031Y-105375547D01*
X155068272Y-105375545D01*
X155068272Y-105375546D01*
X155189979Y-105375541D01*
X155431307Y-105343759D01*
X155431311Y-105343758D01*
X155666419Y-105280750D01*
X155666420Y-105280749D01*
X155666422Y-105280749D01*
X155891302Y-105187589D01*
X155891310Y-105187583D01*
X155891313Y-105187583D01*
X155982117Y-105135150D01*
X156102097Y-105065873D01*
X156120969Y-105051391D01*
X156295193Y-104917691D01*
X156295194Y-104917690D01*
X156295202Y-104917684D01*
X156333173Y-104879708D01*
X156371143Y-104841736D01*
X156371144Y-104841733D01*
X157076060Y-104136819D01*
X157137383Y-104103334D01*
X157163741Y-104100500D01*
X157441770Y-104100500D01*
X157472199Y-104097646D01*
X157472201Y-104097646D01*
X157536290Y-104075219D01*
X157600382Y-104052793D01*
X157602365Y-104051329D01*
X157604910Y-104050399D01*
X157608601Y-104048449D01*
X157608867Y-104048953D01*
X157667991Y-104027357D01*
X157736162Y-104042671D01*
X157785232Y-104092409D01*
X157800000Y-104151098D01*
X157800000Y-108565888D01*
X157782552Y-108629312D01*
X155713963Y-112104541D01*
X155662759Y-112152079D01*
X155607411Y-112165117D01*
X155556347Y-112165117D01*
X155497870Y-112176748D01*
X155497869Y-112176749D01*
X155431547Y-112221064D01*
X155387232Y-112287386D01*
X155387231Y-112287387D01*
X155375600Y-112345864D01*
X155375600Y-112638879D01*
X155371196Y-112654886D01*
X155371705Y-112669715D01*
X155358152Y-112702303D01*
X155357152Y-112703983D01*
X155305948Y-112751521D01*
X155237171Y-112763830D01*
X155172658Y-112737001D01*
X155132890Y-112679552D01*
X155126600Y-112640559D01*
X155126600Y-112345866D01*
X155126599Y-112345864D01*
X155114968Y-112287387D01*
X155114967Y-112287386D01*
X155070652Y-112221064D01*
X155004330Y-112176749D01*
X155004329Y-112176748D01*
X154945852Y-112165117D01*
X154945848Y-112165117D01*
X154556352Y-112165117D01*
X154556351Y-112165117D01*
X154525288Y-112171295D01*
X154476912Y-112171295D01*
X154445849Y-112165117D01*
X154445848Y-112165117D01*
X154056352Y-112165117D01*
X154056351Y-112165117D01*
X154025288Y-112171295D01*
X153976912Y-112171295D01*
X153945849Y-112165117D01*
X153945848Y-112165117D01*
X153556352Y-112165117D01*
X153556351Y-112165117D01*
X153525288Y-112171295D01*
X153523521Y-112171370D01*
X153522693Y-112171782D01*
X153515677Y-112171707D01*
X153487417Y-112172920D01*
X153482121Y-112172332D01*
X153445848Y-112165117D01*
X153417135Y-112165117D01*
X153410317Y-112164360D01*
X153384157Y-112153417D01*
X153356961Y-112145432D01*
X153352353Y-112140114D01*
X153345859Y-112137398D01*
X153329767Y-112114048D01*
X153311206Y-112092628D01*
X153309453Y-112084573D01*
X153306210Y-112079867D01*
X153305823Y-112067887D01*
X153300000Y-112041117D01*
X153300000Y-103524000D01*
X153319685Y-103456961D01*
X153372489Y-103411206D01*
X153424000Y-103400000D01*
X155513000Y-103400000D01*
X155580039Y-103419685D01*
G37*
%TD.AperFunction*%
%TD*%
%TA.AperFunction,Conductor*%
%TO.N,GND*%
G36*
X149497374Y-92435802D02*
G01*
X149543129Y-92488606D01*
X149553073Y-92557764D01*
X149551414Y-92566873D01*
X149550440Y-92571277D01*
X149551073Y-92662731D01*
X149621536Y-92961888D01*
X149617746Y-93031655D01*
X149576838Y-93088297D01*
X149511801Y-93113831D01*
X149500839Y-93114317D01*
X149451111Y-93114317D01*
X149358749Y-93152575D01*
X149288058Y-93223266D01*
X149249800Y-93315628D01*
X149249800Y-93415605D01*
X149262959Y-93447373D01*
X149288058Y-93507967D01*
X149358750Y-93578659D01*
X149451113Y-93616917D01*
X149635438Y-93616917D01*
X149697636Y-93633645D01*
X149848942Y-93721375D01*
X149859394Y-93732378D01*
X149872847Y-93739415D01*
X149895638Y-93769333D01*
X149901808Y-93780662D01*
X149901815Y-93780673D01*
X150100140Y-94093122D01*
X150113625Y-94111522D01*
X150116374Y-94115272D01*
X150116377Y-94115277D01*
X150120693Y-94120407D01*
X150148783Y-94184381D01*
X150149800Y-94200227D01*
X150149800Y-94515605D01*
X150164880Y-94552011D01*
X150188058Y-94607967D01*
X150258750Y-94678659D01*
X150351113Y-94716917D01*
X150351115Y-94716917D01*
X150451085Y-94716917D01*
X150451087Y-94716917D01*
X150543450Y-94678659D01*
X150543452Y-94678656D01*
X150554436Y-94674107D01*
X150623906Y-94666638D01*
X150672325Y-94686614D01*
X150973526Y-94894501D01*
X150984141Y-94900824D01*
X150997091Y-94908539D01*
X150997100Y-94908544D01*
X150997114Y-94908552D01*
X151154343Y-94988500D01*
X151315282Y-95070335D01*
X151326994Y-95076290D01*
X151327004Y-95076294D01*
X151327016Y-95076300D01*
X151352243Y-95087072D01*
X151601185Y-95174210D01*
X151701541Y-95209338D01*
X151728002Y-95216657D01*
X152090479Y-95291270D01*
X152100226Y-95292605D01*
X152106519Y-95293468D01*
X152137137Y-95301758D01*
X152174001Y-95317027D01*
X152228405Y-95360868D01*
X152248167Y-95407397D01*
X152249799Y-95415601D01*
X152249800Y-95415603D01*
X152249800Y-95415604D01*
X152288058Y-95507967D01*
X152358750Y-95578659D01*
X152451113Y-95616917D01*
X152451115Y-95616917D01*
X152551085Y-95616917D01*
X152551087Y-95616917D01*
X152643450Y-95578659D01*
X152714142Y-95507967D01*
X152752400Y-95415604D01*
X152752400Y-95415596D01*
X152754030Y-95407403D01*
X152757710Y-95400365D01*
X152757994Y-95392429D01*
X152773671Y-95369848D01*
X152786412Y-95345490D01*
X152794328Y-95340097D01*
X152797842Y-95335037D01*
X152828196Y-95317027D01*
X152874850Y-95297702D01*
X152904696Y-95289520D01*
X152911948Y-95288480D01*
X153212085Y-95224929D01*
X153273279Y-95211972D01*
X153273289Y-95211970D01*
X153299422Y-95204602D01*
X153299427Y-95204600D01*
X153299439Y-95204597D01*
X153647534Y-95081091D01*
X153672479Y-95070335D01*
X154001241Y-94901993D01*
X154024549Y-94888041D01*
X154129067Y-94815685D01*
X154195389Y-94793712D01*
X154263064Y-94811084D01*
X154310605Y-94862286D01*
X154322916Y-94931063D01*
X154307033Y-94979638D01*
X154280200Y-95026113D01*
X154280200Y-95026117D01*
X154274727Y-95046542D01*
X154249500Y-95140691D01*
X154249500Y-95259309D01*
X154253324Y-95273580D01*
X154273308Y-95348162D01*
X154273308Y-95348163D01*
X154280199Y-95373884D01*
X154290906Y-95392429D01*
X154339511Y-95476614D01*
X154423386Y-95560489D01*
X154526113Y-95619799D01*
X154550321Y-95626284D01*
X154550324Y-95626286D01*
X154550325Y-95626286D01*
X154564033Y-95629959D01*
X154640691Y-95650500D01*
X154640693Y-95650500D01*
X154759308Y-95650500D01*
X154759309Y-95650500D01*
X154849673Y-95626286D01*
X154873887Y-95619799D01*
X154976614Y-95560489D01*
X154988347Y-95548755D01*
X155004650Y-95540068D01*
X155021503Y-95536580D01*
X155036607Y-95528334D01*
X155062965Y-95525500D01*
X155357746Y-95525500D01*
X155424785Y-95545185D01*
X155445428Y-95561820D01*
X155486653Y-95603046D01*
X155486655Y-95603047D01*
X155486658Y-95603050D01*
X155599694Y-95660645D01*
X155599698Y-95660647D01*
X155693475Y-95675499D01*
X155693481Y-95675500D01*
X156306518Y-95675499D01*
X156400304Y-95660646D01*
X156513342Y-95603050D01*
X156538905Y-95577486D01*
X156600226Y-95544002D01*
X156669918Y-95548986D01*
X156725852Y-95590856D01*
X156744292Y-95626165D01*
X156747905Y-95637070D01*
X156747908Y-95637077D01*
X156836114Y-95780080D01*
X156954919Y-95898885D01*
X157084793Y-95978992D01*
X157099318Y-95995140D01*
X157117030Y-96007706D01*
X157122220Y-96020603D01*
X157131517Y-96030940D01*
X157135005Y-96052376D01*
X157143113Y-96072524D01*
X157140506Y-96086178D01*
X157142740Y-96099903D01*
X157134084Y-96119823D01*
X157130013Y-96141154D01*
X157117144Y-96158811D01*
X157114896Y-96163985D01*
X157109592Y-96169941D01*
X157108487Y-96171103D01*
X157060342Y-96219249D01*
X157057563Y-96224702D01*
X157046915Y-96235910D01*
X157023467Y-96249502D01*
X157002012Y-96266049D01*
X156991529Y-96268017D01*
X156986468Y-96270952D01*
X156977980Y-96270562D01*
X156957019Y-96274500D01*
X156642254Y-96274500D01*
X156575215Y-96254815D01*
X156554572Y-96238180D01*
X156513346Y-96196953D01*
X156513344Y-96196952D01*
X156513342Y-96196950D01*
X156436517Y-96157805D01*
X156400301Y-96139352D01*
X156306524Y-96124500D01*
X155693482Y-96124500D01*
X155612519Y-96137323D01*
X155599696Y-96139354D01*
X155486658Y-96196950D01*
X155486657Y-96196951D01*
X155486652Y-96196954D01*
X155396954Y-96286652D01*
X155396951Y-96286657D01*
X155339352Y-96399698D01*
X155324500Y-96493475D01*
X155324500Y-96956517D01*
X155335292Y-97024657D01*
X155339354Y-97050304D01*
X155396950Y-97163342D01*
X155396952Y-97163344D01*
X155396954Y-97163347D01*
X155486652Y-97253045D01*
X155486654Y-97253046D01*
X155486658Y-97253050D01*
X155598332Y-97309951D01*
X155599698Y-97310647D01*
X155693475Y-97325499D01*
X155693481Y-97325500D01*
X156306518Y-97325499D01*
X156400304Y-97310646D01*
X156513342Y-97253050D01*
X156554572Y-97211820D01*
X156615895Y-97178334D01*
X156642254Y-97175500D01*
X157028729Y-97175500D01*
X157095768Y-97195185D01*
X157116411Y-97211820D01*
X157154244Y-97249654D01*
X157154246Y-97249655D01*
X157154249Y-97249658D01*
X157272580Y-97309951D01*
X157272581Y-97309951D01*
X157272583Y-97309952D01*
X157272582Y-97309952D01*
X157370749Y-97325500D01*
X157370754Y-97325500D01*
X157949251Y-97325500D01*
X158047417Y-97309952D01*
X158047418Y-97309951D01*
X158047420Y-97309951D01*
X158165751Y-97249658D01*
X158259658Y-97155751D01*
X158319951Y-97037420D01*
X158319951Y-97037418D01*
X158319952Y-97037417D01*
X158335500Y-96939251D01*
X158335500Y-96435748D01*
X158319952Y-96337582D01*
X158319951Y-96337580D01*
X158259658Y-96219249D01*
X158259654Y-96219245D01*
X158259653Y-96219243D01*
X158212622Y-96172212D01*
X158179137Y-96110889D01*
X158184121Y-96041197D01*
X158225993Y-95985264D01*
X158235207Y-95978992D01*
X158365078Y-95898887D01*
X158483885Y-95780080D01*
X158572091Y-95637077D01*
X158572093Y-95637072D01*
X158624942Y-95477583D01*
X158634999Y-95379150D01*
X158635000Y-95379137D01*
X158635000Y-95362500D01*
X157784000Y-95362500D01*
X157716961Y-95342815D01*
X157671206Y-95290011D01*
X157660000Y-95238500D01*
X157660000Y-95112500D01*
X157534000Y-95112500D01*
X157466961Y-95092815D01*
X157421206Y-95040011D01*
X157410000Y-94988500D01*
X157410000Y-94862500D01*
X157910000Y-94862500D01*
X158634999Y-94862500D01*
X158634999Y-94845864D01*
X158634998Y-94845847D01*
X158624943Y-94747416D01*
X158572093Y-94587927D01*
X158572091Y-94587922D01*
X158483885Y-94444919D01*
X158365080Y-94326114D01*
X158222077Y-94237908D01*
X158222072Y-94237906D01*
X158062583Y-94185057D01*
X157964150Y-94175000D01*
X157910000Y-94175000D01*
X157910000Y-94862500D01*
X157410000Y-94862500D01*
X157410000Y-94175000D01*
X157409999Y-94174999D01*
X157355864Y-94175000D01*
X157355847Y-94175001D01*
X157257415Y-94185057D01*
X157097927Y-94237906D01*
X157097922Y-94237908D01*
X156954919Y-94326114D01*
X156836113Y-94444920D01*
X156836110Y-94444924D01*
X156756381Y-94574185D01*
X156704433Y-94620910D01*
X156635471Y-94632131D01*
X156571389Y-94604288D01*
X156563162Y-94596769D01*
X156513347Y-94546954D01*
X156513344Y-94546952D01*
X156513342Y-94546950D01*
X156436517Y-94507805D01*
X156400301Y-94489352D01*
X156306524Y-94474500D01*
X155693482Y-94474500D01*
X155612519Y-94487323D01*
X155599696Y-94489354D01*
X155486658Y-94546950D01*
X155486657Y-94546951D01*
X155486653Y-94546953D01*
X155445428Y-94588180D01*
X155384105Y-94621666D01*
X155357746Y-94624500D01*
X154976400Y-94624500D01*
X154909361Y-94604815D01*
X154863606Y-94552011D01*
X154852400Y-94500500D01*
X154852400Y-94188293D01*
X154872085Y-94121254D01*
X154879023Y-94111522D01*
X154879762Y-94110582D01*
X154879791Y-94110549D01*
X154895895Y-94088671D01*
X155094714Y-93777393D01*
X155099973Y-93767817D01*
X155149092Y-93718757D01*
X155307194Y-93632162D01*
X155335162Y-93626040D01*
X155362335Y-93616996D01*
X155366761Y-93616917D01*
X155551085Y-93616917D01*
X155551087Y-93616917D01*
X155643450Y-93578659D01*
X155714142Y-93507967D01*
X155752400Y-93415604D01*
X155752400Y-93315630D01*
X155714142Y-93223267D01*
X155643450Y-93152575D01*
X155551088Y-93114317D01*
X155551087Y-93114317D01*
X155520595Y-93114317D01*
X155453556Y-93094632D01*
X155407801Y-93041828D01*
X155397857Y-92972670D01*
X155398415Y-92969150D01*
X155416189Y-92866553D01*
X155453584Y-92650695D01*
X155451448Y-92569889D01*
X155451446Y-92569885D01*
X155451306Y-92569305D01*
X155451387Y-92567614D01*
X155451100Y-92556751D01*
X155451909Y-92556729D01*
X155454657Y-92499516D01*
X155495207Y-92442617D01*
X155560082Y-92416674D01*
X155571822Y-92416117D01*
X158493234Y-92416117D01*
X158506716Y-92416852D01*
X158537216Y-92420187D01*
X158653104Y-92432863D01*
X158673654Y-92436890D01*
X158811775Y-92476317D01*
X158831349Y-92483743D01*
X158960838Y-92545843D01*
X158960865Y-92545856D01*
X158978917Y-92556475D01*
X159067068Y-92618914D01*
X159096114Y-92639488D01*
X159096133Y-92639501D01*
X159112142Y-92653009D01*
X159213701Y-92754570D01*
X159227208Y-92770578D01*
X159310233Y-92887796D01*
X159320852Y-92905850D01*
X159382957Y-93035356D01*
X159390387Y-93054939D01*
X159429813Y-93193063D01*
X159433840Y-93213617D01*
X159449865Y-93360146D01*
X159450600Y-93373627D01*
X159450600Y-109755872D01*
X159449451Y-109772714D01*
X159435814Y-109872185D01*
X159429333Y-109898169D01*
X159396341Y-109987818D01*
X159384432Y-110011804D01*
X159379611Y-110019341D01*
X159332964Y-110092274D01*
X159316183Y-110113144D01*
X159248633Y-110180692D01*
X159227763Y-110197471D01*
X159147286Y-110248941D01*
X159123298Y-110260850D01*
X159033656Y-110293836D01*
X159007671Y-110300317D01*
X158906155Y-110314230D01*
X158892791Y-110315329D01*
X158872130Y-110315907D01*
X158864324Y-110317542D01*
X158838078Y-110319407D01*
X158838072Y-110319408D01*
X158723484Y-110352555D01*
X158618415Y-110409056D01*
X158618407Y-110409062D01*
X158527573Y-110486380D01*
X158455019Y-110581074D01*
X158455018Y-110581076D01*
X158403992Y-110688904D01*
X158388678Y-110754259D01*
X158376775Y-110805053D01*
X158376007Y-110844291D01*
X158375600Y-110844699D01*
X158375600Y-110865177D01*
X158375590Y-110865687D01*
X158375579Y-110866282D01*
X158375579Y-110866318D01*
X158375020Y-110896650D01*
X158375600Y-110900539D01*
X158375600Y-111829809D01*
X158355915Y-111896848D01*
X158303111Y-111942603D01*
X158233953Y-111952547D01*
X158177290Y-111929077D01*
X158168188Y-111922263D01*
X158168186Y-111922262D01*
X158033479Y-111872020D01*
X158033472Y-111872018D01*
X157973944Y-111865617D01*
X157926100Y-111865617D01*
X157926100Y-112966617D01*
X157923549Y-112975302D01*
X157924838Y-112984264D01*
X157913859Y-113008304D01*
X157906415Y-113033656D01*
X157899574Y-113039583D01*
X157895813Y-113047820D01*
X157873578Y-113062109D01*
X157853611Y-113079411D01*
X157843096Y-113081698D01*
X157837035Y-113085594D01*
X157802100Y-113090617D01*
X157750600Y-113090617D01*
X157683561Y-113070932D01*
X157637806Y-113018128D01*
X157626600Y-112966617D01*
X157626600Y-112345866D01*
X157626599Y-112345864D01*
X157614968Y-112287390D01*
X157614967Y-112287389D01*
X157614967Y-112287386D01*
X157596997Y-112260493D01*
X157576120Y-112193816D01*
X157576100Y-112191603D01*
X157576100Y-111865617D01*
X157528255Y-111865617D01*
X157468727Y-111872018D01*
X157468720Y-111872020D01*
X157334013Y-111922262D01*
X157334006Y-111922266D01*
X157218912Y-112008426D01*
X157137956Y-112116568D01*
X157115880Y-112133092D01*
X157096007Y-112152214D01*
X157086583Y-112155023D01*
X157082022Y-112158438D01*
X157062706Y-112163908D01*
X157056582Y-112165117D01*
X157056352Y-112165117D01*
X157025824Y-112171189D01*
X157025116Y-112171329D01*
X157024742Y-112171295D01*
X156976912Y-112171295D01*
X156939876Y-112163929D01*
X156940408Y-112161253D01*
X156886509Y-112139452D01*
X156864243Y-112116567D01*
X156783290Y-112008429D01*
X156783287Y-112008426D01*
X156668193Y-111922266D01*
X156668186Y-111922262D01*
X156533479Y-111872020D01*
X156533472Y-111872018D01*
X156473944Y-111865617D01*
X156426100Y-111865617D01*
X156426100Y-112191603D01*
X156423549Y-112200288D01*
X156424838Y-112209250D01*
X156408065Y-112253021D01*
X156406415Y-112258642D01*
X156405661Y-112259294D01*
X156405202Y-112260494D01*
X156387233Y-112287386D01*
X156387231Y-112287390D01*
X156375600Y-112345864D01*
X156375600Y-112966617D01*
X156373049Y-112975302D01*
X156374338Y-112984264D01*
X156363359Y-113008304D01*
X156355915Y-113033656D01*
X156349074Y-113039583D01*
X156345313Y-113047820D01*
X156323078Y-113062109D01*
X156303111Y-113079411D01*
X156292596Y-113081698D01*
X156286535Y-113085594D01*
X156251600Y-113090617D01*
X156250600Y-113090617D01*
X156183561Y-113070932D01*
X156137806Y-113018128D01*
X156126600Y-112966617D01*
X156126600Y-112345866D01*
X156126599Y-112345864D01*
X156114968Y-112287390D01*
X156114967Y-112287389D01*
X156114967Y-112287386D01*
X156096997Y-112260493D01*
X156093960Y-112250793D01*
X156087306Y-112243114D01*
X156083697Y-112218014D01*
X156076120Y-112193816D01*
X156076100Y-112191603D01*
X156076100Y-111932034D01*
X156093548Y-111868610D01*
X156377053Y-111392323D01*
X157959137Y-108734422D01*
X157980691Y-108683820D01*
X157998139Y-108620396D01*
X158000592Y-108602226D01*
X158005500Y-108565892D01*
X158005500Y-104151099D01*
X158003786Y-104137262D01*
X158003183Y-104132396D01*
X158014475Y-104063447D01*
X158020704Y-104052054D01*
X158071856Y-103969125D01*
X158127005Y-103802697D01*
X158127006Y-103802690D01*
X158137499Y-103699986D01*
X158137500Y-103699973D01*
X158137500Y-103575000D01*
X156861500Y-103575000D01*
X156794461Y-103555315D01*
X156748706Y-103502511D01*
X156737500Y-103451000D01*
X156737500Y-103325000D01*
X156611500Y-103325000D01*
X156544461Y-103305315D01*
X156498706Y-103252511D01*
X156487500Y-103201000D01*
X156487500Y-103075000D01*
X156987500Y-103075000D01*
X158137499Y-103075000D01*
X158137499Y-102950028D01*
X158137498Y-102950013D01*
X158127005Y-102847302D01*
X158071858Y-102680880D01*
X158071856Y-102680875D01*
X157979815Y-102531654D01*
X157855845Y-102407684D01*
X157706624Y-102315643D01*
X157706619Y-102315641D01*
X157540197Y-102260494D01*
X157540190Y-102260493D01*
X157437486Y-102250000D01*
X156987500Y-102250000D01*
X156987500Y-103075000D01*
X156487500Y-103075000D01*
X156487500Y-102250000D01*
X156037528Y-102250000D01*
X156037512Y-102250001D01*
X155934802Y-102260494D01*
X155768380Y-102315641D01*
X155768375Y-102315643D01*
X155619154Y-102407684D01*
X155495184Y-102531654D01*
X155403143Y-102680875D01*
X155403141Y-102680880D01*
X155347994Y-102847302D01*
X155347993Y-102847309D01*
X155337500Y-102950013D01*
X155337500Y-103070500D01*
X155317815Y-103137539D01*
X155265011Y-103183294D01*
X155213500Y-103194500D01*
X153423992Y-103194500D01*
X153380313Y-103199197D01*
X153328825Y-103210397D01*
X153318627Y-103212890D01*
X153318624Y-103212891D01*
X153237916Y-103255899D01*
X153237913Y-103255901D01*
X153185104Y-103301660D01*
X153167160Y-103319242D01*
X153167154Y-103319249D01*
X153144345Y-103360027D01*
X153094438Y-103408925D01*
X153026017Y-103423078D01*
X152981666Y-103410892D01*
X152981484Y-103410803D01*
X152981483Y-103410802D01*
X152876393Y-103359427D01*
X152876391Y-103359426D01*
X152808261Y-103349500D01*
X152808260Y-103349500D01*
X151716740Y-103349500D01*
X151716739Y-103349500D01*
X151648608Y-103359426D01*
X151543514Y-103410803D01*
X151460802Y-103493515D01*
X151454964Y-103505459D01*
X151407837Y-103557042D01*
X151343563Y-103575000D01*
X150387500Y-103575000D01*
X150387500Y-104399999D01*
X150837472Y-104399999D01*
X150837486Y-104399998D01*
X150940197Y-104389505D01*
X151106619Y-104334358D01*
X151106624Y-104334356D01*
X151255844Y-104242315D01*
X151288557Y-104209603D01*
X151349879Y-104176117D01*
X151419571Y-104181101D01*
X151463920Y-104209602D01*
X151543514Y-104289196D01*
X151543515Y-104289196D01*
X151543517Y-104289198D01*
X151648607Y-104340573D01*
X151682673Y-104345536D01*
X151716739Y-104350500D01*
X151716740Y-104350500D01*
X152808261Y-104350500D01*
X152842326Y-104345536D01*
X152876393Y-104340573D01*
X152916040Y-104321190D01*
X152984912Y-104309431D01*
X153049209Y-104336774D01*
X153088517Y-104394538D01*
X153094500Y-104432591D01*
X153094500Y-105167408D01*
X153074815Y-105234447D01*
X153022011Y-105280202D01*
X152952853Y-105290146D01*
X152916040Y-105278809D01*
X152876391Y-105259426D01*
X152808261Y-105249500D01*
X152808260Y-105249500D01*
X152579835Y-105249500D01*
X152517834Y-105232886D01*
X152484640Y-105213721D01*
X152484637Y-105213720D01*
X152484636Y-105213719D01*
X152484635Y-105213719D01*
X152338266Y-105174500D01*
X152186733Y-105174500D01*
X152040365Y-105213719D01*
X152040364Y-105213719D01*
X152040362Y-105213720D01*
X152040359Y-105213721D01*
X152007166Y-105232886D01*
X151945165Y-105249500D01*
X151716739Y-105249500D01*
X151648608Y-105259426D01*
X151543514Y-105310803D01*
X151460803Y-105393514D01*
X151409426Y-105498608D01*
X151399500Y-105566739D01*
X151399500Y-105575500D01*
X151396949Y-105584185D01*
X151398238Y-105593147D01*
X151387259Y-105617187D01*
X151379815Y-105642539D01*
X151372974Y-105648466D01*
X151369213Y-105656703D01*
X151346978Y-105670992D01*
X151327011Y-105688294D01*
X151316496Y-105690581D01*
X151310435Y-105694477D01*
X151275500Y-105699500D01*
X151225128Y-105699500D01*
X151158089Y-105679815D01*
X151125358Y-105649134D01*
X151124865Y-105648466D01*
X151109650Y-105627850D01*
X151000382Y-105547207D01*
X151000380Y-105547206D01*
X150872200Y-105502353D01*
X150841770Y-105499500D01*
X150841766Y-105499500D01*
X149433234Y-105499500D01*
X149433230Y-105499500D01*
X149402800Y-105502353D01*
X149402798Y-105502353D01*
X149274619Y-105547206D01*
X149274617Y-105547207D01*
X149165349Y-105627850D01*
X149159970Y-105635139D01*
X149136898Y-105652653D01*
X149115707Y-105672383D01*
X149109414Y-105673518D01*
X149104320Y-105677386D01*
X149075444Y-105679646D01*
X149046948Y-105684788D01*
X149038223Y-105682561D01*
X149034663Y-105682840D01*
X149012750Y-105676060D01*
X149008279Y-105674208D01*
X148980247Y-105658023D01*
X148950834Y-105635454D01*
X148938638Y-105624758D01*
X148919278Y-105605398D01*
X148895029Y-105581148D01*
X148895028Y-105581147D01*
X148890704Y-105576823D01*
X148890693Y-105576813D01*
X148653367Y-105339487D01*
X148653365Y-105339485D01*
X148587750Y-105301602D01*
X148522136Y-105263719D01*
X148448950Y-105244109D01*
X148375766Y-105224500D01*
X148224234Y-105224500D01*
X148077863Y-105263719D01*
X147946635Y-105339485D01*
X147946632Y-105339487D01*
X147937181Y-105348939D01*
X147875858Y-105382424D01*
X147806166Y-105377440D01*
X147750233Y-105335568D01*
X147725816Y-105270104D01*
X147725500Y-105261258D01*
X147725500Y-103699986D01*
X148737501Y-103699986D01*
X148747994Y-103802697D01*
X148803141Y-103969119D01*
X148803143Y-103969124D01*
X148895184Y-104118345D01*
X149019154Y-104242315D01*
X149168375Y-104334356D01*
X149168380Y-104334358D01*
X149334802Y-104389505D01*
X149334809Y-104389506D01*
X149437519Y-104399999D01*
X149887499Y-104399999D01*
X149887500Y-104399998D01*
X149887500Y-103575000D01*
X148737501Y-103575000D01*
X148737501Y-103699986D01*
X147725500Y-103699986D01*
X147725500Y-102950013D01*
X148737500Y-102950013D01*
X148737500Y-103075000D01*
X149887500Y-103075000D01*
X150387500Y-103075000D01*
X151537499Y-103075000D01*
X151537499Y-102950028D01*
X151537498Y-102950013D01*
X151527005Y-102847302D01*
X151471858Y-102680880D01*
X151471856Y-102680875D01*
X151379815Y-102531654D01*
X151255845Y-102407684D01*
X151106624Y-102315643D01*
X151106619Y-102315641D01*
X150940197Y-102260494D01*
X150940190Y-102260493D01*
X150837486Y-102250000D01*
X150387500Y-102250000D01*
X150387500Y-103075000D01*
X149887500Y-103075000D01*
X149887500Y-102250000D01*
X149437528Y-102250000D01*
X149437512Y-102250001D01*
X149334802Y-102260494D01*
X149168380Y-102315641D01*
X149168375Y-102315643D01*
X149019154Y-102407684D01*
X148895184Y-102531654D01*
X148803143Y-102680875D01*
X148803141Y-102680880D01*
X148747994Y-102847302D01*
X148747993Y-102847309D01*
X148737500Y-102950013D01*
X147725500Y-102950013D01*
X147725500Y-101030373D01*
X147726097Y-101018216D01*
X147734218Y-100935786D01*
X147737734Y-100900099D01*
X147742474Y-100876272D01*
X147775156Y-100768543D01*
X147784451Y-100746104D01*
X147837517Y-100646828D01*
X147851011Y-100626631D01*
X147926427Y-100534739D01*
X147934578Y-100525748D01*
X147973511Y-100486817D01*
X148034835Y-100453333D01*
X148051249Y-100451568D01*
X148051249Y-100451561D01*
X148059305Y-100450500D01*
X148059309Y-100450500D01*
X148173886Y-100419799D01*
X148276613Y-100360489D01*
X148360489Y-100276613D01*
X148419799Y-100173886D01*
X148450500Y-100059309D01*
X148450500Y-99940691D01*
X148419799Y-99826114D01*
X148360489Y-99723387D01*
X148276613Y-99639511D01*
X148173886Y-99580201D01*
X148059309Y-99549500D01*
X147940691Y-99549500D01*
X147826114Y-99580201D01*
X147826112Y-99580201D01*
X147826112Y-99580202D01*
X147723387Y-99639511D01*
X147723384Y-99639513D01*
X147639513Y-99723384D01*
X147639511Y-99723387D01*
X147580202Y-99826112D01*
X147549499Y-99940694D01*
X147548439Y-99948751D01*
X147546650Y-99948515D01*
X147540858Y-99968240D01*
X147534340Y-99998223D01*
X147530578Y-100003247D01*
X147529815Y-100005849D01*
X147513192Y-100026480D01*
X147509029Y-100030643D01*
X147439535Y-100100138D01*
X147439509Y-100100179D01*
X147434097Y-100105594D01*
X147434090Y-100105603D01*
X147407288Y-100132407D01*
X147407284Y-100132411D01*
X147299583Y-100272768D01*
X147299581Y-100272772D01*
X147214695Y-100419797D01*
X147211112Y-100426002D01*
X147211109Y-100426007D01*
X147143405Y-100589450D01*
X147143399Y-100589466D01*
X147097604Y-100760360D01*
X147097602Y-100760368D01*
X147074502Y-100935786D01*
X147074501Y-100976279D01*
X147074501Y-100981405D01*
X147074500Y-100981411D01*
X147074500Y-101018216D01*
X147074500Y-101024255D01*
X147074499Y-101085794D01*
X147074500Y-101085807D01*
X147074500Y-107048681D01*
X147074234Y-107056795D01*
X147062863Y-107230203D01*
X147060746Y-107246282D01*
X147027633Y-107412741D01*
X147023435Y-107428408D01*
X146968878Y-107589119D01*
X146962671Y-107604104D01*
X146887604Y-107756320D01*
X146879494Y-107770367D01*
X146785198Y-107911488D01*
X146775324Y-107924355D01*
X146663330Y-108052059D01*
X146651861Y-108063528D01*
X146524363Y-108175341D01*
X146511495Y-108185215D01*
X146370379Y-108279507D01*
X146356333Y-108287617D01*
X146204111Y-108362687D01*
X146189126Y-108368894D01*
X146028413Y-108423451D01*
X146012746Y-108427649D01*
X145846282Y-108460764D01*
X145830203Y-108462881D01*
X145669843Y-108473396D01*
X145657068Y-108474234D01*
X145648957Y-108474500D01*
X144041273Y-108474500D01*
X144031544Y-108474118D01*
X144018542Y-108473094D01*
X143856697Y-108460356D01*
X143837480Y-108457312D01*
X143671699Y-108417512D01*
X143653196Y-108411500D01*
X143566970Y-108375784D01*
X143495675Y-108346252D01*
X143478340Y-108337419D01*
X143397070Y-108287617D01*
X143332967Y-108248334D01*
X143317231Y-108236901D01*
X143183857Y-108122989D01*
X143176707Y-108116380D01*
X143175666Y-108115339D01*
X143142181Y-108054016D01*
X143147165Y-107984324D01*
X143188895Y-107928497D01*
X143209809Y-107912794D01*
X143209809Y-107912793D01*
X143709809Y-107912793D01*
X143849003Y-107872354D01*
X143987094Y-107790688D01*
X143987103Y-107790681D01*
X144100540Y-107677244D01*
X144100547Y-107677235D01*
X144182215Y-107539141D01*
X144182216Y-107539138D01*
X144226975Y-107385078D01*
X144226976Y-107385072D01*
X144229740Y-107349950D01*
X143709809Y-107349950D01*
X143709809Y-107912793D01*
X143209809Y-107912793D01*
X143209809Y-107223950D01*
X143229494Y-107156911D01*
X143282298Y-107111156D01*
X143333809Y-107099950D01*
X143459809Y-107099950D01*
X143459809Y-106973950D01*
X143479494Y-106906911D01*
X143532298Y-106861156D01*
X143583809Y-106849950D01*
X144229740Y-106849950D01*
X144226976Y-106814827D01*
X144226975Y-106814821D01*
X144182216Y-106660761D01*
X144182216Y-106660760D01*
X144164272Y-106630419D01*
X144159058Y-106609871D01*
X144149300Y-106591054D01*
X144150637Y-106576684D01*
X144147088Y-106562695D01*
X144153811Y-106542589D01*
X144155776Y-106521485D01*
X144164669Y-106510120D01*
X144169247Y-106496432D01*
X144185772Y-106483153D01*
X144198835Y-106466461D01*
X144212460Y-106461708D01*
X144223712Y-106452668D01*
X144244793Y-106450431D01*
X144264807Y-106443451D01*
X144289195Y-106445721D01*
X144293192Y-106445297D01*
X144299949Y-106446722D01*
X144324717Y-106452668D01*
X144369259Y-106463361D01*
X144387760Y-106469372D01*
X144488777Y-106511214D01*
X144506099Y-106520040D01*
X144599336Y-106577174D01*
X144615072Y-106588607D01*
X144699554Y-106660760D01*
X144701867Y-106662735D01*
X144709018Y-106669345D01*
X144913181Y-106873508D01*
X144946666Y-106934831D01*
X144949500Y-106961189D01*
X144949500Y-107059309D01*
X144980201Y-107173886D01*
X145039511Y-107276613D01*
X145123387Y-107360489D01*
X145226114Y-107419799D01*
X145340691Y-107450500D01*
X145340694Y-107450500D01*
X145459306Y-107450500D01*
X145459309Y-107450500D01*
X145573886Y-107419799D01*
X145676613Y-107360489D01*
X145760489Y-107276613D01*
X145819799Y-107173886D01*
X145850500Y-107059309D01*
X145850500Y-106940691D01*
X145819799Y-106826114D01*
X145760489Y-106723387D01*
X145676613Y-106639511D01*
X145573886Y-106580201D01*
X145560407Y-106576589D01*
X145504823Y-106544496D01*
X145209460Y-106249133D01*
X145202255Y-106241926D01*
X145202245Y-106241908D01*
X145097725Y-106137391D01*
X145097721Y-106137387D01*
X144944627Y-106019918D01*
X144944626Y-106019917D01*
X144944623Y-106019915D01*
X144777502Y-105923430D01*
X144777496Y-105923427D01*
X144777489Y-105923424D01*
X144599232Y-105849588D01*
X144599220Y-105849584D01*
X144599217Y-105849583D01*
X144546499Y-105835457D01*
X144412828Y-105799641D01*
X144412816Y-105799638D01*
X144348918Y-105791226D01*
X144285021Y-105762959D01*
X144246551Y-105704634D01*
X144245720Y-105634769D01*
X144252310Y-105616775D01*
X144269303Y-105579565D01*
X144269304Y-105579562D01*
X144289759Y-105437286D01*
X144289760Y-105437285D01*
X144289760Y-104137262D01*
X144289759Y-104137259D01*
X144284619Y-104065391D01*
X144244125Y-103927480D01*
X144166414Y-103806558D01*
X144057783Y-103712429D01*
X144057783Y-103712428D01*
X144048056Y-103707986D01*
X144034583Y-103696311D01*
X144018368Y-103688906D01*
X144008728Y-103673906D01*
X143995253Y-103662229D01*
X143990230Y-103645123D01*
X143980594Y-103630128D01*
X143975571Y-103595193D01*
X143975571Y-103439324D01*
X143995256Y-103372285D01*
X144030395Y-103341836D01*
X144030260Y-103341657D01*
X144032825Y-103339730D01*
X144048060Y-103326530D01*
X144050963Y-103326112D01*
X144079809Y-103304454D01*
X144079809Y-103304453D01*
X144579809Y-103304453D01*
X144726004Y-103261981D01*
X144865183Y-103179671D01*
X144865192Y-103179664D01*
X144979523Y-103065333D01*
X144979530Y-103065324D01*
X145061840Y-102926145D01*
X145061842Y-102926140D01*
X145106953Y-102770868D01*
X145106954Y-102770862D01*
X145108599Y-102749950D01*
X144579809Y-102749950D01*
X144579809Y-103304453D01*
X144079809Y-103304453D01*
X144079809Y-101695444D01*
X144579809Y-101695444D01*
X144579809Y-102249950D01*
X145108599Y-102249950D01*
X145106954Y-102229039D01*
X145061840Y-102073754D01*
X144979530Y-101934575D01*
X144979523Y-101934566D01*
X144865192Y-101820235D01*
X144865183Y-101820228D01*
X144726002Y-101737917D01*
X144725999Y-101737915D01*
X144579810Y-101695443D01*
X144579809Y-101695444D01*
X144079809Y-101695444D01*
X144079807Y-101695443D01*
X143977801Y-101725079D01*
X143907931Y-101724880D01*
X143849261Y-101686938D01*
X143820418Y-101623299D01*
X143820267Y-101589814D01*
X143820307Y-101589504D01*
X143820309Y-101589500D01*
X143820309Y-101470882D01*
X143789608Y-101356305D01*
X143730298Y-101253578D01*
X143646422Y-101169702D01*
X143614951Y-101151532D01*
X143566737Y-101100966D01*
X143553513Y-101032359D01*
X143579481Y-100967495D01*
X143589263Y-100956473D01*
X146041855Y-98503881D01*
X146047743Y-98498366D01*
X146198289Y-98366342D01*
X146211139Y-98356482D01*
X146374224Y-98247514D01*
X146388234Y-98239425D01*
X146564147Y-98152676D01*
X146579109Y-98146478D01*
X146764832Y-98083435D01*
X146780490Y-98079241D01*
X146972834Y-98040982D01*
X146988889Y-98038867D01*
X147188818Y-98025764D01*
X147196919Y-98025500D01*
X147244259Y-98025500D01*
X147637036Y-98025500D01*
X147704075Y-98045185D01*
X147716935Y-98055548D01*
X147716941Y-98055542D01*
X147723382Y-98060484D01*
X147723387Y-98060489D01*
X147826114Y-98119799D01*
X147940691Y-98150500D01*
X147940694Y-98150500D01*
X148059306Y-98150500D01*
X148059309Y-98150500D01*
X148173886Y-98119799D01*
X148276613Y-98060489D01*
X148360489Y-97976613D01*
X148419799Y-97873886D01*
X148450500Y-97759309D01*
X148450500Y-97640691D01*
X148419799Y-97526114D01*
X148360489Y-97423387D01*
X148276613Y-97339511D01*
X148173886Y-97280201D01*
X148059309Y-97249500D01*
X147940691Y-97249500D01*
X147826114Y-97280201D01*
X147826112Y-97280201D01*
X147826112Y-97280202D01*
X147723387Y-97339511D01*
X147716941Y-97344458D01*
X147715842Y-97343026D01*
X147663394Y-97371666D01*
X147637036Y-97374500D01*
X147142523Y-97374500D01*
X147142372Y-97374509D01*
X147064968Y-97374509D01*
X146811132Y-97403108D01*
X146811115Y-97403111D01*
X146562065Y-97459954D01*
X146562059Y-97459956D01*
X146320938Y-97544326D01*
X146320932Y-97544329D01*
X146090766Y-97655169D01*
X146090761Y-97655171D01*
X146090761Y-97655172D01*
X145874463Y-97791078D01*
X145874454Y-97791084D01*
X145674728Y-97950358D01*
X145614707Y-98010378D01*
X142502960Y-101122122D01*
X142502680Y-101122441D01*
X142474797Y-101150322D01*
X142364597Y-101293926D01*
X142274080Y-101450693D01*
X142274079Y-101450696D01*
X142204801Y-101617933D01*
X142169729Y-101748806D01*
X142133361Y-101808465D01*
X142070513Y-101838992D01*
X142001138Y-101830694D01*
X141974367Y-101812574D01*
X141973264Y-101813997D01*
X141967094Y-101809211D01*
X141829000Y-101727543D01*
X141828997Y-101727541D01*
X141689810Y-101687103D01*
X141689809Y-101687104D01*
X141689809Y-103374994D01*
X142025936Y-103374994D01*
X142034621Y-103377544D01*
X142043583Y-103376256D01*
X142067623Y-103387234D01*
X142092975Y-103394679D01*
X142098902Y-103401519D01*
X142107139Y-103405281D01*
X142121428Y-103427515D01*
X142138730Y-103447483D01*
X142141017Y-103457997D01*
X142144913Y-103464059D01*
X142149936Y-103498994D01*
X142149936Y-103501006D01*
X142130251Y-103568045D01*
X142077447Y-103613800D01*
X142025936Y-103625006D01*
X141524929Y-103625006D01*
X141524929Y-103897825D01*
X141524930Y-103897844D01*
X141525040Y-103898869D01*
X141524997Y-103899104D01*
X141525107Y-103901150D01*
X141524623Y-103901175D01*
X141523531Y-103907223D01*
X141525703Y-103915428D01*
X141514544Y-103963610D01*
X141500215Y-103994986D01*
X141479760Y-104137263D01*
X141479760Y-104254428D01*
X141460075Y-104321467D01*
X141407271Y-104367222D01*
X141338113Y-104377166D01*
X141274557Y-104348141D01*
X141236783Y-104289363D01*
X141235985Y-104286522D01*
X141219799Y-104226114D01*
X141160489Y-104123387D01*
X141160484Y-104123382D01*
X141155542Y-104116941D01*
X141156973Y-104115842D01*
X141154576Y-104111452D01*
X141143424Y-104101253D01*
X141138171Y-104081409D01*
X141128334Y-104063394D01*
X141125500Y-104037036D01*
X141125500Y-103423038D01*
X141145185Y-103355999D01*
X141175049Y-103323876D01*
X141189809Y-103312794D01*
X141189809Y-101687103D01*
X141175048Y-101676021D01*
X141133257Y-101620028D01*
X141125500Y-101576860D01*
X141125500Y-97505561D01*
X141125695Y-97498608D01*
X141132665Y-97374509D01*
X141141313Y-97220540D01*
X141142867Y-97206742D01*
X141188936Y-96935607D01*
X141192030Y-96922052D01*
X141268170Y-96657768D01*
X141272752Y-96644672D01*
X141378007Y-96390569D01*
X141384026Y-96378069D01*
X141517072Y-96137341D01*
X141524460Y-96125586D01*
X141683611Y-95901284D01*
X141692270Y-95890427D01*
X141736649Y-95840768D01*
X141877960Y-95682641D01*
X141882720Y-95677605D01*
X142241359Y-95318965D01*
X142302682Y-95285481D01*
X142353231Y-95285030D01*
X142431002Y-95300499D01*
X142431005Y-95300500D01*
X142431007Y-95300500D01*
X142568995Y-95300500D01*
X142660041Y-95282389D01*
X142704328Y-95273580D01*
X142821782Y-95224929D01*
X142831804Y-95220778D01*
X142831804Y-95220777D01*
X142831811Y-95220775D01*
X142946542Y-95144114D01*
X143044114Y-95046542D01*
X143120775Y-94931811D01*
X143173580Y-94804328D01*
X143184901Y-94747416D01*
X143200500Y-94668995D01*
X143200500Y-94531004D01*
X143173581Y-94395677D01*
X143173580Y-94395676D01*
X143173580Y-94395672D01*
X143173578Y-94395667D01*
X143120778Y-94268195D01*
X143120771Y-94268182D01*
X143044114Y-94153458D01*
X143044111Y-94153454D01*
X142946545Y-94055888D01*
X142946541Y-94055885D01*
X142831817Y-93979228D01*
X142831804Y-93979221D01*
X142704332Y-93926421D01*
X142704322Y-93926418D01*
X142568995Y-93899500D01*
X142568993Y-93899500D01*
X142431007Y-93899500D01*
X142431005Y-93899500D01*
X142295677Y-93926418D01*
X142295667Y-93926421D01*
X142168195Y-93979221D01*
X142168182Y-93979228D01*
X142053458Y-94055885D01*
X142053454Y-94055888D01*
X141955888Y-94153454D01*
X141955885Y-94153458D01*
X141879228Y-94268182D01*
X141879221Y-94268195D01*
X141826421Y-94395667D01*
X141826418Y-94395677D01*
X141799500Y-94531004D01*
X141799500Y-94531007D01*
X141799500Y-94668993D01*
X141800517Y-94674107D01*
X141814970Y-94746768D01*
X141808742Y-94816359D01*
X141781033Y-94858639D01*
X141384463Y-95255208D01*
X141384365Y-95255318D01*
X141307718Y-95331967D01*
X141106548Y-95577093D01*
X141106538Y-95577107D01*
X140930364Y-95840768D01*
X140930353Y-95840786D01*
X140780873Y-96120443D01*
X140780871Y-96120448D01*
X140659510Y-96413436D01*
X140567459Y-96716881D01*
X140567454Y-96716902D01*
X140505589Y-97027912D01*
X140505587Y-97027924D01*
X140496903Y-97116092D01*
X140470741Y-97180879D01*
X140413706Y-97221238D01*
X140343906Y-97224354D01*
X140283502Y-97189238D01*
X140251671Y-97127041D01*
X140249500Y-97103937D01*
X140249500Y-95337723D01*
X140269185Y-95270684D01*
X140321989Y-95224929D01*
X140326005Y-95223179D01*
X140331811Y-95220775D01*
X140446542Y-95144114D01*
X140544114Y-95046542D01*
X140620775Y-94931811D01*
X140673580Y-94804328D01*
X140684901Y-94747416D01*
X140700500Y-94668995D01*
X140700500Y-94531004D01*
X140673581Y-94395677D01*
X140673580Y-94395676D01*
X140673580Y-94395672D01*
X140673578Y-94395667D01*
X140620778Y-94268195D01*
X140620771Y-94268182D01*
X140544114Y-94153458D01*
X140544111Y-94153454D01*
X140446545Y-94055888D01*
X140446541Y-94055885D01*
X140331817Y-93979228D01*
X140331804Y-93979221D01*
X140204332Y-93926421D01*
X140204322Y-93926418D01*
X140068995Y-93899500D01*
X140068993Y-93899500D01*
X139931007Y-93899500D01*
X139931005Y-93899500D01*
X139795677Y-93926418D01*
X139795667Y-93926421D01*
X139668195Y-93979221D01*
X139668182Y-93979228D01*
X139553458Y-94055885D01*
X139553454Y-94055888D01*
X139455888Y-94153454D01*
X139455885Y-94153458D01*
X139379228Y-94268182D01*
X139379221Y-94268195D01*
X139326421Y-94395667D01*
X139326418Y-94395677D01*
X139299500Y-94531004D01*
X139299500Y-94531007D01*
X139299500Y-94668993D01*
X139299500Y-94668995D01*
X139299499Y-94668995D01*
X139326418Y-94804322D01*
X139326421Y-94804332D01*
X139379221Y-94931804D01*
X139379228Y-94931817D01*
X139455885Y-95046541D01*
X139455888Y-95046545D01*
X139557765Y-95148422D01*
X139556871Y-95149315D01*
X139592499Y-95201618D01*
X139598500Y-95239727D01*
X139598500Y-104168107D01*
X139598521Y-104168445D01*
X139598521Y-104247000D01*
X139627543Y-104504600D01*
X139627544Y-104504607D01*
X139685223Y-104757327D01*
X139685228Y-104757342D01*
X139770842Y-105002023D01*
X139883311Y-105235579D01*
X139883317Y-105235590D01*
X140021235Y-105455092D01*
X140021239Y-105455097D01*
X140021243Y-105455103D01*
X140182862Y-105657773D01*
X140238833Y-105713746D01*
X140238850Y-105713765D01*
X140244215Y-105719130D01*
X140244216Y-105719131D01*
X140509117Y-105984031D01*
X140509119Y-105984032D01*
X140514783Y-105989696D01*
X140515178Y-105990042D01*
X140553467Y-106028334D01*
X140553473Y-106028339D01*
X140720952Y-106156860D01*
X140720955Y-106156862D01*
X140720962Y-106156867D01*
X140868246Y-106241908D01*
X140903791Y-106262432D01*
X140903801Y-106262437D01*
X141098834Y-106343230D01*
X141098837Y-106343230D01*
X141098840Y-106343232D01*
X141302764Y-106397882D01*
X141316251Y-106399658D01*
X141380148Y-106427923D01*
X141418620Y-106486247D01*
X141419453Y-106556112D01*
X141418001Y-106560908D01*
X141401416Y-106611960D01*
X141401414Y-106611966D01*
X141374495Y-106781983D01*
X141374500Y-106864667D01*
X141374500Y-107215802D01*
X141374499Y-107223564D01*
X141374457Y-107223706D01*
X141374460Y-107391536D01*
X141400573Y-107623237D01*
X141400576Y-107623252D01*
X141452462Y-107850551D01*
X141452467Y-107850568D01*
X141529479Y-108070632D01*
X141529485Y-108070647D01*
X141630650Y-108280702D01*
X141754711Y-108478132D01*
X141798866Y-108533497D01*
X141900097Y-108660428D01*
X141952226Y-108712553D01*
X141952228Y-108712555D01*
X141952230Y-108712557D01*
X142205733Y-108966059D01*
X142205967Y-108966264D01*
X142277681Y-109037979D01*
X142516132Y-109228138D01*
X142774373Y-109390404D01*
X143049159Y-109522737D01*
X143337033Y-109623472D01*
X143634375Y-109691344D01*
X143881702Y-109719215D01*
X143937445Y-109725497D01*
X143937451Y-109725497D01*
X144047092Y-109725499D01*
X144047096Y-109725500D01*
X144089942Y-109725500D01*
X144141496Y-109725501D01*
X144141499Y-109725500D01*
X145487790Y-109725500D01*
X145487966Y-109725500D01*
X145488023Y-109725516D01*
X145539344Y-109725515D01*
X145539344Y-109725516D01*
X145681132Y-109725514D01*
X145963342Y-109697715D01*
X146241468Y-109642389D01*
X146365598Y-109604733D01*
X146512825Y-109560072D01*
X146512830Y-109560069D01*
X146512833Y-109560069D01*
X146774822Y-109451547D01*
X147024913Y-109317869D01*
X147260697Y-109160321D01*
X147479904Y-108980422D01*
X147539653Y-108920672D01*
X147539656Y-108920670D01*
X147549860Y-108910465D01*
X147549862Y-108910465D01*
X148073508Y-108386819D01*
X148134831Y-108353334D01*
X148151250Y-108351568D01*
X148151249Y-108351561D01*
X148159305Y-108350500D01*
X148159309Y-108350500D01*
X148273886Y-108319799D01*
X148376613Y-108260489D01*
X148460489Y-108176613D01*
X148519799Y-108073886D01*
X148550500Y-107959309D01*
X148550500Y-107840691D01*
X148519799Y-107726114D01*
X148460489Y-107623387D01*
X148376613Y-107539511D01*
X148273886Y-107480201D01*
X148159309Y-107449500D01*
X148040691Y-107449500D01*
X147926114Y-107480201D01*
X147926113Y-107480201D01*
X147926111Y-107480202D01*
X147886769Y-107502916D01*
X147818869Y-107519387D01*
X147752842Y-107496535D01*
X147709652Y-107441613D01*
X147701550Y-107381645D01*
X147725497Y-107169158D01*
X147725498Y-107095604D01*
X147725500Y-107095600D01*
X147725500Y-107032979D01*
X147725501Y-107001202D01*
X147725500Y-107001198D01*
X147725500Y-106338742D01*
X147731738Y-106317496D01*
X147733318Y-106295408D01*
X147741390Y-106284624D01*
X147745185Y-106271703D01*
X147761918Y-106257203D01*
X147775190Y-106239475D01*
X147787810Y-106234767D01*
X147797989Y-106225948D01*
X147819906Y-106222796D01*
X147840654Y-106215058D01*
X147853814Y-106217920D01*
X147867147Y-106216004D01*
X147887290Y-106225203D01*
X147908927Y-106229910D01*
X147926652Y-106243178D01*
X147930703Y-106245029D01*
X147937181Y-106251061D01*
X148076813Y-106390693D01*
X148076823Y-106390704D01*
X148081147Y-106395028D01*
X148081148Y-106395029D01*
X148105906Y-106419786D01*
X148130560Y-106444440D01*
X148189854Y-106503734D01*
X148189964Y-106503830D01*
X148194819Y-106508685D01*
X148288019Y-106580201D01*
X148338996Y-106619317D01*
X148339001Y-106619320D01*
X148339009Y-106619325D01*
X148496369Y-106710180D01*
X148496391Y-106710191D01*
X148664276Y-106779733D01*
X148839807Y-106826770D01*
X148839810Y-106826770D01*
X148839815Y-106826772D01*
X149019991Y-106850498D01*
X149026465Y-106850498D01*
X149035104Y-106850498D01*
X149035109Y-106850500D01*
X149049883Y-106850500D01*
X149088636Y-106861882D01*
X149116911Y-106870185D01*
X149116914Y-106870188D01*
X149116920Y-106870190D01*
X149116935Y-106870208D01*
X149149641Y-106900865D01*
X149165350Y-106922150D01*
X149274618Y-107002793D01*
X149317345Y-107017744D01*
X149402799Y-107047646D01*
X149433230Y-107050500D01*
X149433234Y-107050500D01*
X150841770Y-107050500D01*
X150872199Y-107047646D01*
X150872201Y-107047646D01*
X150936290Y-107025219D01*
X151000382Y-107002793D01*
X151109650Y-106922150D01*
X151125358Y-106900865D01*
X151129336Y-106897845D01*
X151131411Y-106893302D01*
X151156883Y-106876930D01*
X151181006Y-106858615D01*
X151187132Y-106857487D01*
X151190187Y-106855525D01*
X151225100Y-106850503D01*
X151225122Y-106850500D01*
X151366247Y-106850500D01*
X151442034Y-106850500D01*
X151442071Y-106850489D01*
X151446371Y-106850489D01*
X151462711Y-106850490D01*
X151653989Y-106825314D01*
X151840344Y-106775385D01*
X152018588Y-106701558D01*
X152185669Y-106605096D01*
X152338730Y-106487650D01*
X152406940Y-106419440D01*
X152456352Y-106370029D01*
X152456353Y-106370026D01*
X152499727Y-106326651D01*
X152539563Y-106286818D01*
X152600887Y-106253333D01*
X152627243Y-106250500D01*
X152808261Y-106250500D01*
X152845810Y-106245029D01*
X152876393Y-106240573D01*
X152916040Y-106221190D01*
X152984912Y-106209431D01*
X153049209Y-106236774D01*
X153088517Y-106294538D01*
X153094500Y-106332591D01*
X153094500Y-112043591D01*
X153074815Y-112110630D01*
X153022011Y-112156385D01*
X152952853Y-112166329D01*
X152946312Y-112165209D01*
X152945849Y-112165117D01*
X152945848Y-112165117D01*
X152556352Y-112165117D01*
X152556351Y-112165117D01*
X152525288Y-112171295D01*
X152476912Y-112171295D01*
X152445849Y-112165117D01*
X152445848Y-112165117D01*
X152056352Y-112165117D01*
X152056347Y-112165117D01*
X151997870Y-112176748D01*
X151997870Y-112176749D01*
X151969490Y-112195712D01*
X151902813Y-112216589D01*
X151835433Y-112198104D01*
X151788743Y-112146125D01*
X151776600Y-112092609D01*
X151776600Y-111392323D01*
X151776599Y-111392319D01*
X151743981Y-111249411D01*
X151680379Y-111117340D01*
X151667532Y-111101231D01*
X151654618Y-111085037D01*
X151588983Y-111002734D01*
X151523346Y-110950390D01*
X151474379Y-110911339D01*
X151474376Y-110911337D01*
X151342309Y-110847737D01*
X151342307Y-110847736D01*
X151342306Y-110847736D01*
X151297254Y-110837453D01*
X151199397Y-110815117D01*
X151199394Y-110815117D01*
X151052806Y-110815117D01*
X151052802Y-110815117D01*
X150909890Y-110847737D01*
X150777823Y-110911337D01*
X150777820Y-110911339D01*
X150663217Y-111002734D01*
X150571822Y-111117337D01*
X150571820Y-111117340D01*
X150508220Y-111249407D01*
X150475600Y-111392319D01*
X150475600Y-111904670D01*
X150455915Y-111971709D01*
X150403111Y-112017464D01*
X150333953Y-112027408D01*
X150277289Y-112003936D01*
X150168193Y-111922266D01*
X150168186Y-111922262D01*
X150033479Y-111872020D01*
X150033472Y-111872018D01*
X149973944Y-111865617D01*
X149926100Y-111865617D01*
X149926100Y-112966617D01*
X149923549Y-112975302D01*
X149924838Y-112984264D01*
X149913859Y-113008304D01*
X149906415Y-113033656D01*
X149899574Y-113039583D01*
X149895813Y-113047820D01*
X149873578Y-113062109D01*
X149853611Y-113079411D01*
X149843096Y-113081698D01*
X149837035Y-113085594D01*
X149802100Y-113090617D01*
X149750600Y-113090617D01*
X149683561Y-113070932D01*
X149637806Y-113018128D01*
X149626600Y-112966617D01*
X149626600Y-112345866D01*
X149626599Y-112345864D01*
X149614968Y-112287390D01*
X149614967Y-112287389D01*
X149614967Y-112287386D01*
X149596997Y-112260493D01*
X149576120Y-112193816D01*
X149576100Y-112191603D01*
X149576100Y-111865617D01*
X149528255Y-111865617D01*
X149468727Y-111872018D01*
X149468720Y-111872020D01*
X149334013Y-111922262D01*
X149334006Y-111922266D01*
X149218912Y-112008426D01*
X149137956Y-112116568D01*
X149115880Y-112133092D01*
X149096007Y-112152214D01*
X149086583Y-112155023D01*
X149082022Y-112158438D01*
X149062706Y-112163908D01*
X149056582Y-112165117D01*
X149056352Y-112165117D01*
X149025824Y-112171189D01*
X149025116Y-112171329D01*
X149024742Y-112171295D01*
X148976912Y-112171295D01*
X148939876Y-112163929D01*
X148940408Y-112161253D01*
X148886509Y-112139452D01*
X148864243Y-112116567D01*
X148783290Y-112008429D01*
X148783287Y-112008426D01*
X148668193Y-111922266D01*
X148668186Y-111922262D01*
X148533479Y-111872020D01*
X148533472Y-111872018D01*
X148473944Y-111865617D01*
X148426100Y-111865617D01*
X148426100Y-112191603D01*
X148423549Y-112200288D01*
X148424838Y-112209250D01*
X148408065Y-112253021D01*
X148406415Y-112258642D01*
X148405661Y-112259294D01*
X148405202Y-112260494D01*
X148387233Y-112287386D01*
X148387231Y-112287390D01*
X148375600Y-112345864D01*
X148375600Y-113141617D01*
X148373049Y-113150302D01*
X148374338Y-113159264D01*
X148363359Y-113183304D01*
X148355915Y-113208656D01*
X148349074Y-113214583D01*
X148345313Y-113222820D01*
X148323078Y-113237109D01*
X148303111Y-113254411D01*
X148292596Y-113256698D01*
X148286535Y-113260594D01*
X148251600Y-113265617D01*
X148250600Y-113265617D01*
X148183561Y-113245932D01*
X148137806Y-113193128D01*
X148126600Y-113141617D01*
X148126600Y-112345866D01*
X148126599Y-112345864D01*
X148114968Y-112287390D01*
X148114967Y-112287389D01*
X148114967Y-112287386D01*
X148096997Y-112260493D01*
X148093960Y-112250793D01*
X148087306Y-112243114D01*
X148083697Y-112218014D01*
X148076120Y-112193816D01*
X148076100Y-112191603D01*
X148076100Y-111865617D01*
X148028255Y-111865617D01*
X147968727Y-111872018D01*
X147968720Y-111872020D01*
X147834013Y-111922262D01*
X147834006Y-111922266D01*
X147718912Y-112008426D01*
X147637956Y-112116568D01*
X147615880Y-112133092D01*
X147596007Y-112152214D01*
X147586583Y-112155023D01*
X147582022Y-112158438D01*
X147562706Y-112163908D01*
X147556582Y-112165117D01*
X147556352Y-112165117D01*
X147525824Y-112171189D01*
X147525116Y-112171329D01*
X147524742Y-112171295D01*
X147476912Y-112171295D01*
X147439876Y-112163929D01*
X147440408Y-112161253D01*
X147386509Y-112139452D01*
X147364243Y-112116567D01*
X147283290Y-112008429D01*
X147283287Y-112008426D01*
X147168193Y-111922266D01*
X147168186Y-111922262D01*
X147033479Y-111872020D01*
X147033472Y-111872018D01*
X146973944Y-111865617D01*
X146926100Y-111865617D01*
X146926100Y-112191603D01*
X146923549Y-112200288D01*
X146924838Y-112209250D01*
X146908065Y-112253021D01*
X146906415Y-112258642D01*
X146905661Y-112259294D01*
X146905202Y-112260494D01*
X146887233Y-112287386D01*
X146887231Y-112287390D01*
X146875600Y-112345864D01*
X146875600Y-112966617D01*
X146873049Y-112975302D01*
X146874338Y-112984264D01*
X146863359Y-113008304D01*
X146855915Y-113033656D01*
X146849074Y-113039583D01*
X146845313Y-113047820D01*
X146823078Y-113062109D01*
X146803111Y-113079411D01*
X146792596Y-113081698D01*
X146786535Y-113085594D01*
X146751600Y-113090617D01*
X146750600Y-113090617D01*
X146683561Y-113070932D01*
X146637806Y-113018128D01*
X146626600Y-112966617D01*
X146626600Y-112345866D01*
X146626599Y-112345864D01*
X146614968Y-112287390D01*
X146614967Y-112287389D01*
X146614967Y-112287386D01*
X146596997Y-112260493D01*
X146593960Y-112250793D01*
X146587306Y-112243114D01*
X146583697Y-112218014D01*
X146576120Y-112193816D01*
X146576100Y-112191603D01*
X146576100Y-111865617D01*
X146528255Y-111865617D01*
X146468727Y-111872018D01*
X146468720Y-111872020D01*
X146334013Y-111922262D01*
X146334006Y-111922266D01*
X146218912Y-112008426D01*
X146137956Y-112116568D01*
X146115880Y-112133092D01*
X146096007Y-112152214D01*
X146086583Y-112155023D01*
X146082022Y-112158438D01*
X146062706Y-112163908D01*
X146056582Y-112165117D01*
X146056352Y-112165117D01*
X146025824Y-112171189D01*
X146025116Y-112171329D01*
X146024742Y-112171295D01*
X145976912Y-112171295D01*
X145945849Y-112165117D01*
X145945848Y-112165117D01*
X145556352Y-112165117D01*
X145556351Y-112165117D01*
X145525288Y-112171295D01*
X145476912Y-112171295D01*
X145445849Y-112165117D01*
X145445848Y-112165117D01*
X145056352Y-112165117D01*
X145056351Y-112165117D01*
X145025288Y-112171295D01*
X144976912Y-112171295D01*
X144945849Y-112165117D01*
X144945848Y-112165117D01*
X144556352Y-112165117D01*
X144556351Y-112165117D01*
X144525288Y-112171295D01*
X144476912Y-112171295D01*
X144445849Y-112165117D01*
X144445848Y-112165117D01*
X144056352Y-112165117D01*
X144056351Y-112165117D01*
X144025288Y-112171295D01*
X143976912Y-112171295D01*
X143945849Y-112165117D01*
X143945848Y-112165117D01*
X143556352Y-112165117D01*
X143556351Y-112165117D01*
X143525288Y-112171295D01*
X143476912Y-112171295D01*
X143445849Y-112165117D01*
X143445848Y-112165117D01*
X143056352Y-112165117D01*
X143056351Y-112165117D01*
X143025288Y-112171295D01*
X142976912Y-112171295D01*
X142945849Y-112165117D01*
X142945848Y-112165117D01*
X142556352Y-112165117D01*
X142556351Y-112165117D01*
X142525288Y-112171295D01*
X142476912Y-112171295D01*
X142445849Y-112165117D01*
X142445848Y-112165117D01*
X142056352Y-112165117D01*
X142056351Y-112165117D01*
X142025288Y-112171295D01*
X141976912Y-112171295D01*
X141945849Y-112165117D01*
X141945848Y-112165117D01*
X141556352Y-112165117D01*
X141556351Y-112165117D01*
X141525288Y-112171295D01*
X141476912Y-112171295D01*
X141445849Y-112165117D01*
X141445848Y-112165117D01*
X141056352Y-112165117D01*
X141056351Y-112165117D01*
X141025288Y-112171295D01*
X140976912Y-112171295D01*
X140945849Y-112165117D01*
X140945848Y-112165117D01*
X140556352Y-112165117D01*
X140556351Y-112165117D01*
X140525288Y-112171295D01*
X140476912Y-112171295D01*
X140445849Y-112165117D01*
X140445848Y-112165117D01*
X140056352Y-112165117D01*
X140056351Y-112165117D01*
X140025288Y-112171295D01*
X140017053Y-112171300D01*
X140012330Y-112173167D01*
X139977549Y-112171328D01*
X139977084Y-112171329D01*
X139976378Y-112171189D01*
X139945848Y-112165117D01*
X139945617Y-112165117D01*
X139939493Y-112163908D01*
X139913592Y-112150407D01*
X139886509Y-112139452D01*
X139880266Y-112133035D01*
X139877535Y-112131612D01*
X139875619Y-112128260D01*
X139864243Y-112116567D01*
X139783290Y-112008429D01*
X139783287Y-112008426D01*
X139668193Y-111922266D01*
X139668186Y-111922262D01*
X139533479Y-111872020D01*
X139533472Y-111872018D01*
X139473944Y-111865617D01*
X139426100Y-111865617D01*
X139426100Y-112191603D01*
X139406415Y-112258642D01*
X139405202Y-112260494D01*
X139387233Y-112287386D01*
X139387231Y-112287390D01*
X139375600Y-112345864D01*
X139375600Y-112966617D01*
X139373049Y-112975302D01*
X139374338Y-112984264D01*
X139363359Y-113008304D01*
X139355915Y-113033656D01*
X139349074Y-113039583D01*
X139345313Y-113047820D01*
X139323078Y-113062109D01*
X139303111Y-113079411D01*
X139292596Y-113081698D01*
X139286535Y-113085594D01*
X139251600Y-113090617D01*
X139200100Y-113090617D01*
X139133061Y-113070932D01*
X139087306Y-113018128D01*
X139076100Y-112966617D01*
X139076100Y-111865617D01*
X139028255Y-111865617D01*
X138968727Y-111872018D01*
X138968720Y-111872020D01*
X138834013Y-111922262D01*
X138834011Y-111922263D01*
X138824910Y-111929077D01*
X138759445Y-111953493D01*
X138691172Y-111938641D01*
X138641767Y-111889235D01*
X138626600Y-111829809D01*
X138626600Y-110881241D01*
X138627044Y-110880593D01*
X138626600Y-110864897D01*
X138626600Y-110844699D01*
X138626600Y-110826203D01*
X138625358Y-110820392D01*
X138624921Y-110804774D01*
X138596979Y-110689222D01*
X138545670Y-110581983D01*
X138473227Y-110487723D01*
X138382803Y-110410546D01*
X138278333Y-110353810D01*
X138278331Y-110353809D01*
X138278326Y-110353807D01*
X138164368Y-110319986D01*
X138164370Y-110319986D01*
X138164365Y-110319985D01*
X138164363Y-110319984D01*
X138164360Y-110319984D01*
X138138070Y-110317895D01*
X138137667Y-110317863D01*
X138119954Y-110316397D01*
X138118915Y-110315596D01*
X138105852Y-110315230D01*
X138102491Y-110314952D01*
X138101888Y-110314719D01*
X138095880Y-110314225D01*
X137994523Y-110300333D01*
X137968538Y-110293853D01*
X137878887Y-110260863D01*
X137854901Y-110248955D01*
X137774423Y-110197486D01*
X137753555Y-110180709D01*
X137685997Y-110113152D01*
X137669222Y-110092288D01*
X137617751Y-110011812D01*
X137605842Y-109987826D01*
X137572848Y-109898172D01*
X137566367Y-109872187D01*
X137552749Y-109772844D01*
X137551600Y-109756003D01*
X137551600Y-93373470D01*
X137552335Y-93359989D01*
X137557186Y-93315630D01*
X137568343Y-93213611D01*
X137572370Y-93193061D01*
X137600572Y-93094257D01*
X137611797Y-93054931D01*
X137619223Y-93035356D01*
X137681335Y-92905836D01*
X137691953Y-92887786D01*
X137774980Y-92770565D01*
X137788478Y-92754566D01*
X137890053Y-92652989D01*
X137906048Y-92639493D01*
X138023275Y-92556459D01*
X138041318Y-92545845D01*
X138170846Y-92483726D01*
X138190415Y-92476302D01*
X138328541Y-92436873D01*
X138349091Y-92432846D01*
X138495327Y-92416851D01*
X138508809Y-92416117D01*
X149430335Y-92416117D01*
X149497374Y-92435802D01*
G37*
%TD.AperFunction*%
%TA.AperFunction,Conductor*%
G36*
X155844866Y-104359702D02*
G01*
X155934805Y-104389505D01*
X155934809Y-104389506D01*
X156037519Y-104399999D01*
X156222893Y-104399999D01*
X156244140Y-104406237D01*
X156266226Y-104407817D01*
X156277008Y-104415888D01*
X156289933Y-104419683D01*
X156304433Y-104436417D01*
X156322160Y-104449687D01*
X156326867Y-104462307D01*
X156335688Y-104472487D01*
X156338839Y-104494403D01*
X156346578Y-104515151D01*
X156343715Y-104528312D01*
X156345632Y-104541645D01*
X156336433Y-104561786D01*
X156331727Y-104583424D01*
X156318455Y-104601154D01*
X156316607Y-104605201D01*
X156310577Y-104611679D01*
X156225834Y-104696422D01*
X156225699Y-104696558D01*
X156187860Y-104734399D01*
X156187857Y-104734403D01*
X156187854Y-104734404D01*
X156187855Y-104734404D01*
X156187851Y-104734408D01*
X156165148Y-104757112D01*
X156152956Y-104767805D01*
X155994122Y-104889695D01*
X155980636Y-104898707D01*
X155880983Y-104956248D01*
X155880966Y-104956258D01*
X155807246Y-104998825D01*
X155792699Y-105006000D01*
X155709278Y-105040559D01*
X155661820Y-105050000D01*
X154661500Y-105050000D01*
X154594461Y-105030315D01*
X154548706Y-104977511D01*
X154537500Y-104926000D01*
X154537500Y-104674000D01*
X154557185Y-104606961D01*
X154609989Y-104561206D01*
X154661500Y-104550000D01*
X155697295Y-104550000D01*
X155697295Y-104549998D01*
X155697100Y-104547511D01*
X155686784Y-104512002D01*
X155686984Y-104442133D01*
X155724927Y-104383463D01*
X155788565Y-104354620D01*
X155844866Y-104359702D01*
G37*
%TD.AperFunction*%
%TD*%
M02*
