M48
; DRILL file {KiCad 9.0.0} date 2025-05-22T16:29:36+0400
; FORMAT={-:-/ absolute / inch / decimal}
; #@! TF.CreationDate,2025-05-22T16:29:36+04:00
; #@! TF.GenerationSoftware,Kicad,Pcbnew,9.0.0
; #@! TF.FileFunction,Plated,1,2,PTH
FMAT,2
INCH
; #@! TA.AperFunction,Plated,PTH,ComponentDrill
T1C0.0079
; #@! TA.AperFunction,Plated,PTH,ViaDrill
T2C0.0118
%
G90
G05
T1
X5.9213Y-3.6758
X6.004Y-3.727
X6.0867Y-3.6758
T2
X5.5768Y-4.2009
X5.6378Y-4.0039
X5.6378Y-4.2323
X5.7087Y-4.2638
X5.7244Y-3.6975
X5.7244Y-3.7368
X5.7244Y-3.7762
X5.7638Y-3.6975
X5.7638Y-3.7368
X5.8031Y-3.6975
X5.815Y-4.1772
X5.9803Y-3.9331
X6.0197Y-3.8937
X6.0197Y-3.9331
X6.0591Y-3.8543
X6.0591Y-3.8937
X6.0591Y-3.9331
X6.0866Y-3.7559
M30
