M48
; DRILL file {KiCad 9.0.0} date 2025-05-23T15:56:35+0400
; FORMAT={-:-/ absolute / inch / decimal}
; #@! TF.CreationDate,2025-05-23T15:56:35+04:00
; #@! TF.GenerationSoftware,Kicad,Pcbnew,9.0.0
; #@! TF.FileFunction,Plated,1,2,PTH
FMAT,2
INCH
; #@! TA.AperFunction,Plated,PTH,ComponentDrill
T1C0.0079
; #@! TA.AperFunction,Plated,PTH,ViaDrill
T2C0.0118
%
G90
G05
T1
X5.9213Y-3.6722
X6.004Y-3.7234
X6.0867Y-3.6722
T2
X5.5906Y-4.0276
X5.6046Y-4.2399
X5.6391Y-4.2403
X5.6472Y-4.2963
X5.6772Y-4.2402
X5.7008Y-4.0276
X5.7795Y-4.3465
X5.8189Y-4.3071
X5.8189Y-4.3465
X5.8583Y-4.2677
X5.8583Y-4.3071
X5.8583Y-4.3465
X5.9016Y-3.9252
X5.9016Y-3.9646
X5.9016Y-4.0039
X5.9094Y-4.1417
X5.9409Y-3.9646
X5.9409Y-4.0039
X5.9803Y-4.0039
X6.0984Y-3.748
X6.1024Y-3.9252
X6.1417Y-3.9252
X6.1417Y-3.9646
X6.1811Y-3.9252
X6.1811Y-3.9646
X6.1811Y-4.0039
M30
