%TF.GenerationSoftware,KiCad,Pcbnew,9.0.0*%
%TF.CreationDate,2025-05-23T15:56:35+04:00*%
%TF.ProjectId,02_01_sensor_IMU_LSM6DSO32,30325f30-315f-4736-956e-736f725f494d,rev?*%
%TF.SameCoordinates,Original*%
%TF.FileFunction,Legend,Top*%
%TF.FilePolarity,Positive*%
%FSLAX46Y46*%
G04 Gerber Fmt 4.6, Leading zero omitted, Abs format (unit mm)*
G04 Created by KiCad (PCBNEW 9.0.0) date 2025-05-23 15:56:35*
%MOMM*%
%LPD*%
G01*
G04 APERTURE LIST*
G04 Aperture macros list*
%AMRoundRect*
0 Rectangle with rounded corners*
0 $1 Rounding radius*
0 $2 $3 $4 $5 $6 $7 $8 $9 X,Y pos of 4 corners*
0 Add a 4 corners polygon primitive as box body*
4,1,4,$2,$3,$4,$5,$6,$7,$8,$9,$2,$3,0*
0 Add four circle primitives for the rounded corners*
1,1,$1+$1,$2,$3*
1,1,$1+$1,$4,$5*
1,1,$1+$1,$6,$7*
1,1,$1+$1,$8,$9*
0 Add four rect primitives between the rounded corners*
20,1,$1+$1,$2,$3,$4,$5,0*
20,1,$1+$1,$4,$5,$6,$7,0*
20,1,$1+$1,$6,$7,$8,$9,0*
20,1,$1+$1,$8,$9,$2,$3,0*%
G04 Aperture macros list end*
%ADD10C,0.254000*%
%ADD11C,0.175000*%
%ADD12C,0.190500*%
%ADD13C,0.150000*%
%ADD14C,0.120000*%
%ADD15C,0.152000*%
%ADD16C,0.059995*%
%ADD17C,0.300000*%
%ADD18C,0.100000*%
%ADD19C,0.000000*%
%ADD20RoundRect,0.101600X0.175000X0.725000X-0.175000X0.725000X-0.175000X-0.725000X0.175000X-0.725000X0*%
%ADD21C,0.657200*%
%ADD22C,1.100000*%
%ADD23RoundRect,0.271739X0.678261X-0.353261X0.678261X0.353261X-0.678261X0.353261X-0.678261X-0.353261X0*%
%ADD24RoundRect,0.225000X-0.300000X0.225000X-0.300000X-0.225000X0.300000X-0.225000X0.300000X0.225000X0*%
%ADD25RoundRect,0.165000X0.165000X0.195000X-0.165000X0.195000X-0.165000X-0.195000X0.165000X-0.195000X0*%
%ADD26RoundRect,0.165000X-0.165000X-0.195000X0.165000X-0.195000X0.165000X0.195000X-0.165000X0.195000X0*%
%ADD27RoundRect,0.050000X0.600000X-0.300000X0.600000X0.300000X-0.600000X0.300000X-0.600000X-0.300000X0*%
%ADD28RoundRect,0.243750X-0.281250X0.243750X-0.281250X-0.243750X0.281250X-0.243750X0.281250X0.243750X0*%
%ADD29RoundRect,0.112500X0.250000X0.112500X-0.250000X0.112500X-0.250000X-0.112500X0.250000X-0.112500X0*%
%ADD30RoundRect,0.112500X0.112500X0.250000X-0.112500X0.250000X-0.112500X-0.250000X0.112500X-0.250000X0*%
G04 APERTURE END LIST*
D10*
X153851288Y-99501145D02*
G75*
G02*
X152581288Y-99501145I-635000J0D01*
G01*
X150082563Y-97840620D02*
X150336563Y-97586620D01*
X152809888Y-99628145D02*
X152454288Y-99755145D01*
X151479563Y-97205620D02*
X151352563Y-97459620D01*
X152581288Y-99501145D02*
X152809888Y-99628145D01*
X150082563Y-97840620D02*
X150336563Y-98094620D01*
X153346463Y-97888245D02*
G75*
G02*
X153092463Y-97888245I-127000J0D01*
G01*
X153092463Y-97888245D02*
G75*
G02*
X153346463Y-97888245I127000J0D01*
G01*
X153543313Y-96843670D02*
X153876688Y-96796045D01*
X151479563Y-98348620D02*
G75*
G02*
X151479563Y-97205580I37J571520D01*
G01*
X151479563Y-97205620D02*
X151225563Y-97078620D01*
X153673488Y-96923045D02*
G75*
G02*
X154079889Y-98535946I-473488J-976955D01*
G01*
X153543313Y-96843670D02*
X153670313Y-97151645D01*
X153216288Y-100898145D02*
X152962288Y-100644145D01*
X153216288Y-100898145D02*
X153470288Y-100644145D01*
X153752863Y-97888245D02*
G75*
G02*
X152686063Y-97888245I-533400J0D01*
G01*
X152686063Y-97888245D02*
G75*
G02*
X153752863Y-97888245I533400J0D01*
G01*
X153670313Y-97151645D02*
X153876688Y-96796045D01*
X153216288Y-100898145D02*
X153216288Y-99120145D01*
X150336563Y-97586620D02*
X150336563Y-98094620D01*
X151225563Y-97078620D02*
X151352563Y-97459620D01*
X153495688Y-100618745D02*
X152936888Y-100618745D01*
X152581288Y-99501145D02*
X152454288Y-99755145D01*
X150082563Y-97840620D02*
X151987563Y-97840620D01*
D11*
X158137864Y-98753571D02*
X157387864Y-98753571D01*
X157387864Y-98753571D02*
X157387864Y-98575000D01*
X157387864Y-98575000D02*
X157423578Y-98467857D01*
X157423578Y-98467857D02*
X157495007Y-98396428D01*
X157495007Y-98396428D02*
X157566435Y-98360714D01*
X157566435Y-98360714D02*
X157709292Y-98325000D01*
X157709292Y-98325000D02*
X157816435Y-98325000D01*
X157816435Y-98325000D02*
X157959292Y-98360714D01*
X157959292Y-98360714D02*
X158030721Y-98396428D01*
X158030721Y-98396428D02*
X158102150Y-98467857D01*
X158102150Y-98467857D02*
X158137864Y-98575000D01*
X158137864Y-98575000D02*
X158137864Y-98753571D01*
X158137864Y-97610714D02*
X158137864Y-98039285D01*
X158137864Y-97825000D02*
X157387864Y-97825000D01*
X157387864Y-97825000D02*
X157495007Y-97896428D01*
X157495007Y-97896428D02*
X157566435Y-97967857D01*
X157566435Y-97967857D02*
X157602150Y-98039285D01*
D12*
X151258855Y-99460386D02*
X151792189Y-99269910D01*
X151258855Y-99079433D02*
X151792189Y-99269910D01*
X151792189Y-99269910D02*
X151982665Y-99346100D01*
X151982665Y-99346100D02*
X152020760Y-99384195D01*
X152020760Y-99384195D02*
X152058855Y-99460386D01*
D11*
G36*
X140914602Y-105543339D02*
G01*
X140930239Y-105558976D01*
X140950364Y-105599226D01*
X140950364Y-105700771D01*
X140930237Y-105741025D01*
X140914602Y-105756659D01*
X140874352Y-105776785D01*
X140737090Y-105776785D01*
X140696839Y-105756659D01*
X140681204Y-105741025D01*
X140661078Y-105700771D01*
X140661078Y-105599226D01*
X140681203Y-105558976D01*
X140696840Y-105543339D01*
X140737090Y-105523214D01*
X140874352Y-105523214D01*
X140914602Y-105543339D01*
G37*
G36*
X140828751Y-104803986D02*
G01*
X140878890Y-104829055D01*
X140925671Y-104875836D01*
X140950364Y-104949913D01*
X140950364Y-105026785D01*
X140375364Y-105026785D01*
X140375364Y-104949913D01*
X140400055Y-104875837D01*
X140446840Y-104829053D01*
X140496971Y-104803987D01*
X140620062Y-104773214D01*
X140705661Y-104773214D01*
X140828751Y-104803986D01*
G37*
G36*
X140885986Y-103300436D02*
G01*
X140930236Y-103344686D01*
X140950364Y-103384941D01*
X140950364Y-103486485D01*
X140930236Y-103526740D01*
X140885988Y-103570988D01*
X140777090Y-103598213D01*
X140548634Y-103598213D01*
X140439739Y-103570988D01*
X140395492Y-103526741D01*
X140375364Y-103486485D01*
X140375364Y-103384941D01*
X140395492Y-103344685D01*
X140439740Y-103300436D01*
X140548634Y-103273213D01*
X140777094Y-103273213D01*
X140885986Y-103300436D01*
G37*
G36*
X141212864Y-108182143D02*
G01*
X140112864Y-108182143D01*
X140112864Y-107990073D01*
X140202045Y-107990073D01*
X140202045Y-108024213D01*
X140215110Y-108055755D01*
X140239252Y-108079897D01*
X140270794Y-108092962D01*
X140287864Y-108094643D01*
X141037864Y-108094643D01*
X141054934Y-108092962D01*
X141086476Y-108079897D01*
X141110618Y-108055755D01*
X141123683Y-108024213D01*
X141125364Y-108007143D01*
X141125364Y-107650000D01*
X141123683Y-107632930D01*
X141110618Y-107601388D01*
X141086476Y-107577246D01*
X141054934Y-107564181D01*
X141020794Y-107564181D01*
X140989252Y-107577246D01*
X140965110Y-107601388D01*
X140952045Y-107632930D01*
X140950364Y-107650000D01*
X140950364Y-107919643D01*
X140287864Y-107919643D01*
X140270794Y-107921324D01*
X140239252Y-107934389D01*
X140215110Y-107958531D01*
X140202045Y-107990073D01*
X140112864Y-107990073D01*
X140112864Y-107114286D01*
X140200364Y-107114286D01*
X140200364Y-107292857D01*
X140202045Y-107309927D01*
X140203248Y-107312831D01*
X140203471Y-107315968D01*
X140209601Y-107331988D01*
X140245315Y-107403417D01*
X140249938Y-107410762D01*
X140250824Y-107412899D01*
X140252798Y-107415304D01*
X140254453Y-107417933D01*
X140256196Y-107419445D01*
X140261706Y-107426158D01*
X140297420Y-107461872D01*
X140304130Y-107467379D01*
X140305645Y-107469125D01*
X140308277Y-107470782D01*
X140310679Y-107472753D01*
X140312811Y-107473636D01*
X140320161Y-107478263D01*
X140391590Y-107513977D01*
X140407610Y-107520107D01*
X140410746Y-107520329D01*
X140413651Y-107521533D01*
X140430721Y-107523214D01*
X140502150Y-107523214D01*
X140519220Y-107521533D01*
X140522124Y-107520329D01*
X140525262Y-107520107D01*
X140541281Y-107513976D01*
X140612709Y-107478262D01*
X140620052Y-107473639D01*
X140622191Y-107472754D01*
X140624597Y-107470778D01*
X140627225Y-107469125D01*
X140628737Y-107467381D01*
X140635450Y-107461872D01*
X140671164Y-107426158D01*
X140676668Y-107419450D01*
X140678417Y-107417934D01*
X140680076Y-107415298D01*
X140682045Y-107412899D01*
X140682928Y-107410767D01*
X140687554Y-107403418D01*
X140723269Y-107331989D01*
X140723747Y-107330739D01*
X140724124Y-107330231D01*
X140726685Y-107323062D01*
X140729400Y-107315969D01*
X140729444Y-107315339D01*
X140729895Y-107314079D01*
X140763280Y-107180536D01*
X140788346Y-107130405D01*
X140803983Y-107114768D01*
X140844233Y-107094643D01*
X140874352Y-107094643D01*
X140914602Y-107114768D01*
X140930239Y-107130405D01*
X140950364Y-107170655D01*
X140950364Y-107314372D01*
X140919140Y-107408044D01*
X140915337Y-107424770D01*
X140917757Y-107458825D01*
X140933026Y-107489362D01*
X140958818Y-107511731D01*
X140991206Y-107522527D01*
X141025261Y-107520107D01*
X141055798Y-107504838D01*
X141078167Y-107479046D01*
X141085160Y-107463384D01*
X141120874Y-107356242D01*
X141122798Y-107347776D01*
X141123683Y-107345642D01*
X141123987Y-107342547D01*
X141124677Y-107339516D01*
X141124513Y-107337211D01*
X141125364Y-107328572D01*
X141125364Y-107150000D01*
X141123683Y-107132930D01*
X141122479Y-107130025D01*
X141122257Y-107126889D01*
X141116126Y-107110869D01*
X141080412Y-107039441D01*
X141075789Y-107032097D01*
X141074904Y-107029959D01*
X141072928Y-107027552D01*
X141071275Y-107024925D01*
X141069531Y-107023412D01*
X141064022Y-107016700D01*
X141028307Y-106980985D01*
X141021594Y-106975475D01*
X141020082Y-106973732D01*
X141017454Y-106972078D01*
X141015048Y-106970103D01*
X141012909Y-106969217D01*
X141005566Y-106964595D01*
X140934138Y-106928881D01*
X140918119Y-106922750D01*
X140914981Y-106922527D01*
X140912077Y-106921324D01*
X140895007Y-106919643D01*
X140823578Y-106919643D01*
X140806508Y-106921324D01*
X140803603Y-106922527D01*
X140800467Y-106922750D01*
X140784447Y-106928881D01*
X140713019Y-106964595D01*
X140705675Y-106969217D01*
X140703537Y-106970103D01*
X140701130Y-106972078D01*
X140698503Y-106973732D01*
X140696990Y-106975475D01*
X140690278Y-106980985D01*
X140654563Y-107016700D01*
X140649053Y-107023412D01*
X140647310Y-107024925D01*
X140645656Y-107027552D01*
X140643681Y-107029959D01*
X140642795Y-107032097D01*
X140638173Y-107039441D01*
X140602459Y-107110869D01*
X140601982Y-107112114D01*
X140601604Y-107112625D01*
X140599043Y-107119791D01*
X140596328Y-107126888D01*
X140596283Y-107127520D01*
X140595834Y-107128778D01*
X140562447Y-107262320D01*
X140537380Y-107312453D01*
X140521745Y-107328089D01*
X140481495Y-107348214D01*
X140451378Y-107348214D01*
X140411122Y-107328086D01*
X140395491Y-107312455D01*
X140375364Y-107272200D01*
X140375364Y-107128485D01*
X140406588Y-107034812D01*
X140410391Y-107018087D01*
X140407971Y-106984032D01*
X140392702Y-106953494D01*
X140366910Y-106931125D01*
X140334522Y-106920329D01*
X140300467Y-106922750D01*
X140269930Y-106938018D01*
X140247561Y-106963810D01*
X140240568Y-106979473D01*
X140204854Y-107086616D01*
X140202929Y-107095081D01*
X140202045Y-107097216D01*
X140201740Y-107100310D01*
X140201051Y-107103342D01*
X140201214Y-107105646D01*
X140200364Y-107114286D01*
X140112864Y-107114286D01*
X140112864Y-106198999D01*
X140201378Y-106198999D01*
X140202045Y-106200833D01*
X140202045Y-106202784D01*
X140207856Y-106216814D01*
X140213046Y-106231085D01*
X140214363Y-106232523D01*
X140215110Y-106234326D01*
X140225847Y-106245063D01*
X140236104Y-106256263D01*
X140238417Y-106257633D01*
X140239252Y-106258468D01*
X140241162Y-106259259D01*
X140250862Y-106265005D01*
X140616666Y-106435714D01*
X140250862Y-106606423D01*
X140241162Y-106612168D01*
X140239252Y-106612960D01*
X140238417Y-106613794D01*
X140236104Y-106615165D01*
X140225847Y-106626364D01*
X140215110Y-106637102D01*
X140214363Y-106638904D01*
X140213046Y-106640343D01*
X140207856Y-106654613D01*
X140202045Y-106668644D01*
X140202045Y-106670594D01*
X140201378Y-106672429D01*
X140202045Y-106687595D01*
X140202045Y-106702784D01*
X140202792Y-106704588D01*
X140202878Y-106706537D01*
X140209297Y-106720293D01*
X140215110Y-106734326D01*
X140216489Y-106735705D01*
X140217315Y-106737474D01*
X140228514Y-106747730D01*
X140239252Y-106758468D01*
X140241054Y-106759214D01*
X140242493Y-106760532D01*
X140256763Y-106765721D01*
X140270794Y-106771533D01*
X140273469Y-106771796D01*
X140274579Y-106772200D01*
X140276644Y-106772109D01*
X140287864Y-106773214D01*
X141037864Y-106773214D01*
X141054934Y-106771533D01*
X141086476Y-106758468D01*
X141110618Y-106734326D01*
X141123683Y-106702784D01*
X141123683Y-106668644D01*
X141110618Y-106637102D01*
X141086476Y-106612960D01*
X141054934Y-106599895D01*
X141037864Y-106598214D01*
X140682275Y-106598214D01*
X140860580Y-106515005D01*
X140866830Y-106511302D01*
X140868949Y-106510532D01*
X140870446Y-106509160D01*
X140875338Y-106506263D01*
X140884319Y-106496455D01*
X140894127Y-106487474D01*
X140895770Y-106483951D01*
X140898396Y-106481085D01*
X140902939Y-106468589D01*
X140908564Y-106456537D01*
X140908734Y-106452651D01*
X140910063Y-106448999D01*
X140909479Y-106435714D01*
X140910063Y-106422429D01*
X140908734Y-106418776D01*
X140908564Y-106414891D01*
X140902939Y-106402838D01*
X140898396Y-106390343D01*
X140895770Y-106387476D01*
X140894127Y-106383954D01*
X140884319Y-106374972D01*
X140875338Y-106365165D01*
X140870446Y-106362267D01*
X140868949Y-106360896D01*
X140866830Y-106360125D01*
X140860580Y-106356423D01*
X140682275Y-106273214D01*
X141037864Y-106273214D01*
X141054934Y-106271533D01*
X141086476Y-106258468D01*
X141110618Y-106234326D01*
X141123683Y-106202784D01*
X141123683Y-106168644D01*
X141110618Y-106137102D01*
X141086476Y-106112960D01*
X141054934Y-106099895D01*
X141037864Y-106098214D01*
X140287864Y-106098214D01*
X140276644Y-106099318D01*
X140274579Y-106099228D01*
X140273469Y-106099631D01*
X140270794Y-106099895D01*
X140256763Y-106105706D01*
X140242493Y-106110896D01*
X140241054Y-106112213D01*
X140239252Y-106112960D01*
X140228514Y-106123697D01*
X140217315Y-106133954D01*
X140216489Y-106135722D01*
X140215110Y-106137102D01*
X140209297Y-106151134D01*
X140202878Y-106164891D01*
X140202792Y-106166839D01*
X140202045Y-106168644D01*
X140202045Y-106183832D01*
X140201378Y-106198999D01*
X140112864Y-106198999D01*
X140112864Y-105507143D01*
X140200364Y-105507143D01*
X140200364Y-105650000D01*
X140202045Y-105667070D01*
X140203248Y-105669974D01*
X140203471Y-105673112D01*
X140209602Y-105689131D01*
X140245316Y-105760559D01*
X140249939Y-105767903D01*
X140250824Y-105770040D01*
X140252797Y-105772444D01*
X140254453Y-105775075D01*
X140256198Y-105776588D01*
X140261705Y-105783299D01*
X140297419Y-105819014D01*
X140297467Y-105819053D01*
X140297485Y-105819080D01*
X140303880Y-105824317D01*
X140310678Y-105829896D01*
X140310707Y-105829908D01*
X140310756Y-105829948D01*
X140417899Y-105901375D01*
X140427321Y-105906398D01*
X140429061Y-105907688D01*
X140431115Y-105908422D01*
X140433034Y-105909445D01*
X140435150Y-105909863D01*
X140445213Y-105913459D01*
X140588071Y-105949173D01*
X140591031Y-105949610D01*
X140592222Y-105950104D01*
X140598644Y-105950736D01*
X140605039Y-105951682D01*
X140606316Y-105951491D01*
X140609292Y-105951785D01*
X140895007Y-105951785D01*
X140912077Y-105950104D01*
X140914981Y-105948900D01*
X140918119Y-105948678D01*
X140934138Y-105942547D01*
X141005566Y-105906833D01*
X141012910Y-105902209D01*
X141015047Y-105901325D01*
X141017451Y-105899351D01*
X141020082Y-105897696D01*
X141021595Y-105895950D01*
X141028306Y-105890444D01*
X141064021Y-105854730D01*
X141069530Y-105848017D01*
X141071275Y-105846504D01*
X141072930Y-105843874D01*
X141074903Y-105841471D01*
X141075787Y-105839335D01*
X141080413Y-105831988D01*
X141116127Y-105760559D01*
X141122257Y-105744539D01*
X141122479Y-105741402D01*
X141123683Y-105738498D01*
X141125364Y-105721428D01*
X141125364Y-105578571D01*
X141123683Y-105561501D01*
X141122479Y-105558596D01*
X141122257Y-105555460D01*
X141116126Y-105539440D01*
X141080412Y-105468012D01*
X141075789Y-105460668D01*
X141074904Y-105458530D01*
X141072928Y-105456123D01*
X141071275Y-105453496D01*
X141069531Y-105451983D01*
X141064022Y-105445271D01*
X141028307Y-105409556D01*
X141021594Y-105404046D01*
X141020082Y-105402303D01*
X141017454Y-105400649D01*
X141015048Y-105398674D01*
X141012909Y-105397788D01*
X141005566Y-105393166D01*
X140934138Y-105357452D01*
X140918119Y-105351321D01*
X140914981Y-105351098D01*
X140912077Y-105349895D01*
X140895007Y-105348214D01*
X140716435Y-105348214D01*
X140699365Y-105349895D01*
X140696460Y-105351098D01*
X140693324Y-105351321D01*
X140677304Y-105357452D01*
X140605876Y-105393166D01*
X140598532Y-105397788D01*
X140596394Y-105398674D01*
X140593987Y-105400649D01*
X140591360Y-105402303D01*
X140589847Y-105404046D01*
X140583135Y-105409556D01*
X140547420Y-105445271D01*
X140541910Y-105451983D01*
X140540167Y-105453496D01*
X140538513Y-105456123D01*
X140536538Y-105458530D01*
X140535652Y-105460668D01*
X140531030Y-105468012D01*
X140495316Y-105539440D01*
X140489185Y-105555459D01*
X140488962Y-105558596D01*
X140487759Y-105561501D01*
X140486078Y-105578571D01*
X140486078Y-105721428D01*
X140487666Y-105737563D01*
X140415037Y-105689144D01*
X140395489Y-105669595D01*
X140375364Y-105629345D01*
X140375364Y-105507143D01*
X140373683Y-105490073D01*
X140360618Y-105458531D01*
X140336476Y-105434389D01*
X140304934Y-105421324D01*
X140270794Y-105421324D01*
X140239252Y-105434389D01*
X140215110Y-105458531D01*
X140202045Y-105490073D01*
X140200364Y-105507143D01*
X140112864Y-105507143D01*
X140112864Y-104935714D01*
X140200364Y-104935714D01*
X140200364Y-105114285D01*
X140202045Y-105131355D01*
X140215110Y-105162897D01*
X140239252Y-105187039D01*
X140270794Y-105200104D01*
X140287864Y-105201785D01*
X141037864Y-105201785D01*
X141054934Y-105200104D01*
X141086476Y-105187039D01*
X141110618Y-105162897D01*
X141123683Y-105131355D01*
X141125364Y-105114285D01*
X141125364Y-104935714D01*
X141124513Y-104927074D01*
X141124677Y-104924770D01*
X141123987Y-104921738D01*
X141123683Y-104918644D01*
X141122798Y-104916508D01*
X141120874Y-104908045D01*
X141085160Y-104800901D01*
X141078167Y-104785239D01*
X141076108Y-104782865D01*
X141074904Y-104779958D01*
X141064022Y-104766699D01*
X140992593Y-104695270D01*
X140985880Y-104689760D01*
X140984368Y-104688017D01*
X140981739Y-104686362D01*
X140979334Y-104684388D01*
X140977197Y-104683502D01*
X140969852Y-104678879D01*
X140898423Y-104643165D01*
X140897175Y-104642687D01*
X140896667Y-104642311D01*
X140889509Y-104639754D01*
X140882403Y-104637035D01*
X140881771Y-104636990D01*
X140880514Y-104636541D01*
X140737657Y-104600826D01*
X140734695Y-104600388D01*
X140733505Y-104599895D01*
X140727085Y-104599262D01*
X140720689Y-104598317D01*
X140719411Y-104598507D01*
X140716435Y-104598214D01*
X140609292Y-104598214D01*
X140606316Y-104598507D01*
X140605039Y-104598317D01*
X140598644Y-104599262D01*
X140592222Y-104599895D01*
X140591031Y-104600388D01*
X140588071Y-104600826D01*
X140445213Y-104636540D01*
X140443952Y-104636990D01*
X140443324Y-104637035D01*
X140436244Y-104639744D01*
X140429061Y-104642311D01*
X140428551Y-104642688D01*
X140427304Y-104643166D01*
X140355876Y-104678880D01*
X140348532Y-104683502D01*
X140346394Y-104684388D01*
X140343987Y-104686363D01*
X140341360Y-104688017D01*
X140339847Y-104689760D01*
X140333135Y-104695270D01*
X140261706Y-104766699D01*
X140250824Y-104779958D01*
X140249620Y-104782863D01*
X140247561Y-104785238D01*
X140240568Y-104800901D01*
X140204854Y-104908044D01*
X140202929Y-104916509D01*
X140202045Y-104918644D01*
X140201740Y-104921738D01*
X140201051Y-104924770D01*
X140201214Y-104927074D01*
X140200364Y-104935714D01*
X140112864Y-104935714D01*
X140112864Y-104078571D01*
X140200364Y-104078571D01*
X140200364Y-104257142D01*
X140202045Y-104274212D01*
X140203248Y-104277116D01*
X140203471Y-104280253D01*
X140209601Y-104296273D01*
X140245315Y-104367702D01*
X140249938Y-104375047D01*
X140250824Y-104377184D01*
X140252798Y-104379589D01*
X140254453Y-104382218D01*
X140256196Y-104383730D01*
X140261706Y-104390443D01*
X140297420Y-104426157D01*
X140304130Y-104431664D01*
X140305645Y-104433410D01*
X140308277Y-104435067D01*
X140310679Y-104437038D01*
X140312811Y-104437921D01*
X140320161Y-104442548D01*
X140391590Y-104478262D01*
X140407610Y-104484392D01*
X140410746Y-104484614D01*
X140413651Y-104485818D01*
X140430721Y-104487499D01*
X140502150Y-104487499D01*
X140519220Y-104485818D01*
X140522124Y-104484614D01*
X140525262Y-104484392D01*
X140541281Y-104478261D01*
X140612709Y-104442547D01*
X140620052Y-104437924D01*
X140622191Y-104437039D01*
X140624597Y-104435063D01*
X140627225Y-104433410D01*
X140628737Y-104431666D01*
X140635450Y-104426157D01*
X140671164Y-104390443D01*
X140676668Y-104383735D01*
X140678417Y-104382219D01*
X140680076Y-104379583D01*
X140682045Y-104377184D01*
X140682928Y-104375052D01*
X140687554Y-104367703D01*
X140723269Y-104296274D01*
X140723747Y-104295024D01*
X140724124Y-104294516D01*
X140726685Y-104287347D01*
X140729400Y-104280254D01*
X140729444Y-104279624D01*
X140729895Y-104278364D01*
X140763280Y-104144821D01*
X140788346Y-104094690D01*
X140803983Y-104079053D01*
X140844233Y-104058928D01*
X140874352Y-104058928D01*
X140914602Y-104079053D01*
X140930239Y-104094690D01*
X140950364Y-104134940D01*
X140950364Y-104278657D01*
X140919140Y-104372329D01*
X140915337Y-104389055D01*
X140917757Y-104423110D01*
X140933026Y-104453647D01*
X140958818Y-104476016D01*
X140991206Y-104486812D01*
X141025261Y-104484392D01*
X141055798Y-104469123D01*
X141078167Y-104443331D01*
X141085160Y-104427669D01*
X141120874Y-104320527D01*
X141122798Y-104312061D01*
X141123683Y-104309927D01*
X141123987Y-104306832D01*
X141124677Y-104303801D01*
X141124513Y-104301496D01*
X141125364Y-104292857D01*
X141125364Y-104114285D01*
X141123683Y-104097215D01*
X141122479Y-104094310D01*
X141122257Y-104091174D01*
X141116126Y-104075154D01*
X141080412Y-104003726D01*
X141075789Y-103996382D01*
X141074904Y-103994244D01*
X141072928Y-103991837D01*
X141071275Y-103989210D01*
X141069531Y-103987697D01*
X141064022Y-103980985D01*
X141028307Y-103945270D01*
X141021594Y-103939760D01*
X141020082Y-103938017D01*
X141017454Y-103936363D01*
X141015048Y-103934388D01*
X141012909Y-103933502D01*
X141005566Y-103928880D01*
X140934138Y-103893166D01*
X140918119Y-103887035D01*
X140914981Y-103886812D01*
X140912077Y-103885609D01*
X140895007Y-103883928D01*
X140823578Y-103883928D01*
X140806508Y-103885609D01*
X140803603Y-103886812D01*
X140800467Y-103887035D01*
X140784447Y-103893166D01*
X140713019Y-103928880D01*
X140705675Y-103933502D01*
X140703537Y-103934388D01*
X140701130Y-103936363D01*
X140698503Y-103938017D01*
X140696990Y-103939760D01*
X140690278Y-103945270D01*
X140654563Y-103980985D01*
X140649053Y-103987697D01*
X140647310Y-103989210D01*
X140645656Y-103991837D01*
X140643681Y-103994244D01*
X140642795Y-103996382D01*
X140638173Y-104003726D01*
X140602459Y-104075154D01*
X140601982Y-104076399D01*
X140601604Y-104076910D01*
X140599043Y-104084076D01*
X140596328Y-104091173D01*
X140596283Y-104091805D01*
X140595834Y-104093063D01*
X140562447Y-104226605D01*
X140537380Y-104276738D01*
X140521745Y-104292374D01*
X140481495Y-104312499D01*
X140451378Y-104312499D01*
X140411122Y-104292371D01*
X140395491Y-104276740D01*
X140375364Y-104236485D01*
X140375364Y-104092770D01*
X140406588Y-103999097D01*
X140410391Y-103982372D01*
X140407971Y-103948317D01*
X140392702Y-103917779D01*
X140366910Y-103895410D01*
X140334522Y-103884614D01*
X140300467Y-103887035D01*
X140269930Y-103902303D01*
X140247561Y-103928095D01*
X140240568Y-103943758D01*
X140204854Y-104050901D01*
X140202929Y-104059366D01*
X140202045Y-104061501D01*
X140201740Y-104064595D01*
X140201051Y-104067627D01*
X140201214Y-104069931D01*
X140200364Y-104078571D01*
X140112864Y-104078571D01*
X140112864Y-103364285D01*
X140200364Y-103364285D01*
X140200364Y-103507142D01*
X140202045Y-103524212D01*
X140203248Y-103527116D01*
X140203471Y-103530253D01*
X140209601Y-103546273D01*
X140245315Y-103617702D01*
X140249941Y-103625051D01*
X140250825Y-103627184D01*
X140252795Y-103629584D01*
X140254453Y-103632218D01*
X140256200Y-103633733D01*
X140261707Y-103640443D01*
X140333135Y-103711871D01*
X140346395Y-103722753D01*
X140352404Y-103725242D01*
X140357633Y-103729116D01*
X140373785Y-103734887D01*
X140516643Y-103770601D01*
X140519603Y-103771038D01*
X140520794Y-103771532D01*
X140527216Y-103772164D01*
X140533611Y-103773110D01*
X140534888Y-103772919D01*
X140537864Y-103773213D01*
X140787864Y-103773213D01*
X140790840Y-103772919D01*
X140792118Y-103773110D01*
X140798514Y-103772164D01*
X140804934Y-103771532D01*
X140806124Y-103771038D01*
X140809086Y-103770601D01*
X140951943Y-103734886D01*
X140968096Y-103729116D01*
X140973325Y-103725241D01*
X140979333Y-103722753D01*
X140992592Y-103711871D01*
X141064021Y-103640443D01*
X141069529Y-103633732D01*
X141071275Y-103632218D01*
X141072930Y-103629588D01*
X141074903Y-103627185D01*
X141075787Y-103625050D01*
X141080413Y-103617702D01*
X141116127Y-103546273D01*
X141122257Y-103530253D01*
X141122479Y-103527116D01*
X141123683Y-103524212D01*
X141125364Y-103507142D01*
X141125364Y-103364285D01*
X141123683Y-103347215D01*
X141122479Y-103344310D01*
X141122257Y-103341174D01*
X141116127Y-103325154D01*
X141080413Y-103253725D01*
X141075787Y-103246376D01*
X141074903Y-103244242D01*
X141072930Y-103241838D01*
X141071275Y-103239209D01*
X141069529Y-103237694D01*
X141064021Y-103230984D01*
X140992592Y-103159556D01*
X140979333Y-103148674D01*
X140973321Y-103146184D01*
X140968096Y-103142312D01*
X140951943Y-103136541D01*
X140809086Y-103100826D01*
X140806127Y-103100388D01*
X140804934Y-103099894D01*
X140798506Y-103099261D01*
X140792118Y-103098316D01*
X140790840Y-103098506D01*
X140787864Y-103098213D01*
X140537864Y-103098213D01*
X140534887Y-103098506D01*
X140533610Y-103098316D01*
X140527221Y-103099261D01*
X140520794Y-103099894D01*
X140519600Y-103100388D01*
X140516642Y-103100826D01*
X140373785Y-103136541D01*
X140357632Y-103142312D01*
X140352406Y-103146184D01*
X140346395Y-103148674D01*
X140333135Y-103159556D01*
X140261707Y-103230984D01*
X140256200Y-103237693D01*
X140254453Y-103239209D01*
X140252795Y-103241842D01*
X140250825Y-103244243D01*
X140249941Y-103246375D01*
X140245315Y-103253725D01*
X140209601Y-103325154D01*
X140203471Y-103341174D01*
X140203248Y-103344310D01*
X140202045Y-103347215D01*
X140200364Y-103364285D01*
X140112864Y-103364285D01*
X140112864Y-102471428D01*
X140200364Y-102471428D01*
X140200364Y-102935714D01*
X140202045Y-102952784D01*
X140215110Y-102984326D01*
X140239252Y-103008468D01*
X140270794Y-103021533D01*
X140304934Y-103021533D01*
X140336476Y-103008468D01*
X140360618Y-102984326D01*
X140373683Y-102952784D01*
X140375364Y-102935714D01*
X140375364Y-102664257D01*
X140515959Y-102787279D01*
X140523338Y-102792554D01*
X140524966Y-102794182D01*
X140526508Y-102794821D01*
X140529912Y-102797254D01*
X140543376Y-102801807D01*
X140556508Y-102807247D01*
X140559459Y-102807247D01*
X140562253Y-102808192D01*
X140576429Y-102807247D01*
X140590648Y-102807247D01*
X140593375Y-102806117D01*
X140596320Y-102805921D01*
X140609061Y-102799619D01*
X140622190Y-102794182D01*
X140624275Y-102792096D01*
X140626923Y-102790787D01*
X140636287Y-102780084D01*
X140646332Y-102770040D01*
X140647460Y-102767314D01*
X140649404Y-102765094D01*
X140653957Y-102751629D01*
X140659397Y-102738498D01*
X140659806Y-102734334D01*
X140660342Y-102732753D01*
X140660188Y-102730456D01*
X140661078Y-102721428D01*
X140661078Y-102634940D01*
X140681203Y-102594690D01*
X140696840Y-102579053D01*
X140737090Y-102558928D01*
X140874352Y-102558928D01*
X140914602Y-102579053D01*
X140930239Y-102594690D01*
X140950364Y-102634940D01*
X140950364Y-102807916D01*
X140930239Y-102848166D01*
X140904563Y-102873842D01*
X140893681Y-102887101D01*
X140880616Y-102918643D01*
X140880616Y-102952785D01*
X140893681Y-102984327D01*
X140917822Y-103008468D01*
X140949364Y-103021533D01*
X140983506Y-103021533D01*
X141015048Y-103008468D01*
X141028307Y-102997586D01*
X141064022Y-102961871D01*
X141069531Y-102955158D01*
X141071275Y-102953646D01*
X141072928Y-102951018D01*
X141074904Y-102948612D01*
X141075789Y-102946473D01*
X141080412Y-102939130D01*
X141116126Y-102867702D01*
X141122257Y-102851682D01*
X141122479Y-102848545D01*
X141123683Y-102845641D01*
X141125364Y-102828571D01*
X141125364Y-102614285D01*
X141123683Y-102597215D01*
X141122479Y-102594310D01*
X141122257Y-102591174D01*
X141116126Y-102575154D01*
X141080412Y-102503726D01*
X141075789Y-102496382D01*
X141074904Y-102494244D01*
X141072928Y-102491837D01*
X141071275Y-102489210D01*
X141069531Y-102487697D01*
X141064022Y-102480985D01*
X141028307Y-102445270D01*
X141021594Y-102439760D01*
X141020082Y-102438017D01*
X141017454Y-102436363D01*
X141015048Y-102434388D01*
X141012909Y-102433502D01*
X141005566Y-102428880D01*
X140934138Y-102393166D01*
X140918119Y-102387035D01*
X140914981Y-102386812D01*
X140912077Y-102385609D01*
X140895007Y-102383928D01*
X140716435Y-102383928D01*
X140699365Y-102385609D01*
X140696460Y-102386812D01*
X140693324Y-102387035D01*
X140677304Y-102393166D01*
X140605876Y-102428880D01*
X140598532Y-102433502D01*
X140596394Y-102434388D01*
X140593987Y-102436363D01*
X140591360Y-102438017D01*
X140589847Y-102439760D01*
X140583135Y-102445270D01*
X140547420Y-102480985D01*
X140541910Y-102487697D01*
X140540167Y-102489210D01*
X140538513Y-102491837D01*
X140536538Y-102494244D01*
X140535652Y-102496382D01*
X140531030Y-102503726D01*
X140508697Y-102548390D01*
X140345483Y-102405578D01*
X140338104Y-102400302D01*
X140336476Y-102398674D01*
X140334932Y-102398034D01*
X140331530Y-102395602D01*
X140318065Y-102391048D01*
X140304934Y-102385609D01*
X140301983Y-102385609D01*
X140299189Y-102384664D01*
X140285013Y-102385609D01*
X140270794Y-102385609D01*
X140268066Y-102386738D01*
X140265122Y-102386935D01*
X140252380Y-102393236D01*
X140239252Y-102398674D01*
X140237166Y-102400759D01*
X140234519Y-102402069D01*
X140225154Y-102412771D01*
X140215110Y-102422816D01*
X140213981Y-102425541D01*
X140212038Y-102427762D01*
X140207484Y-102441226D01*
X140202045Y-102454358D01*
X140201635Y-102458521D01*
X140201100Y-102460103D01*
X140201253Y-102462399D01*
X140200364Y-102471428D01*
X140112864Y-102471428D01*
X140112864Y-101899999D01*
X140200364Y-101899999D01*
X140200364Y-102078571D01*
X140202045Y-102095641D01*
X140203248Y-102098545D01*
X140203471Y-102101683D01*
X140209602Y-102117702D01*
X140245316Y-102189130D01*
X140249938Y-102196473D01*
X140250824Y-102198612D01*
X140252799Y-102201018D01*
X140254453Y-102203646D01*
X140256196Y-102205158D01*
X140261706Y-102211871D01*
X140297420Y-102247585D01*
X140310679Y-102258466D01*
X140342221Y-102271532D01*
X140376363Y-102271532D01*
X140407905Y-102258466D01*
X140432045Y-102234326D01*
X140445111Y-102202784D01*
X140445111Y-102168642D01*
X140432045Y-102137100D01*
X140421164Y-102123841D01*
X140395489Y-102098166D01*
X140375364Y-102057916D01*
X140375364Y-101920654D01*
X140395489Y-101880403D01*
X140411123Y-101864768D01*
X140451378Y-101844642D01*
X140487950Y-101844642D01*
X140562026Y-101869334D01*
X140975992Y-102283300D01*
X140989251Y-102294181D01*
X140989252Y-102294182D01*
X141020794Y-102307247D01*
X141054934Y-102307247D01*
X141086476Y-102294182D01*
X141110618Y-102270040D01*
X141123683Y-102238498D01*
X141125364Y-102221428D01*
X141125364Y-101757142D01*
X141123683Y-101740072D01*
X141110618Y-101708530D01*
X141086476Y-101684388D01*
X141054934Y-101671323D01*
X141020794Y-101671323D01*
X140989252Y-101684388D01*
X140965110Y-101708530D01*
X140952045Y-101740072D01*
X140950364Y-101757142D01*
X140950364Y-102010184D01*
X140671164Y-101730984D01*
X140657905Y-101720102D01*
X140654999Y-101718898D01*
X140652625Y-101716839D01*
X140636962Y-101709846D01*
X140529820Y-101674132D01*
X140521354Y-101672207D01*
X140519220Y-101671323D01*
X140516125Y-101671018D01*
X140513094Y-101670329D01*
X140510789Y-101670492D01*
X140502150Y-101669642D01*
X140430721Y-101669642D01*
X140413651Y-101671323D01*
X140410746Y-101672526D01*
X140407610Y-101672749D01*
X140391590Y-101678879D01*
X140320161Y-101714593D01*
X140312813Y-101719218D01*
X140310678Y-101720103D01*
X140308274Y-101722075D01*
X140305645Y-101723731D01*
X140304131Y-101725475D01*
X140297419Y-101730985D01*
X140261705Y-101766700D01*
X140256198Y-101773410D01*
X140254453Y-101774924D01*
X140252797Y-101777554D01*
X140250824Y-101779959D01*
X140249939Y-101782095D01*
X140245316Y-101789440D01*
X140209602Y-101860868D01*
X140203471Y-101876887D01*
X140203248Y-101880024D01*
X140202045Y-101882929D01*
X140200364Y-101899999D01*
X140112864Y-101899999D01*
X140112864Y-101582142D01*
X141212864Y-101582142D01*
X141212864Y-108182143D01*
G37*
D12*
X152558855Y-96760386D02*
X152558855Y-96341338D01*
X152558855Y-96341338D02*
X153092189Y-96760386D01*
X153092189Y-96760386D02*
X153092189Y-96341338D01*
D11*
G36*
X158289733Y-94439986D02*
G01*
X157239733Y-94439986D01*
X157239733Y-93833333D01*
X157327233Y-93833333D01*
X157327233Y-94266667D01*
X157328914Y-94283737D01*
X157341979Y-94315279D01*
X157366121Y-94339421D01*
X157397663Y-94352486D01*
X157431803Y-94352486D01*
X157463345Y-94339421D01*
X157487487Y-94315279D01*
X157500552Y-94283737D01*
X157502233Y-94266667D01*
X157502233Y-94026162D01*
X157623781Y-94132517D01*
X157631159Y-94137792D01*
X157632788Y-94139421D01*
X157634331Y-94140060D01*
X157637734Y-94142493D01*
X157651198Y-94147046D01*
X157664330Y-94152486D01*
X157667281Y-94152486D01*
X157670075Y-94153431D01*
X157684251Y-94152486D01*
X157698470Y-94152486D01*
X157701197Y-94151356D01*
X157704142Y-94151160D01*
X157716883Y-94144858D01*
X157730012Y-94139421D01*
X157732097Y-94137335D01*
X157734745Y-94136026D01*
X157744109Y-94125323D01*
X157754154Y-94115279D01*
X157755282Y-94112553D01*
X157757226Y-94110333D01*
X157761779Y-94096868D01*
X157767219Y-94083737D01*
X157767628Y-94079573D01*
X157768164Y-94077992D01*
X157768010Y-94075695D01*
X157768900Y-94066667D01*
X157768900Y-93987323D01*
X157786645Y-93951831D01*
X157799898Y-93938578D01*
X157835389Y-93920833D01*
X157960743Y-93920833D01*
X157996234Y-93938578D01*
X158009487Y-93951831D01*
X158027233Y-93987323D01*
X158027233Y-94146012D01*
X158009489Y-94181500D01*
X157986194Y-94204795D01*
X157975312Y-94218054D01*
X157962247Y-94249596D01*
X157962247Y-94283738D01*
X157975312Y-94315280D01*
X157999453Y-94339421D01*
X158030995Y-94352486D01*
X158065137Y-94352486D01*
X158096679Y-94339421D01*
X158109938Y-94328539D01*
X158143272Y-94295205D01*
X158148779Y-94288493D01*
X158150525Y-94286980D01*
X158152181Y-94284348D01*
X158154153Y-94281946D01*
X158155037Y-94279811D01*
X158159662Y-94272464D01*
X158192995Y-94205798D01*
X158199126Y-94189778D01*
X158199348Y-94186641D01*
X158200552Y-94183737D01*
X158202233Y-94166667D01*
X158202233Y-93966667D01*
X158200552Y-93949597D01*
X158199348Y-93946692D01*
X158199126Y-93943556D01*
X158192996Y-93927537D01*
X158159663Y-93860869D01*
X158155037Y-93853521D01*
X158154153Y-93851386D01*
X158152180Y-93848982D01*
X158150525Y-93846353D01*
X158148780Y-93844839D01*
X158143271Y-93838127D01*
X158109937Y-93804794D01*
X158103226Y-93799287D01*
X158101714Y-93797543D01*
X158099083Y-93795887D01*
X158096678Y-93793913D01*
X158094542Y-93793028D01*
X158087198Y-93788405D01*
X158020532Y-93755071D01*
X158004513Y-93748940D01*
X158001374Y-93748716D01*
X157998470Y-93747514D01*
X157981400Y-93745833D01*
X157814733Y-93745833D01*
X157797663Y-93747514D01*
X157794758Y-93748717D01*
X157791621Y-93748940D01*
X157775601Y-93755071D01*
X157708934Y-93788405D01*
X157701589Y-93793028D01*
X157699453Y-93793913D01*
X157697049Y-93795885D01*
X157694418Y-93797542D01*
X157692903Y-93799288D01*
X157686194Y-93804795D01*
X157652861Y-93838128D01*
X157647351Y-93844840D01*
X157645608Y-93846353D01*
X157643953Y-93848981D01*
X157641979Y-93851387D01*
X157641093Y-93853523D01*
X157636470Y-93860869D01*
X157619003Y-93895803D01*
X157472352Y-93767483D01*
X157464973Y-93762207D01*
X157463345Y-93760579D01*
X157461801Y-93759939D01*
X157458399Y-93757507D01*
X157444934Y-93752953D01*
X157431803Y-93747514D01*
X157428852Y-93747514D01*
X157426058Y-93746569D01*
X157411882Y-93747514D01*
X157397663Y-93747514D01*
X157394935Y-93748643D01*
X157391991Y-93748840D01*
X157379249Y-93755141D01*
X157366121Y-93760579D01*
X157364035Y-93762664D01*
X157361388Y-93763974D01*
X157352023Y-93774676D01*
X157341979Y-93784721D01*
X157340850Y-93787446D01*
X157338907Y-93789667D01*
X157334353Y-93803131D01*
X157328914Y-93816263D01*
X157328504Y-93820426D01*
X157327969Y-93822008D01*
X157328122Y-93824304D01*
X157327233Y-93833333D01*
X157239733Y-93833333D01*
X157239733Y-92566666D01*
X157327233Y-92566666D01*
X157327233Y-93000000D01*
X157328914Y-93017070D01*
X157341979Y-93048612D01*
X157366121Y-93072754D01*
X157390480Y-93082844D01*
X157361085Y-93097542D01*
X157338716Y-93123334D01*
X157327920Y-93155722D01*
X157330340Y-93189776D01*
X157345609Y-93220314D01*
X157371401Y-93242683D01*
X157387063Y-93249676D01*
X157838033Y-93399999D01*
X157387063Y-93550323D01*
X157371401Y-93557316D01*
X157345609Y-93579685D01*
X157330340Y-93610222D01*
X157327920Y-93644277D01*
X157338716Y-93676665D01*
X157361085Y-93702457D01*
X157391622Y-93717726D01*
X157425677Y-93720146D01*
X157442403Y-93716343D01*
X158142403Y-93483010D01*
X158158066Y-93476017D01*
X158162791Y-93471918D01*
X158168381Y-93469124D01*
X158175565Y-93460839D01*
X158183858Y-93453648D01*
X158186654Y-93448053D01*
X158190750Y-93443332D01*
X158194219Y-93432923D01*
X158199126Y-93423110D01*
X158199569Y-93416874D01*
X158201546Y-93410944D01*
X158200768Y-93400000D01*
X158201546Y-93389056D01*
X158199569Y-93383125D01*
X158199126Y-93376890D01*
X158194220Y-93367078D01*
X158190750Y-93356668D01*
X158186653Y-93351944D01*
X158183857Y-93346352D01*
X158175569Y-93339163D01*
X158168381Y-93330876D01*
X158162788Y-93328079D01*
X158158065Y-93323983D01*
X158142403Y-93316990D01*
X157442403Y-93083656D01*
X157438930Y-93082866D01*
X157463345Y-93072754D01*
X157487487Y-93048612D01*
X157500552Y-93017070D01*
X157502233Y-93000000D01*
X157502233Y-92759495D01*
X157623781Y-92865850D01*
X157631159Y-92871125D01*
X157632788Y-92872754D01*
X157634331Y-92873393D01*
X157637734Y-92875826D01*
X157651198Y-92880379D01*
X157664330Y-92885819D01*
X157667281Y-92885819D01*
X157670075Y-92886764D01*
X157684251Y-92885819D01*
X157698470Y-92885819D01*
X157701197Y-92884689D01*
X157704142Y-92884493D01*
X157716883Y-92878191D01*
X157730012Y-92872754D01*
X157732097Y-92870668D01*
X157734745Y-92869359D01*
X157744109Y-92858656D01*
X157754154Y-92848612D01*
X157755282Y-92845886D01*
X157757226Y-92843666D01*
X157761779Y-92830201D01*
X157767219Y-92817070D01*
X157767628Y-92812906D01*
X157768164Y-92811325D01*
X157768010Y-92809028D01*
X157768900Y-92800000D01*
X157768900Y-92720656D01*
X157786645Y-92685164D01*
X157799898Y-92671911D01*
X157835389Y-92654166D01*
X157960743Y-92654166D01*
X157996234Y-92671911D01*
X158009487Y-92685164D01*
X158027233Y-92720656D01*
X158027233Y-92879345D01*
X158009489Y-92914833D01*
X157986194Y-92938128D01*
X157975312Y-92951387D01*
X157962247Y-92982929D01*
X157962247Y-93017071D01*
X157975312Y-93048613D01*
X157999453Y-93072754D01*
X158030995Y-93085819D01*
X158065137Y-93085819D01*
X158096679Y-93072754D01*
X158109938Y-93061872D01*
X158143272Y-93028538D01*
X158148779Y-93021826D01*
X158150525Y-93020313D01*
X158152181Y-93017681D01*
X158154153Y-93015279D01*
X158155037Y-93013144D01*
X158159662Y-93005797D01*
X158192995Y-92939131D01*
X158199126Y-92923111D01*
X158199348Y-92919974D01*
X158200552Y-92917070D01*
X158202233Y-92900000D01*
X158202233Y-92700000D01*
X158200552Y-92682930D01*
X158199348Y-92680025D01*
X158199126Y-92676889D01*
X158192996Y-92660870D01*
X158159663Y-92594202D01*
X158155037Y-92586854D01*
X158154153Y-92584719D01*
X158152180Y-92582315D01*
X158150525Y-92579686D01*
X158148780Y-92578172D01*
X158143271Y-92571460D01*
X158109937Y-92538127D01*
X158103226Y-92532620D01*
X158101714Y-92530876D01*
X158099083Y-92529220D01*
X158096678Y-92527246D01*
X158094542Y-92526361D01*
X158087198Y-92521738D01*
X158020532Y-92488404D01*
X158004513Y-92482273D01*
X158001374Y-92482049D01*
X157998470Y-92480847D01*
X157981400Y-92479166D01*
X157814733Y-92479166D01*
X157797663Y-92480847D01*
X157794758Y-92482050D01*
X157791621Y-92482273D01*
X157775601Y-92488404D01*
X157708934Y-92521738D01*
X157701589Y-92526361D01*
X157699453Y-92527246D01*
X157697049Y-92529218D01*
X157694418Y-92530875D01*
X157692903Y-92532621D01*
X157686194Y-92538128D01*
X157652861Y-92571461D01*
X157647351Y-92578173D01*
X157645608Y-92579686D01*
X157643953Y-92582314D01*
X157641979Y-92584720D01*
X157641093Y-92586856D01*
X157636470Y-92594202D01*
X157619003Y-92629136D01*
X157472352Y-92500816D01*
X157464973Y-92495540D01*
X157463345Y-92493912D01*
X157461801Y-92493272D01*
X157458399Y-92490840D01*
X157444934Y-92486286D01*
X157431803Y-92480847D01*
X157428852Y-92480847D01*
X157426058Y-92479902D01*
X157411882Y-92480847D01*
X157397663Y-92480847D01*
X157394935Y-92481976D01*
X157391991Y-92482173D01*
X157379249Y-92488474D01*
X157366121Y-92493912D01*
X157364035Y-92495997D01*
X157361388Y-92497307D01*
X157352023Y-92508009D01*
X157341979Y-92518054D01*
X157340850Y-92520779D01*
X157338907Y-92523000D01*
X157334353Y-92536464D01*
X157328914Y-92549596D01*
X157328504Y-92553759D01*
X157327969Y-92555341D01*
X157328122Y-92557637D01*
X157327233Y-92566666D01*
X157239733Y-92566666D01*
X157239733Y-92391666D01*
X158289733Y-92391666D01*
X158289733Y-94439986D01*
G37*
D12*
X151392189Y-96560386D02*
X150858855Y-96141338D01*
X150858855Y-96560386D02*
X151392189Y-96141338D01*
D13*
X140382700Y-98083333D02*
X140416033Y-97983333D01*
X140416033Y-97983333D02*
X140416033Y-97816667D01*
X140416033Y-97816667D02*
X140382700Y-97750000D01*
X140382700Y-97750000D02*
X140349366Y-97716667D01*
X140349366Y-97716667D02*
X140282700Y-97683333D01*
X140282700Y-97683333D02*
X140216033Y-97683333D01*
X140216033Y-97683333D02*
X140149366Y-97716667D01*
X140149366Y-97716667D02*
X140116033Y-97750000D01*
X140116033Y-97750000D02*
X140082700Y-97816667D01*
X140082700Y-97816667D02*
X140049366Y-97950000D01*
X140049366Y-97950000D02*
X140016033Y-98016667D01*
X140016033Y-98016667D02*
X139982700Y-98050000D01*
X139982700Y-98050000D02*
X139916033Y-98083333D01*
X139916033Y-98083333D02*
X139849366Y-98083333D01*
X139849366Y-98083333D02*
X139782700Y-98050000D01*
X139782700Y-98050000D02*
X139749366Y-98016667D01*
X139749366Y-98016667D02*
X139716033Y-97950000D01*
X139716033Y-97950000D02*
X139716033Y-97783333D01*
X139716033Y-97783333D02*
X139749366Y-97683333D01*
X140349366Y-96983333D02*
X140382700Y-97016666D01*
X140382700Y-97016666D02*
X140416033Y-97116666D01*
X140416033Y-97116666D02*
X140416033Y-97183333D01*
X140416033Y-97183333D02*
X140382700Y-97283333D01*
X140382700Y-97283333D02*
X140316033Y-97350000D01*
X140316033Y-97350000D02*
X140249366Y-97383333D01*
X140249366Y-97383333D02*
X140116033Y-97416666D01*
X140116033Y-97416666D02*
X140016033Y-97416666D01*
X140016033Y-97416666D02*
X139882700Y-97383333D01*
X139882700Y-97383333D02*
X139816033Y-97350000D01*
X139816033Y-97350000D02*
X139749366Y-97283333D01*
X139749366Y-97283333D02*
X139716033Y-97183333D01*
X139716033Y-97183333D02*
X139716033Y-97116666D01*
X139716033Y-97116666D02*
X139749366Y-97016666D01*
X139749366Y-97016666D02*
X139782700Y-96983333D01*
X140416033Y-96683333D02*
X139716033Y-96683333D01*
X140416033Y-96283333D02*
X140016033Y-96583333D01*
X139716033Y-96283333D02*
X140116033Y-96683333D01*
X140416033Y-95616666D02*
X140416033Y-96016666D01*
X140416033Y-95816666D02*
X139716033Y-95816666D01*
X139716033Y-95816666D02*
X139816033Y-95883333D01*
X139816033Y-95883333D02*
X139882700Y-95950000D01*
X139882700Y-95950000D02*
X139916033Y-96016666D01*
D11*
X156791435Y-108425000D02*
X156827150Y-108460714D01*
X156827150Y-108460714D02*
X156862864Y-108567857D01*
X156862864Y-108567857D02*
X156862864Y-108639285D01*
X156862864Y-108639285D02*
X156827150Y-108746428D01*
X156827150Y-108746428D02*
X156755721Y-108817857D01*
X156755721Y-108817857D02*
X156684292Y-108853571D01*
X156684292Y-108853571D02*
X156541435Y-108889285D01*
X156541435Y-108889285D02*
X156434292Y-108889285D01*
X156434292Y-108889285D02*
X156291435Y-108853571D01*
X156291435Y-108853571D02*
X156220007Y-108817857D01*
X156220007Y-108817857D02*
X156148578Y-108746428D01*
X156148578Y-108746428D02*
X156112864Y-108639285D01*
X156112864Y-108639285D02*
X156112864Y-108567857D01*
X156112864Y-108567857D02*
X156148578Y-108460714D01*
X156148578Y-108460714D02*
X156184292Y-108425000D01*
X156112864Y-108175000D02*
X156112864Y-107710714D01*
X156112864Y-107710714D02*
X156398578Y-107960714D01*
X156398578Y-107960714D02*
X156398578Y-107853571D01*
X156398578Y-107853571D02*
X156434292Y-107782143D01*
X156434292Y-107782143D02*
X156470007Y-107746428D01*
X156470007Y-107746428D02*
X156541435Y-107710714D01*
X156541435Y-107710714D02*
X156720007Y-107710714D01*
X156720007Y-107710714D02*
X156791435Y-107746428D01*
X156791435Y-107746428D02*
X156827150Y-107782143D01*
X156827150Y-107782143D02*
X156862864Y-107853571D01*
X156862864Y-107853571D02*
X156862864Y-108067857D01*
X156862864Y-108067857D02*
X156827150Y-108139285D01*
X156827150Y-108139285D02*
X156791435Y-108175000D01*
X156537864Y-98325000D02*
X156180721Y-98575000D01*
X156537864Y-98753571D02*
X155787864Y-98753571D01*
X155787864Y-98753571D02*
X155787864Y-98467857D01*
X155787864Y-98467857D02*
X155823578Y-98396428D01*
X155823578Y-98396428D02*
X155859292Y-98360714D01*
X155859292Y-98360714D02*
X155930721Y-98325000D01*
X155930721Y-98325000D02*
X156037864Y-98325000D01*
X156037864Y-98325000D02*
X156109292Y-98360714D01*
X156109292Y-98360714D02*
X156145007Y-98396428D01*
X156145007Y-98396428D02*
X156180721Y-98467857D01*
X156180721Y-98467857D02*
X156180721Y-98753571D01*
X156537864Y-97610714D02*
X156537864Y-98039285D01*
X156537864Y-97825000D02*
X155787864Y-97825000D01*
X155787864Y-97825000D02*
X155895007Y-97896428D01*
X155895007Y-97896428D02*
X155966435Y-97967857D01*
X155966435Y-97967857D02*
X156002150Y-98039285D01*
X144666435Y-101825000D02*
X144702150Y-101860714D01*
X144702150Y-101860714D02*
X144737864Y-101967857D01*
X144737864Y-101967857D02*
X144737864Y-102039285D01*
X144737864Y-102039285D02*
X144702150Y-102146428D01*
X144702150Y-102146428D02*
X144630721Y-102217857D01*
X144630721Y-102217857D02*
X144559292Y-102253571D01*
X144559292Y-102253571D02*
X144416435Y-102289285D01*
X144416435Y-102289285D02*
X144309292Y-102289285D01*
X144309292Y-102289285D02*
X144166435Y-102253571D01*
X144166435Y-102253571D02*
X144095007Y-102217857D01*
X144095007Y-102217857D02*
X144023578Y-102146428D01*
X144023578Y-102146428D02*
X143987864Y-102039285D01*
X143987864Y-102039285D02*
X143987864Y-101967857D01*
X143987864Y-101967857D02*
X144023578Y-101860714D01*
X144023578Y-101860714D02*
X144059292Y-101825000D01*
X144059292Y-101539285D02*
X144023578Y-101503571D01*
X144023578Y-101503571D02*
X143987864Y-101432143D01*
X143987864Y-101432143D02*
X143987864Y-101253571D01*
X143987864Y-101253571D02*
X144023578Y-101182143D01*
X144023578Y-101182143D02*
X144059292Y-101146428D01*
X144059292Y-101146428D02*
X144130721Y-101110714D01*
X144130721Y-101110714D02*
X144202150Y-101110714D01*
X144202150Y-101110714D02*
X144309292Y-101146428D01*
X144309292Y-101146428D02*
X144737864Y-101575000D01*
X144737864Y-101575000D02*
X144737864Y-101110714D01*
X142766435Y-101825000D02*
X142802150Y-101860714D01*
X142802150Y-101860714D02*
X142837864Y-101967857D01*
X142837864Y-101967857D02*
X142837864Y-102039285D01*
X142837864Y-102039285D02*
X142802150Y-102146428D01*
X142802150Y-102146428D02*
X142730721Y-102217857D01*
X142730721Y-102217857D02*
X142659292Y-102253571D01*
X142659292Y-102253571D02*
X142516435Y-102289285D01*
X142516435Y-102289285D02*
X142409292Y-102289285D01*
X142409292Y-102289285D02*
X142266435Y-102253571D01*
X142266435Y-102253571D02*
X142195007Y-102217857D01*
X142195007Y-102217857D02*
X142123578Y-102146428D01*
X142123578Y-102146428D02*
X142087864Y-102039285D01*
X142087864Y-102039285D02*
X142087864Y-101967857D01*
X142087864Y-101967857D02*
X142123578Y-101860714D01*
X142123578Y-101860714D02*
X142159292Y-101825000D01*
X142837864Y-101110714D02*
X142837864Y-101539285D01*
X142837864Y-101325000D02*
X142087864Y-101325000D01*
X142087864Y-101325000D02*
X142195007Y-101396428D01*
X142195007Y-101396428D02*
X142266435Y-101467857D01*
X142266435Y-101467857D02*
X142302150Y-101539285D01*
D13*
X142749366Y-96950000D02*
X142782700Y-96983333D01*
X142782700Y-96983333D02*
X142816033Y-97083333D01*
X142816033Y-97083333D02*
X142816033Y-97150000D01*
X142816033Y-97150000D02*
X142782700Y-97250000D01*
X142782700Y-97250000D02*
X142716033Y-97316667D01*
X142716033Y-97316667D02*
X142649366Y-97350000D01*
X142649366Y-97350000D02*
X142516033Y-97383333D01*
X142516033Y-97383333D02*
X142416033Y-97383333D01*
X142416033Y-97383333D02*
X142282700Y-97350000D01*
X142282700Y-97350000D02*
X142216033Y-97316667D01*
X142216033Y-97316667D02*
X142149366Y-97250000D01*
X142149366Y-97250000D02*
X142116033Y-97150000D01*
X142116033Y-97150000D02*
X142116033Y-97083333D01*
X142116033Y-97083333D02*
X142149366Y-96983333D01*
X142149366Y-96983333D02*
X142182700Y-96950000D01*
X142782700Y-96683333D02*
X142816033Y-96583333D01*
X142816033Y-96583333D02*
X142816033Y-96416667D01*
X142816033Y-96416667D02*
X142782700Y-96350000D01*
X142782700Y-96350000D02*
X142749366Y-96316667D01*
X142749366Y-96316667D02*
X142682700Y-96283333D01*
X142682700Y-96283333D02*
X142616033Y-96283333D01*
X142616033Y-96283333D02*
X142549366Y-96316667D01*
X142549366Y-96316667D02*
X142516033Y-96350000D01*
X142516033Y-96350000D02*
X142482700Y-96416667D01*
X142482700Y-96416667D02*
X142449366Y-96550000D01*
X142449366Y-96550000D02*
X142416033Y-96616667D01*
X142416033Y-96616667D02*
X142382700Y-96650000D01*
X142382700Y-96650000D02*
X142316033Y-96683333D01*
X142316033Y-96683333D02*
X142249366Y-96683333D01*
X142249366Y-96683333D02*
X142182700Y-96650000D01*
X142182700Y-96650000D02*
X142149366Y-96616667D01*
X142149366Y-96616667D02*
X142116033Y-96550000D01*
X142116033Y-96550000D02*
X142116033Y-96383333D01*
X142116033Y-96383333D02*
X142149366Y-96283333D01*
X142816033Y-95616666D02*
X142816033Y-96016666D01*
X142816033Y-95816666D02*
X142116033Y-95816666D01*
X142116033Y-95816666D02*
X142216033Y-95883333D01*
X142216033Y-95883333D02*
X142282700Y-95950000D01*
X142282700Y-95950000D02*
X142316033Y-96016666D01*
D11*
X150366435Y-108425000D02*
X150402150Y-108460714D01*
X150402150Y-108460714D02*
X150437864Y-108567857D01*
X150437864Y-108567857D02*
X150437864Y-108639285D01*
X150437864Y-108639285D02*
X150402150Y-108746428D01*
X150402150Y-108746428D02*
X150330721Y-108817857D01*
X150330721Y-108817857D02*
X150259292Y-108853571D01*
X150259292Y-108853571D02*
X150116435Y-108889285D01*
X150116435Y-108889285D02*
X150009292Y-108889285D01*
X150009292Y-108889285D02*
X149866435Y-108853571D01*
X149866435Y-108853571D02*
X149795007Y-108817857D01*
X149795007Y-108817857D02*
X149723578Y-108746428D01*
X149723578Y-108746428D02*
X149687864Y-108639285D01*
X149687864Y-108639285D02*
X149687864Y-108567857D01*
X149687864Y-108567857D02*
X149723578Y-108460714D01*
X149723578Y-108460714D02*
X149759292Y-108425000D01*
X149937864Y-107782143D02*
X150437864Y-107782143D01*
X149652150Y-107960714D02*
X150187864Y-108139285D01*
X150187864Y-108139285D02*
X150187864Y-107675000D01*
D13*
X147816033Y-98483333D02*
X147116033Y-98483333D01*
X147116033Y-98483333D02*
X147616033Y-98250000D01*
X147616033Y-98250000D02*
X147116033Y-98016666D01*
X147116033Y-98016666D02*
X147816033Y-98016666D01*
X147116033Y-97550000D02*
X147116033Y-97416666D01*
X147116033Y-97416666D02*
X147149366Y-97350000D01*
X147149366Y-97350000D02*
X147216033Y-97283333D01*
X147216033Y-97283333D02*
X147349366Y-97250000D01*
X147349366Y-97250000D02*
X147582700Y-97250000D01*
X147582700Y-97250000D02*
X147716033Y-97283333D01*
X147716033Y-97283333D02*
X147782700Y-97350000D01*
X147782700Y-97350000D02*
X147816033Y-97416666D01*
X147816033Y-97416666D02*
X147816033Y-97550000D01*
X147816033Y-97550000D02*
X147782700Y-97616666D01*
X147782700Y-97616666D02*
X147716033Y-97683333D01*
X147716033Y-97683333D02*
X147582700Y-97716666D01*
X147582700Y-97716666D02*
X147349366Y-97716666D01*
X147349366Y-97716666D02*
X147216033Y-97683333D01*
X147216033Y-97683333D02*
X147149366Y-97616666D01*
X147149366Y-97616666D02*
X147116033Y-97550000D01*
X147782700Y-96983333D02*
X147816033Y-96883333D01*
X147816033Y-96883333D02*
X147816033Y-96716667D01*
X147816033Y-96716667D02*
X147782700Y-96650000D01*
X147782700Y-96650000D02*
X147749366Y-96616667D01*
X147749366Y-96616667D02*
X147682700Y-96583333D01*
X147682700Y-96583333D02*
X147616033Y-96583333D01*
X147616033Y-96583333D02*
X147549366Y-96616667D01*
X147549366Y-96616667D02*
X147516033Y-96650000D01*
X147516033Y-96650000D02*
X147482700Y-96716667D01*
X147482700Y-96716667D02*
X147449366Y-96850000D01*
X147449366Y-96850000D02*
X147416033Y-96916667D01*
X147416033Y-96916667D02*
X147382700Y-96950000D01*
X147382700Y-96950000D02*
X147316033Y-96983333D01*
X147316033Y-96983333D02*
X147249366Y-96983333D01*
X147249366Y-96983333D02*
X147182700Y-96950000D01*
X147182700Y-96950000D02*
X147149366Y-96916667D01*
X147149366Y-96916667D02*
X147116033Y-96850000D01*
X147116033Y-96850000D02*
X147116033Y-96683333D01*
X147116033Y-96683333D02*
X147149366Y-96583333D01*
X147816033Y-96283333D02*
X147116033Y-96283333D01*
X147816033Y-95583333D02*
X147816033Y-95983333D01*
X147816033Y-95783333D02*
X147116033Y-95783333D01*
X147116033Y-95783333D02*
X147216033Y-95850000D01*
X147216033Y-95850000D02*
X147282700Y-95916667D01*
X147282700Y-95916667D02*
X147316033Y-95983333D01*
D11*
X152987864Y-108271428D02*
X153595007Y-108271428D01*
X153595007Y-108271428D02*
X153666435Y-108235714D01*
X153666435Y-108235714D02*
X153702150Y-108200000D01*
X153702150Y-108200000D02*
X153737864Y-108128571D01*
X153737864Y-108128571D02*
X153737864Y-107985714D01*
X153737864Y-107985714D02*
X153702150Y-107914285D01*
X153702150Y-107914285D02*
X153666435Y-107878571D01*
X153666435Y-107878571D02*
X153595007Y-107842857D01*
X153595007Y-107842857D02*
X152987864Y-107842857D01*
X153059292Y-107521428D02*
X153023578Y-107485714D01*
X153023578Y-107485714D02*
X152987864Y-107414286D01*
X152987864Y-107414286D02*
X152987864Y-107235714D01*
X152987864Y-107235714D02*
X153023578Y-107164286D01*
X153023578Y-107164286D02*
X153059292Y-107128571D01*
X153059292Y-107128571D02*
X153130721Y-107092857D01*
X153130721Y-107092857D02*
X153202150Y-107092857D01*
X153202150Y-107092857D02*
X153309292Y-107128571D01*
X153309292Y-107128571D02*
X153737864Y-107557143D01*
X153737864Y-107557143D02*
X153737864Y-107092857D01*
X145587864Y-105571428D02*
X146195007Y-105571428D01*
X146195007Y-105571428D02*
X146266435Y-105535714D01*
X146266435Y-105535714D02*
X146302150Y-105500000D01*
X146302150Y-105500000D02*
X146337864Y-105428571D01*
X146337864Y-105428571D02*
X146337864Y-105285714D01*
X146337864Y-105285714D02*
X146302150Y-105214285D01*
X146302150Y-105214285D02*
X146266435Y-105178571D01*
X146266435Y-105178571D02*
X146195007Y-105142857D01*
X146195007Y-105142857D02*
X145587864Y-105142857D01*
X146337864Y-104392857D02*
X146337864Y-104821428D01*
X146337864Y-104607143D02*
X145587864Y-104607143D01*
X145587864Y-104607143D02*
X145695007Y-104678571D01*
X145695007Y-104678571D02*
X145766435Y-104750000D01*
X145766435Y-104750000D02*
X145802150Y-104821428D01*
D13*
X145316033Y-98483333D02*
X144616033Y-98483333D01*
X144616033Y-98483333D02*
X145116033Y-98250000D01*
X145116033Y-98250000D02*
X144616033Y-98016666D01*
X144616033Y-98016666D02*
X145316033Y-98016666D01*
X145316033Y-97683333D02*
X144616033Y-97683333D01*
X145282700Y-97383333D02*
X145316033Y-97283333D01*
X145316033Y-97283333D02*
X145316033Y-97116667D01*
X145316033Y-97116667D02*
X145282700Y-97050000D01*
X145282700Y-97050000D02*
X145249366Y-97016667D01*
X145249366Y-97016667D02*
X145182700Y-96983333D01*
X145182700Y-96983333D02*
X145116033Y-96983333D01*
X145116033Y-96983333D02*
X145049366Y-97016667D01*
X145049366Y-97016667D02*
X145016033Y-97050000D01*
X145016033Y-97050000D02*
X144982700Y-97116667D01*
X144982700Y-97116667D02*
X144949366Y-97250000D01*
X144949366Y-97250000D02*
X144916033Y-97316667D01*
X144916033Y-97316667D02*
X144882700Y-97350000D01*
X144882700Y-97350000D02*
X144816033Y-97383333D01*
X144816033Y-97383333D02*
X144749366Y-97383333D01*
X144749366Y-97383333D02*
X144682700Y-97350000D01*
X144682700Y-97350000D02*
X144649366Y-97316667D01*
X144649366Y-97316667D02*
X144616033Y-97250000D01*
X144616033Y-97250000D02*
X144616033Y-97083333D01*
X144616033Y-97083333D02*
X144649366Y-96983333D01*
X144616033Y-96550000D02*
X144616033Y-96416666D01*
X144616033Y-96416666D02*
X144649366Y-96350000D01*
X144649366Y-96350000D02*
X144716033Y-96283333D01*
X144716033Y-96283333D02*
X144849366Y-96250000D01*
X144849366Y-96250000D02*
X145082700Y-96250000D01*
X145082700Y-96250000D02*
X145216033Y-96283333D01*
X145216033Y-96283333D02*
X145282700Y-96350000D01*
X145282700Y-96350000D02*
X145316033Y-96416666D01*
X145316033Y-96416666D02*
X145316033Y-96550000D01*
X145316033Y-96550000D02*
X145282700Y-96616666D01*
X145282700Y-96616666D02*
X145216033Y-96683333D01*
X145216033Y-96683333D02*
X145082700Y-96716666D01*
X145082700Y-96716666D02*
X144849366Y-96716666D01*
X144849366Y-96716666D02*
X144716033Y-96683333D01*
X144716033Y-96683333D02*
X144649366Y-96616666D01*
X144649366Y-96616666D02*
X144616033Y-96550000D01*
X145316033Y-95583333D02*
X145316033Y-95983333D01*
X145316033Y-95783333D02*
X144616033Y-95783333D01*
X144616033Y-95783333D02*
X144716033Y-95850000D01*
X144716033Y-95850000D02*
X144782700Y-95916667D01*
X144782700Y-95916667D02*
X144816033Y-95983333D01*
D14*
%TO.C,SCK1*%
X140700000Y-94800000D02*
G75*
G02*
X139300000Y-94800000I-700000J0D01*
G01*
X139300000Y-94800000D02*
G75*
G02*
X140700000Y-94800000I700000J0D01*
G01*
%TO.C,C3*%
X155652500Y-105861252D02*
X155652500Y-104438748D01*
X157472500Y-105861252D02*
X157472500Y-104438748D01*
%TO.C,R1*%
X155677500Y-95762742D02*
X155677500Y-96237258D01*
X156722500Y-95762742D02*
X156722500Y-96237258D01*
%TO.C,C2*%
X144471733Y-102790000D02*
X144256061Y-102790000D01*
X144471733Y-103510000D02*
X144256061Y-103510000D01*
%TO.C,C1*%
X142356061Y-102790000D02*
X142571733Y-102790000D01*
X142356061Y-103510000D02*
X142571733Y-103510000D01*
%TO.C,CS1*%
X143200000Y-94800000D02*
G75*
G02*
X141800000Y-94800000I-700000J0D01*
G01*
X141800000Y-94800000D02*
G75*
G02*
X143200000Y-94800000I700000J0D01*
G01*
%TO.C,C4*%
X149152500Y-105861252D02*
X149152500Y-104438748D01*
X150972500Y-105861252D02*
X150972500Y-104438748D01*
%TO.C,MOSI1*%
X148200000Y-94800000D02*
G75*
G02*
X146800000Y-94800000I-700000J0D01*
G01*
X146800000Y-94800000D02*
G75*
G02*
X148200000Y-94800000I700000J0D01*
G01*
D15*
%TO.C,U2*%
X152510345Y-103632508D02*
X154210345Y-103632508D01*
X152510345Y-103702307D02*
X152510345Y-103632508D01*
X152510345Y-105602231D02*
X152510345Y-104662582D01*
X152510345Y-106632508D02*
X152510345Y-106562505D01*
X154210345Y-103632508D02*
X154210345Y-103702307D01*
X154210345Y-106562505D02*
X154210345Y-106632508D01*
X154210345Y-106632508D02*
X152510345Y-106632508D01*
D16*
X154790228Y-106582597D02*
G75*
G02*
X154730284Y-106582597I-29972J0D01*
G01*
X154730284Y-106582597D02*
G75*
G02*
X154790228Y-106582597I29972J0D01*
G01*
D17*
X155039656Y-106743379D02*
G75*
G02*
X154739428Y-106743379I-150114J0D01*
G01*
X154739428Y-106743379D02*
G75*
G02*
X155039656Y-106743379I150114J0D01*
G01*
D14*
%TO.C,D1*%
X157065000Y-94515000D02*
X157065000Y-96800000D01*
X158535000Y-94515000D02*
X157065000Y-94515000D01*
X158535000Y-96800000D02*
X158535000Y-94515000D01*
%TO.C,U1*%
X141790000Y-103840000D02*
X141790000Y-104015000D01*
X141790000Y-106560000D02*
X141790000Y-106385000D01*
X142465000Y-103840000D02*
X141790000Y-103840000D01*
X142465000Y-106560000D02*
X141790000Y-106560000D01*
X144335000Y-103840000D02*
X145010000Y-103840000D01*
X144335000Y-106560000D02*
X144710000Y-106560000D01*
X145010000Y-103840000D02*
X145010000Y-104015000D01*
X145150000Y-106750000D02*
X144870000Y-106750000D01*
X145010000Y-106560000D01*
X145150000Y-106750000D01*
G36*
X145150000Y-106750000D02*
G01*
X144870000Y-106750000D01*
X145010000Y-106560000D01*
X145150000Y-106750000D01*
G37*
%TO.C,MISO1*%
X145700000Y-94800000D02*
G75*
G02*
X144300000Y-94800000I-700000J0D01*
G01*
X144300000Y-94800000D02*
G75*
G02*
X145700000Y-94800000I700000J0D01*
G01*
%TD*%
%LPC*%
D18*
X138500000Y-113800000D02*
X158400000Y-113800000D01*
X158400000Y-114400000D01*
X138500000Y-114400000D01*
X138500000Y-113800000D01*
G36*
X138500000Y-113800000D02*
G01*
X158400000Y-113800000D01*
X158400000Y-114400000D01*
X138500000Y-114400000D01*
X138500000Y-113800000D01*
G37*
D19*
%TO.C,J1*%
G36*
X150777686Y-92578884D02*
G01*
X150856638Y-92873535D01*
X150985556Y-93150000D01*
X151160522Y-93399878D01*
X151376222Y-93615578D01*
X151626100Y-93790544D01*
X151902565Y-93919462D01*
X152197216Y-93998414D01*
X152501100Y-94025000D01*
X152804984Y-93998414D01*
X153099635Y-93919462D01*
X153376100Y-93790544D01*
X153625978Y-93615578D01*
X153841678Y-93399878D01*
X154016644Y-93150000D01*
X154145562Y-92873535D01*
X154251100Y-92275000D01*
X155251100Y-92275000D01*
X155227573Y-92633947D01*
X155157396Y-92986752D01*
X155041769Y-93327379D01*
X154882670Y-93650000D01*
X154682822Y-93949094D01*
X154445644Y-94219544D01*
X154175194Y-94456722D01*
X153876100Y-94656570D01*
X153553479Y-94815669D01*
X153212852Y-94931296D01*
X152501100Y-95025000D01*
X152142153Y-95001473D01*
X151789348Y-94931296D01*
X151448721Y-94815669D01*
X151126100Y-94656570D01*
X150827006Y-94456722D01*
X150556556Y-94219544D01*
X150319378Y-93949094D01*
X150119530Y-93650000D01*
X149960431Y-93327379D01*
X149844804Y-92986752D01*
X149774627Y-92633947D01*
X149751100Y-92275000D01*
X150751100Y-92275000D01*
X150777686Y-92578884D01*
G37*
%TD*%
D20*
%TO.C,J1*%
X157751100Y-113000000D03*
X157251100Y-113000000D03*
X156751100Y-113000000D03*
X156251100Y-113000000D03*
X155751100Y-113000000D03*
X155251100Y-113000000D03*
X154751100Y-113000000D03*
X154251100Y-113000000D03*
X153751100Y-113000000D03*
X153251100Y-113000000D03*
X152751100Y-113000000D03*
X152251100Y-113000000D03*
X149751100Y-113000000D03*
X149251100Y-113000000D03*
X148751100Y-113000000D03*
X148251100Y-113000000D03*
X147751100Y-113000000D03*
X147251100Y-113000000D03*
X146751100Y-113000000D03*
X146251100Y-113000000D03*
X145751100Y-113000000D03*
X145251100Y-113000000D03*
X144751100Y-113000000D03*
X144251100Y-113000000D03*
X143751100Y-113000000D03*
X143251100Y-113000000D03*
X142751100Y-113000000D03*
X142251100Y-113000000D03*
X141751100Y-113000000D03*
X141251100Y-113000000D03*
X140751100Y-113000000D03*
X140251100Y-113000000D03*
X139751100Y-113000000D03*
X139251100Y-113000000D03*
D21*
X150401100Y-93275000D03*
X152501100Y-94575000D03*
X154601100Y-93275000D03*
%TD*%
D22*
%TO.C,SCK1*%
X140000000Y-94800000D03*
%TD*%
D23*
%TO.C,C3*%
X156562500Y-106625000D03*
X156562500Y-103675000D03*
%TD*%
D24*
%TO.C,R1*%
X156200000Y-95175000D03*
X156200000Y-96825000D03*
%TD*%
D25*
%TO.C,C2*%
X144843897Y-103150000D03*
X143883897Y-103150000D03*
%TD*%
D26*
%TO.C,C1*%
X141983897Y-103150000D03*
X142943897Y-103150000D03*
%TD*%
D22*
%TO.C,CS1*%
X142500000Y-94800000D03*
%TD*%
D23*
%TO.C,C4*%
X150062500Y-106625000D03*
X150062500Y-103675000D03*
%TD*%
D22*
%TO.C,MOSI1*%
X147500000Y-94800000D03*
%TD*%
D27*
%TO.C,U2*%
X154510319Y-106082470D03*
X154510319Y-105132508D03*
X154510319Y-104182546D03*
X152210345Y-104182546D03*
X152210345Y-106082470D03*
%TD*%
D28*
%TO.C,D1*%
X157800000Y-95212500D03*
X157800000Y-96787500D03*
%TD*%
D29*
%TO.C,U1*%
X144562500Y-105950000D03*
X144562500Y-105450000D03*
X144562500Y-104950000D03*
X144562500Y-104450000D03*
D30*
X143900000Y-104287500D03*
X143400000Y-104287500D03*
X142900000Y-104287500D03*
D29*
X142237500Y-104450000D03*
X142237500Y-104950000D03*
X142237500Y-105450000D03*
X142237500Y-105950000D03*
D30*
X142900000Y-106112500D03*
X143400000Y-106112500D03*
X143900000Y-106112500D03*
%TD*%
D22*
%TO.C,MISO1*%
X145000000Y-94800000D03*
%TD*%
%LPD*%
M02*
