%TF.GenerationSoftware,KiCad,Pcbnew,9.0.0*%
%TF.CreationDate,2025-05-23T15:56:35+04:00*%
%TF.ProjectId,02_01_sensor_IMU_LSM6DSO32,30325f30-315f-4736-956e-736f725f494d,rev?*%
%TF.SameCoordinates,Original*%
%TF.FileFunction,Legend,Bot*%
%TF.FilePolarity,Positive*%
%FSLAX46Y46*%
G04 Gerber Fmt 4.6, Leading zero omitted, Abs format (unit mm)*
G04 Created by KiCad (PCBNEW 9.0.0) date 2025-05-23 15:56:35*
%MOMM*%
%LPD*%
G01*
G04 APERTURE LIST*
G04 Aperture macros list*
%AMRoundRect*
0 Rectangle with rounded corners*
0 $1 Rounding radius*
0 $2 $3 $4 $5 $6 $7 $8 $9 X,Y pos of 4 corners*
0 Add a 4 corners polygon primitive as box body*
4,1,4,$2,$3,$4,$5,$6,$7,$8,$9,$2,$3,0*
0 Add four circle primitives for the rounded corners*
1,1,$1+$1,$2,$3*
1,1,$1+$1,$4,$5*
1,1,$1+$1,$6,$7*
1,1,$1+$1,$8,$9*
0 Add four rect primitives between the rounded corners*
20,1,$1+$1,$2,$3,$4,$5,0*
20,1,$1+$1,$4,$5,$6,$7,0*
20,1,$1+$1,$6,$7,$8,$9,0*
20,1,$1+$1,$8,$9,$2,$3,0*%
G04 Aperture macros list end*
%ADD10C,0.175000*%
%ADD11C,0.000000*%
%ADD12C,0.100000*%
%ADD13RoundRect,0.050000X-0.175000X-0.975000X0.175000X-0.975000X0.175000X0.975000X-0.175000X0.975000X0*%
%ADD14C,0.554000*%
G04 APERTURE END LIST*
D10*
X143699114Y-94293702D02*
X142949114Y-94293702D01*
X142949114Y-94293702D02*
X142949114Y-94472273D01*
X142949114Y-94472273D02*
X142984828Y-94579416D01*
X142984828Y-94579416D02*
X143056257Y-94650845D01*
X143056257Y-94650845D02*
X143127685Y-94686559D01*
X143127685Y-94686559D02*
X143270542Y-94722273D01*
X143270542Y-94722273D02*
X143377685Y-94722273D01*
X143377685Y-94722273D02*
X143520542Y-94686559D01*
X143520542Y-94686559D02*
X143591971Y-94650845D01*
X143591971Y-94650845D02*
X143663400Y-94579416D01*
X143663400Y-94579416D02*
X143699114Y-94472273D01*
X143699114Y-94472273D02*
X143699114Y-94293702D01*
X143199114Y-95365131D02*
X143699114Y-95365131D01*
X143199114Y-95043702D02*
X143591971Y-95043702D01*
X143591971Y-95043702D02*
X143663400Y-95079416D01*
X143663400Y-95079416D02*
X143699114Y-95150845D01*
X143699114Y-95150845D02*
X143699114Y-95257988D01*
X143699114Y-95257988D02*
X143663400Y-95329416D01*
X143663400Y-95329416D02*
X143627685Y-95365131D01*
X143699114Y-95722273D02*
X143199114Y-95722273D01*
X143270542Y-95722273D02*
X143234828Y-95757987D01*
X143234828Y-95757987D02*
X143199114Y-95829416D01*
X143199114Y-95829416D02*
X143199114Y-95936559D01*
X143199114Y-95936559D02*
X143234828Y-96007987D01*
X143234828Y-96007987D02*
X143306257Y-96043702D01*
X143306257Y-96043702D02*
X143699114Y-96043702D01*
X143306257Y-96043702D02*
X143234828Y-96079416D01*
X143234828Y-96079416D02*
X143199114Y-96150844D01*
X143199114Y-96150844D02*
X143199114Y-96257987D01*
X143199114Y-96257987D02*
X143234828Y-96329416D01*
X143234828Y-96329416D02*
X143306257Y-96365130D01*
X143306257Y-96365130D02*
X143699114Y-96365130D01*
X143199114Y-96722273D02*
X143949114Y-96722273D01*
X143234828Y-96722273D02*
X143199114Y-96793702D01*
X143199114Y-96793702D02*
X143199114Y-96936559D01*
X143199114Y-96936559D02*
X143234828Y-97007987D01*
X143234828Y-97007987D02*
X143270542Y-97043702D01*
X143270542Y-97043702D02*
X143341971Y-97079416D01*
X143341971Y-97079416D02*
X143556257Y-97079416D01*
X143556257Y-97079416D02*
X143627685Y-97043702D01*
X143627685Y-97043702D02*
X143663400Y-97007987D01*
X143663400Y-97007987D02*
X143699114Y-96936559D01*
X143699114Y-96936559D02*
X143699114Y-96793702D01*
X143699114Y-96793702D02*
X143663400Y-96722273D01*
X143699114Y-97507987D02*
X143663400Y-97436558D01*
X143663400Y-97436558D02*
X143591971Y-97400844D01*
X143591971Y-97400844D02*
X142949114Y-97400844D01*
X143699114Y-97793701D02*
X143199114Y-97793701D01*
X142949114Y-97793701D02*
X142984828Y-97757987D01*
X142984828Y-97757987D02*
X143020542Y-97793701D01*
X143020542Y-97793701D02*
X142984828Y-97829415D01*
X142984828Y-97829415D02*
X142949114Y-97793701D01*
X142949114Y-97793701D02*
X143020542Y-97793701D01*
X143199114Y-98150844D02*
X143699114Y-98150844D01*
X143270542Y-98150844D02*
X143234828Y-98186558D01*
X143234828Y-98186558D02*
X143199114Y-98257987D01*
X143199114Y-98257987D02*
X143199114Y-98365130D01*
X143199114Y-98365130D02*
X143234828Y-98436558D01*
X143234828Y-98436558D02*
X143306257Y-98472273D01*
X143306257Y-98472273D02*
X143699114Y-98472273D01*
X143199114Y-99150844D02*
X143806257Y-99150844D01*
X143806257Y-99150844D02*
X143877685Y-99115129D01*
X143877685Y-99115129D02*
X143913400Y-99079415D01*
X143913400Y-99079415D02*
X143949114Y-99007986D01*
X143949114Y-99007986D02*
X143949114Y-98900844D01*
X143949114Y-98900844D02*
X143913400Y-98829415D01*
X143663400Y-99150844D02*
X143699114Y-99079415D01*
X143699114Y-99079415D02*
X143699114Y-98936558D01*
X143699114Y-98936558D02*
X143663400Y-98865129D01*
X143663400Y-98865129D02*
X143627685Y-98829415D01*
X143627685Y-98829415D02*
X143556257Y-98793701D01*
X143556257Y-98793701D02*
X143341971Y-98793701D01*
X143341971Y-98793701D02*
X143270542Y-98829415D01*
X143270542Y-98829415D02*
X143234828Y-98865129D01*
X143234828Y-98865129D02*
X143199114Y-98936558D01*
X143199114Y-98936558D02*
X143199114Y-99079415D01*
X143199114Y-99079415D02*
X143234828Y-99150844D01*
X143770542Y-99329415D02*
X143770542Y-99900843D01*
X142949114Y-100400844D02*
X142949114Y-100257986D01*
X142949114Y-100257986D02*
X142984828Y-100186558D01*
X142984828Y-100186558D02*
X143020542Y-100150844D01*
X143020542Y-100150844D02*
X143127685Y-100079415D01*
X143127685Y-100079415D02*
X143270542Y-100043701D01*
X143270542Y-100043701D02*
X143556257Y-100043701D01*
X143556257Y-100043701D02*
X143627685Y-100079415D01*
X143627685Y-100079415D02*
X143663400Y-100115129D01*
X143663400Y-100115129D02*
X143699114Y-100186558D01*
X143699114Y-100186558D02*
X143699114Y-100329415D01*
X143699114Y-100329415D02*
X143663400Y-100400844D01*
X143663400Y-100400844D02*
X143627685Y-100436558D01*
X143627685Y-100436558D02*
X143556257Y-100472272D01*
X143556257Y-100472272D02*
X143377685Y-100472272D01*
X143377685Y-100472272D02*
X143306257Y-100436558D01*
X143306257Y-100436558D02*
X143270542Y-100400844D01*
X143270542Y-100400844D02*
X143234828Y-100329415D01*
X143234828Y-100329415D02*
X143234828Y-100186558D01*
X143234828Y-100186558D02*
X143270542Y-100115129D01*
X143270542Y-100115129D02*
X143306257Y-100079415D01*
X143306257Y-100079415D02*
X143377685Y-100043701D01*
X143699114Y-100793701D02*
X142949114Y-100793701D01*
X142949114Y-100793701D02*
X142949114Y-100972272D01*
X142949114Y-100972272D02*
X142984828Y-101079415D01*
X142984828Y-101079415D02*
X143056257Y-101150844D01*
X143056257Y-101150844D02*
X143127685Y-101186558D01*
X143127685Y-101186558D02*
X143270542Y-101222272D01*
X143270542Y-101222272D02*
X143377685Y-101222272D01*
X143377685Y-101222272D02*
X143520542Y-101186558D01*
X143520542Y-101186558D02*
X143591971Y-101150844D01*
X143591971Y-101150844D02*
X143663400Y-101079415D01*
X143663400Y-101079415D02*
X143699114Y-100972272D01*
X143699114Y-100972272D02*
X143699114Y-100793701D01*
X143699114Y-101650844D02*
X143663400Y-101579415D01*
X143663400Y-101579415D02*
X143627685Y-101543701D01*
X143627685Y-101543701D02*
X143556257Y-101507987D01*
X143556257Y-101507987D02*
X143341971Y-101507987D01*
X143341971Y-101507987D02*
X143270542Y-101543701D01*
X143270542Y-101543701D02*
X143234828Y-101579415D01*
X143234828Y-101579415D02*
X143199114Y-101650844D01*
X143199114Y-101650844D02*
X143199114Y-101757987D01*
X143199114Y-101757987D02*
X143234828Y-101829415D01*
X143234828Y-101829415D02*
X143270542Y-101865130D01*
X143270542Y-101865130D02*
X143341971Y-101900844D01*
X143341971Y-101900844D02*
X143556257Y-101900844D01*
X143556257Y-101900844D02*
X143627685Y-101865130D01*
X143627685Y-101865130D02*
X143663400Y-101829415D01*
X143663400Y-101829415D02*
X143699114Y-101757987D01*
X143699114Y-101757987D02*
X143699114Y-101650844D01*
X143306257Y-102472272D02*
X143306257Y-102222272D01*
X143699114Y-102222272D02*
X142949114Y-102222272D01*
X142949114Y-102222272D02*
X142949114Y-102579415D01*
X143699114Y-103436558D02*
X142949114Y-103436558D01*
X143699114Y-103793701D02*
X142949114Y-103793701D01*
X142949114Y-103793701D02*
X143484828Y-104043701D01*
X143484828Y-104043701D02*
X142949114Y-104293701D01*
X142949114Y-104293701D02*
X143699114Y-104293701D01*
X142949114Y-104650844D02*
X143556257Y-104650844D01*
X143556257Y-104650844D02*
X143627685Y-104686558D01*
X143627685Y-104686558D02*
X143663400Y-104722273D01*
X143663400Y-104722273D02*
X143699114Y-104793701D01*
X143699114Y-104793701D02*
X143699114Y-104936558D01*
X143699114Y-104936558D02*
X143663400Y-105007987D01*
X143663400Y-105007987D02*
X143627685Y-105043701D01*
X143627685Y-105043701D02*
X143556257Y-105079415D01*
X143556257Y-105079415D02*
X142949114Y-105079415D01*
X143199114Y-105936558D02*
X143699114Y-106115130D01*
X143699114Y-106115130D02*
X143199114Y-106293701D01*
X142949114Y-106722273D02*
X142949114Y-106793702D01*
X142949114Y-106793702D02*
X142984828Y-106865130D01*
X142984828Y-106865130D02*
X143020542Y-106900845D01*
X143020542Y-106900845D02*
X143091971Y-106936559D01*
X143091971Y-106936559D02*
X143234828Y-106972273D01*
X143234828Y-106972273D02*
X143413400Y-106972273D01*
X143413400Y-106972273D02*
X143556257Y-106936559D01*
X143556257Y-106936559D02*
X143627685Y-106900845D01*
X143627685Y-106900845D02*
X143663400Y-106865130D01*
X143663400Y-106865130D02*
X143699114Y-106793702D01*
X143699114Y-106793702D02*
X143699114Y-106722273D01*
X143699114Y-106722273D02*
X143663400Y-106650845D01*
X143663400Y-106650845D02*
X143627685Y-106615130D01*
X143627685Y-106615130D02*
X143556257Y-106579416D01*
X143556257Y-106579416D02*
X143413400Y-106543702D01*
X143413400Y-106543702D02*
X143234828Y-106543702D01*
X143234828Y-106543702D02*
X143091971Y-106579416D01*
X143091971Y-106579416D02*
X143020542Y-106615130D01*
X143020542Y-106615130D02*
X142984828Y-106650845D01*
X142984828Y-106650845D02*
X142949114Y-106722273D01*
X143627685Y-107293702D02*
X143663400Y-107329416D01*
X143663400Y-107329416D02*
X143699114Y-107293702D01*
X143699114Y-107293702D02*
X143663400Y-107257988D01*
X143663400Y-107257988D02*
X143627685Y-107293702D01*
X143627685Y-107293702D02*
X143699114Y-107293702D01*
X143699114Y-108043702D02*
X143699114Y-107615131D01*
X143699114Y-107829416D02*
X142949114Y-107829416D01*
X142949114Y-107829416D02*
X143056257Y-107757988D01*
X143056257Y-107757988D02*
X143127685Y-107686559D01*
X143127685Y-107686559D02*
X143163400Y-107615131D01*
D11*
%TO.C,G\u002A\u002A\u002A*%
G36*
X141259590Y-102148960D02*
G01*
X141285638Y-102152981D01*
X141307029Y-102160145D01*
X141332225Y-102176217D01*
X141354979Y-102198753D01*
X141372756Y-102225332D01*
X141383924Y-102253965D01*
X141385657Y-102265771D01*
X141386491Y-102282361D01*
X141386206Y-102299937D01*
X141381619Y-102329823D01*
X141369758Y-102360611D01*
X141351448Y-102387279D01*
X141327350Y-102408892D01*
X141298124Y-102424517D01*
X141297228Y-102424862D01*
X141271676Y-102431407D01*
X141242520Y-102433908D01*
X141213230Y-102432302D01*
X141187278Y-102426527D01*
X141186399Y-102426221D01*
X141164348Y-102415001D01*
X141142635Y-102397956D01*
X141123519Y-102377165D01*
X141109257Y-102354707D01*
X141106469Y-102348855D01*
X141101902Y-102337362D01*
X141099263Y-102325898D01*
X141098047Y-102311711D01*
X141097747Y-102292047D01*
X141097854Y-102277472D01*
X141098671Y-102262384D01*
X141100790Y-102250579D01*
X141104796Y-102239183D01*
X141111269Y-102225324D01*
X141113472Y-102221010D01*
X141132615Y-102192949D01*
X141156853Y-102171107D01*
X141185690Y-102155946D01*
X141205534Y-102150765D01*
X141231888Y-102148187D01*
X141259590Y-102148960D01*
G37*
G36*
X140837106Y-98741908D02*
G01*
X140884688Y-98742198D01*
X140926176Y-98742748D01*
X140962199Y-98743585D01*
X140993388Y-98744735D01*
X141020370Y-98746224D01*
X141043777Y-98748079D01*
X141064237Y-98750326D01*
X141082381Y-98752991D01*
X141098837Y-98756101D01*
X141114235Y-98759682D01*
X141128905Y-98763665D01*
X141180992Y-98782592D01*
X141227451Y-98807508D01*
X141268201Y-98838319D01*
X141303160Y-98874928D01*
X141332247Y-98917238D01*
X141355380Y-98965153D01*
X141372478Y-99018578D01*
X141383459Y-99077415D01*
X141386606Y-99109688D01*
X141387065Y-99169139D01*
X141380534Y-99226299D01*
X141367196Y-99280514D01*
X141347233Y-99331129D01*
X141320828Y-99377491D01*
X141288163Y-99418943D01*
X141259756Y-99449772D01*
X141317771Y-99449772D01*
X141375786Y-99449772D01*
X141375786Y-99554816D01*
X141375786Y-99659860D01*
X140906179Y-99659860D01*
X140436571Y-99659860D01*
X140436571Y-99548803D01*
X140436571Y-99437746D01*
X140709479Y-99436427D01*
X140726630Y-99436345D01*
X140780349Y-99436092D01*
X140826703Y-99435832D01*
X140866369Y-99435504D01*
X140900023Y-99435047D01*
X140928341Y-99434397D01*
X140951999Y-99433495D01*
X140971674Y-99432277D01*
X140988042Y-99430682D01*
X141001779Y-99428648D01*
X141013562Y-99426114D01*
X141024067Y-99423017D01*
X141033971Y-99419295D01*
X141043949Y-99414888D01*
X141054678Y-99409733D01*
X141066834Y-99403768D01*
X141084010Y-99394454D01*
X141116759Y-99370636D01*
X141144007Y-99341993D01*
X141164595Y-99309640D01*
X141177041Y-99280124D01*
X141187715Y-99240565D01*
X141192729Y-99199942D01*
X141192204Y-99159533D01*
X141186265Y-99120617D01*
X141175035Y-99084472D01*
X141158637Y-99052378D01*
X141137194Y-99025613D01*
X141135158Y-99023628D01*
X141109923Y-99003597D01*
X141079860Y-98987683D01*
X141043455Y-98975070D01*
X141042595Y-98974829D01*
X141036213Y-98973111D01*
X141029851Y-98971628D01*
X141022874Y-98970360D01*
X141014646Y-98969285D01*
X141004532Y-98968384D01*
X140991898Y-98967636D01*
X140976107Y-98967019D01*
X140956525Y-98966513D01*
X140932516Y-98966098D01*
X140903444Y-98965753D01*
X140868675Y-98965456D01*
X140827573Y-98965188D01*
X140779503Y-98964928D01*
X140723830Y-98964654D01*
X140436438Y-98963273D01*
X140437534Y-98853287D01*
X140438631Y-98743301D01*
X140694032Y-98742119D01*
X140721141Y-98742005D01*
X140782800Y-98741852D01*
X140837106Y-98741908D01*
G37*
G36*
X141375786Y-96660774D02*
G01*
X141375786Y-96771808D01*
X141098759Y-96773254D01*
X141081349Y-96773344D01*
X141027083Y-96773626D01*
X140980203Y-96773914D01*
X140940052Y-96774264D01*
X140905972Y-96774735D01*
X140877304Y-96775384D01*
X140853390Y-96776268D01*
X140833571Y-96777446D01*
X140817189Y-96778974D01*
X140803587Y-96780911D01*
X140792105Y-96783314D01*
X140782085Y-96786241D01*
X140772870Y-96789749D01*
X140763800Y-96793895D01*
X140754217Y-96798738D01*
X140743464Y-96804335D01*
X140720902Y-96817923D01*
X140689486Y-96844508D01*
X140663095Y-96877087D01*
X140642234Y-96914993D01*
X140627409Y-96957557D01*
X140624378Y-96972270D01*
X140621394Y-96998470D01*
X140620237Y-97027396D01*
X140620904Y-97056356D01*
X140623388Y-97082661D01*
X140627685Y-97103618D01*
X140632273Y-97117707D01*
X140648118Y-97153111D01*
X140668635Y-97182295D01*
X140694482Y-97206073D01*
X140726322Y-97225261D01*
X140734819Y-97229366D01*
X140745399Y-97234168D01*
X140755834Y-97238306D01*
X140766769Y-97241830D01*
X140778850Y-97244790D01*
X140792721Y-97247233D01*
X140809027Y-97249211D01*
X140828413Y-97250771D01*
X140851523Y-97251963D01*
X140879003Y-97252837D01*
X140911497Y-97253441D01*
X140949651Y-97253826D01*
X140994108Y-97254039D01*
X141045515Y-97254131D01*
X141104515Y-97254151D01*
X141375921Y-97254151D01*
X141374824Y-97364344D01*
X141373727Y-97474537D01*
X141114207Y-97475742D01*
X141086074Y-97475861D01*
X141024610Y-97476014D01*
X140970494Y-97475963D01*
X140923098Y-97475681D01*
X140881796Y-97475144D01*
X140845961Y-97474325D01*
X140814967Y-97473199D01*
X140788186Y-97471740D01*
X140764991Y-97469922D01*
X140744758Y-97467720D01*
X140726857Y-97465107D01*
X140710663Y-97462058D01*
X140695549Y-97458548D01*
X140687352Y-97456378D01*
X140635836Y-97438201D01*
X140589367Y-97413574D01*
X140548148Y-97382702D01*
X140512387Y-97345794D01*
X140482288Y-97303057D01*
X140458058Y-97254698D01*
X140439903Y-97200925D01*
X140439583Y-97199697D01*
X140435495Y-97178383D01*
X140432284Y-97151178D01*
X140430034Y-97120240D01*
X140428826Y-97087724D01*
X140428744Y-97055789D01*
X140429871Y-97026592D01*
X140432288Y-97002289D01*
X140438370Y-96969431D01*
X140453802Y-96916535D01*
X140475369Y-96867185D01*
X140502556Y-96822478D01*
X140534847Y-96783513D01*
X140557835Y-96759827D01*
X140497203Y-96759827D01*
X140436571Y-96759827D01*
X140436571Y-96654783D01*
X140436571Y-96549740D01*
X140906179Y-96549740D01*
X141375786Y-96549740D01*
X141375786Y-96660774D01*
G37*
G36*
X140932654Y-93701314D02*
G01*
X140971667Y-93702172D01*
X141007832Y-93703704D01*
X141039438Y-93705909D01*
X141064774Y-93708785D01*
X141070753Y-93709688D01*
X141105016Y-93715358D01*
X141140254Y-93721929D01*
X141174179Y-93728931D01*
X141204501Y-93735897D01*
X141228931Y-93742357D01*
X141239911Y-93746045D01*
X141247824Y-93749808D01*
X141249528Y-93752388D01*
X141249465Y-93752442D01*
X141244861Y-93756293D01*
X141235326Y-93764228D01*
X141222218Y-93775117D01*
X141206892Y-93787832D01*
X141174650Y-93815041D01*
X141132626Y-93851621D01*
X141089629Y-93890119D01*
X141048180Y-93928269D01*
X141010804Y-93963809D01*
X140960927Y-94012211D01*
X140903688Y-94012216D01*
X140861811Y-94013129D01*
X140776930Y-94020695D01*
X140694616Y-94035728D01*
X140615253Y-94058002D01*
X140539222Y-94087290D01*
X140466905Y-94123366D01*
X140398686Y-94166002D01*
X140334945Y-94214972D01*
X140276065Y-94270049D01*
X140222429Y-94331007D01*
X140174418Y-94397619D01*
X140132415Y-94469658D01*
X140112546Y-94509958D01*
X140085697Y-94574595D01*
X140065509Y-94639089D01*
X140051582Y-94705101D01*
X140043513Y-94774294D01*
X140040901Y-94848330D01*
X140043033Y-94913095D01*
X140052150Y-94992895D01*
X140068569Y-95069333D01*
X140092435Y-95142917D01*
X140123889Y-95214154D01*
X140163073Y-95283551D01*
X140185928Y-95319955D01*
X140173344Y-95381822D01*
X140170686Y-95395084D01*
X140157232Y-95469758D01*
X140146217Y-95545781D01*
X140137139Y-95626535D01*
X140130103Y-95698157D01*
X140080425Y-95647132D01*
X140061456Y-95627278D01*
X140005285Y-95563222D01*
X139955489Y-95497427D01*
X139910674Y-95427951D01*
X139869449Y-95352851D01*
X139864215Y-95342439D01*
X139828752Y-95264828D01*
X139800354Y-95188232D01*
X139778502Y-95110851D01*
X139762677Y-95030885D01*
X139752360Y-94946533D01*
X139752005Y-94942323D01*
X139750230Y-94910280D01*
X139749459Y-94873139D01*
X139749635Y-94833118D01*
X139750706Y-94792435D01*
X139752615Y-94753308D01*
X139755309Y-94717956D01*
X139758731Y-94688596D01*
X139762792Y-94663041D01*
X139782936Y-94569336D01*
X139810949Y-94477733D01*
X139846664Y-94388610D01*
X139889916Y-94302347D01*
X139940540Y-94219321D01*
X139998370Y-94139911D01*
X139999538Y-94138446D01*
X140016674Y-94118236D01*
X140038540Y-94094217D01*
X140063713Y-94067807D01*
X140090772Y-94040425D01*
X140118293Y-94013487D01*
X140144855Y-93988411D01*
X140169034Y-93966615D01*
X140189409Y-93949517D01*
X140207963Y-93935100D01*
X140288095Y-93879247D01*
X140372362Y-93830446D01*
X140460438Y-93788837D01*
X140551998Y-93754561D01*
X140646716Y-93727761D01*
X140744266Y-93708578D01*
X140754711Y-93707167D01*
X140782315Y-93704640D01*
X140815622Y-93702792D01*
X140852921Y-93701623D01*
X140892501Y-93701130D01*
X140932654Y-93701314D01*
G37*
G36*
X140955809Y-105738039D02*
G01*
X141014794Y-105747098D01*
X141071699Y-105762846D01*
X141125317Y-105785285D01*
X141169983Y-105810821D01*
X141218231Y-105846868D01*
X141261092Y-105888744D01*
X141298251Y-105935980D01*
X141329393Y-105988109D01*
X141354203Y-106044662D01*
X141372368Y-106105172D01*
X141383571Y-106169171D01*
X141387568Y-106222596D01*
X141386269Y-106286486D01*
X141378231Y-106347431D01*
X141363642Y-106404964D01*
X141342692Y-106458622D01*
X141315569Y-106507937D01*
X141282461Y-106552444D01*
X141243557Y-106591676D01*
X141199045Y-106625170D01*
X141196622Y-106626724D01*
X141183945Y-106634570D01*
X141174279Y-106640093D01*
X141169552Y-106642182D01*
X141168268Y-106640911D01*
X141163212Y-106633666D01*
X141155033Y-106620872D01*
X141144348Y-106603519D01*
X141131771Y-106582598D01*
X141117920Y-106559099D01*
X141069396Y-106476016D01*
X141083563Y-106465590D01*
X141090646Y-106460107D01*
X141111244Y-106441638D01*
X141131580Y-106420241D01*
X141149427Y-106398371D01*
X141162559Y-106378483D01*
X141168744Y-106366906D01*
X141181925Y-106337210D01*
X141190493Y-106307673D01*
X141195087Y-106275647D01*
X141196345Y-106238484D01*
X141196041Y-106223119D01*
X141191918Y-106178443D01*
X141182600Y-106138941D01*
X141167581Y-106103316D01*
X141146355Y-106070270D01*
X141118417Y-106038504D01*
X141104842Y-106025554D01*
X141074961Y-106001950D01*
X141043430Y-105984140D01*
X141008785Y-105971531D01*
X140969567Y-105963528D01*
X140924313Y-105959536D01*
X140895085Y-105959115D01*
X140843995Y-105963334D01*
X140797625Y-105974164D01*
X140755730Y-105991695D01*
X140718065Y-106016016D01*
X140684385Y-106047216D01*
X140669174Y-106065529D01*
X140645931Y-106102651D01*
X140629031Y-106143080D01*
X140618464Y-106185734D01*
X140614223Y-106229531D01*
X140616296Y-106273391D01*
X140624677Y-106316232D01*
X140639355Y-106356973D01*
X140660321Y-106394532D01*
X140687567Y-106427829D01*
X140692605Y-106432873D01*
X140706583Y-106446312D01*
X140719399Y-106457925D01*
X140728795Y-106465641D01*
X140742962Y-106476016D01*
X140694438Y-106559099D01*
X140685940Y-106573566D01*
X140672776Y-106595625D01*
X140661252Y-106614507D01*
X140651986Y-106629221D01*
X140645595Y-106638777D01*
X140642696Y-106642182D01*
X140640993Y-106641572D01*
X140633418Y-106637448D01*
X140621585Y-106630291D01*
X140607194Y-106621108D01*
X140605582Y-106620048D01*
X140563306Y-106587236D01*
X140526154Y-106548236D01*
X140494417Y-106503525D01*
X140468388Y-106453581D01*
X140448361Y-106398880D01*
X140434627Y-106339899D01*
X140433385Y-106331841D01*
X140430497Y-106303258D01*
X140428848Y-106269971D01*
X140428439Y-106234552D01*
X140429269Y-106199568D01*
X140431338Y-106167591D01*
X140434646Y-106141189D01*
X140438166Y-106122554D01*
X140454930Y-106059459D01*
X140478284Y-106000812D01*
X140508006Y-105946932D01*
X140543869Y-105898136D01*
X140585650Y-105854741D01*
X140633125Y-105817066D01*
X140686068Y-105785426D01*
X140723191Y-105768687D01*
X140778435Y-105750993D01*
X140836423Y-105739987D01*
X140895950Y-105735668D01*
X140955809Y-105738039D01*
G37*
G36*
X140968978Y-100940876D02*
G01*
X141016671Y-100946964D01*
X141059851Y-100956556D01*
X141100371Y-100970087D01*
X141140088Y-100987994D01*
X141148755Y-100992531D01*
X141193788Y-101020760D01*
X141236308Y-101055022D01*
X141274885Y-101093908D01*
X141308090Y-101136006D01*
X141334495Y-101179905D01*
X141338244Y-101187535D01*
X141354211Y-101226130D01*
X141367943Y-101269235D01*
X141378585Y-101313865D01*
X141385282Y-101357038D01*
X141387325Y-101382413D01*
X141386934Y-101440622D01*
X141379603Y-101497291D01*
X141365599Y-101551520D01*
X141345189Y-101602409D01*
X141318640Y-101649058D01*
X141286220Y-101690569D01*
X141259992Y-101719306D01*
X141316859Y-101720454D01*
X141373727Y-101721601D01*
X141374827Y-101825615D01*
X141375928Y-101929629D01*
X140722869Y-101929629D01*
X140069811Y-101929629D01*
X140070909Y-101821496D01*
X140072008Y-101713363D01*
X140310283Y-101712299D01*
X140548559Y-101711236D01*
X140528238Y-101689001D01*
X140504460Y-101660346D01*
X140479707Y-101622301D01*
X140459289Y-101579832D01*
X140442268Y-101531221D01*
X140438723Y-101517340D01*
X140433666Y-101487747D01*
X140430228Y-101453674D01*
X140614833Y-101453674D01*
X140618655Y-101488757D01*
X140630041Y-101534301D01*
X140648073Y-101575614D01*
X140672299Y-101612313D01*
X140702268Y-101644015D01*
X140737527Y-101670337D01*
X140777623Y-101690895D01*
X140822105Y-101705308D01*
X140870520Y-101713191D01*
X140922415Y-101714163D01*
X140933808Y-101713515D01*
X140966517Y-101710201D01*
X140994824Y-101704508D01*
X141021563Y-101695748D01*
X141049565Y-101683231D01*
X141071917Y-101670902D01*
X141109149Y-101643456D01*
X141140483Y-101610496D01*
X141165498Y-101572500D01*
X141183771Y-101529952D01*
X141188413Y-101514820D01*
X141192812Y-101495575D01*
X141195415Y-101475028D01*
X141196781Y-101449723D01*
X141197041Y-101440076D01*
X141196889Y-101412225D01*
X141194906Y-101388782D01*
X141190751Y-101366894D01*
X141184082Y-101343705D01*
X141173824Y-101317389D01*
X141152101Y-101278942D01*
X141124266Y-101244592D01*
X141091338Y-101215525D01*
X141054337Y-101192925D01*
X141035939Y-101184259D01*
X141012323Y-101174732D01*
X140989876Y-101168181D01*
X140966261Y-101164109D01*
X140939141Y-101162019D01*
X140906179Y-101161414D01*
X140904036Y-101161414D01*
X140873366Y-101161864D01*
X140848517Y-101163490D01*
X140827242Y-101166756D01*
X140807291Y-101172123D01*
X140786415Y-101180056D01*
X140762366Y-101191016D01*
X140723179Y-101214026D01*
X140689161Y-101242987D01*
X140661098Y-101277103D01*
X140639312Y-101315802D01*
X140624125Y-101358512D01*
X140615858Y-101404660D01*
X140614833Y-101453674D01*
X140430228Y-101453674D01*
X140430224Y-101453639D01*
X140428482Y-101417309D01*
X140428525Y-101381048D01*
X140430439Y-101347149D01*
X140434310Y-101317904D01*
X140443651Y-101276367D01*
X140463250Y-101217261D01*
X140489388Y-101163095D01*
X140522130Y-101113742D01*
X140561539Y-101069075D01*
X140586683Y-101045844D01*
X140633954Y-101010291D01*
X140684840Y-100981895D01*
X140739556Y-100960578D01*
X140798316Y-100946263D01*
X140861338Y-100938874D01*
X140904036Y-100938532D01*
X140928835Y-100938334D01*
X140968978Y-100940876D01*
G37*
G36*
X141995665Y-94487580D02*
G01*
X141999240Y-94497523D01*
X142003951Y-94512997D01*
X142009389Y-94532473D01*
X142015145Y-94554422D01*
X142020811Y-94577315D01*
X142025978Y-94599623D01*
X142030237Y-94619817D01*
X142031519Y-94626469D01*
X142036037Y-94652758D01*
X142040248Y-94682308D01*
X142044372Y-94716775D01*
X142048631Y-94757816D01*
X142048810Y-94759788D01*
X142049790Y-94777157D01*
X142050400Y-94800498D01*
X142050656Y-94827851D01*
X142050573Y-94857255D01*
X142050164Y-94886747D01*
X142049446Y-94914366D01*
X142048433Y-94938150D01*
X142047139Y-94956139D01*
X142037566Y-95031732D01*
X142021963Y-95112461D01*
X142000786Y-95189937D01*
X141973501Y-95266068D01*
X141939578Y-95342766D01*
X141913316Y-95394410D01*
X141869492Y-95469404D01*
X141820857Y-95539695D01*
X141766268Y-95606886D01*
X141704584Y-95672579D01*
X141662723Y-95712217D01*
X141589526Y-95772546D01*
X141511456Y-95826513D01*
X141429028Y-95873860D01*
X141342756Y-95914331D01*
X141253155Y-95947667D01*
X141160739Y-95973612D01*
X141066025Y-95991908D01*
X141046731Y-95994370D01*
X141012114Y-95997379D01*
X140972777Y-95999507D01*
X140930810Y-96000725D01*
X140888306Y-96001003D01*
X140847355Y-96000313D01*
X140810048Y-95998625D01*
X140778479Y-95995910D01*
X140731560Y-95989609D01*
X140643914Y-95972791D01*
X140561205Y-95950028D01*
X140483944Y-95921449D01*
X140466806Y-95914211D01*
X140449387Y-95906872D01*
X140435552Y-95901061D01*
X140427303Y-95897622D01*
X140419357Y-95893397D01*
X140415975Y-95889663D01*
X140416388Y-95887793D01*
X140419947Y-95879106D01*
X140426708Y-95864895D01*
X140436132Y-95846148D01*
X140447681Y-95823852D01*
X140460817Y-95798995D01*
X140475000Y-95772563D01*
X140489691Y-95745543D01*
X140504354Y-95718924D01*
X140518447Y-95693691D01*
X140531434Y-95670832D01*
X140542775Y-95651335D01*
X140551932Y-95636186D01*
X140558366Y-95626373D01*
X140561539Y-95622883D01*
X140562160Y-95623065D01*
X140568402Y-95625328D01*
X140579835Y-95629633D01*
X140594619Y-95635289D01*
X140650543Y-95654277D01*
X140719749Y-95671196D01*
X140793071Y-95682233D01*
X140871517Y-95687577D01*
X140894643Y-95688090D01*
X140969987Y-95686391D01*
X141040861Y-95679152D01*
X141108752Y-95666108D01*
X141175147Y-95646992D01*
X141241533Y-95621541D01*
X141302809Y-95592590D01*
X141377226Y-95549489D01*
X141446729Y-95499792D01*
X141511231Y-95443559D01*
X141549500Y-95404323D01*
X141601203Y-95341684D01*
X141646046Y-95274715D01*
X141683815Y-95203831D01*
X141714298Y-95129449D01*
X141737281Y-95051985D01*
X141752551Y-94971856D01*
X141754916Y-94950763D01*
X141757157Y-94918596D01*
X141758514Y-94882712D01*
X141758964Y-94845488D01*
X141758483Y-94809305D01*
X141757051Y-94776542D01*
X141754644Y-94749577D01*
X141754499Y-94748440D01*
X141751772Y-94730267D01*
X141747884Y-94708277D01*
X141743253Y-94684460D01*
X141738295Y-94660808D01*
X141733425Y-94639312D01*
X141729061Y-94621963D01*
X141725618Y-94610752D01*
X141724976Y-94608936D01*
X141724494Y-94604773D01*
X141726770Y-94600944D01*
X141732992Y-94596517D01*
X141744346Y-94590559D01*
X141762020Y-94582136D01*
X141796932Y-94565877D01*
X141836863Y-94547620D01*
X141873648Y-94531174D01*
X141906677Y-94516794D01*
X141935341Y-94504735D01*
X141959030Y-94495254D01*
X141977137Y-94488605D01*
X141989050Y-94485043D01*
X141994162Y-94484825D01*
X141995665Y-94487580D01*
G37*
G36*
X140906615Y-103552659D02*
G01*
X141077132Y-103552659D01*
X141717694Y-103552659D01*
X141717694Y-103661822D01*
X141717694Y-103770985D01*
X141491129Y-103770985D01*
X141464744Y-103771007D01*
X141423900Y-103771134D01*
X141386089Y-103771362D01*
X141352055Y-103771681D01*
X141322541Y-103772081D01*
X141298291Y-103772550D01*
X141280049Y-103773078D01*
X141268559Y-103773655D01*
X141264564Y-103774268D01*
X141266125Y-103777146D01*
X141272270Y-103784437D01*
X141281481Y-103793835D01*
X141292925Y-103805546D01*
X141322043Y-103842914D01*
X141345931Y-103885479D01*
X141364485Y-103932293D01*
X141377603Y-103982408D01*
X141385181Y-104034877D01*
X141387116Y-104088752D01*
X141383307Y-104143085D01*
X141373649Y-104196930D01*
X141358040Y-104249337D01*
X141336377Y-104299360D01*
X141332637Y-104306552D01*
X141300573Y-104358666D01*
X141262933Y-104404809D01*
X141219958Y-104444831D01*
X141171888Y-104478585D01*
X141118964Y-104505923D01*
X141061426Y-104526695D01*
X140999514Y-104540755D01*
X140933470Y-104547952D01*
X140883087Y-104548506D01*
X140819891Y-104542672D01*
X140759802Y-104529696D01*
X140703243Y-104509873D01*
X140650637Y-104483498D01*
X140602407Y-104450867D01*
X140558974Y-104412276D01*
X140520763Y-104368020D01*
X140488196Y-104318394D01*
X140461696Y-104263695D01*
X140441685Y-104204217D01*
X140437992Y-104189892D01*
X140435247Y-104177151D01*
X140433305Y-104164359D01*
X140432023Y-104149880D01*
X140431254Y-104132075D01*
X140430854Y-104109306D01*
X140430678Y-104079937D01*
X140430670Y-104077219D01*
X140430687Y-104066012D01*
X140614940Y-104066012D01*
X140614978Y-104066678D01*
X140621597Y-104115015D01*
X140635370Y-104159453D01*
X140656001Y-104199604D01*
X140683191Y-104235078D01*
X140716641Y-104265484D01*
X140756056Y-104290434D01*
X140801135Y-104309537D01*
X140809308Y-104312221D01*
X140820744Y-104315542D01*
X140831753Y-104317850D01*
X140844068Y-104319327D01*
X140859422Y-104320156D01*
X140879548Y-104320519D01*
X140906179Y-104320600D01*
X140923748Y-104320573D01*
X140946093Y-104320336D01*
X140963021Y-104319701D01*
X140976265Y-104318487D01*
X140987558Y-104316510D01*
X140998633Y-104313587D01*
X141011223Y-104309537D01*
X141021935Y-104305718D01*
X141064691Y-104285515D01*
X141102435Y-104259375D01*
X141134630Y-104227894D01*
X141160741Y-104191669D01*
X141180232Y-104151299D01*
X141192566Y-104107381D01*
X141194052Y-104098911D01*
X141198283Y-104049667D01*
X141194969Y-104001917D01*
X141184336Y-103956397D01*
X141166609Y-103913839D01*
X141142011Y-103874978D01*
X141110769Y-103840546D01*
X141109538Y-103839423D01*
X141090154Y-103824546D01*
X141065557Y-103809487D01*
X141038371Y-103795719D01*
X141011223Y-103784714D01*
X141003451Y-103782060D01*
X140991955Y-103778546D01*
X140981069Y-103776108D01*
X140969024Y-103774548D01*
X140954051Y-103773667D01*
X140934379Y-103773267D01*
X140908239Y-103773148D01*
X140906615Y-103773146D01*
X140880124Y-103773241D01*
X140859988Y-103773708D01*
X140844424Y-103774714D01*
X140831647Y-103776427D01*
X140819872Y-103779016D01*
X140807314Y-103782649D01*
X140763926Y-103799784D01*
X140723885Y-103823580D01*
X140689548Y-103852929D01*
X140661244Y-103887346D01*
X140639303Y-103926348D01*
X140624052Y-103969449D01*
X140615822Y-104016165D01*
X140614940Y-104066012D01*
X140430687Y-104066012D01*
X140430716Y-104047031D01*
X140431116Y-104023438D01*
X140431969Y-104004918D01*
X140433376Y-103989951D01*
X140435435Y-103977017D01*
X140438248Y-103964595D01*
X140446965Y-103934497D01*
X140468059Y-103882121D01*
X140495459Y-103834864D01*
X140529325Y-103792427D01*
X140556804Y-103762746D01*
X140496688Y-103762746D01*
X140436571Y-103762746D01*
X140436571Y-103657703D01*
X140436571Y-103552659D01*
X140906615Y-103552659D01*
G37*
G36*
X141283270Y-102544981D02*
G01*
X141287630Y-102550026D01*
X141294388Y-102561184D01*
X141302857Y-102577033D01*
X141312351Y-102596152D01*
X141322182Y-102617118D01*
X141331665Y-102638508D01*
X141340111Y-102658902D01*
X141346834Y-102676876D01*
X141348716Y-102682485D01*
X141357303Y-102711889D01*
X141365687Y-102746187D01*
X141373290Y-102782653D01*
X141379534Y-102818566D01*
X141383840Y-102851202D01*
X141384466Y-102858023D01*
X141385829Y-102883730D01*
X141386337Y-102914351D01*
X141386050Y-102947694D01*
X141385025Y-102981572D01*
X141383321Y-103013794D01*
X141380997Y-103042171D01*
X141378113Y-103064514D01*
X141375055Y-103081218D01*
X141360904Y-103137644D01*
X141341965Y-103188390D01*
X141318479Y-103233199D01*
X141290689Y-103271816D01*
X141258838Y-103303983D01*
X141223168Y-103329445D01*
X141183922Y-103347945D01*
X141141342Y-103359227D01*
X141095670Y-103363036D01*
X141088438Y-103362961D01*
X141043659Y-103358770D01*
X141003814Y-103348037D01*
X140968621Y-103330593D01*
X140937800Y-103306264D01*
X140911071Y-103274879D01*
X140888152Y-103236268D01*
X140874389Y-103206747D01*
X140862470Y-103176355D01*
X140852328Y-103144239D01*
X140843508Y-103108770D01*
X140835554Y-103068320D01*
X140828010Y-103021261D01*
X140822856Y-102988234D01*
X140814280Y-102941270D01*
X140805309Y-102901405D01*
X140796030Y-102869017D01*
X140786533Y-102844488D01*
X140775555Y-102823426D01*
X140762658Y-102805742D01*
X140748325Y-102794357D01*
X140731230Y-102788264D01*
X140710046Y-102786457D01*
X140701038Y-102786876D01*
X140676401Y-102793074D01*
X140655281Y-102806558D01*
X140637770Y-102827162D01*
X140623957Y-102854721D01*
X140613932Y-102889070D01*
X140607786Y-102930044D01*
X140605609Y-102977479D01*
X140605782Y-102993757D01*
X140610231Y-103053400D01*
X140620416Y-103111087D01*
X140635991Y-103165215D01*
X140656609Y-103214178D01*
X140674771Y-103250340D01*
X140590728Y-103292302D01*
X140506685Y-103334264D01*
X140493733Y-103308606D01*
X140493033Y-103307215D01*
X140470062Y-103253247D01*
X140451986Y-103193179D01*
X140438926Y-103127614D01*
X140431001Y-103057152D01*
X140428333Y-102982395D01*
X140429132Y-102943876D01*
X140434690Y-102878848D01*
X140445601Y-102819861D01*
X140461932Y-102766716D01*
X140483751Y-102719211D01*
X140511125Y-102677147D01*
X140544123Y-102640325D01*
X140560611Y-102625685D01*
X140598013Y-102599954D01*
X140638221Y-102581954D01*
X140681275Y-102571675D01*
X140727217Y-102569105D01*
X140776086Y-102574231D01*
X140814235Y-102584538D01*
X140851000Y-102602469D01*
X140883611Y-102627433D01*
X140911883Y-102659289D01*
X140935629Y-102697891D01*
X140939740Y-102706028D01*
X140948396Y-102724101D01*
X140955862Y-102741554D01*
X140962427Y-102759482D01*
X140968379Y-102778986D01*
X140974009Y-102801162D01*
X140979606Y-102827108D01*
X140985460Y-102857922D01*
X140991860Y-102894701D01*
X140999096Y-102938545D01*
X141002721Y-102960645D01*
X141008386Y-102993786D01*
X141013374Y-103020563D01*
X141017964Y-103042126D01*
X141022432Y-103059623D01*
X141027056Y-103074202D01*
X141032113Y-103087011D01*
X141037880Y-103099199D01*
X141049798Y-103119197D01*
X141065849Y-103136483D01*
X141084124Y-103146166D01*
X141105265Y-103148558D01*
X141129911Y-103143970D01*
X141148375Y-103135470D01*
X141167173Y-103118632D01*
X141182366Y-103094720D01*
X141193876Y-103063952D01*
X141201625Y-103026545D01*
X141205536Y-102982720D01*
X141205528Y-102932694D01*
X141205445Y-102930553D01*
X141199089Y-102860612D01*
X141185622Y-102794035D01*
X141164703Y-102729520D01*
X141135993Y-102665764D01*
X141128925Y-102651709D01*
X141122232Y-102637740D01*
X141117959Y-102627992D01*
X141116811Y-102624003D01*
X141116983Y-102623853D01*
X141122911Y-102620206D01*
X141134620Y-102613975D01*
X141150794Y-102605787D01*
X141170119Y-102596267D01*
X141191279Y-102586041D01*
X141212958Y-102575735D01*
X141233841Y-102565974D01*
X141252611Y-102557385D01*
X141267955Y-102550593D01*
X141278555Y-102546224D01*
X141283097Y-102544903D01*
X141283270Y-102544981D01*
G37*
G36*
X141648573Y-97570181D02*
G01*
X141656579Y-97580839D01*
X141666097Y-97595080D01*
X141675897Y-97610983D01*
X141684752Y-97626624D01*
X141691432Y-97640079D01*
X141701273Y-97665180D01*
X141712126Y-97700255D01*
X141720571Y-97736182D01*
X141725580Y-97769071D01*
X141726021Y-97773877D01*
X141727388Y-97821153D01*
X141723849Y-97869168D01*
X141715719Y-97915269D01*
X141703313Y-97956800D01*
X141698807Y-97967958D01*
X141676815Y-98008641D01*
X141647102Y-98046837D01*
X141609818Y-98082396D01*
X141565113Y-98115170D01*
X141513138Y-98145011D01*
X141510242Y-98146406D01*
X141499298Y-98151415D01*
X141481627Y-98159341D01*
X141457773Y-98169945D01*
X141428278Y-98182991D01*
X141393685Y-98198243D01*
X141354538Y-98215463D01*
X141311378Y-98234415D01*
X141264748Y-98254862D01*
X141215193Y-98276567D01*
X141163254Y-98299294D01*
X141109474Y-98322804D01*
X141054397Y-98346863D01*
X140998564Y-98371233D01*
X140942520Y-98395676D01*
X140886806Y-98419957D01*
X140831966Y-98443838D01*
X140778543Y-98467083D01*
X140727079Y-98489454D01*
X140678117Y-98510716D01*
X140632201Y-98530630D01*
X140589872Y-98548961D01*
X140551675Y-98565472D01*
X140518151Y-98579925D01*
X140489844Y-98592084D01*
X140467296Y-98601712D01*
X140451050Y-98608573D01*
X140441650Y-98612428D01*
X140440348Y-98612017D01*
X140439038Y-98608230D01*
X140438104Y-98600065D01*
X140437517Y-98586751D01*
X140437246Y-98567515D01*
X140437261Y-98541587D01*
X140437531Y-98508194D01*
X140438631Y-98401911D01*
X140781503Y-98255415D01*
X140784102Y-98254305D01*
X140834266Y-98232843D01*
X140882186Y-98212293D01*
X140927329Y-98192884D01*
X140969160Y-98174848D01*
X141007147Y-98158418D01*
X141040755Y-98143825D01*
X141069451Y-98131301D01*
X141092701Y-98121078D01*
X141109972Y-98113386D01*
X141120729Y-98108458D01*
X141124440Y-98106526D01*
X141124427Y-98106498D01*
X141120282Y-98104386D01*
X141109114Y-98099310D01*
X141091458Y-98091500D01*
X141067847Y-98081187D01*
X141038813Y-98068601D01*
X141004892Y-98053972D01*
X140966615Y-98037529D01*
X140924516Y-98019503D01*
X140879130Y-98000125D01*
X140830989Y-97979623D01*
X140780627Y-97958229D01*
X140436748Y-97812325D01*
X140436660Y-97698012D01*
X140436658Y-97694307D01*
X140436709Y-97664872D01*
X140436870Y-97638442D01*
X140437126Y-97616063D01*
X140437462Y-97598781D01*
X140437862Y-97587645D01*
X140438312Y-97583700D01*
X140441767Y-97585117D01*
X140452346Y-97589636D01*
X140469594Y-97597065D01*
X140493054Y-97607207D01*
X140522270Y-97619864D01*
X140556786Y-97634837D01*
X140596146Y-97651928D01*
X140639894Y-97670940D01*
X140687574Y-97691674D01*
X140738729Y-97713932D01*
X140792905Y-97737517D01*
X140849644Y-97762229D01*
X140908490Y-97787872D01*
X140940166Y-97801677D01*
X141006185Y-97830440D01*
X141065234Y-97856144D01*
X141117714Y-97878956D01*
X141164028Y-97899042D01*
X141204577Y-97916567D01*
X141239762Y-97931699D01*
X141269984Y-97944602D01*
X141295646Y-97955444D01*
X141317148Y-97964390D01*
X141334893Y-97971607D01*
X141349281Y-97977261D01*
X141360714Y-97981517D01*
X141369594Y-97984542D01*
X141376322Y-97986503D01*
X141381300Y-97987564D01*
X141384929Y-97987893D01*
X141387610Y-97987655D01*
X141389745Y-97987017D01*
X141415097Y-97976150D01*
X141449721Y-97957933D01*
X141479821Y-97937906D01*
X141504484Y-97916785D01*
X141522800Y-97895283D01*
X141533856Y-97874115D01*
X141540583Y-97847677D01*
X141543795Y-97811366D01*
X141540827Y-97775044D01*
X141539215Y-97767127D01*
X141531670Y-97741605D01*
X141520949Y-97714893D01*
X141508409Y-97690118D01*
X141495407Y-97670407D01*
X141491278Y-97664995D01*
X141485261Y-97656123D01*
X141482901Y-97651077D01*
X141483166Y-97650558D01*
X141488406Y-97646518D01*
X141499381Y-97639669D01*
X141514800Y-97630699D01*
X141533377Y-97620296D01*
X141553823Y-97609150D01*
X141574850Y-97597947D01*
X141595169Y-97587378D01*
X141613492Y-97578129D01*
X141628530Y-97570891D01*
X141638996Y-97566351D01*
X141643601Y-97565198D01*
X141648573Y-97570181D01*
G37*
G36*
X140944886Y-106743173D02*
G01*
X141007610Y-106751296D01*
X141012474Y-106752245D01*
X141070867Y-106767988D01*
X141125510Y-106790807D01*
X141176037Y-106820281D01*
X141222079Y-106855993D01*
X141263265Y-106897525D01*
X141299228Y-106944457D01*
X141329600Y-106996372D01*
X141354010Y-107052851D01*
X141372090Y-107113474D01*
X141383473Y-107177825D01*
X141385018Y-107195068D01*
X141386198Y-107225036D01*
X141386203Y-107258786D01*
X141385118Y-107293922D01*
X141383029Y-107328046D01*
X141380020Y-107358760D01*
X141376177Y-107383668D01*
X141369191Y-107414516D01*
X141351516Y-107470413D01*
X141328236Y-107520943D01*
X141298966Y-107566875D01*
X141263320Y-107608981D01*
X141234765Y-107638625D01*
X141177155Y-107588385D01*
X141159885Y-107573350D01*
X141142078Y-107557907D01*
X141126822Y-107544738D01*
X141115334Y-107534892D01*
X141108830Y-107529419D01*
X141098114Y-107520694D01*
X141121387Y-107494976D01*
X141131799Y-107482571D01*
X141153869Y-107449907D01*
X141172602Y-107413202D01*
X141186442Y-107375316D01*
X141187178Y-107372673D01*
X141192006Y-107348834D01*
X141195552Y-107319651D01*
X141197700Y-107287607D01*
X141198335Y-107255185D01*
X141197342Y-107224866D01*
X141194606Y-107199134D01*
X141187641Y-107166359D01*
X141172337Y-107121897D01*
X141151319Y-107081496D01*
X141125146Y-107046007D01*
X141094377Y-107016281D01*
X141059570Y-106993172D01*
X141058285Y-106992493D01*
X141041377Y-106984275D01*
X141023083Y-106976433D01*
X141005589Y-106969799D01*
X140991080Y-106965208D01*
X140981742Y-106963492D01*
X140981478Y-106963565D01*
X140980531Y-106965333D01*
X140979700Y-106969810D01*
X140978978Y-106977458D01*
X140978358Y-106988737D01*
X140977832Y-107004108D01*
X140977395Y-107024032D01*
X140977038Y-107048969D01*
X140976755Y-107079380D01*
X140976540Y-107115726D01*
X140976384Y-107158468D01*
X140976282Y-107208066D01*
X140976225Y-107264982D01*
X140976208Y-107329675D01*
X140976204Y-107370550D01*
X140976178Y-107429303D01*
X140976119Y-107480628D01*
X140976020Y-107525022D01*
X140975870Y-107562984D01*
X140975662Y-107595011D01*
X140975386Y-107621601D01*
X140975034Y-107643253D01*
X140974596Y-107660464D01*
X140974065Y-107673732D01*
X140973431Y-107683556D01*
X140972686Y-107690432D01*
X140971820Y-107694859D01*
X140970825Y-107697335D01*
X140969692Y-107698358D01*
X140964385Y-107699500D01*
X140950950Y-107700548D01*
X140932251Y-107700928D01*
X140910026Y-107700687D01*
X140886013Y-107699869D01*
X140861949Y-107698522D01*
X140839573Y-107696690D01*
X140820622Y-107694420D01*
X140765537Y-107683144D01*
X140707403Y-107663839D01*
X140653540Y-107637840D01*
X140604348Y-107605498D01*
X140560228Y-107567166D01*
X140521579Y-107523199D01*
X140488803Y-107473949D01*
X140462300Y-107419769D01*
X140442469Y-107361011D01*
X140438729Y-107344706D01*
X140433734Y-107312603D01*
X140430305Y-107276154D01*
X140428568Y-107238574D01*
X140604535Y-107238574D01*
X140606507Y-107270259D01*
X140611125Y-107297161D01*
X140616468Y-107315244D01*
X140634136Y-107355847D01*
X140658332Y-107393447D01*
X140687981Y-107426529D01*
X140722010Y-107453579D01*
X140729391Y-107458068D01*
X140747871Y-107467472D01*
X140768754Y-107476332D01*
X140789652Y-107483761D01*
X140808178Y-107488870D01*
X140821945Y-107490771D01*
X140832030Y-107490771D01*
X140832030Y-107227375D01*
X140832026Y-107214174D01*
X140831953Y-107168993D01*
X140831794Y-107126482D01*
X140831556Y-107087335D01*
X140831249Y-107052250D01*
X140830879Y-107021922D01*
X140830455Y-106997048D01*
X140829985Y-106978324D01*
X140829478Y-106966447D01*
X140828941Y-106962112D01*
X140828591Y-106961985D01*
X140822327Y-106962346D01*
X140810675Y-106964445D01*
X140795844Y-106967897D01*
X140792722Y-106968714D01*
X140750430Y-106984115D01*
X140712132Y-107006208D01*
X140678553Y-107034278D01*
X140650419Y-107067613D01*
X140628457Y-107105499D01*
X140613393Y-107147221D01*
X140608341Y-107172871D01*
X140605161Y-107205110D01*
X140604535Y-107238574D01*
X140428568Y-107238574D01*
X140428528Y-107237709D01*
X140428491Y-107199616D01*
X140430283Y-107164226D01*
X140433991Y-107133887D01*
X140437444Y-107115841D01*
X140453949Y-107055348D01*
X140477196Y-106998675D01*
X140506847Y-106946359D01*
X140542564Y-106898938D01*
X140584009Y-106856951D01*
X140630844Y-106820934D01*
X140650674Y-106808528D01*
X140703665Y-106781932D01*
X140760561Y-106761917D01*
X140820382Y-106748665D01*
X140828591Y-106747827D01*
X140882151Y-106742357D01*
X140944886Y-106743173D01*
G37*
G36*
X141122241Y-99880906D02*
G01*
X141149601Y-99882803D01*
X141173682Y-99887223D01*
X141197325Y-99894747D01*
X141223370Y-99905954D01*
X141224282Y-99906384D01*
X141240669Y-99915003D01*
X141255492Y-99925015D01*
X141270979Y-99938106D01*
X141289356Y-99955966D01*
X141290658Y-99957291D01*
X141323729Y-99996715D01*
X141349527Y-100039965D01*
X141368112Y-100087164D01*
X141379545Y-100138434D01*
X141379638Y-100139065D01*
X141382098Y-100155448D01*
X141384311Y-100169735D01*
X141385807Y-100178899D01*
X141386702Y-100189065D01*
X141386961Y-100206314D01*
X141386554Y-100227984D01*
X141385581Y-100252094D01*
X141384141Y-100276667D01*
X141382334Y-100299724D01*
X141380259Y-100319287D01*
X141378017Y-100333376D01*
X141375972Y-100342429D01*
X141361218Y-100390721D01*
X141341210Y-100434165D01*
X141316367Y-100471974D01*
X141287111Y-100503364D01*
X141262919Y-100524926D01*
X141319353Y-100524926D01*
X141375786Y-100524926D01*
X141375786Y-100628120D01*
X141375786Y-100731313D01*
X141055506Y-100729942D01*
X140735225Y-100728570D01*
X140694032Y-100717453D01*
X140692432Y-100717018D01*
X140640153Y-100699042D01*
X140593670Y-100675290D01*
X140552936Y-100645707D01*
X140517908Y-100610240D01*
X140488539Y-100568835D01*
X140464784Y-100521437D01*
X140446598Y-100467994D01*
X140433935Y-100408451D01*
X140432445Y-100397573D01*
X140429885Y-100366937D01*
X140428649Y-100331245D01*
X140428682Y-100292651D01*
X140429930Y-100253310D01*
X140432338Y-100215376D01*
X140435852Y-100181005D01*
X140440417Y-100152349D01*
X140443726Y-100137073D01*
X140452053Y-100104163D01*
X140461993Y-100070268D01*
X140472812Y-100037668D01*
X140483776Y-100008641D01*
X140494153Y-99985467D01*
X140496797Y-99980332D01*
X140505847Y-99963868D01*
X140515713Y-99947189D01*
X140525436Y-99931780D01*
X140534058Y-99919127D01*
X140540618Y-99910717D01*
X140544157Y-99908034D01*
X140549495Y-99910511D01*
X140560933Y-99916371D01*
X140576572Y-99924678D01*
X140595139Y-99934726D01*
X140615360Y-99945811D01*
X140635965Y-99957226D01*
X140655678Y-99968265D01*
X140673228Y-99978223D01*
X140687343Y-99986393D01*
X140696748Y-99992070D01*
X140700171Y-99994548D01*
X140698828Y-99997781D01*
X140693783Y-100006156D01*
X140686270Y-100017205D01*
X140677484Y-100030413D01*
X140658269Y-100065678D01*
X140641232Y-100105794D01*
X140627296Y-100148431D01*
X140617384Y-100191258D01*
X140617202Y-100192299D01*
X140615116Y-100209000D01*
X140613434Y-100230978D01*
X140612323Y-100255498D01*
X140611952Y-100279824D01*
X140612146Y-100300367D01*
X140612963Y-100321849D01*
X140614645Y-100339294D01*
X140617445Y-100355078D01*
X140621612Y-100371582D01*
X140624395Y-100380871D01*
X140640046Y-100418073D01*
X140661115Y-100449087D01*
X140687474Y-100473811D01*
X140718996Y-100492145D01*
X140755552Y-100503989D01*
X140797016Y-100509243D01*
X140825851Y-100510508D01*
X140828170Y-100345558D01*
X140972629Y-100345558D01*
X140972892Y-100397226D01*
X140974148Y-100510508D01*
X141026546Y-100511660D01*
X141047863Y-100512051D01*
X141063593Y-100511940D01*
X141075004Y-100511024D01*
X141084083Y-100509016D01*
X141092815Y-100505628D01*
X141103187Y-100500574D01*
X141114762Y-100494224D01*
X141146743Y-100470532D01*
X141174100Y-100440379D01*
X141196409Y-100404298D01*
X141213242Y-100362823D01*
X141214486Y-100358736D01*
X141221733Y-100325233D01*
X141225485Y-100288165D01*
X141225537Y-100251053D01*
X141221685Y-100217418D01*
X141214709Y-100191614D01*
X141203184Y-100164603D01*
X141188768Y-100140993D01*
X141172716Y-100123199D01*
X141151466Y-100108940D01*
X141124450Y-100099177D01*
X141096014Y-100096362D01*
X141067668Y-100100440D01*
X141040926Y-100111352D01*
X141017299Y-100129043D01*
X141009499Y-100137375D01*
X140999936Y-100150487D01*
X140992038Y-100165780D01*
X140985681Y-100184009D01*
X140980739Y-100205925D01*
X140977087Y-100232285D01*
X140974602Y-100263841D01*
X140973157Y-100301347D01*
X140972629Y-100345558D01*
X140828170Y-100345558D01*
X140828312Y-100335435D01*
X140828432Y-100326941D01*
X140829059Y-100285043D01*
X140829670Y-100250295D01*
X140830315Y-100221776D01*
X140831043Y-100198566D01*
X140831903Y-100179744D01*
X140832945Y-100164390D01*
X140834219Y-100151582D01*
X140835773Y-100140401D01*
X140837657Y-100129927D01*
X140839921Y-100119237D01*
X140846262Y-100093659D01*
X140863311Y-100043394D01*
X140884987Y-99999893D01*
X140911349Y-99963084D01*
X140942455Y-99932890D01*
X140978366Y-99909238D01*
X141019138Y-99892054D01*
X141023298Y-99890731D01*
X141040495Y-99885978D01*
X141056994Y-99883011D01*
X141075767Y-99881413D01*
X141096014Y-99880870D01*
X141099789Y-99880769D01*
X141122241Y-99880906D01*
G37*
G36*
X141136436Y-104680557D02*
G01*
X141160902Y-104683096D01*
X141179901Y-104687042D01*
X141198166Y-104693204D01*
X141239455Y-104712889D01*
X141276050Y-104739284D01*
X141308385Y-104772678D01*
X141312272Y-104777546D01*
X141335465Y-104812529D01*
X141355132Y-104852523D01*
X141370187Y-104895015D01*
X141379545Y-104937493D01*
X141379638Y-104938125D01*
X141382097Y-104954507D01*
X141384306Y-104968795D01*
X141385798Y-104977959D01*
X141386562Y-104984924D01*
X141387077Y-105001384D01*
X141386831Y-105022740D01*
X141385929Y-105046977D01*
X141384475Y-105072081D01*
X141382572Y-105096035D01*
X141380324Y-105116825D01*
X141377835Y-105132435D01*
X141373286Y-105151683D01*
X141358608Y-105195867D01*
X141339147Y-105236403D01*
X141315638Y-105271899D01*
X141288818Y-105300962D01*
X141268071Y-105319615D01*
X141320899Y-105320771D01*
X141373727Y-105321926D01*
X141374827Y-105425940D01*
X141375928Y-105529954D01*
X141080185Y-105529954D01*
X141025666Y-105529899D01*
X140971376Y-105529724D01*
X140921700Y-105529435D01*
X140877156Y-105529039D01*
X140838261Y-105528543D01*
X140805534Y-105527953D01*
X140779492Y-105527275D01*
X140760653Y-105526518D01*
X140749535Y-105525686D01*
X140714439Y-105520133D01*
X140661153Y-105506053D01*
X140613280Y-105485785D01*
X140570787Y-105459297D01*
X140533643Y-105426560D01*
X140501816Y-105387545D01*
X140475273Y-105342219D01*
X140453982Y-105290554D01*
X140437911Y-105232519D01*
X140436498Y-105225707D01*
X140434325Y-105212609D01*
X140432721Y-105197988D01*
X140431611Y-105180501D01*
X140430923Y-105158806D01*
X140430584Y-105131560D01*
X140430518Y-105097420D01*
X140430581Y-105072163D01*
X140430806Y-105045050D01*
X140431299Y-105023470D01*
X140432171Y-105005885D01*
X140433536Y-104990759D01*
X140435506Y-104976555D01*
X140438193Y-104961736D01*
X140441711Y-104944763D01*
X140459091Y-104876964D01*
X140481414Y-104814283D01*
X140508370Y-104758271D01*
X140540001Y-104708826D01*
X140540017Y-104708809D01*
X140544121Y-104710043D01*
X140554162Y-104714505D01*
X140568855Y-104721533D01*
X140586917Y-104730468D01*
X140607064Y-104740649D01*
X140628011Y-104751417D01*
X140648474Y-104762112D01*
X140667169Y-104772074D01*
X140682812Y-104780643D01*
X140694119Y-104787158D01*
X140699805Y-104790960D01*
X140698734Y-104794520D01*
X140694049Y-104803058D01*
X140686764Y-104814597D01*
X140683191Y-104820077D01*
X140655838Y-104869942D01*
X140634484Y-104924097D01*
X140619573Y-104980893D01*
X140611550Y-105038680D01*
X140610861Y-105095807D01*
X140612963Y-105121530D01*
X140620095Y-105163460D01*
X140631702Y-105199351D01*
X140648049Y-105229930D01*
X140669405Y-105255926D01*
X140670264Y-105256780D01*
X140696532Y-105278353D01*
X140725949Y-105293785D01*
X140759726Y-105303566D01*
X140799075Y-105308184D01*
X140825851Y-105309568D01*
X140828218Y-105141161D01*
X140972784Y-105141161D01*
X140972984Y-105194225D01*
X140974148Y-105309568D01*
X141025487Y-105310731D01*
X141046825Y-105311137D01*
X141062249Y-105311009D01*
X141073575Y-105310019D01*
X141082882Y-105307848D01*
X141092249Y-105304176D01*
X141103755Y-105298683D01*
X141131382Y-105281695D01*
X141159746Y-105255980D01*
X141184089Y-105224521D01*
X141203551Y-105188453D01*
X141217271Y-105148912D01*
X141220156Y-105135621D01*
X141224004Y-105106229D01*
X141225621Y-105074288D01*
X141224893Y-105043256D01*
X141221703Y-105016590D01*
X141213098Y-104984084D01*
X141198531Y-104953022D01*
X141178682Y-104927969D01*
X141153341Y-104908592D01*
X141149310Y-104906275D01*
X141139699Y-104901728D01*
X141129624Y-104899112D01*
X141116497Y-104897916D01*
X141097729Y-104897631D01*
X141089340Y-104897668D01*
X141073178Y-104898253D01*
X141061584Y-104899957D01*
X141051946Y-104903300D01*
X141041653Y-104908802D01*
X141030375Y-104916005D01*
X141016649Y-104927094D01*
X141005153Y-104940010D01*
X140995717Y-104955463D01*
X140988169Y-104974162D01*
X140982338Y-104996815D01*
X140978055Y-105024133D01*
X140975149Y-105056824D01*
X140973449Y-105095597D01*
X140972784Y-105141161D01*
X140828218Y-105141161D01*
X140828312Y-105134495D01*
X140828432Y-105125987D01*
X140829059Y-105084091D01*
X140829670Y-105049344D01*
X140830315Y-105020825D01*
X140831043Y-104997613D01*
X140831904Y-104978788D01*
X140832946Y-104963428D01*
X140834220Y-104950614D01*
X140835775Y-104939422D01*
X140837660Y-104928934D01*
X140839925Y-104918228D01*
X140852199Y-104872832D01*
X140871221Y-104824792D01*
X140895003Y-104783466D01*
X140923560Y-104748837D01*
X140956903Y-104720891D01*
X140995045Y-104699613D01*
X141037999Y-104684988D01*
X141056809Y-104681761D01*
X141081732Y-104679851D01*
X141097729Y-104679625D01*
X141109160Y-104679463D01*
X141136436Y-104680557D01*
G37*
%TD*%
%LPC*%
D12*
X138500000Y-113850000D02*
X158400000Y-113850000D01*
X158400000Y-114400000D01*
X138500000Y-114400000D01*
X138500000Y-113850000D01*
G36*
X138500000Y-113850000D02*
G01*
X158400000Y-113850000D01*
X158400000Y-114400000D01*
X138500000Y-114400000D01*
X138500000Y-113850000D01*
G37*
D11*
%TO.C,J1*%
G36*
X150777686Y-92578884D02*
G01*
X150856638Y-92873535D01*
X150985556Y-93150000D01*
X151160522Y-93399878D01*
X151376222Y-93615578D01*
X151626100Y-93790544D01*
X151902565Y-93919462D01*
X152197216Y-93998414D01*
X152501100Y-94025000D01*
X152804984Y-93998414D01*
X153099635Y-93919462D01*
X153376100Y-93790544D01*
X153625978Y-93615578D01*
X153841678Y-93399878D01*
X154016644Y-93150000D01*
X154145562Y-92873535D01*
X154224514Y-92578884D01*
X154251100Y-92275000D01*
X155251100Y-92275000D01*
X155157396Y-92986752D01*
X155041769Y-93327379D01*
X154882670Y-93650000D01*
X154682822Y-93949094D01*
X154445644Y-94219544D01*
X154175194Y-94456722D01*
X153876100Y-94656570D01*
X153553479Y-94815669D01*
X153212852Y-94931296D01*
X152860047Y-95001473D01*
X152501100Y-95025000D01*
X152142153Y-95001473D01*
X151789348Y-94931296D01*
X151448721Y-94815669D01*
X151126100Y-94656570D01*
X150827006Y-94456722D01*
X150556556Y-94219544D01*
X150319378Y-93949094D01*
X150119530Y-93650000D01*
X149960431Y-93327379D01*
X149844804Y-92986752D01*
X149774627Y-92633947D01*
X149751100Y-92275000D01*
X150751100Y-92275000D01*
X150777686Y-92578884D01*
G37*
%TD*%
D13*
%TO.C,J1*%
X157501100Y-112750000D03*
X157001100Y-112750000D03*
X156501100Y-112750000D03*
X156001100Y-112750000D03*
X155501100Y-112750000D03*
X155001100Y-112750000D03*
X154501100Y-112750000D03*
X154001100Y-112750000D03*
X153501100Y-112750000D03*
X153001100Y-112750000D03*
X152501100Y-112750000D03*
X150001100Y-112750000D03*
X149501100Y-112750000D03*
X149001100Y-112750000D03*
X148501100Y-112750000D03*
X148001100Y-112750000D03*
X147501100Y-112750000D03*
X147001100Y-112750000D03*
X146501100Y-112750000D03*
X146001100Y-112750000D03*
X145501100Y-112750000D03*
X145001100Y-112750000D03*
X144501100Y-112750000D03*
X144001100Y-112750000D03*
X143501100Y-112750000D03*
X143001100Y-112750000D03*
X142501100Y-112750000D03*
X142001100Y-112750000D03*
X141501100Y-112750000D03*
X141001100Y-112750000D03*
X140501100Y-112750000D03*
X140001100Y-112750000D03*
X139501100Y-112750000D03*
D14*
X150401100Y-93275000D03*
X152501100Y-94575000D03*
X154601100Y-93275000D03*
%TD*%
%LPD*%
M02*
