M48
; DRILL file {KiCad 9.0.0} date 2025-05-22T16:16:50+0400
; FORMAT={-:-/ absolute / inch / decimal}
; #@! TF.CreationDate,2025-05-22T16:16:50+04:00
; #@! TF.GenerationSoftware,Kicad,Pcbnew,9.0.0
; #@! TF.FileFunction,Plated,1,2,PTH
FMAT,2
INCH
; #@! TA.AperFunction,Plated,PTH,ComponentDrill
T1C0.0079
; #@! TA.AperFunction,Plated,PTH,ViaDrill
T2C0.0118
%
G90
G05
T1
X5.9213Y-3.6758
X6.004Y-3.727
X6.0867Y-3.6758
T2
X5.4783Y-3.935
X5.5453Y-4.2244
X5.5866Y-4.185
X5.5965Y-3.935
X5.6107Y-4.249
X5.6201Y-4.0079
X5.6254Y-4.185
X5.689Y-4.3031
X5.7283Y-4.2638
X5.7283Y-4.3425
X5.7539Y-4.0945
X5.7677Y-4.3031
X5.8071Y-4.2638
X5.8071Y-4.3425
X5.8465Y-4.3031
X5.8858Y-3.7992
X5.8858Y-3.8386
X5.8858Y-3.878
X5.8858Y-4.2638
X5.8858Y-4.3425
X5.9252Y-3.7992
X5.9252Y-3.8386
X5.9252Y-4.3031
X5.9646Y-3.7992
X5.9882Y-3.9724
X6.0276Y-3.9331
X6.0276Y-3.9724
X6.0669Y-3.8937
X6.0669Y-3.9331
X6.0669Y-3.9724
M30
