%TF.GenerationSoftware,KiCad,Pcbnew,9.0.0*%
%TF.CreationDate,2025-05-23T15:58:18+04:00*%
%TF.ProjectId,02_02_sensor_barometer_DPS310XTSA1,30325f30-325f-4736-956e-736f725f6261,rev?*%
%TF.SameCoordinates,Original*%
%TF.FileFunction,Copper,L1,Top*%
%TF.FilePolarity,Positive*%
%FSLAX46Y46*%
G04 Gerber Fmt 4.6, Leading zero omitted, Abs format (unit mm)*
G04 Created by KiCad (PCBNEW 9.0.0) date 2025-05-23 15:58:18*
%MOMM*%
%LPD*%
G01*
G04 APERTURE LIST*
G04 Aperture macros list*
%AMRoundRect*
0 Rectangle with rounded corners*
0 $1 Rounding radius*
0 $2 $3 $4 $5 $6 $7 $8 $9 X,Y pos of 4 corners*
0 Add a 4 corners polygon primitive as box body*
4,1,4,$2,$3,$4,$5,$6,$7,$8,$9,$2,$3,0*
0 Add four circle primitives for the rounded corners*
1,1,$1+$1,$2,$3*
1,1,$1+$1,$4,$5*
1,1,$1+$1,$6,$7*
1,1,$1+$1,$8,$9*
0 Add four rect primitives between the rounded corners*
20,1,$1+$1,$2,$3,$4,$5,0*
20,1,$1+$1,$4,$5,$6,$7,0*
20,1,$1+$1,$6,$7,$8,$9,0*
20,1,$1+$1,$8,$9,$2,$3,0*%
G04 Aperture macros list end*
%TA.AperFunction,EtchedComponent*%
%ADD10C,0.101600*%
%TD*%
%TA.AperFunction,EtchedComponent*%
%ADD11C,0.000000*%
%TD*%
%TA.AperFunction,SMDPad,CuDef*%
%ADD12R,0.350000X1.450000*%
%TD*%
%TA.AperFunction,ComponentPad*%
%ADD13C,0.454000*%
%TD*%
%TA.AperFunction,SMDPad,CuDef*%
%ADD14RoundRect,0.218750X-0.256250X0.218750X-0.256250X-0.218750X0.256250X-0.218750X0.256250X0.218750X0*%
%TD*%
%TA.AperFunction,SMDPad,CuDef*%
%ADD15C,1.000000*%
%TD*%
%TA.AperFunction,SMDPad,CuDef*%
%ADD16RoundRect,0.250000X0.650000X-0.325000X0.650000X0.325000X-0.650000X0.325000X-0.650000X-0.325000X0*%
%TD*%
%TA.AperFunction,SMDPad,CuDef*%
%ADD17RoundRect,0.200000X-0.275000X0.200000X-0.275000X-0.200000X0.275000X-0.200000X0.275000X0.200000X0*%
%TD*%
%TA.AperFunction,SMDPad,CuDef*%
%ADD18RoundRect,0.140000X-0.170000X0.140000X-0.170000X-0.140000X0.170000X-0.140000X0.170000X0.140000X0*%
%TD*%
%TA.AperFunction,SMDPad,CuDef*%
%ADD19R,1.200000X0.600000*%
%TD*%
%TA.AperFunction,SMDPad,CuDef*%
%ADD20R,0.350521X0.700025*%
%TD*%
%TA.AperFunction,SMDPad,CuDef*%
%ADD21RoundRect,0.140000X-0.140000X-0.170000X0.140000X-0.170000X0.140000X0.170000X-0.140000X0.170000X0*%
%TD*%
%TA.AperFunction,ViaPad*%
%ADD22C,0.500000*%
%TD*%
%TA.AperFunction,ViaPad*%
%ADD23C,0.700000*%
%TD*%
%TA.AperFunction,Conductor*%
%ADD24C,0.750000*%
%TD*%
%TA.AperFunction,Conductor*%
%ADD25C,0.500000*%
%TD*%
%TA.AperFunction,Conductor*%
%ADD26C,0.350000*%
%TD*%
%TA.AperFunction,Conductor*%
%ADD27C,0.250000*%
%TD*%
G04 APERTURE END LIST*
D10*
%TO.C,J1*%
X150401100Y-93365617D02*
X149501100Y-93365617D01*
X150401100Y-93365617D02*
X150401100Y-94465617D01*
X152501100Y-94665617D02*
X152501100Y-95365617D01*
X154601100Y-93365617D02*
X154601100Y-94465617D01*
X154601100Y-93365617D02*
X155501100Y-93365617D01*
D11*
%TA.AperFunction,EtchedComponent*%
G36*
X150589520Y-92903790D02*
G01*
X150672547Y-93182404D01*
X150798137Y-93444600D01*
X150963197Y-93683921D01*
X151163663Y-93894475D01*
X151394599Y-94071077D01*
X151650318Y-94209378D01*
X151924524Y-94305973D01*
X152501100Y-94365617D01*
X152791735Y-94358484D01*
X153077676Y-94305973D01*
X153351882Y-94209378D01*
X153607601Y-94071077D01*
X153838537Y-93894475D01*
X154039003Y-93683921D01*
X154204063Y-93444600D01*
X154329653Y-93182404D01*
X154451100Y-92615617D01*
X155251100Y-92615617D01*
X155188052Y-92979552D01*
X155077551Y-93331991D01*
X154921527Y-93666775D01*
X154722708Y-93978053D01*
X154484567Y-94260387D01*
X154211266Y-94508843D01*
X153907580Y-94719078D01*
X153578818Y-94887420D01*
X153230723Y-95010926D01*
X152869379Y-95087437D01*
X152501100Y-95115617D01*
X152131911Y-95089990D01*
X151769434Y-95015377D01*
X151420137Y-94893111D01*
X151090257Y-94725373D01*
X150785681Y-94515157D01*
X150511846Y-94266216D01*
X150273640Y-93982994D01*
X150075315Y-93670545D01*
X149920411Y-93334448D01*
X149751100Y-92615617D01*
X150551100Y-92615617D01*
X150589520Y-92903790D01*
G37*
%TD.AperFunction*%
%TD*%
D12*
%TO.P,J1,1,GND*%
%TO.N,GND*%
X157751100Y-113090617D03*
%TO.P,J1,3,USB_D+*%
%TO.N,/USB_D+*%
X157251100Y-113090617D03*
%TO.P,J1,5,USB_D-*%
%TO.N,/USB_D-*%
X156751100Y-113090617D03*
%TO.P,J1,7,GND*%
%TO.N,GND*%
X156251100Y-113090617D03*
%TO.P,J1,9,USB_VIN*%
%TO.N,/V_USB*%
X155751100Y-113090617D03*
%TO.P,J1,11,~{BOOT}*%
%TO.N,VIN*%
X155251100Y-113090617D03*
%TO.P,J1,13,RTS1*%
%TO.N,/UART_RTS1*%
X154751100Y-113090617D03*
%TO.P,J1,15,CTS1*%
%TO.N,/UART_CTS1*%
X154251100Y-113090617D03*
%TO.P,J1,17,TX1*%
%TO.N,DPS310XTSA1_TX*%
X153751100Y-113090617D03*
%TO.P,J1,19,RX1*%
%TO.N,DPS310XTSA1_RX*%
X153251100Y-113090617D03*
%TO.P,J1,21,SWDCK*%
%TO.N,/SWDCK*%
X152751100Y-113090617D03*
%TO.P,J1,23,SWDIO*%
%TO.N,/SWDIO*%
X152251100Y-113090617D03*
%TO.P,J1,33,GND*%
%TO.N,GND*%
X149751100Y-113090617D03*
%TO.P,J1,35,USBHOST_D+*%
%TO.N,/USBHOST_D+*%
X149251100Y-113090617D03*
%TO.P,J1,37,USBHOST_D-*%
%TO.N,/USBHOST_D-*%
X148751100Y-113090617D03*
%TO.P,J1,39,GND*%
%TO.N,GND*%
X148251100Y-113090617D03*
%TO.P,J1,41,CAN-RX*%
%TO.N,/CAN-RX*%
X147751100Y-113090617D03*
%TO.P,J1,43,CAN-TX*%
%TO.N,/CAN-TX*%
X147251100Y-113090617D03*
%TO.P,J1,45,GND*%
%TO.N,GND*%
X146751100Y-113090617D03*
%TO.P,J1,47,PWM1*%
%TO.N,/PWM1*%
X146251100Y-113090617D03*
%TO.P,J1,49,BATT_VIN/3*%
%TO.N,/BATT_VIN*%
X145751100Y-113090617D03*
%TO.P,J1,51,I2C_SDA1*%
%TO.N,/I2C_SDA1*%
X145251100Y-113090617D03*
%TO.P,J1,53,I2C_SCL1*%
%TO.N,/I2C_SCL1*%
X144751100Y-113090617D03*
%TO.P,J1,55,SPI_~{CS}*%
%TO.N,/~{SPI_CS}*%
X144251100Y-113090617D03*
%TO.P,J1,57,SPI_SCK*%
%TO.N,/SPI_SCK*%
X143751100Y-113090617D03*
%TO.P,J1,59,SPI_SDO*%
%TO.N,/SPI_COPI-LED_DAT*%
X143251100Y-113090617D03*
%TO.P,J1,61,SPI_SDI*%
%TO.N,/SPI_CIPO-LED_CLK*%
X142751100Y-113090617D03*
%TO.P,J1,63,G10/ADC_D+/CAM_VSYNC*%
%TO.N,/G10-CAM_VSYNC*%
X142251100Y-113090617D03*
%TO.P,J1,65,G9/ADC_D-/CAM_HSYNC*%
%TO.N,/G9-CAM_HSYNC*%
X141751100Y-113090617D03*
%TO.P,J1,67,G8*%
%TO.N,/G8*%
X141251100Y-113090617D03*
%TO.P,J1,69,G7/BUS7*%
%TO.N,/G7*%
X140751100Y-113090617D03*
%TO.P,J1,71,G6/BUS6*%
%TO.N,/G6*%
X140251100Y-113090617D03*
%TO.P,J1,73,G5/BUS5*%
%TO.N,/G5*%
X139751100Y-113090617D03*
%TO.P,J1,75,GND*%
%TO.N,GND*%
X139251100Y-113090617D03*
D13*
%TO.P,J1,GND*%
%TO.N,N/C*%
X150401100Y-93365617D03*
X152501100Y-94665617D03*
X154601100Y-93365617D03*
%TD*%
D14*
%TO.P,D1,1,K*%
%TO.N,GND*%
X157975000Y-95150000D03*
%TO.P,D1,2,A*%
%TO.N,Net-(D1-A)*%
X157975000Y-96725000D03*
%TD*%
D15*
%TO.P,CS1,1,1*%
%TO.N,DPS310XTSA1_CS*%
X140000000Y-94600000D03*
%TD*%
D16*
%TO.P,C3,1*%
%TO.N,VIN*%
X155900000Y-106075000D03*
%TO.P,C3,2*%
%TO.N,GND*%
X155900000Y-103125000D03*
%TD*%
%TO.P,C4,1*%
%TO.N,+3V3*%
X149300000Y-106075000D03*
%TO.P,C4,2*%
%TO.N,GND*%
X149300000Y-103125000D03*
%TD*%
D17*
%TO.P,R1,1*%
%TO.N,+3V3*%
X156300000Y-95100000D03*
%TO.P,R1,2*%
%TO.N,Net-(D1-A)*%
X156300000Y-96750000D03*
%TD*%
D15*
%TO.P,MISO1,1,1*%
%TO.N,DPS310XTSA1_MISO*%
X147500000Y-94600000D03*
%TD*%
D18*
%TO.P,C2,1*%
%TO.N,+3V3*%
X145110643Y-104020102D03*
%TO.P,C2,2*%
%TO.N,GND*%
X145110643Y-104980102D03*
%TD*%
D15*
%TO.P,MOSI1,1,1*%
%TO.N,DPS310XTSA1_MOSI*%
X142500000Y-94600000D03*
%TD*%
D19*
%TO.P,U2,1,VIN*%
%TO.N,VIN*%
X153700000Y-105349962D03*
%TO.P,U2,2,GND*%
%TO.N,GND*%
X153700000Y-104400000D03*
%TO.P,U2,3,EN*%
%TO.N,VIN*%
X153700000Y-103450038D03*
%TO.P,U2,4,NC*%
%TO.N,unconnected-(U2-NC-Pad4)*%
X151400026Y-103450038D03*
%TO.P,U2,5,VOUT*%
%TO.N,+3V3*%
X151400026Y-105349962D03*
%TD*%
D20*
%TO.P,U3,1,GND*%
%TO.N,GND*%
X144210643Y-105300204D03*
%TO.P,U3,2,CSB*%
%TO.N,DPS310XTSA1_CS*%
X143560402Y-105300204D03*
%TO.P,U3,3,SDI*%
%TO.N,DPS310XTSA1_MOSI*%
X142900000Y-105300204D03*
%TO.P,U3,4,SCK*%
%TO.N,DPS310XTSA1_SCK*%
X142249759Y-105300204D03*
%TO.P,U3,5,SDO*%
%TO.N,DPS310XTSA1_MISO*%
X142249759Y-103700000D03*
%TO.P,U3,6,VDDIO*%
%TO.N,+3V3*%
X142900000Y-103700000D03*
%TO.P,U3,7,GND*%
%TO.N,GND*%
X143560402Y-103700000D03*
%TO.P,U3,8,VDD*%
%TO.N,+3V3*%
X144210643Y-103700000D03*
%TD*%
D21*
%TO.P,C1,1*%
%TO.N,+3V3*%
X142730643Y-102700102D03*
%TO.P,C1,2*%
%TO.N,GND*%
X143690643Y-102700102D03*
%TD*%
D15*
%TO.P,SCK1,1,1*%
%TO.N,DPS310XTSA1_SCK*%
X145000000Y-94600000D03*
%TD*%
D22*
%TO.N,+3V3*%
X142750000Y-101800000D03*
X146150000Y-104000000D03*
D23*
%TO.N,GND*%
X150500000Y-109300000D03*
X147500000Y-110300000D03*
X153100000Y-99900000D03*
X153100000Y-100900000D03*
X154100000Y-98900000D03*
X146500000Y-109300000D03*
X151500000Y-96500000D03*
X147500000Y-108300000D03*
X152100000Y-100900000D03*
X149500000Y-98500000D03*
X149500000Y-97500000D03*
X144500000Y-109300000D03*
X148500000Y-109300000D03*
X149500000Y-96500000D03*
X154100000Y-100900000D03*
X145500000Y-110300000D03*
X149500000Y-110300000D03*
X150500000Y-97500000D03*
X150500000Y-96500000D03*
X145500000Y-108300000D03*
X149500000Y-108300000D03*
X154100000Y-99900000D03*
D22*
%TO.N,DPS310XTSA1_CS*%
X140850000Y-107300000D03*
%TO.N,DPS310XTSA1_MISO*%
X139150000Y-99950000D03*
X142510542Y-107925000D03*
X142150000Y-99950000D03*
%TO.N,DPS310XTSA1_MOSI*%
X142885412Y-106300000D03*
%TO.N,DPS310XTSA1_SCK*%
X141900000Y-106300000D03*
%TD*%
D24*
%TO.N,+3V3*%
X151400026Y-105412474D02*
X151400026Y-105349962D01*
X155924999Y-95100000D02*
X156300000Y-95100000D01*
X148113172Y-101350000D02*
X148300000Y-101350000D01*
X150007106Y-100642893D02*
X155284833Y-95365165D01*
D25*
X144757091Y-104020102D02*
X145110643Y-104020102D01*
D24*
X146150000Y-104000000D02*
X146150000Y-104500000D01*
D25*
X146139949Y-104010051D02*
X146150000Y-104000000D01*
D26*
X142900000Y-102989212D02*
X142900000Y-103700000D01*
D24*
X146150000Y-103250000D02*
X146150000Y-104000000D01*
D25*
X142715643Y-102685102D02*
X142700643Y-102670102D01*
D26*
X142745643Y-102715102D02*
X142815321Y-102784780D01*
D25*
X144370694Y-103860051D02*
X144210643Y-103700000D01*
D24*
X146503553Y-105353553D02*
X146687500Y-105537500D01*
X146680330Y-101969669D02*
X146725000Y-101925000D01*
D26*
X142745643Y-102715102D02*
X142715643Y-102685102D01*
D24*
X147985139Y-106075000D02*
X150224847Y-106075000D01*
X151100000Y-105712500D02*
X151400026Y-105412474D01*
D25*
X146115683Y-104020102D02*
X145110643Y-104020102D01*
D26*
X142730643Y-102678888D02*
X142730643Y-101819357D01*
D25*
X146139949Y-104010051D02*
G75*
G02*
X146115683Y-104020095I-24249J24251D01*
G01*
X144757091Y-104020102D02*
G75*
G02*
X144370708Y-103860037I9J546402D01*
G01*
D26*
X142815321Y-102784780D02*
G75*
G02*
X142899994Y-102989212I-204421J-204420D01*
G01*
D24*
X146687500Y-105537500D02*
G75*
G03*
X147985139Y-106074984I1297600J1297600D01*
G01*
X148113172Y-101350000D02*
G75*
G03*
X146725008Y-101925008I28J-1963200D01*
G01*
D26*
X142745643Y-102715102D02*
G75*
G02*
X142730664Y-102678888I36257J36202D01*
G01*
D24*
X148300000Y-101350000D02*
G75*
G03*
X150007104Y-100642891I0J2414200D01*
G01*
X146150000Y-103250000D02*
G75*
G02*
X146680322Y-101969661I1810700J0D01*
G01*
X155924999Y-95100000D02*
G75*
G03*
X155284840Y-95365172I1J-905300D01*
G01*
D25*
X142715643Y-102685102D02*
G75*
G03*
X142730710Y-102678888I6257J6202D01*
G01*
D24*
X150224847Y-106075000D02*
G75*
G03*
X151099986Y-105712486I-47J1237700D01*
G01*
X146150000Y-104500000D02*
G75*
G03*
X146503554Y-105353552I1207100J0D01*
G01*
%TO.N,GND*%
X154181250Y-104400000D02*
X153700000Y-104400000D01*
D25*
X144757091Y-104980102D02*
X145110643Y-104980102D01*
D26*
X143625522Y-102765222D02*
X143690643Y-102700102D01*
D25*
X144370694Y-105140153D02*
X144210643Y-105300204D01*
D26*
X143560402Y-102922437D02*
X143560402Y-103700000D01*
D24*
X155900000Y-103125000D02*
X154938778Y-104086221D01*
D26*
X143560402Y-102922437D02*
G75*
G02*
X143625512Y-102765212I222298J37D01*
G01*
D25*
X144370694Y-105140153D02*
G75*
G02*
X144757091Y-104980081I386406J-386347D01*
G01*
D24*
X154938778Y-104086221D02*
G75*
G02*
X154181250Y-104400037I-757578J757521D01*
G01*
D26*
%TO.N,VIN*%
X153737500Y-105350000D02*
X153268198Y-105350000D01*
D24*
X154975152Y-106075000D02*
X155900000Y-106075000D01*
D26*
X153696762Y-103453276D02*
X153700038Y-103450000D01*
D24*
X153971728Y-105584228D02*
X154100000Y-105712500D01*
D26*
X153700038Y-103450000D02*
X153737500Y-103450000D01*
X152500000Y-104581801D02*
X152500000Y-104216490D01*
X153166011Y-103453276D02*
X153696762Y-103453276D01*
X152725000Y-105125000D02*
G75*
G02*
X152499999Y-104581801I543200J543200D01*
G01*
X153268198Y-105350000D02*
G75*
G02*
X152725001Y-105124999I2J768200D01*
G01*
D24*
X154975152Y-106075000D02*
G75*
G02*
X154100014Y-105712486I48J1237700D01*
G01*
D26*
X152500000Y-104216490D02*
G75*
G02*
X152724503Y-103674503I766500J-10D01*
G01*
D24*
X153971728Y-105584228D02*
G75*
G03*
X153406250Y-105350004I-565428J-565372D01*
G01*
D26*
X152724500Y-103674500D02*
G75*
G02*
X153166014Y-103453294I561100J-568700D01*
G01*
D27*
%TO.N,DPS310XTSA1_CS*%
X140935355Y-107350000D02*
X142347669Y-107350000D01*
X140825000Y-107250000D02*
X140850000Y-107250000D01*
X140000000Y-105884314D02*
X140000000Y-94600000D01*
X143560402Y-106137267D02*
X143560402Y-105300204D01*
X140400000Y-106850000D02*
X140782322Y-107232322D01*
X140875000Y-107325000D02*
X140850000Y-107300000D01*
X143560402Y-106137267D02*
G75*
G02*
X143205211Y-106994809I-1212702J-33D01*
G01*
X140000000Y-105884314D02*
G75*
G03*
X140400004Y-106849996I1365700J14D01*
G01*
X142347669Y-107350000D02*
G75*
G03*
X143205209Y-106994807I31J1212700D01*
G01*
X140825000Y-107250000D02*
G75*
G02*
X140782313Y-107232331I0J60400D01*
G01*
X140935355Y-107350000D02*
G75*
G02*
X140875013Y-107324987I45J85400D01*
G01*
D24*
%TO.N,Net-(D1-A)*%
X157932322Y-96700000D02*
X156300000Y-96700000D01*
D27*
%TO.N,DPS310XTSA1_MISO*%
X142124643Y-99993287D02*
X142124643Y-103486413D01*
X142510542Y-107925000D02*
X142498042Y-107912500D01*
X142137321Y-99962678D02*
X142150000Y-99950000D01*
X139150000Y-105791019D02*
X139150000Y-99950000D01*
X141258980Y-107900000D02*
X142467864Y-107900000D01*
X142187201Y-103637442D02*
X142249759Y-103700000D01*
X142150000Y-99950000D02*
X147500000Y-94600000D01*
X139767706Y-107282294D02*
G75*
G03*
X141258980Y-107900008I1491294J1491294D01*
G01*
X142498042Y-107912500D02*
G75*
G03*
X142467864Y-107900032I-30142J-30200D01*
G01*
X142137321Y-99962678D02*
G75*
G03*
X142124624Y-99993287I30579J-30622D01*
G01*
X142124643Y-103486413D02*
G75*
G03*
X142187214Y-103637429I213557J13D01*
G01*
X139150000Y-105791019D02*
G75*
G03*
X139767712Y-107282288I2109000J19D01*
G01*
%TO.N,DPS310XTSA1_MOSI*%
X142545419Y-106639992D02*
X142885412Y-106300000D01*
X142950000Y-106250000D02*
X143000000Y-106300000D01*
X140800000Y-105619669D02*
X140800000Y-97502081D01*
X142900000Y-106129289D02*
X142900000Y-105300204D01*
X141650000Y-95450000D02*
X142500000Y-94600000D01*
X141175000Y-106525000D02*
X141289992Y-106639992D01*
X141289992Y-106639992D02*
G75*
G03*
X141917706Y-106900002I627708J627692D01*
G01*
X140800000Y-97502081D02*
G75*
G02*
X141650005Y-95450005I2902100J-19D01*
G01*
X140800000Y-105619669D02*
G75*
G03*
X141174991Y-106525009I1280300J-31D01*
G01*
X142545419Y-106639992D02*
G75*
G02*
X141917706Y-106900010I-627719J627692D01*
G01*
X142900000Y-106129289D02*
G75*
G03*
X142949997Y-106250003I170700J-11D01*
G01*
%TO.N,DPS310XTSA1_SCK*%
X141500000Y-100353963D02*
X141500000Y-105702512D01*
X143093792Y-96506207D02*
X145000000Y-94600000D01*
X142074879Y-106125120D02*
X141900000Y-106300000D01*
X142249759Y-105702924D02*
X142249759Y-105300204D01*
X141814644Y-106264644D02*
X141675000Y-106125000D01*
X141900000Y-106300000D02*
X141950000Y-106300000D01*
X141814644Y-106264644D02*
G75*
G03*
X141900000Y-106300003I85356J85344D01*
G01*
X142249759Y-105702924D02*
G75*
G02*
X142074864Y-106125105I-597059J24D01*
G01*
X141500000Y-105702512D02*
G75*
G03*
X141675004Y-106124996I597500J12D01*
G01*
X143093792Y-96506207D02*
G75*
G03*
X141499959Y-100353963I3847708J-3847793D01*
G01*
%TD*%
%TA.AperFunction,Conductor*%
%TO.N,VIN*%
G36*
X154742539Y-103019685D02*
G01*
X154788294Y-103072489D01*
X154799500Y-103124000D01*
X154799500Y-103360256D01*
X154779815Y-103427295D01*
X154763181Y-103447937D01*
X154585084Y-103626033D01*
X154581238Y-103629878D01*
X154581232Y-103629883D01*
X154556527Y-103654589D01*
X154556448Y-103654669D01*
X154536130Y-103674988D01*
X154527115Y-103683159D01*
X154466129Y-103733213D01*
X154445916Y-103746719D01*
X154381733Y-103781028D01*
X154359277Y-103790331D01*
X154289641Y-103811458D01*
X154265802Y-103816201D01*
X154205960Y-103822098D01*
X154187655Y-103823902D01*
X154175497Y-103824500D01*
X153624234Y-103824500D01*
X153477865Y-103863719D01*
X153477864Y-103863719D01*
X153477862Y-103863720D01*
X153477859Y-103863721D01*
X153444666Y-103882886D01*
X153382665Y-103899500D01*
X153080247Y-103899500D01*
X153021770Y-103911131D01*
X153021769Y-103911132D01*
X152955447Y-103955447D01*
X152911132Y-104021769D01*
X152911131Y-104021770D01*
X152899500Y-104080247D01*
X152899500Y-104719752D01*
X152911131Y-104778229D01*
X152911132Y-104778230D01*
X152955447Y-104844552D01*
X153021769Y-104888867D01*
X153021770Y-104888868D01*
X153080247Y-104900499D01*
X153080250Y-104900500D01*
X153080252Y-104900500D01*
X153382665Y-104900500D01*
X153444666Y-104917114D01*
X153477859Y-104936278D01*
X153477860Y-104936278D01*
X153477865Y-104936281D01*
X153624234Y-104975500D01*
X154103779Y-104975500D01*
X154111387Y-104975500D01*
X154111398Y-104975503D01*
X154129891Y-104975502D01*
X154130012Y-104975537D01*
X154181277Y-104975535D01*
X154181277Y-104975536D01*
X154289215Y-104975531D01*
X154503243Y-104947344D01*
X154503247Y-104947342D01*
X154503251Y-104947342D01*
X154711757Y-104891464D01*
X154911187Y-104808848D01*
X154911196Y-104808844D01*
X154911195Y-104808844D01*
X154911201Y-104808842D01*
X155098151Y-104700896D01*
X155269412Y-104569472D01*
X155332531Y-104506347D01*
X155902061Y-103936819D01*
X155963384Y-103903334D01*
X155989742Y-103900500D01*
X156604270Y-103900500D01*
X156634699Y-103897646D01*
X156634701Y-103897646D01*
X156698790Y-103875219D01*
X156762882Y-103852793D01*
X156872150Y-103772150D01*
X156952793Y-103662882D01*
X156958959Y-103645259D01*
X156999680Y-103588484D01*
X157064633Y-103562737D01*
X157133195Y-103576193D01*
X157183597Y-103624581D01*
X157200000Y-103686215D01*
X157200000Y-109698037D01*
X157181407Y-109763344D01*
X155738264Y-112092628D01*
X155729716Y-112106424D01*
X155677675Y-112153045D01*
X155624308Y-112165117D01*
X155556347Y-112165117D01*
X155497870Y-112176748D01*
X155497869Y-112176749D01*
X155431547Y-112221064D01*
X155387232Y-112287386D01*
X155387231Y-112287387D01*
X155375600Y-112345864D01*
X155375600Y-112642680D01*
X155370868Y-112659302D01*
X155371138Y-112675646D01*
X155357009Y-112707985D01*
X155356008Y-112709602D01*
X155303966Y-112756223D01*
X155234981Y-112767306D01*
X155170955Y-112739335D01*
X155132216Y-112681188D01*
X155126600Y-112644294D01*
X155126600Y-112345866D01*
X155126599Y-112345864D01*
X155114968Y-112287387D01*
X155114967Y-112287386D01*
X155070652Y-112221064D01*
X155004330Y-112176749D01*
X155004329Y-112176748D01*
X154945852Y-112165117D01*
X154945848Y-112165117D01*
X154556352Y-112165117D01*
X154556351Y-112165117D01*
X154525288Y-112171295D01*
X154476912Y-112171295D01*
X154445849Y-112165117D01*
X154445848Y-112165117D01*
X154056352Y-112165117D01*
X154056351Y-112165117D01*
X154025288Y-112171295D01*
X153976912Y-112171295D01*
X153945849Y-112165117D01*
X153945848Y-112165117D01*
X153556352Y-112165117D01*
X153556351Y-112165117D01*
X153525288Y-112171295D01*
X153476912Y-112171295D01*
X153445849Y-112165117D01*
X153445848Y-112165117D01*
X153056352Y-112165117D01*
X153056351Y-112165117D01*
X153025288Y-112171295D01*
X152976912Y-112171295D01*
X152945849Y-112165117D01*
X152945848Y-112165117D01*
X152556352Y-112165117D01*
X152556351Y-112165117D01*
X152525288Y-112171295D01*
X152523521Y-112171370D01*
X152522693Y-112171782D01*
X152515677Y-112171707D01*
X152487417Y-112172920D01*
X152482121Y-112172332D01*
X152445848Y-112165117D01*
X152417135Y-112165117D01*
X152410317Y-112164360D01*
X152384157Y-112153417D01*
X152356961Y-112145432D01*
X152352353Y-112140114D01*
X152345859Y-112137398D01*
X152329767Y-112114048D01*
X152311206Y-112092628D01*
X152309453Y-112084573D01*
X152306210Y-112079867D01*
X152305823Y-112067887D01*
X152300000Y-112041117D01*
X152300000Y-103124000D01*
X152319685Y-103056961D01*
X152372489Y-103011206D01*
X152424000Y-103000000D01*
X154675500Y-103000000D01*
X154742539Y-103019685D01*
G37*
%TD.AperFunction*%
%TD*%
%TA.AperFunction,Conductor*%
%TO.N,GND*%
G36*
X149497374Y-92435802D02*
G01*
X149543129Y-92488606D01*
X149553073Y-92557764D01*
X149551414Y-92566873D01*
X149550440Y-92571277D01*
X149551073Y-92662731D01*
X149621536Y-92961888D01*
X149617746Y-93031655D01*
X149576838Y-93088297D01*
X149511801Y-93113831D01*
X149500839Y-93114317D01*
X149451111Y-93114317D01*
X149358749Y-93152575D01*
X149288058Y-93223266D01*
X149249800Y-93315628D01*
X149249800Y-93315630D01*
X149249800Y-93415604D01*
X149288058Y-93507967D01*
X149358750Y-93578659D01*
X149451113Y-93616917D01*
X149744936Y-93616917D01*
X149811975Y-93636602D01*
X149857550Y-93689013D01*
X149888680Y-93756557D01*
X149888684Y-93756564D01*
X149901807Y-93780660D01*
X149901813Y-93780670D01*
X149901815Y-93780673D01*
X150100140Y-94093122D01*
X150113625Y-94111522D01*
X150116374Y-94115272D01*
X150116377Y-94115277D01*
X150120693Y-94120407D01*
X150148783Y-94184381D01*
X150149800Y-94200227D01*
X150149800Y-94515605D01*
X150153481Y-94524491D01*
X150188058Y-94607967D01*
X150258750Y-94678659D01*
X150351113Y-94716917D01*
X150351115Y-94716917D01*
X150451085Y-94716917D01*
X150451087Y-94716917D01*
X150543450Y-94678659D01*
X150543452Y-94678656D01*
X150554436Y-94674107D01*
X150623906Y-94666638D01*
X150672325Y-94686614D01*
X150973526Y-94894501D01*
X150984141Y-94900824D01*
X150997091Y-94908539D01*
X150997100Y-94908544D01*
X150997114Y-94908552D01*
X151228092Y-95026000D01*
X151315282Y-95070335D01*
X151326994Y-95076290D01*
X151327004Y-95076294D01*
X151327016Y-95076300D01*
X151352243Y-95087072D01*
X151624206Y-95182268D01*
X151701541Y-95209338D01*
X151728002Y-95216657D01*
X152090479Y-95291270D01*
X152117681Y-95294997D01*
X152134382Y-95296156D01*
X152199896Y-95320431D01*
X152241888Y-95376274D01*
X152246873Y-95403735D01*
X152247418Y-95403627D01*
X152249800Y-95415605D01*
X152250233Y-95416650D01*
X152288058Y-95507967D01*
X152358750Y-95578659D01*
X152451113Y-95616917D01*
X152451115Y-95616917D01*
X152551085Y-95616917D01*
X152551087Y-95616917D01*
X152643450Y-95578659D01*
X152714142Y-95507967D01*
X152752400Y-95415604D01*
X152752400Y-95415599D01*
X152754782Y-95403627D01*
X152756341Y-95403937D01*
X152772085Y-95350323D01*
X152824889Y-95304568D01*
X152866938Y-95293724D01*
X152885058Y-95292338D01*
X152911948Y-95288480D01*
X153132497Y-95241781D01*
X153273279Y-95211972D01*
X153273289Y-95211970D01*
X153299422Y-95204602D01*
X153299427Y-95204600D01*
X153299439Y-95204597D01*
X153647534Y-95081091D01*
X153672479Y-95070335D01*
X154001241Y-94901993D01*
X154024549Y-94888041D01*
X154322366Y-94681868D01*
X154388689Y-94659895D01*
X154447093Y-94674887D01*
X154447467Y-94673985D01*
X154453802Y-94676609D01*
X154456365Y-94677267D01*
X154458225Y-94678441D01*
X154458749Y-94678658D01*
X154458750Y-94678659D01*
X154551113Y-94716917D01*
X154551115Y-94716917D01*
X154651085Y-94716917D01*
X154651087Y-94716917D01*
X154743450Y-94678659D01*
X154814142Y-94607967D01*
X154852400Y-94515604D01*
X154852400Y-94188293D01*
X154872085Y-94121254D01*
X154879023Y-94111522D01*
X154879762Y-94110582D01*
X154879791Y-94110549D01*
X154895895Y-94088671D01*
X155094714Y-93777393D01*
X155107792Y-93753583D01*
X155135402Y-93694340D01*
X155138107Y-93688536D01*
X155184268Y-93636087D01*
X155250500Y-93616917D01*
X155551085Y-93616917D01*
X155551087Y-93616917D01*
X155643450Y-93578659D01*
X155714142Y-93507967D01*
X155752400Y-93415604D01*
X155752400Y-93315630D01*
X155714142Y-93223267D01*
X155643450Y-93152575D01*
X155551088Y-93114317D01*
X155551087Y-93114317D01*
X155520595Y-93114317D01*
X155453556Y-93094632D01*
X155407801Y-93041828D01*
X155397857Y-92972670D01*
X155398415Y-92969150D01*
X155416189Y-92866553D01*
X155453584Y-92650695D01*
X155451448Y-92569889D01*
X155451446Y-92569885D01*
X155451306Y-92569305D01*
X155451387Y-92567614D01*
X155451100Y-92556751D01*
X155451909Y-92556729D01*
X155454657Y-92499516D01*
X155495207Y-92442617D01*
X155560082Y-92416674D01*
X155571822Y-92416117D01*
X158493234Y-92416117D01*
X158506716Y-92416852D01*
X158537216Y-92420187D01*
X158653104Y-92432863D01*
X158673654Y-92436890D01*
X158811775Y-92476317D01*
X158831349Y-92483743D01*
X158960838Y-92545843D01*
X158960865Y-92545856D01*
X158978917Y-92556475D01*
X159067068Y-92618914D01*
X159096114Y-92639488D01*
X159096133Y-92639501D01*
X159112142Y-92653009D01*
X159213701Y-92754570D01*
X159227208Y-92770578D01*
X159310233Y-92887796D01*
X159320852Y-92905850D01*
X159382957Y-93035356D01*
X159390387Y-93054939D01*
X159429813Y-93193063D01*
X159433840Y-93213617D01*
X159449865Y-93360146D01*
X159450600Y-93373627D01*
X159450600Y-109755872D01*
X159449451Y-109772714D01*
X159435814Y-109872185D01*
X159429333Y-109898169D01*
X159396341Y-109987818D01*
X159384432Y-110011804D01*
X159379611Y-110019341D01*
X159332964Y-110092274D01*
X159316183Y-110113144D01*
X159248633Y-110180692D01*
X159227763Y-110197471D01*
X159147286Y-110248941D01*
X159123298Y-110260850D01*
X159033656Y-110293836D01*
X159007671Y-110300317D01*
X158906155Y-110314230D01*
X158892791Y-110315329D01*
X158872130Y-110315907D01*
X158864324Y-110317542D01*
X158838078Y-110319407D01*
X158838072Y-110319408D01*
X158723484Y-110352555D01*
X158618415Y-110409056D01*
X158618407Y-110409062D01*
X158527573Y-110486380D01*
X158455019Y-110581074D01*
X158455018Y-110581076D01*
X158403992Y-110688904D01*
X158388678Y-110754259D01*
X158376775Y-110805053D01*
X158376007Y-110844291D01*
X158375600Y-110844699D01*
X158375600Y-110865177D01*
X158375590Y-110865687D01*
X158375579Y-110866282D01*
X158375579Y-110866318D01*
X158375020Y-110896650D01*
X158375600Y-110900539D01*
X158375600Y-111829809D01*
X158355915Y-111896848D01*
X158303111Y-111942603D01*
X158233953Y-111952547D01*
X158177290Y-111929077D01*
X158168188Y-111922263D01*
X158168186Y-111922262D01*
X158033479Y-111872020D01*
X158033472Y-111872018D01*
X157973944Y-111865617D01*
X157926100Y-111865617D01*
X157926100Y-112966617D01*
X157923549Y-112975302D01*
X157924838Y-112984264D01*
X157913859Y-113008304D01*
X157906415Y-113033656D01*
X157899574Y-113039583D01*
X157895813Y-113047820D01*
X157873578Y-113062109D01*
X157853611Y-113079411D01*
X157843096Y-113081698D01*
X157837035Y-113085594D01*
X157802100Y-113090617D01*
X157750600Y-113090617D01*
X157683561Y-113070932D01*
X157637806Y-113018128D01*
X157626600Y-112966617D01*
X157626600Y-112345866D01*
X157626599Y-112345864D01*
X157614968Y-112287390D01*
X157614967Y-112287389D01*
X157614967Y-112287386D01*
X157596997Y-112260493D01*
X157576120Y-112193816D01*
X157576100Y-112191603D01*
X157576100Y-111865617D01*
X157528255Y-111865617D01*
X157468727Y-111872018D01*
X157468720Y-111872020D01*
X157334013Y-111922262D01*
X157334006Y-111922266D01*
X157218912Y-112008426D01*
X157137956Y-112116568D01*
X157115880Y-112133092D01*
X157096007Y-112152214D01*
X157086583Y-112155023D01*
X157082022Y-112158438D01*
X157062706Y-112163908D01*
X157056582Y-112165117D01*
X157056352Y-112165117D01*
X157025824Y-112171189D01*
X157025116Y-112171329D01*
X157024742Y-112171295D01*
X156976912Y-112171295D01*
X156939876Y-112163929D01*
X156940408Y-112161253D01*
X156886509Y-112139452D01*
X156864243Y-112116567D01*
X156783290Y-112008429D01*
X156783287Y-112008426D01*
X156668193Y-111922266D01*
X156668186Y-111922262D01*
X156533479Y-111872020D01*
X156533472Y-111872018D01*
X156473944Y-111865617D01*
X156426100Y-111865617D01*
X156426100Y-112191603D01*
X156423549Y-112200288D01*
X156424838Y-112209250D01*
X156408065Y-112253021D01*
X156406415Y-112258642D01*
X156405661Y-112259294D01*
X156405202Y-112260494D01*
X156387233Y-112287386D01*
X156387231Y-112287390D01*
X156375600Y-112345864D01*
X156375600Y-112966617D01*
X156373049Y-112975302D01*
X156374338Y-112984264D01*
X156363359Y-113008304D01*
X156355915Y-113033656D01*
X156349074Y-113039583D01*
X156345313Y-113047820D01*
X156323078Y-113062109D01*
X156303111Y-113079411D01*
X156292596Y-113081698D01*
X156286535Y-113085594D01*
X156251600Y-113090617D01*
X156250600Y-113090617D01*
X156183561Y-113070932D01*
X156137806Y-113018128D01*
X156126600Y-112966617D01*
X156126600Y-112345866D01*
X156126599Y-112345864D01*
X156114968Y-112287390D01*
X156114967Y-112287389D01*
X156114967Y-112287386D01*
X156096997Y-112260493D01*
X156093960Y-112250793D01*
X156087306Y-112243114D01*
X156083697Y-112218014D01*
X156076120Y-112193816D01*
X156076100Y-112191603D01*
X156076100Y-111972831D01*
X156094691Y-111907526D01*
X157356096Y-109871575D01*
X157379053Y-109819614D01*
X157397646Y-109754307D01*
X157405500Y-109698037D01*
X157405500Y-103686215D01*
X157398588Y-103633364D01*
X157387912Y-103593248D01*
X157382197Y-103571773D01*
X157382192Y-103571757D01*
X157382185Y-103571730D01*
X157376141Y-103552769D01*
X157367488Y-103539602D01*
X157322091Y-103470520D01*
X157324134Y-103469176D01*
X157300929Y-103415511D01*
X157299999Y-103400351D01*
X157300000Y-103375000D01*
X157173806Y-103375000D01*
X157172771Y-103374540D01*
X157104209Y-103361084D01*
X157079294Y-103357761D01*
X156988906Y-103371698D01*
X156980576Y-103375000D01*
X156024000Y-103375000D01*
X155956961Y-103355315D01*
X155911206Y-103302511D01*
X155900000Y-103251000D01*
X155900000Y-103125000D01*
X155774000Y-103125000D01*
X155706961Y-103105315D01*
X155661206Y-103052511D01*
X155650000Y-103001000D01*
X155650000Y-102875000D01*
X156150000Y-102875000D01*
X157299999Y-102875000D01*
X157299999Y-102750028D01*
X157299998Y-102750013D01*
X157289505Y-102647302D01*
X157234358Y-102480880D01*
X157234356Y-102480875D01*
X157142315Y-102331654D01*
X157018345Y-102207684D01*
X156869124Y-102115643D01*
X156869119Y-102115641D01*
X156702697Y-102060494D01*
X156702690Y-102060493D01*
X156599986Y-102050000D01*
X156150000Y-102050000D01*
X156150000Y-102875000D01*
X155650000Y-102875000D01*
X155650000Y-102050000D01*
X155200028Y-102050000D01*
X155200012Y-102050001D01*
X155097302Y-102060494D01*
X154930880Y-102115641D01*
X154930875Y-102115643D01*
X154781654Y-102207684D01*
X154657684Y-102331654D01*
X154565643Y-102480875D01*
X154565641Y-102480880D01*
X154510494Y-102647302D01*
X154510493Y-102647310D01*
X154506837Y-102683101D01*
X154480442Y-102747793D01*
X154423261Y-102787945D01*
X154383479Y-102794500D01*
X152423992Y-102794500D01*
X152380313Y-102799197D01*
X152328825Y-102810397D01*
X152318627Y-102812890D01*
X152318624Y-102812891D01*
X152237916Y-102855899D01*
X152237913Y-102855901D01*
X152185104Y-102901660D01*
X152163344Y-102922980D01*
X152101681Y-102955835D01*
X152052375Y-102956022D01*
X152019778Y-102949538D01*
X152019774Y-102949538D01*
X150823999Y-102949538D01*
X150756960Y-102929853D01*
X150711205Y-102877049D01*
X150699999Y-102825538D01*
X150699999Y-102750028D01*
X150699998Y-102750013D01*
X150689505Y-102647302D01*
X150634358Y-102480880D01*
X150634356Y-102480875D01*
X150542315Y-102331654D01*
X150418345Y-102207684D01*
X150269124Y-102115643D01*
X150269119Y-102115641D01*
X150102697Y-102060494D01*
X150102690Y-102060493D01*
X149999986Y-102050000D01*
X149550000Y-102050000D01*
X149550000Y-104199999D01*
X149999972Y-104199999D01*
X149999986Y-104199998D01*
X150102697Y-104189505D01*
X150269119Y-104134358D01*
X150269124Y-104134356D01*
X150418342Y-104042317D01*
X150529921Y-103930738D01*
X150591244Y-103897253D01*
X150660936Y-103902237D01*
X150686495Y-103915318D01*
X150721794Y-103938905D01*
X150721796Y-103938906D01*
X150780273Y-103950537D01*
X150780276Y-103950538D01*
X151970500Y-103950538D01*
X152037539Y-103970223D01*
X152083294Y-104023027D01*
X152094500Y-104074538D01*
X152094500Y-104725462D01*
X152074815Y-104792501D01*
X152022011Y-104838256D01*
X151970500Y-104849462D01*
X151717361Y-104849462D01*
X151655360Y-104832848D01*
X151622166Y-104813683D01*
X151622163Y-104813682D01*
X151622162Y-104813681D01*
X151622161Y-104813681D01*
X151475792Y-104774462D01*
X151324260Y-104774462D01*
X151177891Y-104813681D01*
X151177890Y-104813681D01*
X151177888Y-104813682D01*
X151177885Y-104813683D01*
X151144692Y-104832848D01*
X151082691Y-104849462D01*
X150780273Y-104849462D01*
X150721796Y-104861093D01*
X150721795Y-104861094D01*
X150655473Y-104905409D01*
X150611158Y-104971731D01*
X150611157Y-104971732D01*
X150599526Y-105030209D01*
X150599526Y-105309949D01*
X150595576Y-105323397D01*
X150596452Y-105337387D01*
X150585927Y-105356258D01*
X150579841Y-105376988D01*
X150568565Y-105387392D01*
X150562422Y-105398409D01*
X150533982Y-105419305D01*
X150524818Y-105424204D01*
X150489003Y-105443348D01*
X150466547Y-105452650D01*
X150406446Y-105470883D01*
X150336579Y-105471508D01*
X150277465Y-105434261D01*
X150272866Y-105428566D01*
X150272151Y-105427851D01*
X150267209Y-105424204D01*
X150162882Y-105347207D01*
X150162880Y-105347206D01*
X150034700Y-105302353D01*
X150004270Y-105299500D01*
X150004266Y-105299500D01*
X148595734Y-105299500D01*
X148595730Y-105299500D01*
X148565300Y-105302353D01*
X148565298Y-105302353D01*
X148437119Y-105347206D01*
X148437117Y-105347207D01*
X148367741Y-105398409D01*
X148327850Y-105427850D01*
X148312163Y-105449106D01*
X148312142Y-105449134D01*
X148308161Y-105452156D01*
X148306085Y-105456703D01*
X148280611Y-105473073D01*
X148256494Y-105491385D01*
X148250363Y-105492512D01*
X148247307Y-105494477D01*
X148212372Y-105499500D01*
X148062622Y-105499500D01*
X148062589Y-105499498D01*
X148055005Y-105499498D01*
X148047967Y-105499498D01*
X147989998Y-105499499D01*
X147980270Y-105499117D01*
X147797804Y-105484761D01*
X147778585Y-105481717D01*
X147605371Y-105440135D01*
X147586864Y-105434122D01*
X147422276Y-105365949D01*
X147404939Y-105357116D01*
X147253051Y-105264040D01*
X147237309Y-105252603D01*
X147098292Y-105133872D01*
X147091142Y-105127262D01*
X147077444Y-105113564D01*
X147077442Y-105113561D01*
X147040711Y-105076829D01*
X147040688Y-105076808D01*
X146914808Y-104950928D01*
X146906636Y-104941912D01*
X146839692Y-104860341D01*
X146826187Y-104840130D01*
X146779333Y-104752474D01*
X146770033Y-104730019D01*
X146741180Y-104634905D01*
X146736438Y-104611067D01*
X146726097Y-104506070D01*
X146725500Y-104493917D01*
X146725500Y-103499986D01*
X147900001Y-103499986D01*
X147910494Y-103602697D01*
X147965641Y-103769119D01*
X147965643Y-103769124D01*
X148057684Y-103918345D01*
X148181654Y-104042315D01*
X148330875Y-104134356D01*
X148330880Y-104134358D01*
X148497302Y-104189505D01*
X148497309Y-104189506D01*
X148600019Y-104199999D01*
X149049999Y-104199999D01*
X149050000Y-104199998D01*
X149050000Y-103375000D01*
X147900001Y-103375000D01*
X147900001Y-103499986D01*
X146725500Y-103499986D01*
X146725500Y-103254875D01*
X146725882Y-103245146D01*
X146729765Y-103195807D01*
X146739941Y-103066497D01*
X146742983Y-103047291D01*
X146783677Y-102877787D01*
X146789685Y-102859298D01*
X146856393Y-102698246D01*
X146865217Y-102680929D01*
X146956298Y-102532293D01*
X146967719Y-102516572D01*
X147084014Y-102380403D01*
X147090601Y-102373278D01*
X147129081Y-102334798D01*
X147134971Y-102329281D01*
X147262312Y-102217606D01*
X147275158Y-102207749D01*
X147412598Y-102115913D01*
X147426611Y-102107823D01*
X147574855Y-102034716D01*
X147589826Y-102028515D01*
X147746335Y-101975386D01*
X147761979Y-101971194D01*
X147924085Y-101938947D01*
X147940161Y-101936831D01*
X148108954Y-101925765D01*
X148117065Y-101925500D01*
X148201909Y-101925500D01*
X148268948Y-101945185D01*
X148314703Y-101997989D01*
X148324647Y-102067147D01*
X148295622Y-102130703D01*
X148267006Y-102155039D01*
X148181654Y-102207684D01*
X148057684Y-102331654D01*
X147965643Y-102480875D01*
X147965641Y-102480880D01*
X147910494Y-102647302D01*
X147910493Y-102647309D01*
X147900000Y-102750013D01*
X147900000Y-102875000D01*
X149050000Y-102875000D01*
X149050000Y-102049999D01*
X149029426Y-102029426D01*
X148995940Y-101968103D01*
X149000924Y-101898411D01*
X149042795Y-101842478D01*
X149081105Y-101823085D01*
X149308420Y-101754131D01*
X149579810Y-101641717D01*
X149838875Y-101503243D01*
X150083120Y-101340043D01*
X150310191Y-101153688D01*
X150360471Y-101103408D01*
X155642365Y-95821512D01*
X155642373Y-95821508D01*
X155686064Y-95777814D01*
X155698224Y-95767151D01*
X155747140Y-95729615D01*
X155775163Y-95713435D01*
X155824561Y-95692973D01*
X155855828Y-95684596D01*
X155858355Y-95684264D01*
X155893923Y-95684732D01*
X155993475Y-95700499D01*
X155993481Y-95700500D01*
X156606518Y-95700499D01*
X156700304Y-95685646D01*
X156813342Y-95628050D01*
X156847059Y-95594333D01*
X156908381Y-95560847D01*
X156978073Y-95565831D01*
X157034007Y-95607701D01*
X157052446Y-95643008D01*
X157062903Y-95674566D01*
X157062908Y-95674577D01*
X157151114Y-95817580D01*
X157246353Y-95912819D01*
X157279838Y-95974142D01*
X157274854Y-96043834D01*
X157232982Y-96099767D01*
X157167518Y-96124184D01*
X157158672Y-96124500D01*
X156224228Y-96124500D01*
X156146695Y-96145275D01*
X156114604Y-96149500D01*
X155993482Y-96149500D01*
X155912519Y-96162323D01*
X155899696Y-96164354D01*
X155786658Y-96221950D01*
X155786657Y-96221951D01*
X155786652Y-96221954D01*
X155696954Y-96311652D01*
X155696951Y-96311657D01*
X155639352Y-96424698D01*
X155624500Y-96518475D01*
X155624500Y-96981517D01*
X155635292Y-97049657D01*
X155639354Y-97075304D01*
X155696950Y-97188342D01*
X155696952Y-97188344D01*
X155696954Y-97188347D01*
X155786652Y-97278045D01*
X155786654Y-97278046D01*
X155786658Y-97278050D01*
X155899694Y-97335645D01*
X155899698Y-97335647D01*
X155993475Y-97350499D01*
X155993481Y-97350500D01*
X156606518Y-97350499D01*
X156700304Y-97335646D01*
X156791823Y-97289014D01*
X156848116Y-97275500D01*
X157416600Y-97275500D01*
X157472892Y-97289014D01*
X157587580Y-97347451D01*
X157587581Y-97347451D01*
X157587583Y-97347452D01*
X157587582Y-97347452D01*
X157685749Y-97363000D01*
X157685754Y-97363000D01*
X158264251Y-97363000D01*
X158362417Y-97347452D01*
X158362418Y-97347451D01*
X158362420Y-97347451D01*
X158480751Y-97287158D01*
X158574658Y-97193251D01*
X158634951Y-97074920D01*
X158634951Y-97074918D01*
X158634952Y-97074917D01*
X158650500Y-96976751D01*
X158650500Y-96473248D01*
X158634952Y-96375082D01*
X158634951Y-96375080D01*
X158574658Y-96256749D01*
X158574654Y-96256745D01*
X158574653Y-96256743D01*
X158527622Y-96209712D01*
X158494137Y-96148389D01*
X158499121Y-96078697D01*
X158540993Y-96022764D01*
X158550207Y-96016492D01*
X158680078Y-95936387D01*
X158798885Y-95817580D01*
X158887091Y-95674577D01*
X158887093Y-95674572D01*
X158939942Y-95515083D01*
X158949999Y-95416650D01*
X158950000Y-95416637D01*
X158950000Y-95400000D01*
X158099000Y-95400000D01*
X158031961Y-95380315D01*
X157986206Y-95327511D01*
X157975000Y-95276000D01*
X157975000Y-95150000D01*
X157849000Y-95150000D01*
X157781961Y-95130315D01*
X157736206Y-95077511D01*
X157725000Y-95026000D01*
X157725000Y-94900000D01*
X158225000Y-94900000D01*
X158949999Y-94900000D01*
X158949999Y-94883364D01*
X158949998Y-94883347D01*
X158939943Y-94784916D01*
X158887093Y-94625427D01*
X158887091Y-94625422D01*
X158798885Y-94482419D01*
X158680080Y-94363614D01*
X158537077Y-94275408D01*
X158537072Y-94275406D01*
X158377583Y-94222557D01*
X158279150Y-94212500D01*
X158225000Y-94212500D01*
X158225000Y-94900000D01*
X157725000Y-94900000D01*
X157725000Y-94212500D01*
X157724999Y-94212499D01*
X157670864Y-94212500D01*
X157670847Y-94212501D01*
X157572415Y-94222557D01*
X157412927Y-94275406D01*
X157412922Y-94275408D01*
X157269919Y-94363614D01*
X157151113Y-94482420D01*
X157151110Y-94482424D01*
X157070427Y-94613231D01*
X157018479Y-94659956D01*
X156949516Y-94671177D01*
X156885434Y-94643334D01*
X156877208Y-94635815D01*
X156813347Y-94571954D01*
X156813344Y-94571952D01*
X156813342Y-94571950D01*
X156720197Y-94524490D01*
X156700301Y-94514352D01*
X156606524Y-94499500D01*
X155993482Y-94499500D01*
X155915849Y-94511795D01*
X155899696Y-94514354D01*
X155899695Y-94514354D01*
X155899691Y-94514355D01*
X155890416Y-94517369D01*
X155889642Y-94514986D01*
X155850038Y-94524490D01*
X155827938Y-94524490D01*
X155635481Y-94549828D01*
X155447967Y-94600074D01*
X155268639Y-94674357D01*
X155268629Y-94674361D01*
X155100516Y-94771427D01*
X155100503Y-94771435D01*
X154946523Y-94889594D01*
X154946519Y-94889597D01*
X154890031Y-94946087D01*
X154890030Y-94946087D01*
X149603041Y-100233077D01*
X149597119Y-100238624D01*
X149425446Y-100389179D01*
X149412578Y-100399053D01*
X149226113Y-100523645D01*
X149212066Y-100531755D01*
X149010932Y-100630944D01*
X148995946Y-100637151D01*
X148783587Y-100709237D01*
X148767920Y-100713435D01*
X148547970Y-100757186D01*
X148531890Y-100759303D01*
X148322528Y-100773026D01*
X148304103Y-100774234D01*
X148295994Y-100774500D01*
X148190653Y-100774500D01*
X148190637Y-100774499D01*
X148164536Y-100774499D01*
X148164498Y-100774488D01*
X147970591Y-100774490D01*
X147687262Y-100806418D01*
X147687251Y-100806420D01*
X147409268Y-100869870D01*
X147140131Y-100964047D01*
X147140129Y-100964048D01*
X146883232Y-101087765D01*
X146641801Y-101239468D01*
X146418866Y-101417252D01*
X146326420Y-101509697D01*
X146326415Y-101509701D01*
X146326413Y-101509705D01*
X146322796Y-101513321D01*
X146322794Y-101513323D01*
X146314986Y-101521131D01*
X146309706Y-101526411D01*
X146309670Y-101526430D01*
X146178626Y-101657479D01*
X146011522Y-101867026D01*
X145868941Y-102093949D01*
X145752655Y-102335425D01*
X145664142Y-102588386D01*
X145664140Y-102588392D01*
X145604506Y-102849671D01*
X145604503Y-102849689D01*
X145574500Y-103115989D01*
X145574500Y-103445602D01*
X145571949Y-103454287D01*
X145573238Y-103463249D01*
X145562259Y-103487289D01*
X145554815Y-103512641D01*
X145547974Y-103518568D01*
X145544213Y-103526805D01*
X145521978Y-103541094D01*
X145502011Y-103558396D01*
X145491496Y-103560683D01*
X145485435Y-103564579D01*
X145450500Y-103569602D01*
X145447956Y-103569602D01*
X145395551Y-103557984D01*
X145392907Y-103556751D01*
X145370130Y-103546130D01*
X145370128Y-103546129D01*
X145370126Y-103546129D01*
X145320544Y-103539602D01*
X144900748Y-103539602D01*
X144886270Y-103541508D01*
X144851156Y-103546130D01*
X144851154Y-103546131D01*
X144851152Y-103546131D01*
X144825735Y-103557984D01*
X144814731Y-103560423D01*
X144808265Y-103564579D01*
X144773330Y-103569602D01*
X144768712Y-103569602D01*
X144701673Y-103549917D01*
X144681024Y-103533277D01*
X144641986Y-103494233D01*
X144641925Y-103494179D01*
X144622723Y-103474977D01*
X144589238Y-103413654D01*
X144586404Y-103387296D01*
X144586404Y-103330236D01*
X144586403Y-103330234D01*
X144574772Y-103271757D01*
X144574771Y-103271756D01*
X144530456Y-103205434D01*
X144496470Y-103182726D01*
X144451665Y-103129114D01*
X144442958Y-103059789D01*
X144446285Y-103045028D01*
X144467787Y-102971017D01*
X144467788Y-102971014D01*
X144469433Y-102950102D01*
X143940643Y-102950102D01*
X143940643Y-103105872D01*
X143920958Y-103172911D01*
X143898467Y-103195807D01*
X143899463Y-103196803D01*
X143890827Y-103205437D01*
X143846514Y-103271756D01*
X143846513Y-103271757D01*
X143834882Y-103330234D01*
X143834882Y-103416611D01*
X143833170Y-103425108D01*
X143834108Y-103430446D01*
X143828919Y-103446224D01*
X143825219Y-103464602D01*
X143822187Y-103471824D01*
X143790844Y-103526113D01*
X143775740Y-103582483D01*
X143772481Y-103590248D01*
X143759602Y-103606076D01*
X143745827Y-103629937D01*
X143712085Y-103663680D01*
X143650762Y-103697166D01*
X143624402Y-103700000D01*
X143509142Y-103700000D01*
X143442103Y-103680315D01*
X143396348Y-103627511D01*
X143385142Y-103576000D01*
X143385142Y-102826851D01*
X143404827Y-102759812D01*
X143421461Y-102739170D01*
X143440643Y-102719988D01*
X143440643Y-101941572D01*
X143307405Y-101923027D01*
X143298736Y-101919115D01*
X143289226Y-101919088D01*
X143267406Y-101904977D01*
X143246618Y-101895596D01*
X143940643Y-101895596D01*
X143940643Y-102450102D01*
X144469433Y-102450102D01*
X144467788Y-102429191D01*
X144422674Y-102273906D01*
X144340364Y-102134727D01*
X144340357Y-102134718D01*
X144226026Y-102020387D01*
X144226017Y-102020380D01*
X144086836Y-101938069D01*
X144086833Y-101938067D01*
X143940644Y-101895595D01*
X143940643Y-101895596D01*
X143246618Y-101895596D01*
X143243719Y-101894288D01*
X143238541Y-101886309D01*
X143230556Y-101881146D01*
X143219829Y-101857478D01*
X143205681Y-101835680D01*
X143205638Y-101826169D01*
X143201712Y-101817507D01*
X143200500Y-101800211D01*
X143200500Y-101740693D01*
X143200500Y-101740691D01*
X143169799Y-101626114D01*
X143110489Y-101523387D01*
X143026613Y-101439511D01*
X142923886Y-101380201D01*
X142809309Y-101349500D01*
X142690691Y-101349500D01*
X142606235Y-101372129D01*
X142536387Y-101370467D01*
X142478524Y-101331305D01*
X142451020Y-101267076D01*
X142450143Y-101252355D01*
X142450143Y-100338321D01*
X142469828Y-100271282D01*
X142486462Y-100250640D01*
X142510489Y-100226613D01*
X142569799Y-100123886D01*
X142600500Y-100009309D01*
X142600500Y-100009305D01*
X142601561Y-100001249D01*
X142603349Y-100001484D01*
X142620185Y-99944148D01*
X142636814Y-99923511D01*
X147241360Y-95318964D01*
X147302681Y-95285481D01*
X147353230Y-95285030D01*
X147431002Y-95300499D01*
X147431005Y-95300500D01*
X147431007Y-95300500D01*
X147568995Y-95300500D01*
X147660041Y-95282389D01*
X147704328Y-95273580D01*
X147831811Y-95220775D01*
X147946542Y-95144114D01*
X148044114Y-95046542D01*
X148120775Y-94931811D01*
X148173580Y-94804328D01*
X148182389Y-94760041D01*
X148200500Y-94668995D01*
X148200500Y-94531004D01*
X148173581Y-94395677D01*
X148173580Y-94395676D01*
X148173580Y-94395672D01*
X148160301Y-94363614D01*
X148120778Y-94268195D01*
X148120771Y-94268182D01*
X148044114Y-94153458D01*
X148044111Y-94153454D01*
X147946545Y-94055888D01*
X147946541Y-94055885D01*
X147831817Y-93979228D01*
X147831804Y-93979221D01*
X147704332Y-93926421D01*
X147704322Y-93926418D01*
X147568995Y-93899500D01*
X147568993Y-93899500D01*
X147431007Y-93899500D01*
X147431005Y-93899500D01*
X147295677Y-93926418D01*
X147295667Y-93926421D01*
X147168195Y-93979221D01*
X147168182Y-93979228D01*
X147053458Y-94055885D01*
X147053454Y-94055888D01*
X146955888Y-94153454D01*
X146955885Y-94153458D01*
X146879228Y-94268182D01*
X146879221Y-94268195D01*
X146826421Y-94395667D01*
X146826418Y-94395677D01*
X146799500Y-94531004D01*
X146799500Y-94531007D01*
X146799500Y-94668993D01*
X146801015Y-94676609D01*
X146814970Y-94746768D01*
X146808742Y-94816359D01*
X146781033Y-94858639D01*
X142176492Y-99463181D01*
X142115169Y-99496666D01*
X142109677Y-99497732D01*
X142099320Y-99499500D01*
X142090691Y-99499500D01*
X142075542Y-99503558D01*
X142069872Y-99504527D01*
X142040654Y-99501107D01*
X142011246Y-99500406D01*
X142006349Y-99497091D01*
X142000476Y-99496404D01*
X141977746Y-99477731D01*
X141953385Y-99461242D01*
X141951057Y-99455805D01*
X141946488Y-99452052D01*
X141937462Y-99424056D01*
X141925882Y-99397012D01*
X141926188Y-99389088D01*
X141925049Y-99385553D01*
X141926544Y-99379917D01*
X141927388Y-99358106D01*
X141965914Y-99164428D01*
X141968187Y-99154966D01*
X142052277Y-98856813D01*
X142074591Y-98777697D01*
X142077585Y-98768480D01*
X142213272Y-98400697D01*
X142216980Y-98391745D01*
X142381096Y-98035756D01*
X142385504Y-98027105D01*
X142577040Y-97685102D01*
X142582116Y-97676818D01*
X142799906Y-97350879D01*
X142805616Y-97343022D01*
X143048284Y-97035206D01*
X143054607Y-97027803D01*
X143152364Y-96922052D01*
X143323064Y-96737394D01*
X143326365Y-96733960D01*
X143360407Y-96699919D01*
X144741360Y-95318964D01*
X144802681Y-95285481D01*
X144853230Y-95285030D01*
X144931002Y-95300499D01*
X144931005Y-95300500D01*
X144931007Y-95300500D01*
X145068995Y-95300500D01*
X145160041Y-95282389D01*
X145204328Y-95273580D01*
X145331811Y-95220775D01*
X145446542Y-95144114D01*
X145544114Y-95046542D01*
X145620775Y-94931811D01*
X145673580Y-94804328D01*
X145682389Y-94760041D01*
X145700500Y-94668995D01*
X145700500Y-94531004D01*
X145673581Y-94395677D01*
X145673580Y-94395676D01*
X145673580Y-94395672D01*
X145660301Y-94363614D01*
X145620778Y-94268195D01*
X145620771Y-94268182D01*
X145544114Y-94153458D01*
X145544111Y-94153454D01*
X145446545Y-94055888D01*
X145446541Y-94055885D01*
X145331817Y-93979228D01*
X145331804Y-93979221D01*
X145204332Y-93926421D01*
X145204322Y-93926418D01*
X145068995Y-93899500D01*
X145068993Y-93899500D01*
X144931007Y-93899500D01*
X144931005Y-93899500D01*
X144795677Y-93926418D01*
X144795667Y-93926421D01*
X144668195Y-93979221D01*
X144668182Y-93979228D01*
X144553458Y-94055885D01*
X144553454Y-94055888D01*
X144455888Y-94153454D01*
X144455885Y-94153458D01*
X144379228Y-94268182D01*
X144379221Y-94268195D01*
X144326421Y-94395667D01*
X144326418Y-94395677D01*
X144299500Y-94531004D01*
X144299500Y-94668997D01*
X144314969Y-94746765D01*
X144308742Y-94816357D01*
X144281033Y-94858637D01*
X142827924Y-96311747D01*
X142827522Y-96312204D01*
X142703451Y-96436274D01*
X142703435Y-96436291D01*
X142409127Y-96780874D01*
X142409111Y-96780894D01*
X142142764Y-97147480D01*
X142142747Y-97147506D01*
X141905960Y-97533899D01*
X141905950Y-97533916D01*
X141700222Y-97937670D01*
X141526795Y-98356350D01*
X141386752Y-98787345D01*
X141386750Y-98787354D01*
X141370074Y-98856813D01*
X141335282Y-98917405D01*
X141273256Y-98949568D01*
X141203687Y-98943092D01*
X141148663Y-98900031D01*
X141125655Y-98834059D01*
X141125500Y-98827865D01*
X141125500Y-97505561D01*
X141125695Y-97498608D01*
X141127907Y-97459226D01*
X141141313Y-97220540D01*
X141142867Y-97206742D01*
X141188936Y-96935607D01*
X141192030Y-96922052D01*
X141268170Y-96657768D01*
X141272752Y-96644672D01*
X141378007Y-96390569D01*
X141384026Y-96378069D01*
X141517072Y-96137341D01*
X141524460Y-96125586D01*
X141683611Y-95901284D01*
X141692270Y-95890427D01*
X141736649Y-95840768D01*
X141874307Y-95686729D01*
X141877960Y-95682641D01*
X141882720Y-95677605D01*
X142241359Y-95318965D01*
X142302682Y-95285481D01*
X142353231Y-95285030D01*
X142431002Y-95300499D01*
X142431005Y-95300500D01*
X142431007Y-95300500D01*
X142568995Y-95300500D01*
X142660041Y-95282389D01*
X142704328Y-95273580D01*
X142831811Y-95220775D01*
X142946542Y-95144114D01*
X143044114Y-95046542D01*
X143120775Y-94931811D01*
X143173580Y-94804328D01*
X143182389Y-94760041D01*
X143200500Y-94668995D01*
X143200500Y-94531004D01*
X143173581Y-94395677D01*
X143173580Y-94395676D01*
X143173580Y-94395672D01*
X143160301Y-94363614D01*
X143120778Y-94268195D01*
X143120771Y-94268182D01*
X143044114Y-94153458D01*
X143044111Y-94153454D01*
X142946545Y-94055888D01*
X142946541Y-94055885D01*
X142831817Y-93979228D01*
X142831804Y-93979221D01*
X142704332Y-93926421D01*
X142704322Y-93926418D01*
X142568995Y-93899500D01*
X142568993Y-93899500D01*
X142431007Y-93899500D01*
X142431005Y-93899500D01*
X142295677Y-93926418D01*
X142295667Y-93926421D01*
X142168195Y-93979221D01*
X142168182Y-93979228D01*
X142053458Y-94055885D01*
X142053454Y-94055888D01*
X141955888Y-94153454D01*
X141955885Y-94153458D01*
X141879228Y-94268182D01*
X141879221Y-94268195D01*
X141826421Y-94395667D01*
X141826418Y-94395677D01*
X141799500Y-94531004D01*
X141799500Y-94531007D01*
X141799500Y-94668993D01*
X141801015Y-94676609D01*
X141814970Y-94746768D01*
X141808742Y-94816359D01*
X141781033Y-94858639D01*
X141384463Y-95255208D01*
X141384365Y-95255318D01*
X141307718Y-95331967D01*
X141106548Y-95577093D01*
X141106538Y-95577107D01*
X140930364Y-95840768D01*
X140930353Y-95840786D01*
X140780873Y-96120443D01*
X140780871Y-96120448D01*
X140659510Y-96413436D01*
X140568160Y-96714571D01*
X140529863Y-96773009D01*
X140466050Y-96801466D01*
X140396983Y-96790905D01*
X140344590Y-96744680D01*
X140325500Y-96678575D01*
X140325500Y-95291271D01*
X140345185Y-95224232D01*
X140380610Y-95188169D01*
X140437733Y-95150000D01*
X140446542Y-95144114D01*
X140544114Y-95046542D01*
X140620775Y-94931811D01*
X140673580Y-94804328D01*
X140682389Y-94760041D01*
X140700500Y-94668995D01*
X140700500Y-94531004D01*
X140673581Y-94395677D01*
X140673580Y-94395676D01*
X140673580Y-94395672D01*
X140660301Y-94363614D01*
X140620778Y-94268195D01*
X140620771Y-94268182D01*
X140544114Y-94153458D01*
X140544111Y-94153454D01*
X140446545Y-94055888D01*
X140446541Y-94055885D01*
X140331817Y-93979228D01*
X140331804Y-93979221D01*
X140204332Y-93926421D01*
X140204322Y-93926418D01*
X140068995Y-93899500D01*
X140068993Y-93899500D01*
X139931007Y-93899500D01*
X139931005Y-93899500D01*
X139795677Y-93926418D01*
X139795667Y-93926421D01*
X139668195Y-93979221D01*
X139668182Y-93979228D01*
X139553458Y-94055885D01*
X139553454Y-94055888D01*
X139455888Y-94153454D01*
X139455885Y-94153458D01*
X139379228Y-94268182D01*
X139379221Y-94268195D01*
X139326421Y-94395667D01*
X139326418Y-94395677D01*
X139299500Y-94531004D01*
X139299500Y-94531007D01*
X139299500Y-94668993D01*
X139299500Y-94668995D01*
X139299499Y-94668995D01*
X139326418Y-94804322D01*
X139326421Y-94804332D01*
X139379221Y-94931804D01*
X139379228Y-94931817D01*
X139455885Y-95046541D01*
X139455888Y-95046545D01*
X139553454Y-95144111D01*
X139553462Y-95144117D01*
X139619390Y-95188169D01*
X139664196Y-95241781D01*
X139674500Y-95291271D01*
X139674500Y-99538036D01*
X139654815Y-99605075D01*
X139602011Y-99650830D01*
X139532853Y-99660774D01*
X139469297Y-99631749D01*
X139462819Y-99625717D01*
X139426615Y-99589513D01*
X139426613Y-99589511D01*
X139323886Y-99530201D01*
X139209309Y-99499500D01*
X139090691Y-99499500D01*
X138976114Y-99530201D01*
X138976112Y-99530201D01*
X138976112Y-99530202D01*
X138873387Y-99589511D01*
X138873384Y-99589513D01*
X138789513Y-99673384D01*
X138789511Y-99673387D01*
X138730201Y-99776114D01*
X138699500Y-99890691D01*
X138699500Y-100009309D01*
X138730201Y-100123886D01*
X138789511Y-100226613D01*
X138789513Y-100226615D01*
X138794458Y-100233059D01*
X138793026Y-100234157D01*
X138821666Y-100286606D01*
X138824500Y-100312964D01*
X138824500Y-105739651D01*
X138824492Y-105739678D01*
X138824492Y-105927742D01*
X138824493Y-105927743D01*
X138855108Y-106199443D01*
X138855110Y-106199455D01*
X138915954Y-106466026D01*
X138915957Y-106466035D01*
X139006265Y-106724117D01*
X139006267Y-106724121D01*
X139006268Y-106724124D01*
X139011874Y-106735764D01*
X139124908Y-106970481D01*
X139158851Y-107024500D01*
X139270385Y-107202004D01*
X139376887Y-107335553D01*
X139440868Y-107415782D01*
X139580649Y-107555563D01*
X139580726Y-107555629D01*
X139634222Y-107609125D01*
X139848001Y-107779609D01*
X140079524Y-107925085D01*
X140325879Y-108043724D01*
X140583968Y-108134035D01*
X140850546Y-108194882D01*
X141122255Y-108225498D01*
X141122256Y-108225499D01*
X141122260Y-108225499D01*
X141201685Y-108225499D01*
X141201693Y-108225500D01*
X141216127Y-108225500D01*
X141258977Y-108225500D01*
X141310531Y-108225500D01*
X142122578Y-108225500D01*
X142189617Y-108245185D01*
X142210259Y-108261819D01*
X142233929Y-108285489D01*
X142336656Y-108344799D01*
X142451233Y-108375500D01*
X142451236Y-108375500D01*
X142569848Y-108375500D01*
X142569851Y-108375500D01*
X142684428Y-108344799D01*
X142787155Y-108285489D01*
X142871031Y-108201613D01*
X142930341Y-108098886D01*
X142961042Y-107984309D01*
X142961042Y-107865691D01*
X142930341Y-107751114D01*
X142930339Y-107751111D01*
X142930339Y-107751109D01*
X142930338Y-107751108D01*
X142912406Y-107720049D01*
X142895932Y-107652149D01*
X142918784Y-107586122D01*
X142972338Y-107543488D01*
X143029469Y-107519825D01*
X143204098Y-107419005D01*
X143364072Y-107296253D01*
X143397679Y-107262644D01*
X143397729Y-107262617D01*
X143435373Y-107224971D01*
X143435374Y-107224972D01*
X143506666Y-107153679D01*
X143629419Y-106993703D01*
X143730239Y-106819072D01*
X143807403Y-106632776D01*
X143850875Y-106470523D01*
X143859588Y-106438005D01*
X143860761Y-106429096D01*
X143883277Y-106258033D01*
X143911542Y-106194138D01*
X143969866Y-106155665D01*
X144006217Y-106150217D01*
X144035383Y-106150217D01*
X144035383Y-105424204D01*
X144037933Y-105415518D01*
X144036645Y-105406557D01*
X144047623Y-105382516D01*
X144055068Y-105357165D01*
X144061908Y-105351237D01*
X144065670Y-105343001D01*
X144087904Y-105328711D01*
X144107872Y-105311410D01*
X144118386Y-105309122D01*
X144124448Y-105305227D01*
X144159383Y-105300204D01*
X144261903Y-105300204D01*
X144328942Y-105319889D01*
X144374697Y-105372693D01*
X144385903Y-105424204D01*
X144385903Y-106150217D01*
X144433732Y-106150217D01*
X144433748Y-106150216D01*
X144493276Y-106143815D01*
X144493283Y-106143813D01*
X144627990Y-106093571D01*
X144627997Y-106093567D01*
X144743091Y-106007407D01*
X144743094Y-106007404D01*
X144829254Y-105892310D01*
X144829258Y-105892303D01*
X144860643Y-105808155D01*
X144860643Y-105104102D01*
X144880328Y-105037063D01*
X144933132Y-104991308D01*
X144984643Y-104980102D01*
X145236643Y-104980102D01*
X145303682Y-104999787D01*
X145349437Y-105052591D01*
X145360643Y-105104102D01*
X145360643Y-105758891D01*
X145381553Y-105757247D01*
X145536838Y-105712133D01*
X145676017Y-105629823D01*
X145676022Y-105629819D01*
X145746410Y-105559431D01*
X145759795Y-105552121D01*
X145770114Y-105540891D01*
X145789837Y-105535717D01*
X145807733Y-105525946D01*
X145822944Y-105527033D01*
X145837698Y-105523164D01*
X145857088Y-105529475D01*
X145877425Y-105530930D01*
X145890650Y-105540400D01*
X145904136Y-105544790D01*
X145926926Y-105566377D01*
X145930127Y-105568669D01*
X145931320Y-105570129D01*
X146013998Y-105677877D01*
X146043036Y-105706915D01*
X146043038Y-105706918D01*
X146043113Y-105706993D01*
X146043118Y-105706999D01*
X146144275Y-105808155D01*
X146231146Y-105895026D01*
X146231148Y-105895029D01*
X146244229Y-105908109D01*
X146244258Y-105908163D01*
X146280548Y-105944451D01*
X146280548Y-105944452D01*
X146376277Y-106040179D01*
X146587966Y-106208995D01*
X146817226Y-106353047D01*
X147061174Y-106470523D01*
X147061175Y-106470523D01*
X147061176Y-106470524D01*
X147069756Y-106473526D01*
X147316741Y-106559946D01*
X147316750Y-106559948D01*
X147580696Y-106620189D01*
X147580702Y-106620189D01*
X147580713Y-106620192D01*
X147849771Y-106650502D01*
X147985151Y-106650500D01*
X148212372Y-106650500D01*
X148279411Y-106670185D01*
X148312141Y-106700865D01*
X148327850Y-106722150D01*
X148437118Y-106802793D01*
X148479845Y-106817744D01*
X148565299Y-106847646D01*
X148595730Y-106850500D01*
X148595734Y-106850500D01*
X150004270Y-106850500D01*
X150034699Y-106847646D01*
X150034701Y-106847646D01*
X150098790Y-106825219D01*
X150162882Y-106802793D01*
X150272150Y-106722150D01*
X150291696Y-106695664D01*
X150347342Y-106653413D01*
X150375273Y-106646358D01*
X150579351Y-106619485D01*
X150808929Y-106557963D01*
X151028513Y-106467004D01*
X151030192Y-106466035D01*
X151234333Y-106348170D01*
X151234331Y-106348170D01*
X151234347Y-106348162D01*
X151407938Y-106214959D01*
X151422899Y-106203479D01*
X151422899Y-106203478D01*
X151422908Y-106203472D01*
X151453363Y-106173015D01*
X151453365Y-106173015D01*
X151506940Y-106119440D01*
X151556352Y-106070029D01*
X151556352Y-106070027D01*
X151566554Y-106059826D01*
X151566557Y-106059821D01*
X151739600Y-105886778D01*
X151766529Y-105872075D01*
X151792345Y-105855485D01*
X151798547Y-105854593D01*
X151800923Y-105853296D01*
X151827280Y-105850462D01*
X151970500Y-105850462D01*
X152037539Y-105870147D01*
X152083294Y-105922951D01*
X152094500Y-105974462D01*
X152094500Y-112041116D01*
X152094501Y-112041138D01*
X152094632Y-112042357D01*
X152094581Y-112042637D01*
X152094678Y-112044442D01*
X152094251Y-112044464D01*
X152082218Y-112111115D01*
X152034601Y-112162246D01*
X152028827Y-112165466D01*
X152013020Y-112173736D01*
X151997869Y-112176750D01*
X151963973Y-112199398D01*
X151958086Y-112202479D01*
X151930069Y-112208054D01*
X151902813Y-112216589D01*
X151896243Y-112214786D01*
X151889560Y-112216117D01*
X151862972Y-112205659D01*
X151835433Y-112198104D01*
X151830881Y-112193036D01*
X151824539Y-112190542D01*
X151807825Y-112167369D01*
X151788743Y-112146125D01*
X151787017Y-112138518D01*
X151783667Y-112133874D01*
X151782955Y-112120617D01*
X151776600Y-112092609D01*
X151776600Y-111392323D01*
X151776599Y-111392319D01*
X151743981Y-111249411D01*
X151680379Y-111117340D01*
X151667532Y-111101231D01*
X151654618Y-111085037D01*
X151588983Y-111002734D01*
X151523346Y-110950390D01*
X151474379Y-110911339D01*
X151474376Y-110911337D01*
X151342309Y-110847737D01*
X151342307Y-110847736D01*
X151342306Y-110847736D01*
X151297254Y-110837453D01*
X151199397Y-110815117D01*
X151199394Y-110815117D01*
X151052806Y-110815117D01*
X151052802Y-110815117D01*
X150909890Y-110847737D01*
X150777823Y-110911337D01*
X150777820Y-110911339D01*
X150663217Y-111002734D01*
X150571822Y-111117337D01*
X150571820Y-111117340D01*
X150508220Y-111249407D01*
X150475600Y-111392319D01*
X150475600Y-111904670D01*
X150455915Y-111971709D01*
X150403111Y-112017464D01*
X150333953Y-112027408D01*
X150277289Y-112003936D01*
X150168193Y-111922266D01*
X150168186Y-111922262D01*
X150033479Y-111872020D01*
X150033472Y-111872018D01*
X149973944Y-111865617D01*
X149926100Y-111865617D01*
X149926100Y-112966617D01*
X149923549Y-112975302D01*
X149924838Y-112984264D01*
X149913859Y-113008304D01*
X149906415Y-113033656D01*
X149899574Y-113039583D01*
X149895813Y-113047820D01*
X149873578Y-113062109D01*
X149853611Y-113079411D01*
X149843096Y-113081698D01*
X149837035Y-113085594D01*
X149802100Y-113090617D01*
X149750600Y-113090617D01*
X149683561Y-113070932D01*
X149637806Y-113018128D01*
X149626600Y-112966617D01*
X149626600Y-112345866D01*
X149626599Y-112345864D01*
X149614968Y-112287390D01*
X149614967Y-112287389D01*
X149614967Y-112287386D01*
X149596997Y-112260493D01*
X149576120Y-112193816D01*
X149576100Y-112191603D01*
X149576100Y-111865617D01*
X149528255Y-111865617D01*
X149468727Y-111872018D01*
X149468720Y-111872020D01*
X149334013Y-111922262D01*
X149334006Y-111922266D01*
X149218912Y-112008426D01*
X149137956Y-112116568D01*
X149115880Y-112133092D01*
X149096007Y-112152214D01*
X149086583Y-112155023D01*
X149082022Y-112158438D01*
X149062706Y-112163908D01*
X149056582Y-112165117D01*
X149056352Y-112165117D01*
X149025824Y-112171189D01*
X149025116Y-112171329D01*
X149024742Y-112171295D01*
X148976912Y-112171295D01*
X148939876Y-112163929D01*
X148940408Y-112161253D01*
X148886509Y-112139452D01*
X148864243Y-112116567D01*
X148783290Y-112008429D01*
X148783287Y-112008426D01*
X148668193Y-111922266D01*
X148668186Y-111922262D01*
X148533479Y-111872020D01*
X148533472Y-111872018D01*
X148473944Y-111865617D01*
X148426100Y-111865617D01*
X148426100Y-112191603D01*
X148423549Y-112200288D01*
X148424838Y-112209250D01*
X148408065Y-112253021D01*
X148406415Y-112258642D01*
X148405661Y-112259294D01*
X148405202Y-112260494D01*
X148387233Y-112287386D01*
X148387231Y-112287390D01*
X148375600Y-112345864D01*
X148375600Y-113141617D01*
X148373049Y-113150302D01*
X148374338Y-113159264D01*
X148363359Y-113183304D01*
X148355915Y-113208656D01*
X148349074Y-113214583D01*
X148345313Y-113222820D01*
X148323078Y-113237109D01*
X148303111Y-113254411D01*
X148292596Y-113256698D01*
X148286535Y-113260594D01*
X148251600Y-113265617D01*
X148250600Y-113265617D01*
X148183561Y-113245932D01*
X148137806Y-113193128D01*
X148126600Y-113141617D01*
X148126600Y-112345866D01*
X148126599Y-112345864D01*
X148114968Y-112287390D01*
X148114967Y-112287389D01*
X148114967Y-112287386D01*
X148096997Y-112260493D01*
X148093960Y-112250793D01*
X148087306Y-112243114D01*
X148083697Y-112218014D01*
X148076120Y-112193816D01*
X148076100Y-112191603D01*
X148076100Y-111865617D01*
X148028255Y-111865617D01*
X147968727Y-111872018D01*
X147968720Y-111872020D01*
X147834013Y-111922262D01*
X147834006Y-111922266D01*
X147718912Y-112008426D01*
X147637956Y-112116568D01*
X147615880Y-112133092D01*
X147596007Y-112152214D01*
X147586583Y-112155023D01*
X147582022Y-112158438D01*
X147562706Y-112163908D01*
X147556582Y-112165117D01*
X147556352Y-112165117D01*
X147525824Y-112171189D01*
X147525116Y-112171329D01*
X147524742Y-112171295D01*
X147476912Y-112171295D01*
X147439876Y-112163929D01*
X147440408Y-112161253D01*
X147386509Y-112139452D01*
X147364243Y-112116567D01*
X147283290Y-112008429D01*
X147283287Y-112008426D01*
X147168193Y-111922266D01*
X147168186Y-111922262D01*
X147033479Y-111872020D01*
X147033472Y-111872018D01*
X146973944Y-111865617D01*
X146926100Y-111865617D01*
X146926100Y-112191603D01*
X146923549Y-112200288D01*
X146924838Y-112209250D01*
X146908065Y-112253021D01*
X146906415Y-112258642D01*
X146905661Y-112259294D01*
X146905202Y-112260494D01*
X146887233Y-112287386D01*
X146887231Y-112287390D01*
X146875600Y-112345864D01*
X146875600Y-112966617D01*
X146873049Y-112975302D01*
X146874338Y-112984264D01*
X146863359Y-113008304D01*
X146855915Y-113033656D01*
X146849074Y-113039583D01*
X146845313Y-113047820D01*
X146823078Y-113062109D01*
X146803111Y-113079411D01*
X146792596Y-113081698D01*
X146786535Y-113085594D01*
X146751600Y-113090617D01*
X146750600Y-113090617D01*
X146683561Y-113070932D01*
X146637806Y-113018128D01*
X146626600Y-112966617D01*
X146626600Y-112345866D01*
X146626599Y-112345864D01*
X146614968Y-112287390D01*
X146614967Y-112287389D01*
X146614967Y-112287386D01*
X146596997Y-112260493D01*
X146593960Y-112250793D01*
X146587306Y-112243114D01*
X146583697Y-112218014D01*
X146576120Y-112193816D01*
X146576100Y-112191603D01*
X146576100Y-111865617D01*
X146528255Y-111865617D01*
X146468727Y-111872018D01*
X146468720Y-111872020D01*
X146334013Y-111922262D01*
X146334006Y-111922266D01*
X146218912Y-112008426D01*
X146137956Y-112116568D01*
X146115880Y-112133092D01*
X146096007Y-112152214D01*
X146086583Y-112155023D01*
X146082022Y-112158438D01*
X146062706Y-112163908D01*
X146056582Y-112165117D01*
X146056352Y-112165117D01*
X146025824Y-112171189D01*
X146025116Y-112171329D01*
X146024742Y-112171295D01*
X145976912Y-112171295D01*
X145945849Y-112165117D01*
X145945848Y-112165117D01*
X145556352Y-112165117D01*
X145556351Y-112165117D01*
X145525288Y-112171295D01*
X145476912Y-112171295D01*
X145445849Y-112165117D01*
X145445848Y-112165117D01*
X145056352Y-112165117D01*
X145056351Y-112165117D01*
X145025288Y-112171295D01*
X144976912Y-112171295D01*
X144945849Y-112165117D01*
X144945848Y-112165117D01*
X144556352Y-112165117D01*
X144556351Y-112165117D01*
X144525288Y-112171295D01*
X144476912Y-112171295D01*
X144445849Y-112165117D01*
X144445848Y-112165117D01*
X144056352Y-112165117D01*
X144056351Y-112165117D01*
X144025288Y-112171295D01*
X143976912Y-112171295D01*
X143945849Y-112165117D01*
X143945848Y-112165117D01*
X143556352Y-112165117D01*
X143556351Y-112165117D01*
X143525288Y-112171295D01*
X143476912Y-112171295D01*
X143445849Y-112165117D01*
X143445848Y-112165117D01*
X143056352Y-112165117D01*
X143056351Y-112165117D01*
X143025288Y-112171295D01*
X142976912Y-112171295D01*
X142945849Y-112165117D01*
X142945848Y-112165117D01*
X142556352Y-112165117D01*
X142556351Y-112165117D01*
X142525288Y-112171295D01*
X142476912Y-112171295D01*
X142445849Y-112165117D01*
X142445848Y-112165117D01*
X142056352Y-112165117D01*
X142056351Y-112165117D01*
X142025288Y-112171295D01*
X141976912Y-112171295D01*
X141945849Y-112165117D01*
X141945848Y-112165117D01*
X141556352Y-112165117D01*
X141556351Y-112165117D01*
X141525288Y-112171295D01*
X141476912Y-112171295D01*
X141445849Y-112165117D01*
X141445848Y-112165117D01*
X141056352Y-112165117D01*
X141056351Y-112165117D01*
X141025288Y-112171295D01*
X140976912Y-112171295D01*
X140945849Y-112165117D01*
X140945848Y-112165117D01*
X140556352Y-112165117D01*
X140556351Y-112165117D01*
X140525288Y-112171295D01*
X140476912Y-112171295D01*
X140445849Y-112165117D01*
X140445848Y-112165117D01*
X140056352Y-112165117D01*
X140056351Y-112165117D01*
X140025288Y-112171295D01*
X140017053Y-112171300D01*
X140012330Y-112173167D01*
X139977549Y-112171328D01*
X139977084Y-112171329D01*
X139976378Y-112171189D01*
X139945848Y-112165117D01*
X139945617Y-112165117D01*
X139939493Y-112163908D01*
X139913592Y-112150407D01*
X139886509Y-112139452D01*
X139880266Y-112133035D01*
X139877535Y-112131612D01*
X139875619Y-112128260D01*
X139864243Y-112116567D01*
X139783290Y-112008429D01*
X139783287Y-112008426D01*
X139668193Y-111922266D01*
X139668186Y-111922262D01*
X139533479Y-111872020D01*
X139533472Y-111872018D01*
X139473944Y-111865617D01*
X139426100Y-111865617D01*
X139426100Y-112191603D01*
X139406415Y-112258642D01*
X139405202Y-112260494D01*
X139387233Y-112287386D01*
X139387231Y-112287390D01*
X139375600Y-112345864D01*
X139375600Y-112966617D01*
X139373049Y-112975302D01*
X139374338Y-112984264D01*
X139363359Y-113008304D01*
X139355915Y-113033656D01*
X139349074Y-113039583D01*
X139345313Y-113047820D01*
X139323078Y-113062109D01*
X139303111Y-113079411D01*
X139292596Y-113081698D01*
X139286535Y-113085594D01*
X139251600Y-113090617D01*
X139200100Y-113090617D01*
X139133061Y-113070932D01*
X139087306Y-113018128D01*
X139076100Y-112966617D01*
X139076100Y-111865617D01*
X139028255Y-111865617D01*
X138968727Y-111872018D01*
X138968720Y-111872020D01*
X138834013Y-111922262D01*
X138834011Y-111922263D01*
X138824910Y-111929077D01*
X138759445Y-111953493D01*
X138691172Y-111938641D01*
X138641767Y-111889235D01*
X138626600Y-111829809D01*
X138626600Y-110881241D01*
X138627044Y-110880593D01*
X138626600Y-110864897D01*
X138626600Y-110844699D01*
X138626600Y-110826203D01*
X138625358Y-110820392D01*
X138624921Y-110804774D01*
X138596979Y-110689222D01*
X138545670Y-110581983D01*
X138473227Y-110487723D01*
X138382803Y-110410546D01*
X138278333Y-110353810D01*
X138278331Y-110353809D01*
X138278326Y-110353807D01*
X138164368Y-110319986D01*
X138164370Y-110319986D01*
X138164365Y-110319985D01*
X138164363Y-110319984D01*
X138164360Y-110319984D01*
X138138070Y-110317895D01*
X138137667Y-110317863D01*
X138119954Y-110316397D01*
X138118915Y-110315596D01*
X138105852Y-110315230D01*
X138102491Y-110314952D01*
X138101888Y-110314719D01*
X138095880Y-110314225D01*
X137994523Y-110300333D01*
X137968538Y-110293853D01*
X137878887Y-110260863D01*
X137854901Y-110248955D01*
X137774423Y-110197486D01*
X137753555Y-110180709D01*
X137685997Y-110113152D01*
X137669222Y-110092288D01*
X137617751Y-110011812D01*
X137605842Y-109987826D01*
X137572848Y-109898172D01*
X137566367Y-109872187D01*
X137566283Y-109871575D01*
X137552749Y-109772844D01*
X137551600Y-109756003D01*
X137551600Y-93373470D01*
X137552335Y-93359989D01*
X137557186Y-93315630D01*
X137568343Y-93213611D01*
X137572370Y-93193061D01*
X137600572Y-93094257D01*
X137611797Y-93054931D01*
X137619223Y-93035356D01*
X137681335Y-92905836D01*
X137691953Y-92887786D01*
X137774980Y-92770565D01*
X137788478Y-92754566D01*
X137890053Y-92652989D01*
X137906048Y-92639493D01*
X138023275Y-92556459D01*
X138041318Y-92545845D01*
X138170846Y-92483726D01*
X138190415Y-92476302D01*
X138328541Y-92436873D01*
X138349091Y-92432846D01*
X138495327Y-92416851D01*
X138508809Y-92416117D01*
X149430335Y-92416117D01*
X149497374Y-92435802D01*
G37*
%TD.AperFunction*%
%TA.AperFunction,Conductor*%
G36*
X154921905Y-104130604D02*
G01*
X154930828Y-104134341D01*
X155102850Y-104191343D01*
X155104803Y-104192695D01*
X155107175Y-104192865D01*
X155133383Y-104212482D01*
X155160295Y-104231115D01*
X155161207Y-104233309D01*
X155163110Y-104234734D01*
X155174550Y-104265401D01*
X155187118Y-104295631D01*
X155186699Y-104297970D01*
X155187530Y-104300198D01*
X155180571Y-104332194D01*
X155174803Y-104364407D01*
X155173029Y-104366870D01*
X155172681Y-104368471D01*
X155151531Y-104396727D01*
X155139361Y-104408898D01*
X155127166Y-104419593D01*
X154990176Y-104524718D01*
X154976690Y-104533730D01*
X154827143Y-104620079D01*
X154812599Y-104627252D01*
X154780481Y-104640558D01*
X154733021Y-104650000D01*
X153824000Y-104650000D01*
X153756961Y-104630315D01*
X153711206Y-104577511D01*
X153700000Y-104526000D01*
X153700000Y-104274000D01*
X153719685Y-104206961D01*
X153772489Y-104161206D01*
X153824000Y-104150000D01*
X154807569Y-104150000D01*
X154852214Y-104125621D01*
X154921905Y-104130604D01*
G37*
%TD.AperFunction*%
%TD*%
M02*
