%TF.GenerationSoftware,KiCad,Pcbnew,9.0.0*%
%TF.CreationDate,2025-05-23T15:59:06+04:00*%
%TF.ProjectId,02_03_sensor_IMU_BMI088,30325f30-335f-4736-956e-736f725f494d,rev?*%
%TF.SameCoordinates,Original*%
%TF.FileFunction,Legend,Bot*%
%TF.FilePolarity,Positive*%
%FSLAX46Y46*%
G04 Gerber Fmt 4.6, Leading zero omitted, Abs format (unit mm)*
G04 Created by KiCad (PCBNEW 9.0.0) date 2025-05-23 15:59:06*
%MOMM*%
%LPD*%
G01*
G04 APERTURE LIST*
G04 Aperture macros list*
%AMRoundRect*
0 Rectangle with rounded corners*
0 $1 Rounding radius*
0 $2 $3 $4 $5 $6 $7 $8 $9 X,Y pos of 4 corners*
0 Add a 4 corners polygon primitive as box body*
4,1,4,$2,$3,$4,$5,$6,$7,$8,$9,$2,$3,0*
0 Add four circle primitives for the rounded corners*
1,1,$1+$1,$2,$3*
1,1,$1+$1,$4,$5*
1,1,$1+$1,$6,$7*
1,1,$1+$1,$8,$9*
0 Add four rect primitives between the rounded corners*
20,1,$1+$1,$2,$3,$4,$5,0*
20,1,$1+$1,$4,$5,$6,$7,0*
20,1,$1+$1,$6,$7,$8,$9,0*
20,1,$1+$1,$8,$9,$2,$3,0*%
G04 Aperture macros list end*
%ADD10C,0.175000*%
%ADD11C,0.000000*%
%ADD12C,0.100000*%
%ADD13RoundRect,0.050000X-0.175000X-0.975000X0.175000X-0.975000X0.175000X0.975000X-0.175000X0.975000X0*%
%ADD14C,0.554000*%
G04 APERTURE END LIST*
D10*
X143599114Y-93693702D02*
X142849114Y-93693702D01*
X142849114Y-93693702D02*
X142849114Y-93872273D01*
X142849114Y-93872273D02*
X142884828Y-93979416D01*
X142884828Y-93979416D02*
X142956257Y-94050845D01*
X142956257Y-94050845D02*
X143027685Y-94086559D01*
X143027685Y-94086559D02*
X143170542Y-94122273D01*
X143170542Y-94122273D02*
X143277685Y-94122273D01*
X143277685Y-94122273D02*
X143420542Y-94086559D01*
X143420542Y-94086559D02*
X143491971Y-94050845D01*
X143491971Y-94050845D02*
X143563400Y-93979416D01*
X143563400Y-93979416D02*
X143599114Y-93872273D01*
X143599114Y-93872273D02*
X143599114Y-93693702D01*
X143099114Y-94765131D02*
X143599114Y-94765131D01*
X143099114Y-94443702D02*
X143491971Y-94443702D01*
X143491971Y-94443702D02*
X143563400Y-94479416D01*
X143563400Y-94479416D02*
X143599114Y-94550845D01*
X143599114Y-94550845D02*
X143599114Y-94657988D01*
X143599114Y-94657988D02*
X143563400Y-94729416D01*
X143563400Y-94729416D02*
X143527685Y-94765131D01*
X143599114Y-95122273D02*
X143099114Y-95122273D01*
X143170542Y-95122273D02*
X143134828Y-95157987D01*
X143134828Y-95157987D02*
X143099114Y-95229416D01*
X143099114Y-95229416D02*
X143099114Y-95336559D01*
X143099114Y-95336559D02*
X143134828Y-95407987D01*
X143134828Y-95407987D02*
X143206257Y-95443702D01*
X143206257Y-95443702D02*
X143599114Y-95443702D01*
X143206257Y-95443702D02*
X143134828Y-95479416D01*
X143134828Y-95479416D02*
X143099114Y-95550844D01*
X143099114Y-95550844D02*
X143099114Y-95657987D01*
X143099114Y-95657987D02*
X143134828Y-95729416D01*
X143134828Y-95729416D02*
X143206257Y-95765130D01*
X143206257Y-95765130D02*
X143599114Y-95765130D01*
X143099114Y-96122273D02*
X143849114Y-96122273D01*
X143134828Y-96122273D02*
X143099114Y-96193702D01*
X143099114Y-96193702D02*
X143099114Y-96336559D01*
X143099114Y-96336559D02*
X143134828Y-96407987D01*
X143134828Y-96407987D02*
X143170542Y-96443702D01*
X143170542Y-96443702D02*
X143241971Y-96479416D01*
X143241971Y-96479416D02*
X143456257Y-96479416D01*
X143456257Y-96479416D02*
X143527685Y-96443702D01*
X143527685Y-96443702D02*
X143563400Y-96407987D01*
X143563400Y-96407987D02*
X143599114Y-96336559D01*
X143599114Y-96336559D02*
X143599114Y-96193702D01*
X143599114Y-96193702D02*
X143563400Y-96122273D01*
X143599114Y-96907987D02*
X143563400Y-96836558D01*
X143563400Y-96836558D02*
X143491971Y-96800844D01*
X143491971Y-96800844D02*
X142849114Y-96800844D01*
X143599114Y-97193701D02*
X143099114Y-97193701D01*
X142849114Y-97193701D02*
X142884828Y-97157987D01*
X142884828Y-97157987D02*
X142920542Y-97193701D01*
X142920542Y-97193701D02*
X142884828Y-97229415D01*
X142884828Y-97229415D02*
X142849114Y-97193701D01*
X142849114Y-97193701D02*
X142920542Y-97193701D01*
X143099114Y-97550844D02*
X143599114Y-97550844D01*
X143170542Y-97550844D02*
X143134828Y-97586558D01*
X143134828Y-97586558D02*
X143099114Y-97657987D01*
X143099114Y-97657987D02*
X143099114Y-97765130D01*
X143099114Y-97765130D02*
X143134828Y-97836558D01*
X143134828Y-97836558D02*
X143206257Y-97872273D01*
X143206257Y-97872273D02*
X143599114Y-97872273D01*
X143099114Y-98550844D02*
X143706257Y-98550844D01*
X143706257Y-98550844D02*
X143777685Y-98515129D01*
X143777685Y-98515129D02*
X143813400Y-98479415D01*
X143813400Y-98479415D02*
X143849114Y-98407986D01*
X143849114Y-98407986D02*
X143849114Y-98300844D01*
X143849114Y-98300844D02*
X143813400Y-98229415D01*
X143563400Y-98550844D02*
X143599114Y-98479415D01*
X143599114Y-98479415D02*
X143599114Y-98336558D01*
X143599114Y-98336558D02*
X143563400Y-98265129D01*
X143563400Y-98265129D02*
X143527685Y-98229415D01*
X143527685Y-98229415D02*
X143456257Y-98193701D01*
X143456257Y-98193701D02*
X143241971Y-98193701D01*
X143241971Y-98193701D02*
X143170542Y-98229415D01*
X143170542Y-98229415D02*
X143134828Y-98265129D01*
X143134828Y-98265129D02*
X143099114Y-98336558D01*
X143099114Y-98336558D02*
X143099114Y-98479415D01*
X143099114Y-98479415D02*
X143134828Y-98550844D01*
X143670542Y-98729415D02*
X143670542Y-99300843D01*
X142849114Y-99800844D02*
X142849114Y-99657986D01*
X142849114Y-99657986D02*
X142884828Y-99586558D01*
X142884828Y-99586558D02*
X142920542Y-99550844D01*
X142920542Y-99550844D02*
X143027685Y-99479415D01*
X143027685Y-99479415D02*
X143170542Y-99443701D01*
X143170542Y-99443701D02*
X143456257Y-99443701D01*
X143456257Y-99443701D02*
X143527685Y-99479415D01*
X143527685Y-99479415D02*
X143563400Y-99515129D01*
X143563400Y-99515129D02*
X143599114Y-99586558D01*
X143599114Y-99586558D02*
X143599114Y-99729415D01*
X143599114Y-99729415D02*
X143563400Y-99800844D01*
X143563400Y-99800844D02*
X143527685Y-99836558D01*
X143527685Y-99836558D02*
X143456257Y-99872272D01*
X143456257Y-99872272D02*
X143277685Y-99872272D01*
X143277685Y-99872272D02*
X143206257Y-99836558D01*
X143206257Y-99836558D02*
X143170542Y-99800844D01*
X143170542Y-99800844D02*
X143134828Y-99729415D01*
X143134828Y-99729415D02*
X143134828Y-99586558D01*
X143134828Y-99586558D02*
X143170542Y-99515129D01*
X143170542Y-99515129D02*
X143206257Y-99479415D01*
X143206257Y-99479415D02*
X143277685Y-99443701D01*
X143599114Y-100193701D02*
X142849114Y-100193701D01*
X142849114Y-100193701D02*
X142849114Y-100372272D01*
X142849114Y-100372272D02*
X142884828Y-100479415D01*
X142884828Y-100479415D02*
X142956257Y-100550844D01*
X142956257Y-100550844D02*
X143027685Y-100586558D01*
X143027685Y-100586558D02*
X143170542Y-100622272D01*
X143170542Y-100622272D02*
X143277685Y-100622272D01*
X143277685Y-100622272D02*
X143420542Y-100586558D01*
X143420542Y-100586558D02*
X143491971Y-100550844D01*
X143491971Y-100550844D02*
X143563400Y-100479415D01*
X143563400Y-100479415D02*
X143599114Y-100372272D01*
X143599114Y-100372272D02*
X143599114Y-100193701D01*
X143599114Y-101050844D02*
X143563400Y-100979415D01*
X143563400Y-100979415D02*
X143527685Y-100943701D01*
X143527685Y-100943701D02*
X143456257Y-100907987D01*
X143456257Y-100907987D02*
X143241971Y-100907987D01*
X143241971Y-100907987D02*
X143170542Y-100943701D01*
X143170542Y-100943701D02*
X143134828Y-100979415D01*
X143134828Y-100979415D02*
X143099114Y-101050844D01*
X143099114Y-101050844D02*
X143099114Y-101157987D01*
X143099114Y-101157987D02*
X143134828Y-101229415D01*
X143134828Y-101229415D02*
X143170542Y-101265130D01*
X143170542Y-101265130D02*
X143241971Y-101300844D01*
X143241971Y-101300844D02*
X143456257Y-101300844D01*
X143456257Y-101300844D02*
X143527685Y-101265130D01*
X143527685Y-101265130D02*
X143563400Y-101229415D01*
X143563400Y-101229415D02*
X143599114Y-101157987D01*
X143599114Y-101157987D02*
X143599114Y-101050844D01*
X143206257Y-101872272D02*
X143206257Y-101622272D01*
X143599114Y-101622272D02*
X142849114Y-101622272D01*
X142849114Y-101622272D02*
X142849114Y-101979415D01*
X143599114Y-102836558D02*
X142849114Y-102836558D01*
X143599114Y-103193701D02*
X142849114Y-103193701D01*
X142849114Y-103193701D02*
X143384828Y-103443701D01*
X143384828Y-103443701D02*
X142849114Y-103693701D01*
X142849114Y-103693701D02*
X143599114Y-103693701D01*
X142849114Y-104050844D02*
X143456257Y-104050844D01*
X143456257Y-104050844D02*
X143527685Y-104086558D01*
X143527685Y-104086558D02*
X143563400Y-104122273D01*
X143563400Y-104122273D02*
X143599114Y-104193701D01*
X143599114Y-104193701D02*
X143599114Y-104336558D01*
X143599114Y-104336558D02*
X143563400Y-104407987D01*
X143563400Y-104407987D02*
X143527685Y-104443701D01*
X143527685Y-104443701D02*
X143456257Y-104479415D01*
X143456257Y-104479415D02*
X142849114Y-104479415D01*
X143099114Y-105336558D02*
X143599114Y-105515130D01*
X143599114Y-105515130D02*
X143099114Y-105693701D01*
X142849114Y-106122273D02*
X142849114Y-106193702D01*
X142849114Y-106193702D02*
X142884828Y-106265130D01*
X142884828Y-106265130D02*
X142920542Y-106300845D01*
X142920542Y-106300845D02*
X142991971Y-106336559D01*
X142991971Y-106336559D02*
X143134828Y-106372273D01*
X143134828Y-106372273D02*
X143313400Y-106372273D01*
X143313400Y-106372273D02*
X143456257Y-106336559D01*
X143456257Y-106336559D02*
X143527685Y-106300845D01*
X143527685Y-106300845D02*
X143563400Y-106265130D01*
X143563400Y-106265130D02*
X143599114Y-106193702D01*
X143599114Y-106193702D02*
X143599114Y-106122273D01*
X143599114Y-106122273D02*
X143563400Y-106050845D01*
X143563400Y-106050845D02*
X143527685Y-106015130D01*
X143527685Y-106015130D02*
X143456257Y-105979416D01*
X143456257Y-105979416D02*
X143313400Y-105943702D01*
X143313400Y-105943702D02*
X143134828Y-105943702D01*
X143134828Y-105943702D02*
X142991971Y-105979416D01*
X142991971Y-105979416D02*
X142920542Y-106015130D01*
X142920542Y-106015130D02*
X142884828Y-106050845D01*
X142884828Y-106050845D02*
X142849114Y-106122273D01*
X143527685Y-106693702D02*
X143563400Y-106729416D01*
X143563400Y-106729416D02*
X143599114Y-106693702D01*
X143599114Y-106693702D02*
X143563400Y-106657988D01*
X143563400Y-106657988D02*
X143527685Y-106693702D01*
X143527685Y-106693702D02*
X143599114Y-106693702D01*
X143599114Y-107443702D02*
X143599114Y-107015131D01*
X143599114Y-107229416D02*
X142849114Y-107229416D01*
X142849114Y-107229416D02*
X142956257Y-107157988D01*
X142956257Y-107157988D02*
X143027685Y-107086559D01*
X143027685Y-107086559D02*
X143063400Y-107015131D01*
D11*
%TO.C,G\u002A\u002A\u002A*%
G36*
X141159590Y-101548960D02*
G01*
X141185638Y-101552981D01*
X141207029Y-101560145D01*
X141232225Y-101576217D01*
X141254979Y-101598753D01*
X141272756Y-101625332D01*
X141283924Y-101653965D01*
X141285657Y-101665771D01*
X141286491Y-101682361D01*
X141286206Y-101699937D01*
X141281619Y-101729823D01*
X141269758Y-101760611D01*
X141251448Y-101787279D01*
X141227350Y-101808892D01*
X141198124Y-101824517D01*
X141197228Y-101824862D01*
X141171676Y-101831407D01*
X141142520Y-101833908D01*
X141113230Y-101832302D01*
X141087278Y-101826527D01*
X141086399Y-101826221D01*
X141064348Y-101815001D01*
X141042635Y-101797956D01*
X141023519Y-101777165D01*
X141009257Y-101754707D01*
X141006469Y-101748855D01*
X141001902Y-101737362D01*
X140999263Y-101725898D01*
X140998047Y-101711711D01*
X140997747Y-101692047D01*
X140997854Y-101677472D01*
X140998671Y-101662384D01*
X141000790Y-101650579D01*
X141004796Y-101639183D01*
X141011269Y-101625324D01*
X141013472Y-101621010D01*
X141032615Y-101592949D01*
X141056853Y-101571107D01*
X141085690Y-101555946D01*
X141105534Y-101550765D01*
X141131888Y-101548187D01*
X141159590Y-101548960D01*
G37*
G36*
X140737106Y-98141908D02*
G01*
X140784688Y-98142198D01*
X140826176Y-98142748D01*
X140862199Y-98143585D01*
X140893388Y-98144735D01*
X140920370Y-98146224D01*
X140943777Y-98148079D01*
X140964237Y-98150326D01*
X140982381Y-98152991D01*
X140998837Y-98156101D01*
X141014235Y-98159682D01*
X141028905Y-98163665D01*
X141080992Y-98182592D01*
X141127451Y-98207508D01*
X141168201Y-98238319D01*
X141203160Y-98274928D01*
X141232247Y-98317238D01*
X141255380Y-98365153D01*
X141272478Y-98418578D01*
X141283459Y-98477415D01*
X141286606Y-98509688D01*
X141287065Y-98569139D01*
X141280534Y-98626299D01*
X141267196Y-98680514D01*
X141247233Y-98731129D01*
X141220828Y-98777491D01*
X141188163Y-98818943D01*
X141159756Y-98849772D01*
X141217771Y-98849772D01*
X141275786Y-98849772D01*
X141275786Y-98954816D01*
X141275786Y-99059860D01*
X140806179Y-99059860D01*
X140336571Y-99059860D01*
X140336571Y-98948803D01*
X140336571Y-98837746D01*
X140609479Y-98836427D01*
X140626630Y-98836345D01*
X140680349Y-98836092D01*
X140726703Y-98835832D01*
X140766369Y-98835504D01*
X140800023Y-98835047D01*
X140828341Y-98834397D01*
X140851999Y-98833495D01*
X140871674Y-98832277D01*
X140888042Y-98830682D01*
X140901779Y-98828648D01*
X140913562Y-98826114D01*
X140924067Y-98823017D01*
X140933971Y-98819295D01*
X140943949Y-98814888D01*
X140954678Y-98809733D01*
X140966834Y-98803768D01*
X140984010Y-98794454D01*
X141016759Y-98770636D01*
X141044007Y-98741993D01*
X141064595Y-98709640D01*
X141077041Y-98680124D01*
X141087715Y-98640565D01*
X141092729Y-98599942D01*
X141092204Y-98559533D01*
X141086265Y-98520617D01*
X141075035Y-98484472D01*
X141058637Y-98452378D01*
X141037194Y-98425613D01*
X141035158Y-98423628D01*
X141009923Y-98403597D01*
X140979860Y-98387683D01*
X140943455Y-98375070D01*
X140942595Y-98374829D01*
X140936213Y-98373111D01*
X140929851Y-98371628D01*
X140922874Y-98370360D01*
X140914646Y-98369285D01*
X140904532Y-98368384D01*
X140891898Y-98367636D01*
X140876107Y-98367019D01*
X140856525Y-98366513D01*
X140832516Y-98366098D01*
X140803444Y-98365753D01*
X140768675Y-98365456D01*
X140727573Y-98365188D01*
X140679503Y-98364928D01*
X140623830Y-98364654D01*
X140336438Y-98363273D01*
X140337534Y-98253287D01*
X140338631Y-98143301D01*
X140594032Y-98142119D01*
X140621141Y-98142005D01*
X140682800Y-98141852D01*
X140737106Y-98141908D01*
G37*
G36*
X141275786Y-96060774D02*
G01*
X141275786Y-96171808D01*
X140998759Y-96173254D01*
X140981349Y-96173344D01*
X140927083Y-96173626D01*
X140880203Y-96173914D01*
X140840052Y-96174264D01*
X140805972Y-96174735D01*
X140777304Y-96175384D01*
X140753390Y-96176268D01*
X140733571Y-96177446D01*
X140717189Y-96178974D01*
X140703587Y-96180911D01*
X140692105Y-96183314D01*
X140682085Y-96186241D01*
X140672870Y-96189749D01*
X140663800Y-96193895D01*
X140654217Y-96198738D01*
X140643464Y-96204335D01*
X140620902Y-96217923D01*
X140589486Y-96244508D01*
X140563095Y-96277087D01*
X140542234Y-96314993D01*
X140527409Y-96357557D01*
X140524378Y-96372270D01*
X140521394Y-96398470D01*
X140520237Y-96427396D01*
X140520904Y-96456356D01*
X140523388Y-96482661D01*
X140527685Y-96503618D01*
X140532273Y-96517707D01*
X140548118Y-96553111D01*
X140568635Y-96582295D01*
X140594482Y-96606073D01*
X140626322Y-96625261D01*
X140634819Y-96629366D01*
X140645399Y-96634168D01*
X140655834Y-96638306D01*
X140666769Y-96641830D01*
X140678850Y-96644790D01*
X140692721Y-96647233D01*
X140709027Y-96649211D01*
X140728413Y-96650771D01*
X140751523Y-96651963D01*
X140779003Y-96652837D01*
X140811497Y-96653441D01*
X140849651Y-96653826D01*
X140894108Y-96654039D01*
X140945515Y-96654131D01*
X141004515Y-96654151D01*
X141275921Y-96654151D01*
X141274824Y-96764344D01*
X141273727Y-96874537D01*
X141014207Y-96875742D01*
X140986074Y-96875861D01*
X140924610Y-96876014D01*
X140870494Y-96875963D01*
X140823098Y-96875681D01*
X140781796Y-96875144D01*
X140745961Y-96874325D01*
X140714967Y-96873199D01*
X140688186Y-96871740D01*
X140664991Y-96869922D01*
X140644758Y-96867720D01*
X140626857Y-96865107D01*
X140610663Y-96862058D01*
X140595549Y-96858548D01*
X140587352Y-96856378D01*
X140535836Y-96838201D01*
X140489367Y-96813574D01*
X140448148Y-96782702D01*
X140412387Y-96745794D01*
X140382288Y-96703057D01*
X140358058Y-96654698D01*
X140339903Y-96600925D01*
X140339583Y-96599697D01*
X140335495Y-96578383D01*
X140332284Y-96551178D01*
X140330034Y-96520240D01*
X140328826Y-96487724D01*
X140328744Y-96455789D01*
X140329871Y-96426592D01*
X140332288Y-96402289D01*
X140338370Y-96369431D01*
X140353802Y-96316535D01*
X140375369Y-96267185D01*
X140402556Y-96222478D01*
X140434847Y-96183513D01*
X140457835Y-96159827D01*
X140397203Y-96159827D01*
X140336571Y-96159827D01*
X140336571Y-96054783D01*
X140336571Y-95949740D01*
X140806179Y-95949740D01*
X141275786Y-95949740D01*
X141275786Y-96060774D01*
G37*
G36*
X140832654Y-93101314D02*
G01*
X140871667Y-93102172D01*
X140907832Y-93103704D01*
X140939438Y-93105909D01*
X140964774Y-93108785D01*
X140970753Y-93109688D01*
X141005016Y-93115358D01*
X141040254Y-93121929D01*
X141074179Y-93128931D01*
X141104501Y-93135897D01*
X141128931Y-93142357D01*
X141139911Y-93146045D01*
X141147824Y-93149808D01*
X141149528Y-93152388D01*
X141149465Y-93152442D01*
X141144861Y-93156293D01*
X141135326Y-93164228D01*
X141122218Y-93175117D01*
X141106892Y-93187832D01*
X141074650Y-93215041D01*
X141032626Y-93251621D01*
X140989629Y-93290119D01*
X140948180Y-93328269D01*
X140910804Y-93363809D01*
X140860927Y-93412211D01*
X140803688Y-93412216D01*
X140761811Y-93413129D01*
X140676930Y-93420695D01*
X140594616Y-93435728D01*
X140515253Y-93458002D01*
X140439222Y-93487290D01*
X140366905Y-93523366D01*
X140298686Y-93566002D01*
X140234945Y-93614972D01*
X140176065Y-93670049D01*
X140122429Y-93731007D01*
X140074418Y-93797619D01*
X140032415Y-93869658D01*
X140012546Y-93909958D01*
X139985697Y-93974595D01*
X139965509Y-94039089D01*
X139951582Y-94105101D01*
X139943513Y-94174294D01*
X139940901Y-94248330D01*
X139943033Y-94313095D01*
X139952150Y-94392895D01*
X139968569Y-94469333D01*
X139992435Y-94542917D01*
X140023889Y-94614154D01*
X140063073Y-94683551D01*
X140085928Y-94719955D01*
X140073344Y-94781822D01*
X140070686Y-94795084D01*
X140057232Y-94869758D01*
X140046217Y-94945781D01*
X140037139Y-95026535D01*
X140030103Y-95098157D01*
X139980425Y-95047132D01*
X139961456Y-95027278D01*
X139905285Y-94963222D01*
X139855489Y-94897427D01*
X139810674Y-94827951D01*
X139769449Y-94752851D01*
X139764215Y-94742439D01*
X139728752Y-94664828D01*
X139700354Y-94588232D01*
X139678502Y-94510851D01*
X139662677Y-94430885D01*
X139652360Y-94346533D01*
X139652005Y-94342323D01*
X139650230Y-94310280D01*
X139649459Y-94273139D01*
X139649635Y-94233118D01*
X139650706Y-94192435D01*
X139652615Y-94153308D01*
X139655309Y-94117956D01*
X139658731Y-94088596D01*
X139662792Y-94063041D01*
X139682936Y-93969336D01*
X139710949Y-93877733D01*
X139746664Y-93788610D01*
X139789916Y-93702347D01*
X139840540Y-93619321D01*
X139898370Y-93539911D01*
X139899538Y-93538446D01*
X139916674Y-93518236D01*
X139938540Y-93494217D01*
X139963713Y-93467807D01*
X139990772Y-93440425D01*
X140018293Y-93413487D01*
X140044855Y-93388411D01*
X140069034Y-93366615D01*
X140089409Y-93349517D01*
X140107963Y-93335100D01*
X140188095Y-93279247D01*
X140272362Y-93230446D01*
X140360438Y-93188837D01*
X140451998Y-93154561D01*
X140546716Y-93127761D01*
X140644266Y-93108578D01*
X140654711Y-93107167D01*
X140682315Y-93104640D01*
X140715622Y-93102792D01*
X140752921Y-93101623D01*
X140792501Y-93101130D01*
X140832654Y-93101314D01*
G37*
G36*
X140855809Y-105138039D02*
G01*
X140914794Y-105147098D01*
X140971699Y-105162846D01*
X141025317Y-105185285D01*
X141069983Y-105210821D01*
X141118231Y-105246868D01*
X141161092Y-105288744D01*
X141198251Y-105335980D01*
X141229393Y-105388109D01*
X141254203Y-105444662D01*
X141272368Y-105505172D01*
X141283571Y-105569171D01*
X141287568Y-105622596D01*
X141286269Y-105686486D01*
X141278231Y-105747431D01*
X141263642Y-105804964D01*
X141242692Y-105858622D01*
X141215569Y-105907937D01*
X141182461Y-105952444D01*
X141143557Y-105991676D01*
X141099045Y-106025170D01*
X141096622Y-106026724D01*
X141083945Y-106034570D01*
X141074279Y-106040093D01*
X141069552Y-106042182D01*
X141068268Y-106040911D01*
X141063212Y-106033666D01*
X141055033Y-106020872D01*
X141044348Y-106003519D01*
X141031771Y-105982598D01*
X141017920Y-105959099D01*
X140969396Y-105876016D01*
X140983563Y-105865590D01*
X140990646Y-105860107D01*
X141011244Y-105841638D01*
X141031580Y-105820241D01*
X141049427Y-105798371D01*
X141062559Y-105778483D01*
X141068744Y-105766906D01*
X141081925Y-105737210D01*
X141090493Y-105707673D01*
X141095087Y-105675647D01*
X141096345Y-105638484D01*
X141096041Y-105623119D01*
X141091918Y-105578443D01*
X141082600Y-105538941D01*
X141067581Y-105503316D01*
X141046355Y-105470270D01*
X141018417Y-105438504D01*
X141004842Y-105425554D01*
X140974961Y-105401950D01*
X140943430Y-105384140D01*
X140908785Y-105371531D01*
X140869567Y-105363528D01*
X140824313Y-105359536D01*
X140795085Y-105359115D01*
X140743995Y-105363334D01*
X140697625Y-105374164D01*
X140655730Y-105391695D01*
X140618065Y-105416016D01*
X140584385Y-105447216D01*
X140569174Y-105465529D01*
X140545931Y-105502651D01*
X140529031Y-105543080D01*
X140518464Y-105585734D01*
X140514223Y-105629531D01*
X140516296Y-105673391D01*
X140524677Y-105716232D01*
X140539355Y-105756973D01*
X140560321Y-105794532D01*
X140587567Y-105827829D01*
X140592605Y-105832873D01*
X140606583Y-105846312D01*
X140619399Y-105857925D01*
X140628795Y-105865641D01*
X140642962Y-105876016D01*
X140594438Y-105959099D01*
X140585940Y-105973566D01*
X140572776Y-105995625D01*
X140561252Y-106014507D01*
X140551986Y-106029221D01*
X140545595Y-106038777D01*
X140542696Y-106042182D01*
X140540993Y-106041572D01*
X140533418Y-106037448D01*
X140521585Y-106030291D01*
X140507194Y-106021108D01*
X140505582Y-106020048D01*
X140463306Y-105987236D01*
X140426154Y-105948236D01*
X140394417Y-105903525D01*
X140368388Y-105853581D01*
X140348361Y-105798880D01*
X140334627Y-105739899D01*
X140333385Y-105731841D01*
X140330497Y-105703258D01*
X140328848Y-105669971D01*
X140328439Y-105634552D01*
X140329269Y-105599568D01*
X140331338Y-105567591D01*
X140334646Y-105541189D01*
X140338166Y-105522554D01*
X140354930Y-105459459D01*
X140378284Y-105400812D01*
X140408006Y-105346932D01*
X140443869Y-105298136D01*
X140485650Y-105254741D01*
X140533125Y-105217066D01*
X140586068Y-105185426D01*
X140623191Y-105168687D01*
X140678435Y-105150993D01*
X140736423Y-105139987D01*
X140795950Y-105135668D01*
X140855809Y-105138039D01*
G37*
G36*
X140868978Y-100340876D02*
G01*
X140916671Y-100346964D01*
X140959851Y-100356556D01*
X141000371Y-100370087D01*
X141040088Y-100387994D01*
X141048755Y-100392531D01*
X141093788Y-100420760D01*
X141136308Y-100455022D01*
X141174885Y-100493908D01*
X141208090Y-100536006D01*
X141234495Y-100579905D01*
X141238244Y-100587535D01*
X141254211Y-100626130D01*
X141267943Y-100669235D01*
X141278585Y-100713865D01*
X141285282Y-100757038D01*
X141287325Y-100782413D01*
X141286934Y-100840622D01*
X141279603Y-100897291D01*
X141265599Y-100951520D01*
X141245189Y-101002409D01*
X141218640Y-101049058D01*
X141186220Y-101090569D01*
X141159992Y-101119306D01*
X141216859Y-101120454D01*
X141273727Y-101121601D01*
X141274827Y-101225615D01*
X141275928Y-101329629D01*
X140622869Y-101329629D01*
X139969811Y-101329629D01*
X139970909Y-101221496D01*
X139972008Y-101113363D01*
X140210283Y-101112299D01*
X140448559Y-101111236D01*
X140428238Y-101089001D01*
X140404460Y-101060346D01*
X140379707Y-101022301D01*
X140359289Y-100979832D01*
X140342268Y-100931221D01*
X140338723Y-100917340D01*
X140333666Y-100887747D01*
X140330228Y-100853674D01*
X140514833Y-100853674D01*
X140518655Y-100888757D01*
X140530041Y-100934301D01*
X140548073Y-100975614D01*
X140572299Y-101012313D01*
X140602268Y-101044015D01*
X140637527Y-101070337D01*
X140677623Y-101090895D01*
X140722105Y-101105308D01*
X140770520Y-101113191D01*
X140822415Y-101114163D01*
X140833808Y-101113515D01*
X140866517Y-101110201D01*
X140894824Y-101104508D01*
X140921563Y-101095748D01*
X140949565Y-101083231D01*
X140971917Y-101070902D01*
X141009149Y-101043456D01*
X141040483Y-101010496D01*
X141065498Y-100972500D01*
X141083771Y-100929952D01*
X141088413Y-100914820D01*
X141092812Y-100895575D01*
X141095415Y-100875028D01*
X141096781Y-100849723D01*
X141097041Y-100840076D01*
X141096889Y-100812225D01*
X141094906Y-100788782D01*
X141090751Y-100766894D01*
X141084082Y-100743705D01*
X141073824Y-100717389D01*
X141052101Y-100678942D01*
X141024266Y-100644592D01*
X140991338Y-100615525D01*
X140954337Y-100592925D01*
X140935939Y-100584259D01*
X140912323Y-100574732D01*
X140889876Y-100568181D01*
X140866261Y-100564109D01*
X140839141Y-100562019D01*
X140806179Y-100561414D01*
X140804036Y-100561414D01*
X140773366Y-100561864D01*
X140748517Y-100563490D01*
X140727242Y-100566756D01*
X140707291Y-100572123D01*
X140686415Y-100580056D01*
X140662366Y-100591016D01*
X140623179Y-100614026D01*
X140589161Y-100642987D01*
X140561098Y-100677103D01*
X140539312Y-100715802D01*
X140524125Y-100758512D01*
X140515858Y-100804660D01*
X140514833Y-100853674D01*
X140330228Y-100853674D01*
X140330224Y-100853639D01*
X140328482Y-100817309D01*
X140328525Y-100781048D01*
X140330439Y-100747149D01*
X140334310Y-100717904D01*
X140343651Y-100676367D01*
X140363250Y-100617261D01*
X140389388Y-100563095D01*
X140422130Y-100513742D01*
X140461539Y-100469075D01*
X140486683Y-100445844D01*
X140533954Y-100410291D01*
X140584840Y-100381895D01*
X140639556Y-100360578D01*
X140698316Y-100346263D01*
X140761338Y-100338874D01*
X140804036Y-100338532D01*
X140828835Y-100338334D01*
X140868978Y-100340876D01*
G37*
G36*
X141895665Y-93887580D02*
G01*
X141899240Y-93897523D01*
X141903951Y-93912997D01*
X141909389Y-93932473D01*
X141915145Y-93954422D01*
X141920811Y-93977315D01*
X141925978Y-93999623D01*
X141930237Y-94019817D01*
X141931519Y-94026469D01*
X141936037Y-94052758D01*
X141940248Y-94082308D01*
X141944372Y-94116775D01*
X141948631Y-94157816D01*
X141948810Y-94159788D01*
X141949790Y-94177157D01*
X141950400Y-94200498D01*
X141950656Y-94227851D01*
X141950573Y-94257255D01*
X141950164Y-94286747D01*
X141949446Y-94314366D01*
X141948433Y-94338150D01*
X141947139Y-94356139D01*
X141937566Y-94431732D01*
X141921963Y-94512461D01*
X141900786Y-94589937D01*
X141873501Y-94666068D01*
X141839578Y-94742766D01*
X141813316Y-94794410D01*
X141769492Y-94869404D01*
X141720857Y-94939695D01*
X141666268Y-95006886D01*
X141604584Y-95072579D01*
X141562723Y-95112217D01*
X141489526Y-95172546D01*
X141411456Y-95226513D01*
X141329028Y-95273860D01*
X141242756Y-95314331D01*
X141153155Y-95347667D01*
X141060739Y-95373612D01*
X140966025Y-95391908D01*
X140946731Y-95394370D01*
X140912114Y-95397379D01*
X140872777Y-95399507D01*
X140830810Y-95400725D01*
X140788306Y-95401003D01*
X140747355Y-95400313D01*
X140710048Y-95398625D01*
X140678479Y-95395910D01*
X140631560Y-95389609D01*
X140543914Y-95372791D01*
X140461205Y-95350028D01*
X140383944Y-95321449D01*
X140366806Y-95314211D01*
X140349387Y-95306872D01*
X140335552Y-95301061D01*
X140327303Y-95297622D01*
X140319357Y-95293397D01*
X140315975Y-95289663D01*
X140316388Y-95287793D01*
X140319947Y-95279106D01*
X140326708Y-95264895D01*
X140336132Y-95246148D01*
X140347681Y-95223852D01*
X140360817Y-95198995D01*
X140375000Y-95172563D01*
X140389691Y-95145543D01*
X140404354Y-95118924D01*
X140418447Y-95093691D01*
X140431434Y-95070832D01*
X140442775Y-95051335D01*
X140451932Y-95036186D01*
X140458366Y-95026373D01*
X140461539Y-95022883D01*
X140462160Y-95023065D01*
X140468402Y-95025328D01*
X140479835Y-95029633D01*
X140494619Y-95035289D01*
X140550543Y-95054277D01*
X140619749Y-95071196D01*
X140693071Y-95082233D01*
X140771517Y-95087577D01*
X140794643Y-95088090D01*
X140869987Y-95086391D01*
X140940861Y-95079152D01*
X141008752Y-95066108D01*
X141075147Y-95046992D01*
X141141533Y-95021541D01*
X141202809Y-94992590D01*
X141277226Y-94949489D01*
X141346729Y-94899792D01*
X141411231Y-94843559D01*
X141449500Y-94804323D01*
X141501203Y-94741684D01*
X141546046Y-94674715D01*
X141583815Y-94603831D01*
X141614298Y-94529449D01*
X141637281Y-94451985D01*
X141652551Y-94371856D01*
X141654916Y-94350763D01*
X141657157Y-94318596D01*
X141658514Y-94282712D01*
X141658964Y-94245488D01*
X141658483Y-94209305D01*
X141657051Y-94176542D01*
X141654644Y-94149577D01*
X141654499Y-94148440D01*
X141651772Y-94130267D01*
X141647884Y-94108277D01*
X141643253Y-94084460D01*
X141638295Y-94060808D01*
X141633425Y-94039312D01*
X141629061Y-94021963D01*
X141625618Y-94010752D01*
X141624976Y-94008936D01*
X141624494Y-94004773D01*
X141626770Y-94000944D01*
X141632992Y-93996517D01*
X141644346Y-93990559D01*
X141662020Y-93982136D01*
X141696932Y-93965877D01*
X141736863Y-93947620D01*
X141773648Y-93931174D01*
X141806677Y-93916794D01*
X141835341Y-93904735D01*
X141859030Y-93895254D01*
X141877137Y-93888605D01*
X141889050Y-93885043D01*
X141894162Y-93884825D01*
X141895665Y-93887580D01*
G37*
G36*
X140806615Y-102952659D02*
G01*
X140977132Y-102952659D01*
X141617694Y-102952659D01*
X141617694Y-103061822D01*
X141617694Y-103170985D01*
X141391129Y-103170985D01*
X141364744Y-103171007D01*
X141323900Y-103171134D01*
X141286089Y-103171362D01*
X141252055Y-103171681D01*
X141222541Y-103172081D01*
X141198291Y-103172550D01*
X141180049Y-103173078D01*
X141168559Y-103173655D01*
X141164564Y-103174268D01*
X141166125Y-103177146D01*
X141172270Y-103184437D01*
X141181481Y-103193835D01*
X141192925Y-103205546D01*
X141222043Y-103242914D01*
X141245931Y-103285479D01*
X141264485Y-103332293D01*
X141277603Y-103382408D01*
X141285181Y-103434877D01*
X141287116Y-103488752D01*
X141283307Y-103543085D01*
X141273649Y-103596930D01*
X141258040Y-103649337D01*
X141236377Y-103699360D01*
X141232637Y-103706552D01*
X141200573Y-103758666D01*
X141162933Y-103804809D01*
X141119958Y-103844831D01*
X141071888Y-103878585D01*
X141018964Y-103905923D01*
X140961426Y-103926695D01*
X140899514Y-103940755D01*
X140833470Y-103947952D01*
X140783087Y-103948506D01*
X140719891Y-103942672D01*
X140659802Y-103929696D01*
X140603243Y-103909873D01*
X140550637Y-103883498D01*
X140502407Y-103850867D01*
X140458974Y-103812276D01*
X140420763Y-103768020D01*
X140388196Y-103718394D01*
X140361696Y-103663695D01*
X140341685Y-103604217D01*
X140337992Y-103589892D01*
X140335247Y-103577151D01*
X140333305Y-103564359D01*
X140332023Y-103549880D01*
X140331254Y-103532075D01*
X140330854Y-103509306D01*
X140330678Y-103479937D01*
X140330670Y-103477219D01*
X140330687Y-103466012D01*
X140514940Y-103466012D01*
X140514978Y-103466678D01*
X140521597Y-103515015D01*
X140535370Y-103559453D01*
X140556001Y-103599604D01*
X140583191Y-103635078D01*
X140616641Y-103665484D01*
X140656056Y-103690434D01*
X140701135Y-103709537D01*
X140709308Y-103712221D01*
X140720744Y-103715542D01*
X140731753Y-103717850D01*
X140744068Y-103719327D01*
X140759422Y-103720156D01*
X140779548Y-103720519D01*
X140806179Y-103720600D01*
X140823748Y-103720573D01*
X140846093Y-103720336D01*
X140863021Y-103719701D01*
X140876265Y-103718487D01*
X140887558Y-103716510D01*
X140898633Y-103713587D01*
X140911223Y-103709537D01*
X140921935Y-103705718D01*
X140964691Y-103685515D01*
X141002435Y-103659375D01*
X141034630Y-103627894D01*
X141060741Y-103591669D01*
X141080232Y-103551299D01*
X141092566Y-103507381D01*
X141094052Y-103498911D01*
X141098283Y-103449667D01*
X141094969Y-103401917D01*
X141084336Y-103356397D01*
X141066609Y-103313839D01*
X141042011Y-103274978D01*
X141010769Y-103240546D01*
X141009538Y-103239423D01*
X140990154Y-103224546D01*
X140965557Y-103209487D01*
X140938371Y-103195719D01*
X140911223Y-103184714D01*
X140903451Y-103182060D01*
X140891955Y-103178546D01*
X140881069Y-103176108D01*
X140869024Y-103174548D01*
X140854051Y-103173667D01*
X140834379Y-103173267D01*
X140808239Y-103173148D01*
X140806615Y-103173146D01*
X140780124Y-103173241D01*
X140759988Y-103173708D01*
X140744424Y-103174714D01*
X140731647Y-103176427D01*
X140719872Y-103179016D01*
X140707314Y-103182649D01*
X140663926Y-103199784D01*
X140623885Y-103223580D01*
X140589548Y-103252929D01*
X140561244Y-103287346D01*
X140539303Y-103326348D01*
X140524052Y-103369449D01*
X140515822Y-103416165D01*
X140514940Y-103466012D01*
X140330687Y-103466012D01*
X140330716Y-103447031D01*
X140331116Y-103423438D01*
X140331969Y-103404918D01*
X140333376Y-103389951D01*
X140335435Y-103377017D01*
X140338248Y-103364595D01*
X140346965Y-103334497D01*
X140368059Y-103282121D01*
X140395459Y-103234864D01*
X140429325Y-103192427D01*
X140456804Y-103162746D01*
X140396688Y-103162746D01*
X140336571Y-103162746D01*
X140336571Y-103057703D01*
X140336571Y-102952659D01*
X140806615Y-102952659D01*
G37*
G36*
X141183270Y-101944981D02*
G01*
X141187630Y-101950026D01*
X141194388Y-101961184D01*
X141202857Y-101977033D01*
X141212351Y-101996152D01*
X141222182Y-102017118D01*
X141231665Y-102038508D01*
X141240111Y-102058902D01*
X141246834Y-102076876D01*
X141248716Y-102082485D01*
X141257303Y-102111889D01*
X141265687Y-102146187D01*
X141273290Y-102182653D01*
X141279534Y-102218566D01*
X141283840Y-102251202D01*
X141284466Y-102258023D01*
X141285829Y-102283730D01*
X141286337Y-102314351D01*
X141286050Y-102347694D01*
X141285025Y-102381572D01*
X141283321Y-102413794D01*
X141280997Y-102442171D01*
X141278113Y-102464514D01*
X141275055Y-102481218D01*
X141260904Y-102537644D01*
X141241965Y-102588390D01*
X141218479Y-102633199D01*
X141190689Y-102671816D01*
X141158838Y-102703983D01*
X141123168Y-102729445D01*
X141083922Y-102747945D01*
X141041342Y-102759227D01*
X140995670Y-102763036D01*
X140988438Y-102762961D01*
X140943659Y-102758770D01*
X140903814Y-102748037D01*
X140868621Y-102730593D01*
X140837800Y-102706264D01*
X140811071Y-102674879D01*
X140788152Y-102636268D01*
X140774389Y-102606747D01*
X140762470Y-102576355D01*
X140752328Y-102544239D01*
X140743508Y-102508770D01*
X140735554Y-102468320D01*
X140728010Y-102421261D01*
X140722856Y-102388234D01*
X140714280Y-102341270D01*
X140705309Y-102301405D01*
X140696030Y-102269017D01*
X140686533Y-102244488D01*
X140675555Y-102223426D01*
X140662658Y-102205742D01*
X140648325Y-102194357D01*
X140631230Y-102188264D01*
X140610046Y-102186457D01*
X140601038Y-102186876D01*
X140576401Y-102193074D01*
X140555281Y-102206558D01*
X140537770Y-102227162D01*
X140523957Y-102254721D01*
X140513932Y-102289070D01*
X140507786Y-102330044D01*
X140505609Y-102377479D01*
X140505782Y-102393757D01*
X140510231Y-102453400D01*
X140520416Y-102511087D01*
X140535991Y-102565215D01*
X140556609Y-102614178D01*
X140574771Y-102650340D01*
X140490728Y-102692302D01*
X140406685Y-102734264D01*
X140393733Y-102708606D01*
X140393033Y-102707215D01*
X140370062Y-102653247D01*
X140351986Y-102593179D01*
X140338926Y-102527614D01*
X140331001Y-102457152D01*
X140328333Y-102382395D01*
X140329132Y-102343876D01*
X140334690Y-102278848D01*
X140345601Y-102219861D01*
X140361932Y-102166716D01*
X140383751Y-102119211D01*
X140411125Y-102077147D01*
X140444123Y-102040325D01*
X140460611Y-102025685D01*
X140498013Y-101999954D01*
X140538221Y-101981954D01*
X140581275Y-101971675D01*
X140627217Y-101969105D01*
X140676086Y-101974231D01*
X140714235Y-101984538D01*
X140751000Y-102002469D01*
X140783611Y-102027433D01*
X140811883Y-102059289D01*
X140835629Y-102097891D01*
X140839740Y-102106028D01*
X140848396Y-102124101D01*
X140855862Y-102141554D01*
X140862427Y-102159482D01*
X140868379Y-102178986D01*
X140874009Y-102201162D01*
X140879606Y-102227108D01*
X140885460Y-102257922D01*
X140891860Y-102294701D01*
X140899096Y-102338545D01*
X140902721Y-102360645D01*
X140908386Y-102393786D01*
X140913374Y-102420563D01*
X140917964Y-102442126D01*
X140922432Y-102459623D01*
X140927056Y-102474202D01*
X140932113Y-102487011D01*
X140937880Y-102499199D01*
X140949798Y-102519197D01*
X140965849Y-102536483D01*
X140984124Y-102546166D01*
X141005265Y-102548558D01*
X141029911Y-102543970D01*
X141048375Y-102535470D01*
X141067173Y-102518632D01*
X141082366Y-102494720D01*
X141093876Y-102463952D01*
X141101625Y-102426545D01*
X141105536Y-102382720D01*
X141105528Y-102332694D01*
X141105445Y-102330553D01*
X141099089Y-102260612D01*
X141085622Y-102194035D01*
X141064703Y-102129520D01*
X141035993Y-102065764D01*
X141028925Y-102051709D01*
X141022232Y-102037740D01*
X141017959Y-102027992D01*
X141016811Y-102024003D01*
X141016983Y-102023853D01*
X141022911Y-102020206D01*
X141034620Y-102013975D01*
X141050794Y-102005787D01*
X141070119Y-101996267D01*
X141091279Y-101986041D01*
X141112958Y-101975735D01*
X141133841Y-101965974D01*
X141152611Y-101957385D01*
X141167955Y-101950593D01*
X141178555Y-101946224D01*
X141183097Y-101944903D01*
X141183270Y-101944981D01*
G37*
G36*
X141548573Y-96970181D02*
G01*
X141556579Y-96980839D01*
X141566097Y-96995080D01*
X141575897Y-97010983D01*
X141584752Y-97026624D01*
X141591432Y-97040079D01*
X141601273Y-97065180D01*
X141612126Y-97100255D01*
X141620571Y-97136182D01*
X141625580Y-97169071D01*
X141626021Y-97173877D01*
X141627388Y-97221153D01*
X141623849Y-97269168D01*
X141615719Y-97315269D01*
X141603313Y-97356800D01*
X141598807Y-97367958D01*
X141576815Y-97408641D01*
X141547102Y-97446837D01*
X141509818Y-97482396D01*
X141465113Y-97515170D01*
X141413138Y-97545011D01*
X141410242Y-97546406D01*
X141399298Y-97551415D01*
X141381627Y-97559341D01*
X141357773Y-97569945D01*
X141328278Y-97582991D01*
X141293685Y-97598243D01*
X141254538Y-97615463D01*
X141211378Y-97634415D01*
X141164748Y-97654862D01*
X141115193Y-97676567D01*
X141063254Y-97699294D01*
X141009474Y-97722804D01*
X140954397Y-97746863D01*
X140898564Y-97771233D01*
X140842520Y-97795676D01*
X140786806Y-97819957D01*
X140731966Y-97843838D01*
X140678543Y-97867083D01*
X140627079Y-97889454D01*
X140578117Y-97910716D01*
X140532201Y-97930630D01*
X140489872Y-97948961D01*
X140451675Y-97965472D01*
X140418151Y-97979925D01*
X140389844Y-97992084D01*
X140367296Y-98001712D01*
X140351050Y-98008573D01*
X140341650Y-98012428D01*
X140340348Y-98012017D01*
X140339038Y-98008230D01*
X140338104Y-98000065D01*
X140337517Y-97986751D01*
X140337246Y-97967515D01*
X140337261Y-97941587D01*
X140337531Y-97908194D01*
X140338631Y-97801911D01*
X140681503Y-97655415D01*
X140684102Y-97654305D01*
X140734266Y-97632843D01*
X140782186Y-97612293D01*
X140827329Y-97592884D01*
X140869160Y-97574848D01*
X140907147Y-97558418D01*
X140940755Y-97543825D01*
X140969451Y-97531301D01*
X140992701Y-97521078D01*
X141009972Y-97513386D01*
X141020729Y-97508458D01*
X141024440Y-97506526D01*
X141024427Y-97506498D01*
X141020282Y-97504386D01*
X141009114Y-97499310D01*
X140991458Y-97491500D01*
X140967847Y-97481187D01*
X140938813Y-97468601D01*
X140904892Y-97453972D01*
X140866615Y-97437529D01*
X140824516Y-97419503D01*
X140779130Y-97400125D01*
X140730989Y-97379623D01*
X140680627Y-97358229D01*
X140336748Y-97212325D01*
X140336660Y-97098012D01*
X140336658Y-97094307D01*
X140336709Y-97064872D01*
X140336870Y-97038442D01*
X140337126Y-97016063D01*
X140337462Y-96998781D01*
X140337862Y-96987645D01*
X140338312Y-96983700D01*
X140341767Y-96985117D01*
X140352346Y-96989636D01*
X140369594Y-96997065D01*
X140393054Y-97007207D01*
X140422270Y-97019864D01*
X140456786Y-97034837D01*
X140496146Y-97051928D01*
X140539894Y-97070940D01*
X140587574Y-97091674D01*
X140638729Y-97113932D01*
X140692905Y-97137517D01*
X140749644Y-97162229D01*
X140808490Y-97187872D01*
X140840166Y-97201677D01*
X140906185Y-97230440D01*
X140965234Y-97256144D01*
X141017714Y-97278956D01*
X141064028Y-97299042D01*
X141104577Y-97316567D01*
X141139762Y-97331699D01*
X141169984Y-97344602D01*
X141195646Y-97355444D01*
X141217148Y-97364390D01*
X141234893Y-97371607D01*
X141249281Y-97377261D01*
X141260714Y-97381517D01*
X141269594Y-97384542D01*
X141276322Y-97386503D01*
X141281300Y-97387564D01*
X141284929Y-97387893D01*
X141287610Y-97387655D01*
X141289745Y-97387017D01*
X141315097Y-97376150D01*
X141349721Y-97357933D01*
X141379821Y-97337906D01*
X141404484Y-97316785D01*
X141422800Y-97295283D01*
X141433856Y-97274115D01*
X141440583Y-97247677D01*
X141443795Y-97211366D01*
X141440827Y-97175044D01*
X141439215Y-97167127D01*
X141431670Y-97141605D01*
X141420949Y-97114893D01*
X141408409Y-97090118D01*
X141395407Y-97070407D01*
X141391278Y-97064995D01*
X141385261Y-97056123D01*
X141382901Y-97051077D01*
X141383166Y-97050558D01*
X141388406Y-97046518D01*
X141399381Y-97039669D01*
X141414800Y-97030699D01*
X141433377Y-97020296D01*
X141453823Y-97009150D01*
X141474850Y-96997947D01*
X141495169Y-96987378D01*
X141513492Y-96978129D01*
X141528530Y-96970891D01*
X141538996Y-96966351D01*
X141543601Y-96965198D01*
X141548573Y-96970181D01*
G37*
G36*
X140844886Y-106143173D02*
G01*
X140907610Y-106151296D01*
X140912474Y-106152245D01*
X140970867Y-106167988D01*
X141025510Y-106190807D01*
X141076037Y-106220281D01*
X141122079Y-106255993D01*
X141163265Y-106297525D01*
X141199228Y-106344457D01*
X141229600Y-106396372D01*
X141254010Y-106452851D01*
X141272090Y-106513474D01*
X141283473Y-106577825D01*
X141285018Y-106595068D01*
X141286198Y-106625036D01*
X141286203Y-106658786D01*
X141285118Y-106693922D01*
X141283029Y-106728046D01*
X141280020Y-106758760D01*
X141276177Y-106783668D01*
X141269191Y-106814516D01*
X141251516Y-106870413D01*
X141228236Y-106920943D01*
X141198966Y-106966875D01*
X141163320Y-107008981D01*
X141134765Y-107038625D01*
X141077155Y-106988385D01*
X141059885Y-106973350D01*
X141042078Y-106957907D01*
X141026822Y-106944738D01*
X141015334Y-106934892D01*
X141008830Y-106929419D01*
X140998114Y-106920694D01*
X141021387Y-106894976D01*
X141031799Y-106882571D01*
X141053869Y-106849907D01*
X141072602Y-106813202D01*
X141086442Y-106775316D01*
X141087178Y-106772673D01*
X141092006Y-106748834D01*
X141095552Y-106719651D01*
X141097700Y-106687607D01*
X141098335Y-106655185D01*
X141097342Y-106624866D01*
X141094606Y-106599134D01*
X141087641Y-106566359D01*
X141072337Y-106521897D01*
X141051319Y-106481496D01*
X141025146Y-106446007D01*
X140994377Y-106416281D01*
X140959570Y-106393172D01*
X140958285Y-106392493D01*
X140941377Y-106384275D01*
X140923083Y-106376433D01*
X140905589Y-106369799D01*
X140891080Y-106365208D01*
X140881742Y-106363492D01*
X140881478Y-106363565D01*
X140880531Y-106365333D01*
X140879700Y-106369810D01*
X140878978Y-106377458D01*
X140878358Y-106388737D01*
X140877832Y-106404108D01*
X140877395Y-106424032D01*
X140877038Y-106448969D01*
X140876755Y-106479380D01*
X140876540Y-106515726D01*
X140876384Y-106558468D01*
X140876282Y-106608066D01*
X140876225Y-106664982D01*
X140876208Y-106729675D01*
X140876204Y-106770550D01*
X140876178Y-106829303D01*
X140876119Y-106880628D01*
X140876020Y-106925022D01*
X140875870Y-106962984D01*
X140875662Y-106995011D01*
X140875386Y-107021601D01*
X140875034Y-107043253D01*
X140874596Y-107060464D01*
X140874065Y-107073732D01*
X140873431Y-107083556D01*
X140872686Y-107090432D01*
X140871820Y-107094859D01*
X140870825Y-107097335D01*
X140869692Y-107098358D01*
X140864385Y-107099500D01*
X140850950Y-107100548D01*
X140832251Y-107100928D01*
X140810026Y-107100687D01*
X140786013Y-107099869D01*
X140761949Y-107098522D01*
X140739573Y-107096690D01*
X140720622Y-107094420D01*
X140665537Y-107083144D01*
X140607403Y-107063839D01*
X140553540Y-107037840D01*
X140504348Y-107005498D01*
X140460228Y-106967166D01*
X140421579Y-106923199D01*
X140388803Y-106873949D01*
X140362300Y-106819769D01*
X140342469Y-106761011D01*
X140338729Y-106744706D01*
X140333734Y-106712603D01*
X140330305Y-106676154D01*
X140328568Y-106638574D01*
X140504535Y-106638574D01*
X140506507Y-106670259D01*
X140511125Y-106697161D01*
X140516468Y-106715244D01*
X140534136Y-106755847D01*
X140558332Y-106793447D01*
X140587981Y-106826529D01*
X140622010Y-106853579D01*
X140629391Y-106858068D01*
X140647871Y-106867472D01*
X140668754Y-106876332D01*
X140689652Y-106883761D01*
X140708178Y-106888870D01*
X140721945Y-106890771D01*
X140732030Y-106890771D01*
X140732030Y-106627375D01*
X140732026Y-106614174D01*
X140731953Y-106568993D01*
X140731794Y-106526482D01*
X140731556Y-106487335D01*
X140731249Y-106452250D01*
X140730879Y-106421922D01*
X140730455Y-106397048D01*
X140729985Y-106378324D01*
X140729478Y-106366447D01*
X140728941Y-106362112D01*
X140728591Y-106361985D01*
X140722327Y-106362346D01*
X140710675Y-106364445D01*
X140695844Y-106367897D01*
X140692722Y-106368714D01*
X140650430Y-106384115D01*
X140612132Y-106406208D01*
X140578553Y-106434278D01*
X140550419Y-106467613D01*
X140528457Y-106505499D01*
X140513393Y-106547221D01*
X140508341Y-106572871D01*
X140505161Y-106605110D01*
X140504535Y-106638574D01*
X140328568Y-106638574D01*
X140328528Y-106637709D01*
X140328491Y-106599616D01*
X140330283Y-106564226D01*
X140333991Y-106533887D01*
X140337444Y-106515841D01*
X140353949Y-106455348D01*
X140377196Y-106398675D01*
X140406847Y-106346359D01*
X140442564Y-106298938D01*
X140484009Y-106256951D01*
X140530844Y-106220934D01*
X140550674Y-106208528D01*
X140603665Y-106181932D01*
X140660561Y-106161917D01*
X140720382Y-106148665D01*
X140728591Y-106147827D01*
X140782151Y-106142357D01*
X140844886Y-106143173D01*
G37*
G36*
X141022241Y-99280906D02*
G01*
X141049601Y-99282803D01*
X141073682Y-99287223D01*
X141097325Y-99294747D01*
X141123370Y-99305954D01*
X141124282Y-99306384D01*
X141140669Y-99315003D01*
X141155492Y-99325015D01*
X141170979Y-99338106D01*
X141189356Y-99355966D01*
X141190658Y-99357291D01*
X141223729Y-99396715D01*
X141249527Y-99439965D01*
X141268112Y-99487164D01*
X141279545Y-99538434D01*
X141279638Y-99539065D01*
X141282098Y-99555448D01*
X141284311Y-99569735D01*
X141285807Y-99578899D01*
X141286702Y-99589065D01*
X141286961Y-99606314D01*
X141286554Y-99627984D01*
X141285581Y-99652094D01*
X141284141Y-99676667D01*
X141282334Y-99699724D01*
X141280259Y-99719287D01*
X141278017Y-99733376D01*
X141275972Y-99742429D01*
X141261218Y-99790721D01*
X141241210Y-99834165D01*
X141216367Y-99871974D01*
X141187111Y-99903364D01*
X141162919Y-99924926D01*
X141219353Y-99924926D01*
X141275786Y-99924926D01*
X141275786Y-100028120D01*
X141275786Y-100131313D01*
X140955506Y-100129942D01*
X140635225Y-100128570D01*
X140594032Y-100117453D01*
X140592432Y-100117018D01*
X140540153Y-100099042D01*
X140493670Y-100075290D01*
X140452936Y-100045707D01*
X140417908Y-100010240D01*
X140388539Y-99968835D01*
X140364784Y-99921437D01*
X140346598Y-99867994D01*
X140333935Y-99808451D01*
X140332445Y-99797573D01*
X140329885Y-99766937D01*
X140328649Y-99731245D01*
X140328682Y-99692651D01*
X140329930Y-99653310D01*
X140332338Y-99615376D01*
X140335852Y-99581005D01*
X140340417Y-99552349D01*
X140343726Y-99537073D01*
X140352053Y-99504163D01*
X140361993Y-99470268D01*
X140372812Y-99437668D01*
X140383776Y-99408641D01*
X140394153Y-99385467D01*
X140396797Y-99380332D01*
X140405847Y-99363868D01*
X140415713Y-99347189D01*
X140425436Y-99331780D01*
X140434058Y-99319127D01*
X140440618Y-99310717D01*
X140444157Y-99308034D01*
X140449495Y-99310511D01*
X140460933Y-99316371D01*
X140476572Y-99324678D01*
X140495139Y-99334726D01*
X140515360Y-99345811D01*
X140535965Y-99357226D01*
X140555678Y-99368265D01*
X140573228Y-99378223D01*
X140587343Y-99386393D01*
X140596748Y-99392070D01*
X140600171Y-99394548D01*
X140598828Y-99397781D01*
X140593783Y-99406156D01*
X140586270Y-99417205D01*
X140577484Y-99430413D01*
X140558269Y-99465678D01*
X140541232Y-99505794D01*
X140527296Y-99548431D01*
X140517384Y-99591258D01*
X140517202Y-99592299D01*
X140515116Y-99609000D01*
X140513434Y-99630978D01*
X140512323Y-99655498D01*
X140511952Y-99679824D01*
X140512146Y-99700367D01*
X140512963Y-99721849D01*
X140514645Y-99739294D01*
X140517445Y-99755078D01*
X140521612Y-99771582D01*
X140524395Y-99780871D01*
X140540046Y-99818073D01*
X140561115Y-99849087D01*
X140587474Y-99873811D01*
X140618996Y-99892145D01*
X140655552Y-99903989D01*
X140697016Y-99909243D01*
X140725851Y-99910508D01*
X140728170Y-99745558D01*
X140872629Y-99745558D01*
X140872892Y-99797226D01*
X140874148Y-99910508D01*
X140926546Y-99911660D01*
X140947863Y-99912051D01*
X140963593Y-99911940D01*
X140975004Y-99911024D01*
X140984083Y-99909016D01*
X140992815Y-99905628D01*
X141003187Y-99900574D01*
X141014762Y-99894224D01*
X141046743Y-99870532D01*
X141074100Y-99840379D01*
X141096409Y-99804298D01*
X141113242Y-99762823D01*
X141114486Y-99758736D01*
X141121733Y-99725233D01*
X141125485Y-99688165D01*
X141125537Y-99651053D01*
X141121685Y-99617418D01*
X141114709Y-99591614D01*
X141103184Y-99564603D01*
X141088768Y-99540993D01*
X141072716Y-99523199D01*
X141051466Y-99508940D01*
X141024450Y-99499177D01*
X140996014Y-99496362D01*
X140967668Y-99500440D01*
X140940926Y-99511352D01*
X140917299Y-99529043D01*
X140909499Y-99537375D01*
X140899936Y-99550487D01*
X140892038Y-99565780D01*
X140885681Y-99584009D01*
X140880739Y-99605925D01*
X140877087Y-99632285D01*
X140874602Y-99663841D01*
X140873157Y-99701347D01*
X140872629Y-99745558D01*
X140728170Y-99745558D01*
X140728312Y-99735435D01*
X140728432Y-99726941D01*
X140729059Y-99685043D01*
X140729670Y-99650295D01*
X140730315Y-99621776D01*
X140731043Y-99598566D01*
X140731903Y-99579744D01*
X140732945Y-99564390D01*
X140734219Y-99551582D01*
X140735773Y-99540401D01*
X140737657Y-99529927D01*
X140739921Y-99519237D01*
X140746262Y-99493659D01*
X140763311Y-99443394D01*
X140784987Y-99399893D01*
X140811349Y-99363084D01*
X140842455Y-99332890D01*
X140878366Y-99309238D01*
X140919138Y-99292054D01*
X140923298Y-99290731D01*
X140940495Y-99285978D01*
X140956994Y-99283011D01*
X140975767Y-99281413D01*
X140996014Y-99280870D01*
X140999789Y-99280769D01*
X141022241Y-99280906D01*
G37*
G36*
X141036436Y-104080557D02*
G01*
X141060902Y-104083096D01*
X141079901Y-104087042D01*
X141098166Y-104093204D01*
X141139455Y-104112889D01*
X141176050Y-104139284D01*
X141208385Y-104172678D01*
X141212272Y-104177546D01*
X141235465Y-104212529D01*
X141255132Y-104252523D01*
X141270187Y-104295015D01*
X141279545Y-104337493D01*
X141279638Y-104338125D01*
X141282097Y-104354507D01*
X141284306Y-104368795D01*
X141285798Y-104377959D01*
X141286562Y-104384924D01*
X141287077Y-104401384D01*
X141286831Y-104422740D01*
X141285929Y-104446977D01*
X141284475Y-104472081D01*
X141282572Y-104496035D01*
X141280324Y-104516825D01*
X141277835Y-104532435D01*
X141273286Y-104551683D01*
X141258608Y-104595867D01*
X141239147Y-104636403D01*
X141215638Y-104671899D01*
X141188818Y-104700962D01*
X141168071Y-104719615D01*
X141220899Y-104720771D01*
X141273727Y-104721926D01*
X141274827Y-104825940D01*
X141275928Y-104929954D01*
X140980185Y-104929954D01*
X140925666Y-104929899D01*
X140871376Y-104929724D01*
X140821700Y-104929435D01*
X140777156Y-104929039D01*
X140738261Y-104928543D01*
X140705534Y-104927953D01*
X140679492Y-104927275D01*
X140660653Y-104926518D01*
X140649535Y-104925686D01*
X140614439Y-104920133D01*
X140561153Y-104906053D01*
X140513280Y-104885785D01*
X140470787Y-104859297D01*
X140433643Y-104826560D01*
X140401816Y-104787545D01*
X140375273Y-104742219D01*
X140353982Y-104690554D01*
X140337911Y-104632519D01*
X140336498Y-104625707D01*
X140334325Y-104612609D01*
X140332721Y-104597988D01*
X140331611Y-104580501D01*
X140330923Y-104558806D01*
X140330584Y-104531560D01*
X140330518Y-104497420D01*
X140330581Y-104472163D01*
X140330806Y-104445050D01*
X140331299Y-104423470D01*
X140332171Y-104405885D01*
X140333536Y-104390759D01*
X140335506Y-104376555D01*
X140338193Y-104361736D01*
X140341711Y-104344763D01*
X140359091Y-104276964D01*
X140381414Y-104214283D01*
X140408370Y-104158271D01*
X140440001Y-104108826D01*
X140440017Y-104108809D01*
X140444121Y-104110043D01*
X140454162Y-104114505D01*
X140468855Y-104121533D01*
X140486917Y-104130468D01*
X140507064Y-104140649D01*
X140528011Y-104151417D01*
X140548474Y-104162112D01*
X140567169Y-104172074D01*
X140582812Y-104180643D01*
X140594119Y-104187158D01*
X140599805Y-104190960D01*
X140598734Y-104194520D01*
X140594049Y-104203058D01*
X140586764Y-104214597D01*
X140583191Y-104220077D01*
X140555838Y-104269942D01*
X140534484Y-104324097D01*
X140519573Y-104380893D01*
X140511550Y-104438680D01*
X140510861Y-104495807D01*
X140512963Y-104521530D01*
X140520095Y-104563460D01*
X140531702Y-104599351D01*
X140548049Y-104629930D01*
X140569405Y-104655926D01*
X140570264Y-104656780D01*
X140596532Y-104678353D01*
X140625949Y-104693785D01*
X140659726Y-104703566D01*
X140699075Y-104708184D01*
X140725851Y-104709568D01*
X140728218Y-104541161D01*
X140872784Y-104541161D01*
X140872984Y-104594225D01*
X140874148Y-104709568D01*
X140925487Y-104710731D01*
X140946825Y-104711137D01*
X140962249Y-104711009D01*
X140973575Y-104710019D01*
X140982882Y-104707848D01*
X140992249Y-104704176D01*
X141003755Y-104698683D01*
X141031382Y-104681695D01*
X141059746Y-104655980D01*
X141084089Y-104624521D01*
X141103551Y-104588453D01*
X141117271Y-104548912D01*
X141120156Y-104535621D01*
X141124004Y-104506229D01*
X141125621Y-104474288D01*
X141124893Y-104443256D01*
X141121703Y-104416590D01*
X141113098Y-104384084D01*
X141098531Y-104353022D01*
X141078682Y-104327969D01*
X141053341Y-104308592D01*
X141049310Y-104306275D01*
X141039699Y-104301728D01*
X141029624Y-104299112D01*
X141016497Y-104297916D01*
X140997729Y-104297631D01*
X140989340Y-104297668D01*
X140973178Y-104298253D01*
X140961584Y-104299957D01*
X140951946Y-104303300D01*
X140941653Y-104308802D01*
X140930375Y-104316005D01*
X140916649Y-104327094D01*
X140905153Y-104340010D01*
X140895717Y-104355463D01*
X140888169Y-104374162D01*
X140882338Y-104396815D01*
X140878055Y-104424133D01*
X140875149Y-104456824D01*
X140873449Y-104495597D01*
X140872784Y-104541161D01*
X140728218Y-104541161D01*
X140728312Y-104534495D01*
X140728432Y-104525987D01*
X140729059Y-104484091D01*
X140729670Y-104449344D01*
X140730315Y-104420825D01*
X140731043Y-104397613D01*
X140731904Y-104378788D01*
X140732946Y-104363428D01*
X140734220Y-104350614D01*
X140735775Y-104339422D01*
X140737660Y-104328934D01*
X140739925Y-104318228D01*
X140752199Y-104272832D01*
X140771221Y-104224792D01*
X140795003Y-104183466D01*
X140823560Y-104148837D01*
X140856903Y-104120891D01*
X140895045Y-104099613D01*
X140937999Y-104084988D01*
X140956809Y-104081761D01*
X140981732Y-104079851D01*
X140997729Y-104079625D01*
X141009160Y-104079463D01*
X141036436Y-104080557D01*
G37*
%TD*%
%LPC*%
D12*
X138550000Y-113900000D02*
X158450000Y-113900000D01*
X158450000Y-114450000D01*
X138550000Y-114450000D01*
X138550000Y-113900000D01*
G36*
X138550000Y-113900000D02*
G01*
X158450000Y-113900000D01*
X158450000Y-114450000D01*
X138550000Y-114450000D01*
X138550000Y-113900000D01*
G37*
D11*
%TO.C,J1*%
G36*
X150777686Y-92669501D02*
G01*
X150856638Y-92964152D01*
X150985556Y-93240617D01*
X151160522Y-93490495D01*
X151376222Y-93706195D01*
X151626100Y-93881161D01*
X151902565Y-94010079D01*
X152197216Y-94089031D01*
X152501100Y-94115617D01*
X152804984Y-94089031D01*
X153099635Y-94010079D01*
X153376100Y-93881161D01*
X153625978Y-93706195D01*
X153841678Y-93490495D01*
X154016644Y-93240617D01*
X154145562Y-92964152D01*
X154224514Y-92669501D01*
X154251100Y-92365617D01*
X155251100Y-92365617D01*
X155157396Y-93077369D01*
X155041769Y-93417996D01*
X154882670Y-93740617D01*
X154682822Y-94039711D01*
X154445644Y-94310161D01*
X154175194Y-94547339D01*
X153876100Y-94747187D01*
X153553479Y-94906286D01*
X153212852Y-95021913D01*
X152860047Y-95092090D01*
X152501100Y-95115617D01*
X152142153Y-95092090D01*
X151789348Y-95021913D01*
X151448721Y-94906286D01*
X151126100Y-94747187D01*
X150827006Y-94547339D01*
X150556556Y-94310161D01*
X150319378Y-94039711D01*
X150119530Y-93740617D01*
X149960431Y-93417996D01*
X149844804Y-93077369D01*
X149774627Y-92724564D01*
X149751100Y-92365617D01*
X150751100Y-92365617D01*
X150777686Y-92669501D01*
G37*
%TD*%
D13*
%TO.C,J1*%
X157501100Y-112840617D03*
X157001100Y-112840617D03*
X156501100Y-112840617D03*
X156001100Y-112840617D03*
X155501100Y-112840617D03*
X155001100Y-112840617D03*
X154501100Y-112840617D03*
X154001100Y-112840617D03*
X153501100Y-112840617D03*
X153001100Y-112840617D03*
X152501100Y-112840617D03*
X150001100Y-112840617D03*
X149501100Y-112840617D03*
X149001100Y-112840617D03*
X148501100Y-112840617D03*
X148001100Y-112840617D03*
X147501100Y-112840617D03*
X147001100Y-112840617D03*
X146501100Y-112840617D03*
X146001100Y-112840617D03*
X145501100Y-112840617D03*
X145001100Y-112840617D03*
X144501100Y-112840617D03*
X144001100Y-112840617D03*
X143501100Y-112840617D03*
X143001100Y-112840617D03*
X142501100Y-112840617D03*
X142001100Y-112840617D03*
X141501100Y-112840617D03*
X141001100Y-112840617D03*
X140501100Y-112840617D03*
X140001100Y-112840617D03*
X139501100Y-112840617D03*
D14*
X150401100Y-93365617D03*
X152501100Y-94665617D03*
X154601100Y-93365617D03*
%TD*%
%LPD*%
M02*
