%TF.GenerationSoftware,KiCad,Pcbnew,9.0.0*%
%TF.CreationDate,2025-05-23T16:01:07+04:00*%
%TF.ProjectId,02_06_sensor_temphumid_HDC3022DEJR,30325f30-365f-4736-956e-736f725f7465,rev?*%
%TF.SameCoordinates,Original*%
%TF.FileFunction,Legend,Bot*%
%TF.FilePolarity,Positive*%
%FSLAX46Y46*%
G04 Gerber Fmt 4.6, Leading zero omitted, Abs format (unit mm)*
G04 Created by KiCad (PCBNEW 9.0.0) date 2025-05-23 16:01:07*
%MOMM*%
%LPD*%
G01*
G04 APERTURE LIST*
G04 Aperture macros list*
%AMRoundRect*
0 Rectangle with rounded corners*
0 $1 Rounding radius*
0 $2 $3 $4 $5 $6 $7 $8 $9 X,Y pos of 4 corners*
0 Add a 4 corners polygon primitive as box body*
4,1,4,$2,$3,$4,$5,$6,$7,$8,$9,$2,$3,0*
0 Add four circle primitives for the rounded corners*
1,1,$1+$1,$2,$3*
1,1,$1+$1,$4,$5*
1,1,$1+$1,$6,$7*
1,1,$1+$1,$8,$9*
0 Add four rect primitives between the rounded corners*
20,1,$1+$1,$2,$3,$4,$5,0*
20,1,$1+$1,$4,$5,$6,$7,0*
20,1,$1+$1,$6,$7,$8,$9,0*
20,1,$1+$1,$8,$9,$2,$3,0*%
G04 Aperture macros list end*
%ADD10C,0.175000*%
%ADD11C,0.000000*%
%ADD12C,0.120000*%
%ADD13C,0.100000*%
%ADD14RoundRect,0.050000X-0.175000X-0.975000X0.175000X-0.975000X0.175000X0.975000X-0.175000X0.975000X0*%
%ADD15C,0.554000*%
%ADD16RoundRect,0.050000X-0.500000X-0.750000X0.500000X-0.750000X0.500000X0.750000X-0.500000X0.750000X0*%
G04 APERTURE END LIST*
D10*
X144499114Y-93893702D02*
X143749114Y-93893702D01*
X143749114Y-93893702D02*
X143749114Y-94072273D01*
X143749114Y-94072273D02*
X143784828Y-94179416D01*
X143784828Y-94179416D02*
X143856257Y-94250845D01*
X143856257Y-94250845D02*
X143927685Y-94286559D01*
X143927685Y-94286559D02*
X144070542Y-94322273D01*
X144070542Y-94322273D02*
X144177685Y-94322273D01*
X144177685Y-94322273D02*
X144320542Y-94286559D01*
X144320542Y-94286559D02*
X144391971Y-94250845D01*
X144391971Y-94250845D02*
X144463400Y-94179416D01*
X144463400Y-94179416D02*
X144499114Y-94072273D01*
X144499114Y-94072273D02*
X144499114Y-93893702D01*
X143999114Y-94965131D02*
X144499114Y-94965131D01*
X143999114Y-94643702D02*
X144391971Y-94643702D01*
X144391971Y-94643702D02*
X144463400Y-94679416D01*
X144463400Y-94679416D02*
X144499114Y-94750845D01*
X144499114Y-94750845D02*
X144499114Y-94857988D01*
X144499114Y-94857988D02*
X144463400Y-94929416D01*
X144463400Y-94929416D02*
X144427685Y-94965131D01*
X144499114Y-95322273D02*
X143999114Y-95322273D01*
X144070542Y-95322273D02*
X144034828Y-95357987D01*
X144034828Y-95357987D02*
X143999114Y-95429416D01*
X143999114Y-95429416D02*
X143999114Y-95536559D01*
X143999114Y-95536559D02*
X144034828Y-95607987D01*
X144034828Y-95607987D02*
X144106257Y-95643702D01*
X144106257Y-95643702D02*
X144499114Y-95643702D01*
X144106257Y-95643702D02*
X144034828Y-95679416D01*
X144034828Y-95679416D02*
X143999114Y-95750844D01*
X143999114Y-95750844D02*
X143999114Y-95857987D01*
X143999114Y-95857987D02*
X144034828Y-95929416D01*
X144034828Y-95929416D02*
X144106257Y-95965130D01*
X144106257Y-95965130D02*
X144499114Y-95965130D01*
X143999114Y-96322273D02*
X144749114Y-96322273D01*
X144034828Y-96322273D02*
X143999114Y-96393702D01*
X143999114Y-96393702D02*
X143999114Y-96536559D01*
X143999114Y-96536559D02*
X144034828Y-96607987D01*
X144034828Y-96607987D02*
X144070542Y-96643702D01*
X144070542Y-96643702D02*
X144141971Y-96679416D01*
X144141971Y-96679416D02*
X144356257Y-96679416D01*
X144356257Y-96679416D02*
X144427685Y-96643702D01*
X144427685Y-96643702D02*
X144463400Y-96607987D01*
X144463400Y-96607987D02*
X144499114Y-96536559D01*
X144499114Y-96536559D02*
X144499114Y-96393702D01*
X144499114Y-96393702D02*
X144463400Y-96322273D01*
X144499114Y-97107987D02*
X144463400Y-97036558D01*
X144463400Y-97036558D02*
X144391971Y-97000844D01*
X144391971Y-97000844D02*
X143749114Y-97000844D01*
X144499114Y-97393701D02*
X143999114Y-97393701D01*
X143749114Y-97393701D02*
X143784828Y-97357987D01*
X143784828Y-97357987D02*
X143820542Y-97393701D01*
X143820542Y-97393701D02*
X143784828Y-97429415D01*
X143784828Y-97429415D02*
X143749114Y-97393701D01*
X143749114Y-97393701D02*
X143820542Y-97393701D01*
X143999114Y-97750844D02*
X144499114Y-97750844D01*
X144070542Y-97750844D02*
X144034828Y-97786558D01*
X144034828Y-97786558D02*
X143999114Y-97857987D01*
X143999114Y-97857987D02*
X143999114Y-97965130D01*
X143999114Y-97965130D02*
X144034828Y-98036558D01*
X144034828Y-98036558D02*
X144106257Y-98072273D01*
X144106257Y-98072273D02*
X144499114Y-98072273D01*
X143999114Y-98750844D02*
X144606257Y-98750844D01*
X144606257Y-98750844D02*
X144677685Y-98715129D01*
X144677685Y-98715129D02*
X144713400Y-98679415D01*
X144713400Y-98679415D02*
X144749114Y-98607986D01*
X144749114Y-98607986D02*
X144749114Y-98500844D01*
X144749114Y-98500844D02*
X144713400Y-98429415D01*
X144463400Y-98750844D02*
X144499114Y-98679415D01*
X144499114Y-98679415D02*
X144499114Y-98536558D01*
X144499114Y-98536558D02*
X144463400Y-98465129D01*
X144463400Y-98465129D02*
X144427685Y-98429415D01*
X144427685Y-98429415D02*
X144356257Y-98393701D01*
X144356257Y-98393701D02*
X144141971Y-98393701D01*
X144141971Y-98393701D02*
X144070542Y-98429415D01*
X144070542Y-98429415D02*
X144034828Y-98465129D01*
X144034828Y-98465129D02*
X143999114Y-98536558D01*
X143999114Y-98536558D02*
X143999114Y-98679415D01*
X143999114Y-98679415D02*
X144034828Y-98750844D01*
X144570542Y-98929415D02*
X144570542Y-99500843D01*
X144499114Y-99679415D02*
X143749114Y-99679415D01*
X143749114Y-99679415D02*
X144284828Y-99929415D01*
X144284828Y-99929415D02*
X143749114Y-100179415D01*
X143749114Y-100179415D02*
X144499114Y-100179415D01*
X144499114Y-100857987D02*
X144106257Y-100857987D01*
X144106257Y-100857987D02*
X144034828Y-100822272D01*
X144034828Y-100822272D02*
X143999114Y-100750844D01*
X143999114Y-100750844D02*
X143999114Y-100607987D01*
X143999114Y-100607987D02*
X144034828Y-100536558D01*
X144463400Y-100857987D02*
X144499114Y-100786558D01*
X144499114Y-100786558D02*
X144499114Y-100607987D01*
X144499114Y-100607987D02*
X144463400Y-100536558D01*
X144463400Y-100536558D02*
X144391971Y-100500844D01*
X144391971Y-100500844D02*
X144320542Y-100500844D01*
X144320542Y-100500844D02*
X144249114Y-100536558D01*
X144249114Y-100536558D02*
X144213400Y-100607987D01*
X144213400Y-100607987D02*
X144213400Y-100786558D01*
X144213400Y-100786558D02*
X144177685Y-100857987D01*
X143999114Y-101536558D02*
X144606257Y-101536558D01*
X144606257Y-101536558D02*
X144677685Y-101500843D01*
X144677685Y-101500843D02*
X144713400Y-101465129D01*
X144713400Y-101465129D02*
X144749114Y-101393700D01*
X144749114Y-101393700D02*
X144749114Y-101286558D01*
X144749114Y-101286558D02*
X144713400Y-101215129D01*
X144463400Y-101536558D02*
X144499114Y-101465129D01*
X144499114Y-101465129D02*
X144499114Y-101322272D01*
X144499114Y-101322272D02*
X144463400Y-101250843D01*
X144463400Y-101250843D02*
X144427685Y-101215129D01*
X144427685Y-101215129D02*
X144356257Y-101179415D01*
X144356257Y-101179415D02*
X144141971Y-101179415D01*
X144141971Y-101179415D02*
X144070542Y-101215129D01*
X144070542Y-101215129D02*
X144034828Y-101250843D01*
X144034828Y-101250843D02*
X143999114Y-101322272D01*
X143999114Y-101322272D02*
X143999114Y-101465129D01*
X143999114Y-101465129D02*
X144034828Y-101536558D01*
X143999114Y-101893700D02*
X144499114Y-101893700D01*
X144070542Y-101893700D02*
X144034828Y-101929414D01*
X144034828Y-101929414D02*
X143999114Y-102000843D01*
X143999114Y-102000843D02*
X143999114Y-102107986D01*
X143999114Y-102107986D02*
X144034828Y-102179414D01*
X144034828Y-102179414D02*
X144106257Y-102215129D01*
X144106257Y-102215129D02*
X144499114Y-102215129D01*
X144463400Y-102857985D02*
X144499114Y-102786557D01*
X144499114Y-102786557D02*
X144499114Y-102643700D01*
X144499114Y-102643700D02*
X144463400Y-102572271D01*
X144463400Y-102572271D02*
X144391971Y-102536557D01*
X144391971Y-102536557D02*
X144106257Y-102536557D01*
X144106257Y-102536557D02*
X144034828Y-102572271D01*
X144034828Y-102572271D02*
X143999114Y-102643700D01*
X143999114Y-102643700D02*
X143999114Y-102786557D01*
X143999114Y-102786557D02*
X144034828Y-102857985D01*
X144034828Y-102857985D02*
X144106257Y-102893700D01*
X144106257Y-102893700D02*
X144177685Y-102893700D01*
X144177685Y-102893700D02*
X144249114Y-102536557D01*
X143999114Y-103107985D02*
X143999114Y-103393699D01*
X143749114Y-103215128D02*
X144391971Y-103215128D01*
X144391971Y-103215128D02*
X144463400Y-103250842D01*
X144463400Y-103250842D02*
X144499114Y-103322271D01*
X144499114Y-103322271D02*
X144499114Y-103393699D01*
X144499114Y-103643699D02*
X143999114Y-103643699D01*
X143749114Y-103643699D02*
X143784828Y-103607985D01*
X143784828Y-103607985D02*
X143820542Y-103643699D01*
X143820542Y-103643699D02*
X143784828Y-103679413D01*
X143784828Y-103679413D02*
X143749114Y-103643699D01*
X143749114Y-103643699D02*
X143820542Y-103643699D01*
X144463400Y-104322271D02*
X144499114Y-104250842D01*
X144499114Y-104250842D02*
X144499114Y-104107985D01*
X144499114Y-104107985D02*
X144463400Y-104036556D01*
X144463400Y-104036556D02*
X144427685Y-104000842D01*
X144427685Y-104000842D02*
X144356257Y-103965128D01*
X144356257Y-103965128D02*
X144141971Y-103965128D01*
X144141971Y-103965128D02*
X144070542Y-104000842D01*
X144070542Y-104000842D02*
X144034828Y-104036556D01*
X144034828Y-104036556D02*
X143999114Y-104107985D01*
X143999114Y-104107985D02*
X143999114Y-104250842D01*
X143999114Y-104250842D02*
X144034828Y-104322271D01*
X143999114Y-105143699D02*
X144499114Y-105322271D01*
X144499114Y-105322271D02*
X143999114Y-105500842D01*
X143749114Y-105929414D02*
X143749114Y-106000843D01*
X143749114Y-106000843D02*
X143784828Y-106072271D01*
X143784828Y-106072271D02*
X143820542Y-106107986D01*
X143820542Y-106107986D02*
X143891971Y-106143700D01*
X143891971Y-106143700D02*
X144034828Y-106179414D01*
X144034828Y-106179414D02*
X144213400Y-106179414D01*
X144213400Y-106179414D02*
X144356257Y-106143700D01*
X144356257Y-106143700D02*
X144427685Y-106107986D01*
X144427685Y-106107986D02*
X144463400Y-106072271D01*
X144463400Y-106072271D02*
X144499114Y-106000843D01*
X144499114Y-106000843D02*
X144499114Y-105929414D01*
X144499114Y-105929414D02*
X144463400Y-105857986D01*
X144463400Y-105857986D02*
X144427685Y-105822271D01*
X144427685Y-105822271D02*
X144356257Y-105786557D01*
X144356257Y-105786557D02*
X144213400Y-105750843D01*
X144213400Y-105750843D02*
X144034828Y-105750843D01*
X144034828Y-105750843D02*
X143891971Y-105786557D01*
X143891971Y-105786557D02*
X143820542Y-105822271D01*
X143820542Y-105822271D02*
X143784828Y-105857986D01*
X143784828Y-105857986D02*
X143749114Y-105929414D01*
X144427685Y-106500843D02*
X144463400Y-106536557D01*
X144463400Y-106536557D02*
X144499114Y-106500843D01*
X144499114Y-106500843D02*
X144463400Y-106465129D01*
X144463400Y-106465129D02*
X144427685Y-106500843D01*
X144427685Y-106500843D02*
X144499114Y-106500843D01*
X144499114Y-107250843D02*
X144499114Y-106822272D01*
X144499114Y-107036557D02*
X143749114Y-107036557D01*
X143749114Y-107036557D02*
X143856257Y-106965129D01*
X143856257Y-106965129D02*
X143927685Y-106893700D01*
X143927685Y-106893700D02*
X143963400Y-106822272D01*
X154524999Y-96887864D02*
X154524999Y-97423578D01*
X154524999Y-97423578D02*
X154560714Y-97530721D01*
X154560714Y-97530721D02*
X154632142Y-97602150D01*
X154632142Y-97602150D02*
X154739285Y-97637864D01*
X154739285Y-97637864D02*
X154810714Y-97637864D01*
X154167856Y-97637864D02*
X154167856Y-96887864D01*
X154167856Y-96887864D02*
X153882142Y-96887864D01*
X153882142Y-96887864D02*
X153810713Y-96923578D01*
X153810713Y-96923578D02*
X153774999Y-96959292D01*
X153774999Y-96959292D02*
X153739285Y-97030721D01*
X153739285Y-97030721D02*
X153739285Y-97137864D01*
X153739285Y-97137864D02*
X153774999Y-97209292D01*
X153774999Y-97209292D02*
X153810713Y-97245007D01*
X153810713Y-97245007D02*
X153882142Y-97280721D01*
X153882142Y-97280721D02*
X154167856Y-97280721D01*
X153453570Y-96959292D02*
X153417856Y-96923578D01*
X153417856Y-96923578D02*
X153346428Y-96887864D01*
X153346428Y-96887864D02*
X153167856Y-96887864D01*
X153167856Y-96887864D02*
X153096428Y-96923578D01*
X153096428Y-96923578D02*
X153060713Y-96959292D01*
X153060713Y-96959292D02*
X153024999Y-97030721D01*
X153024999Y-97030721D02*
X153024999Y-97102150D01*
X153024999Y-97102150D02*
X153060713Y-97209292D01*
X153060713Y-97209292D02*
X153489285Y-97637864D01*
X153489285Y-97637864D02*
X153024999Y-97637864D01*
X154524999Y-99587864D02*
X154524999Y-100123578D01*
X154524999Y-100123578D02*
X154560714Y-100230721D01*
X154560714Y-100230721D02*
X154632142Y-100302150D01*
X154632142Y-100302150D02*
X154739285Y-100337864D01*
X154739285Y-100337864D02*
X154810714Y-100337864D01*
X154167856Y-100337864D02*
X154167856Y-99587864D01*
X154167856Y-99587864D02*
X153882142Y-99587864D01*
X153882142Y-99587864D02*
X153810713Y-99623578D01*
X153810713Y-99623578D02*
X153774999Y-99659292D01*
X153774999Y-99659292D02*
X153739285Y-99730721D01*
X153739285Y-99730721D02*
X153739285Y-99837864D01*
X153739285Y-99837864D02*
X153774999Y-99909292D01*
X153774999Y-99909292D02*
X153810713Y-99945007D01*
X153810713Y-99945007D02*
X153882142Y-99980721D01*
X153882142Y-99980721D02*
X154167856Y-99980721D01*
X153024999Y-100337864D02*
X153453570Y-100337864D01*
X153239285Y-100337864D02*
X153239285Y-99587864D01*
X153239285Y-99587864D02*
X153310713Y-99695007D01*
X153310713Y-99695007D02*
X153382142Y-99766435D01*
X153382142Y-99766435D02*
X153453570Y-99802150D01*
D11*
%TO.C,G\u002A\u002A\u002A*%
G36*
X142059590Y-101748960D02*
G01*
X142085638Y-101752981D01*
X142107029Y-101760145D01*
X142132225Y-101776217D01*
X142154979Y-101798753D01*
X142172756Y-101825332D01*
X142183924Y-101853965D01*
X142185657Y-101865771D01*
X142186491Y-101882361D01*
X142186206Y-101899937D01*
X142181619Y-101929823D01*
X142169758Y-101960611D01*
X142151448Y-101987279D01*
X142127350Y-102008892D01*
X142098124Y-102024517D01*
X142097228Y-102024862D01*
X142071676Y-102031407D01*
X142042520Y-102033908D01*
X142013230Y-102032302D01*
X141987278Y-102026527D01*
X141986399Y-102026221D01*
X141964348Y-102015001D01*
X141942635Y-101997956D01*
X141923519Y-101977165D01*
X141909257Y-101954707D01*
X141906469Y-101948855D01*
X141901902Y-101937362D01*
X141899263Y-101925898D01*
X141898047Y-101911711D01*
X141897747Y-101892047D01*
X141897854Y-101877472D01*
X141898671Y-101862384D01*
X141900790Y-101850579D01*
X141904796Y-101839183D01*
X141911269Y-101825324D01*
X141913472Y-101821010D01*
X141932615Y-101792949D01*
X141956853Y-101771107D01*
X141985690Y-101755946D01*
X142005534Y-101750765D01*
X142031888Y-101748187D01*
X142059590Y-101748960D01*
G37*
G36*
X141637106Y-98341908D02*
G01*
X141684688Y-98342198D01*
X141726176Y-98342748D01*
X141762199Y-98343585D01*
X141793388Y-98344735D01*
X141820370Y-98346224D01*
X141843777Y-98348079D01*
X141864237Y-98350326D01*
X141882381Y-98352991D01*
X141898837Y-98356101D01*
X141914235Y-98359682D01*
X141928905Y-98363665D01*
X141980992Y-98382592D01*
X142027451Y-98407508D01*
X142068201Y-98438319D01*
X142103160Y-98474928D01*
X142132247Y-98517238D01*
X142155380Y-98565153D01*
X142172478Y-98618578D01*
X142183459Y-98677415D01*
X142186606Y-98709688D01*
X142187065Y-98769139D01*
X142180534Y-98826299D01*
X142167196Y-98880514D01*
X142147233Y-98931129D01*
X142120828Y-98977491D01*
X142088163Y-99018943D01*
X142059756Y-99049772D01*
X142117771Y-99049772D01*
X142175786Y-99049772D01*
X142175786Y-99154816D01*
X142175786Y-99259860D01*
X141706179Y-99259860D01*
X141236571Y-99259860D01*
X141236571Y-99148803D01*
X141236571Y-99037746D01*
X141509479Y-99036427D01*
X141526630Y-99036345D01*
X141580349Y-99036092D01*
X141626703Y-99035832D01*
X141666369Y-99035504D01*
X141700023Y-99035047D01*
X141728341Y-99034397D01*
X141751999Y-99033495D01*
X141771674Y-99032277D01*
X141788042Y-99030682D01*
X141801779Y-99028648D01*
X141813562Y-99026114D01*
X141824067Y-99023017D01*
X141833971Y-99019295D01*
X141843949Y-99014888D01*
X141854678Y-99009733D01*
X141866834Y-99003768D01*
X141884010Y-98994454D01*
X141916759Y-98970636D01*
X141944007Y-98941993D01*
X141964595Y-98909640D01*
X141977041Y-98880124D01*
X141987715Y-98840565D01*
X141992729Y-98799942D01*
X141992204Y-98759533D01*
X141986265Y-98720617D01*
X141975035Y-98684472D01*
X141958637Y-98652378D01*
X141937194Y-98625613D01*
X141935158Y-98623628D01*
X141909923Y-98603597D01*
X141879860Y-98587683D01*
X141843455Y-98575070D01*
X141842595Y-98574829D01*
X141836213Y-98573111D01*
X141829851Y-98571628D01*
X141822874Y-98570360D01*
X141814646Y-98569285D01*
X141804532Y-98568384D01*
X141791898Y-98567636D01*
X141776107Y-98567019D01*
X141756525Y-98566513D01*
X141732516Y-98566098D01*
X141703444Y-98565753D01*
X141668675Y-98565456D01*
X141627573Y-98565188D01*
X141579503Y-98564928D01*
X141523830Y-98564654D01*
X141236438Y-98563273D01*
X141237534Y-98453287D01*
X141238631Y-98343301D01*
X141494032Y-98342119D01*
X141521141Y-98342005D01*
X141582800Y-98341852D01*
X141637106Y-98341908D01*
G37*
G36*
X142175786Y-96260774D02*
G01*
X142175786Y-96371808D01*
X141898759Y-96373254D01*
X141881349Y-96373344D01*
X141827083Y-96373626D01*
X141780203Y-96373914D01*
X141740052Y-96374264D01*
X141705972Y-96374735D01*
X141677304Y-96375384D01*
X141653390Y-96376268D01*
X141633571Y-96377446D01*
X141617189Y-96378974D01*
X141603587Y-96380911D01*
X141592105Y-96383314D01*
X141582085Y-96386241D01*
X141572870Y-96389749D01*
X141563800Y-96393895D01*
X141554217Y-96398738D01*
X141543464Y-96404335D01*
X141520902Y-96417923D01*
X141489486Y-96444508D01*
X141463095Y-96477087D01*
X141442234Y-96514993D01*
X141427409Y-96557557D01*
X141424378Y-96572270D01*
X141421394Y-96598470D01*
X141420237Y-96627396D01*
X141420904Y-96656356D01*
X141423388Y-96682661D01*
X141427685Y-96703618D01*
X141432273Y-96717707D01*
X141448118Y-96753111D01*
X141468635Y-96782295D01*
X141494482Y-96806073D01*
X141526322Y-96825261D01*
X141534819Y-96829366D01*
X141545399Y-96834168D01*
X141555834Y-96838306D01*
X141566769Y-96841830D01*
X141578850Y-96844790D01*
X141592721Y-96847233D01*
X141609027Y-96849211D01*
X141628413Y-96850771D01*
X141651523Y-96851963D01*
X141679003Y-96852837D01*
X141711497Y-96853441D01*
X141749651Y-96853826D01*
X141794108Y-96854039D01*
X141845515Y-96854131D01*
X141904515Y-96854151D01*
X142175921Y-96854151D01*
X142174824Y-96964344D01*
X142173727Y-97074537D01*
X141914207Y-97075742D01*
X141886074Y-97075861D01*
X141824610Y-97076014D01*
X141770494Y-97075963D01*
X141723098Y-97075681D01*
X141681796Y-97075144D01*
X141645961Y-97074325D01*
X141614967Y-97073199D01*
X141588186Y-97071740D01*
X141564991Y-97069922D01*
X141544758Y-97067720D01*
X141526857Y-97065107D01*
X141510663Y-97062058D01*
X141495549Y-97058548D01*
X141487352Y-97056378D01*
X141435836Y-97038201D01*
X141389367Y-97013574D01*
X141348148Y-96982702D01*
X141312387Y-96945794D01*
X141282288Y-96903057D01*
X141258058Y-96854698D01*
X141239903Y-96800925D01*
X141239583Y-96799697D01*
X141235495Y-96778383D01*
X141232284Y-96751178D01*
X141230034Y-96720240D01*
X141228826Y-96687724D01*
X141228744Y-96655789D01*
X141229871Y-96626592D01*
X141232288Y-96602289D01*
X141238370Y-96569431D01*
X141253802Y-96516535D01*
X141275369Y-96467185D01*
X141302556Y-96422478D01*
X141334847Y-96383513D01*
X141357835Y-96359827D01*
X141297203Y-96359827D01*
X141236571Y-96359827D01*
X141236571Y-96254783D01*
X141236571Y-96149740D01*
X141706179Y-96149740D01*
X142175786Y-96149740D01*
X142175786Y-96260774D01*
G37*
G36*
X141732654Y-93301314D02*
G01*
X141771667Y-93302172D01*
X141807832Y-93303704D01*
X141839438Y-93305909D01*
X141864774Y-93308785D01*
X141870753Y-93309688D01*
X141905016Y-93315358D01*
X141940254Y-93321929D01*
X141974179Y-93328931D01*
X142004501Y-93335897D01*
X142028931Y-93342357D01*
X142039911Y-93346045D01*
X142047824Y-93349808D01*
X142049528Y-93352388D01*
X142049465Y-93352442D01*
X142044861Y-93356293D01*
X142035326Y-93364228D01*
X142022218Y-93375117D01*
X142006892Y-93387832D01*
X141974650Y-93415041D01*
X141932626Y-93451621D01*
X141889629Y-93490119D01*
X141848180Y-93528269D01*
X141810804Y-93563809D01*
X141760927Y-93612211D01*
X141703688Y-93612216D01*
X141661811Y-93613129D01*
X141576930Y-93620695D01*
X141494616Y-93635728D01*
X141415253Y-93658002D01*
X141339222Y-93687290D01*
X141266905Y-93723366D01*
X141198686Y-93766002D01*
X141134945Y-93814972D01*
X141076065Y-93870049D01*
X141022429Y-93931007D01*
X140974418Y-93997619D01*
X140932415Y-94069658D01*
X140912546Y-94109958D01*
X140885697Y-94174595D01*
X140865509Y-94239089D01*
X140851582Y-94305101D01*
X140843513Y-94374294D01*
X140840901Y-94448330D01*
X140843033Y-94513095D01*
X140852150Y-94592895D01*
X140868569Y-94669333D01*
X140892435Y-94742917D01*
X140923889Y-94814154D01*
X140963073Y-94883551D01*
X140985928Y-94919955D01*
X140973344Y-94981822D01*
X140970686Y-94995084D01*
X140957232Y-95069758D01*
X140946217Y-95145781D01*
X140937139Y-95226535D01*
X140930103Y-95298157D01*
X140880425Y-95247132D01*
X140861456Y-95227278D01*
X140805285Y-95163222D01*
X140755489Y-95097427D01*
X140710674Y-95027951D01*
X140669449Y-94952851D01*
X140664215Y-94942439D01*
X140628752Y-94864828D01*
X140600354Y-94788232D01*
X140578502Y-94710851D01*
X140562677Y-94630885D01*
X140552360Y-94546533D01*
X140552005Y-94542323D01*
X140550230Y-94510280D01*
X140549459Y-94473139D01*
X140549635Y-94433118D01*
X140550706Y-94392435D01*
X140552615Y-94353308D01*
X140555309Y-94317956D01*
X140558731Y-94288596D01*
X140562792Y-94263041D01*
X140582936Y-94169336D01*
X140610949Y-94077733D01*
X140646664Y-93988610D01*
X140689916Y-93902347D01*
X140740540Y-93819321D01*
X140798370Y-93739911D01*
X140799538Y-93738446D01*
X140816674Y-93718236D01*
X140838540Y-93694217D01*
X140863713Y-93667807D01*
X140890772Y-93640425D01*
X140918293Y-93613487D01*
X140944855Y-93588411D01*
X140969034Y-93566615D01*
X140989409Y-93549517D01*
X141007963Y-93535100D01*
X141088095Y-93479247D01*
X141172362Y-93430446D01*
X141260438Y-93388837D01*
X141351998Y-93354561D01*
X141446716Y-93327761D01*
X141544266Y-93308578D01*
X141554711Y-93307167D01*
X141582315Y-93304640D01*
X141615622Y-93302792D01*
X141652921Y-93301623D01*
X141692501Y-93301130D01*
X141732654Y-93301314D01*
G37*
G36*
X141755809Y-105338039D02*
G01*
X141814794Y-105347098D01*
X141871699Y-105362846D01*
X141925317Y-105385285D01*
X141969983Y-105410821D01*
X142018231Y-105446868D01*
X142061092Y-105488744D01*
X142098251Y-105535980D01*
X142129393Y-105588109D01*
X142154203Y-105644662D01*
X142172368Y-105705172D01*
X142183571Y-105769171D01*
X142187568Y-105822596D01*
X142186269Y-105886486D01*
X142178231Y-105947431D01*
X142163642Y-106004964D01*
X142142692Y-106058622D01*
X142115569Y-106107937D01*
X142082461Y-106152444D01*
X142043557Y-106191676D01*
X141999045Y-106225170D01*
X141996622Y-106226724D01*
X141983945Y-106234570D01*
X141974279Y-106240093D01*
X141969552Y-106242182D01*
X141968268Y-106240911D01*
X141963212Y-106233666D01*
X141955033Y-106220872D01*
X141944348Y-106203519D01*
X141931771Y-106182598D01*
X141917920Y-106159099D01*
X141869396Y-106076016D01*
X141883563Y-106065590D01*
X141890646Y-106060107D01*
X141911244Y-106041638D01*
X141931580Y-106020241D01*
X141949427Y-105998371D01*
X141962559Y-105978483D01*
X141968744Y-105966906D01*
X141981925Y-105937210D01*
X141990493Y-105907673D01*
X141995087Y-105875647D01*
X141996345Y-105838484D01*
X141996041Y-105823119D01*
X141991918Y-105778443D01*
X141982600Y-105738941D01*
X141967581Y-105703316D01*
X141946355Y-105670270D01*
X141918417Y-105638504D01*
X141904842Y-105625554D01*
X141874961Y-105601950D01*
X141843430Y-105584140D01*
X141808785Y-105571531D01*
X141769567Y-105563528D01*
X141724313Y-105559536D01*
X141695085Y-105559115D01*
X141643995Y-105563334D01*
X141597625Y-105574164D01*
X141555730Y-105591695D01*
X141518065Y-105616016D01*
X141484385Y-105647216D01*
X141469174Y-105665529D01*
X141445931Y-105702651D01*
X141429031Y-105743080D01*
X141418464Y-105785734D01*
X141414223Y-105829531D01*
X141416296Y-105873391D01*
X141424677Y-105916232D01*
X141439355Y-105956973D01*
X141460321Y-105994532D01*
X141487567Y-106027829D01*
X141492605Y-106032873D01*
X141506583Y-106046312D01*
X141519399Y-106057925D01*
X141528795Y-106065641D01*
X141542962Y-106076016D01*
X141494438Y-106159099D01*
X141485940Y-106173566D01*
X141472776Y-106195625D01*
X141461252Y-106214507D01*
X141451986Y-106229221D01*
X141445595Y-106238777D01*
X141442696Y-106242182D01*
X141440993Y-106241572D01*
X141433418Y-106237448D01*
X141421585Y-106230291D01*
X141407194Y-106221108D01*
X141405582Y-106220048D01*
X141363306Y-106187236D01*
X141326154Y-106148236D01*
X141294417Y-106103525D01*
X141268388Y-106053581D01*
X141248361Y-105998880D01*
X141234627Y-105939899D01*
X141233385Y-105931841D01*
X141230497Y-105903258D01*
X141228848Y-105869971D01*
X141228439Y-105834552D01*
X141229269Y-105799568D01*
X141231338Y-105767591D01*
X141234646Y-105741189D01*
X141238166Y-105722554D01*
X141254930Y-105659459D01*
X141278284Y-105600812D01*
X141308006Y-105546932D01*
X141343869Y-105498136D01*
X141385650Y-105454741D01*
X141433125Y-105417066D01*
X141486068Y-105385426D01*
X141523191Y-105368687D01*
X141578435Y-105350993D01*
X141636423Y-105339987D01*
X141695950Y-105335668D01*
X141755809Y-105338039D01*
G37*
G36*
X141768978Y-100540876D02*
G01*
X141816671Y-100546964D01*
X141859851Y-100556556D01*
X141900371Y-100570087D01*
X141940088Y-100587994D01*
X141948755Y-100592531D01*
X141993788Y-100620760D01*
X142036308Y-100655022D01*
X142074885Y-100693908D01*
X142108090Y-100736006D01*
X142134495Y-100779905D01*
X142138244Y-100787535D01*
X142154211Y-100826130D01*
X142167943Y-100869235D01*
X142178585Y-100913865D01*
X142185282Y-100957038D01*
X142187325Y-100982413D01*
X142186934Y-101040622D01*
X142179603Y-101097291D01*
X142165599Y-101151520D01*
X142145189Y-101202409D01*
X142118640Y-101249058D01*
X142086220Y-101290569D01*
X142059992Y-101319306D01*
X142116859Y-101320454D01*
X142173727Y-101321601D01*
X142174827Y-101425615D01*
X142175928Y-101529629D01*
X141522869Y-101529629D01*
X140869811Y-101529629D01*
X140870909Y-101421496D01*
X140872008Y-101313363D01*
X141110283Y-101312299D01*
X141348559Y-101311236D01*
X141328238Y-101289001D01*
X141304460Y-101260346D01*
X141279707Y-101222301D01*
X141259289Y-101179832D01*
X141242268Y-101131221D01*
X141238723Y-101117340D01*
X141233666Y-101087747D01*
X141230228Y-101053674D01*
X141414833Y-101053674D01*
X141418655Y-101088757D01*
X141430041Y-101134301D01*
X141448073Y-101175614D01*
X141472299Y-101212313D01*
X141502268Y-101244015D01*
X141537527Y-101270337D01*
X141577623Y-101290895D01*
X141622105Y-101305308D01*
X141670520Y-101313191D01*
X141722415Y-101314163D01*
X141733808Y-101313515D01*
X141766517Y-101310201D01*
X141794824Y-101304508D01*
X141821563Y-101295748D01*
X141849565Y-101283231D01*
X141871917Y-101270902D01*
X141909149Y-101243456D01*
X141940483Y-101210496D01*
X141965498Y-101172500D01*
X141983771Y-101129952D01*
X141988413Y-101114820D01*
X141992812Y-101095575D01*
X141995415Y-101075028D01*
X141996781Y-101049723D01*
X141997041Y-101040076D01*
X141996889Y-101012225D01*
X141994906Y-100988782D01*
X141990751Y-100966894D01*
X141984082Y-100943705D01*
X141973824Y-100917389D01*
X141952101Y-100878942D01*
X141924266Y-100844592D01*
X141891338Y-100815525D01*
X141854337Y-100792925D01*
X141835939Y-100784259D01*
X141812323Y-100774732D01*
X141789876Y-100768181D01*
X141766261Y-100764109D01*
X141739141Y-100762019D01*
X141706179Y-100761414D01*
X141704036Y-100761414D01*
X141673366Y-100761864D01*
X141648517Y-100763490D01*
X141627242Y-100766756D01*
X141607291Y-100772123D01*
X141586415Y-100780056D01*
X141562366Y-100791016D01*
X141523179Y-100814026D01*
X141489161Y-100842987D01*
X141461098Y-100877103D01*
X141439312Y-100915802D01*
X141424125Y-100958512D01*
X141415858Y-101004660D01*
X141414833Y-101053674D01*
X141230228Y-101053674D01*
X141230224Y-101053639D01*
X141228482Y-101017309D01*
X141228525Y-100981048D01*
X141230439Y-100947149D01*
X141234310Y-100917904D01*
X141243651Y-100876367D01*
X141263250Y-100817261D01*
X141289388Y-100763095D01*
X141322130Y-100713742D01*
X141361539Y-100669075D01*
X141386683Y-100645844D01*
X141433954Y-100610291D01*
X141484840Y-100581895D01*
X141539556Y-100560578D01*
X141598316Y-100546263D01*
X141661338Y-100538874D01*
X141704036Y-100538532D01*
X141728835Y-100538334D01*
X141768978Y-100540876D01*
G37*
G36*
X142795665Y-94087580D02*
G01*
X142799240Y-94097523D01*
X142803951Y-94112997D01*
X142809389Y-94132473D01*
X142815145Y-94154422D01*
X142820811Y-94177315D01*
X142825978Y-94199623D01*
X142830237Y-94219817D01*
X142831519Y-94226469D01*
X142836037Y-94252758D01*
X142840248Y-94282308D01*
X142844372Y-94316775D01*
X142848631Y-94357816D01*
X142848810Y-94359788D01*
X142849790Y-94377157D01*
X142850400Y-94400498D01*
X142850656Y-94427851D01*
X142850573Y-94457255D01*
X142850164Y-94486747D01*
X142849446Y-94514366D01*
X142848433Y-94538150D01*
X142847139Y-94556139D01*
X142837566Y-94631732D01*
X142821963Y-94712461D01*
X142800786Y-94789937D01*
X142773501Y-94866068D01*
X142739578Y-94942766D01*
X142713316Y-94994410D01*
X142669492Y-95069404D01*
X142620857Y-95139695D01*
X142566268Y-95206886D01*
X142504584Y-95272579D01*
X142462723Y-95312217D01*
X142389526Y-95372546D01*
X142311456Y-95426513D01*
X142229028Y-95473860D01*
X142142756Y-95514331D01*
X142053155Y-95547667D01*
X141960739Y-95573612D01*
X141866025Y-95591908D01*
X141846731Y-95594370D01*
X141812114Y-95597379D01*
X141772777Y-95599507D01*
X141730810Y-95600725D01*
X141688306Y-95601003D01*
X141647355Y-95600313D01*
X141610048Y-95598625D01*
X141578479Y-95595910D01*
X141531560Y-95589609D01*
X141443914Y-95572791D01*
X141361205Y-95550028D01*
X141283944Y-95521449D01*
X141266806Y-95514211D01*
X141249387Y-95506872D01*
X141235552Y-95501061D01*
X141227303Y-95497622D01*
X141219357Y-95493397D01*
X141215975Y-95489663D01*
X141216388Y-95487793D01*
X141219947Y-95479106D01*
X141226708Y-95464895D01*
X141236132Y-95446148D01*
X141247681Y-95423852D01*
X141260817Y-95398995D01*
X141275000Y-95372563D01*
X141289691Y-95345543D01*
X141304354Y-95318924D01*
X141318447Y-95293691D01*
X141331434Y-95270832D01*
X141342775Y-95251335D01*
X141351932Y-95236186D01*
X141358366Y-95226373D01*
X141361539Y-95222883D01*
X141362160Y-95223065D01*
X141368402Y-95225328D01*
X141379835Y-95229633D01*
X141394619Y-95235289D01*
X141450543Y-95254277D01*
X141519749Y-95271196D01*
X141593071Y-95282233D01*
X141671517Y-95287577D01*
X141694643Y-95288090D01*
X141769987Y-95286391D01*
X141840861Y-95279152D01*
X141908752Y-95266108D01*
X141975147Y-95246992D01*
X142041533Y-95221541D01*
X142102809Y-95192590D01*
X142177226Y-95149489D01*
X142246729Y-95099792D01*
X142311231Y-95043559D01*
X142349500Y-95004323D01*
X142401203Y-94941684D01*
X142446046Y-94874715D01*
X142483815Y-94803831D01*
X142514298Y-94729449D01*
X142537281Y-94651985D01*
X142552551Y-94571856D01*
X142554916Y-94550763D01*
X142557157Y-94518596D01*
X142558514Y-94482712D01*
X142558964Y-94445488D01*
X142558483Y-94409305D01*
X142557051Y-94376542D01*
X142554644Y-94349577D01*
X142554499Y-94348440D01*
X142551772Y-94330267D01*
X142547884Y-94308277D01*
X142543253Y-94284460D01*
X142538295Y-94260808D01*
X142533425Y-94239312D01*
X142529061Y-94221963D01*
X142525618Y-94210752D01*
X142524976Y-94208936D01*
X142524494Y-94204773D01*
X142526770Y-94200944D01*
X142532992Y-94196517D01*
X142544346Y-94190559D01*
X142562020Y-94182136D01*
X142596932Y-94165877D01*
X142636863Y-94147620D01*
X142673648Y-94131174D01*
X142706677Y-94116794D01*
X142735341Y-94104735D01*
X142759030Y-94095254D01*
X142777137Y-94088605D01*
X142789050Y-94085043D01*
X142794162Y-94084825D01*
X142795665Y-94087580D01*
G37*
G36*
X141706615Y-103152659D02*
G01*
X141877132Y-103152659D01*
X142517694Y-103152659D01*
X142517694Y-103261822D01*
X142517694Y-103370985D01*
X142291129Y-103370985D01*
X142264744Y-103371007D01*
X142223900Y-103371134D01*
X142186089Y-103371362D01*
X142152055Y-103371681D01*
X142122541Y-103372081D01*
X142098291Y-103372550D01*
X142080049Y-103373078D01*
X142068559Y-103373655D01*
X142064564Y-103374268D01*
X142066125Y-103377146D01*
X142072270Y-103384437D01*
X142081481Y-103393835D01*
X142092925Y-103405546D01*
X142122043Y-103442914D01*
X142145931Y-103485479D01*
X142164485Y-103532293D01*
X142177603Y-103582408D01*
X142185181Y-103634877D01*
X142187116Y-103688752D01*
X142183307Y-103743085D01*
X142173649Y-103796930D01*
X142158040Y-103849337D01*
X142136377Y-103899360D01*
X142132637Y-103906552D01*
X142100573Y-103958666D01*
X142062933Y-104004809D01*
X142019958Y-104044831D01*
X141971888Y-104078585D01*
X141918964Y-104105923D01*
X141861426Y-104126695D01*
X141799514Y-104140755D01*
X141733470Y-104147952D01*
X141683087Y-104148506D01*
X141619891Y-104142672D01*
X141559802Y-104129696D01*
X141503243Y-104109873D01*
X141450637Y-104083498D01*
X141402407Y-104050867D01*
X141358974Y-104012276D01*
X141320763Y-103968020D01*
X141288196Y-103918394D01*
X141261696Y-103863695D01*
X141241685Y-103804217D01*
X141237992Y-103789892D01*
X141235247Y-103777151D01*
X141233305Y-103764359D01*
X141232023Y-103749880D01*
X141231254Y-103732075D01*
X141230854Y-103709306D01*
X141230678Y-103679937D01*
X141230670Y-103677219D01*
X141230687Y-103666012D01*
X141414940Y-103666012D01*
X141414978Y-103666678D01*
X141421597Y-103715015D01*
X141435370Y-103759453D01*
X141456001Y-103799604D01*
X141483191Y-103835078D01*
X141516641Y-103865484D01*
X141556056Y-103890434D01*
X141601135Y-103909537D01*
X141609308Y-103912221D01*
X141620744Y-103915542D01*
X141631753Y-103917850D01*
X141644068Y-103919327D01*
X141659422Y-103920156D01*
X141679548Y-103920519D01*
X141706179Y-103920600D01*
X141723748Y-103920573D01*
X141746093Y-103920336D01*
X141763021Y-103919701D01*
X141776265Y-103918487D01*
X141787558Y-103916510D01*
X141798633Y-103913587D01*
X141811223Y-103909537D01*
X141821935Y-103905718D01*
X141864691Y-103885515D01*
X141902435Y-103859375D01*
X141934630Y-103827894D01*
X141960741Y-103791669D01*
X141980232Y-103751299D01*
X141992566Y-103707381D01*
X141994052Y-103698911D01*
X141998283Y-103649667D01*
X141994969Y-103601917D01*
X141984336Y-103556397D01*
X141966609Y-103513839D01*
X141942011Y-103474978D01*
X141910769Y-103440546D01*
X141909538Y-103439423D01*
X141890154Y-103424546D01*
X141865557Y-103409487D01*
X141838371Y-103395719D01*
X141811223Y-103384714D01*
X141803451Y-103382060D01*
X141791955Y-103378546D01*
X141781069Y-103376108D01*
X141769024Y-103374548D01*
X141754051Y-103373667D01*
X141734379Y-103373267D01*
X141708239Y-103373148D01*
X141706615Y-103373146D01*
X141680124Y-103373241D01*
X141659988Y-103373708D01*
X141644424Y-103374714D01*
X141631647Y-103376427D01*
X141619872Y-103379016D01*
X141607314Y-103382649D01*
X141563926Y-103399784D01*
X141523885Y-103423580D01*
X141489548Y-103452929D01*
X141461244Y-103487346D01*
X141439303Y-103526348D01*
X141424052Y-103569449D01*
X141415822Y-103616165D01*
X141414940Y-103666012D01*
X141230687Y-103666012D01*
X141230716Y-103647031D01*
X141231116Y-103623438D01*
X141231969Y-103604918D01*
X141233376Y-103589951D01*
X141235435Y-103577017D01*
X141238248Y-103564595D01*
X141246965Y-103534497D01*
X141268059Y-103482121D01*
X141295459Y-103434864D01*
X141329325Y-103392427D01*
X141356804Y-103362746D01*
X141296688Y-103362746D01*
X141236571Y-103362746D01*
X141236571Y-103257703D01*
X141236571Y-103152659D01*
X141706615Y-103152659D01*
G37*
G36*
X142083270Y-102144981D02*
G01*
X142087630Y-102150026D01*
X142094388Y-102161184D01*
X142102857Y-102177033D01*
X142112351Y-102196152D01*
X142122182Y-102217118D01*
X142131665Y-102238508D01*
X142140111Y-102258902D01*
X142146834Y-102276876D01*
X142148716Y-102282485D01*
X142157303Y-102311889D01*
X142165687Y-102346187D01*
X142173290Y-102382653D01*
X142179534Y-102418566D01*
X142183840Y-102451202D01*
X142184466Y-102458023D01*
X142185829Y-102483730D01*
X142186337Y-102514351D01*
X142186050Y-102547694D01*
X142185025Y-102581572D01*
X142183321Y-102613794D01*
X142180997Y-102642171D01*
X142178113Y-102664514D01*
X142175055Y-102681218D01*
X142160904Y-102737644D01*
X142141965Y-102788390D01*
X142118479Y-102833199D01*
X142090689Y-102871816D01*
X142058838Y-102903983D01*
X142023168Y-102929445D01*
X141983922Y-102947945D01*
X141941342Y-102959227D01*
X141895670Y-102963036D01*
X141888438Y-102962961D01*
X141843659Y-102958770D01*
X141803814Y-102948037D01*
X141768621Y-102930593D01*
X141737800Y-102906264D01*
X141711071Y-102874879D01*
X141688152Y-102836268D01*
X141674389Y-102806747D01*
X141662470Y-102776355D01*
X141652328Y-102744239D01*
X141643508Y-102708770D01*
X141635554Y-102668320D01*
X141628010Y-102621261D01*
X141622856Y-102588234D01*
X141614280Y-102541270D01*
X141605309Y-102501405D01*
X141596030Y-102469017D01*
X141586533Y-102444488D01*
X141575555Y-102423426D01*
X141562658Y-102405742D01*
X141548325Y-102394357D01*
X141531230Y-102388264D01*
X141510046Y-102386457D01*
X141501038Y-102386876D01*
X141476401Y-102393074D01*
X141455281Y-102406558D01*
X141437770Y-102427162D01*
X141423957Y-102454721D01*
X141413932Y-102489070D01*
X141407786Y-102530044D01*
X141405609Y-102577479D01*
X141405782Y-102593757D01*
X141410231Y-102653400D01*
X141420416Y-102711087D01*
X141435991Y-102765215D01*
X141456609Y-102814178D01*
X141474771Y-102850340D01*
X141390728Y-102892302D01*
X141306685Y-102934264D01*
X141293733Y-102908606D01*
X141293033Y-102907215D01*
X141270062Y-102853247D01*
X141251986Y-102793179D01*
X141238926Y-102727614D01*
X141231001Y-102657152D01*
X141228333Y-102582395D01*
X141229132Y-102543876D01*
X141234690Y-102478848D01*
X141245601Y-102419861D01*
X141261932Y-102366716D01*
X141283751Y-102319211D01*
X141311125Y-102277147D01*
X141344123Y-102240325D01*
X141360611Y-102225685D01*
X141398013Y-102199954D01*
X141438221Y-102181954D01*
X141481275Y-102171675D01*
X141527217Y-102169105D01*
X141576086Y-102174231D01*
X141614235Y-102184538D01*
X141651000Y-102202469D01*
X141683611Y-102227433D01*
X141711883Y-102259289D01*
X141735629Y-102297891D01*
X141739740Y-102306028D01*
X141748396Y-102324101D01*
X141755862Y-102341554D01*
X141762427Y-102359482D01*
X141768379Y-102378986D01*
X141774009Y-102401162D01*
X141779606Y-102427108D01*
X141785460Y-102457922D01*
X141791860Y-102494701D01*
X141799096Y-102538545D01*
X141802721Y-102560645D01*
X141808386Y-102593786D01*
X141813374Y-102620563D01*
X141817964Y-102642126D01*
X141822432Y-102659623D01*
X141827056Y-102674202D01*
X141832113Y-102687011D01*
X141837880Y-102699199D01*
X141849798Y-102719197D01*
X141865849Y-102736483D01*
X141884124Y-102746166D01*
X141905265Y-102748558D01*
X141929911Y-102743970D01*
X141948375Y-102735470D01*
X141967173Y-102718632D01*
X141982366Y-102694720D01*
X141993876Y-102663952D01*
X142001625Y-102626545D01*
X142005536Y-102582720D01*
X142005528Y-102532694D01*
X142005445Y-102530553D01*
X141999089Y-102460612D01*
X141985622Y-102394035D01*
X141964703Y-102329520D01*
X141935993Y-102265764D01*
X141928925Y-102251709D01*
X141922232Y-102237740D01*
X141917959Y-102227992D01*
X141916811Y-102224003D01*
X141916983Y-102223853D01*
X141922911Y-102220206D01*
X141934620Y-102213975D01*
X141950794Y-102205787D01*
X141970119Y-102196267D01*
X141991279Y-102186041D01*
X142012958Y-102175735D01*
X142033841Y-102165974D01*
X142052611Y-102157385D01*
X142067955Y-102150593D01*
X142078555Y-102146224D01*
X142083097Y-102144903D01*
X142083270Y-102144981D01*
G37*
G36*
X142448573Y-97170181D02*
G01*
X142456579Y-97180839D01*
X142466097Y-97195080D01*
X142475897Y-97210983D01*
X142484752Y-97226624D01*
X142491432Y-97240079D01*
X142501273Y-97265180D01*
X142512126Y-97300255D01*
X142520571Y-97336182D01*
X142525580Y-97369071D01*
X142526021Y-97373877D01*
X142527388Y-97421153D01*
X142523849Y-97469168D01*
X142515719Y-97515269D01*
X142503313Y-97556800D01*
X142498807Y-97567958D01*
X142476815Y-97608641D01*
X142447102Y-97646837D01*
X142409818Y-97682396D01*
X142365113Y-97715170D01*
X142313138Y-97745011D01*
X142310242Y-97746406D01*
X142299298Y-97751415D01*
X142281627Y-97759341D01*
X142257773Y-97769945D01*
X142228278Y-97782991D01*
X142193685Y-97798243D01*
X142154538Y-97815463D01*
X142111378Y-97834415D01*
X142064748Y-97854862D01*
X142015193Y-97876567D01*
X141963254Y-97899294D01*
X141909474Y-97922804D01*
X141854397Y-97946863D01*
X141798564Y-97971233D01*
X141742520Y-97995676D01*
X141686806Y-98019957D01*
X141631966Y-98043838D01*
X141578543Y-98067083D01*
X141527079Y-98089454D01*
X141478117Y-98110716D01*
X141432201Y-98130630D01*
X141389872Y-98148961D01*
X141351675Y-98165472D01*
X141318151Y-98179925D01*
X141289844Y-98192084D01*
X141267296Y-98201712D01*
X141251050Y-98208573D01*
X141241650Y-98212428D01*
X141240348Y-98212017D01*
X141239038Y-98208230D01*
X141238104Y-98200065D01*
X141237517Y-98186751D01*
X141237246Y-98167515D01*
X141237261Y-98141587D01*
X141237531Y-98108194D01*
X141238631Y-98001911D01*
X141581503Y-97855415D01*
X141584102Y-97854305D01*
X141634266Y-97832843D01*
X141682186Y-97812293D01*
X141727329Y-97792884D01*
X141769160Y-97774848D01*
X141807147Y-97758418D01*
X141840755Y-97743825D01*
X141869451Y-97731301D01*
X141892701Y-97721078D01*
X141909972Y-97713386D01*
X141920729Y-97708458D01*
X141924440Y-97706526D01*
X141924427Y-97706498D01*
X141920282Y-97704386D01*
X141909114Y-97699310D01*
X141891458Y-97691500D01*
X141867847Y-97681187D01*
X141838813Y-97668601D01*
X141804892Y-97653972D01*
X141766615Y-97637529D01*
X141724516Y-97619503D01*
X141679130Y-97600125D01*
X141630989Y-97579623D01*
X141580627Y-97558229D01*
X141236748Y-97412325D01*
X141236660Y-97298012D01*
X141236658Y-97294307D01*
X141236709Y-97264872D01*
X141236870Y-97238442D01*
X141237126Y-97216063D01*
X141237462Y-97198781D01*
X141237862Y-97187645D01*
X141238312Y-97183700D01*
X141241767Y-97185117D01*
X141252346Y-97189636D01*
X141269594Y-97197065D01*
X141293054Y-97207207D01*
X141322270Y-97219864D01*
X141356786Y-97234837D01*
X141396146Y-97251928D01*
X141439894Y-97270940D01*
X141487574Y-97291674D01*
X141538729Y-97313932D01*
X141592905Y-97337517D01*
X141649644Y-97362229D01*
X141708490Y-97387872D01*
X141740166Y-97401677D01*
X141806185Y-97430440D01*
X141865234Y-97456144D01*
X141917714Y-97478956D01*
X141964028Y-97499042D01*
X142004577Y-97516567D01*
X142039762Y-97531699D01*
X142069984Y-97544602D01*
X142095646Y-97555444D01*
X142117148Y-97564390D01*
X142134893Y-97571607D01*
X142149281Y-97577261D01*
X142160714Y-97581517D01*
X142169594Y-97584542D01*
X142176322Y-97586503D01*
X142181300Y-97587564D01*
X142184929Y-97587893D01*
X142187610Y-97587655D01*
X142189745Y-97587017D01*
X142215097Y-97576150D01*
X142249721Y-97557933D01*
X142279821Y-97537906D01*
X142304484Y-97516785D01*
X142322800Y-97495283D01*
X142333856Y-97474115D01*
X142340583Y-97447677D01*
X142343795Y-97411366D01*
X142340827Y-97375044D01*
X142339215Y-97367127D01*
X142331670Y-97341605D01*
X142320949Y-97314893D01*
X142308409Y-97290118D01*
X142295407Y-97270407D01*
X142291278Y-97264995D01*
X142285261Y-97256123D01*
X142282901Y-97251077D01*
X142283166Y-97250558D01*
X142288406Y-97246518D01*
X142299381Y-97239669D01*
X142314800Y-97230699D01*
X142333377Y-97220296D01*
X142353823Y-97209150D01*
X142374850Y-97197947D01*
X142395169Y-97187378D01*
X142413492Y-97178129D01*
X142428530Y-97170891D01*
X142438996Y-97166351D01*
X142443601Y-97165198D01*
X142448573Y-97170181D01*
G37*
G36*
X141744886Y-106343173D02*
G01*
X141807610Y-106351296D01*
X141812474Y-106352245D01*
X141870867Y-106367988D01*
X141925510Y-106390807D01*
X141976037Y-106420281D01*
X142022079Y-106455993D01*
X142063265Y-106497525D01*
X142099228Y-106544457D01*
X142129600Y-106596372D01*
X142154010Y-106652851D01*
X142172090Y-106713474D01*
X142183473Y-106777825D01*
X142185018Y-106795068D01*
X142186198Y-106825036D01*
X142186203Y-106858786D01*
X142185118Y-106893922D01*
X142183029Y-106928046D01*
X142180020Y-106958760D01*
X142176177Y-106983668D01*
X142169191Y-107014516D01*
X142151516Y-107070413D01*
X142128236Y-107120943D01*
X142098966Y-107166875D01*
X142063320Y-107208981D01*
X142034765Y-107238625D01*
X141977155Y-107188385D01*
X141959885Y-107173350D01*
X141942078Y-107157907D01*
X141926822Y-107144738D01*
X141915334Y-107134892D01*
X141908830Y-107129419D01*
X141898114Y-107120694D01*
X141921387Y-107094976D01*
X141931799Y-107082571D01*
X141953869Y-107049907D01*
X141972602Y-107013202D01*
X141986442Y-106975316D01*
X141987178Y-106972673D01*
X141992006Y-106948834D01*
X141995552Y-106919651D01*
X141997700Y-106887607D01*
X141998335Y-106855185D01*
X141997342Y-106824866D01*
X141994606Y-106799134D01*
X141987641Y-106766359D01*
X141972337Y-106721897D01*
X141951319Y-106681496D01*
X141925146Y-106646007D01*
X141894377Y-106616281D01*
X141859570Y-106593172D01*
X141858285Y-106592493D01*
X141841377Y-106584275D01*
X141823083Y-106576433D01*
X141805589Y-106569799D01*
X141791080Y-106565208D01*
X141781742Y-106563492D01*
X141781478Y-106563565D01*
X141780531Y-106565333D01*
X141779700Y-106569810D01*
X141778978Y-106577458D01*
X141778358Y-106588737D01*
X141777832Y-106604108D01*
X141777395Y-106624032D01*
X141777038Y-106648969D01*
X141776755Y-106679380D01*
X141776540Y-106715726D01*
X141776384Y-106758468D01*
X141776282Y-106808066D01*
X141776225Y-106864982D01*
X141776208Y-106929675D01*
X141776204Y-106970550D01*
X141776178Y-107029303D01*
X141776119Y-107080628D01*
X141776020Y-107125022D01*
X141775870Y-107162984D01*
X141775662Y-107195011D01*
X141775386Y-107221601D01*
X141775034Y-107243253D01*
X141774596Y-107260464D01*
X141774065Y-107273732D01*
X141773431Y-107283556D01*
X141772686Y-107290432D01*
X141771820Y-107294859D01*
X141770825Y-107297335D01*
X141769692Y-107298358D01*
X141764385Y-107299500D01*
X141750950Y-107300548D01*
X141732251Y-107300928D01*
X141710026Y-107300687D01*
X141686013Y-107299869D01*
X141661949Y-107298522D01*
X141639573Y-107296690D01*
X141620622Y-107294420D01*
X141565537Y-107283144D01*
X141507403Y-107263839D01*
X141453540Y-107237840D01*
X141404348Y-107205498D01*
X141360228Y-107167166D01*
X141321579Y-107123199D01*
X141288803Y-107073949D01*
X141262300Y-107019769D01*
X141242469Y-106961011D01*
X141238729Y-106944706D01*
X141233734Y-106912603D01*
X141230305Y-106876154D01*
X141228568Y-106838574D01*
X141404535Y-106838574D01*
X141406507Y-106870259D01*
X141411125Y-106897161D01*
X141416468Y-106915244D01*
X141434136Y-106955847D01*
X141458332Y-106993447D01*
X141487981Y-107026529D01*
X141522010Y-107053579D01*
X141529391Y-107058068D01*
X141547871Y-107067472D01*
X141568754Y-107076332D01*
X141589652Y-107083761D01*
X141608178Y-107088870D01*
X141621945Y-107090771D01*
X141632030Y-107090771D01*
X141632030Y-106827375D01*
X141632026Y-106814174D01*
X141631953Y-106768993D01*
X141631794Y-106726482D01*
X141631556Y-106687335D01*
X141631249Y-106652250D01*
X141630879Y-106621922D01*
X141630455Y-106597048D01*
X141629985Y-106578324D01*
X141629478Y-106566447D01*
X141628941Y-106562112D01*
X141628591Y-106561985D01*
X141622327Y-106562346D01*
X141610675Y-106564445D01*
X141595844Y-106567897D01*
X141592722Y-106568714D01*
X141550430Y-106584115D01*
X141512132Y-106606208D01*
X141478553Y-106634278D01*
X141450419Y-106667613D01*
X141428457Y-106705499D01*
X141413393Y-106747221D01*
X141408341Y-106772871D01*
X141405161Y-106805110D01*
X141404535Y-106838574D01*
X141228568Y-106838574D01*
X141228528Y-106837709D01*
X141228491Y-106799616D01*
X141230283Y-106764226D01*
X141233991Y-106733887D01*
X141237444Y-106715841D01*
X141253949Y-106655348D01*
X141277196Y-106598675D01*
X141306847Y-106546359D01*
X141342564Y-106498938D01*
X141384009Y-106456951D01*
X141430844Y-106420934D01*
X141450674Y-106408528D01*
X141503665Y-106381932D01*
X141560561Y-106361917D01*
X141620382Y-106348665D01*
X141628591Y-106347827D01*
X141682151Y-106342357D01*
X141744886Y-106343173D01*
G37*
G36*
X141922241Y-99480906D02*
G01*
X141949601Y-99482803D01*
X141973682Y-99487223D01*
X141997325Y-99494747D01*
X142023370Y-99505954D01*
X142024282Y-99506384D01*
X142040669Y-99515003D01*
X142055492Y-99525015D01*
X142070979Y-99538106D01*
X142089356Y-99555966D01*
X142090658Y-99557291D01*
X142123729Y-99596715D01*
X142149527Y-99639965D01*
X142168112Y-99687164D01*
X142179545Y-99738434D01*
X142179638Y-99739065D01*
X142182098Y-99755448D01*
X142184311Y-99769735D01*
X142185807Y-99778899D01*
X142186702Y-99789065D01*
X142186961Y-99806314D01*
X142186554Y-99827984D01*
X142185581Y-99852094D01*
X142184141Y-99876667D01*
X142182334Y-99899724D01*
X142180259Y-99919287D01*
X142178017Y-99933376D01*
X142175972Y-99942429D01*
X142161218Y-99990721D01*
X142141210Y-100034165D01*
X142116367Y-100071974D01*
X142087111Y-100103364D01*
X142062919Y-100124926D01*
X142119353Y-100124926D01*
X142175786Y-100124926D01*
X142175786Y-100228120D01*
X142175786Y-100331313D01*
X141855506Y-100329942D01*
X141535225Y-100328570D01*
X141494032Y-100317453D01*
X141492432Y-100317018D01*
X141440153Y-100299042D01*
X141393670Y-100275290D01*
X141352936Y-100245707D01*
X141317908Y-100210240D01*
X141288539Y-100168835D01*
X141264784Y-100121437D01*
X141246598Y-100067994D01*
X141233935Y-100008451D01*
X141232445Y-99997573D01*
X141229885Y-99966937D01*
X141228649Y-99931245D01*
X141228682Y-99892651D01*
X141229930Y-99853310D01*
X141232338Y-99815376D01*
X141235852Y-99781005D01*
X141240417Y-99752349D01*
X141243726Y-99737073D01*
X141252053Y-99704163D01*
X141261993Y-99670268D01*
X141272812Y-99637668D01*
X141283776Y-99608641D01*
X141294153Y-99585467D01*
X141296797Y-99580332D01*
X141305847Y-99563868D01*
X141315713Y-99547189D01*
X141325436Y-99531780D01*
X141334058Y-99519127D01*
X141340618Y-99510717D01*
X141344157Y-99508034D01*
X141349495Y-99510511D01*
X141360933Y-99516371D01*
X141376572Y-99524678D01*
X141395139Y-99534726D01*
X141415360Y-99545811D01*
X141435965Y-99557226D01*
X141455678Y-99568265D01*
X141473228Y-99578223D01*
X141487343Y-99586393D01*
X141496748Y-99592070D01*
X141500171Y-99594548D01*
X141498828Y-99597781D01*
X141493783Y-99606156D01*
X141486270Y-99617205D01*
X141477484Y-99630413D01*
X141458269Y-99665678D01*
X141441232Y-99705794D01*
X141427296Y-99748431D01*
X141417384Y-99791258D01*
X141417202Y-99792299D01*
X141415116Y-99809000D01*
X141413434Y-99830978D01*
X141412323Y-99855498D01*
X141411952Y-99879824D01*
X141412146Y-99900367D01*
X141412963Y-99921849D01*
X141414645Y-99939294D01*
X141417445Y-99955078D01*
X141421612Y-99971582D01*
X141424395Y-99980871D01*
X141440046Y-100018073D01*
X141461115Y-100049087D01*
X141487474Y-100073811D01*
X141518996Y-100092145D01*
X141555552Y-100103989D01*
X141597016Y-100109243D01*
X141625851Y-100110508D01*
X141628170Y-99945558D01*
X141772629Y-99945558D01*
X141772892Y-99997226D01*
X141774148Y-100110508D01*
X141826546Y-100111660D01*
X141847863Y-100112051D01*
X141863593Y-100111940D01*
X141875004Y-100111024D01*
X141884083Y-100109016D01*
X141892815Y-100105628D01*
X141903187Y-100100574D01*
X141914762Y-100094224D01*
X141946743Y-100070532D01*
X141974100Y-100040379D01*
X141996409Y-100004298D01*
X142013242Y-99962823D01*
X142014486Y-99958736D01*
X142021733Y-99925233D01*
X142025485Y-99888165D01*
X142025537Y-99851053D01*
X142021685Y-99817418D01*
X142014709Y-99791614D01*
X142003184Y-99764603D01*
X141988768Y-99740993D01*
X141972716Y-99723199D01*
X141951466Y-99708940D01*
X141924450Y-99699177D01*
X141896014Y-99696362D01*
X141867668Y-99700440D01*
X141840926Y-99711352D01*
X141817299Y-99729043D01*
X141809499Y-99737375D01*
X141799936Y-99750487D01*
X141792038Y-99765780D01*
X141785681Y-99784009D01*
X141780739Y-99805925D01*
X141777087Y-99832285D01*
X141774602Y-99863841D01*
X141773157Y-99901347D01*
X141772629Y-99945558D01*
X141628170Y-99945558D01*
X141628312Y-99935435D01*
X141628432Y-99926941D01*
X141629059Y-99885043D01*
X141629670Y-99850295D01*
X141630315Y-99821776D01*
X141631043Y-99798566D01*
X141631903Y-99779744D01*
X141632945Y-99764390D01*
X141634219Y-99751582D01*
X141635773Y-99740401D01*
X141637657Y-99729927D01*
X141639921Y-99719237D01*
X141646262Y-99693659D01*
X141663311Y-99643394D01*
X141684987Y-99599893D01*
X141711349Y-99563084D01*
X141742455Y-99532890D01*
X141778366Y-99509238D01*
X141819138Y-99492054D01*
X141823298Y-99490731D01*
X141840495Y-99485978D01*
X141856994Y-99483011D01*
X141875767Y-99481413D01*
X141896014Y-99480870D01*
X141899789Y-99480769D01*
X141922241Y-99480906D01*
G37*
G36*
X141936436Y-104280557D02*
G01*
X141960902Y-104283096D01*
X141979901Y-104287042D01*
X141998166Y-104293204D01*
X142039455Y-104312889D01*
X142076050Y-104339284D01*
X142108385Y-104372678D01*
X142112272Y-104377546D01*
X142135465Y-104412529D01*
X142155132Y-104452523D01*
X142170187Y-104495015D01*
X142179545Y-104537493D01*
X142179638Y-104538125D01*
X142182097Y-104554507D01*
X142184306Y-104568795D01*
X142185798Y-104577959D01*
X142186562Y-104584924D01*
X142187077Y-104601384D01*
X142186831Y-104622740D01*
X142185929Y-104646977D01*
X142184475Y-104672081D01*
X142182572Y-104696035D01*
X142180324Y-104716825D01*
X142177835Y-104732435D01*
X142173286Y-104751683D01*
X142158608Y-104795867D01*
X142139147Y-104836403D01*
X142115638Y-104871899D01*
X142088818Y-104900962D01*
X142068071Y-104919615D01*
X142120899Y-104920771D01*
X142173727Y-104921926D01*
X142174827Y-105025940D01*
X142175928Y-105129954D01*
X141880185Y-105129954D01*
X141825666Y-105129899D01*
X141771376Y-105129724D01*
X141721700Y-105129435D01*
X141677156Y-105129039D01*
X141638261Y-105128543D01*
X141605534Y-105127953D01*
X141579492Y-105127275D01*
X141560653Y-105126518D01*
X141549535Y-105125686D01*
X141514439Y-105120133D01*
X141461153Y-105106053D01*
X141413280Y-105085785D01*
X141370787Y-105059297D01*
X141333643Y-105026560D01*
X141301816Y-104987545D01*
X141275273Y-104942219D01*
X141253982Y-104890554D01*
X141237911Y-104832519D01*
X141236498Y-104825707D01*
X141234325Y-104812609D01*
X141232721Y-104797988D01*
X141231611Y-104780501D01*
X141230923Y-104758806D01*
X141230584Y-104731560D01*
X141230518Y-104697420D01*
X141230581Y-104672163D01*
X141230806Y-104645050D01*
X141231299Y-104623470D01*
X141232171Y-104605885D01*
X141233536Y-104590759D01*
X141235506Y-104576555D01*
X141238193Y-104561736D01*
X141241711Y-104544763D01*
X141259091Y-104476964D01*
X141281414Y-104414283D01*
X141308370Y-104358271D01*
X141340001Y-104308826D01*
X141340017Y-104308809D01*
X141344121Y-104310043D01*
X141354162Y-104314505D01*
X141368855Y-104321533D01*
X141386917Y-104330468D01*
X141407064Y-104340649D01*
X141428011Y-104351417D01*
X141448474Y-104362112D01*
X141467169Y-104372074D01*
X141482812Y-104380643D01*
X141494119Y-104387158D01*
X141499805Y-104390960D01*
X141498734Y-104394520D01*
X141494049Y-104403058D01*
X141486764Y-104414597D01*
X141483191Y-104420077D01*
X141455838Y-104469942D01*
X141434484Y-104524097D01*
X141419573Y-104580893D01*
X141411550Y-104638680D01*
X141410861Y-104695807D01*
X141412963Y-104721530D01*
X141420095Y-104763460D01*
X141431702Y-104799351D01*
X141448049Y-104829930D01*
X141469405Y-104855926D01*
X141470264Y-104856780D01*
X141496532Y-104878353D01*
X141525949Y-104893785D01*
X141559726Y-104903566D01*
X141599075Y-104908184D01*
X141625851Y-104909568D01*
X141628218Y-104741161D01*
X141772784Y-104741161D01*
X141772984Y-104794225D01*
X141774148Y-104909568D01*
X141825487Y-104910731D01*
X141846825Y-104911137D01*
X141862249Y-104911009D01*
X141873575Y-104910019D01*
X141882882Y-104907848D01*
X141892249Y-104904176D01*
X141903755Y-104898683D01*
X141931382Y-104881695D01*
X141959746Y-104855980D01*
X141984089Y-104824521D01*
X142003551Y-104788453D01*
X142017271Y-104748912D01*
X142020156Y-104735621D01*
X142024004Y-104706229D01*
X142025621Y-104674288D01*
X142024893Y-104643256D01*
X142021703Y-104616590D01*
X142013098Y-104584084D01*
X141998531Y-104553022D01*
X141978682Y-104527969D01*
X141953341Y-104508592D01*
X141949310Y-104506275D01*
X141939699Y-104501728D01*
X141929624Y-104499112D01*
X141916497Y-104497916D01*
X141897729Y-104497631D01*
X141889340Y-104497668D01*
X141873178Y-104498253D01*
X141861584Y-104499957D01*
X141851946Y-104503300D01*
X141841653Y-104508802D01*
X141830375Y-104516005D01*
X141816649Y-104527094D01*
X141805153Y-104540010D01*
X141795717Y-104555463D01*
X141788169Y-104574162D01*
X141782338Y-104596815D01*
X141778055Y-104624133D01*
X141775149Y-104656824D01*
X141773449Y-104695597D01*
X141772784Y-104741161D01*
X141628218Y-104741161D01*
X141628312Y-104734495D01*
X141628432Y-104725987D01*
X141629059Y-104684091D01*
X141629670Y-104649344D01*
X141630315Y-104620825D01*
X141631043Y-104597613D01*
X141631904Y-104578788D01*
X141632946Y-104563428D01*
X141634220Y-104550614D01*
X141635775Y-104539422D01*
X141637660Y-104528934D01*
X141639925Y-104518228D01*
X141652199Y-104472832D01*
X141671221Y-104424792D01*
X141695003Y-104383466D01*
X141723560Y-104348837D01*
X141756903Y-104320891D01*
X141795045Y-104299613D01*
X141837999Y-104284988D01*
X141856809Y-104281761D01*
X141881732Y-104279851D01*
X141897729Y-104279625D01*
X141909160Y-104279463D01*
X141936436Y-104280557D01*
G37*
D12*
%TO.C,JP2*%
X148950000Y-96300000D02*
X148950000Y-98300000D01*
X148950000Y-98300000D02*
X151750000Y-98300000D01*
X151750000Y-96300000D02*
X148950000Y-96300000D01*
X151750000Y-98300000D02*
X151750000Y-96300000D01*
%TO.C,JP1*%
X148950000Y-99000000D02*
X148950000Y-101000000D01*
X148950000Y-101000000D02*
X151750000Y-101000000D01*
X151750000Y-99000000D02*
X148950000Y-99000000D01*
X151750000Y-101000000D02*
X151750000Y-99000000D01*
%TD*%
%LPC*%
D13*
X138550000Y-113950000D02*
X158450000Y-113950000D01*
X158450000Y-114500000D01*
X138550000Y-114500000D01*
X138550000Y-113950000D01*
G36*
X138550000Y-113950000D02*
G01*
X158450000Y-113950000D01*
X158450000Y-114500000D01*
X138550000Y-114500000D01*
X138550000Y-113950000D01*
G37*
D11*
%TO.C,J1*%
G36*
X150777686Y-92669501D02*
G01*
X150856638Y-92964152D01*
X150985556Y-93240617D01*
X151160522Y-93490495D01*
X151376222Y-93706195D01*
X151626100Y-93881161D01*
X151902565Y-94010079D01*
X152197216Y-94089031D01*
X152501100Y-94115617D01*
X152804984Y-94089031D01*
X153099635Y-94010079D01*
X153376100Y-93881161D01*
X153625978Y-93706195D01*
X153841678Y-93490495D01*
X154016644Y-93240617D01*
X154145562Y-92964152D01*
X154224514Y-92669501D01*
X154251100Y-92365617D01*
X155251100Y-92365617D01*
X155157396Y-93077369D01*
X155041769Y-93417996D01*
X154882670Y-93740617D01*
X154682822Y-94039711D01*
X154445644Y-94310161D01*
X154175194Y-94547339D01*
X153876100Y-94747187D01*
X153553479Y-94906286D01*
X153212852Y-95021913D01*
X152860047Y-95092090D01*
X152501100Y-95115617D01*
X152142153Y-95092090D01*
X151789348Y-95021913D01*
X151448721Y-94906286D01*
X151126100Y-94747187D01*
X150827006Y-94547339D01*
X150556556Y-94310161D01*
X150319378Y-94039711D01*
X150119530Y-93740617D01*
X149960431Y-93417996D01*
X149844804Y-93077369D01*
X149774627Y-92724564D01*
X149751100Y-92365617D01*
X150751100Y-92365617D01*
X150777686Y-92669501D01*
G37*
%TO.C,JP2*%
G36*
X150200000Y-98050000D02*
G01*
X150500000Y-98050000D01*
X150500000Y-96550000D01*
X150200000Y-96550000D01*
X150200000Y-98050000D01*
G37*
%TO.C,JP1*%
G36*
X150200000Y-100750000D02*
G01*
X150500000Y-100750000D01*
X150500000Y-99250000D01*
X150200000Y-99250000D01*
X150200000Y-100750000D01*
G37*
%TD*%
D14*
%TO.C,J1*%
X157501100Y-112840617D03*
X157001100Y-112840617D03*
X156501100Y-112840617D03*
X156001100Y-112840617D03*
X155501100Y-112840617D03*
X155001100Y-112840617D03*
X154501100Y-112840617D03*
X154001100Y-112840617D03*
X153501100Y-112840617D03*
X153001100Y-112840617D03*
X152501100Y-112840617D03*
X150001100Y-112840617D03*
X149501100Y-112840617D03*
X149001100Y-112840617D03*
X148501100Y-112840617D03*
X148001100Y-112840617D03*
X147501100Y-112840617D03*
X147001100Y-112840617D03*
X146501100Y-112840617D03*
X146001100Y-112840617D03*
X145501100Y-112840617D03*
X145001100Y-112840617D03*
X144501100Y-112840617D03*
X144001100Y-112840617D03*
X143501100Y-112840617D03*
X143001100Y-112840617D03*
X142501100Y-112840617D03*
X142001100Y-112840617D03*
X141501100Y-112840617D03*
X141001100Y-112840617D03*
X140501100Y-112840617D03*
X140001100Y-112840617D03*
X139501100Y-112840617D03*
D15*
X150401100Y-93365617D03*
X152501100Y-94665617D03*
X154601100Y-93365617D03*
%TD*%
D16*
%TO.C,JP2*%
X149700000Y-97300000D03*
X151000000Y-97300000D03*
%TD*%
%TO.C,JP1*%
X149700000Y-100000000D03*
X151000000Y-100000000D03*
%TD*%
%LPD*%
M02*
