%TF.GenerationSoftware,KiCad,Pcbnew,9.0.0*%
%TF.CreationDate,2025-05-22T16:16:50+04:00*%
%TF.ProjectId,02_02_sensor_barometer (DPS310XTSA1),30325f30-325f-4736-956e-736f725f6261,rev?*%
%TF.SameCoordinates,Original*%
%TF.FileFunction,Copper,L2,Bot*%
%TF.FilePolarity,Positive*%
%FSLAX46Y46*%
G04 Gerber Fmt 4.6, Leading zero omitted, Abs format (unit mm)*
G04 Created by KiCad (PCBNEW 9.0.0) date 2025-05-22 16:16:50*
%MOMM*%
%LPD*%
G01*
G04 APERTURE LIST*
%TA.AperFunction,SMDPad,CuDef*%
%ADD10R,0.350000X1.950000*%
%TD*%
%TA.AperFunction,ComponentPad*%
%ADD11C,0.454000*%
%TD*%
%TA.AperFunction,ViaPad*%
%ADD12C,0.500000*%
%TD*%
%TA.AperFunction,ViaPad*%
%ADD13C,0.700000*%
%TD*%
%TA.AperFunction,Conductor*%
%ADD14C,0.500000*%
%TD*%
%TA.AperFunction,Conductor*%
%ADD15C,0.250000*%
%TD*%
G04 APERTURE END LIST*
D10*
%TO.P,J1,2,3.3V*%
%TO.N,+3V3*%
X157501100Y-112840617D03*
%TO.P,J1,4,3.3V_EN*%
%TO.N,/3.3V_EN*%
X157001100Y-112840617D03*
%TO.P,J1,6,~{RESET}*%
%TO.N,+5V*%
X156501100Y-112840617D03*
%TO.P,J1,8,G11*%
%TO.N,/G11-SWO*%
X156001100Y-112840617D03*
%TO.P,J1,10,D0*%
%TO.N,/D0*%
X155501100Y-112840617D03*
%TO.P,J1,12,I2C_SDA*%
%TO.N,DPS310XTSA1_SDA*%
X155001100Y-112840617D03*
%TO.P,J1,14,I2C_SCL*%
%TO.N,DPS310XTSA1_SCL*%
X154501100Y-112840617D03*
%TO.P,J1,16,I2C_~{INT}*%
%TO.N,/I2C_~{INT}*%
X154001100Y-112840617D03*
%TO.P,J1,18,D1/CAM_TRIG*%
%TO.N,/D1-CAM_TRIG*%
X153501100Y-112840617D03*
%TO.P,J1,20,RX2*%
%TO.N,/UART_RX2*%
X153001100Y-112840617D03*
%TO.P,J1,22,TX2*%
%TO.N,/UART_TX2*%
X152501100Y-112840617D03*
%TO.P,J1,32,PWM0*%
%TO.N,/PWM0*%
X150001100Y-112840617D03*
%TO.P,J1,34,A0*%
%TO.N,/A0*%
X149501100Y-112840617D03*
%TO.P,J1,36,GND*%
%TO.N,GND*%
X149001100Y-112840617D03*
%TO.P,J1,38,A1*%
%TO.N,/A1*%
X148501100Y-112840617D03*
%TO.P,J1,40,G0/BUS0*%
%TO.N,/G0*%
X148001100Y-112840617D03*
%TO.P,J1,42,G1/BUS1*%
%TO.N,DPS310XTSA1_pwr_cyc*%
X147501100Y-112840617D03*
%TO.P,J1,44,G2/BUS2*%
%TO.N,/G2*%
X147001100Y-112840617D03*
%TO.P,J1,46,G3/BUS3*%
%TO.N,/G3*%
X146501100Y-112840617D03*
%TO.P,J1,48,G4/BUS4*%
%TO.N,/G4*%
X146001100Y-112840617D03*
%TO.P,J1,50,AUD_BCLK*%
%TO.N,/AUD_BCLK*%
X145501100Y-112840617D03*
%TO.P,J1,52,AUD_LRCLK*%
%TO.N,/AUD_LRCLK*%
X145001100Y-112840617D03*
%TO.P,J1,54,AUD_IN/CAM_PCLK*%
%TO.N,/AUD_IN-CAM_PCLK*%
X144501100Y-112840617D03*
%TO.P,J1,56,AUD_OUT/CAM_MCLK*%
%TO.N,/AUD_OUT-CAM_MCLK*%
X144001100Y-112840617D03*
%TO.P,J1,58,AUD_MCLK*%
%TO.N,/AUD_MCLK*%
X143501100Y-112840617D03*
%TO.P,J1,60,SPI_SCK1/SDIO_CLK*%
%TO.N,DPS310XTSA1_MOSI*%
X143001100Y-112840617D03*
%TO.P,J1,62,SPI_SDO1/SDIO_CMD*%
%TO.N,DPS310XTSA1_MISO*%
X142501100Y-112840617D03*
%TO.P,J1,64,SPI_SDI1/SDIO_DATA0*%
%TO.N,DPS310XTSA1_SCK*%
X142001100Y-112840617D03*
%TO.P,J1,66,SDIO_DATA1*%
%TO.N,DPS310XTSA1_CS*%
X141501100Y-112840617D03*
%TO.P,J1,68,SDIO_DATA2*%
%TO.N,/SDIO_DATA2*%
X141001100Y-112840617D03*
%TO.P,J1,70,SPI_~{CS1}/SDIO_DATA3*%
%TO.N,/SDIO_DATA3-~{SPI_CS1}*%
X140501100Y-112840617D03*
%TO.P,J1,72,RTC_3V*%
%TO.N,/RTC_3V_BATT*%
X140001100Y-112840617D03*
%TO.P,J1,74,3.3V*%
%TO.N,+3V3*%
X139501100Y-112840617D03*
D11*
%TO.P,J1,GND*%
%TO.N,N/C*%
X150401100Y-93365617D03*
X152501100Y-94665617D03*
X154601100Y-93365617D03*
%TD*%
D12*
%TO.N,+3V3*%
X142750000Y-101800000D03*
X146150000Y-104000000D03*
D13*
%TO.N,GND*%
X150500000Y-109300000D03*
X147500000Y-110300000D03*
X153100000Y-99900000D03*
X153100000Y-100900000D03*
X154100000Y-98900000D03*
X146500000Y-109300000D03*
X151500000Y-96500000D03*
X147500000Y-108300000D03*
X152100000Y-100900000D03*
X149500000Y-98500000D03*
X149500000Y-97500000D03*
X144500000Y-109300000D03*
X148500000Y-109300000D03*
X149500000Y-96500000D03*
X154100000Y-100900000D03*
X145500000Y-110300000D03*
X149500000Y-110300000D03*
X150500000Y-97500000D03*
X150500000Y-96500000D03*
X145500000Y-108300000D03*
X149500000Y-108300000D03*
X154100000Y-99900000D03*
D12*
%TO.N,DPS310XTSA1_CS*%
X140850000Y-107300000D03*
%TO.N,DPS310XTSA1_MISO*%
X139150000Y-99950000D03*
X142510542Y-107925000D03*
X142150000Y-99950000D03*
%TO.N,DPS310XTSA1_MOSI*%
X142885412Y-106300000D03*
%TO.N,DPS310XTSA1_SCK*%
X141900000Y-106300000D03*
%TD*%
D14*
%TO.N,+3V3*%
X146150000Y-103550000D02*
X146150000Y-104000000D01*
X145500000Y-102450000D02*
X145831801Y-102781801D01*
X142750000Y-101800000D02*
X143930761Y-101800000D01*
X145500000Y-102450000D02*
G75*
G03*
X143930761Y-101800016I-1569200J-1569200D01*
G01*
X146150000Y-103550000D02*
G75*
G03*
X145831802Y-102781800I-1086400J0D01*
G01*
D15*
%TO.N,DPS310XTSA1_CS*%
X141501100Y-109146852D02*
X141501100Y-112840617D01*
X140800000Y-107725000D02*
X140800000Y-107500000D01*
X140959099Y-108109099D02*
X141150550Y-108300550D01*
X140800000Y-107725000D02*
G75*
G03*
X140959099Y-108109099I543200J0D01*
G01*
X141501100Y-109146852D02*
G75*
G03*
X141150515Y-108300585I-1196800J-48D01*
G01*
%TO.N,DPS310XTSA1_MISO*%
X142501100Y-107941118D02*
X142501100Y-112840617D01*
X139150000Y-99950000D02*
X142150000Y-99950000D01*
X142505821Y-107929721D02*
X142510542Y-107925000D01*
X142505821Y-107929721D02*
G75*
G03*
X142501108Y-107941118I11379J-11379D01*
G01*
%TO.N,DPS310XTSA1_MOSI*%
X143100000Y-106470710D02*
X143100000Y-108280067D01*
X143001100Y-108518832D02*
X143001100Y-112840617D01*
X143050000Y-106350000D02*
X143000000Y-106300000D01*
X143001100Y-108518832D02*
G75*
G02*
X143050540Y-108399440I168800J32D01*
G01*
X143100000Y-106470710D02*
G75*
G03*
X143050003Y-106349997I-170700J10D01*
G01*
X143100000Y-108280067D02*
G75*
G02*
X143050560Y-108399460I-168800J-33D01*
G01*
%TO.N,DPS310XTSA1_SCK*%
X142001100Y-109201877D02*
X142001100Y-112840617D01*
X141850000Y-106556843D02*
X141850000Y-108243933D01*
X142000000Y-109199222D02*
X142000000Y-108606066D01*
X142000550Y-106299450D02*
X142000000Y-106300000D01*
X141925550Y-106374450D02*
X142000550Y-106299450D01*
X141850000Y-106556843D02*
G75*
G02*
X141925537Y-106374437I257900J43D01*
G01*
X142000550Y-109200550D02*
G75*
G02*
X142001109Y-109201877I-1350J-1350D01*
G01*
X142000000Y-108606066D02*
G75*
G03*
X141924990Y-108425010I-256100J-34D01*
G01*
X141925000Y-108425000D02*
G75*
G02*
X141849986Y-108243933I181100J181100D01*
G01*
X142000000Y-109199222D02*
G75*
G03*
X142000556Y-109200544I1900J22D01*
G01*
X142000550Y-106299450D02*
X142000550Y-106299450D01*
%TD*%
%TA.AperFunction,Conductor*%
%TO.N,GND*%
G36*
X150648938Y-92435802D02*
G01*
X150694693Y-92488606D01*
X150704637Y-92522470D01*
X150737251Y-92749313D01*
X150737254Y-92749323D01*
X150761978Y-92833525D01*
X150761978Y-92903395D01*
X150724204Y-92962173D01*
X150660648Y-92991198D01*
X150591490Y-92981254D01*
X150581002Y-92975848D01*
X150566111Y-92967250D01*
X150493623Y-92947828D01*
X150457381Y-92938117D01*
X150344819Y-92938117D01*
X150236089Y-92967250D01*
X150138609Y-93023532D01*
X150138606Y-93023534D01*
X150059017Y-93103123D01*
X150059015Y-93103126D01*
X150002733Y-93200606D01*
X149973600Y-93309336D01*
X149973600Y-93421897D01*
X150002733Y-93530627D01*
X150030874Y-93579367D01*
X150059015Y-93628108D01*
X150138609Y-93707702D01*
X150236091Y-93763984D01*
X150344819Y-93793117D01*
X150344821Y-93793117D01*
X150457379Y-93793117D01*
X150457381Y-93793117D01*
X150566109Y-93763984D01*
X150663591Y-93707702D01*
X150743185Y-93628108D01*
X150799467Y-93530626D01*
X150818161Y-93460855D01*
X150854524Y-93401197D01*
X150917370Y-93370667D01*
X150986746Y-93378961D01*
X151040624Y-93423446D01*
X151042249Y-93425909D01*
X151056040Y-93447368D01*
X151056043Y-93447372D01*
X151224701Y-93642015D01*
X151419344Y-93810673D01*
X151419350Y-93810677D01*
X151635996Y-93949907D01*
X151636019Y-93949920D01*
X151870277Y-94056902D01*
X151870281Y-94056903D01*
X151870283Y-94056904D01*
X152117399Y-94129464D01*
X152147843Y-94133841D01*
X152211399Y-94162864D01*
X152249175Y-94221641D01*
X152249177Y-94291511D01*
X152217881Y-94344260D01*
X152159014Y-94403126D01*
X152102733Y-94500606D01*
X152073600Y-94609336D01*
X152073600Y-94721897D01*
X152102733Y-94830627D01*
X152130874Y-94879367D01*
X152159015Y-94928108D01*
X152238609Y-95007702D01*
X152336091Y-95063984D01*
X152444819Y-95093117D01*
X152444821Y-95093117D01*
X152557379Y-95093117D01*
X152557381Y-95093117D01*
X152666109Y-95063984D01*
X152763591Y-95007702D01*
X152843185Y-94928108D01*
X152899467Y-94830626D01*
X152928600Y-94721898D01*
X152928600Y-94609336D01*
X152899467Y-94500608D01*
X152843185Y-94403126D01*
X152784319Y-94344260D01*
X152750834Y-94282937D01*
X152755818Y-94213245D01*
X152797690Y-94157312D01*
X152854356Y-94133841D01*
X152863862Y-94132474D01*
X152884790Y-94129466D01*
X152884793Y-94129465D01*
X152884801Y-94129464D01*
X153131917Y-94056904D01*
X153131920Y-94056902D01*
X153131922Y-94056902D01*
X153366180Y-93949920D01*
X153366184Y-93949917D01*
X153366192Y-93949914D01*
X153582856Y-93810673D01*
X153777498Y-93642015D01*
X153946156Y-93447373D01*
X153959948Y-93425911D01*
X154012751Y-93380156D01*
X154081910Y-93370212D01*
X154145466Y-93399236D01*
X154183241Y-93458014D01*
X154184035Y-93460843D01*
X154202733Y-93530626D01*
X154259015Y-93628108D01*
X154338609Y-93707702D01*
X154436091Y-93763984D01*
X154544819Y-93793117D01*
X154544821Y-93793117D01*
X154657379Y-93793117D01*
X154657381Y-93793117D01*
X154766109Y-93763984D01*
X154863591Y-93707702D01*
X154943185Y-93628108D01*
X154999467Y-93530626D01*
X155028600Y-93421898D01*
X155028600Y-93309336D01*
X154999467Y-93200608D01*
X154943185Y-93103126D01*
X154863591Y-93023532D01*
X154807588Y-92991198D01*
X154766110Y-92967250D01*
X154711745Y-92952683D01*
X154657381Y-92938117D01*
X154544819Y-92938117D01*
X154436087Y-92967251D01*
X154421195Y-92975849D01*
X154353294Y-92992319D01*
X154287268Y-92969465D01*
X154244079Y-92914543D01*
X154237440Y-92844989D01*
X154240217Y-92833540D01*
X154264947Y-92749318D01*
X154280737Y-92639501D01*
X154297563Y-92522470D01*
X154326588Y-92458914D01*
X154385366Y-92421140D01*
X154420301Y-92416117D01*
X158493234Y-92416117D01*
X158506716Y-92416852D01*
X158537216Y-92420187D01*
X158653104Y-92432863D01*
X158673654Y-92436890D01*
X158811775Y-92476317D01*
X158831349Y-92483743D01*
X158960838Y-92545843D01*
X158960865Y-92545856D01*
X158978917Y-92556475D01*
X159067068Y-92618914D01*
X159096114Y-92639488D01*
X159096133Y-92639501D01*
X159112142Y-92653009D01*
X159213701Y-92754570D01*
X159227208Y-92770578D01*
X159310233Y-92887796D01*
X159320852Y-92905850D01*
X159382957Y-93035356D01*
X159390387Y-93054939D01*
X159429813Y-93193063D01*
X159433840Y-93213617D01*
X159449865Y-93360146D01*
X159450600Y-93373627D01*
X159450600Y-109755872D01*
X159449451Y-109772714D01*
X159435814Y-109872185D01*
X159429333Y-109898169D01*
X159396341Y-109987818D01*
X159384432Y-110011804D01*
X159379611Y-110019341D01*
X159332964Y-110092274D01*
X159316183Y-110113144D01*
X159248633Y-110180692D01*
X159227763Y-110197471D01*
X159147286Y-110248941D01*
X159123298Y-110260850D01*
X159033656Y-110293836D01*
X159007671Y-110300317D01*
X158906155Y-110314230D01*
X158892791Y-110315329D01*
X158872130Y-110315907D01*
X158864324Y-110317542D01*
X158838078Y-110319407D01*
X158838072Y-110319408D01*
X158723484Y-110352555D01*
X158618415Y-110409056D01*
X158618407Y-110409062D01*
X158527573Y-110486380D01*
X158455019Y-110581074D01*
X158455018Y-110581076D01*
X158403992Y-110688904D01*
X158388678Y-110754259D01*
X158376775Y-110805053D01*
X158376007Y-110844291D01*
X158375600Y-110844699D01*
X158375600Y-110865177D01*
X158375590Y-110865687D01*
X158375579Y-110866282D01*
X158375579Y-110866318D01*
X158375020Y-110896650D01*
X158375600Y-110900539D01*
X158375600Y-114191117D01*
X158355915Y-114258156D01*
X158303111Y-114303911D01*
X158251600Y-114315117D01*
X151900600Y-114315117D01*
X151833561Y-114295432D01*
X151787806Y-114242628D01*
X151776600Y-114191117D01*
X151776600Y-111845864D01*
X152125600Y-111845864D01*
X152125600Y-113835369D01*
X152137231Y-113893846D01*
X152137232Y-113893847D01*
X152181547Y-113960169D01*
X152247869Y-114004484D01*
X152247870Y-114004485D01*
X152306347Y-114016116D01*
X152306350Y-114016117D01*
X152306352Y-114016117D01*
X152695851Y-114016117D01*
X152719479Y-114011416D01*
X152726905Y-114009939D01*
X152775295Y-114009939D01*
X152782720Y-114011416D01*
X152806349Y-114016117D01*
X152806352Y-114016117D01*
X153195851Y-114016117D01*
X153219479Y-114011416D01*
X153226905Y-114009939D01*
X153275295Y-114009939D01*
X153282720Y-114011416D01*
X153306349Y-114016117D01*
X153306352Y-114016117D01*
X153695851Y-114016117D01*
X153719479Y-114011416D01*
X153726905Y-114009939D01*
X153775295Y-114009939D01*
X153782720Y-114011416D01*
X153806349Y-114016117D01*
X153806352Y-114016117D01*
X154195851Y-114016117D01*
X154219479Y-114011416D01*
X154226905Y-114009939D01*
X154275295Y-114009939D01*
X154282720Y-114011416D01*
X154306349Y-114016117D01*
X154306352Y-114016117D01*
X154695851Y-114016117D01*
X154719479Y-114011416D01*
X154726905Y-114009939D01*
X154775295Y-114009939D01*
X154782720Y-114011416D01*
X154806349Y-114016117D01*
X154806352Y-114016117D01*
X155195851Y-114016117D01*
X155219479Y-114011416D01*
X155226905Y-114009939D01*
X155275295Y-114009939D01*
X155282720Y-114011416D01*
X155306349Y-114016117D01*
X155306352Y-114016117D01*
X155695851Y-114016117D01*
X155719479Y-114011416D01*
X155726905Y-114009939D01*
X155775295Y-114009939D01*
X155782720Y-114011416D01*
X155806349Y-114016117D01*
X155806352Y-114016117D01*
X156195851Y-114016117D01*
X156219479Y-114011416D01*
X156226905Y-114009939D01*
X156275295Y-114009939D01*
X156282720Y-114011416D01*
X156306349Y-114016117D01*
X156306352Y-114016117D01*
X156695851Y-114016117D01*
X156719479Y-114011416D01*
X156726905Y-114009939D01*
X156775295Y-114009939D01*
X156782720Y-114011416D01*
X156806349Y-114016117D01*
X156806352Y-114016117D01*
X157195851Y-114016117D01*
X157219479Y-114011416D01*
X157226905Y-114009939D01*
X157275295Y-114009939D01*
X157282720Y-114011416D01*
X157306349Y-114016117D01*
X157306352Y-114016117D01*
X157695850Y-114016117D01*
X157695851Y-114016116D01*
X157710668Y-114013169D01*
X157754329Y-114004485D01*
X157754329Y-114004484D01*
X157754331Y-114004484D01*
X157820652Y-113960169D01*
X157864967Y-113893848D01*
X157864967Y-113893846D01*
X157864968Y-113893846D01*
X157876599Y-113835369D01*
X157876600Y-113835367D01*
X157876600Y-111845866D01*
X157876599Y-111845864D01*
X157864968Y-111787387D01*
X157864967Y-111787386D01*
X157820652Y-111721064D01*
X157754330Y-111676749D01*
X157754329Y-111676748D01*
X157695852Y-111665117D01*
X157695848Y-111665117D01*
X157306352Y-111665117D01*
X157306351Y-111665117D01*
X157275288Y-111671295D01*
X157226912Y-111671295D01*
X157195849Y-111665117D01*
X157195848Y-111665117D01*
X156806352Y-111665117D01*
X156806351Y-111665117D01*
X156775288Y-111671295D01*
X156726912Y-111671295D01*
X156695849Y-111665117D01*
X156695848Y-111665117D01*
X156306352Y-111665117D01*
X156306351Y-111665117D01*
X156275288Y-111671295D01*
X156226912Y-111671295D01*
X156195849Y-111665117D01*
X156195848Y-111665117D01*
X155806352Y-111665117D01*
X155806351Y-111665117D01*
X155775288Y-111671295D01*
X155726912Y-111671295D01*
X155695849Y-111665117D01*
X155695848Y-111665117D01*
X155306352Y-111665117D01*
X155306351Y-111665117D01*
X155275288Y-111671295D01*
X155226912Y-111671295D01*
X155195849Y-111665117D01*
X155195848Y-111665117D01*
X154806352Y-111665117D01*
X154806351Y-111665117D01*
X154775288Y-111671295D01*
X154726912Y-111671295D01*
X154695849Y-111665117D01*
X154695848Y-111665117D01*
X154306352Y-111665117D01*
X154306351Y-111665117D01*
X154275288Y-111671295D01*
X154226912Y-111671295D01*
X154195849Y-111665117D01*
X154195848Y-111665117D01*
X153806352Y-111665117D01*
X153806351Y-111665117D01*
X153775288Y-111671295D01*
X153726912Y-111671295D01*
X153695849Y-111665117D01*
X153695848Y-111665117D01*
X153306352Y-111665117D01*
X153306351Y-111665117D01*
X153275288Y-111671295D01*
X153226912Y-111671295D01*
X153195849Y-111665117D01*
X153195848Y-111665117D01*
X152806352Y-111665117D01*
X152806351Y-111665117D01*
X152775288Y-111671295D01*
X152726912Y-111671295D01*
X152695849Y-111665117D01*
X152695848Y-111665117D01*
X152306352Y-111665117D01*
X152306347Y-111665117D01*
X152247870Y-111676748D01*
X152247869Y-111676749D01*
X152181547Y-111721064D01*
X152137232Y-111787386D01*
X152137231Y-111787387D01*
X152125600Y-111845864D01*
X151776600Y-111845864D01*
X151776600Y-111392323D01*
X151776599Y-111392319D01*
X151770504Y-111365617D01*
X151743981Y-111249411D01*
X151680379Y-111117340D01*
X151667532Y-111101231D01*
X151654618Y-111085037D01*
X151588983Y-111002734D01*
X151523346Y-110950390D01*
X151474379Y-110911339D01*
X151474376Y-110911337D01*
X151342309Y-110847737D01*
X151342307Y-110847736D01*
X151342306Y-110847736D01*
X151297254Y-110837453D01*
X151199397Y-110815117D01*
X151199394Y-110815117D01*
X151052806Y-110815117D01*
X151052802Y-110815117D01*
X150909890Y-110847737D01*
X150777823Y-110911337D01*
X150777820Y-110911339D01*
X150663217Y-111002734D01*
X150571822Y-111117337D01*
X150571820Y-111117340D01*
X150508220Y-111249407D01*
X150475600Y-111392319D01*
X150475600Y-111592609D01*
X150455915Y-111659648D01*
X150403111Y-111705403D01*
X150333953Y-111715347D01*
X150282710Y-111695712D01*
X150265080Y-111683932D01*
X150254331Y-111676750D01*
X150254330Y-111676749D01*
X150254329Y-111676749D01*
X150254329Y-111676748D01*
X150195852Y-111665117D01*
X150195848Y-111665117D01*
X149806352Y-111665117D01*
X149806351Y-111665117D01*
X149775288Y-111671295D01*
X149767053Y-111671300D01*
X149762330Y-111673167D01*
X149727549Y-111671328D01*
X149727084Y-111671329D01*
X149726378Y-111671189D01*
X149695848Y-111665117D01*
X149695617Y-111665117D01*
X149689493Y-111663908D01*
X149663592Y-111650407D01*
X149636509Y-111639452D01*
X149630266Y-111633035D01*
X149627535Y-111631612D01*
X149625619Y-111628260D01*
X149614243Y-111616567D01*
X149533290Y-111508429D01*
X149533287Y-111508426D01*
X149418193Y-111422266D01*
X149418186Y-111422262D01*
X149283479Y-111372020D01*
X149283472Y-111372018D01*
X149223944Y-111365617D01*
X149176100Y-111365617D01*
X149176100Y-111691603D01*
X149173549Y-111700288D01*
X149174838Y-111709250D01*
X149158065Y-111753021D01*
X149156415Y-111758642D01*
X149155661Y-111759294D01*
X149155202Y-111760494D01*
X149137233Y-111787386D01*
X149137231Y-111787390D01*
X149125600Y-111845864D01*
X149125600Y-112716617D01*
X149123049Y-112725302D01*
X149124338Y-112734264D01*
X149113359Y-112758304D01*
X149105915Y-112783656D01*
X149099074Y-112789583D01*
X149095313Y-112797820D01*
X149073078Y-112812109D01*
X149053111Y-112829411D01*
X149042596Y-112831698D01*
X149036535Y-112835594D01*
X149001600Y-112840617D01*
X149000600Y-112840617D01*
X148933561Y-112820932D01*
X148887806Y-112768128D01*
X148876600Y-112716617D01*
X148876600Y-111845866D01*
X148876599Y-111845864D01*
X148864968Y-111787390D01*
X148864967Y-111787389D01*
X148864967Y-111787386D01*
X148846997Y-111760493D01*
X148843960Y-111750793D01*
X148837306Y-111743114D01*
X148833697Y-111718014D01*
X148826120Y-111693816D01*
X148826100Y-111691603D01*
X148826100Y-111365617D01*
X148778255Y-111365617D01*
X148718727Y-111372018D01*
X148718720Y-111372020D01*
X148584013Y-111422262D01*
X148584006Y-111422266D01*
X148468912Y-111508426D01*
X148387956Y-111616568D01*
X148365880Y-111633092D01*
X148346007Y-111652214D01*
X148336583Y-111655023D01*
X148332022Y-111658438D01*
X148312706Y-111663908D01*
X148306582Y-111665117D01*
X148306352Y-111665117D01*
X148275824Y-111671189D01*
X148275116Y-111671329D01*
X148274742Y-111671295D01*
X148226912Y-111671295D01*
X148195849Y-111665117D01*
X148195848Y-111665117D01*
X147806352Y-111665117D01*
X147806351Y-111665117D01*
X147775288Y-111671295D01*
X147726912Y-111671295D01*
X147695849Y-111665117D01*
X147695848Y-111665117D01*
X147306352Y-111665117D01*
X147306351Y-111665117D01*
X147275288Y-111671295D01*
X147226912Y-111671295D01*
X147195849Y-111665117D01*
X147195848Y-111665117D01*
X146806352Y-111665117D01*
X146806351Y-111665117D01*
X146775288Y-111671295D01*
X146726912Y-111671295D01*
X146695849Y-111665117D01*
X146695848Y-111665117D01*
X146306352Y-111665117D01*
X146306351Y-111665117D01*
X146275288Y-111671295D01*
X146226912Y-111671295D01*
X146195849Y-111665117D01*
X146195848Y-111665117D01*
X145806352Y-111665117D01*
X145806351Y-111665117D01*
X145775288Y-111671295D01*
X145726912Y-111671295D01*
X145695849Y-111665117D01*
X145695848Y-111665117D01*
X145306352Y-111665117D01*
X145306351Y-111665117D01*
X145275288Y-111671295D01*
X145226912Y-111671295D01*
X145195849Y-111665117D01*
X145195848Y-111665117D01*
X144806352Y-111665117D01*
X144806351Y-111665117D01*
X144775288Y-111671295D01*
X144726912Y-111671295D01*
X144695849Y-111665117D01*
X144695848Y-111665117D01*
X144306352Y-111665117D01*
X144306351Y-111665117D01*
X144275288Y-111671295D01*
X144226912Y-111671295D01*
X144195849Y-111665117D01*
X144195848Y-111665117D01*
X143806352Y-111665117D01*
X143806351Y-111665117D01*
X143775288Y-111671295D01*
X143726912Y-111671295D01*
X143695849Y-111665117D01*
X143695848Y-111665117D01*
X143450600Y-111665117D01*
X143383561Y-111645432D01*
X143337806Y-111592628D01*
X143326600Y-111541117D01*
X143326600Y-108615671D01*
X143346285Y-108548632D01*
X143347494Y-108546785D01*
X143369260Y-108514207D01*
X143406522Y-108424224D01*
X143425509Y-108328700D01*
X143425500Y-108280003D01*
X143425500Y-106427857D01*
X143425500Y-106421876D01*
X143425497Y-106421858D01*
X143425498Y-106421854D01*
X143406432Y-106325983D01*
X143406431Y-106325980D01*
X143406431Y-106325978D01*
X143369029Y-106235675D01*
X143369028Y-106235673D01*
X143322869Y-106166590D01*
X143306198Y-106129796D01*
X143305211Y-106126115D01*
X143305211Y-106126114D01*
X143305210Y-106126112D01*
X143245901Y-106023387D01*
X143162025Y-105939511D01*
X143059298Y-105880201D01*
X142944721Y-105849500D01*
X142826103Y-105849500D01*
X142711526Y-105880201D01*
X142711524Y-105880201D01*
X142711524Y-105880202D01*
X142608799Y-105939511D01*
X142608796Y-105939513D01*
X142524925Y-106023384D01*
X142524923Y-106023387D01*
X142500093Y-106066394D01*
X142449525Y-106114609D01*
X142380918Y-106127831D01*
X142316054Y-106101863D01*
X142285319Y-106066394D01*
X142260489Y-106023387D01*
X142176613Y-105939511D01*
X142073886Y-105880201D01*
X141959309Y-105849500D01*
X141840691Y-105849500D01*
X141726114Y-105880201D01*
X141726112Y-105880201D01*
X141726112Y-105880202D01*
X141623387Y-105939511D01*
X141623384Y-105939513D01*
X141539513Y-106023384D01*
X141539511Y-106023387D01*
X141480201Y-106126114D01*
X141449500Y-106240691D01*
X141449500Y-106359309D01*
X141477684Y-106464494D01*
X141480202Y-106473890D01*
X141480203Y-106473891D01*
X141507886Y-106521838D01*
X141524500Y-106583839D01*
X141524500Y-107134798D01*
X141504815Y-107201837D01*
X141452011Y-107247592D01*
X141382853Y-107257536D01*
X141319297Y-107228511D01*
X141281523Y-107169733D01*
X141280725Y-107166892D01*
X141269799Y-107126114D01*
X141210489Y-107023387D01*
X141126613Y-106939511D01*
X141023886Y-106880201D01*
X140909309Y-106849500D01*
X140790691Y-106849500D01*
X140676114Y-106880201D01*
X140676112Y-106880201D01*
X140676112Y-106880202D01*
X140573387Y-106939511D01*
X140573384Y-106939513D01*
X140489513Y-107023384D01*
X140489511Y-107023387D01*
X140430201Y-107126114D01*
X140399500Y-107240691D01*
X140399500Y-107359309D01*
X140410806Y-107401502D01*
X140430202Y-107473890D01*
X140430203Y-107473891D01*
X140457886Y-107521838D01*
X140462036Y-107537326D01*
X140469477Y-107548904D01*
X140474499Y-107583836D01*
X140474500Y-107583838D01*
X140474500Y-107767853D01*
X140474500Y-107767855D01*
X140474501Y-107777849D01*
X140474501Y-107793373D01*
X140495890Y-107928420D01*
X140538146Y-108058468D01*
X140600222Y-108180297D01*
X140600228Y-108180306D01*
X140680586Y-108290912D01*
X140694293Y-108304619D01*
X140694303Y-108304630D01*
X140698633Y-108308960D01*
X140698634Y-108308961D01*
X140883940Y-108494266D01*
X140883944Y-108494274D01*
X140916953Y-108527280D01*
X140923561Y-108534429D01*
X141002867Y-108627275D01*
X141014305Y-108643016D01*
X141075556Y-108742957D01*
X141084390Y-108760293D01*
X141129251Y-108868579D01*
X141135266Y-108887086D01*
X141162636Y-109001069D01*
X141165680Y-109020286D01*
X141175217Y-109141390D01*
X141175600Y-109151125D01*
X141175600Y-111541117D01*
X141155915Y-111608156D01*
X141103111Y-111653911D01*
X141051600Y-111665117D01*
X140806351Y-111665117D01*
X140775288Y-111671295D01*
X140726912Y-111671295D01*
X140695849Y-111665117D01*
X140695848Y-111665117D01*
X140306352Y-111665117D01*
X140306351Y-111665117D01*
X140275288Y-111671295D01*
X140226912Y-111671295D01*
X140195849Y-111665117D01*
X140195848Y-111665117D01*
X139806352Y-111665117D01*
X139806351Y-111665117D01*
X139775288Y-111671295D01*
X139726912Y-111671295D01*
X139695849Y-111665117D01*
X139695848Y-111665117D01*
X139306352Y-111665117D01*
X139306347Y-111665117D01*
X139247870Y-111676748D01*
X139247869Y-111676749D01*
X139181547Y-111721064D01*
X139137232Y-111787386D01*
X139137231Y-111787387D01*
X139125600Y-111845864D01*
X139125600Y-113835369D01*
X139137231Y-113893846D01*
X139137232Y-113893847D01*
X139181547Y-113960169D01*
X139247869Y-114004484D01*
X139247870Y-114004485D01*
X139306347Y-114016116D01*
X139306350Y-114016117D01*
X139306352Y-114016117D01*
X139695851Y-114016117D01*
X139719479Y-114011416D01*
X139726905Y-114009939D01*
X139775295Y-114009939D01*
X139782720Y-114011416D01*
X139806349Y-114016117D01*
X139806352Y-114016117D01*
X140195851Y-114016117D01*
X140219479Y-114011416D01*
X140226905Y-114009939D01*
X140275295Y-114009939D01*
X140282720Y-114011416D01*
X140306349Y-114016117D01*
X140306352Y-114016117D01*
X140695851Y-114016117D01*
X140719479Y-114011416D01*
X140726905Y-114009939D01*
X140775295Y-114009939D01*
X140782720Y-114011416D01*
X140806349Y-114016117D01*
X140806352Y-114016117D01*
X141195851Y-114016117D01*
X141219479Y-114011416D01*
X141226905Y-114009939D01*
X141275295Y-114009939D01*
X141282720Y-114011416D01*
X141306349Y-114016117D01*
X141306352Y-114016117D01*
X141695851Y-114016117D01*
X141719479Y-114011416D01*
X141726905Y-114009939D01*
X141775295Y-114009939D01*
X141782720Y-114011416D01*
X141806349Y-114016117D01*
X141806352Y-114016117D01*
X142195851Y-114016117D01*
X142219479Y-114011416D01*
X142226905Y-114009939D01*
X142275295Y-114009939D01*
X142282720Y-114011416D01*
X142306349Y-114016117D01*
X142306352Y-114016117D01*
X142695851Y-114016117D01*
X142719479Y-114011416D01*
X142726905Y-114009939D01*
X142775295Y-114009939D01*
X142782720Y-114011416D01*
X142806349Y-114016117D01*
X142806352Y-114016117D01*
X143195851Y-114016117D01*
X143219479Y-114011416D01*
X143226905Y-114009939D01*
X143275295Y-114009939D01*
X143282720Y-114011416D01*
X143306349Y-114016117D01*
X143306352Y-114016117D01*
X143695851Y-114016117D01*
X143719479Y-114011416D01*
X143726905Y-114009939D01*
X143775295Y-114009939D01*
X143782720Y-114011416D01*
X143806349Y-114016117D01*
X143806352Y-114016117D01*
X144195851Y-114016117D01*
X144219479Y-114011416D01*
X144226905Y-114009939D01*
X144275295Y-114009939D01*
X144282720Y-114011416D01*
X144306349Y-114016117D01*
X144306352Y-114016117D01*
X144695851Y-114016117D01*
X144719479Y-114011416D01*
X144726905Y-114009939D01*
X144775295Y-114009939D01*
X144782720Y-114011416D01*
X144806349Y-114016117D01*
X144806352Y-114016117D01*
X145195851Y-114016117D01*
X145219479Y-114011416D01*
X145226905Y-114009939D01*
X145275295Y-114009939D01*
X145282720Y-114011416D01*
X145306349Y-114016117D01*
X145306352Y-114016117D01*
X145695851Y-114016117D01*
X145719479Y-114011416D01*
X145726905Y-114009939D01*
X145775295Y-114009939D01*
X145782720Y-114011416D01*
X145806349Y-114016117D01*
X145806352Y-114016117D01*
X146195851Y-114016117D01*
X146219479Y-114011416D01*
X146226905Y-114009939D01*
X146275295Y-114009939D01*
X146282720Y-114011416D01*
X146306349Y-114016117D01*
X146306352Y-114016117D01*
X146695851Y-114016117D01*
X146719479Y-114011416D01*
X146726905Y-114009939D01*
X146775295Y-114009939D01*
X146782720Y-114011416D01*
X146806349Y-114016117D01*
X146806352Y-114016117D01*
X147195851Y-114016117D01*
X147219479Y-114011416D01*
X147226905Y-114009939D01*
X147275295Y-114009939D01*
X147282720Y-114011416D01*
X147306349Y-114016117D01*
X147306352Y-114016117D01*
X147695851Y-114016117D01*
X147719479Y-114011416D01*
X147726905Y-114009939D01*
X147775295Y-114009939D01*
X147782720Y-114011416D01*
X147806349Y-114016117D01*
X147806352Y-114016117D01*
X148195851Y-114016117D01*
X148219479Y-114011416D01*
X148226904Y-114009938D01*
X148235142Y-114009932D01*
X148239873Y-114008064D01*
X148274622Y-114009903D01*
X148275114Y-114009903D01*
X148306352Y-114016117D01*
X148306592Y-114016117D01*
X148312710Y-114017325D01*
X148338501Y-114030769D01*
X148365484Y-114041617D01*
X148371867Y-114048163D01*
X148374667Y-114049623D01*
X148376615Y-114053032D01*
X148387958Y-114064666D01*
X148426990Y-114116806D01*
X148451407Y-114182270D01*
X148436556Y-114250543D01*
X148387151Y-114299949D01*
X148327723Y-114315117D01*
X138750600Y-114315117D01*
X138683561Y-114295432D01*
X138637806Y-114242628D01*
X138626600Y-114191117D01*
X138626600Y-110881241D01*
X138627044Y-110880593D01*
X138626600Y-110864897D01*
X138626600Y-110844699D01*
X138626600Y-110826203D01*
X138625358Y-110820392D01*
X138624921Y-110804774D01*
X138596979Y-110689222D01*
X138545670Y-110581983D01*
X138473227Y-110487723D01*
X138382803Y-110410546D01*
X138278333Y-110353810D01*
X138278331Y-110353809D01*
X138278326Y-110353807D01*
X138164368Y-110319986D01*
X138164370Y-110319986D01*
X138164365Y-110319985D01*
X138164363Y-110319984D01*
X138164360Y-110319984D01*
X138138070Y-110317895D01*
X138137667Y-110317863D01*
X138119954Y-110316397D01*
X138118915Y-110315596D01*
X138105852Y-110315230D01*
X138102491Y-110314952D01*
X138101888Y-110314719D01*
X138095880Y-110314225D01*
X137994523Y-110300333D01*
X137968538Y-110293853D01*
X137878887Y-110260863D01*
X137854901Y-110248955D01*
X137774423Y-110197486D01*
X137753555Y-110180709D01*
X137685997Y-110113152D01*
X137669222Y-110092288D01*
X137617751Y-110011812D01*
X137605842Y-109987826D01*
X137572848Y-109898172D01*
X137566367Y-109872187D01*
X137552749Y-109772844D01*
X137551600Y-109756003D01*
X137551600Y-101740691D01*
X142299500Y-101740691D01*
X142299500Y-101859309D01*
X142330201Y-101973886D01*
X142389511Y-102076613D01*
X142473387Y-102160489D01*
X142576114Y-102219799D01*
X142690691Y-102250500D01*
X142690694Y-102250500D01*
X143871456Y-102250500D01*
X143871460Y-102250501D01*
X143926708Y-102250500D01*
X143934812Y-102250764D01*
X144153532Y-102265097D01*
X144169600Y-102267212D01*
X144380594Y-102309178D01*
X144396240Y-102313371D01*
X144599946Y-102382517D01*
X144614919Y-102388718D01*
X144807864Y-102483867D01*
X144821894Y-102491968D01*
X145000760Y-102611482D01*
X145013620Y-102621350D01*
X145178225Y-102765703D01*
X145184116Y-102771220D01*
X145202417Y-102789520D01*
X145202419Y-102789522D01*
X145508927Y-103096030D01*
X145517099Y-103105046D01*
X145584582Y-103187274D01*
X145598087Y-103207486D01*
X145645334Y-103295879D01*
X145654637Y-103318337D01*
X145683734Y-103414257D01*
X145688476Y-103438097D01*
X145693656Y-103490691D01*
X145698903Y-103543955D01*
X145699500Y-103556110D01*
X145699500Y-104059309D01*
X145730201Y-104173886D01*
X145789511Y-104276613D01*
X145873387Y-104360489D01*
X145976114Y-104419799D01*
X146090691Y-104450500D01*
X146090694Y-104450500D01*
X146209306Y-104450500D01*
X146209309Y-104450500D01*
X146323886Y-104419799D01*
X146426613Y-104360489D01*
X146510489Y-104276613D01*
X146569799Y-104173886D01*
X146600500Y-104059309D01*
X146600500Y-103490691D01*
X146600500Y-103483104D01*
X146600498Y-103483070D01*
X146600498Y-103449266D01*
X146581723Y-103306653D01*
X146574202Y-103249523D01*
X146522058Y-103054921D01*
X146444960Y-102868790D01*
X146387087Y-102768551D01*
X146344227Y-102694314D01*
X146221583Y-102534481D01*
X146221577Y-102534474D01*
X145854882Y-102167779D01*
X145854854Y-102167728D01*
X145712539Y-102025413D01*
X145478108Y-101838462D01*
X145478099Y-101838456D01*
X145396618Y-101787259D01*
X145224205Y-101678926D01*
X144954038Y-101548823D01*
X144954035Y-101548822D01*
X144954031Y-101548820D01*
X144671009Y-101449789D01*
X144671001Y-101449787D01*
X144378672Y-101383068D01*
X144378667Y-101383067D01*
X144378661Y-101383066D01*
X144378660Y-101383066D01*
X144080684Y-101349497D01*
X144080679Y-101349497D01*
X143930753Y-101349500D01*
X142690691Y-101349500D01*
X142576114Y-101380201D01*
X142576112Y-101380201D01*
X142576112Y-101380202D01*
X142473387Y-101439511D01*
X142473384Y-101439513D01*
X142389513Y-101523384D01*
X142389511Y-101523387D01*
X142330201Y-101626114D01*
X142299500Y-101740691D01*
X137551600Y-101740691D01*
X137551600Y-99890691D01*
X138699500Y-99890691D01*
X138699500Y-100009309D01*
X138730201Y-100123886D01*
X138789511Y-100226613D01*
X138873387Y-100310489D01*
X138976114Y-100369799D01*
X139090691Y-100400500D01*
X139090694Y-100400500D01*
X139209306Y-100400500D01*
X139209309Y-100400500D01*
X139323886Y-100369799D01*
X139426613Y-100310489D01*
X139426620Y-100310481D01*
X139433059Y-100305542D01*
X139434157Y-100306973D01*
X139486606Y-100278334D01*
X139512964Y-100275500D01*
X141787036Y-100275500D01*
X141854075Y-100295185D01*
X141866935Y-100305548D01*
X141866941Y-100305542D01*
X141873382Y-100310484D01*
X141873387Y-100310489D01*
X141976114Y-100369799D01*
X142090691Y-100400500D01*
X142090694Y-100400500D01*
X142209306Y-100400500D01*
X142209309Y-100400500D01*
X142323886Y-100369799D01*
X142426613Y-100310489D01*
X142510489Y-100226613D01*
X142569799Y-100123886D01*
X142600500Y-100009309D01*
X142600500Y-99890691D01*
X142569799Y-99776114D01*
X142510489Y-99673387D01*
X142426613Y-99589511D01*
X142323886Y-99530201D01*
X142209309Y-99499500D01*
X142090691Y-99499500D01*
X141976114Y-99530201D01*
X141976112Y-99530201D01*
X141976112Y-99530202D01*
X141873387Y-99589511D01*
X141866941Y-99594458D01*
X141865842Y-99593026D01*
X141813394Y-99621666D01*
X141787036Y-99624500D01*
X139512964Y-99624500D01*
X139445925Y-99604815D01*
X139433064Y-99594451D01*
X139433059Y-99594458D01*
X139426615Y-99589513D01*
X139426613Y-99589511D01*
X139323886Y-99530201D01*
X139209309Y-99499500D01*
X139090691Y-99499500D01*
X138976114Y-99530201D01*
X138976112Y-99530201D01*
X138976112Y-99530202D01*
X138873387Y-99589511D01*
X138873384Y-99589513D01*
X138789513Y-99673384D01*
X138789511Y-99673387D01*
X138730201Y-99776114D01*
X138699500Y-99890691D01*
X137551600Y-99890691D01*
X137551600Y-93373470D01*
X137552335Y-93359989D01*
X137561824Y-93273225D01*
X137568343Y-93213611D01*
X137572370Y-93193061D01*
X137611797Y-93054931D01*
X137619223Y-93035356D01*
X137681335Y-92905836D01*
X137691953Y-92887786D01*
X137774980Y-92770565D01*
X137788478Y-92754566D01*
X137890053Y-92652989D01*
X137906048Y-92639493D01*
X138023275Y-92556459D01*
X138041318Y-92545845D01*
X138170846Y-92483726D01*
X138190415Y-92476302D01*
X138328541Y-92436873D01*
X138349091Y-92432846D01*
X138495327Y-92416851D01*
X138508809Y-92416117D01*
X150581899Y-92416117D01*
X150648938Y-92435802D01*
G37*
%TD.AperFunction*%
%TD*%
M02*
