M48
; DRILL file {KiCad 9.0.0} date 2025-05-10T16:00:55+0400
; FORMAT={-:-/ absolute / inch / decimal}
; #@! TF.CreationDate,2025-05-10T16:00:55+04:00
; #@! TF.GenerationSoftware,Kicad,Pcbnew,9.0.0
; #@! TF.FileFunction,Plated,1,6,PTH
FMAT,2
INCH
; #@! TA.AperFunction,Plated,PTH,ViaDrill
T1C0.0118
; #@! TA.AperFunction,Plated,PTH,ComponentDrill
T2C0.0197
; #@! TA.AperFunction,Plated,PTH,ComponentDrill
T3C0.0236
; #@! TA.AperFunction,Plated,PTH,ComponentDrill
T4C0.0276
; #@! TA.AperFunction,Plated,PTH,ComponentDrill
T5C0.0394
; #@! TA.AperFunction,Plated,PTH,ComponentDrill
T6C0.0748
; #@! TA.AperFunction,Plated,PTH,ComponentDrill
T7C0.1260
%
G90
G05
T1
X3.7283Y-2.189
X3.7283Y-2.239
X3.8091Y-3.937
X3.8169Y-5.3583
X3.8583Y-3.3268
X3.8622Y-3.6299
X3.8642Y-3.378
X3.872Y-6.7559
X3.873Y-4.7976
X3.873Y-6.1834
X3.8858Y-5.0512
X3.8858Y-6.4353
X3.9065Y-4.7023
X3.9065Y-6.0881
X3.9311Y-2.1447
X3.9311Y-2.189
X3.9422Y-3.375
X3.951Y-4.7946
X3.951Y-6.1804
X3.9724Y-3.0837
X3.9813Y-4.5033
X3.9813Y-5.8891
X4.0059Y-1.7913
X4.0059Y-1.8209
X4.0059Y-1.8504
X4.0059Y-1.8799
X4.0059Y-1.9094
X4.0118Y-3.0276
X4.0157Y-2.2343
X4.0157Y-2.2638
X4.0157Y-2.2933
X4.0157Y-2.3228
X4.0157Y-2.3524
X4.0206Y-4.4472
X4.0206Y-5.833
X4.0354Y-1.7913
X4.0354Y-1.8209
X4.0354Y-1.8504
X4.0354Y-1.8799
X4.0354Y-1.9094
X4.0453Y-2.2638
X4.0453Y-2.2933
X4.0453Y-2.3228
X4.0453Y-2.3524
X4.0549Y-3.5785
X4.0551Y-3.6378
X4.0551Y-3.6969
X4.0571Y-3.2835
X4.0591Y-3.9528
X4.06Y-4.002
X4.0637Y-4.9981
X4.0637Y-6.3839
X4.0639Y-5.0574
X4.0639Y-5.1164
X4.0639Y-6.4432
X4.0639Y-6.5023
X4.065Y-1.7913
X4.065Y-1.8209
X4.065Y-1.8504
X4.065Y-1.8799
X4.065Y-1.9094
X4.065Y-3.9075
X4.0659Y-4.7031
X4.0659Y-6.0889
X4.0679Y-5.3724
X4.0679Y-6.7582
X4.0679Y-5.4183
X4.0679Y-6.8081
X4.0738Y-5.3271
X4.0738Y-6.7129
X4.0748Y-2.2933
X4.0748Y-2.3228
X4.0748Y-2.3524
X4.0816Y-3.3976
X4.0905Y-4.8172
X4.0905Y-6.2031
X4.0945Y-1.7913
X4.0945Y-1.8209
X4.0945Y-1.8504
X4.0945Y-1.8799
X4.0945Y-1.9094
X4.1043Y-2.3228
X4.1043Y-2.3524
X4.1085Y-3.1496
X4.1173Y-4.5692
X4.1173Y-5.955
X4.124Y-1.7913
X4.124Y-1.8209
X4.124Y-1.8504
X4.124Y-1.8799
X4.124Y-1.9094
X4.1337Y-3.0956
X4.1339Y-2.3524
X4.1425Y-4.5152
X4.1425Y-5.9011
X4.1535Y-1.7913
X4.1535Y-1.8209
X4.1535Y-1.8504
X4.1535Y-1.8799
X4.1535Y-1.9094
X4.1648Y-3.0358
X4.1741Y-5.8428
X4.1744Y-4.4528
X4.1751Y-4.2373
X4.1791Y-2.1713
X4.184Y-5.6569
X4.184Y-7.0427
X4.1929Y-2.9882
X4.2017Y-4.4078
X4.2017Y-5.7936
X4.2067Y-3.6063
X4.2126Y-3.9252
X4.2146Y-6.4232
X4.2155Y-5.0259
X4.2214Y-5.3448
X4.2214Y-6.7306
X4.2283Y-3.563
X4.2323Y-4.1693
X4.2362Y-3.3268
X4.2372Y-6.3701
X4.2402Y-4.9803
X4.2411Y-5.5889
X4.2411Y-6.9747
X4.2421Y-3.5335
X4.2421Y-3.5886
X4.2421Y-3.6654
X4.245Y-4.7464
X4.245Y-6.1322
X4.2509Y-4.9531
X4.2509Y-5.0082
X4.2509Y-5.085
X4.2509Y-6.394
X4.2509Y-6.4708
X4.2513Y-6.343
X4.2667Y-2.5758
X4.2884Y-3.1004
X4.2972Y-4.52
X4.2972Y-5.9058
X4.311Y-2.172
X4.3406Y-1.8905
X4.3543Y-3.9843
X4.3563Y-3.8076
X4.3631Y-5.4039
X4.3631Y-6.7897
X4.3652Y-5.2272
X4.3652Y-6.6131
X4.3898Y-1.9748
X4.3898Y-2.0004
X4.3898Y-2.026
X4.3991Y-3.0689
X4.4075Y-2.7736
X4.4075Y-2.8031
X4.4079Y-4.4885
X4.4079Y-5.8743
X4.4081Y-3.5298
X4.4085Y-3.5591
X4.4085Y-3.6988
X4.4094Y-3.5906
X4.4114Y-2.109
X4.4154Y-1.9748
X4.4154Y-2.0004
X4.4154Y-2.026
X4.4169Y-4.9494
X4.4169Y-6.3352
X4.4173Y-4.9787
X4.4173Y-6.3645
X4.4173Y-6.8543
X4.4183Y-5.0101
X4.4183Y-6.396
X4.4341Y-3.2451
X4.437Y-4.0669
X4.4409Y-1.9748
X4.4409Y-2.0004
X4.4409Y-2.026
X4.4429Y-4.6647
X4.4429Y-6.0505
X4.4537Y-3.6782
X4.4616Y-5.0976
X4.4616Y-6.4834
X4.4704Y-3.2451
X4.4792Y-4.6647
X4.4792Y-6.0506
X4.4806Y-5.6277
X4.4852Y-4.2125
X4.4862Y-5.4803
X4.4884Y-7.0135
X4.4891Y-5.0978
X4.4891Y-6.4836
X4.4902Y-2.4779
X4.4921Y-3.6791
X4.5014Y-4.3891
X4.5014Y-5.7749
X4.5167Y-5.0977
X4.5167Y-6.4836
X4.5177Y-3.0709
X4.5276Y-2.9685
X4.5283Y-3.4008
X4.5283Y-3.4638
X4.5283Y-3.5268
X4.5371Y-4.8204
X4.5371Y-4.8834
X4.5371Y-4.9464
X4.5371Y-6.2063
X4.5371Y-6.2692
X4.5371Y-6.3322
X4.5433Y-4.3898
X4.5433Y-5.7756
X4.5598Y-3.4323
X4.5598Y-3.4953
X4.5686Y-4.8519
X4.5686Y-4.9149
X4.5686Y-6.2378
X4.5686Y-6.3007
X4.5913Y-3.4008
X4.5913Y-3.4638
X4.5913Y-3.5268
X4.5945Y-1.7913
X4.5945Y-1.8209
X4.5945Y-1.8504
X4.5945Y-1.8799
X4.5945Y-1.9094
X4.6001Y-4.8204
X4.6001Y-4.8834
X4.6001Y-4.9464
X4.6001Y-6.2063
X4.6001Y-6.2692
X4.6001Y-6.3322
X4.6132Y-3.6429
X4.622Y-5.0625
X4.622Y-6.4484
X4.622Y-3.2264
X4.6228Y-3.4323
X4.6228Y-3.4953
X4.623Y-3.7451
X4.624Y-1.7913
X4.624Y-1.8209
X4.624Y-1.8504
X4.624Y-1.8799
X4.624Y-1.9094
X4.626Y-4.5512
X4.626Y-5.937
X4.6309Y-4.646
X4.6309Y-6.0318
X4.6316Y-4.8519
X4.6316Y-4.9149
X4.6316Y-6.2378
X4.6316Y-6.3007
X4.6318Y-5.1647
X4.6318Y-6.5505
X4.6506Y-3.2441
X4.6535Y-1.7913
X4.6535Y-1.8209
X4.6535Y-1.8504
X4.6535Y-1.8799
X4.6535Y-1.9094
X4.6543Y-3.4008
X4.6543Y-3.4638
X4.6543Y-3.5268
X4.6555Y-3.0571
X4.6555Y-3.1703
X4.6574Y-2.7372
X4.6575Y-2.1988
X4.6594Y-4.6637
X4.6594Y-6.0495
X4.6631Y-4.8204
X4.6631Y-4.8834
X4.6631Y-4.9464
X4.6631Y-6.2063
X4.6631Y-6.2692
X4.6631Y-6.3322
X4.6634Y-4.1603
X4.6634Y-4.4705
X4.6634Y-5.8642
X4.6673Y-3.6427
X4.6732Y-6.8425
X4.6752Y-2.8081
X4.6761Y-5.0623
X4.6761Y-6.4481
X4.6801Y-3.2618
X4.6831Y-1.7913
X4.6831Y-1.8209
X4.6831Y-1.8504
X4.6831Y-1.8799
X4.6831Y-1.9094
X4.6889Y-4.6814
X4.6889Y-6.0672
X4.6924Y-2.8307
X4.6981Y-5.5786
X4.6988Y-3.6427
X4.7047Y-3.1732
X4.7076Y-5.0623
X4.7076Y-6.4481
X4.7126Y-1.7913
X4.7126Y-1.8209
X4.7126Y-1.8504
X4.7126Y-1.8799
X4.7126Y-1.9094
X4.7165Y-4.6181
X4.7165Y-6.0
X4.7205Y-2.2283
X4.7306Y-3.6427
X4.7362Y-2.7622
X4.7394Y-5.0623
X4.7394Y-6.4481
X4.7677Y-3.1181
X4.7717Y-3.575
X4.7785Y-2.5571
X4.7785Y-3.4291
X4.7795Y-4.9946
X4.7795Y-6.3805
X4.7805Y-4.5623
X4.7805Y-5.9481
X4.7883Y-4.6558
X4.7883Y-6.0416
X4.7884Y-3.5984
X4.7992Y-4.8465
X4.8031Y-6.2283
X4.8071Y-5.0118
X4.8071Y-6.3976
X4.8189Y-3.2441
X4.8189Y-3.2756
X4.8189Y-3.4301
X4.8228Y-4.1614
X4.8277Y-4.6952
X4.8277Y-6.081
X4.8278Y-3.5984
X4.8307Y-4.8307
X4.8327Y-3.8474
X4.8336Y-6.2106
X4.8386Y-5.0039
X4.8388Y-5.5796
X4.8396Y-6.3898
X4.8415Y-5.267
X4.8415Y-6.6529
X4.8585Y-6.9761
X4.8642Y-2.6811
X4.8642Y-2.7136
X4.8642Y-2.7638
X4.8661Y-3.3937
X4.875Y-4.7992
X4.875Y-6.185
X4.889Y-2.1984
X4.8898Y-3.4665
X4.9016Y-4.8839
X4.9026Y-6.2717
X4.9087Y-1.909
X4.9417Y-3.3753
X4.9429Y-3.061
X4.9429Y-4.4469
X4.9449Y-5.8268
X4.9505Y-4.7949
X4.9505Y-6.1807
X4.9589Y-1.9962
X4.9589Y-2.0228
X4.9589Y-2.0504
X4.9695Y-2.436
X4.9709Y-2.1287
X4.9874Y-1.9962
X4.9874Y-2.0228
X4.999Y-3.1772
X5.0083Y-4.6063
X5.0083Y-5.9921
X5.0179Y-1.9962
X5.0235Y-2.5795
X5.0236Y-2.6585
X5.0374Y-1.7815
X5.0386Y-1.8102
X5.0827Y-2.3504
X5.0992Y-2.9904
X5.0994Y-3.0287
X5.1014Y-3.0728
X5.108Y-4.41
X5.108Y-5.7958
X5.1082Y-4.4483
X5.1082Y-5.8342
X5.1102Y-4.4924
X5.1102Y-5.8783
X5.1348Y-2.437
X5.1476Y-2.7638
X5.1713Y-2.813
X5.1791Y-2.4862
X5.1957Y-1.9589
X5.2335Y-1.9589
X5.2439Y-2.748
X5.277Y-3.3784
X5.2793Y-4.798
X5.2793Y-6.1817
X5.2817Y-2.5413
X5.2913Y-3.6303
X5.2953Y-5.0551
X5.2953Y-6.437
X5.3091Y-2.8307
X5.3101Y-3.9655
X5.3105Y-3.2831
X5.3127Y-4.7027
X5.3127Y-6.0865
X5.318Y-5.3828
X5.3219Y-6.7686
X5.3445Y-2.122
X5.3484Y-2.8307
X5.355Y-3.3754
X5.3573Y-4.795
X5.3573Y-6.1787
X5.3652Y-2.2821
X5.3839Y-2.3228
X5.3853Y-3.0841
X5.3875Y-4.5037
X5.3875Y-5.8874
X5.4247Y-3.028
X5.4269Y-4.4476
X5.4269Y-5.8313
X5.4291Y-2.2205
X5.4587Y-2.2205
X5.4677Y-3.5789
X5.468Y-3.6382
X5.468Y-3.6973
X5.4699Y-3.2839
X5.47Y-4.9985
X5.47Y-6.3822
X5.4702Y-5.0578
X5.4702Y-5.1169
X5.4702Y-6.4415
X5.4702Y-6.5006
X5.4705Y-2.3211
X5.4719Y-3.9532
X5.4722Y-4.7035
X5.4722Y-6.0872
X5.4724Y-4.0
X5.4742Y-5.3728
X5.4742Y-6.7565
X5.4742Y-6.8071
X5.4744Y-5.4222
X5.4823Y-1.8287
X5.4858Y-2.8263
X5.4945Y-3.3981
X5.4968Y-4.8177
X5.4968Y-6.2014
X5.5Y-2.0508
X5.5Y-2.1502
X5.5197Y-2.7874
X5.5213Y-3.15
X5.5235Y-2.3672
X5.5236Y-4.5696
X5.5236Y-5.9533
X5.5239Y-2.4058
X5.5325Y-2.5079
X5.5433Y-2.0591
X5.5433Y-2.1732
X5.5465Y-3.0961
X5.5488Y-4.5157
X5.5488Y-5.8994
X5.5534Y-2.2271
X5.5541Y-2.4843
X5.5768Y-2.4587
X5.5776Y-3.0362
X5.5807Y-4.4528
X5.5807Y-5.8386
X5.5827Y-2.0591
X5.5827Y-2.1727
X5.5837Y-2.2283
X5.588Y-4.2377
X5.5902Y-5.6573
X5.5902Y-7.041
X5.6024Y-1.9409
X5.6024Y-2.565
X5.6024Y-2.6171
X5.6058Y-2.9886
X5.6063Y-2.3681
X5.6063Y-2.4055
X5.608Y-4.4082
X5.608Y-5.7919
X5.6195Y-3.6067
X5.6201Y-2.7913
X5.6201Y-2.8307
X5.6218Y-5.0263
X5.6218Y-6.41
X5.6254Y-3.9256
X5.6277Y-5.3452
X5.6277Y-6.7289
X5.6417Y-3.5634
X5.6451Y-4.1697
X5.6457Y-4.9803
X5.6457Y-6.3667
X5.6474Y-5.5893
X5.6474Y-6.973
X5.6491Y-3.3272
X5.6513Y-4.7468
X5.6513Y-6.1305
X5.655Y-3.5378
X5.655Y-3.6658
X5.655Y-3.589
X5.6572Y-4.9528
X5.6572Y-5.0086
X5.6572Y-5.0854
X5.6572Y-6.3386
X5.6572Y-6.3923
X5.6572Y-6.4691
X5.6574Y-1.868
X5.6594Y-2.4592
X5.6594Y-2.565
X5.6594Y-2.6161
X5.6843Y-2.484
X5.689Y-2.5906
X5.6894Y-1.868
X5.7012Y-3.1008
X5.7035Y-4.5204
X5.7035Y-5.9041
X5.7075Y-2.122
X5.737Y-2.376
X5.7402Y-2.5906
X5.7441Y-2.8543
X5.748Y-2.1836
X5.748Y-2.2111
X5.7638Y-2.4094
X5.7672Y-3.9847
X5.7692Y-3.808
X5.7694Y-5.4043
X5.7694Y-6.788
X5.7697Y-2.6161
X5.7714Y-5.2276
X5.7714Y-6.6114
X5.7829Y-2.8537
X5.7902Y-2.376
X5.8012Y-2.565
X5.812Y-3.0693
X5.8142Y-4.4889
X5.8142Y-5.8726
X5.815Y-6.8441
X5.8169Y-2.4094
X5.8189Y-2.8543
X5.821Y-3.5302
X5.8213Y-3.5595
X5.8223Y-3.591
X5.8232Y-4.9498
X5.8232Y-6.3335
X5.8236Y-4.9791
X5.8236Y-6.3628
X5.8246Y-5.0106
X5.8246Y-6.3943
X5.8248Y-2.5906
X5.8255Y-2.4952
X5.8433Y-2.376
X5.8465Y-2.5157
X5.8465Y-4.0591
X5.8469Y-3.2455
X5.8479Y-2.6167
X5.8492Y-4.6651
X5.8492Y-6.0488
X5.8573Y-2.1407
X5.8656Y-3.6784
X5.8677Y-2.5371
X5.8679Y-5.0984
X5.8679Y-6.4817
X5.8691Y-1.9094
X5.8701Y-2.035
X5.8701Y-2.0752
X5.8701Y-2.4094
X5.878Y-5.4816
X5.8833Y-3.2455
X5.8855Y-4.6651
X5.8855Y-6.0489
X5.8863Y-4.2065
X5.8932Y-3.6786
X5.8954Y-5.0982
X5.8954Y-6.4819
X5.9055Y-2.8307
X5.9077Y-4.3895
X5.9077Y-5.7732
X5.9094Y-7.0039
X5.9161Y-5.6112
X5.9207Y-3.6786
X5.923Y-5.0982
X5.923Y-6.4819
X5.9272Y-2.688
X5.9313Y-3.0697
X5.935Y-2.2589
X5.9404Y-2.9764
X5.9411Y-3.4012
X5.9411Y-3.4642
X5.9411Y-3.5272
X5.9434Y-4.8208
X5.9434Y-4.8838
X5.9434Y-4.9468
X5.9434Y-6.2046
X5.9434Y-6.2676
X5.9434Y-6.3306
X5.9528Y-4.3898
X5.9528Y-5.7756
X5.9705Y-2.2589
X5.9726Y-3.4327
X5.9726Y-3.4957
X5.9749Y-4.8523
X5.9749Y-4.9153
X5.9749Y-6.2361
X5.9749Y-6.2991
X5.9823Y-2.8307
X5.9921Y-2.0827
X6.0041Y-3.4012
X6.0041Y-3.4642
X6.0041Y-3.5272
X6.0064Y-4.8208
X6.0064Y-4.8838
X6.0064Y-4.9468
X6.0064Y-6.2046
X6.0064Y-6.2676
X6.0064Y-6.3306
X6.0079Y-2.561
X6.0079Y-2.5886
X6.0079Y-2.6516
X6.0217Y-2.1314
X6.026Y-3.6434
X6.0269Y-6.4481
X6.0283Y-5.063
X6.0349Y-3.2268
X6.0356Y-3.4327
X6.0356Y-3.4957
X6.0359Y-3.7455
X6.0372Y-4.6464
X6.0372Y-6.0301
X6.0379Y-4.8523
X6.0379Y-4.9153
X6.0379Y-6.2361
X6.0379Y-6.2991
X6.0381Y-5.1651
X6.0381Y-6.5488
X6.0571Y-3.0551
X6.0571Y-3.1693
X6.0634Y-3.2445
X6.0657Y-4.6641
X6.0657Y-6.0478
X6.0671Y-3.4012
X6.0671Y-3.4642
X6.0671Y-3.5272
X6.0689Y-5.8602
X6.0694Y-4.8208
X6.0694Y-4.8838
X6.0694Y-4.9468
X6.0694Y-6.2046
X6.0694Y-6.2676
X6.0694Y-6.3306
X6.0698Y-4.4794
X6.0706Y-4.5903
X6.0706Y-5.974
X6.0802Y-3.6431
X6.0824Y-5.0627
X6.0824Y-6.4465
X6.093Y-3.2622
X6.0942Y-5.5591
X6.0952Y-4.6818
X6.0952Y-6.0655
X6.0957Y-4.1582
X6.0996Y-6.9614
X6.1117Y-3.6431
X6.1139Y-5.0627
X6.1139Y-6.4465
X6.1161Y-1.8323
X6.1181Y-2.0827
X6.1205Y-3.2799
X6.1228Y-4.6995
X6.1228Y-6.0833
X6.1434Y-3.6431
X6.1457Y-5.0627
X6.1457Y-6.4465
X6.1575Y-2.4882
X6.1575Y-3.2382
X6.185Y-3.5758
X6.1868Y-4.5627
X6.1868Y-5.9465
X6.189Y-4.9951
X6.189Y-6.3788
X6.1946Y-4.6562
X6.1946Y-6.04
X6.1969Y-3.2382
X6.2008Y-4.8465
X6.2047Y-3.4252
X6.2087Y-3.5945
X6.2106Y-2.1314
X6.2126Y-6.2323
X6.2126Y-6.4016
X6.2165Y-5.0118
X6.2293Y-3.4026
X6.234Y-4.6956
X6.234Y-6.0793
X6.235Y-5.56
X6.2362Y-4.8228
X6.2362Y-6.2047
X6.2365Y-4.1592
X6.2404Y-6.9624
X6.2411Y-6.3858
X6.2431Y-2.0827
X6.2431Y-2.1683
X6.2431Y-2.2313
X6.2453Y-6.6487
X6.2455Y-3.8479
X6.2478Y-5.2675
X6.248Y-3.5874
X6.248Y-5.0
X6.279Y-3.374
X6.2812Y-4.7992
X6.2812Y-6.1772
X6.2844Y-2.564
X6.2854Y-2.6102
X6.2854Y-2.6575
X6.2854Y-2.7047
X6.2894Y-2.1053
X6.2982Y-2.8652
X6.3049Y-3.4653
X6.3076Y-4.8927
X6.3076Y-6.2677
X6.3425Y-5.8031
X6.3524Y-3.0472
X6.3524Y-4.4429
X6.3545Y-3.3757
X6.3568Y-4.7953
X6.3568Y-6.179
X6.4119Y-3.1953
X6.4141Y-4.6149
X6.4141Y-5.9986
X6.4764Y-2.0561
X6.5142Y-2.9921
X6.5142Y-3.0315
X6.5142Y-3.0807
X6.5143Y-4.4104
X6.5143Y-5.7942
X6.5145Y-4.4488
X6.5145Y-5.8325
X6.5162Y-2.2712
X6.5165Y-4.4928
X6.5165Y-5.8766
X6.5846Y-2.5571
X6.5846Y-2.5984
X6.5846Y-2.6398
T2
X3.7244Y-1.8898
X3.7244Y-6.9291
X3.7521Y-1.823
X3.7521Y-1.9566
X3.7521Y-6.8623
X3.7521Y-6.9959
X3.8189Y-1.7953
X3.8189Y-1.9843
X3.8189Y-6.8346
X3.8189Y-7.0236
X3.8857Y-1.823
X3.8857Y-1.9566
X3.8857Y-6.8623
X3.8857Y-6.9959
X3.9134Y-1.8898
X3.9134Y-6.9291
X6.4016Y-1.8898
X6.4016Y-6.9291
X6.4292Y-1.823
X6.4292Y-1.9566
X6.4292Y-6.8623
X6.4292Y-6.9959
X6.4961Y-1.7953
X6.4961Y-1.9843
X6.4961Y-6.8346
X6.4961Y-7.0236
X6.5629Y-1.823
X6.5629Y-1.9566
X6.5629Y-6.8623
X6.5629Y-6.9959
X6.5906Y-1.8898
X6.5906Y-6.9291
T4
X4.0553Y-2.9811
X4.0553Y-3.1504
X4.0641Y-4.4007
X4.0641Y-4.57
X4.0641Y-5.7865
X4.0641Y-5.9558
X4.2443Y-2.9811
X4.2443Y-3.1504
X4.2531Y-4.4007
X4.2531Y-4.57
X4.2531Y-5.7865
X4.2531Y-5.9558
X5.4682Y-2.9815
X5.4682Y-3.1508
X5.4704Y-4.4011
X5.4704Y-4.5704
X5.4704Y-5.7848
X5.4704Y-5.9541
X5.6572Y-2.9815
X5.6572Y-3.1508
X5.6594Y-4.4011
X5.6594Y-4.5704
X5.6594Y-5.7848
X5.6594Y-5.9541
T5
X3.7431Y-2.3976
X3.7431Y-2.8307
T6
X4.1368Y-2.5157
X4.1368Y-2.7126
T7
X3.8189Y-1.8898
X3.8189Y-6.9291
X6.4961Y-1.8898
X6.4961Y-6.9291
T3
G00X5.9461Y-1.848
M15
G01X5.9461Y-1.8165
M16
G05
G00X5.9461Y-2.0193
M15
G01X5.9461Y-1.976
M16
G05
G00X6.2862Y-1.848
M15
G01X6.2862Y-1.8165
M16
G05
G00X6.2862Y-2.0193
M15
G01X6.2862Y-1.976
M16
G05
M30
