%TF.GenerationSoftware,KiCad,Pcbnew,9.0.0*%
%TF.CreationDate,2025-05-05T23:42:48+04:00*%
%TF.ProjectId,Dumpling_Main,44756d70-6c69-46e6-975f-4d61696e2e6b,rev?*%
%TF.SameCoordinates,Original*%
%TF.FileFunction,Copper,L6,Bot*%
%TF.FilePolarity,Positive*%
%FSLAX46Y46*%
G04 Gerber Fmt 4.6, Leading zero omitted, Abs format (unit mm)*
G04 Created by KiCad (PCBNEW 9.0.0) date 2025-05-05 23:42:48*
%MOMM*%
%LPD*%
G01*
G04 APERTURE LIST*
G04 Aperture macros list*
%AMRoundRect*
0 Rectangle with rounded corners*
0 $1 Rounding radius*
0 $2 $3 $4 $5 $6 $7 $8 $9 X,Y pos of 4 corners*
0 Add a 4 corners polygon primitive as box body*
4,1,4,$2,$3,$4,$5,$6,$7,$8,$9,$2,$3,0*
0 Add four circle primitives for the rounded corners*
1,1,$1+$1,$2,$3*
1,1,$1+$1,$4,$5*
1,1,$1+$1,$6,$7*
1,1,$1+$1,$8,$9*
0 Add four rect primitives between the rounded corners*
20,1,$1+$1,$2,$3,$4,$5,0*
20,1,$1+$1,$4,$5,$6,$7,0*
20,1,$1+$1,$6,$7,$8,$9,0*
20,1,$1+$1,$8,$9,$2,$3,0*%
G04 Aperture macros list end*
%TA.AperFunction,ComponentPad*%
%ADD10C,0.800000*%
%TD*%
%TA.AperFunction,ComponentPad*%
%ADD11C,6.400000*%
%TD*%
%TA.AperFunction,SMDPad,CuDef*%
%ADD12C,1.000000*%
%TD*%
%TA.AperFunction,SMDPad,CuDef*%
%ADD13C,1.500000*%
%TD*%
%TA.AperFunction,ComponentPad*%
%ADD14O,1.000000X2.100000*%
%TD*%
%TA.AperFunction,ComponentPad*%
%ADD15O,1.000000X1.800000*%
%TD*%
%TA.AperFunction,ComponentPad*%
%ADD16C,1.400000*%
%TD*%
%TA.AperFunction,ComponentPad*%
%ADD17RoundRect,0.770000X0.980000X-0.980000X0.980000X0.980000X-0.980000X0.980000X-0.980000X-0.980000X0*%
%TD*%
%TA.AperFunction,ComponentPad*%
%ADD18C,3.500000*%
%TD*%
%TA.AperFunction,ComponentPad*%
%ADD19C,1.100000*%
%TD*%
%TA.AperFunction,HeatsinkPad*%
%ADD20C,1.100000*%
%TD*%
%TA.AperFunction,ViaPad*%
%ADD21C,0.500000*%
%TD*%
%TA.AperFunction,ViaPad*%
%ADD22C,0.600000*%
%TD*%
%TA.AperFunction,ViaPad*%
%ADD23C,0.700000*%
%TD*%
%TA.AperFunction,Conductor*%
%ADD24C,0.200000*%
%TD*%
%TA.AperFunction,Conductor*%
%ADD25C,0.250000*%
%TD*%
%TA.AperFunction,Conductor*%
%ADD26C,0.300000*%
%TD*%
%TA.AperFunction,Conductor*%
%ADD27C,0.500000*%
%TD*%
G04 APERTURE END LIST*
D10*
%TO.P,H3,1*%
%TO.N,N/C*%
X99400000Y-176000000D03*
X98697056Y-177697056D03*
X98697056Y-174302944D03*
X97000000Y-178400000D03*
D11*
X97000000Y-176000000D03*
D10*
X97000000Y-173600000D03*
X95302944Y-177697056D03*
X95302944Y-174302944D03*
X94600000Y-176000000D03*
%TD*%
D12*
%TO.P,TP5,1,1*%
%TO.N,SPI1_MOSI*%
X164500000Y-63550000D03*
%TD*%
%TO.P,TP10,1,1*%
%TO.N,SPI2_MISO*%
X164500000Y-58800000D03*
%TD*%
D13*
%TO.P,VIN1,1,1*%
%TO.N,VIN*%
X99400000Y-63300000D03*
%TD*%
D12*
%TO.P,TP8,1,1*%
%TO.N,SPI1_NSS*%
X164500000Y-69550000D03*
%TD*%
%TO.P,TP9,1,1*%
%TO.N,SPI2_MOSI*%
X164500000Y-56800000D03*
%TD*%
%TO.P,TP6,1,1*%
%TO.N,SPI1_MISO*%
X164500000Y-65550000D03*
%TD*%
%TO.P,TP3,1,1*%
%TO.N,I2C2_SDA*%
X164500000Y-72600000D03*
%TD*%
%TO.P,TP11,1,1*%
%TO.N,SPI2_SCK*%
X164500000Y-60800000D03*
%TD*%
%TO.P,TP7,1,1*%
%TO.N,SPI1_SCK*%
X164500000Y-67550000D03*
%TD*%
%TO.P,TP1,1,1*%
%TO.N,I2C1_SDA*%
X99400000Y-73625000D03*
%TD*%
D13*
%TO.P,VBAT1,1,1*%
%TO.N,VBAT*%
X99400000Y-69300000D03*
%TD*%
%TO.P,VBUS1,1,1*%
%TO.N,VBUS*%
X99400000Y-66300000D03*
%TD*%
D12*
%TO.P,TP2,1,1*%
%TO.N,I2C1_SCL*%
X99400000Y-75925000D03*
%TD*%
%TO.P,TP4,1,1*%
%TO.N,I2C2_SCL*%
X164500000Y-74600000D03*
%TD*%
D10*
%TO.P,H1,1*%
%TO.N,N/C*%
X94600000Y-48000000D03*
X95302944Y-46302944D03*
X95302944Y-49697056D03*
X97000000Y-45600000D03*
D11*
X97000000Y-48000000D03*
D10*
X97000000Y-50400000D03*
X98697056Y-46302944D03*
X98697056Y-49697056D03*
X99400000Y-48000000D03*
%TD*%
%TO.P,H2,1*%
%TO.N,N/C*%
X162600000Y-176000000D03*
X163302944Y-174302944D03*
X163302944Y-177697056D03*
X165000000Y-173600000D03*
D11*
X165000000Y-176000000D03*
D10*
X165000000Y-178400000D03*
X166697056Y-174302944D03*
X166697056Y-177697056D03*
X167400000Y-176000000D03*
%TD*%
%TO.P,H4,1*%
%TO.N,N/C*%
X162600000Y-48000000D03*
X163302944Y-46302944D03*
X163302944Y-49697056D03*
X165000000Y-45600000D03*
D11*
X165000000Y-48000000D03*
D10*
X165000000Y-50400000D03*
X166697056Y-46302944D03*
X166697056Y-49697056D03*
X167400000Y-48000000D03*
%TD*%
D14*
%TO.P,J3,S1,SHIELD*%
%TO.N,GND*%
X159670000Y-50740000D03*
D15*
X159670000Y-46540000D03*
D14*
X151030000Y-50740000D03*
D15*
X151030000Y-46540000D03*
%TD*%
D16*
%TO.P,J4,*%
%TO.N,*%
X95075000Y-71900000D03*
X95075000Y-60900000D03*
D17*
%TO.P,J4,1,N*%
%TO.N,GND*%
X105075000Y-63900000D03*
D18*
%TO.P,J4,2,P*%
%TO.N,Net-(J4-P)*%
X105075000Y-68900000D03*
%TD*%
D19*
%TO.P,J8,S1,SHIELD*%
%TO.N,GND*%
X103005500Y-75719500D03*
X103005500Y-80019500D03*
X107805500Y-75719500D03*
X107805500Y-80019500D03*
%TD*%
%TO.P,J11,S1,SHIELD*%
%TO.N,GND*%
X103229352Y-111777298D03*
X103229352Y-116077298D03*
X108029352Y-111777298D03*
X108029352Y-116077298D03*
%TD*%
%TO.P,J14,S1,SHIELD*%
%TO.N,GND*%
X138949170Y-111787845D03*
X138949170Y-116087845D03*
X143749170Y-111787845D03*
X143749170Y-116087845D03*
%TD*%
%TO.P,J17,S1,SHIELD*%
%TO.N,GND*%
X103229352Y-146977298D03*
X103229352Y-151277298D03*
X108029352Y-146977298D03*
X108029352Y-151277298D03*
%TD*%
%TO.P,J20,S1,SHIELD*%
%TO.N,GND*%
X138949170Y-146934422D03*
X138949170Y-151234422D03*
X143749170Y-146934422D03*
X143749170Y-151234422D03*
%TD*%
D20*
%TO.P,J23,S1,SHIELD*%
%TO.N,GND*%
X138891670Y-75730048D03*
X138891670Y-80030048D03*
X143691670Y-75730048D03*
X143691670Y-80030048D03*
%TD*%
D21*
%TO.N,GND*%
X122625000Y-91400000D03*
%TO.N,+3V3*%
X121625000Y-91400000D03*
X104750000Y-48500000D03*
X134943670Y-154596039D03*
X121623852Y-153457798D03*
X110874852Y-132771707D03*
X113124127Y-93425873D03*
X103250000Y-45500000D03*
X141934761Y-107636957D03*
X140200000Y-70800000D03*
X147943670Y-127268345D03*
X104750000Y-46250000D03*
X117500000Y-150800000D03*
X112848852Y-153682798D03*
X110600000Y-101200000D03*
X154793670Y-141200000D03*
X157900000Y-127300000D03*
X103250000Y-46250000D03*
X167250000Y-66000000D03*
X134943670Y-119449462D03*
X104000000Y-46250000D03*
X112625000Y-82425000D03*
X104000000Y-45500000D03*
X165461170Y-78250000D03*
X146543670Y-172414922D03*
X106272443Y-143684207D03*
X143543670Y-155714922D03*
X101750000Y-46250000D03*
X129518413Y-75956587D03*
X120300000Y-70160000D03*
X129798852Y-114107798D03*
X149686156Y-93436421D03*
X127600000Y-67525000D03*
X104000000Y-47750000D03*
X104750000Y-45500000D03*
X157700000Y-91300000D03*
X134886170Y-83391665D03*
X110874852Y-167971707D03*
X101750000Y-47000000D03*
X157343670Y-153414922D03*
X107823852Y-120557798D03*
X146543670Y-137268345D03*
X129575000Y-78050000D03*
X103250000Y-47750000D03*
X146486170Y-101210548D03*
X112000000Y-91200000D03*
X105500000Y-45500000D03*
X150750000Y-57375000D03*
X147886170Y-91210548D03*
X129742265Y-147214385D03*
X149100000Y-51690000D03*
X148511170Y-82435548D03*
X102500000Y-48500000D03*
X118297500Y-69525000D03*
X112223852Y-127257798D03*
X101750000Y-48500000D03*
X110823852Y-137257798D03*
D22*
X156400000Y-82250000D03*
D21*
X150550000Y-68275000D03*
X106272443Y-178884207D03*
X101750000Y-45500000D03*
D22*
X153850000Y-80500000D03*
D21*
X149743656Y-164640795D03*
X110823852Y-172457798D03*
X156400000Y-63200000D03*
X122100000Y-162500000D03*
X103250000Y-48500000D03*
X98000000Y-84500000D03*
X105500000Y-46250000D03*
X107600000Y-84500000D03*
X102500000Y-47750000D03*
X157800000Y-162600000D03*
X144970000Y-53900000D03*
X145900000Y-72500000D03*
X143486170Y-84510548D03*
X104000000Y-48500000D03*
X114023838Y-164683671D03*
X148568670Y-118493345D03*
X111950000Y-71200003D03*
X157343670Y-118268345D03*
X107823852Y-155757798D03*
X143543670Y-120568345D03*
X165462083Y-112024932D03*
X114023838Y-129483671D03*
X101750000Y-47750000D03*
X158575000Y-55075000D03*
X118700000Y-173800000D03*
X165461170Y-76000000D03*
X147943670Y-162414922D03*
X106048591Y-107626409D03*
X149743656Y-129494218D03*
X154193670Y-151739922D03*
X105500000Y-48500000D03*
X99223852Y-154638915D03*
X165518670Y-149264922D03*
X150000000Y-71900000D03*
X146594670Y-132782254D03*
X104750000Y-47750000D03*
X129742265Y-112014385D03*
X104750000Y-47000000D03*
X141055243Y-56568407D03*
X105500000Y-47750000D03*
X138950000Y-58955000D03*
X165462083Y-147171509D03*
X112848852Y-118482798D03*
X104000000Y-47000000D03*
X102500000Y-45500000D03*
X148568670Y-153639922D03*
X142750000Y-70900000D03*
X102500000Y-46250000D03*
X122400000Y-82400000D03*
X117500000Y-115600000D03*
X105500000Y-47000000D03*
X129798852Y-149307798D03*
X129100000Y-59700000D03*
X102500000Y-47000000D03*
X146537170Y-96724457D03*
X118250000Y-80525000D03*
X110651000Y-96713909D03*
X165518670Y-114118345D03*
X112223852Y-162457798D03*
X103250000Y-47000000D03*
X146594670Y-167928831D03*
X99223852Y-119438915D03*
X141992261Y-178841331D03*
X121623852Y-118257798D03*
X154193670Y-116593345D03*
X141992261Y-143694754D03*
X154931095Y-176818905D03*
X121374936Y-64950064D03*
X122100000Y-127300000D03*
%TO.N,SDIO_D7*%
X159650000Y-68700000D03*
X152600000Y-65050000D03*
%TO.N,IMU_INT*%
X147968506Y-63378321D03*
X149100000Y-52710000D03*
%TO.N,I2C3_SCL*%
X144509880Y-47446707D03*
X148500000Y-63900000D03*
%TO.N,Net-(U26-EN)*%
X118300000Y-55850000D03*
X124180000Y-55839000D03*
%TO.N,Net-(U25-EN)*%
X109499000Y-55169000D03*
X106150000Y-55150000D03*
D23*
%TO.N,Net-(U26-SW)*%
X126261000Y-54070000D03*
X124680000Y-48489000D03*
%TO.N,Net-(U25-SW)*%
X112050000Y-53569000D03*
X110250000Y-48019000D03*
D21*
%TO.N,USART_RX*%
X138650000Y-56400000D03*
X141650000Y-62450000D03*
%TO.N,I2C3_SDA*%
X143696733Y-47446680D03*
X149038654Y-64442168D03*
%TO.N,USART_TX*%
X141075000Y-63100000D03*
X137900000Y-56400000D03*
%TO.N,co6_SPI1_MOSI*%
X161462083Y-156946509D03*
X162918670Y-152364922D03*
%TO.N,SPI2_NSS6*%
X134500000Y-163500000D03*
X143750000Y-62463174D03*
X155518670Y-154514922D03*
%TO.N,co5_SPI1_MOSI*%
X125742265Y-156989385D03*
X127211352Y-152200000D03*
%TO.N,SPI2_NSS5*%
X98700000Y-163457798D03*
X144500000Y-65800000D03*
X119798852Y-152400000D03*
%TO.N,co2_SPI1_MOSI*%
X161404583Y-85742135D03*
X162861170Y-81160548D03*
%TO.N,co4_SPI1_MOSI*%
X161462083Y-121799932D03*
X162918670Y-117218345D03*
%TO.N,SPI2_NSS4*%
X134500000Y-128400000D03*
X152600000Y-65750003D03*
X155518670Y-119368345D03*
%TO.N,SPI2_NSS2*%
X152600000Y-67350000D03*
X134400000Y-92210548D03*
X155461170Y-83310548D03*
%TO.N,co1_SPI1_MOSI*%
X125518413Y-85731587D03*
X126975000Y-80700000D03*
%TO.N,co3_SPI1_MOSI*%
X127211352Y-117000000D03*
X125742265Y-121789385D03*
%TO.N,SPI2_NSS3*%
X134850000Y-71900000D03*
X119798852Y-117300000D03*
X98700000Y-128300000D03*
%TO.N,SPI2_NSS1*%
X135850000Y-71900000D03*
X98100000Y-92200000D03*
X119500000Y-80600000D03*
%TO.N,SPI2_SCK*%
X119098852Y-154107798D03*
X154818670Y-154064922D03*
X148536826Y-66463174D03*
X119098852Y-118907798D03*
X154818670Y-118918345D03*
X118875000Y-82850000D03*
X154761170Y-82860548D03*
%TO.N,SPI2_MISO*%
X118125000Y-82400000D03*
X154068670Y-118468345D03*
X118348852Y-153657798D03*
X154011170Y-82410548D03*
X147950000Y-65800000D03*
X118348852Y-118457798D03*
X154068670Y-153614922D03*
%TO.N,SPI2_MOSI*%
X117623852Y-153207798D03*
X153343670Y-153164922D03*
X153343670Y-118018345D03*
X147350000Y-65150000D03*
X117623852Y-118007798D03*
X117400000Y-81950000D03*
X153286170Y-81960548D03*
%TO.N,SPI1_NSS*%
X123550000Y-68100000D03*
X142300000Y-65150000D03*
%TO.N,SPI1_SCK*%
X142300000Y-66475000D03*
X130750000Y-70200000D03*
%TO.N,SPI1_MISO*%
X143750000Y-65150000D03*
X123550000Y-68925000D03*
%TO.N,SPI1_MOSI*%
X131350000Y-71450000D03*
X143750000Y-66450000D03*
%TO.N,co6_FLASH_WP*%
X150443658Y-164639855D03*
X154150000Y-148850000D03*
%TO.N,co6_FLASH_HOLD*%
X161100000Y-147400000D03*
X147910127Y-160871173D03*
%TO.N,co5_FLASH_WP*%
X114723840Y-164682731D03*
X118450000Y-148950000D03*
%TO.N,co5_FLASH_HOLD*%
X112190309Y-160914049D03*
X125600000Y-148000000D03*
%TO.N,co4_FLASH_WP*%
X154172610Y-113776947D03*
X150443658Y-129493278D03*
%TO.N,co4_FLASH_HOLD*%
X147910127Y-125724596D03*
X161350000Y-112850000D03*
%TO.N,co3_FLASH_WP*%
X114723840Y-129482731D03*
X118450000Y-113550000D03*
%TO.N,co3_FLASH_HOLD*%
X125550000Y-112950000D03*
X112190309Y-125714049D03*
%TO.N,co2_FLASH_WP*%
X150386158Y-93435481D03*
D22*
X153850000Y-77600000D03*
D21*
%TO.N,co2_FLASH_HOLD*%
X147852627Y-89666799D03*
X161350000Y-77400000D03*
%TO.N,Trigger*%
X160213083Y-159200000D03*
X136750000Y-59000000D03*
X124525000Y-159300000D03*
X124200000Y-88050000D03*
X124500000Y-124050000D03*
X160144087Y-88019087D03*
X160212083Y-124273440D03*
%TO.N,I2C2_SCL*%
X122400000Y-87125000D03*
X122700000Y-122700000D03*
X158225000Y-86425000D03*
X158400000Y-157600000D03*
X146885000Y-72485000D03*
X158400000Y-122500000D03*
X122773852Y-157750000D03*
%TO.N,I2C2_SDA*%
X147800000Y-72500000D03*
X147861170Y-90410548D03*
X147918670Y-161614922D03*
X111975000Y-90400000D03*
X112198852Y-126457798D03*
X112198852Y-161657798D03*
X147918670Y-126468345D03*
%TO.N,I2C1_SCL*%
X119187500Y-71900000D03*
%TO.N,I2C1_SDA*%
X118750000Y-71325000D03*
%TO.N,co1_FLASH_WP*%
X114100000Y-93450000D03*
X118250000Y-77650000D03*
%TO.N,co1_FLASH_HOLD*%
X125550000Y-77750000D03*
X111966457Y-89656251D03*
%TO.N,buzzer*%
X131550000Y-63150000D03*
X140306587Y-61106587D03*
%TO.N,Net-(SW1-B)*%
X139700000Y-52090000D03*
X158575000Y-56675000D03*
%TO.N,BOOT0*%
X139700000Y-54615000D03*
X142400000Y-60150000D03*
%TO.N,VBAT*%
X108375000Y-65425000D03*
%TO.N,co6_gpio1*%
X143693670Y-162364922D03*
X154493670Y-163739922D03*
%TO.N,co6_pwr_cyc*%
X157800000Y-158300000D03*
X142793670Y-162814922D03*
%TO.N,co6_gpio2*%
X143400000Y-161714922D03*
X155293670Y-163739922D03*
%TO.N,co6_gpio4*%
X139617575Y-157514922D03*
X157200000Y-162021017D03*
%TO.N,co6_gpio3*%
X156099765Y-163739922D03*
X143693670Y-161000000D03*
%TO.N,co6_USB_D-_ESD*%
X141749170Y-148300000D03*
X140939170Y-149844422D03*
X151200000Y-146700000D03*
%TO.N,co5_gpio2*%
X107623852Y-161801581D03*
X119573852Y-163782798D03*
%TO.N,co5_gpio4*%
X121400000Y-162063893D03*
X103897757Y-157557798D03*
%TO.N,co5_pwr_cyc*%
X107050000Y-163150000D03*
X122000000Y-158200000D03*
%TO.N,co5_gpio3*%
X107981926Y-161112344D03*
X120379947Y-163782798D03*
%TO.N,co5_gpio1*%
X118773852Y-163782798D03*
X107973852Y-162407798D03*
%TO.N,co5_USB_D-_ESD*%
X105219352Y-149887298D03*
X115400000Y-146700000D03*
X106021477Y-148407875D03*
%TO.N,co4_gpio4*%
X157200000Y-126874440D03*
X139617575Y-122368345D03*
%TO.N,co4_pwr_cyc*%
X142793670Y-127668345D03*
X157500000Y-123100000D03*
%TO.N,co4_gpio1*%
X154493670Y-128593345D03*
X143693670Y-127218345D03*
%TO.N,co4_gpio2*%
X143400000Y-126500000D03*
X155293670Y-128593345D03*
%TO.N,co4_gpio3*%
X156099765Y-128593345D03*
X143693670Y-125800000D03*
%TO.N,co4_USB_D-_ESD*%
X151200000Y-111500000D03*
X141749170Y-113100000D03*
X140939170Y-114697845D03*
%TO.N,co3_gpio4*%
X121400000Y-126863893D03*
X103897757Y-122357798D03*
%TO.N,co3_gpio2*%
X107700000Y-126500000D03*
X119573852Y-128582798D03*
%TO.N,co3_pwr_cyc*%
X121900000Y-123100000D03*
X107073852Y-127657798D03*
%TO.N,co3_gpio3*%
X120379947Y-128582798D03*
X107973852Y-125807798D03*
%TO.N,co3_gpio1*%
X118773852Y-128582798D03*
X107973852Y-127207798D03*
%TO.N,co3_USB_D-_ESD*%
X105219352Y-114687298D03*
X115400000Y-111500000D03*
X106029352Y-113100000D03*
%TO.N,co2_gpio2*%
X155236170Y-92535548D03*
X143300000Y-90510548D03*
%TO.N,co2_gpio3*%
X143636170Y-89860548D03*
X156042265Y-92535548D03*
%TO.N,co2_pwr_cyc*%
X157600000Y-87000000D03*
X142736170Y-91610548D03*
%TO.N,co2_gpio1*%
X143637517Y-91160480D03*
X154436170Y-92535548D03*
%TO.N,co2_gpio4*%
X139560075Y-86310548D03*
X157100000Y-90825000D03*
%TO.N,co1_USB_D-_ESD*%
X115000000Y-75400000D03*
X104995500Y-78629500D03*
X105785500Y-77109500D03*
%TO.N,co1_gpio4*%
X103673905Y-86300000D03*
X121200000Y-90806095D03*
%TO.N,co1_pwr_cyc*%
X106850000Y-91600000D03*
X121375000Y-87100000D03*
%TO.N,co1_gpio3*%
X107750000Y-89750000D03*
X120156095Y-92525000D03*
%TO.N,co1_gpio2*%
X107400000Y-90500000D03*
X119350000Y-92525000D03*
%TO.N,co1_gpio1*%
X107750000Y-91150000D03*
X118550000Y-92525000D03*
%TO.N,co2_USB_D-_ESD*%
X150886170Y-75600000D03*
X141671670Y-77120048D03*
X140881670Y-78640048D03*
%TO.N,SDIO_CMD*%
X167250000Y-64950000D03*
X145720924Y-60350000D03*
%TO.N,SDIO_CLK*%
X159650000Y-67500000D03*
X146400000Y-61200000D03*
%TO.N,SDIO_D2*%
X147750000Y-61200000D03*
X159625000Y-65125000D03*
%TO.N,SDIO_D3*%
X147070924Y-60350000D03*
X159650000Y-66300000D03*
%TO.N,SWCLK*%
X99850000Y-55600000D03*
X148420924Y-60350000D03*
%TO.N,SWDIO*%
X149100000Y-61200000D03*
X99850000Y-54475000D03*
%TO.N,co6_RGB_LED*%
X159543670Y-156900000D03*
D22*
X136075765Y-156938922D03*
%TO.N,co5_RGB_LED*%
X100355947Y-156981798D03*
D21*
X123823852Y-157100000D03*
%TO.N,co4_RGB_LED*%
X159543670Y-121900000D03*
D22*
X136075765Y-121792345D03*
D21*
%TO.N,co3_RGB_LED*%
X123823852Y-121900000D03*
D22*
X100355947Y-121781798D03*
%TO.N,co2_RGB_LED*%
X136018265Y-85734548D03*
D21*
X159487731Y-85700000D03*
%TO.N,co1_RGB_LED*%
X123600000Y-86200000D03*
D22*
X100132095Y-85724000D03*
D21*
%TO.N,RGB_LED*%
X140297250Y-60127520D03*
X130425000Y-61900000D03*
%TO.N,VBUS*%
X147623670Y-77960548D03*
X104579352Y-151257798D03*
X142443670Y-147114922D03*
X140299170Y-151214922D03*
X104579352Y-116057798D03*
X142443670Y-111968345D03*
X106723852Y-147157798D03*
X140299170Y-116068345D03*
X111961352Y-149207798D03*
X142386170Y-75910548D03*
X104355500Y-80000000D03*
X106723852Y-111957798D03*
X111961352Y-114007798D03*
D23*
X152950000Y-54137500D03*
X157750000Y-54137500D03*
X114050000Y-62937500D03*
D21*
X147681170Y-149164922D03*
X140241670Y-80010548D03*
X106500000Y-75900000D03*
X147681170Y-114018345D03*
X111737500Y-77950000D03*
%TO.N,co6_NRST*%
X147700000Y-173839221D03*
X146000000Y-55462834D03*
X153082252Y-163782252D03*
%TO.N,co5_NRST*%
X112200000Y-174100000D03*
X117398852Y-163788711D03*
X146000000Y-56162837D03*
%TO.N,co4_NRST*%
X144380913Y-63094087D03*
X153118670Y-128599258D03*
X149300000Y-139231655D03*
%TO.N,co3_NRST*%
X146550000Y-66450000D03*
X117398852Y-128588711D03*
X113950000Y-139200000D03*
%TO.N,co2_NRST*%
X145800000Y-65800000D03*
X148500000Y-103100000D03*
X153061170Y-92541461D03*
D23*
%TO.N,+5V*%
X142943670Y-170914922D03*
D21*
X117450000Y-47750000D03*
X159750000Y-53475000D03*
X119700000Y-47750000D03*
D23*
X119900000Y-56600000D03*
D21*
X119700000Y-45500000D03*
X116700000Y-47750000D03*
X116700000Y-47000000D03*
D23*
X96750000Y-100000000D03*
D21*
X117450000Y-46250000D03*
X117450000Y-47000000D03*
X118950000Y-46250000D03*
X119700000Y-47000000D03*
X117450000Y-45500000D03*
D23*
X107223852Y-135757798D03*
D21*
X118950000Y-48500000D03*
X118950000Y-45500000D03*
X118200000Y-47000000D03*
X118200000Y-48500000D03*
D23*
X127980000Y-45979500D03*
D21*
X116700000Y-45500000D03*
X118200000Y-46250000D03*
X116700000Y-46250000D03*
X119700000Y-48500000D03*
X127950000Y-45249982D03*
X118200000Y-45500000D03*
D23*
X107223852Y-170957798D03*
X98350000Y-171600000D03*
D21*
X118200000Y-47750000D03*
D23*
X142943670Y-135768345D03*
D21*
X116700000Y-48500000D03*
D23*
X142886170Y-99710548D03*
D21*
X117450000Y-48500000D03*
X139250000Y-46450000D03*
X118950000Y-47000000D03*
D23*
X107000000Y-99700000D03*
X96950000Y-136100000D03*
D21*
X119700000Y-46250000D03*
X118950000Y-47750000D03*
%TO.N,VIN*%
X102000000Y-59750000D03*
X105000000Y-59750000D03*
D23*
X134877190Y-100722810D03*
D21*
X102750000Y-59000000D03*
D23*
X103473852Y-135307798D03*
D21*
X104250000Y-59000000D03*
X102000000Y-57500000D03*
X104250000Y-59750000D03*
X102750000Y-57500000D03*
D23*
X103473852Y-170507798D03*
D21*
X103500000Y-58250000D03*
X103500000Y-59750000D03*
X102000000Y-56750000D03*
X102000000Y-58250000D03*
D23*
X103250000Y-99250000D03*
D21*
X102750000Y-59750000D03*
X103500000Y-59000000D03*
D23*
X135077190Y-136722810D03*
D21*
X102750000Y-58250000D03*
D23*
X135177190Y-171922810D03*
D21*
X102000000Y-59000000D03*
%TO.N,co1_NRST*%
X112700000Y-103300000D03*
X142750000Y-71900000D03*
X117175000Y-92530913D03*
D23*
%TO.N,GND*%
X150962575Y-157596017D03*
X115018905Y-86381095D03*
X150962575Y-122449440D03*
D21*
X121423852Y-151082798D03*
D23*
X153305075Y-87191643D03*
X153362575Y-123249440D03*
D21*
X127455000Y-50704500D03*
X158700000Y-127000000D03*
D23*
X153362575Y-159996017D03*
D21*
X109148852Y-150007798D03*
X138993670Y-119468345D03*
X157143670Y-151039922D03*
X149492261Y-118494754D03*
D23*
X115242757Y-125638893D03*
D21*
X107723852Y-177157798D03*
D23*
X152562575Y-122449440D03*
X150905075Y-89591643D03*
D22*
X139340000Y-71787500D03*
D21*
X107723852Y-141957798D03*
X138993670Y-154614922D03*
X139000000Y-101600000D03*
D23*
X154162575Y-122449440D03*
X154105075Y-89591643D03*
D21*
X153311170Y-95135548D03*
D23*
X150905075Y-87991643D03*
X154162575Y-160796017D03*
D21*
X111500000Y-50159500D03*
X138943670Y-165114922D03*
X138880075Y-90904453D03*
X137786170Y-76910548D03*
X129525000Y-76930000D03*
X134036170Y-85810548D03*
X98150000Y-85800000D03*
D23*
X118442757Y-122438893D03*
X117642757Y-123238893D03*
X152562575Y-160796017D03*
X152562575Y-157596017D03*
X151762575Y-124849440D03*
D21*
X159975000Y-72775000D03*
D23*
X118442757Y-124038893D03*
D21*
X117648852Y-131182798D03*
X103273852Y-119457798D03*
X109148852Y-114807798D03*
X138937575Y-162108827D03*
X98373852Y-121857798D03*
X103323852Y-171657798D03*
X165512500Y-57687500D03*
X144868670Y-114818345D03*
X122623852Y-154457798D03*
D23*
X154105075Y-87991643D03*
D21*
X158343670Y-154414922D03*
X103223852Y-129957798D03*
X158525000Y-162200000D03*
X150653907Y-77970995D03*
X114750000Y-78000000D03*
X122900000Y-127100000D03*
X126680000Y-50704500D03*
D23*
X154162575Y-159196017D03*
D21*
X138886170Y-93910548D03*
D23*
X116842757Y-125638893D03*
X151762575Y-159996017D03*
D21*
X103217757Y-126951703D03*
X122973852Y-133782798D03*
X117648852Y-166382798D03*
X101900000Y-76900000D03*
D23*
X116842757Y-160838893D03*
D21*
X112800000Y-51459500D03*
D23*
X152505075Y-86391643D03*
D21*
X139043670Y-171614922D03*
D23*
X151762575Y-123249440D03*
D21*
X125955000Y-50704500D03*
X125955000Y-52079500D03*
X142300000Y-49300000D03*
D23*
X116842757Y-124038893D03*
D21*
X113772443Y-153684207D03*
X167250000Y-67050000D03*
X149075000Y-48500000D03*
X101123852Y-114382798D03*
X103223852Y-163657798D03*
X113772443Y-118484207D03*
D23*
X153362575Y-124849440D03*
X115242757Y-160838893D03*
X154162575Y-157596017D03*
D21*
X149043655Y-129500000D03*
D23*
X115018905Y-87981095D03*
D21*
X155350000Y-46540000D03*
D23*
X116842757Y-122438893D03*
D21*
X113548591Y-82426409D03*
X136843670Y-149539922D03*
X114006095Y-178143905D03*
X165468670Y-112998345D03*
X133195000Y-69800000D03*
X148986170Y-93431530D03*
X103217757Y-162151703D03*
X136843670Y-114393345D03*
X123406095Y-177193905D03*
D23*
X154162575Y-124049440D03*
X152505075Y-87991643D03*
D21*
X153368670Y-166339922D03*
X101123852Y-149582798D03*
X158693670Y-133793345D03*
X121423852Y-115882798D03*
D23*
X117642757Y-124838893D03*
D21*
X122973852Y-168982798D03*
D23*
X154162575Y-125649440D03*
X151762575Y-158396017D03*
X115242757Y-159238893D03*
D21*
X107973852Y-164357798D03*
X102993905Y-90893905D03*
X150056170Y-111493345D03*
X132930000Y-49755000D03*
D23*
X117642757Y-160038893D03*
D21*
X153368670Y-131193345D03*
D22*
X157400000Y-82250000D03*
D21*
X103125000Y-101650000D03*
D23*
X116618905Y-87981095D03*
D21*
X143693670Y-164314922D03*
D23*
X116842757Y-159238893D03*
D21*
X165468670Y-148144922D03*
D23*
X117642757Y-158438893D03*
D21*
X103000000Y-92400000D03*
X139043670Y-136468345D03*
D23*
X151705075Y-88791643D03*
D21*
X113323852Y-164678780D03*
D23*
X115242757Y-122438893D03*
D21*
X125955000Y-51379500D03*
X139050000Y-137725000D03*
X103273852Y-154657798D03*
D23*
X154105075Y-86391643D03*
X117418905Y-88781095D03*
D21*
X155400000Y-52900000D03*
X143386170Y-105910548D03*
D23*
X152562575Y-159196017D03*
D21*
X122925000Y-162300000D03*
X143443670Y-141968345D03*
X117425000Y-95125000D03*
X134155000Y-64550000D03*
X138943670Y-163614922D03*
X103223852Y-128457798D03*
X103000000Y-93900000D03*
X113323852Y-129478780D03*
X122623852Y-119257798D03*
D23*
X116042757Y-158438893D03*
D21*
X111975000Y-93950000D03*
X151650000Y-57375000D03*
X152200000Y-52900000D03*
X150100000Y-177900000D03*
X94700000Y-56870000D03*
X137843670Y-148114922D03*
D23*
X150962575Y-124049440D03*
X150962575Y-159196017D03*
D21*
X126680000Y-51379500D03*
X144868670Y-149964922D03*
X121100000Y-79200000D03*
X129748852Y-112987798D03*
X129748852Y-148187798D03*
X144811170Y-78760548D03*
X137843670Y-112968345D03*
X157143670Y-115893345D03*
X114336352Y-111482798D03*
X112150000Y-50159500D03*
X138936170Y-83410548D03*
X111500000Y-50809500D03*
X135750000Y-53900000D03*
X151950000Y-71900000D03*
D23*
X118218905Y-87981095D03*
D21*
X114336352Y-146682798D03*
D23*
X118442757Y-157638893D03*
D21*
X158631170Y-168877422D03*
X141800000Y-52300000D03*
X158506095Y-176843905D03*
X112150000Y-51459500D03*
X148775000Y-54375000D03*
X138937575Y-126962250D03*
X150056170Y-146639922D03*
X140525000Y-63700000D03*
D23*
X115818905Y-88781095D03*
X152562575Y-125649440D03*
D21*
X103323852Y-136457798D03*
D23*
X153362575Y-158396017D03*
X115242757Y-124038893D03*
D21*
X138886170Y-92410548D03*
X103050000Y-83400000D03*
D23*
X116842757Y-157638893D03*
X118442757Y-125638893D03*
D21*
X112800000Y-50809500D03*
D23*
X115818905Y-87181095D03*
D21*
X136275000Y-57965000D03*
D23*
X118218905Y-89581095D03*
D21*
X139043670Y-172900000D03*
D23*
X116618905Y-86381095D03*
X116618905Y-89581095D03*
D21*
X112150000Y-50809500D03*
X141825000Y-56600000D03*
X143693670Y-129168345D03*
X126225000Y-61875000D03*
X138943670Y-129968345D03*
X149434761Y-82436957D03*
D23*
X150962575Y-160796017D03*
X115242757Y-157638893D03*
D21*
X149492261Y-153641331D03*
D23*
X118442757Y-160838893D03*
D21*
X112800000Y-50159500D03*
X107750000Y-93100000D03*
X158636170Y-97735548D03*
X149511170Y-106843905D03*
X122400000Y-83200000D03*
D23*
X116042757Y-124838893D03*
D21*
X149043670Y-164635904D03*
X111950000Y-70450000D03*
D23*
X116042757Y-160038893D03*
D21*
X158368670Y-141225000D03*
X122750000Y-97725000D03*
X138943670Y-128468345D03*
X143636170Y-93110548D03*
X103223852Y-165157798D03*
X138986170Y-100410548D03*
X134093670Y-157014922D03*
D23*
X115018905Y-89581095D03*
D21*
X123550000Y-70201000D03*
X136786170Y-78335548D03*
D23*
X116042757Y-123238893D03*
X153305075Y-88791643D03*
D21*
X107973852Y-129157798D03*
X150268670Y-142525000D03*
X103100000Y-100400000D03*
X143443670Y-177114922D03*
X158700000Y-91120000D03*
D23*
X152562575Y-124049440D03*
D21*
X158575000Y-52900000D03*
D23*
X150962575Y-125649440D03*
X152505075Y-89591643D03*
D21*
X108925000Y-78750000D03*
X103325000Y-172925000D03*
X100900000Y-78325000D03*
D23*
X117418905Y-87181095D03*
D21*
X102123852Y-148157798D03*
X103325000Y-137625000D03*
X127597500Y-65520000D03*
D23*
X151705075Y-87191643D03*
X118218905Y-86381095D03*
D21*
X98373852Y-157057798D03*
X107500000Y-105900000D03*
X158343670Y-119268345D03*
X165461170Y-77000000D03*
X111500000Y-51459500D03*
X134093670Y-121868345D03*
X102123852Y-112957798D03*
X164500000Y-52225000D03*
D23*
X118442757Y-159238893D03*
X150905075Y-86391643D03*
D21*
%TO.N,NRST*%
X94700000Y-55600000D03*
X131970000Y-49755000D03*
X142400000Y-61100000D03*
%TO.N,I2C1_SDA*%
X140800000Y-55200000D03*
%TO.N,I2C1_SCL*%
X141800000Y-55187500D03*
%TO.N,+3V3*%
X154831095Y-105618905D03*
%TO.N,GND*%
X158406095Y-105643905D03*
%TO.N,+3V3*%
X119331095Y-141697596D03*
%TO.N,GND*%
X113806095Y-142943905D03*
X122906095Y-141722596D03*
X113925000Y-106996309D03*
X122500000Y-105700000D03*
%TO.N,+3V3*%
X118450000Y-105671309D03*
X140800000Y-52300000D03*
%TD*%
D24*
%TO.N,co6_gpio4*%
X157200000Y-162021017D02*
X157462575Y-162021017D01*
X157462575Y-162021017D02*
X159543670Y-159939922D01*
X159543670Y-159939922D02*
X159543670Y-157743670D01*
X145199172Y-155650000D02*
X144020265Y-156828907D01*
X140303590Y-156828907D02*
X139617575Y-157514922D01*
X159543670Y-157743670D02*
X157450000Y-155650000D01*
X157450000Y-155650000D02*
X145199172Y-155650000D01*
X144020265Y-156828907D02*
X140303590Y-156828907D01*
%TO.N,co5_gpio4*%
X121400000Y-162063893D02*
X121400000Y-161900000D01*
X121400000Y-161900000D02*
X123823852Y-159476148D01*
X123823852Y-159476148D02*
X123823852Y-157873852D01*
X123272852Y-157322852D02*
X121450000Y-155500000D01*
X123601000Y-157651000D02*
X123595620Y-157651000D01*
X123595620Y-157651000D02*
X123272852Y-157328232D01*
X104555555Y-156900000D02*
X103897757Y-157557798D01*
X109700000Y-155500000D02*
X108300000Y-156900000D01*
X123272852Y-157328232D02*
X123272852Y-157322852D01*
X108300000Y-156900000D02*
X104555555Y-156900000D01*
X123823852Y-157873852D02*
X123601000Y-157651000D01*
X121450000Y-155500000D02*
X109700000Y-155500000D01*
%TO.N,co4_gpio4*%
X157200000Y-126874440D02*
X157225560Y-126874440D01*
X157225560Y-126874440D02*
X159543670Y-124556330D01*
X159543670Y-122693670D02*
X157350000Y-120500000D01*
X159543670Y-124556330D02*
X159543670Y-122693670D01*
X144043749Y-121700000D02*
X140285920Y-121700000D01*
X157350000Y-120500000D02*
X145243749Y-120500000D01*
X145243749Y-120500000D02*
X144043749Y-121700000D01*
X140285920Y-121700000D02*
X139617575Y-122368345D01*
%TO.N,co3_gpio4*%
X121400000Y-126863893D02*
X121400000Y-126800000D01*
X123250000Y-124950000D02*
X123250000Y-121750000D01*
X104670757Y-121584798D02*
X103897757Y-122357798D01*
X121400000Y-126800000D02*
X123250000Y-124950000D01*
X123250000Y-121750000D02*
X121800000Y-120300000D01*
X121800000Y-120300000D02*
X109700000Y-120300000D01*
X109700000Y-120300000D02*
X108415202Y-121584798D01*
X108415202Y-121584798D02*
X104670757Y-121584798D01*
%TO.N,co2_gpio4*%
X157100000Y-90825000D02*
X157100000Y-90800000D01*
X157100000Y-90800000D02*
X159486170Y-88413830D01*
X157400000Y-84400000D02*
X145250000Y-84400000D01*
X159486170Y-88413830D02*
X159486170Y-86486170D01*
X159486170Y-86486170D02*
X157400000Y-84400000D01*
X145250000Y-84400000D02*
X144050000Y-85600000D01*
X144050000Y-85600000D02*
X140270623Y-85600000D01*
X140270623Y-85600000D02*
X139560075Y-86310548D01*
D25*
X157016517Y-90908483D02*
X157100000Y-90825000D01*
D24*
%TO.N,co1_gpio4*%
X121200000Y-90806095D02*
X121518905Y-90806095D01*
X123600000Y-88725000D02*
X123600000Y-87950000D01*
X121518905Y-90806095D02*
X123600000Y-88725000D01*
D25*
%TO.N,NRST*%
X142400000Y-61100000D02*
X142500000Y-61100000D01*
X142500000Y-61100000D02*
X142976000Y-60624000D01*
X131970000Y-49770000D02*
X131970000Y-49755000D01*
X142976000Y-60624000D02*
X142976000Y-52576000D01*
X140900000Y-50500000D02*
X132700000Y-50500000D01*
X142976000Y-52576000D02*
X140900000Y-50500000D01*
X132700000Y-50500000D02*
X131970000Y-49770000D01*
%TO.N,IMU_INT*%
X149100000Y-52710000D02*
X147090000Y-52710000D01*
X144650000Y-55150000D02*
X144650000Y-60750000D01*
X147300000Y-63400000D02*
X147946827Y-63400000D01*
X147090000Y-52710000D02*
X144650000Y-55150000D01*
X144650000Y-60750000D02*
X147300000Y-63400000D01*
%TO.N,I2C3_SCL*%
X147000000Y-64000000D02*
X144100000Y-61100000D01*
X148251376Y-64000000D02*
X147000000Y-64000000D01*
X144100000Y-61100000D02*
X144100000Y-47856587D01*
X148351376Y-63900000D02*
X148251376Y-64000000D01*
X144100000Y-47856587D02*
X144509880Y-47446707D01*
X148500000Y-63900000D02*
X148351376Y-63900000D01*
D26*
%TO.N,Net-(U26-EN)*%
X118311000Y-55839000D02*
X124180000Y-55839000D01*
X118300000Y-55850000D02*
X118311000Y-55839000D01*
%TO.N,Net-(U25-EN)*%
X106150000Y-55150000D02*
X106171000Y-55129000D01*
X109459000Y-55129000D02*
X109499000Y-55169000D01*
X106171000Y-55129000D02*
X109459000Y-55129000D01*
D27*
%TO.N,Net-(U26-SW)*%
X124680000Y-52370000D02*
X124680000Y-48489000D01*
X126261000Y-53951000D02*
X124680000Y-52370000D01*
X126261000Y-54070000D02*
X126261000Y-53951000D01*
%TO.N,Net-(U25-SW)*%
X110250000Y-51800000D02*
X110250000Y-48169000D01*
X112050000Y-53600000D02*
X110250000Y-51800000D01*
D25*
%TO.N,USART_RX*%
X141650000Y-59450000D02*
X138650000Y-56450000D01*
X141650000Y-62400000D02*
X141650000Y-59450000D01*
X138650000Y-56450000D02*
X138650000Y-56400000D01*
%TO.N,I2C3_SDA*%
X143551000Y-47592413D02*
X143551000Y-61451000D01*
X148839458Y-64442168D02*
X149038654Y-64442168D01*
X143551000Y-61451000D02*
X146650000Y-64550000D01*
X148731626Y-64550000D02*
X148839458Y-64442168D01*
X143696733Y-47446733D02*
X143696733Y-47446680D01*
X143696733Y-47446680D02*
X143551000Y-47592413D01*
X146650000Y-64550000D02*
X148731626Y-64550000D01*
X143700000Y-47450000D02*
X143696733Y-47446733D01*
%TO.N,USART_TX*%
X141075000Y-63150000D02*
X141075000Y-59875000D01*
X141075000Y-59875000D02*
X137900000Y-56700000D01*
X137900000Y-56700000D02*
X137900000Y-56400000D01*
%TO.N,SPI2_NSS6*%
X143729082Y-154714922D02*
X155281480Y-154714922D01*
X155281480Y-154714922D02*
X155331480Y-154664922D01*
X155331480Y-154664922D02*
X155368670Y-154664922D01*
X155368670Y-154664922D02*
X155518670Y-154514922D01*
X136400000Y-155700000D02*
X142744004Y-155700000D01*
X142744004Y-155700000D02*
X143729082Y-154714922D01*
X135449765Y-156650235D02*
X136400000Y-155700000D01*
X134600000Y-163500000D02*
X135449765Y-162650235D01*
X134500000Y-163500000D02*
X134600000Y-163500000D01*
X135449765Y-162650235D02*
X135449765Y-156650235D01*
X134435078Y-163564922D02*
X134500000Y-163500000D01*
%TO.N,SPI2_NSS5*%
X115450000Y-154450000D02*
X117500000Y-152400000D01*
X99729947Y-156720053D02*
X100750000Y-155700000D01*
X99729947Y-162427851D02*
X99729947Y-156720053D01*
X108317062Y-154450000D02*
X115450000Y-154450000D01*
X107067062Y-155700000D02*
X108317062Y-154450000D01*
X100750000Y-155700000D02*
X107067062Y-155700000D01*
X98700000Y-163457798D02*
X99729947Y-162427851D01*
X117500000Y-152400000D02*
X119798852Y-152400000D01*
%TO.N,co2_SPI1_MOSI*%
X162839452Y-81160548D02*
X162861170Y-81160548D01*
%TO.N,SPI2_NSS4*%
X142967670Y-120332330D02*
X142967670Y-120329757D01*
X136386268Y-120563732D02*
X142736268Y-120563732D01*
X143305082Y-119992345D02*
X143307655Y-119992345D01*
X143781655Y-119518345D02*
X155368670Y-119518345D01*
X134500000Y-128400000D02*
X134506008Y-128400000D01*
X135449765Y-121500235D02*
X136386268Y-120563732D01*
X142967670Y-120329757D02*
X143305082Y-119992345D01*
X142736268Y-120563732D02*
X142967670Y-120332330D01*
X155368670Y-119518345D02*
X155518670Y-119368345D01*
X134506008Y-128400000D02*
X135449765Y-127456243D01*
X135449765Y-127456243D02*
X135449765Y-121500235D01*
X143307655Y-119992345D02*
X143781655Y-119518345D01*
X134481655Y-128418345D02*
X134500000Y-128400000D01*
%TO.N,SPI2_NSS2*%
X135758967Y-85108548D02*
X135791452Y-85108548D01*
X134400000Y-92210548D02*
X134400000Y-91796718D01*
X143732130Y-83450000D02*
X155250000Y-83450000D01*
X134400000Y-91796718D02*
X135392265Y-90804453D01*
X135392265Y-85475250D02*
X135758967Y-85108548D01*
X135791452Y-85108548D02*
X136400000Y-84500000D01*
X135392265Y-90804453D02*
X135392265Y-85475250D01*
X155250000Y-83450000D02*
X155389452Y-83310548D01*
X136400000Y-84500000D02*
X142682130Y-84500000D01*
X142682130Y-84500000D02*
X143732130Y-83450000D01*
X155389452Y-83310548D02*
X155461170Y-83310548D01*
%TO.N,co1_SPI1_MOSI*%
X126975000Y-80700000D02*
X126975000Y-80725000D01*
%TO.N,SPI2_NSS3*%
X117141202Y-117158798D02*
X119657650Y-117158798D01*
X108102265Y-119300000D02*
X115000000Y-119300000D01*
X107562372Y-119839893D02*
X108102265Y-119300000D01*
X100666062Y-120600000D02*
X106800000Y-120600000D01*
X100096649Y-121155798D02*
X100110264Y-121155798D01*
X119657650Y-117158798D02*
X119798852Y-117300000D01*
X106800000Y-120600000D02*
X107560107Y-119839893D01*
X98700000Y-128295831D02*
X99729947Y-127265884D01*
X100110264Y-121155798D02*
X100666062Y-120600000D01*
X107560107Y-119839893D02*
X107562372Y-119839893D01*
X115000000Y-119300000D02*
X117141202Y-117158798D01*
X99729947Y-127265884D02*
X99729947Y-121522500D01*
X98700000Y-128300000D02*
X98700000Y-128295831D01*
X99729947Y-121522500D02*
X100096649Y-121155798D01*
%TO.N,SPI2_NSS1*%
X106735412Y-84550000D02*
X100175000Y-84550000D01*
X118500000Y-81200000D02*
X117300000Y-81200000D01*
X98100000Y-92350000D02*
X98100000Y-92200000D01*
X108085412Y-83200000D02*
X106735412Y-84550000D01*
X119500000Y-80600000D02*
X119100000Y-80600000D01*
X117300000Y-81200000D02*
X115300000Y-83200000D01*
X99000000Y-91300000D02*
X98100000Y-92200000D01*
X99000000Y-85725000D02*
X99000000Y-91300000D01*
X115300000Y-83200000D02*
X108085412Y-83200000D01*
X100175000Y-84550000D02*
X99000000Y-85725000D01*
X119100000Y-80600000D02*
X118500000Y-81200000D01*
%TO.N,SPI2_SCK*%
X148800000Y-66200000D02*
X149700000Y-66200000D01*
X148536826Y-66463174D02*
X148800000Y-66200000D01*
X156600000Y-59300000D02*
X163175000Y-59300000D01*
X163175000Y-59300000D02*
X164500000Y-60625000D01*
X164500000Y-60625000D02*
X164500000Y-60800000D01*
X149700000Y-66200000D02*
X156600000Y-59300000D01*
%TO.N,SPI2_MISO*%
X156400000Y-58700000D02*
X164500000Y-58700000D01*
X147950000Y-65800000D02*
X148000000Y-65750000D01*
X149350000Y-65750000D02*
X156400000Y-58700000D01*
X148000000Y-65750000D02*
X149350000Y-65750000D01*
%TO.N,SPI2_MOSI*%
X164450000Y-56800000D02*
X164500000Y-56800000D01*
X147350000Y-65150000D02*
X149200000Y-65150000D01*
X149200000Y-65150000D02*
X156200000Y-58150000D01*
X156200000Y-58150000D02*
X163100000Y-58150000D01*
X163100000Y-58150000D02*
X164450000Y-56800000D01*
%TO.N,SPI1_NSS*%
X130225000Y-68250000D02*
X123750000Y-68250000D01*
X144850000Y-70950000D02*
X161900000Y-70950000D01*
X133325000Y-65150000D02*
X130225000Y-68250000D01*
X141500000Y-65950000D02*
X141500000Y-67600000D01*
X161900000Y-70950000D02*
X163300000Y-69550000D01*
X141500000Y-67600000D02*
X144850000Y-70950000D01*
X163300000Y-69550000D02*
X164500000Y-69550000D01*
X142300000Y-65150000D02*
X141500000Y-65950000D01*
X142300000Y-65150000D02*
X133325000Y-65150000D01*
X123750000Y-68250000D02*
X123600000Y-68100000D01*
%TO.N,SPI1_SCK*%
X130850000Y-70200000D02*
X130750000Y-70200000D01*
X145200000Y-70400000D02*
X161705042Y-70400000D01*
X162700000Y-68150000D02*
X163300000Y-67550000D01*
X161705042Y-70400000D02*
X162700000Y-69405042D01*
X163300000Y-67550000D02*
X164500000Y-67550000D01*
X142300000Y-66475000D02*
X142200000Y-66575000D01*
X142200000Y-66575000D02*
X142200000Y-67400000D01*
X130750000Y-70129864D02*
X130750000Y-70200000D01*
X142200000Y-67400000D02*
X145200000Y-70400000D01*
X162700000Y-69405042D02*
X162700000Y-68150000D01*
%TO.N,SPI1_MISO*%
X143750000Y-65150000D02*
X143700000Y-65150000D01*
X162150000Y-66750000D02*
X163350000Y-65550000D01*
X143776000Y-68176000D02*
X145450000Y-69850000D01*
X163350000Y-65550000D02*
X164500000Y-65550000D01*
X161500000Y-69850000D02*
X162150000Y-69200000D01*
X142900000Y-67314588D02*
X143761412Y-68176000D01*
X162150000Y-69200000D02*
X162150000Y-66750000D01*
X142900000Y-65950000D02*
X142900000Y-67314588D01*
X143700000Y-65150000D02*
X142900000Y-65950000D01*
X143761412Y-68176000D02*
X143776000Y-68176000D01*
X145450000Y-69850000D02*
X161500000Y-69850000D01*
%TO.N,SPI1_MOSI*%
X145700000Y-69300000D02*
X161250000Y-69300000D01*
X161600000Y-65200000D02*
X163250000Y-63550000D01*
X161250000Y-69300000D02*
X161600000Y-68950000D01*
X163250000Y-63550000D02*
X164500000Y-63550000D01*
X143750000Y-67350000D02*
X145700000Y-69300000D01*
X161600000Y-68950000D02*
X161600000Y-65200000D01*
X143750000Y-66450000D02*
X143750000Y-67350000D01*
%TO.N,I2C2_SCL*%
X148600000Y-74750000D02*
X146885000Y-73035000D01*
X164350000Y-74750000D02*
X148600000Y-74750000D01*
X146885000Y-73035000D02*
X146885000Y-72485000D01*
X164500000Y-74600000D02*
X164350000Y-74750000D01*
%TO.N,I2C2_SDA*%
X148900000Y-74100000D02*
X147800000Y-73000000D01*
X163000000Y-74100000D02*
X148900000Y-74100000D01*
X147800000Y-73000000D02*
X147800000Y-72500000D01*
X164500000Y-72600000D02*
X163000000Y-74100000D01*
%TO.N,I2C1_SDA*%
X118200000Y-71900000D02*
X101125000Y-71900000D01*
X118750000Y-71350000D02*
X118200000Y-71900000D01*
X101125000Y-71900000D02*
X99525000Y-73500000D01*
X118750000Y-71325000D02*
X118750000Y-71350000D01*
%TO.N,buzzer*%
X132199752Y-62500248D02*
X138906376Y-62500248D01*
X131550000Y-63150000D02*
X132199752Y-62500248D01*
X138906376Y-62500248D02*
X140300037Y-61106587D01*
X140300037Y-61106587D02*
X140306587Y-61106587D01*
D27*
%TO.N,VBAT*%
X102275000Y-66400000D02*
X99400000Y-69275000D01*
X107400000Y-66400000D02*
X102275000Y-66400000D01*
X108375000Y-65425000D02*
X107400000Y-66400000D01*
X99400000Y-69275000D02*
X99400000Y-69300000D01*
D25*
%TO.N,co6_gpio1*%
X143743670Y-162314922D02*
X143693670Y-162364922D01*
D24*
X143693670Y-162364922D02*
X145378748Y-164050000D01*
X152733252Y-164333252D02*
X153900340Y-164333252D01*
X152450000Y-164050000D02*
X152733252Y-164333252D01*
X153900340Y-164333252D02*
X154493670Y-163739922D01*
X145378748Y-164050000D02*
X152450000Y-164050000D01*
D25*
%TO.N,co6_pwr_cyc*%
X157800000Y-158300000D02*
X157785078Y-158314922D01*
D24*
X157785078Y-158314922D02*
X157785078Y-156785078D01*
X157100000Y-156100000D02*
X145600000Y-156100000D01*
X142793670Y-158906330D02*
X142793670Y-162814922D01*
X157785078Y-156785078D02*
X157100000Y-156100000D01*
X145600000Y-156100000D02*
X142793670Y-158906330D01*
%TO.N,co6_gpio2*%
X152886078Y-163163922D02*
X154732258Y-163163922D01*
X152450000Y-163600000D02*
X152886078Y-163163922D01*
X154732258Y-163163922D02*
X155308258Y-163739922D01*
D25*
X155308258Y-163739922D02*
X155293670Y-163739922D01*
D24*
X145707980Y-163600000D02*
X152450000Y-163600000D01*
X143400000Y-161714922D02*
X143822902Y-161714922D01*
X143822902Y-161714922D02*
X145707980Y-163600000D01*
D25*
%TO.N,co6_gpio3*%
X156108258Y-163739922D02*
X156099765Y-163739922D01*
D24*
X152300000Y-163100000D02*
X152687078Y-162712922D01*
X143950001Y-161000000D02*
X146050001Y-163100000D01*
X155081258Y-162712922D02*
X156108258Y-163739922D01*
X143693670Y-161000000D02*
X143950001Y-161000000D01*
X146050001Y-163100000D02*
X152300000Y-163100000D01*
X152687078Y-162712922D02*
X155081258Y-162712922D01*
D25*
%TO.N,co6_USB_D-_ESD*%
X150943670Y-146700000D02*
X149343670Y-148300000D01*
X141749170Y-148300000D02*
X141749170Y-148450830D01*
X140939170Y-149260830D02*
X140939170Y-149844422D01*
X149343670Y-148300000D02*
X141749170Y-148300000D01*
X151200000Y-146700000D02*
X150943670Y-146700000D01*
X141749170Y-148450830D02*
X140939170Y-149260830D01*
%TO.N,co5_gpio2*%
X119588440Y-163782798D02*
X119573852Y-163782798D01*
D24*
X119012440Y-163206798D02*
X119588440Y-163782798D01*
X108107798Y-161757798D02*
X109900000Y-163550000D01*
X109900000Y-163550000D02*
X116800000Y-163550000D01*
X116800000Y-163550000D02*
X117143202Y-163206798D01*
X117143202Y-163206798D02*
X119012440Y-163206798D01*
X107807798Y-161757798D02*
X108107798Y-161757798D01*
X107623852Y-161801581D02*
X107764015Y-161801581D01*
X107764015Y-161801581D02*
X107807798Y-161757798D01*
%TO.N,co5_pwr_cyc*%
X110000000Y-156050000D02*
X121200000Y-156050000D01*
X107073852Y-158976148D02*
X110000000Y-156050000D01*
X122000000Y-156850000D02*
X122000000Y-158200000D01*
X121200000Y-156050000D02*
X122000000Y-156850000D01*
X107073852Y-163126148D02*
X107073852Y-158976148D01*
X107050000Y-163150000D02*
X107073852Y-163126148D01*
D25*
%TO.N,co5_gpio3*%
X120388440Y-163782798D02*
X120379947Y-163782798D01*
D24*
X110150000Y-163050000D02*
X116650000Y-163050000D01*
X108212344Y-161112344D02*
X110150000Y-163050000D01*
X107981926Y-161112344D02*
X108212344Y-161112344D01*
X119361440Y-162755798D02*
X120388440Y-163782798D01*
X116650000Y-163050000D02*
X116944202Y-162755798D01*
X116944202Y-162755798D02*
X119361440Y-162755798D01*
%TO.N,co5_gpio1*%
X117170620Y-164339711D02*
X118216939Y-164339711D01*
X118216939Y-164339711D02*
X118773852Y-163782798D01*
X117100000Y-164350000D02*
X117160331Y-164350000D01*
X109666054Y-164100000D02*
X116850000Y-164100000D01*
D25*
X108023852Y-162357798D02*
X107973852Y-162407798D01*
D24*
X107973852Y-162407798D02*
X109666054Y-164100000D01*
X117160331Y-164350000D02*
X117170620Y-164339711D01*
X116850000Y-164100000D02*
X117100000Y-164350000D01*
D25*
%TO.N,co5_USB_D-_ESD*%
X106021477Y-148407875D02*
X106021477Y-148678523D01*
X113700000Y-148400000D02*
X106029352Y-148400000D01*
X106021477Y-148678523D02*
X105219352Y-149480648D01*
X115400000Y-146700000D02*
X113700000Y-148400000D01*
X106029352Y-148400000D02*
X106021477Y-148407875D01*
X105219352Y-149480648D02*
X105219352Y-149887298D01*
D24*
%TO.N,co4_pwr_cyc*%
X157500000Y-123100000D02*
X157500000Y-121650000D01*
X157500000Y-121650000D02*
X156800000Y-120950000D01*
X142793670Y-123761075D02*
X142793670Y-127668345D01*
X156800000Y-120950000D02*
X145604745Y-120950000D01*
X145604745Y-120950000D02*
X142793670Y-123761075D01*
D25*
%TO.N,co4_gpio1*%
X143743670Y-127168345D02*
X143693670Y-127218345D01*
D24*
X143718345Y-127218345D02*
X145400000Y-128900000D01*
X152350000Y-128900000D02*
X152600258Y-129150258D01*
X153936757Y-129150258D02*
X154493670Y-128593345D01*
X143693670Y-127218345D02*
X143718345Y-127218345D01*
X145400000Y-128900000D02*
X152350000Y-128900000D01*
X152600258Y-129150258D02*
X153936757Y-129150258D01*
%TO.N,co4_gpio2*%
X152350000Y-128400000D02*
X152732655Y-128017345D01*
D25*
X155308258Y-128593345D02*
X155293670Y-128593345D01*
D24*
X145675326Y-128400000D02*
X152350000Y-128400000D01*
X143775326Y-126500000D02*
X145675326Y-128400000D01*
X143400000Y-126500000D02*
X143775326Y-126500000D01*
X154732258Y-128017345D02*
X155308258Y-128593345D01*
X152732655Y-128017345D02*
X154732258Y-128017345D01*
%TO.N,co4_gpio3*%
X152250000Y-127900000D02*
X152650000Y-127500000D01*
D25*
X156099765Y-128584852D02*
X156099765Y-128593345D01*
D24*
X143900000Y-125800000D02*
X146000000Y-127900000D01*
X146000000Y-127900000D02*
X152250000Y-127900000D01*
X143693670Y-125800000D02*
X143900000Y-125800000D01*
X155014913Y-127500000D02*
X156099765Y-128584852D01*
X152650000Y-127500000D02*
X155014913Y-127500000D01*
D25*
%TO.N,co4_USB_D-_ESD*%
X141749170Y-113350830D02*
X140939170Y-114160830D01*
X140939170Y-114160830D02*
X140939170Y-114697845D01*
X151200000Y-111500000D02*
X150943670Y-111500000D01*
X149343670Y-113100000D02*
X141749170Y-113100000D01*
X141749170Y-113100000D02*
X141749170Y-113350830D01*
X150943670Y-111500000D02*
X149343670Y-113100000D01*
D24*
%TO.N,co3_gpio2*%
X107700000Y-126500000D02*
X107757798Y-126557798D01*
X119582798Y-128582798D02*
X119588440Y-128582798D01*
X116625000Y-128275000D02*
X116900000Y-128000000D01*
D25*
X119588440Y-128582798D02*
X119573852Y-128582798D01*
D24*
X116900000Y-128000000D02*
X119000000Y-128000000D01*
X107700000Y-126500000D02*
X108175000Y-126500000D01*
X108175000Y-126500000D02*
X109950000Y-128275000D01*
X109950000Y-128275000D02*
X116625000Y-128275000D01*
X119000000Y-128000000D02*
X119582798Y-128582798D01*
%TO.N,co3_pwr_cyc*%
X121900000Y-121225000D02*
X121475000Y-120800000D01*
X107073852Y-123826148D02*
X107073852Y-127657798D01*
X110100000Y-120800000D02*
X107073852Y-123826148D01*
X121900000Y-123100000D02*
X121900000Y-121225000D01*
X121475000Y-120800000D02*
X110100000Y-120800000D01*
%TO.N,co3_gpio3*%
X108307798Y-125907798D02*
X110250000Y-127850000D01*
X120379947Y-128579947D02*
X120379947Y-128582798D01*
X116450000Y-127850000D02*
X116750000Y-127550000D01*
X119350000Y-127550000D02*
X120379947Y-128579947D01*
X108073852Y-125907798D02*
X108307798Y-125907798D01*
X110250000Y-127850000D02*
X116450000Y-127850000D01*
X116750000Y-127550000D02*
X119350000Y-127550000D01*
X107973852Y-125807798D02*
X108073852Y-125907798D01*
D25*
%TO.N,co3_gpio1*%
X107973852Y-127207798D02*
X107973852Y-127223852D01*
X118773852Y-128629473D02*
X118773852Y-128582798D01*
D24*
X116626000Y-128676000D02*
X117100000Y-129150000D01*
X108123852Y-127223852D02*
X109576000Y-128676000D01*
X118253325Y-129150000D02*
X118773852Y-128629473D01*
X107973852Y-127223852D02*
X108123852Y-127223852D01*
D25*
X108023852Y-127157798D02*
X107973852Y-127207798D01*
D24*
X117100000Y-129150000D02*
X118253325Y-129150000D01*
X109576000Y-128676000D02*
X116626000Y-128676000D01*
D25*
%TO.N,co3_USB_D-_ESD*%
X105219352Y-114380648D02*
X106029352Y-113570648D01*
X115400000Y-111500000D02*
X113800000Y-113100000D01*
X106029352Y-113570648D02*
X106029352Y-113100000D01*
X105219352Y-114687298D02*
X105219352Y-114380648D01*
X113800000Y-113100000D02*
X106029352Y-113100000D01*
%TO.N,co2_gpio2*%
X155250758Y-92535548D02*
X155236170Y-92535548D01*
D24*
X152850000Y-91950000D02*
X154665210Y-91950000D01*
X154665210Y-91950000D02*
X155250758Y-92535548D01*
X144187170Y-90937170D02*
X145600000Y-92350000D01*
X152450000Y-92350000D02*
X152850000Y-91950000D01*
X143300000Y-90510548D02*
X143760548Y-90510548D01*
X143760548Y-90510548D02*
X143859548Y-90609548D01*
X143859548Y-90609548D02*
X143864402Y-90609548D01*
X145600000Y-92350000D02*
X152450000Y-92350000D01*
X143864402Y-90609548D02*
X144187170Y-90932316D01*
X144187170Y-90932316D02*
X144187170Y-90937170D01*
%TO.N,co2_gpio3*%
X143860548Y-89860548D02*
X145800000Y-91800000D01*
X154965210Y-91450000D02*
X156050758Y-92535548D01*
X152700000Y-91450000D02*
X154965210Y-91450000D01*
D25*
X156050758Y-92535548D02*
X156042265Y-92535548D01*
D24*
X143636170Y-89860548D02*
X143860548Y-89860548D01*
X152350000Y-91800000D02*
X152700000Y-91450000D01*
X145800000Y-91800000D02*
X152350000Y-91800000D01*
%TO.N,co2_pwr_cyc*%
X157600000Y-85500000D02*
X157000000Y-84900000D01*
X142736170Y-87813830D02*
X142736170Y-91610548D01*
X157000000Y-84900000D02*
X145650000Y-84900000D01*
X145650000Y-84900000D02*
X142736170Y-87813830D01*
X157600000Y-87000000D02*
X157600000Y-85500000D01*
%TO.N,co2_gpio1*%
X152825399Y-93100000D02*
X152832938Y-93092461D01*
X152832938Y-93092461D02*
X153879257Y-93092461D01*
X152750000Y-93100000D02*
X152825399Y-93100000D01*
X152500000Y-92850000D02*
X152750000Y-93100000D01*
X145325622Y-92850000D02*
X152500000Y-92850000D01*
X153879257Y-93092461D02*
X154436170Y-92535548D01*
X143637517Y-91160480D02*
X143637517Y-91161895D01*
X143637517Y-91161895D02*
X145325622Y-92850000D01*
D25*
X143686170Y-91110548D02*
X143637517Y-91159201D01*
X143637517Y-91159201D02*
X143637517Y-91160480D01*
%TO.N,co1_USB_D-_ESD*%
X115000000Y-75400000D02*
X113310500Y-77089500D01*
X105785500Y-77109500D02*
X105785500Y-77364500D01*
X104995500Y-78154500D02*
X104995500Y-78629500D01*
X113310500Y-77089500D02*
X105805500Y-77089500D01*
X105785500Y-77364500D02*
X104995500Y-78154500D01*
X105805500Y-77089500D02*
X105785500Y-77109500D01*
D24*
%TO.N,co1_gpio4*%
X104521905Y-85452000D02*
X103673905Y-86300000D01*
X123600000Y-87950000D02*
X123600000Y-87000000D01*
X109900000Y-84150000D02*
X108598000Y-85452000D01*
X120750000Y-84150000D02*
X109900000Y-84150000D01*
X123600000Y-87000000D02*
X120750000Y-84150000D01*
X123600000Y-88750000D02*
X123600000Y-87950000D01*
X108598000Y-85452000D02*
X104521905Y-85452000D01*
%TO.N,co1_pwr_cyc*%
X121375000Y-85475000D02*
X120550000Y-84650000D01*
X120550000Y-84650000D02*
X110200000Y-84650000D01*
X110200000Y-84650000D02*
X106850000Y-88000000D01*
X121375000Y-87100000D02*
X121375000Y-85475000D01*
X106850000Y-88000000D02*
X106850000Y-91600000D01*
%TO.N,co1_gpio3*%
X116650000Y-91450000D02*
X119087810Y-91450000D01*
X107950000Y-89750000D02*
X110000000Y-91800000D01*
X107750000Y-89750000D02*
X107950000Y-89750000D01*
X120156095Y-92518285D02*
X120156095Y-92525000D01*
D25*
X120164588Y-92525000D02*
X120156095Y-92525000D01*
D24*
X116300000Y-91800000D02*
X116650000Y-91450000D01*
X110000000Y-91800000D02*
X116300000Y-91800000D01*
X119087810Y-91450000D02*
X120156095Y-92518285D01*
%TO.N,co1_gpio2*%
X107950000Y-90500000D02*
X109800000Y-92350000D01*
X116450000Y-92350000D02*
X116850000Y-91950000D01*
X109800000Y-92350000D02*
X116450000Y-92350000D01*
X116850000Y-91950000D02*
X118950000Y-91950000D01*
X119350000Y-92350000D02*
X119350000Y-92525000D01*
X118950000Y-91950000D02*
X119350000Y-92350000D01*
X107400000Y-90500000D02*
X107950000Y-90500000D01*
%TO.N,co1_gpio1*%
X116450000Y-92850000D02*
X116681913Y-93081913D01*
X117993087Y-93081913D02*
X118550000Y-92525000D01*
X107750000Y-91150000D02*
X109450000Y-92850000D01*
D25*
X107800000Y-91100000D02*
X107750000Y-91150000D01*
D24*
X109450000Y-92850000D02*
X116450000Y-92850000D01*
X116681913Y-93081913D02*
X117993087Y-93081913D01*
D25*
%TO.N,co2_USB_D-_ESD*%
X141671670Y-77120048D02*
X141691670Y-77100048D01*
X141671670Y-77428330D02*
X140881670Y-78218330D01*
X140881670Y-78218330D02*
X140881670Y-78640048D01*
X141671670Y-77120048D02*
X141671670Y-77428330D01*
D24*
%TO.N,co6_RGB_LED*%
X144837824Y-155200000D02*
X143771902Y-156265922D01*
X157843670Y-155200000D02*
X144837824Y-155200000D01*
X159543670Y-156900000D02*
X157843670Y-155200000D01*
X143771902Y-156265922D02*
X136748765Y-156265922D01*
X136748765Y-156265922D02*
X136075765Y-156938922D01*
%TO.N,co5_RGB_LED*%
X121723852Y-155000000D02*
X109360882Y-155000000D01*
X101028947Y-156308798D02*
X100355947Y-156981798D01*
X108052084Y-156308798D02*
X101028947Y-156308798D01*
X109360882Y-155000000D02*
X108052084Y-156308798D01*
X123823852Y-157100000D02*
X121723852Y-155000000D01*
%TO.N,co4_RGB_LED*%
X157643670Y-120000000D02*
X144926602Y-120000000D01*
X143782257Y-121144345D02*
X136723765Y-121144345D01*
X136723765Y-121144345D02*
X136075765Y-121792345D01*
X159543670Y-121900000D02*
X157643670Y-120000000D01*
X144926602Y-120000000D02*
X143782257Y-121144345D01*
%TO.N,co3_RGB_LED*%
X123823852Y-121573852D02*
X122050000Y-119800000D01*
X108062440Y-121133798D02*
X101003947Y-121133798D01*
X109396238Y-119800000D02*
X108062440Y-121133798D01*
X123823852Y-121900000D02*
X123823852Y-121573852D01*
X122050000Y-119800000D02*
X109396238Y-119800000D01*
X101003947Y-121133798D02*
X100355947Y-121781798D01*
%TO.N,co2_RGB_LED*%
X136691265Y-85061548D02*
X136018265Y-85734548D01*
X157737731Y-83950000D02*
X144825950Y-83950000D01*
X144825950Y-83950000D02*
X143714402Y-85061548D01*
X143714402Y-85061548D02*
X136691265Y-85061548D01*
X159487731Y-85700000D02*
X157737731Y-83950000D01*
%TO.N,co1_RGB_LED*%
X100132095Y-85667905D02*
X100132095Y-85724000D01*
X121050000Y-83650000D02*
X109500000Y-83650000D01*
X108099000Y-85051000D02*
X100749000Y-85051000D01*
X100749000Y-85051000D02*
X100132095Y-85667905D01*
X109500000Y-83650000D02*
X108099000Y-85051000D01*
X123600000Y-86200000D02*
X121050000Y-83650000D01*
D25*
%TO.N,RGB_LED*%
X140297250Y-60127520D02*
X140250000Y-60080270D01*
X140269730Y-60100000D02*
X140297250Y-60127520D01*
X140149000Y-60451000D02*
X138700000Y-61900000D01*
X138700000Y-61900000D02*
X130425000Y-61900000D01*
X140297250Y-60127520D02*
X140297250Y-60294786D01*
X140297250Y-60294786D02*
X140149000Y-60443036D01*
X140149000Y-60443036D02*
X140149000Y-60451000D01*
D27*
%TO.N,VBUS*%
X114050000Y-63650000D02*
X114050000Y-62450000D01*
X114050000Y-62450000D02*
X112900000Y-61300000D01*
X99400000Y-65750000D02*
X99400000Y-66300000D01*
X103850000Y-61300000D02*
X99400000Y-65750000D01*
X112900000Y-61300000D02*
X103850000Y-61300000D01*
D25*
%TO.N,+5V*%
X158043509Y-53475000D02*
X158030009Y-53461500D01*
D27*
X128580000Y-53279500D02*
X128580000Y-46579500D01*
D25*
X149100000Y-46450000D02*
X139250000Y-46450000D01*
D27*
X125259500Y-56600000D02*
X128580000Y-53279500D01*
D25*
X157100000Y-53475000D02*
X152989000Y-49364000D01*
X158030009Y-53461500D02*
X157469991Y-53461500D01*
X157456491Y-53475000D02*
X157100000Y-53475000D01*
X157469991Y-53461500D02*
X157456491Y-53475000D01*
D27*
X128580000Y-46579500D02*
X127980000Y-45979500D01*
D25*
X152014000Y-49364000D02*
X149100000Y-46450000D01*
D27*
X119900000Y-56600000D02*
X125259500Y-56600000D01*
D25*
X159750000Y-53475000D02*
X158043509Y-53475000D01*
X152989000Y-49364000D02*
X152014000Y-49364000D01*
D27*
%TO.N,VIN*%
X102000000Y-59800000D02*
X99400000Y-62400000D01*
X99400000Y-62400000D02*
X99400000Y-63300000D01*
X102000000Y-59750000D02*
X102000000Y-59800000D01*
D25*
%TO.N,BOOT0*%
X140426000Y-53889000D02*
X139700000Y-54615000D01*
X142400000Y-54250412D02*
X142038588Y-53889000D01*
X142038588Y-53889000D02*
X140426000Y-53889000D01*
X142400000Y-60150000D02*
X142400000Y-54250412D01*
%TO.N,I2C1_SDA*%
X119000000Y-71075000D02*
X118750000Y-71325000D01*
X140800000Y-55200000D02*
X128750000Y-55200000D01*
X119000000Y-64950000D02*
X119000000Y-71075000D01*
X128750000Y-55200000D02*
X119000000Y-64950000D01*
%TO.N,I2C1_SCL*%
X118650000Y-72450000D02*
X102875000Y-72450000D01*
X119650000Y-71450000D02*
X118650000Y-72450000D01*
X119650000Y-65200000D02*
X119650000Y-71450000D01*
X141100000Y-55800000D02*
X129050000Y-55800000D01*
X141712500Y-55187500D02*
X141100000Y-55800000D01*
X102875000Y-72450000D02*
X99525000Y-75800000D01*
X129050000Y-55800000D02*
X119650000Y-65200000D01*
X141800000Y-55187500D02*
X141712500Y-55187500D01*
%TD*%
M02*
