%TF.GenerationSoftware,KiCad,Pcbnew,9.0.0*%
%TF.CreationDate,2025-05-22T16:19:39+04:00*%
%TF.ProjectId,02_04_sensor_barometer_BMP390L,30325f30-345f-4736-956e-736f725f6261,rev?*%
%TF.SameCoordinates,Original*%
%TF.FileFunction,Soldermask,Top*%
%TF.FilePolarity,Negative*%
%FSLAX46Y46*%
G04 Gerber Fmt 4.6, Leading zero omitted, Abs format (unit mm)*
G04 Created by KiCad (PCBNEW 9.0.0) date 2025-05-22 16:19:39*
%MOMM*%
%LPD*%
G01*
G04 APERTURE LIST*
G04 Aperture macros list*
%AMRoundRect*
0 Rectangle with rounded corners*
0 $1 Rounding radius*
0 $2 $3 $4 $5 $6 $7 $8 $9 X,Y pos of 4 corners*
0 Add a 4 corners polygon primitive as box body*
4,1,4,$2,$3,$4,$5,$6,$7,$8,$9,$2,$3,0*
0 Add four circle primitives for the rounded corners*
1,1,$1+$1,$2,$3*
1,1,$1+$1,$4,$5*
1,1,$1+$1,$6,$7*
1,1,$1+$1,$8,$9*
0 Add four rect primitives between the rounded corners*
20,1,$1+$1,$2,$3,$4,$5,0*
20,1,$1+$1,$4,$5,$6,$7,0*
20,1,$1+$1,$6,$7,$8,$9,0*
20,1,$1+$1,$8,$9,$2,$3,0*%
G04 Aperture macros list end*
%ADD10C,0.000000*%
%ADD11RoundRect,0.101600X0.175000X0.725000X-0.175000X0.725000X-0.175000X-0.725000X0.175000X-0.725000X0*%
%ADD12C,0.657200*%
%ADD13C,1.100000*%
%ADD14RoundRect,0.165000X0.195000X-0.165000X0.195000X0.165000X-0.195000X0.165000X-0.195000X-0.165000X0*%
%ADD15RoundRect,0.225000X-0.300000X0.225000X-0.300000X-0.225000X0.300000X-0.225000X0.300000X0.225000X0*%
%ADD16RoundRect,0.165000X-0.165000X-0.195000X0.165000X-0.195000X0.165000X0.195000X-0.165000X0.195000X0*%
%ADD17RoundRect,0.160000X0.160000X0.210000X-0.160000X0.210000X-0.160000X-0.210000X0.160000X-0.210000X0*%
%ADD18RoundRect,0.271739X0.678261X-0.353261X0.678261X0.353261X-0.678261X0.353261X-0.678261X-0.353261X0*%
%ADD19RoundRect,0.050000X0.150000X0.150000X-0.150000X0.150000X-0.150000X-0.150000X0.150000X-0.150000X0*%
%ADD20RoundRect,0.175000X0.537500X0.175000X-0.537500X0.175000X-0.537500X-0.175000X0.537500X-0.175000X0*%
%ADD21RoundRect,0.243750X-0.281250X0.243750X-0.281250X-0.243750X0.281250X-0.243750X0.281250X0.243750X0*%
G04 APERTURE END LIST*
D10*
%TO.C,J1*%
G36*
X150776586Y-92728884D02*
G01*
X150855538Y-93023535D01*
X150984456Y-93300000D01*
X151159422Y-93549878D01*
X151375122Y-93765578D01*
X151625000Y-93940544D01*
X151901465Y-94069462D01*
X152196116Y-94148414D01*
X152500000Y-94175000D01*
X152803884Y-94148414D01*
X153098535Y-94069462D01*
X153375000Y-93940544D01*
X153624878Y-93765578D01*
X153840578Y-93549878D01*
X154015544Y-93300000D01*
X154144462Y-93023535D01*
X154250000Y-92425000D01*
X155250000Y-92425000D01*
X155226473Y-92783947D01*
X155156296Y-93136752D01*
X155040669Y-93477379D01*
X154881570Y-93800000D01*
X154681722Y-94099094D01*
X154444544Y-94369544D01*
X154174094Y-94606722D01*
X153875000Y-94806570D01*
X153552379Y-94965669D01*
X153211752Y-95081296D01*
X152500000Y-95175000D01*
X152141053Y-95151473D01*
X151788248Y-95081296D01*
X151447621Y-94965669D01*
X151125000Y-94806570D01*
X150825906Y-94606722D01*
X150555456Y-94369544D01*
X150318278Y-94099094D01*
X150118430Y-93800000D01*
X149959331Y-93477379D01*
X149843704Y-93136752D01*
X149773527Y-92783947D01*
X149750000Y-92425000D01*
X150750000Y-92425000D01*
X150776586Y-92728884D01*
G37*
%TD*%
D11*
%TO.C,J1*%
X157750000Y-113150000D03*
X157250000Y-113150000D03*
X156750000Y-113150000D03*
X156250000Y-113150000D03*
X155750000Y-113150000D03*
X155250000Y-113150000D03*
X154750000Y-113150000D03*
X154250000Y-113150000D03*
X153750000Y-113150000D03*
X153250000Y-113150000D03*
X152750000Y-113150000D03*
X152250000Y-113150000D03*
X149750000Y-113150000D03*
X149250000Y-113150000D03*
X148750000Y-113150000D03*
X148250000Y-113150000D03*
X147750000Y-113150000D03*
X147250000Y-113150000D03*
X146750000Y-113150000D03*
X146250000Y-113150000D03*
X145750000Y-113150000D03*
X145250000Y-113150000D03*
X144750000Y-113150000D03*
X144250000Y-113150000D03*
X143750000Y-113150000D03*
X143250000Y-113150000D03*
X142750000Y-113150000D03*
X142250000Y-113150000D03*
X141750000Y-113150000D03*
X141250000Y-113150000D03*
X140750000Y-113150000D03*
X140250000Y-113150000D03*
X139750000Y-113150000D03*
X139250000Y-113150000D03*
D12*
X150400000Y-93425000D03*
X152500000Y-94725000D03*
X154600000Y-93425000D03*
%TD*%
D13*
%TO.C,SCL*%
X142500000Y-94600000D03*
%TD*%
D14*
%TO.C,C1*%
X141939929Y-104280127D03*
X141939929Y-103320127D03*
%TD*%
D15*
%TO.C,R1*%
X156200000Y-95075000D03*
X156200000Y-96725000D03*
%TD*%
D16*
%TO.C,C2*%
X143120000Y-105500000D03*
X144080000Y-105500000D03*
%TD*%
D17*
%TO.C,R2*%
X144149929Y-102100127D03*
X143129929Y-102100127D03*
%TD*%
D18*
%TO.C,C3*%
X156400000Y-105275000D03*
X156400000Y-102325000D03*
%TD*%
D19*
%TO.C,U1*%
X143370028Y-104580036D03*
X143869901Y-104580036D03*
X144400000Y-104300127D03*
X144400000Y-103800000D03*
X144400000Y-103300127D03*
X143869901Y-103019965D03*
X143370028Y-103019965D03*
X142839929Y-103300127D03*
X142839929Y-103800000D03*
X142839929Y-104300127D03*
%TD*%
D13*
%TO.C,SDA*%
X140000000Y-94600000D03*
%TD*%
D20*
%TO.C,U2*%
X154137500Y-104750000D03*
X154137500Y-103800000D03*
X154137500Y-102850000D03*
X151862500Y-102850000D03*
X151862500Y-104750000D03*
%TD*%
D18*
%TO.C,C4*%
X149600000Y-105275000D03*
X149600000Y-102325000D03*
%TD*%
D21*
%TO.C,D1*%
X157780000Y-95112500D03*
X157780000Y-96687500D03*
%TD*%
M02*
