M48
; DRILL file {KiCad 9.0.0} date 2025-05-22T16:19:39+0400
; FORMAT={-:-/ absolute / inch / decimal}
; #@! TF.CreationDate,2025-05-22T16:19:39+04:00
; #@! TF.GenerationSoftware,Kicad,Pcbnew,9.0.0
; #@! TF.FileFunction,Plated,1,2,PTH
FMAT,2
INCH
; #@! TA.AperFunction,Plated,PTH,ComponentDrill
T1C0.0079
; #@! TA.AperFunction,Plated,PTH,ViaDrill
T2C0.0118
%
G90
G05
T1
X5.9213Y-3.6781
X6.0039Y-3.7293
X6.0866Y-3.6781
T2
X5.5866Y-4.1535
X5.6339Y-3.9764
X5.7244Y-4.0866
X5.7244Y-4.1417
X5.878Y-3.7795
X5.878Y-3.8189
X5.878Y-3.8583
X5.9173Y-3.7795
X5.9173Y-3.8189
X5.9567Y-3.7795
X5.9882Y-3.9567
X6.0276Y-3.9173
X6.0276Y-3.9567
X6.0669Y-3.878
X6.0669Y-3.9173
X6.0669Y-3.9567
X6.0866Y-3.7559
M30
