%TF.GenerationSoftware,KiCad,Pcbnew,9.0.0*%
%TF.CreationDate,2025-05-23T15:59:06+04:00*%
%TF.ProjectId,02_03_sensor_IMU_BMI088,30325f30-335f-4736-956e-736f725f494d,rev?*%
%TF.SameCoordinates,Original*%
%TF.FileFunction,Legend,Top*%
%TF.FilePolarity,Positive*%
%FSLAX46Y46*%
G04 Gerber Fmt 4.6, Leading zero omitted, Abs format (unit mm)*
G04 Created by KiCad (PCBNEW 9.0.0) date 2025-05-23 15:59:06*
%MOMM*%
%LPD*%
G01*
G04 APERTURE LIST*
G04 Aperture macros list*
%AMRoundRect*
0 Rectangle with rounded corners*
0 $1 Rounding radius*
0 $2 $3 $4 $5 $6 $7 $8 $9 X,Y pos of 4 corners*
0 Add a 4 corners polygon primitive as box body*
4,1,4,$2,$3,$4,$5,$6,$7,$8,$9,$2,$3,0*
0 Add four circle primitives for the rounded corners*
1,1,$1+$1,$2,$3*
1,1,$1+$1,$4,$5*
1,1,$1+$1,$6,$7*
1,1,$1+$1,$8,$9*
0 Add four rect primitives between the rounded corners*
20,1,$1+$1,$2,$3,$4,$5,0*
20,1,$1+$1,$4,$5,$6,$7,0*
20,1,$1+$1,$6,$7,$8,$9,0*
20,1,$1+$1,$8,$9,$2,$3,0*%
G04 Aperture macros list end*
%ADD10C,0.254000*%
%ADD11C,0.190500*%
%ADD12C,0.150000*%
%ADD13C,0.175000*%
%ADD14C,0.152000*%
%ADD15C,0.059995*%
%ADD16C,0.300000*%
%ADD17C,0.120000*%
%ADD18C,0.200000*%
%ADD19C,0.254001*%
%ADD20C,0.100000*%
%ADD21C,0.000000*%
%ADD22RoundRect,0.101600X0.175000X0.725000X-0.175000X0.725000X-0.175000X-0.725000X0.175000X-0.725000X0*%
%ADD23C,0.657200*%
%ADD24RoundRect,0.050000X0.600000X-0.300000X0.600000X0.300000X-0.600000X0.300000X-0.600000X-0.300000X0*%
%ADD25RoundRect,0.243750X-0.281250X0.243750X-0.281250X-0.243750X0.281250X-0.243750X0.281250X0.243750X0*%
%ADD26C,1.100000*%
%ADD27RoundRect,0.050000X-0.125006X-0.400000X0.125006X-0.400000X0.125006X0.400000X-0.125006X0.400000X0*%
%ADD28RoundRect,0.050000X0.400000X-0.125006X0.400000X0.125006X-0.400000X0.125006X-0.400000X-0.125006X0*%
%ADD29RoundRect,0.050000X0.125006X0.400000X-0.125006X0.400000X-0.125006X-0.400000X0.125006X-0.400000X0*%
%ADD30RoundRect,0.050000X-0.400000X0.125006X-0.400000X-0.125006X0.400000X-0.125006X0.400000X0.125006X0*%
%ADD31RoundRect,0.225000X-0.300000X0.225000X-0.300000X-0.225000X0.300000X-0.225000X0.300000X0.225000X0*%
%ADD32RoundRect,0.165000X-0.165000X-0.195000X0.165000X-0.195000X0.165000X0.195000X-0.165000X0.195000X0*%
%ADD33RoundRect,0.271739X0.678261X-0.353261X0.678261X0.353261X-0.678261X0.353261X-0.678261X-0.353261X0*%
%ADD34RoundRect,0.165000X0.165000X0.195000X-0.165000X0.195000X-0.165000X-0.195000X0.165000X-0.195000X0*%
G04 APERTURE END LIST*
D10*
X152347625Y-97263100D02*
X152347625Y-99168100D01*
X153265200Y-100854025D02*
G75*
G02*
X151652268Y-101260469I-977000J473525D01*
G01*
X153036600Y-100850850D02*
X153392200Y-101057225D01*
X150687100Y-101031825D02*
G75*
G02*
X150687100Y-99761775I0J635025D01*
G01*
X149290100Y-100396825D02*
X149544100Y-100142825D01*
X152982625Y-98660100D02*
X152728625Y-98533100D01*
X153344575Y-100723850D02*
X153036600Y-100850850D01*
X152601625Y-97517100D02*
X152093625Y-97517100D01*
X150687100Y-99761825D02*
X150433100Y-99634825D01*
X152347625Y-97263100D02*
X152093625Y-97517100D01*
X153109625Y-98406100D02*
X152728625Y-98533100D01*
X149569500Y-100676225D02*
X149569500Y-100117425D01*
X149290100Y-100396825D02*
X149544100Y-100650825D01*
X152347625Y-97263100D02*
X152601625Y-97517100D01*
X152982625Y-98660100D02*
X153109625Y-98406100D01*
X150560100Y-99990425D02*
X150433100Y-99634825D01*
X153344575Y-100723850D02*
X153392200Y-101057225D01*
X150687100Y-99761825D02*
X150560100Y-99990425D01*
X149290100Y-100396825D02*
X151068100Y-100396825D01*
X152833400Y-100400000D02*
G75*
G02*
X151766600Y-100400000I-533400J0D01*
G01*
X151766600Y-100400000D02*
G75*
G02*
X152833400Y-100400000I533400J0D01*
G01*
X151839625Y-98660100D02*
G75*
G02*
X152982625Y-98660100I571500J-16D01*
G01*
X152427000Y-100400000D02*
G75*
G02*
X152173000Y-100400000I-127000J0D01*
G01*
X152173000Y-100400000D02*
G75*
G02*
X152427000Y-100400000I127000J0D01*
G01*
D11*
X150258855Y-99160386D02*
X150792189Y-98969910D01*
X150258855Y-98779433D02*
X150792189Y-98969910D01*
X150792189Y-98969910D02*
X150982665Y-99046100D01*
X150982665Y-99046100D02*
X151020760Y-99084195D01*
X151020760Y-99084195D02*
X151058855Y-99160386D01*
D12*
G36*
X158168811Y-94418004D02*
G01*
X157163255Y-94418004D01*
X157163255Y-93833333D01*
X157241033Y-93833333D01*
X157241033Y-94266667D01*
X157242474Y-94281299D01*
X157253673Y-94308335D01*
X157274365Y-94329027D01*
X157301401Y-94340226D01*
X157330665Y-94340226D01*
X157357701Y-94329027D01*
X157378393Y-94308335D01*
X157389592Y-94281299D01*
X157391033Y-94266667D01*
X157391033Y-93998615D01*
X157533312Y-94123110D01*
X157539636Y-94127631D01*
X157541032Y-94129027D01*
X157542355Y-94129575D01*
X157545273Y-94131661D01*
X157556810Y-94135562D01*
X157568068Y-94140226D01*
X157570599Y-94140226D01*
X157572994Y-94141036D01*
X157585147Y-94140226D01*
X157597332Y-94140226D01*
X157599668Y-94139258D01*
X157602192Y-94139090D01*
X157613117Y-94133687D01*
X157624368Y-94129027D01*
X157626154Y-94127240D01*
X157628424Y-94126118D01*
X157636449Y-94116945D01*
X157645060Y-94108335D01*
X157646028Y-94105998D01*
X157647694Y-94104094D01*
X157651595Y-94092556D01*
X157656259Y-94081299D01*
X157656610Y-94077728D01*
X157657069Y-94076373D01*
X157656937Y-94074405D01*
X157657700Y-94066667D01*
X157657700Y-93984371D01*
X157677671Y-93944427D01*
X157693793Y-93928305D01*
X157733738Y-93908333D01*
X157864994Y-93908333D01*
X157904940Y-93928306D01*
X157921061Y-93944427D01*
X157941033Y-93984371D01*
X157941033Y-94148962D01*
X157921061Y-94188906D01*
X157896333Y-94213634D01*
X157887006Y-94224999D01*
X157875807Y-94252036D01*
X157875807Y-94281298D01*
X157887006Y-94308335D01*
X157907698Y-94329027D01*
X157934735Y-94340226D01*
X157963997Y-94340226D01*
X157991034Y-94329027D01*
X158002399Y-94319700D01*
X158035733Y-94286366D01*
X158040451Y-94280616D01*
X158041950Y-94279317D01*
X158043371Y-94277057D01*
X158045060Y-94275001D01*
X158045817Y-94273173D01*
X158049782Y-94266874D01*
X158083115Y-94200208D01*
X158088370Y-94186476D01*
X158088560Y-94183788D01*
X158089592Y-94181299D01*
X158091033Y-94166667D01*
X158091033Y-93966667D01*
X158089592Y-93952035D01*
X158088560Y-93949545D01*
X158088370Y-93946858D01*
X158083115Y-93933127D01*
X158049782Y-93866459D01*
X158045817Y-93860161D01*
X158045060Y-93858332D01*
X158043369Y-93856272D01*
X158041950Y-93854017D01*
X158040453Y-93852719D01*
X158035732Y-93846966D01*
X158002398Y-93813633D01*
X157996646Y-93808912D01*
X157995350Y-93807418D01*
X157993095Y-93805998D01*
X157991033Y-93804306D01*
X157989202Y-93803548D01*
X157982908Y-93799585D01*
X157916242Y-93766251D01*
X157902510Y-93760996D01*
X157899820Y-93760804D01*
X157897332Y-93759774D01*
X157882700Y-93758333D01*
X157716033Y-93758333D01*
X157701401Y-93759774D01*
X157698912Y-93760804D01*
X157696223Y-93760996D01*
X157682491Y-93766251D01*
X157615825Y-93799585D01*
X157609528Y-93803548D01*
X157607698Y-93804307D01*
X157605636Y-93805998D01*
X157603382Y-93807418D01*
X157602085Y-93808913D01*
X157596333Y-93813634D01*
X157563000Y-93846967D01*
X157558281Y-93852716D01*
X157556783Y-93854016D01*
X157555361Y-93856275D01*
X157553673Y-93858332D01*
X157552915Y-93860159D01*
X157548951Y-93866459D01*
X157524248Y-93915864D01*
X157365421Y-93776890D01*
X157359096Y-93772368D01*
X157357701Y-93770973D01*
X157356377Y-93770424D01*
X157353460Y-93768339D01*
X157341922Y-93764437D01*
X157330665Y-93759774D01*
X157328134Y-93759774D01*
X157325739Y-93758964D01*
X157313586Y-93759774D01*
X157301401Y-93759774D01*
X157299064Y-93760741D01*
X157296541Y-93760910D01*
X157285615Y-93766312D01*
X157274365Y-93770973D01*
X157272578Y-93772759D01*
X157270309Y-93773882D01*
X157262283Y-93783054D01*
X157253673Y-93791665D01*
X157252704Y-93794001D01*
X157251039Y-93795906D01*
X157247137Y-93807443D01*
X157242474Y-93818701D01*
X157242122Y-93822271D01*
X157241664Y-93823627D01*
X157241795Y-93825594D01*
X157241033Y-93833333D01*
X157163255Y-93833333D01*
X157163255Y-93157286D01*
X157241622Y-93157286D01*
X157243697Y-93186476D01*
X157256783Y-93212649D01*
X157278890Y-93231823D01*
X157292316Y-93237817D01*
X157778863Y-93399999D01*
X157292316Y-93562182D01*
X157278890Y-93568176D01*
X157256783Y-93587350D01*
X157243697Y-93613523D01*
X157241622Y-93642713D01*
X157250876Y-93670476D01*
X157270050Y-93692583D01*
X157296223Y-93705669D01*
X157325413Y-93707744D01*
X157339750Y-93704484D01*
X158039750Y-93471151D01*
X158053176Y-93465157D01*
X158057224Y-93461645D01*
X158062016Y-93459250D01*
X158068178Y-93452145D01*
X158075283Y-93445983D01*
X158077679Y-93441190D01*
X158081190Y-93437143D01*
X158084163Y-93428223D01*
X158088370Y-93419810D01*
X158088750Y-93414461D01*
X158090444Y-93409380D01*
X158089777Y-93400007D01*
X158090445Y-93390620D01*
X158088748Y-93385531D01*
X158088369Y-93380190D01*
X158084165Y-93371782D01*
X158081190Y-93362857D01*
X158077678Y-93358808D01*
X158075283Y-93354017D01*
X158068180Y-93347857D01*
X158062017Y-93340750D01*
X158057222Y-93338352D01*
X158053176Y-93334843D01*
X158039750Y-93328849D01*
X157339750Y-93095515D01*
X157325413Y-93092255D01*
X157296223Y-93094330D01*
X157270050Y-93107416D01*
X157250876Y-93129523D01*
X157241622Y-93157286D01*
X157163255Y-93157286D01*
X157163255Y-92566666D01*
X157241033Y-92566666D01*
X157241033Y-93000000D01*
X157242474Y-93014632D01*
X157253673Y-93041668D01*
X157274365Y-93062360D01*
X157301401Y-93073559D01*
X157330665Y-93073559D01*
X157357701Y-93062360D01*
X157378393Y-93041668D01*
X157389592Y-93014632D01*
X157391033Y-93000000D01*
X157391033Y-92731948D01*
X157533312Y-92856443D01*
X157539636Y-92860964D01*
X157541032Y-92862360D01*
X157542355Y-92862908D01*
X157545273Y-92864994D01*
X157556810Y-92868895D01*
X157568068Y-92873559D01*
X157570599Y-92873559D01*
X157572994Y-92874369D01*
X157585147Y-92873559D01*
X157597332Y-92873559D01*
X157599668Y-92872591D01*
X157602192Y-92872423D01*
X157613117Y-92867020D01*
X157624368Y-92862360D01*
X157626154Y-92860573D01*
X157628424Y-92859451D01*
X157636449Y-92850278D01*
X157645060Y-92841668D01*
X157646028Y-92839331D01*
X157647694Y-92837427D01*
X157651595Y-92825889D01*
X157656259Y-92814632D01*
X157656610Y-92811061D01*
X157657069Y-92809706D01*
X157656937Y-92807738D01*
X157657700Y-92800000D01*
X157657700Y-92717704D01*
X157677671Y-92677760D01*
X157693793Y-92661638D01*
X157733738Y-92641666D01*
X157864994Y-92641666D01*
X157904940Y-92661639D01*
X157921061Y-92677760D01*
X157941033Y-92717704D01*
X157941033Y-92882295D01*
X157921061Y-92922239D01*
X157896333Y-92946967D01*
X157887006Y-92958332D01*
X157875807Y-92985369D01*
X157875807Y-93014631D01*
X157887006Y-93041668D01*
X157907698Y-93062360D01*
X157934735Y-93073559D01*
X157963997Y-93073559D01*
X157991034Y-93062360D01*
X158002399Y-93053033D01*
X158035733Y-93019699D01*
X158040451Y-93013949D01*
X158041950Y-93012650D01*
X158043371Y-93010390D01*
X158045060Y-93008334D01*
X158045817Y-93006506D01*
X158049782Y-93000207D01*
X158083115Y-92933541D01*
X158088370Y-92919809D01*
X158088560Y-92917121D01*
X158089592Y-92914632D01*
X158091033Y-92900000D01*
X158091033Y-92700000D01*
X158089592Y-92685368D01*
X158088560Y-92682878D01*
X158088370Y-92680191D01*
X158083115Y-92666460D01*
X158049782Y-92599792D01*
X158045817Y-92593494D01*
X158045060Y-92591665D01*
X158043369Y-92589605D01*
X158041950Y-92587350D01*
X158040453Y-92586052D01*
X158035732Y-92580299D01*
X158002398Y-92546966D01*
X157996646Y-92542245D01*
X157995350Y-92540751D01*
X157993095Y-92539331D01*
X157991033Y-92537639D01*
X157989202Y-92536881D01*
X157982908Y-92532918D01*
X157916242Y-92499584D01*
X157902510Y-92494329D01*
X157899820Y-92494137D01*
X157897332Y-92493107D01*
X157882700Y-92491666D01*
X157716033Y-92491666D01*
X157701401Y-92493107D01*
X157698912Y-92494137D01*
X157696223Y-92494329D01*
X157682491Y-92499584D01*
X157615825Y-92532918D01*
X157609528Y-92536881D01*
X157607698Y-92537640D01*
X157605636Y-92539331D01*
X157603382Y-92540751D01*
X157602085Y-92542246D01*
X157596333Y-92546967D01*
X157563000Y-92580300D01*
X157558281Y-92586049D01*
X157556783Y-92587349D01*
X157555361Y-92589608D01*
X157553673Y-92591665D01*
X157552915Y-92593492D01*
X157548951Y-92599792D01*
X157524248Y-92649197D01*
X157365421Y-92510223D01*
X157359096Y-92505701D01*
X157357701Y-92504306D01*
X157356377Y-92503757D01*
X157353460Y-92501672D01*
X157341922Y-92497770D01*
X157330665Y-92493107D01*
X157328134Y-92493107D01*
X157325739Y-92492297D01*
X157313586Y-92493107D01*
X157301401Y-92493107D01*
X157299064Y-92494074D01*
X157296541Y-92494243D01*
X157285615Y-92499645D01*
X157274365Y-92504306D01*
X157272578Y-92506092D01*
X157270309Y-92507215D01*
X157262283Y-92516387D01*
X157253673Y-92524998D01*
X157252704Y-92527334D01*
X157251039Y-92529239D01*
X157247137Y-92540776D01*
X157242474Y-92552034D01*
X157242122Y-92555604D01*
X157241664Y-92556960D01*
X157241795Y-92558927D01*
X157241033Y-92566666D01*
X157163255Y-92566666D01*
X157163255Y-92413888D01*
X158168811Y-92413888D01*
X158168811Y-94418004D01*
G37*
D11*
X153592189Y-97860386D02*
X153058855Y-97441338D01*
X153058855Y-97860386D02*
X153592189Y-97441338D01*
X153258855Y-100260386D02*
X153258855Y-99841338D01*
X153258855Y-99841338D02*
X153792189Y-100260386D01*
X153792189Y-100260386D02*
X153792189Y-99841338D01*
D13*
G36*
X140021744Y-105889767D02*
G01*
X140037380Y-105905403D01*
X140057507Y-105945656D01*
X140057507Y-106087500D01*
X139875364Y-106087500D01*
X139875364Y-105945655D01*
X139895489Y-105905404D01*
X139911123Y-105889769D01*
X139951378Y-105869643D01*
X139981495Y-105869643D01*
X140021744Y-105889767D01*
G37*
G36*
X140414602Y-105854054D02*
G01*
X140430237Y-105869688D01*
X140450364Y-105909942D01*
X140450364Y-106087500D01*
X140232507Y-106087500D01*
X140232507Y-105939199D01*
X140257198Y-105865123D01*
X140268265Y-105854056D01*
X140308521Y-105833929D01*
X140374352Y-105833929D01*
X140414602Y-105854054D01*
G37*
G36*
X140364467Y-103936129D02*
G01*
X140414603Y-103961197D01*
X140430239Y-103976833D01*
X140450364Y-104017083D01*
X140450364Y-104047200D01*
X140430237Y-104087454D01*
X140414602Y-104103088D01*
X140364470Y-104128154D01*
X140241376Y-104158928D01*
X140084348Y-104158928D01*
X139961260Y-104128155D01*
X139911122Y-104103086D01*
X139895491Y-104087455D01*
X139875364Y-104047200D01*
X139875364Y-104017083D01*
X139895489Y-103976833D01*
X139911124Y-103961197D01*
X139961257Y-103936130D01*
X140084348Y-103905357D01*
X140241376Y-103905357D01*
X140364467Y-103936129D01*
G37*
G36*
X140414602Y-103211196D02*
G01*
X140430239Y-103226833D01*
X140450364Y-103267083D01*
X140450364Y-103368628D01*
X140430237Y-103408882D01*
X140414602Y-103424516D01*
X140374352Y-103444642D01*
X140272807Y-103444642D01*
X140232551Y-103424514D01*
X140216918Y-103408881D01*
X140196792Y-103368628D01*
X140196792Y-103267084D01*
X140216918Y-103226831D01*
X140232552Y-103211197D01*
X140272807Y-103191071D01*
X140374352Y-103191071D01*
X140414602Y-103211196D01*
G37*
G36*
X139986032Y-103211197D02*
G01*
X140001666Y-103226832D01*
X140021792Y-103267083D01*
X140021792Y-103368628D01*
X140001664Y-103408883D01*
X139986033Y-103424514D01*
X139948578Y-103443242D01*
X139911122Y-103424514D01*
X139895491Y-103408883D01*
X139875364Y-103368628D01*
X139875364Y-103267083D01*
X139895489Y-103226832D01*
X139911123Y-103211197D01*
X139948578Y-103192470D01*
X139986032Y-103211197D01*
G37*
G36*
X140414602Y-102496910D02*
G01*
X140430239Y-102512547D01*
X140450364Y-102552797D01*
X140450364Y-102654342D01*
X140430237Y-102694596D01*
X140414602Y-102710230D01*
X140374352Y-102730356D01*
X140272807Y-102730356D01*
X140232551Y-102710228D01*
X140216918Y-102694595D01*
X140196792Y-102654342D01*
X140196792Y-102552798D01*
X140216918Y-102512545D01*
X140232552Y-102496911D01*
X140272807Y-102476785D01*
X140374352Y-102476785D01*
X140414602Y-102496910D01*
G37*
G36*
X139986032Y-102496911D02*
G01*
X140001666Y-102512546D01*
X140021792Y-102552797D01*
X140021792Y-102654342D01*
X140001664Y-102694597D01*
X139986033Y-102710228D01*
X139948578Y-102728956D01*
X139911122Y-102710228D01*
X139895491Y-102694597D01*
X139875364Y-102654342D01*
X139875364Y-102552797D01*
X139895489Y-102512546D01*
X139911123Y-102496911D01*
X139948578Y-102478184D01*
X139986032Y-102496911D01*
G37*
G36*
X140712864Y-106350000D02*
G01*
X139612864Y-106350000D01*
X139612864Y-105925000D01*
X139700364Y-105925000D01*
X139700364Y-106175000D01*
X139702045Y-106192070D01*
X139715110Y-106223612D01*
X139739252Y-106247754D01*
X139770794Y-106260819D01*
X139787864Y-106262500D01*
X140537864Y-106262500D01*
X140554934Y-106260819D01*
X140586476Y-106247754D01*
X140610618Y-106223612D01*
X140623683Y-106192070D01*
X140625364Y-106175000D01*
X140625364Y-105889286D01*
X140623683Y-105872216D01*
X140622479Y-105869311D01*
X140622257Y-105866175D01*
X140616127Y-105850155D01*
X140580413Y-105778726D01*
X140575787Y-105771378D01*
X140574903Y-105769243D01*
X140572930Y-105766839D01*
X140571275Y-105764210D01*
X140569530Y-105762696D01*
X140564021Y-105755984D01*
X140528306Y-105720270D01*
X140521595Y-105714763D01*
X140520082Y-105713018D01*
X140517451Y-105711362D01*
X140515047Y-105709389D01*
X140512910Y-105708504D01*
X140505566Y-105703881D01*
X140434138Y-105668167D01*
X140418119Y-105662036D01*
X140414981Y-105661813D01*
X140412077Y-105660610D01*
X140395007Y-105658929D01*
X140287864Y-105658929D01*
X140270794Y-105660610D01*
X140267889Y-105661813D01*
X140264753Y-105662036D01*
X140248733Y-105668166D01*
X140177304Y-105703880D01*
X140169954Y-105708506D01*
X140167822Y-105709390D01*
X140165420Y-105711360D01*
X140162788Y-105713018D01*
X140161273Y-105714763D01*
X140154563Y-105720271D01*
X140126535Y-105748298D01*
X140124596Y-105747077D01*
X140122192Y-105745104D01*
X140120054Y-105744218D01*
X140112709Y-105739595D01*
X140041281Y-105703881D01*
X140025262Y-105697750D01*
X140022124Y-105697527D01*
X140019220Y-105696324D01*
X140002150Y-105694643D01*
X139930721Y-105694643D01*
X139913651Y-105696324D01*
X139910746Y-105697527D01*
X139907610Y-105697750D01*
X139891590Y-105703880D01*
X139820161Y-105739594D01*
X139812813Y-105744219D01*
X139810678Y-105745104D01*
X139808274Y-105747076D01*
X139805645Y-105748732D01*
X139804131Y-105750476D01*
X139797419Y-105755986D01*
X139761705Y-105791701D01*
X139756198Y-105798411D01*
X139754453Y-105799925D01*
X139752797Y-105802555D01*
X139750824Y-105804960D01*
X139749939Y-105807096D01*
X139745316Y-105814441D01*
X139709602Y-105885869D01*
X139703471Y-105901888D01*
X139703248Y-105905025D01*
X139702045Y-105907930D01*
X139700364Y-105925000D01*
X139612864Y-105925000D01*
X139612864Y-104938285D01*
X139701378Y-104938285D01*
X139702045Y-104940119D01*
X139702045Y-104942070D01*
X139707856Y-104956100D01*
X139713046Y-104970371D01*
X139714363Y-104971809D01*
X139715110Y-104973612D01*
X139725847Y-104984349D01*
X139736104Y-104995549D01*
X139738417Y-104996919D01*
X139739252Y-104997754D01*
X139741162Y-104998545D01*
X139750862Y-105004291D01*
X140116666Y-105175000D01*
X139750862Y-105345709D01*
X139741162Y-105351454D01*
X139739252Y-105352246D01*
X139738417Y-105353080D01*
X139736104Y-105354451D01*
X139725847Y-105365650D01*
X139715110Y-105376388D01*
X139714363Y-105378190D01*
X139713046Y-105379629D01*
X139707856Y-105393899D01*
X139702045Y-105407930D01*
X139702045Y-105409880D01*
X139701378Y-105411715D01*
X139702045Y-105426881D01*
X139702045Y-105442070D01*
X139702792Y-105443874D01*
X139702878Y-105445823D01*
X139709297Y-105459579D01*
X139715110Y-105473612D01*
X139716489Y-105474991D01*
X139717315Y-105476760D01*
X139728514Y-105487016D01*
X139739252Y-105497754D01*
X139741054Y-105498500D01*
X139742493Y-105499818D01*
X139756763Y-105505007D01*
X139770794Y-105510819D01*
X139773469Y-105511082D01*
X139774579Y-105511486D01*
X139776644Y-105511395D01*
X139787864Y-105512500D01*
X140537864Y-105512500D01*
X140554934Y-105510819D01*
X140586476Y-105497754D01*
X140610618Y-105473612D01*
X140623683Y-105442070D01*
X140623683Y-105407930D01*
X140610618Y-105376388D01*
X140586476Y-105352246D01*
X140554934Y-105339181D01*
X140537864Y-105337500D01*
X140182275Y-105337500D01*
X140360580Y-105254291D01*
X140366830Y-105250588D01*
X140368949Y-105249818D01*
X140370446Y-105248446D01*
X140375338Y-105245549D01*
X140384319Y-105235741D01*
X140394127Y-105226760D01*
X140395770Y-105223237D01*
X140398396Y-105220371D01*
X140402939Y-105207875D01*
X140408564Y-105195823D01*
X140408734Y-105191937D01*
X140410063Y-105188285D01*
X140409479Y-105175000D01*
X140410063Y-105161715D01*
X140408734Y-105158062D01*
X140408564Y-105154177D01*
X140402939Y-105142124D01*
X140398396Y-105129629D01*
X140395770Y-105126762D01*
X140394127Y-105123240D01*
X140384319Y-105114258D01*
X140375338Y-105104451D01*
X140370446Y-105101553D01*
X140368949Y-105100182D01*
X140366830Y-105099411D01*
X140360580Y-105095709D01*
X140182275Y-105012500D01*
X140537864Y-105012500D01*
X140554934Y-105010819D01*
X140586476Y-104997754D01*
X140610618Y-104973612D01*
X140623683Y-104942070D01*
X140623683Y-104907930D01*
X140610618Y-104876388D01*
X140586476Y-104852246D01*
X140554934Y-104839181D01*
X140537864Y-104837500D01*
X139787864Y-104837500D01*
X139776644Y-104838604D01*
X139774579Y-104838514D01*
X139773469Y-104838917D01*
X139770794Y-104839181D01*
X139756763Y-104844992D01*
X139742493Y-104850182D01*
X139741054Y-104851499D01*
X139739252Y-104852246D01*
X139728514Y-104862983D01*
X139717315Y-104873240D01*
X139716489Y-104875008D01*
X139715110Y-104876388D01*
X139709297Y-104890420D01*
X139702878Y-104904177D01*
X139702792Y-104906125D01*
X139702045Y-104907930D01*
X139702045Y-104923118D01*
X139701378Y-104938285D01*
X139612864Y-104938285D01*
X139612864Y-104550787D01*
X139702045Y-104550787D01*
X139702045Y-104584927D01*
X139715110Y-104616469D01*
X139739252Y-104640611D01*
X139770794Y-104653676D01*
X139787864Y-104655357D01*
X140537864Y-104655357D01*
X140554934Y-104653676D01*
X140586476Y-104640611D01*
X140610618Y-104616469D01*
X140623683Y-104584927D01*
X140623683Y-104550787D01*
X140610618Y-104519245D01*
X140586476Y-104495103D01*
X140554934Y-104482038D01*
X140537864Y-104480357D01*
X139787864Y-104480357D01*
X139770794Y-104482038D01*
X139739252Y-104495103D01*
X139715110Y-104519245D01*
X139702045Y-104550787D01*
X139612864Y-104550787D01*
X139612864Y-103996428D01*
X139700364Y-103996428D01*
X139700364Y-104067857D01*
X139702045Y-104084927D01*
X139703248Y-104087831D01*
X139703471Y-104090968D01*
X139709601Y-104106988D01*
X139745315Y-104178417D01*
X139749938Y-104185762D01*
X139750824Y-104187899D01*
X139752798Y-104190304D01*
X139754453Y-104192933D01*
X139756196Y-104194445D01*
X139761706Y-104201158D01*
X139797420Y-104236872D01*
X139804130Y-104242379D01*
X139805645Y-104244125D01*
X139808277Y-104245782D01*
X139810679Y-104247753D01*
X139812811Y-104248636D01*
X139820161Y-104253263D01*
X139891590Y-104288977D01*
X139892839Y-104289455D01*
X139893347Y-104289831D01*
X139900513Y-104292391D01*
X139907610Y-104295107D01*
X139908238Y-104295151D01*
X139909499Y-104295602D01*
X140052357Y-104331316D01*
X140055317Y-104331753D01*
X140056508Y-104332247D01*
X140062930Y-104332879D01*
X140069325Y-104333825D01*
X140070602Y-104333634D01*
X140073578Y-104333928D01*
X140252150Y-104333928D01*
X140255126Y-104333634D01*
X140256404Y-104333825D01*
X140262800Y-104332879D01*
X140269220Y-104332247D01*
X140270410Y-104331753D01*
X140273372Y-104331316D01*
X140416229Y-104295601D01*
X140417486Y-104295151D01*
X140418119Y-104295107D01*
X140425215Y-104292391D01*
X140432382Y-104289831D01*
X140432892Y-104289452D01*
X140434138Y-104288976D01*
X140505566Y-104253262D01*
X140512910Y-104248638D01*
X140515047Y-104247754D01*
X140517451Y-104245780D01*
X140520082Y-104244125D01*
X140521595Y-104242379D01*
X140528306Y-104236873D01*
X140564021Y-104201159D01*
X140569530Y-104194446D01*
X140571275Y-104192933D01*
X140572930Y-104190303D01*
X140574903Y-104187900D01*
X140575787Y-104185764D01*
X140580413Y-104178417D01*
X140616127Y-104106988D01*
X140622257Y-104090968D01*
X140622479Y-104087831D01*
X140623683Y-104084927D01*
X140625364Y-104067857D01*
X140625364Y-103996428D01*
X140623683Y-103979358D01*
X140622479Y-103976453D01*
X140622257Y-103973317D01*
X140616126Y-103957297D01*
X140580412Y-103885869D01*
X140575788Y-103878523D01*
X140574903Y-103876386D01*
X140572929Y-103873981D01*
X140571275Y-103871353D01*
X140569530Y-103869840D01*
X140564021Y-103863127D01*
X140528306Y-103827413D01*
X140521595Y-103821906D01*
X140520083Y-103820162D01*
X140517452Y-103818506D01*
X140515047Y-103816532D01*
X140512911Y-103815647D01*
X140505567Y-103811024D01*
X140434139Y-103775309D01*
X140432891Y-103774831D01*
X140432382Y-103774454D01*
X140425221Y-103771896D01*
X140418119Y-103769178D01*
X140417486Y-103769133D01*
X140416229Y-103768684D01*
X140273372Y-103732969D01*
X140270410Y-103732531D01*
X140269220Y-103732038D01*
X140262800Y-103731405D01*
X140256404Y-103730460D01*
X140255126Y-103730650D01*
X140252150Y-103730357D01*
X140073578Y-103730357D01*
X140070602Y-103730650D01*
X140069325Y-103730460D01*
X140062930Y-103731405D01*
X140056508Y-103732038D01*
X140055317Y-103732531D01*
X140052357Y-103732969D01*
X139909499Y-103768683D01*
X139908238Y-103769133D01*
X139907609Y-103769178D01*
X139900515Y-103771892D01*
X139893347Y-103774454D01*
X139892838Y-103774830D01*
X139891589Y-103775309D01*
X139820160Y-103811024D01*
X139812810Y-103815649D01*
X139810679Y-103816533D01*
X139808279Y-103818501D01*
X139805644Y-103820161D01*
X139804127Y-103821909D01*
X139797420Y-103827414D01*
X139761706Y-103863128D01*
X139756196Y-103869840D01*
X139754453Y-103871353D01*
X139752799Y-103873980D01*
X139750824Y-103876387D01*
X139749938Y-103878525D01*
X139745316Y-103885869D01*
X139709602Y-103957297D01*
X139703471Y-103973316D01*
X139703248Y-103976453D01*
X139702045Y-103979358D01*
X139700364Y-103996428D01*
X139612864Y-103996428D01*
X139612864Y-103246428D01*
X139700364Y-103246428D01*
X139700364Y-103389285D01*
X139702045Y-103406355D01*
X139703248Y-103409259D01*
X139703471Y-103412396D01*
X139709601Y-103428416D01*
X139745315Y-103499845D01*
X139749938Y-103507190D01*
X139750824Y-103509327D01*
X139752798Y-103511732D01*
X139754453Y-103514361D01*
X139756196Y-103515873D01*
X139761706Y-103522586D01*
X139797420Y-103558300D01*
X139804130Y-103563807D01*
X139805645Y-103565553D01*
X139808277Y-103567210D01*
X139810679Y-103569181D01*
X139812811Y-103570064D01*
X139820161Y-103574691D01*
X139891590Y-103610405D01*
X139907610Y-103616535D01*
X139910746Y-103616757D01*
X139913651Y-103617961D01*
X139930721Y-103619642D01*
X139966435Y-103619642D01*
X139983505Y-103617961D01*
X139986409Y-103616757D01*
X139989546Y-103616535D01*
X140005566Y-103610405D01*
X140076995Y-103574691D01*
X140084340Y-103570067D01*
X140086477Y-103569182D01*
X140088882Y-103567207D01*
X140091511Y-103565553D01*
X140093023Y-103563809D01*
X140099736Y-103558300D01*
X140109292Y-103548743D01*
X140118849Y-103558300D01*
X140125559Y-103563807D01*
X140127074Y-103565553D01*
X140129706Y-103567210D01*
X140132108Y-103569181D01*
X140134240Y-103570064D01*
X140141590Y-103574691D01*
X140213019Y-103610405D01*
X140229039Y-103616535D01*
X140232175Y-103616757D01*
X140235080Y-103617961D01*
X140252150Y-103619642D01*
X140395007Y-103619642D01*
X140412077Y-103617961D01*
X140414981Y-103616757D01*
X140418119Y-103616535D01*
X140434138Y-103610404D01*
X140505566Y-103574690D01*
X140512910Y-103570066D01*
X140515047Y-103569182D01*
X140517451Y-103567208D01*
X140520082Y-103565553D01*
X140521595Y-103563807D01*
X140528306Y-103558301D01*
X140564021Y-103522587D01*
X140569530Y-103515874D01*
X140571275Y-103514361D01*
X140572930Y-103511731D01*
X140574903Y-103509328D01*
X140575787Y-103507192D01*
X140580413Y-103499845D01*
X140616127Y-103428416D01*
X140622257Y-103412396D01*
X140622479Y-103409259D01*
X140623683Y-103406355D01*
X140625364Y-103389285D01*
X140625364Y-103246428D01*
X140623683Y-103229358D01*
X140622479Y-103226453D01*
X140622257Y-103223317D01*
X140616126Y-103207297D01*
X140580412Y-103135869D01*
X140575789Y-103128525D01*
X140574904Y-103126387D01*
X140572928Y-103123980D01*
X140571275Y-103121353D01*
X140569531Y-103119840D01*
X140564022Y-103113128D01*
X140528307Y-103077413D01*
X140521594Y-103071903D01*
X140520082Y-103070160D01*
X140517454Y-103068506D01*
X140515048Y-103066531D01*
X140512909Y-103065645D01*
X140505566Y-103061023D01*
X140434138Y-103025309D01*
X140418119Y-103019178D01*
X140414981Y-103018955D01*
X140412077Y-103017752D01*
X140395007Y-103016071D01*
X140252150Y-103016071D01*
X140235080Y-103017752D01*
X140232175Y-103018955D01*
X140229039Y-103019178D01*
X140213019Y-103025308D01*
X140141590Y-103061022D01*
X140134242Y-103065647D01*
X140132107Y-103066532D01*
X140129703Y-103068504D01*
X140127074Y-103070160D01*
X140125560Y-103071904D01*
X140118848Y-103077414D01*
X140109292Y-103086969D01*
X140099737Y-103077414D01*
X140093024Y-103071904D01*
X140091511Y-103070160D01*
X140088881Y-103068504D01*
X140086478Y-103066532D01*
X140084343Y-103065647D01*
X140076995Y-103061022D01*
X140005566Y-103025308D01*
X139989546Y-103019178D01*
X139986409Y-103018955D01*
X139983505Y-103017752D01*
X139966435Y-103016071D01*
X139930721Y-103016071D01*
X139913651Y-103017752D01*
X139910746Y-103018955D01*
X139907610Y-103019178D01*
X139891590Y-103025308D01*
X139820161Y-103061022D01*
X139812813Y-103065647D01*
X139810678Y-103066532D01*
X139808274Y-103068504D01*
X139805645Y-103070160D01*
X139804131Y-103071904D01*
X139797419Y-103077414D01*
X139761705Y-103113129D01*
X139756198Y-103119839D01*
X139754453Y-103121353D01*
X139752797Y-103123983D01*
X139750824Y-103126388D01*
X139749939Y-103128524D01*
X139745316Y-103135869D01*
X139709602Y-103207297D01*
X139703471Y-103223316D01*
X139703248Y-103226453D01*
X139702045Y-103229358D01*
X139700364Y-103246428D01*
X139612864Y-103246428D01*
X139612864Y-102532142D01*
X139700364Y-102532142D01*
X139700364Y-102674999D01*
X139702045Y-102692069D01*
X139703248Y-102694973D01*
X139703471Y-102698110D01*
X139709601Y-102714130D01*
X139745315Y-102785559D01*
X139749938Y-102792904D01*
X139750824Y-102795041D01*
X139752798Y-102797446D01*
X139754453Y-102800075D01*
X139756196Y-102801587D01*
X139761706Y-102808300D01*
X139797420Y-102844014D01*
X139804130Y-102849521D01*
X139805645Y-102851267D01*
X139808277Y-102852924D01*
X139810679Y-102854895D01*
X139812811Y-102855778D01*
X139820161Y-102860405D01*
X139891590Y-102896119D01*
X139907610Y-102902249D01*
X139910746Y-102902471D01*
X139913651Y-102903675D01*
X139930721Y-102905356D01*
X139966435Y-102905356D01*
X139983505Y-102903675D01*
X139986409Y-102902471D01*
X139989546Y-102902249D01*
X140005566Y-102896119D01*
X140076995Y-102860405D01*
X140084340Y-102855781D01*
X140086477Y-102854896D01*
X140088882Y-102852921D01*
X140091511Y-102851267D01*
X140093023Y-102849523D01*
X140099736Y-102844014D01*
X140109292Y-102834457D01*
X140118849Y-102844014D01*
X140125559Y-102849521D01*
X140127074Y-102851267D01*
X140129706Y-102852924D01*
X140132108Y-102854895D01*
X140134240Y-102855778D01*
X140141590Y-102860405D01*
X140213019Y-102896119D01*
X140229039Y-102902249D01*
X140232175Y-102902471D01*
X140235080Y-102903675D01*
X140252150Y-102905356D01*
X140395007Y-102905356D01*
X140412077Y-102903675D01*
X140414981Y-102902471D01*
X140418119Y-102902249D01*
X140434138Y-102896118D01*
X140505566Y-102860404D01*
X140512910Y-102855780D01*
X140515047Y-102854896D01*
X140517451Y-102852922D01*
X140520082Y-102851267D01*
X140521595Y-102849521D01*
X140528306Y-102844015D01*
X140564021Y-102808301D01*
X140569530Y-102801588D01*
X140571275Y-102800075D01*
X140572930Y-102797445D01*
X140574903Y-102795042D01*
X140575787Y-102792906D01*
X140580413Y-102785559D01*
X140616127Y-102714130D01*
X140622257Y-102698110D01*
X140622479Y-102694973D01*
X140623683Y-102692069D01*
X140625364Y-102674999D01*
X140625364Y-102532142D01*
X140623683Y-102515072D01*
X140622479Y-102512167D01*
X140622257Y-102509031D01*
X140616126Y-102493011D01*
X140580412Y-102421583D01*
X140575789Y-102414239D01*
X140574904Y-102412101D01*
X140572928Y-102409694D01*
X140571275Y-102407067D01*
X140569531Y-102405554D01*
X140564022Y-102398842D01*
X140528307Y-102363127D01*
X140521594Y-102357617D01*
X140520082Y-102355874D01*
X140517454Y-102354220D01*
X140515048Y-102352245D01*
X140512909Y-102351359D01*
X140505566Y-102346737D01*
X140434138Y-102311023D01*
X140418119Y-102304892D01*
X140414981Y-102304669D01*
X140412077Y-102303466D01*
X140395007Y-102301785D01*
X140252150Y-102301785D01*
X140235080Y-102303466D01*
X140232175Y-102304669D01*
X140229039Y-102304892D01*
X140213019Y-102311022D01*
X140141590Y-102346736D01*
X140134242Y-102351361D01*
X140132107Y-102352246D01*
X140129703Y-102354218D01*
X140127074Y-102355874D01*
X140125560Y-102357618D01*
X140118848Y-102363128D01*
X140109292Y-102372683D01*
X140099737Y-102363128D01*
X140093024Y-102357618D01*
X140091511Y-102355874D01*
X140088881Y-102354218D01*
X140086478Y-102352246D01*
X140084343Y-102351361D01*
X140076995Y-102346736D01*
X140005566Y-102311022D01*
X139989546Y-102304892D01*
X139986409Y-102304669D01*
X139983505Y-102303466D01*
X139966435Y-102301785D01*
X139930721Y-102301785D01*
X139913651Y-102303466D01*
X139910746Y-102304669D01*
X139907610Y-102304892D01*
X139891590Y-102311022D01*
X139820161Y-102346736D01*
X139812813Y-102351361D01*
X139810678Y-102352246D01*
X139808274Y-102354218D01*
X139805645Y-102355874D01*
X139804131Y-102357618D01*
X139797419Y-102363128D01*
X139761705Y-102398843D01*
X139756198Y-102405553D01*
X139754453Y-102407067D01*
X139752797Y-102409697D01*
X139750824Y-102412102D01*
X139749939Y-102414238D01*
X139745316Y-102421583D01*
X139709602Y-102493011D01*
X139703471Y-102509030D01*
X139703248Y-102512167D01*
X139702045Y-102515072D01*
X139700364Y-102532142D01*
X139612864Y-102532142D01*
X139612864Y-102214285D01*
X140712864Y-102214285D01*
X140712864Y-106350000D01*
G37*
X152987864Y-107671428D02*
X153595007Y-107671428D01*
X153595007Y-107671428D02*
X153666435Y-107635714D01*
X153666435Y-107635714D02*
X153702150Y-107600000D01*
X153702150Y-107600000D02*
X153737864Y-107528571D01*
X153737864Y-107528571D02*
X153737864Y-107385714D01*
X153737864Y-107385714D02*
X153702150Y-107314285D01*
X153702150Y-107314285D02*
X153666435Y-107278571D01*
X153666435Y-107278571D02*
X153595007Y-107242857D01*
X153595007Y-107242857D02*
X152987864Y-107242857D01*
X153059292Y-106921428D02*
X153023578Y-106885714D01*
X153023578Y-106885714D02*
X152987864Y-106814286D01*
X152987864Y-106814286D02*
X152987864Y-106635714D01*
X152987864Y-106635714D02*
X153023578Y-106564286D01*
X153023578Y-106564286D02*
X153059292Y-106528571D01*
X153059292Y-106528571D02*
X153130721Y-106492857D01*
X153130721Y-106492857D02*
X153202150Y-106492857D01*
X153202150Y-106492857D02*
X153309292Y-106528571D01*
X153309292Y-106528571D02*
X153737864Y-106957143D01*
X153737864Y-106957143D02*
X153737864Y-106492857D01*
X158037864Y-98809771D02*
X157287864Y-98809771D01*
X157287864Y-98809771D02*
X157287864Y-98631200D01*
X157287864Y-98631200D02*
X157323578Y-98524057D01*
X157323578Y-98524057D02*
X157395007Y-98452628D01*
X157395007Y-98452628D02*
X157466435Y-98416914D01*
X157466435Y-98416914D02*
X157609292Y-98381200D01*
X157609292Y-98381200D02*
X157716435Y-98381200D01*
X157716435Y-98381200D02*
X157859292Y-98416914D01*
X157859292Y-98416914D02*
X157930721Y-98452628D01*
X157930721Y-98452628D02*
X158002150Y-98524057D01*
X158002150Y-98524057D02*
X158037864Y-98631200D01*
X158037864Y-98631200D02*
X158037864Y-98809771D01*
X158037864Y-97666914D02*
X158037864Y-98095485D01*
X158037864Y-97881200D02*
X157287864Y-97881200D01*
X157287864Y-97881200D02*
X157395007Y-97952628D01*
X157395007Y-97952628D02*
X157466435Y-98024057D01*
X157466435Y-98024057D02*
X157502150Y-98095485D01*
D12*
X144249366Y-97150000D02*
X144282700Y-97183333D01*
X144282700Y-97183333D02*
X144316033Y-97283333D01*
X144316033Y-97283333D02*
X144316033Y-97350000D01*
X144316033Y-97350000D02*
X144282700Y-97450000D01*
X144282700Y-97450000D02*
X144216033Y-97516667D01*
X144216033Y-97516667D02*
X144149366Y-97550000D01*
X144149366Y-97550000D02*
X144016033Y-97583333D01*
X144016033Y-97583333D02*
X143916033Y-97583333D01*
X143916033Y-97583333D02*
X143782700Y-97550000D01*
X143782700Y-97550000D02*
X143716033Y-97516667D01*
X143716033Y-97516667D02*
X143649366Y-97450000D01*
X143649366Y-97450000D02*
X143616033Y-97350000D01*
X143616033Y-97350000D02*
X143616033Y-97283333D01*
X143616033Y-97283333D02*
X143649366Y-97183333D01*
X143649366Y-97183333D02*
X143682700Y-97150000D01*
X144282700Y-96883333D02*
X144316033Y-96783333D01*
X144316033Y-96783333D02*
X144316033Y-96616667D01*
X144316033Y-96616667D02*
X144282700Y-96550000D01*
X144282700Y-96550000D02*
X144249366Y-96516667D01*
X144249366Y-96516667D02*
X144182700Y-96483333D01*
X144182700Y-96483333D02*
X144116033Y-96483333D01*
X144116033Y-96483333D02*
X144049366Y-96516667D01*
X144049366Y-96516667D02*
X144016033Y-96550000D01*
X144016033Y-96550000D02*
X143982700Y-96616667D01*
X143982700Y-96616667D02*
X143949366Y-96750000D01*
X143949366Y-96750000D02*
X143916033Y-96816667D01*
X143916033Y-96816667D02*
X143882700Y-96850000D01*
X143882700Y-96850000D02*
X143816033Y-96883333D01*
X143816033Y-96883333D02*
X143749366Y-96883333D01*
X143749366Y-96883333D02*
X143682700Y-96850000D01*
X143682700Y-96850000D02*
X143649366Y-96816667D01*
X143649366Y-96816667D02*
X143616033Y-96750000D01*
X143616033Y-96750000D02*
X143616033Y-96583333D01*
X143616033Y-96583333D02*
X143649366Y-96483333D01*
X143682700Y-96216666D02*
X143649366Y-96183333D01*
X143649366Y-96183333D02*
X143616033Y-96116666D01*
X143616033Y-96116666D02*
X143616033Y-95950000D01*
X143616033Y-95950000D02*
X143649366Y-95883333D01*
X143649366Y-95883333D02*
X143682700Y-95850000D01*
X143682700Y-95850000D02*
X143749366Y-95816666D01*
X143749366Y-95816666D02*
X143816033Y-95816666D01*
X143816033Y-95816666D02*
X143916033Y-95850000D01*
X143916033Y-95850000D02*
X144316033Y-96250000D01*
X144316033Y-96250000D02*
X144316033Y-95816666D01*
D13*
X145987864Y-104871428D02*
X146595007Y-104871428D01*
X146595007Y-104871428D02*
X146666435Y-104835714D01*
X146666435Y-104835714D02*
X146702150Y-104800000D01*
X146702150Y-104800000D02*
X146737864Y-104728571D01*
X146737864Y-104728571D02*
X146737864Y-104585714D01*
X146737864Y-104585714D02*
X146702150Y-104514285D01*
X146702150Y-104514285D02*
X146666435Y-104478571D01*
X146666435Y-104478571D02*
X146595007Y-104442857D01*
X146595007Y-104442857D02*
X145987864Y-104442857D01*
X146737864Y-103692857D02*
X146737864Y-104121428D01*
X146737864Y-103907143D02*
X145987864Y-103907143D01*
X145987864Y-103907143D02*
X146095007Y-103978571D01*
X146095007Y-103978571D02*
X146166435Y-104050000D01*
X146166435Y-104050000D02*
X146202150Y-104121428D01*
D12*
X146482700Y-98033333D02*
X146516033Y-97933333D01*
X146516033Y-97933333D02*
X146516033Y-97766667D01*
X146516033Y-97766667D02*
X146482700Y-97700000D01*
X146482700Y-97700000D02*
X146449366Y-97666667D01*
X146449366Y-97666667D02*
X146382700Y-97633333D01*
X146382700Y-97633333D02*
X146316033Y-97633333D01*
X146316033Y-97633333D02*
X146249366Y-97666667D01*
X146249366Y-97666667D02*
X146216033Y-97700000D01*
X146216033Y-97700000D02*
X146182700Y-97766667D01*
X146182700Y-97766667D02*
X146149366Y-97900000D01*
X146149366Y-97900000D02*
X146116033Y-97966667D01*
X146116033Y-97966667D02*
X146082700Y-98000000D01*
X146082700Y-98000000D02*
X146016033Y-98033333D01*
X146016033Y-98033333D02*
X145949366Y-98033333D01*
X145949366Y-98033333D02*
X145882700Y-98000000D01*
X145882700Y-98000000D02*
X145849366Y-97966667D01*
X145849366Y-97966667D02*
X145816033Y-97900000D01*
X145816033Y-97900000D02*
X145816033Y-97733333D01*
X145816033Y-97733333D02*
X145849366Y-97633333D01*
X146449366Y-96933333D02*
X146482700Y-96966666D01*
X146482700Y-96966666D02*
X146516033Y-97066666D01*
X146516033Y-97066666D02*
X146516033Y-97133333D01*
X146516033Y-97133333D02*
X146482700Y-97233333D01*
X146482700Y-97233333D02*
X146416033Y-97300000D01*
X146416033Y-97300000D02*
X146349366Y-97333333D01*
X146349366Y-97333333D02*
X146216033Y-97366666D01*
X146216033Y-97366666D02*
X146116033Y-97366666D01*
X146116033Y-97366666D02*
X145982700Y-97333333D01*
X145982700Y-97333333D02*
X145916033Y-97300000D01*
X145916033Y-97300000D02*
X145849366Y-97233333D01*
X145849366Y-97233333D02*
X145816033Y-97133333D01*
X145816033Y-97133333D02*
X145816033Y-97066666D01*
X145816033Y-97066666D02*
X145849366Y-96966666D01*
X145849366Y-96966666D02*
X145882700Y-96933333D01*
X146516033Y-96633333D02*
X145816033Y-96633333D01*
X146516033Y-96233333D02*
X146116033Y-96533333D01*
X145816033Y-96233333D02*
X146216033Y-96633333D01*
X146516033Y-95566666D02*
X146516033Y-95966666D01*
X146516033Y-95766666D02*
X145816033Y-95766666D01*
X145816033Y-95766666D02*
X145916033Y-95833333D01*
X145916033Y-95833333D02*
X145982700Y-95900000D01*
X145982700Y-95900000D02*
X146016033Y-95966666D01*
X142116033Y-98433333D02*
X141416033Y-98433333D01*
X141416033Y-98433333D02*
X141916033Y-98200000D01*
X141916033Y-98200000D02*
X141416033Y-97966666D01*
X141416033Y-97966666D02*
X142116033Y-97966666D01*
X142116033Y-97633333D02*
X141416033Y-97633333D01*
X142082700Y-97333333D02*
X142116033Y-97233333D01*
X142116033Y-97233333D02*
X142116033Y-97066667D01*
X142116033Y-97066667D02*
X142082700Y-97000000D01*
X142082700Y-97000000D02*
X142049366Y-96966667D01*
X142049366Y-96966667D02*
X141982700Y-96933333D01*
X141982700Y-96933333D02*
X141916033Y-96933333D01*
X141916033Y-96933333D02*
X141849366Y-96966667D01*
X141849366Y-96966667D02*
X141816033Y-97000000D01*
X141816033Y-97000000D02*
X141782700Y-97066667D01*
X141782700Y-97066667D02*
X141749366Y-97200000D01*
X141749366Y-97200000D02*
X141716033Y-97266667D01*
X141716033Y-97266667D02*
X141682700Y-97300000D01*
X141682700Y-97300000D02*
X141616033Y-97333333D01*
X141616033Y-97333333D02*
X141549366Y-97333333D01*
X141549366Y-97333333D02*
X141482700Y-97300000D01*
X141482700Y-97300000D02*
X141449366Y-97266667D01*
X141449366Y-97266667D02*
X141416033Y-97200000D01*
X141416033Y-97200000D02*
X141416033Y-97033333D01*
X141416033Y-97033333D02*
X141449366Y-96933333D01*
X141416033Y-96500000D02*
X141416033Y-96366666D01*
X141416033Y-96366666D02*
X141449366Y-96300000D01*
X141449366Y-96300000D02*
X141516033Y-96233333D01*
X141516033Y-96233333D02*
X141649366Y-96200000D01*
X141649366Y-96200000D02*
X141882700Y-96200000D01*
X141882700Y-96200000D02*
X142016033Y-96233333D01*
X142016033Y-96233333D02*
X142082700Y-96300000D01*
X142082700Y-96300000D02*
X142116033Y-96366666D01*
X142116033Y-96366666D02*
X142116033Y-96500000D01*
X142116033Y-96500000D02*
X142082700Y-96566666D01*
X142082700Y-96566666D02*
X142016033Y-96633333D01*
X142016033Y-96633333D02*
X141882700Y-96666666D01*
X141882700Y-96666666D02*
X141649366Y-96666666D01*
X141649366Y-96666666D02*
X141516033Y-96633333D01*
X141516033Y-96633333D02*
X141449366Y-96566666D01*
X141449366Y-96566666D02*
X141416033Y-96500000D01*
X142116033Y-95533333D02*
X142116033Y-95933333D01*
X142116033Y-95733333D02*
X141416033Y-95733333D01*
X141416033Y-95733333D02*
X141516033Y-95800000D01*
X141516033Y-95800000D02*
X141582700Y-95866667D01*
X141582700Y-95866667D02*
X141616033Y-95933333D01*
D13*
X156437864Y-98381200D02*
X156080721Y-98631200D01*
X156437864Y-98809771D02*
X155687864Y-98809771D01*
X155687864Y-98809771D02*
X155687864Y-98524057D01*
X155687864Y-98524057D02*
X155723578Y-98452628D01*
X155723578Y-98452628D02*
X155759292Y-98416914D01*
X155759292Y-98416914D02*
X155830721Y-98381200D01*
X155830721Y-98381200D02*
X155937864Y-98381200D01*
X155937864Y-98381200D02*
X156009292Y-98416914D01*
X156009292Y-98416914D02*
X156045007Y-98452628D01*
X156045007Y-98452628D02*
X156080721Y-98524057D01*
X156080721Y-98524057D02*
X156080721Y-98809771D01*
X156437864Y-97666914D02*
X156437864Y-98095485D01*
X156437864Y-97881200D02*
X155687864Y-97881200D01*
X155687864Y-97881200D02*
X155795007Y-97952628D01*
X155795007Y-97952628D02*
X155866435Y-98024057D01*
X155866435Y-98024057D02*
X155902150Y-98095485D01*
X144566435Y-101625000D02*
X144602150Y-101660714D01*
X144602150Y-101660714D02*
X144637864Y-101767857D01*
X144637864Y-101767857D02*
X144637864Y-101839285D01*
X144637864Y-101839285D02*
X144602150Y-101946428D01*
X144602150Y-101946428D02*
X144530721Y-102017857D01*
X144530721Y-102017857D02*
X144459292Y-102053571D01*
X144459292Y-102053571D02*
X144316435Y-102089285D01*
X144316435Y-102089285D02*
X144209292Y-102089285D01*
X144209292Y-102089285D02*
X144066435Y-102053571D01*
X144066435Y-102053571D02*
X143995007Y-102017857D01*
X143995007Y-102017857D02*
X143923578Y-101946428D01*
X143923578Y-101946428D02*
X143887864Y-101839285D01*
X143887864Y-101839285D02*
X143887864Y-101767857D01*
X143887864Y-101767857D02*
X143923578Y-101660714D01*
X143923578Y-101660714D02*
X143959292Y-101625000D01*
X143959292Y-101339285D02*
X143923578Y-101303571D01*
X143923578Y-101303571D02*
X143887864Y-101232143D01*
X143887864Y-101232143D02*
X143887864Y-101053571D01*
X143887864Y-101053571D02*
X143923578Y-100982143D01*
X143923578Y-100982143D02*
X143959292Y-100946428D01*
X143959292Y-100946428D02*
X144030721Y-100910714D01*
X144030721Y-100910714D02*
X144102150Y-100910714D01*
X144102150Y-100910714D02*
X144209292Y-100946428D01*
X144209292Y-100946428D02*
X144637864Y-101375000D01*
X144637864Y-101375000D02*
X144637864Y-100910714D01*
D12*
X139949366Y-97150000D02*
X139982700Y-97183333D01*
X139982700Y-97183333D02*
X140016033Y-97283333D01*
X140016033Y-97283333D02*
X140016033Y-97350000D01*
X140016033Y-97350000D02*
X139982700Y-97450000D01*
X139982700Y-97450000D02*
X139916033Y-97516667D01*
X139916033Y-97516667D02*
X139849366Y-97550000D01*
X139849366Y-97550000D02*
X139716033Y-97583333D01*
X139716033Y-97583333D02*
X139616033Y-97583333D01*
X139616033Y-97583333D02*
X139482700Y-97550000D01*
X139482700Y-97550000D02*
X139416033Y-97516667D01*
X139416033Y-97516667D02*
X139349366Y-97450000D01*
X139349366Y-97450000D02*
X139316033Y-97350000D01*
X139316033Y-97350000D02*
X139316033Y-97283333D01*
X139316033Y-97283333D02*
X139349366Y-97183333D01*
X139349366Y-97183333D02*
X139382700Y-97150000D01*
X139982700Y-96883333D02*
X140016033Y-96783333D01*
X140016033Y-96783333D02*
X140016033Y-96616667D01*
X140016033Y-96616667D02*
X139982700Y-96550000D01*
X139982700Y-96550000D02*
X139949366Y-96516667D01*
X139949366Y-96516667D02*
X139882700Y-96483333D01*
X139882700Y-96483333D02*
X139816033Y-96483333D01*
X139816033Y-96483333D02*
X139749366Y-96516667D01*
X139749366Y-96516667D02*
X139716033Y-96550000D01*
X139716033Y-96550000D02*
X139682700Y-96616667D01*
X139682700Y-96616667D02*
X139649366Y-96750000D01*
X139649366Y-96750000D02*
X139616033Y-96816667D01*
X139616033Y-96816667D02*
X139582700Y-96850000D01*
X139582700Y-96850000D02*
X139516033Y-96883333D01*
X139516033Y-96883333D02*
X139449366Y-96883333D01*
X139449366Y-96883333D02*
X139382700Y-96850000D01*
X139382700Y-96850000D02*
X139349366Y-96816667D01*
X139349366Y-96816667D02*
X139316033Y-96750000D01*
X139316033Y-96750000D02*
X139316033Y-96583333D01*
X139316033Y-96583333D02*
X139349366Y-96483333D01*
X140016033Y-95816666D02*
X140016033Y-96216666D01*
X140016033Y-96016666D02*
X139316033Y-96016666D01*
X139316033Y-96016666D02*
X139416033Y-96083333D01*
X139416033Y-96083333D02*
X139482700Y-96150000D01*
X139482700Y-96150000D02*
X139516033Y-96216666D01*
D13*
X157066435Y-108025000D02*
X157102150Y-108060714D01*
X157102150Y-108060714D02*
X157137864Y-108167857D01*
X157137864Y-108167857D02*
X157137864Y-108239285D01*
X157137864Y-108239285D02*
X157102150Y-108346428D01*
X157102150Y-108346428D02*
X157030721Y-108417857D01*
X157030721Y-108417857D02*
X156959292Y-108453571D01*
X156959292Y-108453571D02*
X156816435Y-108489285D01*
X156816435Y-108489285D02*
X156709292Y-108489285D01*
X156709292Y-108489285D02*
X156566435Y-108453571D01*
X156566435Y-108453571D02*
X156495007Y-108417857D01*
X156495007Y-108417857D02*
X156423578Y-108346428D01*
X156423578Y-108346428D02*
X156387864Y-108239285D01*
X156387864Y-108239285D02*
X156387864Y-108167857D01*
X156387864Y-108167857D02*
X156423578Y-108060714D01*
X156423578Y-108060714D02*
X156459292Y-108025000D01*
X156387864Y-107775000D02*
X156387864Y-107310714D01*
X156387864Y-107310714D02*
X156673578Y-107560714D01*
X156673578Y-107560714D02*
X156673578Y-107453571D01*
X156673578Y-107453571D02*
X156709292Y-107382143D01*
X156709292Y-107382143D02*
X156745007Y-107346428D01*
X156745007Y-107346428D02*
X156816435Y-107310714D01*
X156816435Y-107310714D02*
X156995007Y-107310714D01*
X156995007Y-107310714D02*
X157066435Y-107346428D01*
X157066435Y-107346428D02*
X157102150Y-107382143D01*
X157102150Y-107382143D02*
X157137864Y-107453571D01*
X157137864Y-107453571D02*
X157137864Y-107667857D01*
X157137864Y-107667857D02*
X157102150Y-107739285D01*
X157102150Y-107739285D02*
X157066435Y-107775000D01*
X150366435Y-107925000D02*
X150402150Y-107960714D01*
X150402150Y-107960714D02*
X150437864Y-108067857D01*
X150437864Y-108067857D02*
X150437864Y-108139285D01*
X150437864Y-108139285D02*
X150402150Y-108246428D01*
X150402150Y-108246428D02*
X150330721Y-108317857D01*
X150330721Y-108317857D02*
X150259292Y-108353571D01*
X150259292Y-108353571D02*
X150116435Y-108389285D01*
X150116435Y-108389285D02*
X150009292Y-108389285D01*
X150009292Y-108389285D02*
X149866435Y-108353571D01*
X149866435Y-108353571D02*
X149795007Y-108317857D01*
X149795007Y-108317857D02*
X149723578Y-108246428D01*
X149723578Y-108246428D02*
X149687864Y-108139285D01*
X149687864Y-108139285D02*
X149687864Y-108067857D01*
X149687864Y-108067857D02*
X149723578Y-107960714D01*
X149723578Y-107960714D02*
X149759292Y-107925000D01*
X149937864Y-107282143D02*
X150437864Y-107282143D01*
X149652150Y-107460714D02*
X150187864Y-107639285D01*
X150187864Y-107639285D02*
X150187864Y-107175000D01*
D12*
X148716033Y-98433333D02*
X148016033Y-98433333D01*
X148016033Y-98433333D02*
X148516033Y-98200000D01*
X148516033Y-98200000D02*
X148016033Y-97966666D01*
X148016033Y-97966666D02*
X148716033Y-97966666D01*
X148016033Y-97500000D02*
X148016033Y-97366666D01*
X148016033Y-97366666D02*
X148049366Y-97300000D01*
X148049366Y-97300000D02*
X148116033Y-97233333D01*
X148116033Y-97233333D02*
X148249366Y-97200000D01*
X148249366Y-97200000D02*
X148482700Y-97200000D01*
X148482700Y-97200000D02*
X148616033Y-97233333D01*
X148616033Y-97233333D02*
X148682700Y-97300000D01*
X148682700Y-97300000D02*
X148716033Y-97366666D01*
X148716033Y-97366666D02*
X148716033Y-97500000D01*
X148716033Y-97500000D02*
X148682700Y-97566666D01*
X148682700Y-97566666D02*
X148616033Y-97633333D01*
X148616033Y-97633333D02*
X148482700Y-97666666D01*
X148482700Y-97666666D02*
X148249366Y-97666666D01*
X148249366Y-97666666D02*
X148116033Y-97633333D01*
X148116033Y-97633333D02*
X148049366Y-97566666D01*
X148049366Y-97566666D02*
X148016033Y-97500000D01*
X148682700Y-96933333D02*
X148716033Y-96833333D01*
X148716033Y-96833333D02*
X148716033Y-96666667D01*
X148716033Y-96666667D02*
X148682700Y-96600000D01*
X148682700Y-96600000D02*
X148649366Y-96566667D01*
X148649366Y-96566667D02*
X148582700Y-96533333D01*
X148582700Y-96533333D02*
X148516033Y-96533333D01*
X148516033Y-96533333D02*
X148449366Y-96566667D01*
X148449366Y-96566667D02*
X148416033Y-96600000D01*
X148416033Y-96600000D02*
X148382700Y-96666667D01*
X148382700Y-96666667D02*
X148349366Y-96800000D01*
X148349366Y-96800000D02*
X148316033Y-96866667D01*
X148316033Y-96866667D02*
X148282700Y-96900000D01*
X148282700Y-96900000D02*
X148216033Y-96933333D01*
X148216033Y-96933333D02*
X148149366Y-96933333D01*
X148149366Y-96933333D02*
X148082700Y-96900000D01*
X148082700Y-96900000D02*
X148049366Y-96866667D01*
X148049366Y-96866667D02*
X148016033Y-96800000D01*
X148016033Y-96800000D02*
X148016033Y-96633333D01*
X148016033Y-96633333D02*
X148049366Y-96533333D01*
X148716033Y-96233333D02*
X148016033Y-96233333D01*
X148716033Y-95533333D02*
X148716033Y-95933333D01*
X148716033Y-95733333D02*
X148016033Y-95733333D01*
X148016033Y-95733333D02*
X148116033Y-95800000D01*
X148116033Y-95800000D02*
X148182700Y-95866667D01*
X148182700Y-95866667D02*
X148216033Y-95933333D01*
D13*
X143866435Y-107825000D02*
X143902150Y-107860714D01*
X143902150Y-107860714D02*
X143937864Y-107967857D01*
X143937864Y-107967857D02*
X143937864Y-108039285D01*
X143937864Y-108039285D02*
X143902150Y-108146428D01*
X143902150Y-108146428D02*
X143830721Y-108217857D01*
X143830721Y-108217857D02*
X143759292Y-108253571D01*
X143759292Y-108253571D02*
X143616435Y-108289285D01*
X143616435Y-108289285D02*
X143509292Y-108289285D01*
X143509292Y-108289285D02*
X143366435Y-108253571D01*
X143366435Y-108253571D02*
X143295007Y-108217857D01*
X143295007Y-108217857D02*
X143223578Y-108146428D01*
X143223578Y-108146428D02*
X143187864Y-108039285D01*
X143187864Y-108039285D02*
X143187864Y-107967857D01*
X143187864Y-107967857D02*
X143223578Y-107860714D01*
X143223578Y-107860714D02*
X143259292Y-107825000D01*
X143937864Y-107110714D02*
X143937864Y-107539285D01*
X143937864Y-107325000D02*
X143187864Y-107325000D01*
X143187864Y-107325000D02*
X143295007Y-107396428D01*
X143295007Y-107396428D02*
X143366435Y-107467857D01*
X143366435Y-107467857D02*
X143402150Y-107539285D01*
D14*
%TO.C,U2*%
X152550013Y-103100000D02*
X154250013Y-103100000D01*
X152550013Y-103169799D02*
X152550013Y-103100000D01*
X152550013Y-105069723D02*
X152550013Y-104130074D01*
X152550013Y-106100000D02*
X152550013Y-106029997D01*
X154250013Y-103100000D02*
X154250013Y-103169799D01*
X154250013Y-106029997D02*
X154250013Y-106100000D01*
X154250013Y-106100000D02*
X152550013Y-106100000D01*
D15*
X154829896Y-106050089D02*
G75*
G02*
X154769952Y-106050089I-29972J0D01*
G01*
X154769952Y-106050089D02*
G75*
G02*
X154829896Y-106050089I29972J0D01*
G01*
D16*
X155079324Y-106210871D02*
G75*
G02*
X154779096Y-106210871I-150114J0D01*
G01*
X154779096Y-106210871D02*
G75*
G02*
X155079324Y-106210871I150114J0D01*
G01*
D17*
%TO.C,D1*%
X156965000Y-94471200D02*
X156965000Y-96756200D01*
X158435000Y-94471200D02*
X156965000Y-94471200D01*
X158435000Y-96756200D02*
X158435000Y-94471200D01*
%TO.C,CS2*%
X144700000Y-94700000D02*
G75*
G02*
X143300000Y-94700000I-700000J0D01*
G01*
X143300000Y-94700000D02*
G75*
G02*
X144700000Y-94700000I700000J0D01*
G01*
D18*
%TO.C,U1*%
X141013995Y-102775997D02*
X141473000Y-102775997D01*
X141013995Y-103970866D02*
X141013995Y-102775997D01*
X141013995Y-105824003D02*
X141013995Y-104629159D01*
X141473000Y-105824003D02*
X141013995Y-105824003D01*
X145131293Y-102775997D02*
X145459004Y-102775997D01*
X145459004Y-102775997D02*
X145586005Y-102775997D01*
X145586005Y-102775997D02*
X145586005Y-103918999D01*
X145586005Y-104681001D02*
X145586005Y-105824003D01*
X145586005Y-105824003D02*
X145131293Y-105824003D01*
D15*
X141080036Y-102799873D02*
G75*
G02*
X141020092Y-102799873I-29972J0D01*
G01*
X141020092Y-102799873D02*
G75*
G02*
X141080036Y-102799873I29972J0D01*
G01*
D19*
X141379757Y-102521996D02*
G75*
G02*
X141156235Y-102521996I-111761J0D01*
G01*
X141156235Y-102521996D02*
G75*
G02*
X141379757Y-102521996I111761J0D01*
G01*
D17*
%TO.C,SCK1*%
X146900000Y-94700000D02*
G75*
G02*
X145500000Y-94700000I-700000J0D01*
G01*
X145500000Y-94700000D02*
G75*
G02*
X146900000Y-94700000I700000J0D01*
G01*
%TO.C,MISO1*%
X142500000Y-94700000D02*
G75*
G02*
X141100000Y-94700000I-700000J0D01*
G01*
X141100000Y-94700000D02*
G75*
G02*
X142500000Y-94700000I700000J0D01*
G01*
%TO.C,R1*%
X155503700Y-95718942D02*
X155503700Y-96193458D01*
X156548700Y-95718942D02*
X156548700Y-96193458D01*
%TO.C,C2*%
X142492164Y-101440000D02*
X142707836Y-101440000D01*
X142492164Y-102160000D02*
X142707836Y-102160000D01*
%TO.C,CS1*%
X140300000Y-94700000D02*
G75*
G02*
X138900000Y-94700000I-700000J0D01*
G01*
X138900000Y-94700000D02*
G75*
G02*
X140300000Y-94700000I700000J0D01*
G01*
%TO.C,C3*%
X155890000Y-105411252D02*
X155890000Y-103988748D01*
X157710000Y-105411252D02*
X157710000Y-103988748D01*
%TO.C,C4*%
X149190000Y-105411252D02*
X149190000Y-103988748D01*
X151010000Y-105411252D02*
X151010000Y-103988748D01*
%TO.C,MOSI1*%
X149100000Y-94700000D02*
G75*
G02*
X147700000Y-94700000I-700000J0D01*
G01*
X147700000Y-94700000D02*
G75*
G02*
X149100000Y-94700000I700000J0D01*
G01*
%TO.C,C1*%
X143707836Y-106140000D02*
X143492164Y-106140000D01*
X143707836Y-106860000D02*
X143492164Y-106860000D01*
%TD*%
%LPC*%
D20*
X138550000Y-113850000D02*
X158450000Y-113850000D01*
X158450000Y-114450000D01*
X138550000Y-114450000D01*
X138550000Y-113850000D01*
G36*
X138550000Y-113850000D02*
G01*
X158450000Y-113850000D01*
X158450000Y-114450000D01*
X138550000Y-114450000D01*
X138550000Y-113850000D01*
G37*
D21*
%TO.C,J1*%
G36*
X150777686Y-92669501D02*
G01*
X150856638Y-92964152D01*
X150985556Y-93240617D01*
X151160522Y-93490495D01*
X151376222Y-93706195D01*
X151626100Y-93881161D01*
X151902565Y-94010079D01*
X152197216Y-94089031D01*
X152501100Y-94115617D01*
X152804984Y-94089031D01*
X153099635Y-94010079D01*
X153376100Y-93881161D01*
X153625978Y-93706195D01*
X153841678Y-93490495D01*
X154016644Y-93240617D01*
X154145562Y-92964152D01*
X154251100Y-92365617D01*
X155251100Y-92365617D01*
X155227573Y-92724564D01*
X155157396Y-93077369D01*
X155041769Y-93417996D01*
X154882670Y-93740617D01*
X154682822Y-94039711D01*
X154445644Y-94310161D01*
X154175194Y-94547339D01*
X153876100Y-94747187D01*
X153553479Y-94906286D01*
X153212852Y-95021913D01*
X152501100Y-95115617D01*
X152142153Y-95092090D01*
X151789348Y-95021913D01*
X151448721Y-94906286D01*
X151126100Y-94747187D01*
X150827006Y-94547339D01*
X150556556Y-94310161D01*
X150319378Y-94039711D01*
X150119530Y-93740617D01*
X149960431Y-93417996D01*
X149844804Y-93077369D01*
X149774627Y-92724564D01*
X149751100Y-92365617D01*
X150751100Y-92365617D01*
X150777686Y-92669501D01*
G37*
%TD*%
D22*
%TO.C,J1*%
X157751100Y-113090617D03*
X157251100Y-113090617D03*
X156751100Y-113090617D03*
X156251100Y-113090617D03*
X155751100Y-113090617D03*
X155251100Y-113090617D03*
X154751100Y-113090617D03*
X154251100Y-113090617D03*
X153751100Y-113090617D03*
X153251100Y-113090617D03*
X152751100Y-113090617D03*
X152251100Y-113090617D03*
X149751100Y-113090617D03*
X149251100Y-113090617D03*
X148751100Y-113090617D03*
X148251100Y-113090617D03*
X147751100Y-113090617D03*
X147251100Y-113090617D03*
X146751100Y-113090617D03*
X146251100Y-113090617D03*
X145751100Y-113090617D03*
X145251100Y-113090617D03*
X144751100Y-113090617D03*
X144251100Y-113090617D03*
X143751100Y-113090617D03*
X143251100Y-113090617D03*
X142751100Y-113090617D03*
X142251100Y-113090617D03*
X141751100Y-113090617D03*
X141251100Y-113090617D03*
X140751100Y-113090617D03*
X140251100Y-113090617D03*
X139751100Y-113090617D03*
X139251100Y-113090617D03*
D23*
X150401100Y-93365617D03*
X152501100Y-94665617D03*
X154601100Y-93365617D03*
%TD*%
D24*
%TO.C,U2*%
X154549987Y-105549962D03*
X154549987Y-104600000D03*
X154549987Y-103650038D03*
X152250013Y-103650038D03*
X152250013Y-105549962D03*
%TD*%
D25*
%TO.C,D1*%
X157700000Y-95168700D03*
X157700000Y-96743700D03*
%TD*%
D26*
%TO.C,CS2*%
X144000000Y-94700000D03*
%TD*%
D27*
%TO.C,U1*%
X141802159Y-103100102D03*
X142302032Y-103100102D03*
X142802159Y-103100102D03*
X143302032Y-103100102D03*
X143802159Y-103100102D03*
X144302032Y-103100102D03*
X144802159Y-103100102D03*
D28*
X145214910Y-104300000D03*
D29*
X144802159Y-105499898D03*
X144302032Y-105499898D03*
X143802159Y-105499898D03*
X143302032Y-105499898D03*
X142802159Y-105499898D03*
X142302032Y-105499898D03*
X141802159Y-105499898D03*
D30*
X141385090Y-104300000D03*
%TD*%
D26*
%TO.C,SCK1*%
X146200000Y-94700000D03*
%TD*%
%TO.C,MISO1*%
X141800000Y-94700000D03*
%TD*%
D31*
%TO.C,R1*%
X156026200Y-95131200D03*
X156026200Y-96781200D03*
%TD*%
D32*
%TO.C,C2*%
X142120000Y-101800000D03*
X143080000Y-101800000D03*
%TD*%
D26*
%TO.C,CS1*%
X139600000Y-94700000D03*
%TD*%
D33*
%TO.C,C3*%
X156800000Y-106175000D03*
X156800000Y-103225000D03*
%TD*%
%TO.C,C4*%
X150100000Y-106175000D03*
X150100000Y-103225000D03*
%TD*%
D26*
%TO.C,MOSI1*%
X148400000Y-94700000D03*
%TD*%
D34*
%TO.C,C1*%
X144080000Y-106500000D03*
X143120000Y-106500000D03*
%TD*%
%LPD*%
M02*
