%TF.GenerationSoftware,KiCad,Pcbnew,9.0.0*%
%TF.CreationDate,2025-05-22T16:07:54+04:00*%
%TF.ProjectId,02_03_sensor_IMU_BMI088,30325f30-335f-4736-956e-736f725f494d,rev?*%
%TF.SameCoordinates,Original*%
%TF.FileFunction,Copper,L2,Bot*%
%TF.FilePolarity,Positive*%
%FSLAX46Y46*%
G04 Gerber Fmt 4.6, Leading zero omitted, Abs format (unit mm)*
G04 Created by KiCad (PCBNEW 9.0.0) date 2025-05-22 16:07:54*
%MOMM*%
%LPD*%
G01*
G04 APERTURE LIST*
%TA.AperFunction,SMDPad,CuDef*%
%ADD10R,0.350000X1.950000*%
%TD*%
%TA.AperFunction,ComponentPad*%
%ADD11C,0.454000*%
%TD*%
%TA.AperFunction,ViaPad*%
%ADD12C,0.500000*%
%TD*%
%TA.AperFunction,Conductor*%
%ADD13C,0.250000*%
%TD*%
%TA.AperFunction,Conductor*%
%ADD14C,0.750000*%
%TD*%
G04 APERTURE END LIST*
D10*
%TO.P,J1,2,3.3V*%
%TO.N,+3V3*%
X157501100Y-112840617D03*
%TO.P,J1,4,3.3V_EN*%
%TO.N,/3.3V_EN*%
X157001100Y-112840617D03*
%TO.P,J1,6,~{RESET}*%
%TO.N,+5V*%
X156501100Y-112840617D03*
%TO.P,J1,8,G11*%
%TO.N,/G11-SWO*%
X156001100Y-112840617D03*
%TO.P,J1,10,D0*%
%TO.N,/D0*%
X155501100Y-112840617D03*
%TO.P,J1,12,I2C_SDA*%
%TO.N,unconnected-(J1-I2C_SDA-Pad12)*%
X155001100Y-112840617D03*
%TO.P,J1,14,I2C_SCL*%
%TO.N,unconnected-(J1-I2C_SCL-Pad14)*%
X154501100Y-112840617D03*
%TO.P,J1,16,I2C_~{INT}*%
%TO.N,/I2C_~{INT}*%
X154001100Y-112840617D03*
%TO.P,J1,18,D1/CAM_TRIG*%
%TO.N,/D1-CAM_TRIG*%
X153501100Y-112840617D03*
%TO.P,J1,20,RX2*%
%TO.N,/UART_RX2*%
X153001100Y-112840617D03*
%TO.P,J1,22,TX2*%
%TO.N,/UART_TX2*%
X152501100Y-112840617D03*
%TO.P,J1,32,PWM0*%
%TO.N,/PWM0*%
X150001100Y-112840617D03*
%TO.P,J1,34,A0*%
%TO.N,/A0*%
X149501100Y-112840617D03*
%TO.P,J1,36,GND*%
%TO.N,GND*%
X149001100Y-112840617D03*
%TO.P,J1,38,A1*%
%TO.N,/A1*%
X148501100Y-112840617D03*
%TO.P,J1,40,G0/BUS0*%
%TO.N,/G0*%
X148001100Y-112840617D03*
%TO.P,J1,42,G1/BUS1*%
%TO.N,BMI088_pwr_cyc*%
X147501100Y-112840617D03*
%TO.P,J1,44,G2/BUS2*%
%TO.N,BMI088_INT1_ACCEL*%
X147001100Y-112840617D03*
%TO.P,J1,46,G3/BUS3*%
%TO.N,BMI088_INT3_GYRO*%
X146501100Y-112840617D03*
%TO.P,J1,48,G4/BUS4*%
%TO.N,BMI088_CS_GYRO*%
X146001100Y-112840617D03*
%TO.P,J1,50,AUD_BCLK*%
%TO.N,/AUD_BCLK*%
X145501100Y-112840617D03*
%TO.P,J1,52,AUD_LRCLK*%
%TO.N,/AUD_LRCLK*%
X145001100Y-112840617D03*
%TO.P,J1,54,AUD_IN/CAM_PCLK*%
%TO.N,/AUD_IN-CAM_PCLK*%
X144501100Y-112840617D03*
%TO.P,J1,56,AUD_OUT/CAM_MCLK*%
%TO.N,/AUD_OUT-CAM_MCLK*%
X144001100Y-112840617D03*
%TO.P,J1,58,AUD_MCLK*%
%TO.N,/AUD_MCLK*%
X143501100Y-112840617D03*
%TO.P,J1,60,SPI_SCK1/SDIO_CLK*%
%TO.N,BMI088_MOSI*%
X143001100Y-112840617D03*
%TO.P,J1,62,SPI_SDO1/SDIO_CMD*%
%TO.N,BMI088_MISO*%
X142501100Y-112840617D03*
%TO.P,J1,64,SPI_SDI1/SDIO_DATA0*%
%TO.N,BMI088_SCK*%
X142001100Y-112840617D03*
%TO.P,J1,66,SDIO_DATA1*%
%TO.N,BMI088_CS_ACCEL*%
X141501100Y-112840617D03*
%TO.P,J1,68,SDIO_DATA2*%
%TO.N,/SDIO_DATA2*%
X141001100Y-112840617D03*
%TO.P,J1,70,SPI_~{CS1}/SDIO_DATA3*%
%TO.N,/SDIO_DATA3-~{SPI_CS1}*%
X140501100Y-112840617D03*
%TO.P,J1,72,RTC_3V*%
%TO.N,/RTC_3V_BATT*%
X140001100Y-112840617D03*
%TO.P,J1,74,3.3V*%
%TO.N,+3V3*%
X139501100Y-112840617D03*
D11*
%TO.P,J1,GND1,GND*%
%TO.N,GND*%
X150401100Y-93365617D03*
%TO.P,J1,GND2,GND*%
X152501100Y-94665617D03*
%TO.P,J1,GND3,GND*%
X154601100Y-93365617D03*
%TD*%
D12*
%TO.N,+3V3*%
X142526000Y-99600000D03*
X149048103Y-101028096D03*
%TO.N,BMI088_CS_ACCEL*%
X140700000Y-108500000D03*
%TO.N,BMI088_CS_GYRO*%
X143955000Y-100600000D03*
%TO.N,BMI088_MISO*%
X141700000Y-107100000D03*
%TO.N,BMI088_MOSI*%
X145100000Y-106500000D03*
%TO.N,BMI088_SCK*%
X140700000Y-107100000D03*
%TD*%
D13*
%TO.N,BMI088_CS_GYRO*%
X143955000Y-100727500D02*
G75*
G03*
X144045159Y-100945153I307800J0D01*
G01*
D14*
%TO.N,+3V3*%
X148334055Y-100314048D02*
G75*
G03*
X146610190Y-99600003I-1723855J-1723852D01*
G01*
X149048103Y-101028096D02*
X148334055Y-100314048D01*
X146610190Y-99600000D02*
X142526000Y-99600000D01*
D13*
%TO.N,BMI088_CS_ACCEL*%
X140700000Y-108500000D02*
X140900000Y-108500000D01*
X141300550Y-108700550D02*
X141241421Y-108641421D01*
X141501100Y-109184720D02*
X141501100Y-112840617D01*
X141241421Y-108641421D02*
G75*
G03*
X140900000Y-108499987I-341421J-341379D01*
G01*
X141501100Y-109184720D02*
G75*
G03*
X141300556Y-108700544I-684700J20D01*
G01*
%TO.N,BMI088_CS_GYRO*%
X143955000Y-100600000D02*
X143955000Y-100727500D01*
X146001100Y-103750405D02*
X146001100Y-112840617D01*
X144045156Y-100945156D02*
X145400550Y-102300550D01*
X145400550Y-102300550D02*
G75*
G02*
X146001098Y-103750405I-1449850J-1449850D01*
G01*
%TO.N,BMI088_MISO*%
X142150550Y-107550550D02*
X141800000Y-107200000D01*
X142501100Y-108396852D02*
X142501100Y-112840617D01*
X142150550Y-107550550D02*
G75*
G02*
X142501149Y-108396852I-846250J-846350D01*
G01*
%TO.N,BMI088_MOSI*%
X143001100Y-110383046D02*
X143001100Y-112840617D01*
X144993933Y-106906066D02*
X144050550Y-107849450D01*
X145100000Y-106650000D02*
X145100000Y-106500000D01*
X144050550Y-107849450D02*
G75*
G03*
X143001119Y-110383046I2533550J-2533550D01*
G01*
X144993933Y-106906066D02*
G75*
G03*
X145100009Y-106650000I-256033J256066D01*
G01*
%TO.N,BMI088_SCK*%
X140700000Y-107100000D02*
X141350550Y-107750550D01*
X142001100Y-109321116D02*
X142001100Y-112840617D01*
X142001100Y-109321116D02*
G75*
G03*
X141350555Y-107750545I-2221100J16D01*
G01*
%TD*%
%TA.AperFunction,Conductor*%
%TO.N,GND*%
G36*
X150256125Y-92435802D02*
G01*
X150301880Y-92488606D01*
X150311824Y-92557764D01*
X150282799Y-92621320D01*
X150224021Y-92659094D01*
X150213277Y-92661734D01*
X150189049Y-92666553D01*
X150071678Y-92715168D01*
X150561613Y-93205104D01*
X151051547Y-93695038D01*
X151055949Y-93694162D01*
X151091477Y-93650076D01*
X151157771Y-93628010D01*
X151225470Y-93645288D01*
X151243401Y-93658218D01*
X151419344Y-93810673D01*
X151419350Y-93810677D01*
X151635996Y-93949907D01*
X151636019Y-93949920D01*
X151862774Y-94053475D01*
X151915578Y-94099229D01*
X151935263Y-94166269D01*
X151915579Y-94233308D01*
X151914366Y-94235159D01*
X151856840Y-94321254D01*
X151802038Y-94453558D01*
X151802036Y-94453566D01*
X151774100Y-94594009D01*
X151774100Y-94737224D01*
X151802035Y-94877667D01*
X151802038Y-94877676D01*
X151850650Y-94995037D01*
X152252905Y-94592784D01*
X152314228Y-94559299D01*
X152383920Y-94564283D01*
X152428267Y-94592784D01*
X152430389Y-94594906D01*
X152416324Y-94608972D01*
X152401100Y-94645726D01*
X152401100Y-94685508D01*
X152416324Y-94722262D01*
X152444455Y-94750393D01*
X152481209Y-94765617D01*
X152520991Y-94765617D01*
X152557745Y-94750393D01*
X152585876Y-94722262D01*
X152601100Y-94685508D01*
X152601100Y-94645726D01*
X152585876Y-94608972D01*
X152571810Y-94594906D01*
X152573932Y-94592785D01*
X152635255Y-94559300D01*
X152704947Y-94564284D01*
X152749294Y-94592785D01*
X153151547Y-94995038D01*
X153200161Y-94877675D01*
X153200163Y-94877667D01*
X153228099Y-94737224D01*
X153228100Y-94737221D01*
X153228100Y-94594013D01*
X153228099Y-94594009D01*
X153200163Y-94453566D01*
X153200161Y-94453558D01*
X153145358Y-94321250D01*
X153087834Y-94235159D01*
X153066956Y-94168482D01*
X153085441Y-94101102D01*
X153137420Y-94054412D01*
X153139316Y-94053524D01*
X153221343Y-94016064D01*
X154271677Y-94016064D01*
X154389041Y-94064678D01*
X154389049Y-94064680D01*
X154529492Y-94092616D01*
X154529496Y-94092617D01*
X154672704Y-94092617D01*
X154672707Y-94092616D01*
X154813150Y-94064680D01*
X154813158Y-94064678D01*
X154930521Y-94016064D01*
X154601101Y-93686643D01*
X154601100Y-93686643D01*
X154271677Y-94016064D01*
X153221343Y-94016064D01*
X153366192Y-93949914D01*
X153582856Y-93810673D01*
X153758800Y-93658216D01*
X153822353Y-93629193D01*
X153891511Y-93639136D01*
X153944315Y-93684891D01*
X153949503Y-93694810D01*
X153950650Y-93695038D01*
X154299964Y-93345726D01*
X154501100Y-93345726D01*
X154501100Y-93385508D01*
X154516324Y-93422262D01*
X154544455Y-93450393D01*
X154581209Y-93465617D01*
X154620991Y-93465617D01*
X154657745Y-93450393D01*
X154685876Y-93422262D01*
X154701100Y-93385508D01*
X154701100Y-93365616D01*
X154922126Y-93365616D01*
X154922126Y-93365617D01*
X155251547Y-93695038D01*
X155300161Y-93577675D01*
X155300163Y-93577667D01*
X155328099Y-93437224D01*
X155328100Y-93437221D01*
X155328100Y-93294013D01*
X155328099Y-93294009D01*
X155300163Y-93153566D01*
X155300161Y-93153558D01*
X155251547Y-93036194D01*
X154922126Y-93365616D01*
X154701100Y-93365616D01*
X154701100Y-93345726D01*
X154685876Y-93308972D01*
X154657745Y-93280841D01*
X154620991Y-93265617D01*
X154581209Y-93265617D01*
X154544455Y-93280841D01*
X154516324Y-93308972D01*
X154501100Y-93345726D01*
X154299964Y-93345726D01*
X154419117Y-93226574D01*
X154440587Y-93205104D01*
X154930521Y-92715168D01*
X154813159Y-92666555D01*
X154813150Y-92666553D01*
X154788923Y-92661734D01*
X154727012Y-92629350D01*
X154692438Y-92568634D01*
X154696177Y-92498865D01*
X154737043Y-92442192D01*
X154802061Y-92416611D01*
X154813114Y-92416117D01*
X158493234Y-92416117D01*
X158506716Y-92416852D01*
X158537216Y-92420187D01*
X158653104Y-92432863D01*
X158673654Y-92436890D01*
X158811775Y-92476317D01*
X158831349Y-92483743D01*
X158960838Y-92545843D01*
X158960865Y-92545856D01*
X158978917Y-92556475D01*
X159067068Y-92618914D01*
X159096114Y-92639488D01*
X159096133Y-92639501D01*
X159112142Y-92653009D01*
X159213701Y-92754570D01*
X159227208Y-92770578D01*
X159310233Y-92887796D01*
X159320852Y-92905850D01*
X159382957Y-93035356D01*
X159390387Y-93054939D01*
X159429813Y-93193063D01*
X159433840Y-93213617D01*
X159449865Y-93360146D01*
X159450600Y-93373627D01*
X159450600Y-109755872D01*
X159449451Y-109772714D01*
X159435814Y-109872185D01*
X159429333Y-109898169D01*
X159396341Y-109987818D01*
X159384432Y-110011804D01*
X159379611Y-110019341D01*
X159332964Y-110092274D01*
X159316183Y-110113144D01*
X159248633Y-110180692D01*
X159227763Y-110197471D01*
X159147286Y-110248941D01*
X159123298Y-110260850D01*
X159033656Y-110293836D01*
X159007671Y-110300317D01*
X158906155Y-110314230D01*
X158892791Y-110315329D01*
X158872130Y-110315907D01*
X158864324Y-110317542D01*
X158838078Y-110319407D01*
X158838072Y-110319408D01*
X158723484Y-110352555D01*
X158618415Y-110409056D01*
X158618407Y-110409062D01*
X158527573Y-110486380D01*
X158455019Y-110581074D01*
X158455018Y-110581076D01*
X158403992Y-110688904D01*
X158388678Y-110754259D01*
X158376775Y-110805053D01*
X158376007Y-110844291D01*
X158375600Y-110844699D01*
X158375600Y-110865177D01*
X158375590Y-110865687D01*
X158375579Y-110866282D01*
X158375579Y-110866318D01*
X158375020Y-110896650D01*
X158375600Y-110900539D01*
X158375600Y-114191117D01*
X158355915Y-114258156D01*
X158303111Y-114303911D01*
X158251600Y-114315117D01*
X151900600Y-114315117D01*
X151833561Y-114295432D01*
X151787806Y-114242628D01*
X151776600Y-114191117D01*
X151776600Y-111845864D01*
X152125600Y-111845864D01*
X152125600Y-113835369D01*
X152137231Y-113893846D01*
X152137232Y-113893847D01*
X152181547Y-113960169D01*
X152247869Y-114004484D01*
X152247870Y-114004485D01*
X152306347Y-114016116D01*
X152306350Y-114016117D01*
X152306352Y-114016117D01*
X152695851Y-114016117D01*
X152719479Y-114011416D01*
X152726905Y-114009939D01*
X152775295Y-114009939D01*
X152782720Y-114011416D01*
X152806349Y-114016117D01*
X152806352Y-114016117D01*
X153195851Y-114016117D01*
X153219479Y-114011416D01*
X153226905Y-114009939D01*
X153275295Y-114009939D01*
X153282720Y-114011416D01*
X153306349Y-114016117D01*
X153306352Y-114016117D01*
X153695851Y-114016117D01*
X153719479Y-114011416D01*
X153726905Y-114009939D01*
X153775295Y-114009939D01*
X153782720Y-114011416D01*
X153806349Y-114016117D01*
X153806352Y-114016117D01*
X154195851Y-114016117D01*
X154219479Y-114011416D01*
X154226905Y-114009939D01*
X154275295Y-114009939D01*
X154282720Y-114011416D01*
X154306349Y-114016117D01*
X154306352Y-114016117D01*
X154695851Y-114016117D01*
X154719479Y-114011416D01*
X154726905Y-114009939D01*
X154775295Y-114009939D01*
X154782720Y-114011416D01*
X154806349Y-114016117D01*
X154806352Y-114016117D01*
X155195851Y-114016117D01*
X155219479Y-114011416D01*
X155226905Y-114009939D01*
X155275295Y-114009939D01*
X155282720Y-114011416D01*
X155306349Y-114016117D01*
X155306352Y-114016117D01*
X155695851Y-114016117D01*
X155719479Y-114011416D01*
X155726905Y-114009939D01*
X155775295Y-114009939D01*
X155782720Y-114011416D01*
X155806349Y-114016117D01*
X155806352Y-114016117D01*
X156195851Y-114016117D01*
X156219479Y-114011416D01*
X156226905Y-114009939D01*
X156275295Y-114009939D01*
X156282720Y-114011416D01*
X156306349Y-114016117D01*
X156306352Y-114016117D01*
X156695851Y-114016117D01*
X156719479Y-114011416D01*
X156726905Y-114009939D01*
X156775295Y-114009939D01*
X156782720Y-114011416D01*
X156806349Y-114016117D01*
X156806352Y-114016117D01*
X157195851Y-114016117D01*
X157219479Y-114011416D01*
X157226905Y-114009939D01*
X157275295Y-114009939D01*
X157282720Y-114011416D01*
X157306349Y-114016117D01*
X157306352Y-114016117D01*
X157695850Y-114016117D01*
X157695851Y-114016116D01*
X157710668Y-114013169D01*
X157754329Y-114004485D01*
X157754329Y-114004484D01*
X157754331Y-114004484D01*
X157820652Y-113960169D01*
X157864967Y-113893848D01*
X157864967Y-113893846D01*
X157864968Y-113893846D01*
X157876599Y-113835369D01*
X157876600Y-113835367D01*
X157876600Y-111845866D01*
X157876599Y-111845864D01*
X157864968Y-111787387D01*
X157864967Y-111787386D01*
X157820652Y-111721064D01*
X157754330Y-111676749D01*
X157754329Y-111676748D01*
X157695852Y-111665117D01*
X157695848Y-111665117D01*
X157306352Y-111665117D01*
X157306351Y-111665117D01*
X157275288Y-111671295D01*
X157226912Y-111671295D01*
X157195849Y-111665117D01*
X157195848Y-111665117D01*
X156806352Y-111665117D01*
X156806351Y-111665117D01*
X156775288Y-111671295D01*
X156726912Y-111671295D01*
X156695849Y-111665117D01*
X156695848Y-111665117D01*
X156306352Y-111665117D01*
X156306351Y-111665117D01*
X156275288Y-111671295D01*
X156226912Y-111671295D01*
X156195849Y-111665117D01*
X156195848Y-111665117D01*
X155806352Y-111665117D01*
X155806351Y-111665117D01*
X155775288Y-111671295D01*
X155726912Y-111671295D01*
X155695849Y-111665117D01*
X155695848Y-111665117D01*
X155306352Y-111665117D01*
X155306351Y-111665117D01*
X155275288Y-111671295D01*
X155226912Y-111671295D01*
X155195849Y-111665117D01*
X155195848Y-111665117D01*
X154806352Y-111665117D01*
X154806351Y-111665117D01*
X154775288Y-111671295D01*
X154726912Y-111671295D01*
X154695849Y-111665117D01*
X154695848Y-111665117D01*
X154306352Y-111665117D01*
X154306351Y-111665117D01*
X154275288Y-111671295D01*
X154226912Y-111671295D01*
X154195849Y-111665117D01*
X154195848Y-111665117D01*
X153806352Y-111665117D01*
X153806351Y-111665117D01*
X153775288Y-111671295D01*
X153726912Y-111671295D01*
X153695849Y-111665117D01*
X153695848Y-111665117D01*
X153306352Y-111665117D01*
X153306351Y-111665117D01*
X153275288Y-111671295D01*
X153226912Y-111671295D01*
X153195849Y-111665117D01*
X153195848Y-111665117D01*
X152806352Y-111665117D01*
X152806351Y-111665117D01*
X152775288Y-111671295D01*
X152726912Y-111671295D01*
X152695849Y-111665117D01*
X152695848Y-111665117D01*
X152306352Y-111665117D01*
X152306347Y-111665117D01*
X152247870Y-111676748D01*
X152247869Y-111676749D01*
X152181547Y-111721064D01*
X152137232Y-111787386D01*
X152137231Y-111787387D01*
X152125600Y-111845864D01*
X151776600Y-111845864D01*
X151776600Y-111392323D01*
X151776599Y-111392319D01*
X151770504Y-111365617D01*
X151743981Y-111249411D01*
X151680379Y-111117340D01*
X151667532Y-111101231D01*
X151654618Y-111085037D01*
X151588983Y-111002734D01*
X151523346Y-110950390D01*
X151474379Y-110911339D01*
X151474376Y-110911337D01*
X151342309Y-110847737D01*
X151342307Y-110847736D01*
X151342306Y-110847736D01*
X151297254Y-110837453D01*
X151199397Y-110815117D01*
X151199394Y-110815117D01*
X151052806Y-110815117D01*
X151052802Y-110815117D01*
X150909890Y-110847737D01*
X150777823Y-110911337D01*
X150777820Y-110911339D01*
X150663217Y-111002734D01*
X150571822Y-111117337D01*
X150571820Y-111117340D01*
X150508220Y-111249407D01*
X150475600Y-111392319D01*
X150475600Y-111592609D01*
X150455915Y-111659648D01*
X150403111Y-111705403D01*
X150333953Y-111715347D01*
X150282710Y-111695712D01*
X150265080Y-111683932D01*
X150254331Y-111676750D01*
X150254330Y-111676749D01*
X150254329Y-111676749D01*
X150254329Y-111676748D01*
X150195852Y-111665117D01*
X150195848Y-111665117D01*
X149806352Y-111665117D01*
X149806351Y-111665117D01*
X149775288Y-111671295D01*
X149767053Y-111671300D01*
X149762330Y-111673167D01*
X149727549Y-111671328D01*
X149727084Y-111671329D01*
X149726378Y-111671189D01*
X149695848Y-111665117D01*
X149695617Y-111665117D01*
X149689493Y-111663908D01*
X149663592Y-111650407D01*
X149636509Y-111639452D01*
X149630266Y-111633035D01*
X149627535Y-111631612D01*
X149625619Y-111628260D01*
X149614243Y-111616567D01*
X149533290Y-111508429D01*
X149533287Y-111508426D01*
X149418193Y-111422266D01*
X149418186Y-111422262D01*
X149283479Y-111372020D01*
X149283472Y-111372018D01*
X149223944Y-111365617D01*
X149176100Y-111365617D01*
X149176100Y-111691603D01*
X149173549Y-111700288D01*
X149174838Y-111709250D01*
X149158065Y-111753021D01*
X149156415Y-111758642D01*
X149155661Y-111759294D01*
X149155202Y-111760494D01*
X149137233Y-111787386D01*
X149137231Y-111787390D01*
X149125600Y-111845864D01*
X149125600Y-112716617D01*
X149123049Y-112725302D01*
X149124338Y-112734264D01*
X149113359Y-112758304D01*
X149105915Y-112783656D01*
X149099074Y-112789583D01*
X149095313Y-112797820D01*
X149073078Y-112812109D01*
X149053111Y-112829411D01*
X149042596Y-112831698D01*
X149036535Y-112835594D01*
X149001600Y-112840617D01*
X149000600Y-112840617D01*
X148933561Y-112820932D01*
X148887806Y-112768128D01*
X148876600Y-112716617D01*
X148876600Y-111845866D01*
X148876599Y-111845864D01*
X148864968Y-111787390D01*
X148864967Y-111787389D01*
X148864967Y-111787386D01*
X148846997Y-111760493D01*
X148843960Y-111750793D01*
X148837306Y-111743114D01*
X148833697Y-111718014D01*
X148826120Y-111693816D01*
X148826100Y-111691603D01*
X148826100Y-111365617D01*
X148778255Y-111365617D01*
X148718727Y-111372018D01*
X148718720Y-111372020D01*
X148584013Y-111422262D01*
X148584006Y-111422266D01*
X148468912Y-111508426D01*
X148387956Y-111616568D01*
X148365880Y-111633092D01*
X148346007Y-111652214D01*
X148336583Y-111655023D01*
X148332022Y-111658438D01*
X148312706Y-111663908D01*
X148306582Y-111665117D01*
X148306352Y-111665117D01*
X148275824Y-111671189D01*
X148275116Y-111671329D01*
X148274742Y-111671295D01*
X148226912Y-111671295D01*
X148195849Y-111665117D01*
X148195848Y-111665117D01*
X147806352Y-111665117D01*
X147806351Y-111665117D01*
X147775288Y-111671295D01*
X147726912Y-111671295D01*
X147695849Y-111665117D01*
X147695848Y-111665117D01*
X147306352Y-111665117D01*
X147306351Y-111665117D01*
X147275288Y-111671295D01*
X147226912Y-111671295D01*
X147195849Y-111665117D01*
X147195848Y-111665117D01*
X146806352Y-111665117D01*
X146806351Y-111665117D01*
X146775288Y-111671295D01*
X146726912Y-111671295D01*
X146695849Y-111665117D01*
X146695848Y-111665117D01*
X146450600Y-111665117D01*
X146383561Y-111645432D01*
X146337806Y-111592628D01*
X146326600Y-111541117D01*
X146326600Y-103698520D01*
X146326597Y-103698480D01*
X146326598Y-103616978D01*
X146296720Y-103351800D01*
X146237339Y-103091634D01*
X146149203Y-102839753D01*
X146033419Y-102599325D01*
X145891443Y-102373371D01*
X145725061Y-102164735D01*
X145630713Y-102070387D01*
X145594259Y-102033933D01*
X144416845Y-100856518D01*
X144383360Y-100795195D01*
X144384751Y-100736743D01*
X144405500Y-100659309D01*
X144405500Y-100540691D01*
X144374799Y-100426114D01*
X144337493Y-100361500D01*
X144321021Y-100293601D01*
X144343873Y-100227574D01*
X144398794Y-100184383D01*
X144444881Y-100175500D01*
X146540314Y-100175500D01*
X146606126Y-100175500D01*
X146614235Y-100175765D01*
X146845193Y-100190901D01*
X146861252Y-100193016D01*
X147084255Y-100237374D01*
X147099910Y-100241569D01*
X147315215Y-100314655D01*
X147330187Y-100320856D01*
X147527128Y-100417976D01*
X147534109Y-100421419D01*
X147548157Y-100429529D01*
X147737203Y-100555846D01*
X147750067Y-100565717D01*
X147924027Y-100718275D01*
X147929949Y-100723822D01*
X148694737Y-101488610D01*
X148825968Y-101564377D01*
X148972336Y-101603596D01*
X148972338Y-101603596D01*
X149123867Y-101603596D01*
X149123869Y-101603596D01*
X149270238Y-101564377D01*
X149401468Y-101488610D01*
X149508617Y-101381461D01*
X149584384Y-101250231D01*
X149623603Y-101103862D01*
X149623603Y-100952329D01*
X149584384Y-100805961D01*
X149508617Y-100674730D01*
X148777316Y-99943429D01*
X148777312Y-99943422D01*
X148740996Y-99907106D01*
X148740997Y-99907106D01*
X148636317Y-99802426D01*
X148407445Y-99614595D01*
X148407440Y-99614592D01*
X148407427Y-99614582D01*
X148161273Y-99450108D01*
X148161264Y-99450103D01*
X147900152Y-99310535D01*
X147900140Y-99310530D01*
X147626608Y-99197229D01*
X147343262Y-99111278D01*
X147343251Y-99111275D01*
X147052886Y-99053520D01*
X147052881Y-99053519D01*
X147052878Y-99053518D01*
X147052868Y-99053517D01*
X146843978Y-99032945D01*
X146758227Y-99024500D01*
X146685956Y-99024500D01*
X142450234Y-99024500D01*
X142303863Y-99063719D01*
X142172635Y-99139485D01*
X142172632Y-99139487D01*
X142065487Y-99246632D01*
X142065485Y-99246635D01*
X141989719Y-99377863D01*
X141950500Y-99524234D01*
X141950500Y-99675765D01*
X141989719Y-99822136D01*
X142027602Y-99887750D01*
X142065485Y-99953365D01*
X142172635Y-100060515D01*
X142303865Y-100136281D01*
X142450234Y-100175500D01*
X143465119Y-100175500D01*
X143532158Y-100195185D01*
X143577913Y-100247989D01*
X143587857Y-100317147D01*
X143572506Y-100361499D01*
X143535201Y-100426114D01*
X143504500Y-100540691D01*
X143504500Y-100659309D01*
X143535201Y-100773886D01*
X143594511Y-100876613D01*
X143594513Y-100876615D01*
X143653159Y-100935261D01*
X143670532Y-100957066D01*
X143676058Y-100965878D01*
X143701580Y-101027491D01*
X143770891Y-101131219D01*
X143784691Y-101145018D01*
X143794613Y-101154940D01*
X143794614Y-101154941D01*
X145133933Y-102494259D01*
X145167496Y-102527822D01*
X145173043Y-102533744D01*
X145313794Y-102694239D01*
X145323668Y-102707108D01*
X145439989Y-102881196D01*
X145448099Y-102895242D01*
X145540701Y-103083018D01*
X145546909Y-103098004D01*
X145614212Y-103296277D01*
X145618409Y-103311943D01*
X145659254Y-103517280D01*
X145661372Y-103533362D01*
X145672788Y-103707552D01*
X145675335Y-103746402D01*
X145675600Y-103754512D01*
X145675600Y-106139136D01*
X145655915Y-106206175D01*
X145603111Y-106251930D01*
X145533953Y-106261874D01*
X145470397Y-106232849D01*
X145463919Y-106226817D01*
X145376615Y-106139513D01*
X145376613Y-106139511D01*
X145273886Y-106080201D01*
X145159309Y-106049500D01*
X145040691Y-106049500D01*
X144926114Y-106080201D01*
X144926112Y-106080201D01*
X144926112Y-106080202D01*
X144823387Y-106139511D01*
X144823384Y-106139513D01*
X144739513Y-106223384D01*
X144739511Y-106223387D01*
X144723032Y-106251930D01*
X144680201Y-106326114D01*
X144649500Y-106440691D01*
X144649500Y-106559309D01*
X144673667Y-106649500D01*
X144679758Y-106672231D01*
X144678095Y-106742081D01*
X144647664Y-106792006D01*
X143856720Y-107582954D01*
X143856658Y-107582987D01*
X143699712Y-107739933D01*
X143699706Y-107739939D01*
X143699704Y-107739942D01*
X143665481Y-107780728D01*
X143480314Y-108001401D01*
X143284555Y-108280974D01*
X143113905Y-108576554D01*
X143113897Y-108576571D01*
X143062982Y-108685760D01*
X143057326Y-108692183D01*
X143054915Y-108700395D01*
X143034588Y-108718008D01*
X143016810Y-108738200D01*
X143008577Y-108740546D01*
X143002111Y-108746150D01*
X142975487Y-108749978D01*
X142949617Y-108757352D01*
X142941424Y-108754875D01*
X142932953Y-108756094D01*
X142908485Y-108744919D01*
X142882735Y-108737137D01*
X142877181Y-108730624D01*
X142869397Y-108727069D01*
X142854853Y-108704438D01*
X142837401Y-108683971D01*
X142835263Y-108673956D01*
X142831623Y-108668291D01*
X142826600Y-108633356D01*
X142826600Y-108458397D01*
X142826601Y-108458372D01*
X142826601Y-108448396D01*
X142826602Y-108448393D01*
X142826601Y-108448254D01*
X142826650Y-108448087D01*
X142826643Y-108297059D01*
X142821835Y-108260553D01*
X142800586Y-108099200D01*
X142748926Y-107906438D01*
X142672547Y-107722068D01*
X142672544Y-107722063D01*
X142672543Y-107722060D01*
X142572756Y-107549245D01*
X142550157Y-107519797D01*
X142451259Y-107390927D01*
X142385965Y-107325639D01*
X142380699Y-107320373D01*
X142380700Y-107320373D01*
X142374063Y-107313737D01*
X142186819Y-107126492D01*
X142153334Y-107065169D01*
X142151568Y-107048749D01*
X142151561Y-107048751D01*
X142150500Y-107040694D01*
X142150500Y-107040693D01*
X142150500Y-107040691D01*
X142119799Y-106926114D01*
X142060489Y-106823387D01*
X141976613Y-106739511D01*
X141873886Y-106680201D01*
X141759309Y-106649500D01*
X141640691Y-106649500D01*
X141526114Y-106680201D01*
X141526112Y-106680201D01*
X141526112Y-106680202D01*
X141423387Y-106739511D01*
X141423384Y-106739513D01*
X141339513Y-106823384D01*
X141339511Y-106823387D01*
X141307387Y-106879027D01*
X141256819Y-106927242D01*
X141188212Y-106940464D01*
X141123347Y-106914496D01*
X141092613Y-106879027D01*
X141060489Y-106823387D01*
X140976613Y-106739511D01*
X140873886Y-106680201D01*
X140759309Y-106649500D01*
X140640691Y-106649500D01*
X140526114Y-106680201D01*
X140526112Y-106680201D01*
X140526112Y-106680202D01*
X140423387Y-106739511D01*
X140423384Y-106739513D01*
X140339513Y-106823384D01*
X140339511Y-106823387D01*
X140280201Y-106926114D01*
X140249500Y-107040691D01*
X140249500Y-107159309D01*
X140280201Y-107273886D01*
X140339511Y-107376613D01*
X140423387Y-107460489D01*
X140526114Y-107519799D01*
X140640691Y-107550500D01*
X140640694Y-107550500D01*
X140648751Y-107551561D01*
X140648515Y-107553349D01*
X140705850Y-107570185D01*
X140726492Y-107586819D01*
X140883947Y-107744274D01*
X141026499Y-107886825D01*
X141059984Y-107948148D01*
X141055000Y-108017839D01*
X141013129Y-108073773D01*
X140947664Y-108098190D01*
X140879391Y-108083338D01*
X140876819Y-108081894D01*
X140873888Y-108080202D01*
X140873887Y-108080201D01*
X140873886Y-108080201D01*
X140759309Y-108049500D01*
X140640691Y-108049500D01*
X140526114Y-108080201D01*
X140526112Y-108080201D01*
X140526112Y-108080202D01*
X140423387Y-108139511D01*
X140423384Y-108139513D01*
X140339513Y-108223384D01*
X140339511Y-108223387D01*
X140280201Y-108326114D01*
X140249500Y-108440691D01*
X140249500Y-108559309D01*
X140280201Y-108673886D01*
X140339511Y-108776613D01*
X140423387Y-108860489D01*
X140526114Y-108919799D01*
X140640691Y-108950500D01*
X140640694Y-108950500D01*
X140759306Y-108950500D01*
X140759309Y-108950500D01*
X140873886Y-108919799D01*
X140909141Y-108899443D01*
X140936204Y-108892877D01*
X140962295Y-108883146D01*
X140969685Y-108884753D01*
X140977036Y-108882970D01*
X141003355Y-108892078D01*
X141030568Y-108897998D01*
X141039256Y-108904502D01*
X141043064Y-108905820D01*
X141058822Y-108919149D01*
X141064633Y-108924960D01*
X141075328Y-108937155D01*
X141117532Y-108992157D01*
X141133717Y-109020190D01*
X141157106Y-109076656D01*
X141165484Y-109107925D01*
X141174539Y-109176722D01*
X141175599Y-109192901D01*
X141175599Y-109214955D01*
X141175599Y-109236265D01*
X141175599Y-109236267D01*
X141175600Y-109246259D01*
X141175600Y-111541117D01*
X141155915Y-111608156D01*
X141103111Y-111653911D01*
X141051600Y-111665117D01*
X140806351Y-111665117D01*
X140775288Y-111671295D01*
X140726912Y-111671295D01*
X140695849Y-111665117D01*
X140695848Y-111665117D01*
X140306352Y-111665117D01*
X140306351Y-111665117D01*
X140275288Y-111671295D01*
X140226912Y-111671295D01*
X140195849Y-111665117D01*
X140195848Y-111665117D01*
X139806352Y-111665117D01*
X139806351Y-111665117D01*
X139775288Y-111671295D01*
X139726912Y-111671295D01*
X139695849Y-111665117D01*
X139695848Y-111665117D01*
X139306352Y-111665117D01*
X139306347Y-111665117D01*
X139247870Y-111676748D01*
X139247869Y-111676749D01*
X139181547Y-111721064D01*
X139137232Y-111787386D01*
X139137231Y-111787387D01*
X139125600Y-111845864D01*
X139125600Y-113835369D01*
X139137231Y-113893846D01*
X139137232Y-113893847D01*
X139181547Y-113960169D01*
X139247869Y-114004484D01*
X139247870Y-114004485D01*
X139306347Y-114016116D01*
X139306350Y-114016117D01*
X139306352Y-114016117D01*
X139695851Y-114016117D01*
X139719479Y-114011416D01*
X139726905Y-114009939D01*
X139775295Y-114009939D01*
X139782720Y-114011416D01*
X139806349Y-114016117D01*
X139806352Y-114016117D01*
X140195851Y-114016117D01*
X140219479Y-114011416D01*
X140226905Y-114009939D01*
X140275295Y-114009939D01*
X140282720Y-114011416D01*
X140306349Y-114016117D01*
X140306352Y-114016117D01*
X140695851Y-114016117D01*
X140719479Y-114011416D01*
X140726905Y-114009939D01*
X140775295Y-114009939D01*
X140782720Y-114011416D01*
X140806349Y-114016117D01*
X140806352Y-114016117D01*
X141195851Y-114016117D01*
X141219479Y-114011416D01*
X141226905Y-114009939D01*
X141275295Y-114009939D01*
X141282720Y-114011416D01*
X141306349Y-114016117D01*
X141306352Y-114016117D01*
X141695851Y-114016117D01*
X141719479Y-114011416D01*
X141726905Y-114009939D01*
X141775295Y-114009939D01*
X141782720Y-114011416D01*
X141806349Y-114016117D01*
X141806352Y-114016117D01*
X142195851Y-114016117D01*
X142219479Y-114011416D01*
X142226905Y-114009939D01*
X142275295Y-114009939D01*
X142282720Y-114011416D01*
X142306349Y-114016117D01*
X142306352Y-114016117D01*
X142695851Y-114016117D01*
X142719479Y-114011416D01*
X142726905Y-114009939D01*
X142775295Y-114009939D01*
X142782720Y-114011416D01*
X142806349Y-114016117D01*
X142806352Y-114016117D01*
X143195851Y-114016117D01*
X143219479Y-114011416D01*
X143226905Y-114009939D01*
X143275295Y-114009939D01*
X143282720Y-114011416D01*
X143306349Y-114016117D01*
X143306352Y-114016117D01*
X143695851Y-114016117D01*
X143719479Y-114011416D01*
X143726905Y-114009939D01*
X143775295Y-114009939D01*
X143782720Y-114011416D01*
X143806349Y-114016117D01*
X143806352Y-114016117D01*
X144195851Y-114016117D01*
X144219479Y-114011416D01*
X144226905Y-114009939D01*
X144275295Y-114009939D01*
X144282720Y-114011416D01*
X144306349Y-114016117D01*
X144306352Y-114016117D01*
X144695851Y-114016117D01*
X144719479Y-114011416D01*
X144726905Y-114009939D01*
X144775295Y-114009939D01*
X144782720Y-114011416D01*
X144806349Y-114016117D01*
X144806352Y-114016117D01*
X145195851Y-114016117D01*
X145219479Y-114011416D01*
X145226905Y-114009939D01*
X145275295Y-114009939D01*
X145282720Y-114011416D01*
X145306349Y-114016117D01*
X145306352Y-114016117D01*
X145695851Y-114016117D01*
X145719479Y-114011416D01*
X145726905Y-114009939D01*
X145775295Y-114009939D01*
X145782720Y-114011416D01*
X145806349Y-114016117D01*
X145806352Y-114016117D01*
X146195851Y-114016117D01*
X146219479Y-114011416D01*
X146226905Y-114009939D01*
X146275295Y-114009939D01*
X146282720Y-114011416D01*
X146306349Y-114016117D01*
X146306352Y-114016117D01*
X146695851Y-114016117D01*
X146719479Y-114011416D01*
X146726905Y-114009939D01*
X146775295Y-114009939D01*
X146782720Y-114011416D01*
X146806349Y-114016117D01*
X146806352Y-114016117D01*
X147195851Y-114016117D01*
X147219479Y-114011416D01*
X147226905Y-114009939D01*
X147275295Y-114009939D01*
X147282720Y-114011416D01*
X147306349Y-114016117D01*
X147306352Y-114016117D01*
X147695851Y-114016117D01*
X147719479Y-114011416D01*
X147726905Y-114009939D01*
X147775295Y-114009939D01*
X147782720Y-114011416D01*
X147806349Y-114016117D01*
X147806352Y-114016117D01*
X148195851Y-114016117D01*
X148219479Y-114011416D01*
X148226904Y-114009938D01*
X148235142Y-114009932D01*
X148239873Y-114008064D01*
X148274622Y-114009903D01*
X148275114Y-114009903D01*
X148306352Y-114016117D01*
X148306592Y-114016117D01*
X148312710Y-114017325D01*
X148338501Y-114030769D01*
X148365484Y-114041617D01*
X148371867Y-114048163D01*
X148374667Y-114049623D01*
X148376615Y-114053032D01*
X148387958Y-114064666D01*
X148426990Y-114116806D01*
X148451407Y-114182270D01*
X148436556Y-114250543D01*
X148387151Y-114299949D01*
X148327723Y-114315117D01*
X138750600Y-114315117D01*
X138683561Y-114295432D01*
X138637806Y-114242628D01*
X138626600Y-114191117D01*
X138626600Y-110881241D01*
X138627044Y-110880593D01*
X138626600Y-110864897D01*
X138626600Y-110844699D01*
X138626600Y-110826203D01*
X138625358Y-110820392D01*
X138624921Y-110804774D01*
X138596979Y-110689222D01*
X138545670Y-110581983D01*
X138473227Y-110487723D01*
X138382803Y-110410546D01*
X138278333Y-110353810D01*
X138278331Y-110353809D01*
X138278326Y-110353807D01*
X138164368Y-110319986D01*
X138164370Y-110319986D01*
X138164365Y-110319985D01*
X138164363Y-110319984D01*
X138164360Y-110319984D01*
X138138070Y-110317895D01*
X138137667Y-110317863D01*
X138119954Y-110316397D01*
X138118915Y-110315596D01*
X138105852Y-110315230D01*
X138102491Y-110314952D01*
X138101888Y-110314719D01*
X138095880Y-110314225D01*
X137994523Y-110300333D01*
X137968538Y-110293853D01*
X137878887Y-110260863D01*
X137854901Y-110248955D01*
X137774423Y-110197486D01*
X137753555Y-110180709D01*
X137685997Y-110113152D01*
X137669222Y-110092288D01*
X137647110Y-110057716D01*
X137617750Y-110011811D01*
X137605842Y-109987826D01*
X137572848Y-109898172D01*
X137566367Y-109872187D01*
X137552749Y-109772844D01*
X137551600Y-109756003D01*
X137551600Y-95316064D01*
X152171677Y-95316064D01*
X152289041Y-95364678D01*
X152289049Y-95364680D01*
X152429492Y-95392616D01*
X152429496Y-95392617D01*
X152572704Y-95392617D01*
X152572707Y-95392616D01*
X152713150Y-95364680D01*
X152713158Y-95364678D01*
X152830521Y-95316064D01*
X152501101Y-94986643D01*
X152501100Y-94986643D01*
X152171677Y-95316064D01*
X137551600Y-95316064D01*
X137551600Y-94016064D01*
X150071677Y-94016064D01*
X150189041Y-94064678D01*
X150189049Y-94064680D01*
X150329492Y-94092616D01*
X150329496Y-94092617D01*
X150472704Y-94092617D01*
X150472707Y-94092616D01*
X150613150Y-94064680D01*
X150613158Y-94064678D01*
X150730521Y-94016064D01*
X150401101Y-93686643D01*
X150401100Y-93686643D01*
X150071677Y-94016064D01*
X137551600Y-94016064D01*
X137551600Y-93373470D01*
X137552335Y-93359989D01*
X137559551Y-93294009D01*
X149674100Y-93294009D01*
X149674100Y-93437224D01*
X149702035Y-93577667D01*
X149702038Y-93577676D01*
X149750650Y-93695037D01*
X150080073Y-93365617D01*
X150060182Y-93345726D01*
X150301100Y-93345726D01*
X150301100Y-93385508D01*
X150316324Y-93422262D01*
X150344455Y-93450393D01*
X150381209Y-93465617D01*
X150420991Y-93465617D01*
X150457745Y-93450393D01*
X150485876Y-93422262D01*
X150501100Y-93385508D01*
X150501100Y-93345726D01*
X150485876Y-93308972D01*
X150457745Y-93280841D01*
X150420991Y-93265617D01*
X150381209Y-93265617D01*
X150344455Y-93280841D01*
X150316324Y-93308972D01*
X150301100Y-93345726D01*
X150060182Y-93345726D01*
X149750651Y-93036195D01*
X149702036Y-93153566D01*
X149702035Y-93153566D01*
X149674100Y-93294009D01*
X137559551Y-93294009D01*
X137561691Y-93274441D01*
X137561691Y-93274440D01*
X137568343Y-93213615D01*
X137572370Y-93193061D01*
X137583643Y-93153566D01*
X137611797Y-93054931D01*
X137619223Y-93035356D01*
X137681335Y-92905836D01*
X137691953Y-92887786D01*
X137774980Y-92770565D01*
X137788478Y-92754566D01*
X137890053Y-92652989D01*
X137906048Y-92639493D01*
X138023275Y-92556459D01*
X138041318Y-92545845D01*
X138170846Y-92483726D01*
X138190415Y-92476302D01*
X138328541Y-92436873D01*
X138349091Y-92432846D01*
X138495327Y-92416851D01*
X138508809Y-92416117D01*
X150189086Y-92416117D01*
X150256125Y-92435802D01*
G37*
%TD.AperFunction*%
%TD*%
M02*
