%TF.GenerationSoftware,KiCad,Pcbnew,9.0.0*%
%TF.CreationDate,2025-05-23T15:59:46+04:00*%
%TF.ProjectId,02_04_sensor_barometer_BMP390L,30325f30-345f-4736-956e-736f725f6261,rev?*%
%TF.SameCoordinates,Original*%
%TF.FileFunction,Copper,L2,Bot*%
%TF.FilePolarity,Positive*%
%FSLAX46Y46*%
G04 Gerber Fmt 4.6, Leading zero omitted, Abs format (unit mm)*
G04 Created by KiCad (PCBNEW 9.0.0) date 2025-05-23 15:59:46*
%MOMM*%
%LPD*%
G01*
G04 APERTURE LIST*
%TA.AperFunction,SMDPad,CuDef*%
%ADD10R,0.350000X1.950000*%
%TD*%
%TA.AperFunction,ComponentPad*%
%ADD11C,0.454000*%
%TD*%
%TA.AperFunction,ViaPad*%
%ADD12C,0.500000*%
%TD*%
%TA.AperFunction,ViaPad*%
%ADD13C,0.700000*%
%TD*%
%TA.AperFunction,Conductor*%
%ADD14C,0.500000*%
%TD*%
%TA.AperFunction,Conductor*%
%ADD15C,0.250000*%
%TD*%
G04 APERTURE END LIST*
D10*
%TO.P,J1,2,3.3V*%
%TO.N,+3V3*%
X157500000Y-112900000D03*
%TO.P,J1,4,3.3V_EN*%
%TO.N,/3.3V_EN*%
X157000000Y-112900000D03*
%TO.P,J1,6,~{RESET}*%
%TO.N,+5V*%
X156500000Y-112900000D03*
%TO.P,J1,8,G11*%
%TO.N,/G11-SWO*%
X156000000Y-112900000D03*
%TO.P,J1,10,D0*%
%TO.N,/D0*%
X155500000Y-112900000D03*
%TO.P,J1,12,I2C_SDA*%
%TO.N,BMP390L_SDA*%
X155000000Y-112900000D03*
%TO.P,J1,14,I2C_SCL*%
%TO.N,BMP390L_SCL*%
X154500000Y-112900000D03*
%TO.P,J1,16,I2C_~{INT}*%
%TO.N,/I2C_~{INT}*%
X154000000Y-112900000D03*
%TO.P,J1,18,D1/CAM_TRIG*%
%TO.N,/D1-CAM_TRIG*%
X153500000Y-112900000D03*
%TO.P,J1,20,RX2*%
%TO.N,/UART_RX2*%
X153000000Y-112900000D03*
%TO.P,J1,22,TX2*%
%TO.N,/UART_TX2*%
X152500000Y-112900000D03*
%TO.P,J1,32,PWM0*%
%TO.N,/PWM0*%
X150000000Y-112900000D03*
%TO.P,J1,34,A0*%
%TO.N,/A0*%
X149500000Y-112900000D03*
%TO.P,J1,36,GND*%
%TO.N,GND*%
X149000000Y-112900000D03*
%TO.P,J1,38,A1*%
%TO.N,/A1*%
X148500000Y-112900000D03*
%TO.P,J1,40,G0/BUS0*%
%TO.N,/G0*%
X148000000Y-112900000D03*
%TO.P,J1,42,G1/BUS1*%
%TO.N,BMP390_pwr_cyc*%
X147500000Y-112900000D03*
%TO.P,J1,44,G2/BUS2*%
%TO.N,BMP390_INT*%
X147000000Y-112900000D03*
%TO.P,J1,46,G3/BUS3*%
%TO.N,/G3*%
X146500000Y-112900000D03*
%TO.P,J1,48,G4/BUS4*%
%TO.N,/G4*%
X146000000Y-112900000D03*
%TO.P,J1,50,AUD_BCLK*%
%TO.N,/AUD_BCLK*%
X145500000Y-112900000D03*
%TO.P,J1,52,AUD_LRCLK*%
%TO.N,/AUD_LRCLK*%
X145000000Y-112900000D03*
%TO.P,J1,54,AUD_IN/CAM_PCLK*%
%TO.N,/AUD_IN-CAM_PCLK*%
X144500000Y-112900000D03*
%TO.P,J1,56,AUD_OUT/CAM_MCLK*%
%TO.N,/AUD_OUT-CAM_MCLK*%
X144000000Y-112900000D03*
%TO.P,J1,58,AUD_MCLK*%
%TO.N,/AUD_MCLK*%
X143500000Y-112900000D03*
%TO.P,J1,60,SPI_SCK1/SDIO_CLK*%
%TO.N,BMP390_MOSI*%
X143000000Y-112900000D03*
%TO.P,J1,62,SPI_SDO1/SDIO_CMD*%
%TO.N,BMP390_MISO*%
X142500000Y-112900000D03*
%TO.P,J1,64,SPI_SDI1/SDIO_DATA0*%
%TO.N,BMP390_SCK*%
X142000000Y-112900000D03*
%TO.P,J1,66,SDIO_DATA1*%
%TO.N,BMP390_CS*%
X141500000Y-112900000D03*
%TO.P,J1,68,SDIO_DATA2*%
%TO.N,/SDIO_DATA2*%
X141000000Y-112900000D03*
%TO.P,J1,70,SPI_~{CS1}/SDIO_DATA3*%
%TO.N,/SDIO_DATA3-~{SPI_CS1}*%
X140500000Y-112900000D03*
%TO.P,J1,72,RTC_3V*%
%TO.N,/RTC_3V_BATT*%
X140000000Y-112900000D03*
%TO.P,J1,74,3.3V*%
%TO.N,+3V3*%
X139500000Y-112900000D03*
D11*
%TO.P,J1,GND1,GND*%
%TO.N,GND*%
X150400000Y-93425000D03*
%TO.P,J1,GND2,GND*%
X152500000Y-94725000D03*
%TO.P,J1,GND3,GND*%
X154600000Y-93425000D03*
%TD*%
D12*
%TO.N,+3V3*%
X154600000Y-95400000D03*
X143100000Y-101000000D03*
X141900000Y-105500000D03*
D13*
%TO.N,GND*%
X151300000Y-96000000D03*
X149300000Y-96000000D03*
X154100000Y-100500000D03*
X154100000Y-98500000D03*
X149300000Y-97000000D03*
X149300000Y-98000000D03*
X153100000Y-100500000D03*
X154100000Y-99500000D03*
X152100000Y-100500000D03*
X150300000Y-97000000D03*
X150300000Y-96000000D03*
X153100000Y-99500000D03*
D12*
%TO.N,BMP390L_SDA*%
X145400000Y-103800000D03*
%TO.N,BMP390L_SCL*%
X145400000Y-105200000D03*
%TD*%
D14*
%TO.N,+3V3*%
X152093792Y-97906207D02*
X154600000Y-95400000D01*
X142500000Y-104900000D02*
X141900000Y-105500000D01*
X143100000Y-103451471D02*
X143100000Y-101000000D01*
X143100000Y-101000000D02*
X143850000Y-100250000D01*
X148246036Y-99500000D02*
X145660660Y-99500000D01*
X145660660Y-99500000D02*
G75*
G03*
X143850032Y-100250032I40J-2560600D01*
G01*
X148246036Y-99500000D02*
G75*
G03*
X152093785Y-97906200I-36J5441600D01*
G01*
X143100000Y-103451471D02*
G75*
G02*
X142500008Y-104900008I-2048500J-29D01*
G01*
D15*
%TO.N,BMP390L_SDA*%
X147000000Y-103800000D02*
X145400000Y-103800000D01*
X154222182Y-109922182D02*
X148877817Y-104577817D01*
X155000000Y-111800000D02*
X155000000Y-112900000D01*
X154222182Y-109922182D02*
G75*
G02*
X155000010Y-111800000I-1877782J-1877818D01*
G01*
X148877817Y-104577817D02*
G75*
G03*
X147000000Y-103799990I-1877817J-1877783D01*
G01*
%TO.N,BMP390L_SCL*%
X154500000Y-112250000D02*
X154500000Y-112900000D01*
X145600000Y-105000000D02*
X145400000Y-105200000D01*
X148371751Y-105471751D02*
X154040380Y-111140380D01*
X146750000Y-104800000D02*
X146082842Y-104800000D01*
X148371751Y-105471751D02*
G75*
G03*
X146750000Y-104799999I-1621751J-1621749D01*
G01*
X145600000Y-105000000D02*
G75*
G02*
X146082842Y-104800018I482800J-482800D01*
G01*
X154040380Y-111140380D02*
G75*
G02*
X154500011Y-112250000I-1109580J-1109620D01*
G01*
%TD*%
%TA.AperFunction,Conductor*%
%TO.N,GND*%
G36*
X150648938Y-92435802D02*
G01*
X150694693Y-92488606D01*
X150704637Y-92522468D01*
X150709526Y-92556475D01*
X150712540Y-92577433D01*
X150702597Y-92646592D01*
X150656842Y-92699396D01*
X150589803Y-92719081D01*
X150565612Y-92716699D01*
X150471602Y-92698000D01*
X150328392Y-92698000D01*
X150187949Y-92725935D01*
X150187949Y-92725936D01*
X150070578Y-92774551D01*
X150560513Y-93264487D01*
X151050447Y-93754421D01*
X151064928Y-93719462D01*
X151108768Y-93665058D01*
X151175062Y-93642993D01*
X151242762Y-93660272D01*
X151260691Y-93673201D01*
X151419337Y-93810667D01*
X151419344Y-93810673D01*
X151419348Y-93810676D01*
X151419350Y-93810677D01*
X151635996Y-93949907D01*
X151636005Y-93949912D01*
X151636006Y-93949913D01*
X151636019Y-93949920D01*
X151870277Y-94056902D01*
X151870281Y-94056903D01*
X151870283Y-94056904D01*
X152117399Y-94129464D01*
X152202791Y-94141741D01*
X152266344Y-94170764D01*
X152272824Y-94176797D01*
X152499999Y-94403972D01*
X152726803Y-94177167D01*
X152788126Y-94143682D01*
X152796815Y-94142114D01*
X152884801Y-94129464D01*
X153068766Y-94075447D01*
X154270577Y-94075447D01*
X154387941Y-94124061D01*
X154387949Y-94124063D01*
X154528392Y-94151999D01*
X154528396Y-94152000D01*
X154671604Y-94152000D01*
X154671607Y-94151999D01*
X154812050Y-94124063D01*
X154812058Y-94124061D01*
X154929421Y-94075447D01*
X154600001Y-93746026D01*
X154600000Y-93746026D01*
X154270577Y-94075447D01*
X153068766Y-94075447D01*
X153131917Y-94056904D01*
X153131920Y-94056902D01*
X153131922Y-94056902D01*
X153366180Y-93949920D01*
X153366186Y-93949916D01*
X153366192Y-93949914D01*
X153582856Y-93810673D01*
X153739889Y-93674602D01*
X153803443Y-93645579D01*
X153872601Y-93655523D01*
X153925405Y-93701277D01*
X153935651Y-93720864D01*
X153949550Y-93754420D01*
X154298864Y-93405109D01*
X154500000Y-93405109D01*
X154500000Y-93444891D01*
X154515224Y-93481645D01*
X154543355Y-93509776D01*
X154580109Y-93525000D01*
X154619891Y-93525000D01*
X154656645Y-93509776D01*
X154684776Y-93481645D01*
X154700000Y-93444891D01*
X154700000Y-93424999D01*
X154921026Y-93424999D01*
X154921026Y-93425000D01*
X155250447Y-93754421D01*
X155299061Y-93637058D01*
X155299063Y-93637050D01*
X155326999Y-93496607D01*
X155327000Y-93496604D01*
X155327000Y-93353396D01*
X155326999Y-93353392D01*
X155299063Y-93212949D01*
X155299061Y-93212941D01*
X155250447Y-93095577D01*
X154921026Y-93424999D01*
X154700000Y-93424999D01*
X154700000Y-93405109D01*
X154684776Y-93368355D01*
X154656645Y-93340224D01*
X154619891Y-93325000D01*
X154580109Y-93325000D01*
X154543355Y-93340224D01*
X154515224Y-93368355D01*
X154500000Y-93405109D01*
X154298864Y-93405109D01*
X154418017Y-93285957D01*
X154439487Y-93264487D01*
X154929421Y-92774551D01*
X154812059Y-92725938D01*
X154812050Y-92725935D01*
X154671607Y-92698000D01*
X154528392Y-92698000D01*
X154436653Y-92716248D01*
X154367061Y-92710021D01*
X154311884Y-92667157D01*
X154288640Y-92601267D01*
X154289723Y-92576994D01*
X154297563Y-92522467D01*
X154326590Y-92458912D01*
X154385368Y-92421139D01*
X154420301Y-92416117D01*
X158493234Y-92416117D01*
X158506716Y-92416852D01*
X158537216Y-92420187D01*
X158653104Y-92432863D01*
X158673654Y-92436890D01*
X158811775Y-92476317D01*
X158831349Y-92483743D01*
X158912097Y-92522468D01*
X158960865Y-92545856D01*
X158978917Y-92556475D01*
X159067068Y-92618914D01*
X159096114Y-92639488D01*
X159096133Y-92639501D01*
X159112142Y-92653009D01*
X159213701Y-92754570D01*
X159227208Y-92770578D01*
X159310233Y-92887796D01*
X159320852Y-92905850D01*
X159382957Y-93035356D01*
X159390387Y-93054939D01*
X159429813Y-93193063D01*
X159433840Y-93213617D01*
X159449865Y-93360146D01*
X159450600Y-93373627D01*
X159450600Y-109755872D01*
X159449451Y-109772714D01*
X159435814Y-109872185D01*
X159429333Y-109898169D01*
X159396341Y-109987818D01*
X159384432Y-110011804D01*
X159379611Y-110019341D01*
X159332964Y-110092274D01*
X159316183Y-110113144D01*
X159248633Y-110180692D01*
X159227763Y-110197471D01*
X159147286Y-110248941D01*
X159123298Y-110260850D01*
X159033656Y-110293836D01*
X159007671Y-110300317D01*
X158906155Y-110314230D01*
X158892791Y-110315329D01*
X158872130Y-110315907D01*
X158864324Y-110317542D01*
X158838078Y-110319407D01*
X158838072Y-110319408D01*
X158723484Y-110352555D01*
X158618415Y-110409056D01*
X158618407Y-110409062D01*
X158527573Y-110486380D01*
X158455019Y-110581074D01*
X158455018Y-110581076D01*
X158403992Y-110688904D01*
X158379255Y-110794471D01*
X158376775Y-110805053D01*
X158376007Y-110844291D01*
X158375600Y-110844699D01*
X158375600Y-110865177D01*
X158375590Y-110865687D01*
X158375579Y-110866282D01*
X158375579Y-110866318D01*
X158375020Y-110896650D01*
X158375600Y-110900539D01*
X158375600Y-113776000D01*
X158355915Y-113843039D01*
X158303111Y-113888794D01*
X158251600Y-113900000D01*
X157999500Y-113900000D01*
X157932461Y-113880315D01*
X157886706Y-113827511D01*
X157875500Y-113776000D01*
X157875500Y-111905249D01*
X157875499Y-111905247D01*
X157863868Y-111846770D01*
X157863867Y-111846769D01*
X157819552Y-111780447D01*
X157753230Y-111736132D01*
X157753229Y-111736131D01*
X157694752Y-111724500D01*
X157694748Y-111724500D01*
X157305252Y-111724500D01*
X157305251Y-111724500D01*
X157274188Y-111730678D01*
X157225812Y-111730678D01*
X157194749Y-111724500D01*
X157194748Y-111724500D01*
X156805252Y-111724500D01*
X156805251Y-111724500D01*
X156774188Y-111730678D01*
X156725812Y-111730678D01*
X156694749Y-111724500D01*
X156694748Y-111724500D01*
X156305252Y-111724500D01*
X156305251Y-111724500D01*
X156274188Y-111730678D01*
X156225812Y-111730678D01*
X156194749Y-111724500D01*
X156194748Y-111724500D01*
X155805252Y-111724500D01*
X155805251Y-111724500D01*
X155774188Y-111730678D01*
X155725812Y-111730678D01*
X155694749Y-111724500D01*
X155694748Y-111724500D01*
X155444885Y-111724500D01*
X155377846Y-111704815D01*
X155332091Y-111652011D01*
X155321482Y-111612655D01*
X155296799Y-111362048D01*
X155239655Y-111074767D01*
X155154627Y-110794471D01*
X155042534Y-110523860D01*
X154904457Y-110265538D01*
X154741724Y-110021995D01*
X154651183Y-109911673D01*
X154555913Y-109795586D01*
X154555901Y-109795573D01*
X154482132Y-109721804D01*
X154482127Y-109721800D01*
X149072372Y-104312044D01*
X149072241Y-104311928D01*
X149004417Y-104244104D01*
X148777998Y-104058284D01*
X148777994Y-104058281D01*
X148777990Y-104058278D01*
X148534466Y-103895557D01*
X148534462Y-103895555D01*
X148534461Y-103895554D01*
X148534456Y-103895551D01*
X148371691Y-103808550D01*
X148276134Y-103757473D01*
X148276128Y-103757471D01*
X148005527Y-103645382D01*
X147828903Y-103591804D01*
X147725230Y-103560355D01*
X147629470Y-103541307D01*
X147437963Y-103503213D01*
X147437951Y-103503211D01*
X147146454Y-103474500D01*
X147146450Y-103474500D01*
X145762964Y-103474500D01*
X145695925Y-103454815D01*
X145683064Y-103444451D01*
X145683059Y-103444458D01*
X145676615Y-103439513D01*
X145676613Y-103439511D01*
X145573886Y-103380201D01*
X145459309Y-103349500D01*
X145340691Y-103349500D01*
X145226114Y-103380201D01*
X145226112Y-103380201D01*
X145226112Y-103380202D01*
X145123387Y-103439511D01*
X145123384Y-103439513D01*
X145039513Y-103523384D01*
X145039511Y-103523387D01*
X144980201Y-103626114D01*
X144949500Y-103740691D01*
X144949500Y-103859309D01*
X144980201Y-103973886D01*
X145039511Y-104076613D01*
X145123387Y-104160489D01*
X145226114Y-104219799D01*
X145340691Y-104250500D01*
X145340694Y-104250500D01*
X145459306Y-104250500D01*
X145459309Y-104250500D01*
X145573886Y-104219799D01*
X145676613Y-104160489D01*
X145676620Y-104160481D01*
X145683059Y-104155542D01*
X145684157Y-104156973D01*
X145736606Y-104128334D01*
X145762964Y-104125500D01*
X146948446Y-104125500D01*
X146996519Y-104125500D01*
X147003472Y-104125695D01*
X147253947Y-104139762D01*
X147267748Y-104141317D01*
X147511634Y-104182755D01*
X147525190Y-104185849D01*
X147598000Y-104206825D01*
X147762905Y-104254333D01*
X147776014Y-104258920D01*
X147917078Y-104317352D01*
X148004574Y-104353595D01*
X148017097Y-104359626D01*
X148233620Y-104479295D01*
X148245368Y-104486677D01*
X148405274Y-104600138D01*
X148447127Y-104629835D01*
X148457998Y-104638504D01*
X148636108Y-104797676D01*
X148645186Y-104805788D01*
X148647299Y-104808757D01*
X148650239Y-104810566D01*
X153989554Y-110149881D01*
X153994332Y-110154934D01*
X154161501Y-110341994D01*
X154170171Y-110352866D01*
X154313323Y-110554615D01*
X154320721Y-110566389D01*
X154382665Y-110678467D01*
X154397866Y-110746664D01*
X154373783Y-110812252D01*
X154318064Y-110854408D01*
X154248399Y-110859748D01*
X154186905Y-110826577D01*
X154186457Y-110826130D01*
X148567294Y-105206966D01*
X148567271Y-105206945D01*
X148497912Y-105137586D01*
X148358130Y-105026114D01*
X148267929Y-104954181D01*
X148036489Y-104808757D01*
X148018854Y-104797676D01*
X147753831Y-104670048D01*
X147476186Y-104572895D01*
X147476174Y-104572891D01*
X147254846Y-104522374D01*
X147189390Y-104507435D01*
X147189387Y-104507434D01*
X147189375Y-104507432D01*
X146897086Y-104474500D01*
X146897080Y-104474500D01*
X146792853Y-104474500D01*
X146039989Y-104474500D01*
X146032245Y-104474500D01*
X146032014Y-104474514D01*
X146003505Y-104474513D01*
X146003502Y-104474513D01*
X146003501Y-104474513D01*
X146003500Y-104474513D01*
X145846737Y-104499334D01*
X145695782Y-104548376D01*
X145695778Y-104548377D01*
X145554361Y-104620429D01*
X145425950Y-104713722D01*
X145422243Y-104716889D01*
X145421434Y-104715942D01*
X145365169Y-104746666D01*
X145348749Y-104748431D01*
X145348751Y-104748439D01*
X145340694Y-104749499D01*
X145306653Y-104758620D01*
X145226114Y-104780201D01*
X145226112Y-104780201D01*
X145226112Y-104780202D01*
X145123387Y-104839511D01*
X145123384Y-104839513D01*
X145039513Y-104923384D01*
X145039511Y-104923387D01*
X144980201Y-105026114D01*
X144949500Y-105140691D01*
X144949500Y-105259309D01*
X144980201Y-105373886D01*
X145039511Y-105476613D01*
X145123387Y-105560489D01*
X145226114Y-105619799D01*
X145340691Y-105650500D01*
X145340694Y-105650500D01*
X145459306Y-105650500D01*
X145459309Y-105650500D01*
X145573886Y-105619799D01*
X145676613Y-105560489D01*
X145760489Y-105476613D01*
X145819799Y-105373886D01*
X145850500Y-105259309D01*
X145850500Y-105259306D01*
X145852603Y-105251458D01*
X145854829Y-105252054D01*
X145854881Y-105251937D01*
X145855310Y-105239940D01*
X145868755Y-105220575D01*
X145878292Y-105199019D01*
X145889309Y-105190974D01*
X145895160Y-105182548D01*
X145925513Y-105164539D01*
X145975263Y-105143933D01*
X146006525Y-105135558D01*
X146074905Y-105126559D01*
X146091081Y-105125500D01*
X146134376Y-105125503D01*
X146134377Y-105125502D01*
X146144340Y-105125503D01*
X146144391Y-105125500D01*
X146698446Y-105125500D01*
X146746519Y-105125500D01*
X146753471Y-105125695D01*
X146780163Y-105127193D01*
X146963402Y-105137484D01*
X146977201Y-105139038D01*
X147151289Y-105168617D01*
X147181053Y-105173675D01*
X147194610Y-105176769D01*
X147393301Y-105234011D01*
X147406426Y-105238604D01*
X147437458Y-105251458D01*
X147597456Y-105317731D01*
X147609970Y-105323757D01*
X147700671Y-105373886D01*
X147790944Y-105423778D01*
X147802718Y-105431176D01*
X147971358Y-105550832D01*
X147982222Y-105559497D01*
X148083129Y-105649673D01*
X148139000Y-105699603D01*
X148144054Y-105704381D01*
X153773764Y-111334091D01*
X153773766Y-111334094D01*
X153791993Y-111352320D01*
X153806774Y-111367101D01*
X153813382Y-111374249D01*
X153930636Y-111511532D01*
X153942066Y-111527262D01*
X153947239Y-111535704D01*
X153965489Y-111603145D01*
X153944379Y-111669749D01*
X153890611Y-111714367D01*
X153841517Y-111724500D01*
X153805251Y-111724500D01*
X153774188Y-111730678D01*
X153725812Y-111730678D01*
X153694749Y-111724500D01*
X153694748Y-111724500D01*
X153305252Y-111724500D01*
X153305251Y-111724500D01*
X153274188Y-111730678D01*
X153225812Y-111730678D01*
X153194749Y-111724500D01*
X153194748Y-111724500D01*
X152805252Y-111724500D01*
X152805251Y-111724500D01*
X152774188Y-111730678D01*
X152725812Y-111730678D01*
X152694749Y-111724500D01*
X152694748Y-111724500D01*
X152305252Y-111724500D01*
X152305247Y-111724500D01*
X152246770Y-111736131D01*
X152246769Y-111736132D01*
X152180447Y-111780447D01*
X152136132Y-111846769D01*
X152136131Y-111846770D01*
X152124500Y-111905247D01*
X152124500Y-113776000D01*
X152121949Y-113784685D01*
X152123238Y-113793647D01*
X152112259Y-113817687D01*
X152104815Y-113843039D01*
X152097974Y-113848966D01*
X152094213Y-113857203D01*
X152071978Y-113871492D01*
X152052011Y-113888794D01*
X152041496Y-113891081D01*
X152035435Y-113894977D01*
X152000500Y-113900000D01*
X151900600Y-113900000D01*
X151833561Y-113880315D01*
X151787806Y-113827511D01*
X151776600Y-113776000D01*
X151776600Y-111392323D01*
X151776599Y-111392319D01*
X151743981Y-111249411D01*
X151680379Y-111117340D01*
X151667532Y-111101231D01*
X151611049Y-111030404D01*
X151588983Y-111002734D01*
X151509671Y-110939484D01*
X151474379Y-110911339D01*
X151474376Y-110911337D01*
X151342309Y-110847737D01*
X151342307Y-110847736D01*
X151342306Y-110847736D01*
X151297254Y-110837453D01*
X151199397Y-110815117D01*
X151199394Y-110815117D01*
X151052806Y-110815117D01*
X151052802Y-110815117D01*
X150909890Y-110847737D01*
X150777823Y-110911337D01*
X150777820Y-110911339D01*
X150663217Y-111002734D01*
X150571822Y-111117337D01*
X150571820Y-111117340D01*
X150508220Y-111249407D01*
X150475600Y-111392319D01*
X150475600Y-111652727D01*
X150455915Y-111719766D01*
X150403111Y-111765521D01*
X150333953Y-111775465D01*
X150282710Y-111755830D01*
X150264290Y-111743522D01*
X150253231Y-111736133D01*
X150253230Y-111736132D01*
X150253229Y-111736132D01*
X150253229Y-111736131D01*
X150194752Y-111724500D01*
X150194748Y-111724500D01*
X149805252Y-111724500D01*
X149805251Y-111724500D01*
X149774188Y-111730678D01*
X149765953Y-111730683D01*
X149761230Y-111732550D01*
X149726449Y-111730711D01*
X149725984Y-111730712D01*
X149725278Y-111730572D01*
X149694748Y-111724500D01*
X149694517Y-111724500D01*
X149688393Y-111723291D01*
X149662492Y-111709790D01*
X149635409Y-111698835D01*
X149629166Y-111692418D01*
X149626435Y-111690995D01*
X149624519Y-111687643D01*
X149613143Y-111675950D01*
X149532190Y-111567812D01*
X149532187Y-111567809D01*
X149417093Y-111481649D01*
X149417086Y-111481645D01*
X149282379Y-111431403D01*
X149282372Y-111431401D01*
X149222844Y-111425000D01*
X149175000Y-111425000D01*
X149175000Y-111750986D01*
X149172449Y-111759671D01*
X149173738Y-111768633D01*
X149156965Y-111812404D01*
X149155315Y-111818025D01*
X149154561Y-111818677D01*
X149154102Y-111819877D01*
X149136133Y-111846769D01*
X149136131Y-111846773D01*
X149124500Y-111905247D01*
X149124500Y-112776000D01*
X149121949Y-112784685D01*
X149123238Y-112793647D01*
X149112259Y-112817687D01*
X149104815Y-112843039D01*
X149097974Y-112848966D01*
X149094213Y-112857203D01*
X149071978Y-112871492D01*
X149052011Y-112888794D01*
X149041496Y-112891081D01*
X149035435Y-112894977D01*
X149000500Y-112900000D01*
X148999500Y-112900000D01*
X148932461Y-112880315D01*
X148886706Y-112827511D01*
X148875500Y-112776000D01*
X148875500Y-111905249D01*
X148875499Y-111905247D01*
X148863868Y-111846773D01*
X148863867Y-111846772D01*
X148863867Y-111846769D01*
X148845897Y-111819876D01*
X148842860Y-111810176D01*
X148836206Y-111802497D01*
X148832597Y-111777397D01*
X148825020Y-111753199D01*
X148825000Y-111750986D01*
X148825000Y-111425000D01*
X148777155Y-111425000D01*
X148717627Y-111431401D01*
X148717620Y-111431403D01*
X148582913Y-111481645D01*
X148582906Y-111481649D01*
X148467812Y-111567809D01*
X148386856Y-111675951D01*
X148364780Y-111692475D01*
X148344907Y-111711597D01*
X148335483Y-111714406D01*
X148330922Y-111717821D01*
X148311606Y-111723291D01*
X148305482Y-111724500D01*
X148305252Y-111724500D01*
X148274724Y-111730572D01*
X148274016Y-111730712D01*
X148273642Y-111730678D01*
X148225812Y-111730678D01*
X148194749Y-111724500D01*
X148194748Y-111724500D01*
X147805252Y-111724500D01*
X147805251Y-111724500D01*
X147774188Y-111730678D01*
X147725812Y-111730678D01*
X147694749Y-111724500D01*
X147694748Y-111724500D01*
X147305252Y-111724500D01*
X147305251Y-111724500D01*
X147274188Y-111730678D01*
X147225812Y-111730678D01*
X147194749Y-111724500D01*
X147194748Y-111724500D01*
X146805252Y-111724500D01*
X146805251Y-111724500D01*
X146774188Y-111730678D01*
X146725812Y-111730678D01*
X146694749Y-111724500D01*
X146694748Y-111724500D01*
X146305252Y-111724500D01*
X146305251Y-111724500D01*
X146274188Y-111730678D01*
X146225812Y-111730678D01*
X146194749Y-111724500D01*
X146194748Y-111724500D01*
X145805252Y-111724500D01*
X145805251Y-111724500D01*
X145774188Y-111730678D01*
X145725812Y-111730678D01*
X145694749Y-111724500D01*
X145694748Y-111724500D01*
X145305252Y-111724500D01*
X145305251Y-111724500D01*
X145274188Y-111730678D01*
X145225812Y-111730678D01*
X145194749Y-111724500D01*
X145194748Y-111724500D01*
X144805252Y-111724500D01*
X144805251Y-111724500D01*
X144774188Y-111730678D01*
X144725812Y-111730678D01*
X144694749Y-111724500D01*
X144694748Y-111724500D01*
X144305252Y-111724500D01*
X144305251Y-111724500D01*
X144274188Y-111730678D01*
X144225812Y-111730678D01*
X144194749Y-111724500D01*
X144194748Y-111724500D01*
X143805252Y-111724500D01*
X143805251Y-111724500D01*
X143774188Y-111730678D01*
X143725812Y-111730678D01*
X143694749Y-111724500D01*
X143694748Y-111724500D01*
X143305252Y-111724500D01*
X143305251Y-111724500D01*
X143274188Y-111730678D01*
X143225812Y-111730678D01*
X143194749Y-111724500D01*
X143194748Y-111724500D01*
X142805252Y-111724500D01*
X142805251Y-111724500D01*
X142774188Y-111730678D01*
X142725812Y-111730678D01*
X142694749Y-111724500D01*
X142694748Y-111724500D01*
X142305252Y-111724500D01*
X142305251Y-111724500D01*
X142274188Y-111730678D01*
X142225812Y-111730678D01*
X142194749Y-111724500D01*
X142194748Y-111724500D01*
X141805252Y-111724500D01*
X141805251Y-111724500D01*
X141774188Y-111730678D01*
X141725812Y-111730678D01*
X141694749Y-111724500D01*
X141694748Y-111724500D01*
X141305252Y-111724500D01*
X141305251Y-111724500D01*
X141274188Y-111730678D01*
X141225812Y-111730678D01*
X141194749Y-111724500D01*
X141194748Y-111724500D01*
X140805252Y-111724500D01*
X140805251Y-111724500D01*
X140774188Y-111730678D01*
X140725812Y-111730678D01*
X140694749Y-111724500D01*
X140694748Y-111724500D01*
X140305252Y-111724500D01*
X140305251Y-111724500D01*
X140274188Y-111730678D01*
X140225812Y-111730678D01*
X140194749Y-111724500D01*
X140194748Y-111724500D01*
X139805252Y-111724500D01*
X139805251Y-111724500D01*
X139774188Y-111730678D01*
X139725812Y-111730678D01*
X139694749Y-111724500D01*
X139694748Y-111724500D01*
X139305252Y-111724500D01*
X139305247Y-111724500D01*
X139246770Y-111736131D01*
X139246769Y-111736132D01*
X139180447Y-111780447D01*
X139136132Y-111846769D01*
X139136131Y-111846770D01*
X139124500Y-111905247D01*
X139124500Y-113776000D01*
X139121949Y-113784685D01*
X139123238Y-113793647D01*
X139112259Y-113817687D01*
X139104815Y-113843039D01*
X139097974Y-113848966D01*
X139094213Y-113857203D01*
X139071978Y-113871492D01*
X139052011Y-113888794D01*
X139041496Y-113891081D01*
X139035435Y-113894977D01*
X139000500Y-113900000D01*
X138750600Y-113900000D01*
X138683561Y-113880315D01*
X138637806Y-113827511D01*
X138626600Y-113776000D01*
X138626600Y-110899968D01*
X138627429Y-110894212D01*
X138626650Y-110866664D01*
X138626600Y-110863158D01*
X138626600Y-110826203D01*
X138625358Y-110820392D01*
X138624921Y-110804774D01*
X138596979Y-110689222D01*
X138545670Y-110581983D01*
X138473227Y-110487723D01*
X138382803Y-110410546D01*
X138278333Y-110353810D01*
X138278331Y-110353809D01*
X138278326Y-110353807D01*
X138164368Y-110319986D01*
X138164370Y-110319986D01*
X138164365Y-110319985D01*
X138164363Y-110319984D01*
X138164360Y-110319984D01*
X138138070Y-110317895D01*
X138137667Y-110317863D01*
X138119954Y-110316397D01*
X138118915Y-110315596D01*
X138105852Y-110315230D01*
X138102491Y-110314952D01*
X138101888Y-110314719D01*
X138095880Y-110314225D01*
X137994523Y-110300333D01*
X137968538Y-110293853D01*
X137878887Y-110260863D01*
X137854901Y-110248955D01*
X137774423Y-110197486D01*
X137753555Y-110180709D01*
X137685997Y-110113152D01*
X137669222Y-110092288D01*
X137617751Y-110011812D01*
X137605842Y-109987826D01*
X137572848Y-109898172D01*
X137566367Y-109872187D01*
X137555866Y-109795586D01*
X137552749Y-109772844D01*
X137551600Y-109756003D01*
X137551600Y-105440691D01*
X141449500Y-105440691D01*
X141449500Y-105559309D01*
X141449816Y-105560488D01*
X141473712Y-105649672D01*
X141480200Y-105673885D01*
X141480200Y-105673886D01*
X141496383Y-105701915D01*
X141539511Y-105776614D01*
X141623386Y-105860489D01*
X141726113Y-105919799D01*
X141750321Y-105926284D01*
X141750324Y-105926286D01*
X141750325Y-105926286D01*
X141780447Y-105934357D01*
X141840691Y-105950500D01*
X141840693Y-105950500D01*
X141959308Y-105950500D01*
X141959309Y-105950500D01*
X142049673Y-105926286D01*
X142073887Y-105919799D01*
X142176614Y-105860489D01*
X142782224Y-105254879D01*
X142782261Y-105254858D01*
X142818559Y-105218559D01*
X142818560Y-105218560D01*
X142917798Y-105119322D01*
X143092803Y-104899872D01*
X143242136Y-104662207D01*
X143363920Y-104409317D01*
X143456623Y-104144380D01*
X143519079Y-103870730D01*
X143550502Y-103591808D01*
X143550500Y-103451465D01*
X143550500Y-103426793D01*
X143550500Y-101237964D01*
X143570185Y-101170925D01*
X143586815Y-101150287D01*
X144126618Y-100610484D01*
X144126623Y-100610482D01*
X144166105Y-100570997D01*
X144171139Y-100566239D01*
X144339816Y-100415491D01*
X144350671Y-100406833D01*
X144532324Y-100277937D01*
X144544080Y-100270550D01*
X144739021Y-100162805D01*
X144751516Y-100156788D01*
X144957291Y-100071547D01*
X144970403Y-100066958D01*
X145184437Y-100005292D01*
X145197950Y-100002207D01*
X145417544Y-99964892D01*
X145431351Y-99963336D01*
X145612124Y-99953181D01*
X145656396Y-99950695D01*
X145663350Y-99950500D01*
X148186730Y-99950500D01*
X148194667Y-99950500D01*
X148194701Y-99950509D01*
X148246039Y-99950509D01*
X148246039Y-99950510D01*
X148456474Y-99950509D01*
X148876271Y-99920482D01*
X149292857Y-99860584D01*
X149292862Y-99860583D01*
X149704105Y-99771121D01*
X149741287Y-99760203D01*
X150107930Y-99652546D01*
X150502263Y-99505466D01*
X150885100Y-99330629D01*
X151254488Y-99128927D01*
X151608546Y-98901388D01*
X151945470Y-98649170D01*
X152263543Y-98373559D01*
X152412343Y-98224759D01*
X152454281Y-98182821D01*
X152454280Y-98182821D01*
X154960490Y-95676614D01*
X155019799Y-95573887D01*
X155026285Y-95549675D01*
X155026286Y-95549675D01*
X155026286Y-95549671D01*
X155050500Y-95459309D01*
X155050500Y-95340691D01*
X155019799Y-95226114D01*
X155019799Y-95226113D01*
X155019799Y-95226112D01*
X154960492Y-95123389D01*
X154960488Y-95123384D01*
X154876615Y-95039511D01*
X154876610Y-95039507D01*
X154773890Y-94980202D01*
X154773883Y-94980199D01*
X154743184Y-94971973D01*
X154743184Y-94971972D01*
X154659312Y-94949500D01*
X154659309Y-94949500D01*
X154540691Y-94949500D01*
X154471944Y-94967920D01*
X154426112Y-94980201D01*
X154426107Y-94980204D01*
X154323393Y-95039505D01*
X154323385Y-95039511D01*
X151799738Y-97563157D01*
X151776965Y-97585930D01*
X151773455Y-97589305D01*
X151491042Y-97850364D01*
X151483639Y-97856687D01*
X151183520Y-98093281D01*
X151175643Y-98099004D01*
X150857902Y-98311311D01*
X150849600Y-98316398D01*
X150516182Y-98503122D01*
X150507507Y-98507543D01*
X150160451Y-98667539D01*
X150151456Y-98671265D01*
X149792914Y-98803540D01*
X149783654Y-98806548D01*
X149415861Y-98910278D01*
X149406394Y-98912551D01*
X149031581Y-98987107D01*
X149021964Y-98988630D01*
X148642465Y-99033549D01*
X148632759Y-99034313D01*
X148248730Y-99049404D01*
X148243861Y-99049500D01*
X145727564Y-99049500D01*
X145719964Y-99049499D01*
X145719962Y-99049499D01*
X145713691Y-99049499D01*
X145712051Y-99049499D01*
X145711897Y-99049454D01*
X145512727Y-99049457D01*
X145218282Y-99078462D01*
X145218281Y-99078463D01*
X144928109Y-99136187D01*
X144928107Y-99136188D01*
X144644989Y-99222078D01*
X144371663Y-99335300D01*
X144371656Y-99335303D01*
X144110735Y-99474776D01*
X144110727Y-99474781D01*
X143864746Y-99639150D01*
X143864728Y-99639163D01*
X143636041Y-99826851D01*
X143594205Y-99868689D01*
X143552360Y-99910537D01*
X142739513Y-100723383D01*
X142739509Y-100723389D01*
X142680201Y-100826112D01*
X142680200Y-100826117D01*
X142649500Y-100940691D01*
X142649500Y-103447411D01*
X142649235Y-103455520D01*
X142636362Y-103651952D01*
X142634245Y-103668033D01*
X142596638Y-103857108D01*
X142592440Y-103872776D01*
X142530475Y-104055324D01*
X142524267Y-104070309D01*
X142439007Y-104243201D01*
X142430898Y-104257248D01*
X142323795Y-104417541D01*
X142313920Y-104430410D01*
X142184251Y-104578269D01*
X142178707Y-104584188D01*
X142162759Y-104600137D01*
X141539513Y-105223383D01*
X141539511Y-105223386D01*
X141480200Y-105326113D01*
X141480199Y-105326116D01*
X141473712Y-105350324D01*
X141473713Y-105350325D01*
X141449500Y-105440691D01*
X137551600Y-105440691D01*
X137551600Y-95375447D01*
X152170577Y-95375447D01*
X152287941Y-95424061D01*
X152287949Y-95424063D01*
X152428392Y-95451999D01*
X152428396Y-95452000D01*
X152571604Y-95452000D01*
X152571607Y-95451999D01*
X152712050Y-95424063D01*
X152712058Y-95424061D01*
X152829421Y-95375447D01*
X152500001Y-95046026D01*
X152500000Y-95046026D01*
X152170577Y-95375447D01*
X137551600Y-95375447D01*
X137551600Y-94653392D01*
X151773000Y-94653392D01*
X151773000Y-94796607D01*
X151800935Y-94937050D01*
X151800938Y-94937059D01*
X151849550Y-95054420D01*
X152178973Y-94725000D01*
X152159082Y-94705109D01*
X152400000Y-94705109D01*
X152400000Y-94744891D01*
X152415224Y-94781645D01*
X152443355Y-94809776D01*
X152480109Y-94825000D01*
X152519891Y-94825000D01*
X152556645Y-94809776D01*
X152584776Y-94781645D01*
X152600000Y-94744891D01*
X152600000Y-94724999D01*
X152821026Y-94724999D01*
X152821026Y-94725000D01*
X153150447Y-95054421D01*
X153199061Y-94937058D01*
X153199063Y-94937050D01*
X153226999Y-94796607D01*
X153227000Y-94796604D01*
X153227000Y-94653396D01*
X153226999Y-94653392D01*
X153199063Y-94512949D01*
X153199061Y-94512941D01*
X153150447Y-94395577D01*
X152821026Y-94724999D01*
X152600000Y-94724999D01*
X152600000Y-94705109D01*
X152584776Y-94668355D01*
X152556645Y-94640224D01*
X152519891Y-94625000D01*
X152480109Y-94625000D01*
X152443355Y-94640224D01*
X152415224Y-94668355D01*
X152400000Y-94705109D01*
X152159082Y-94705109D01*
X151849551Y-94395578D01*
X151800936Y-94512949D01*
X151800935Y-94512949D01*
X151773000Y-94653392D01*
X137551600Y-94653392D01*
X137551600Y-94075447D01*
X150070577Y-94075447D01*
X150187941Y-94124061D01*
X150187949Y-94124063D01*
X150328392Y-94151999D01*
X150328396Y-94152000D01*
X150471604Y-94152000D01*
X150471607Y-94151999D01*
X150612050Y-94124063D01*
X150612058Y-94124061D01*
X150729421Y-94075447D01*
X150400001Y-93746026D01*
X150400000Y-93746026D01*
X150070577Y-94075447D01*
X137551600Y-94075447D01*
X137551600Y-93373470D01*
X137552335Y-93359992D01*
X137553057Y-93353392D01*
X149673000Y-93353392D01*
X149673000Y-93496607D01*
X149700935Y-93637050D01*
X149700938Y-93637059D01*
X149749550Y-93754420D01*
X150078973Y-93425000D01*
X150059082Y-93405109D01*
X150300000Y-93405109D01*
X150300000Y-93444891D01*
X150315224Y-93481645D01*
X150343355Y-93509776D01*
X150380109Y-93525000D01*
X150419891Y-93525000D01*
X150456645Y-93509776D01*
X150484776Y-93481645D01*
X150500000Y-93444891D01*
X150500000Y-93405109D01*
X150484776Y-93368355D01*
X150456645Y-93340224D01*
X150419891Y-93325000D01*
X150380109Y-93325000D01*
X150343355Y-93340224D01*
X150315224Y-93368355D01*
X150300000Y-93405109D01*
X150059082Y-93405109D01*
X149749551Y-93095578D01*
X149700936Y-93212949D01*
X149700935Y-93212949D01*
X149673000Y-93353392D01*
X137553057Y-93353392D01*
X137555196Y-93333827D01*
X137568343Y-93213611D01*
X137572370Y-93193061D01*
X137600572Y-93094257D01*
X137611797Y-93054931D01*
X137619223Y-93035356D01*
X137681335Y-92905836D01*
X137691953Y-92887786D01*
X137774980Y-92770565D01*
X137788478Y-92754566D01*
X137890053Y-92652989D01*
X137906048Y-92639493D01*
X138023275Y-92556459D01*
X138041318Y-92545845D01*
X138170846Y-92483726D01*
X138190415Y-92476302D01*
X138328541Y-92436873D01*
X138349091Y-92432846D01*
X138495327Y-92416851D01*
X138508809Y-92416117D01*
X150581899Y-92416117D01*
X150648938Y-92435802D01*
G37*
%TD.AperFunction*%
%TD*%
M02*
