%TF.GenerationSoftware,KiCad,Pcbnew,9.0.0*%
%TF.CreationDate,2025-05-23T15:59:46+04:00*%
%TF.ProjectId,02_04_sensor_barometer_BMP390L,30325f30-345f-4736-956e-736f725f6261,rev?*%
%TF.SameCoordinates,Original*%
%TF.FileFunction,Copper,L1,Top*%
%TF.FilePolarity,Positive*%
%FSLAX46Y46*%
G04 Gerber Fmt 4.6, Leading zero omitted, Abs format (unit mm)*
G04 Created by KiCad (PCBNEW 9.0.0) date 2025-05-23 15:59:46*
%MOMM*%
%LPD*%
G01*
G04 APERTURE LIST*
G04 Aperture macros list*
%AMRoundRect*
0 Rectangle with rounded corners*
0 $1 Rounding radius*
0 $2 $3 $4 $5 $6 $7 $8 $9 X,Y pos of 4 corners*
0 Add a 4 corners polygon primitive as box body*
4,1,4,$2,$3,$4,$5,$6,$7,$8,$9,$2,$3,0*
0 Add four circle primitives for the rounded corners*
1,1,$1+$1,$2,$3*
1,1,$1+$1,$4,$5*
1,1,$1+$1,$6,$7*
1,1,$1+$1,$8,$9*
0 Add four rect primitives between the rounded corners*
20,1,$1+$1,$2,$3,$4,$5,0*
20,1,$1+$1,$4,$5,$6,$7,0*
20,1,$1+$1,$6,$7,$8,$9,0*
20,1,$1+$1,$8,$9,$2,$3,0*%
G04 Aperture macros list end*
%TA.AperFunction,EtchedComponent*%
%ADD10C,0.101600*%
%TD*%
%TA.AperFunction,EtchedComponent*%
%ADD11C,0.000000*%
%TD*%
%TA.AperFunction,SMDPad,CuDef*%
%ADD12R,0.350000X1.450000*%
%TD*%
%TA.AperFunction,ComponentPad*%
%ADD13C,0.454000*%
%TD*%
%TA.AperFunction,SMDPad,CuDef*%
%ADD14C,1.000000*%
%TD*%
%TA.AperFunction,SMDPad,CuDef*%
%ADD15RoundRect,0.140000X0.170000X-0.140000X0.170000X0.140000X-0.170000X0.140000X-0.170000X-0.140000X0*%
%TD*%
%TA.AperFunction,SMDPad,CuDef*%
%ADD16RoundRect,0.200000X-0.275000X0.200000X-0.275000X-0.200000X0.275000X-0.200000X0.275000X0.200000X0*%
%TD*%
%TA.AperFunction,SMDPad,CuDef*%
%ADD17RoundRect,0.140000X-0.140000X-0.170000X0.140000X-0.170000X0.140000X0.170000X-0.140000X0.170000X0*%
%TD*%
%TA.AperFunction,SMDPad,CuDef*%
%ADD18R,1.200000X0.600000*%
%TD*%
%TA.AperFunction,SMDPad,CuDef*%
%ADD19RoundRect,0.135000X0.135000X0.185000X-0.135000X0.185000X-0.135000X-0.185000X0.135000X-0.185000X0*%
%TD*%
%TA.AperFunction,SMDPad,CuDef*%
%ADD20RoundRect,0.250000X0.650000X-0.325000X0.650000X0.325000X-0.650000X0.325000X-0.650000X-0.325000X0*%
%TD*%
%TA.AperFunction,SMDPad,CuDef*%
%ADD21R,0.300000X0.300000*%
%TD*%
%TA.AperFunction,SMDPad,CuDef*%
%ADD22RoundRect,0.218750X-0.256250X0.218750X-0.256250X-0.218750X0.256250X-0.218750X0.256250X0.218750X0*%
%TD*%
%TA.AperFunction,ViaPad*%
%ADD23C,0.500000*%
%TD*%
%TA.AperFunction,ViaPad*%
%ADD24C,0.700000*%
%TD*%
%TA.AperFunction,Conductor*%
%ADD25C,0.500000*%
%TD*%
%TA.AperFunction,Conductor*%
%ADD26C,0.250000*%
%TD*%
%TA.AperFunction,Conductor*%
%ADD27C,0.750000*%
%TD*%
G04 APERTURE END LIST*
D10*
%TO.C,J1*%
X150400000Y-93425000D02*
X149500000Y-93425000D01*
X150400000Y-93425000D02*
X150400000Y-94525000D01*
X152500000Y-94725000D02*
X152500000Y-95425000D01*
X154600000Y-93425000D02*
X154600000Y-94525000D01*
X154600000Y-93425000D02*
X155500000Y-93425000D01*
D11*
%TA.AperFunction,EtchedComponent*%
G36*
X150588420Y-92963173D02*
G01*
X150671447Y-93241787D01*
X150797037Y-93503983D01*
X150962097Y-93743304D01*
X151162563Y-93953858D01*
X151393499Y-94130460D01*
X151649218Y-94268761D01*
X151923424Y-94365356D01*
X152500000Y-94425000D01*
X152790635Y-94417867D01*
X153076576Y-94365356D01*
X153350782Y-94268761D01*
X153606501Y-94130460D01*
X153837437Y-93953858D01*
X154037903Y-93743304D01*
X154202963Y-93503983D01*
X154328553Y-93241787D01*
X154450000Y-92675000D01*
X155250000Y-92675000D01*
X155186952Y-93038935D01*
X155076451Y-93391374D01*
X154920427Y-93726158D01*
X154721608Y-94037436D01*
X154483467Y-94319770D01*
X154210166Y-94568226D01*
X153906480Y-94778461D01*
X153577718Y-94946803D01*
X153229623Y-95070309D01*
X152868279Y-95146820D01*
X152500000Y-95175000D01*
X152130811Y-95149373D01*
X151768334Y-95074760D01*
X151419037Y-94952494D01*
X151089157Y-94784756D01*
X150784581Y-94574540D01*
X150510746Y-94325599D01*
X150272540Y-94042377D01*
X150074215Y-93729928D01*
X149919311Y-93393831D01*
X149750000Y-92675000D01*
X150550000Y-92675000D01*
X150588420Y-92963173D01*
G37*
%TD.AperFunction*%
%TD*%
D12*
%TO.P,J1,1,GND*%
%TO.N,GND*%
X157750000Y-113150000D03*
%TO.P,J1,3,USB_D+*%
%TO.N,/USB_D+*%
X157250000Y-113150000D03*
%TO.P,J1,5,USB_D-*%
%TO.N,/USB_D-*%
X156750000Y-113150000D03*
%TO.P,J1,7,GND*%
%TO.N,GND*%
X156250000Y-113150000D03*
%TO.P,J1,9,USB_VIN*%
%TO.N,/V_USB*%
X155750000Y-113150000D03*
%TO.P,J1,11,~{BOOT}*%
%TO.N,VIN*%
X155250000Y-113150000D03*
%TO.P,J1,13,RTS1*%
%TO.N,/UART_RTS1*%
X154750000Y-113150000D03*
%TO.P,J1,15,CTS1*%
%TO.N,/UART_CTS1*%
X154250000Y-113150000D03*
%TO.P,J1,17,TX1*%
%TO.N,BMP390_TX*%
X153750000Y-113150000D03*
%TO.P,J1,19,RX1*%
%TO.N,BMP390_RX*%
X153250000Y-113150000D03*
%TO.P,J1,21,SWDCK*%
%TO.N,/SWDCK*%
X152750000Y-113150000D03*
%TO.P,J1,23,SWDIO*%
%TO.N,/SWDIO*%
X152250000Y-113150000D03*
%TO.P,J1,33,GND*%
%TO.N,GND*%
X149750000Y-113150000D03*
%TO.P,J1,35,USBHOST_D+*%
%TO.N,/USBHOST_D+*%
X149250000Y-113150000D03*
%TO.P,J1,37,USBHOST_D-*%
%TO.N,/USBHOST_D-*%
X148750000Y-113150000D03*
%TO.P,J1,39,GND*%
%TO.N,GND*%
X148250000Y-113150000D03*
%TO.P,J1,41,CAN-RX*%
%TO.N,/CAN-RX*%
X147750000Y-113150000D03*
%TO.P,J1,43,CAN-TX*%
%TO.N,/CAN-TX*%
X147250000Y-113150000D03*
%TO.P,J1,45,GND*%
%TO.N,GND*%
X146750000Y-113150000D03*
%TO.P,J1,47,PWM1*%
%TO.N,/PWM1*%
X146250000Y-113150000D03*
%TO.P,J1,49,BATT_VIN/3*%
%TO.N,/BATT_VIN*%
X145750000Y-113150000D03*
%TO.P,J1,51,I2C_SDA1*%
%TO.N,/I2C_SDA1*%
X145250000Y-113150000D03*
%TO.P,J1,53,I2C_SCL1*%
%TO.N,/I2C_SCL1*%
X144750000Y-113150000D03*
%TO.P,J1,55,SPI_~{CS}*%
%TO.N,/~{SPI_CS}*%
X144250000Y-113150000D03*
%TO.P,J1,57,SPI_SCK*%
%TO.N,/SPI_SCK*%
X143750000Y-113150000D03*
%TO.P,J1,59,SPI_SDO*%
%TO.N,/SPI_COPI-LED_DAT*%
X143250000Y-113150000D03*
%TO.P,J1,61,SPI_SDI*%
%TO.N,/SPI_CIPO-LED_CLK*%
X142750000Y-113150000D03*
%TO.P,J1,63,G10/ADC_D+/CAM_VSYNC*%
%TO.N,/G10-CAM_VSYNC*%
X142250000Y-113150000D03*
%TO.P,J1,65,G9/ADC_D-/CAM_HSYNC*%
%TO.N,/G9-CAM_HSYNC*%
X141750000Y-113150000D03*
%TO.P,J1,67,G8*%
%TO.N,/G8*%
X141250000Y-113150000D03*
%TO.P,J1,69,G7/BUS7*%
%TO.N,/G7*%
X140750000Y-113150000D03*
%TO.P,J1,71,G6/BUS6*%
%TO.N,/G6*%
X140250000Y-113150000D03*
%TO.P,J1,73,G5/BUS5*%
%TO.N,/G5*%
X139750000Y-113150000D03*
%TO.P,J1,75,GND*%
%TO.N,GND*%
X139250000Y-113150000D03*
D13*
%TO.P,J1,GND1,GND*%
X150400000Y-93425000D03*
%TO.P,J1,GND2,GND*%
X152500000Y-94725000D03*
%TO.P,J1,GND3,GND*%
X154600000Y-93425000D03*
%TD*%
D14*
%TO.P,SCL1,1,1*%
%TO.N,BMP390L_SCL*%
X142500000Y-94600000D03*
%TD*%
D15*
%TO.P,C1,1*%
%TO.N,+3V3*%
X141939929Y-104280127D03*
%TO.P,C1,2*%
%TO.N,GND*%
X141939929Y-103320127D03*
%TD*%
D16*
%TO.P,R1,1*%
%TO.N,+3V3*%
X156200000Y-95075000D03*
%TO.P,R1,2*%
%TO.N,Net-(D1-A)*%
X156200000Y-96725000D03*
%TD*%
D17*
%TO.P,C2,1*%
%TO.N,+3V3*%
X143120000Y-105500000D03*
%TO.P,C2,2*%
%TO.N,GND*%
X144080000Y-105500000D03*
%TD*%
D18*
%TO.P,U2,1,VIN*%
%TO.N,VIN*%
X154149987Y-104749962D03*
%TO.P,U2,2,GND*%
%TO.N,GND*%
X154149987Y-103800000D03*
%TO.P,U2,3,EN*%
%TO.N,VIN*%
X154149987Y-102850038D03*
%TO.P,U2,4,NC*%
%TO.N,unconnected-(U2-NC-Pad4)*%
X151850013Y-102850038D03*
%TO.P,U2,5,VOUT*%
%TO.N,+3V3*%
X151850013Y-104749962D03*
%TD*%
D19*
%TO.P,R2,1*%
%TO.N,Net-(U1-CSB)*%
X144149929Y-102100127D03*
%TO.P,R2,2*%
%TO.N,+3V3*%
X143129929Y-102100127D03*
%TD*%
D20*
%TO.P,C3,1*%
%TO.N,VIN*%
X156400000Y-105275000D03*
%TO.P,C3,2*%
%TO.N,GND*%
X156400000Y-102325000D03*
%TD*%
D21*
%TO.P,U1,1,VDDIO*%
%TO.N,+3V3*%
X143370028Y-104580036D03*
%TO.P,U1,2,SCK*%
%TO.N,BMP390L_SCL*%
X143869901Y-104580036D03*
%TO.P,U1,3,VSS*%
%TO.N,GND*%
X144400000Y-104300127D03*
%TO.P,U1,4,SDI*%
%TO.N,BMP390L_SDA*%
X144400000Y-103800000D03*
%TO.P,U1,5,SDO*%
%TO.N,GND*%
X144400000Y-103300127D03*
%TO.P,U1,6,CSB*%
%TO.N,Net-(U1-CSB)*%
X143869901Y-103019965D03*
%TO.P,U1,7,INT*%
%TO.N,BMP390_INT*%
X143370028Y-103019965D03*
%TO.P,U1,8,VSS*%
%TO.N,GND*%
X142839929Y-103300127D03*
%TO.P,U1,9,VSS*%
X142839929Y-103800000D03*
%TO.P,U1,10,VDD*%
%TO.N,+3V3*%
X142839929Y-104300127D03*
%TD*%
D14*
%TO.P,SDA1,1,1*%
%TO.N,BMP390L_SDA*%
X140000000Y-94600000D03*
%TD*%
D20*
%TO.P,C4,1*%
%TO.N,+3V3*%
X149600000Y-105275000D03*
%TO.P,C4,2*%
%TO.N,GND*%
X149600000Y-102325000D03*
%TD*%
D22*
%TO.P,D1,1,K*%
%TO.N,GND*%
X157780000Y-95112500D03*
%TO.P,D1,2,A*%
%TO.N,Net-(D1-A)*%
X157780000Y-96687500D03*
%TD*%
D23*
%TO.N,+3V3*%
X154600000Y-95400000D03*
X143100000Y-101000000D03*
X141900000Y-105500000D03*
D24*
%TO.N,GND*%
X151300000Y-96000000D03*
X149300000Y-96000000D03*
X154100000Y-100500000D03*
X154100000Y-98500000D03*
X149300000Y-97000000D03*
X149300000Y-98000000D03*
X153100000Y-100500000D03*
X154100000Y-99500000D03*
X152100000Y-100500000D03*
X150300000Y-97000000D03*
X150300000Y-96000000D03*
X153100000Y-99500000D03*
D23*
%TO.N,BMP390L_SDA*%
X145400000Y-103800000D03*
%TO.N,BMP390L_SCL*%
X145400000Y-105200000D03*
%TD*%
D25*
%TO.N,+3V3*%
X141900000Y-105500000D02*
X142943203Y-105500000D01*
X141900000Y-105500000D02*
X141900000Y-105700000D01*
X154737500Y-95262500D02*
X154600000Y-95400000D01*
X141920056Y-105465762D02*
X141920056Y-104314052D01*
X143436396Y-106800000D02*
X148234314Y-106800000D01*
D26*
X141974071Y-104300127D02*
X142825786Y-104300127D01*
D25*
X149199999Y-106399999D02*
X149343673Y-106256326D01*
X155069454Y-95125000D02*
X156200000Y-95125000D01*
D26*
X141949865Y-104290063D02*
X141949929Y-104290127D01*
D27*
X149962500Y-105275000D02*
X150966268Y-105275000D01*
D25*
X143100000Y-101000000D02*
X143114964Y-101014964D01*
X143129929Y-101051091D02*
X143129929Y-102100127D01*
D26*
X143370028Y-105073175D02*
X143370028Y-104580036D01*
D27*
X151600000Y-105012500D02*
X151862500Y-104750000D01*
D25*
X142350000Y-106350000D02*
X142041421Y-106041421D01*
X141900000Y-105500000D02*
X141910028Y-105489972D01*
D26*
X142829929Y-104290127D02*
X142819929Y-104280127D01*
D27*
X151600000Y-105012500D02*
G75*
G02*
X150966268Y-105274987I-633700J633700D01*
G01*
D26*
X141974071Y-104300127D02*
G75*
G02*
X141949947Y-104290109I29J34127D01*
G01*
D25*
X149199999Y-106399999D02*
G75*
G02*
X148234314Y-106800005I-965699J965699D01*
G01*
X155069454Y-95125000D02*
G75*
G03*
X154737534Y-95262534I46J-469400D01*
G01*
D26*
X141949865Y-104290063D02*
G75*
G03*
X141929993Y-104290063I-9936J-9936D01*
G01*
D25*
X149343673Y-106256326D02*
G75*
G03*
X149599985Y-105637500I-618873J618826D01*
G01*
X142350000Y-106350000D02*
G75*
G03*
X143436396Y-106800002I1086400J1086400D01*
G01*
D27*
X149962500Y-105275000D02*
G75*
G03*
X149600000Y-105637500I0J-362500D01*
G01*
D25*
X143129929Y-101051091D02*
G75*
G03*
X143114968Y-101014960I-51129J-9D01*
G01*
D26*
X142829929Y-104290127D02*
G75*
G02*
X142825786Y-104300170I-4129J-4173D01*
G01*
D25*
X141900000Y-105700000D02*
G75*
G03*
X142041430Y-106041412I482800J0D01*
G01*
X141920056Y-104314052D02*
G75*
G02*
X141930012Y-104290083I33944J-48D01*
G01*
X141920056Y-105465762D02*
G75*
G02*
X141910051Y-105489995I-34256J-38D01*
G01*
D26*
X142943203Y-105500000D02*
G75*
G03*
X143245007Y-105374979I-3J426800D01*
G01*
X143245014Y-105374986D02*
G75*
G03*
X143370010Y-105073175I-301814J301786D01*
G01*
D27*
%TO.N,GND*%
X154531250Y-103800000D02*
X154137500Y-103800000D01*
D26*
X142805786Y-103320127D02*
X141939929Y-103320127D01*
X142839929Y-103314269D02*
X142839929Y-103800000D01*
D27*
X155203423Y-103521576D02*
X156400000Y-102325000D01*
D26*
X142829929Y-103310127D02*
G75*
G02*
X142840000Y-103314269I4171J-4173D01*
G01*
X142805786Y-103320127D02*
G75*
G03*
X142829932Y-103310130I14J34127D01*
G01*
D27*
X155203423Y-103521576D02*
G75*
G02*
X154531250Y-103800034I-672223J672176D01*
G01*
%TO.N,VIN*%
X156137500Y-105012500D02*
X156400000Y-105275000D01*
D26*
X153678125Y-104750000D02*
X153550000Y-104750000D01*
D27*
X155503768Y-104750000D02*
X154799998Y-104750000D01*
X154137499Y-104750000D02*
X153934375Y-104750000D01*
X154799998Y-104750000D02*
X154137499Y-104750000D01*
X153934375Y-104750000D02*
X153678125Y-104750000D01*
X155503768Y-104750000D02*
G75*
G02*
X156137509Y-105012491I32J-896200D01*
G01*
D25*
%TO.N,Net-(D1-A)*%
X157773750Y-96681250D02*
X157780000Y-96687500D01*
X157758661Y-96675000D02*
X156200000Y-96675000D01*
X157773750Y-96681250D02*
G75*
G03*
X157758661Y-96675016I-15050J-15050D01*
G01*
D26*
%TO.N,BMP390L_SDA*%
X140247487Y-95547487D02*
X140550000Y-95850000D01*
X145800000Y-103117157D02*
X145800000Y-96886195D01*
X145313804Y-96400000D02*
X141877817Y-96400000D01*
X145600000Y-103600000D02*
X145400000Y-103800000D01*
X145400000Y-103800000D02*
X144400000Y-103800000D01*
X140000000Y-94950000D02*
X140000000Y-94600000D01*
X145657596Y-96542403D02*
G75*
G02*
X145800002Y-96886195I-343796J-343797D01*
G01*
X145657596Y-96542403D02*
G75*
G03*
X145313804Y-96399998I-343796J-343797D01*
G01*
X140550000Y-95850000D02*
G75*
G03*
X141877817Y-96399993I1327800J1327800D01*
G01*
X145800000Y-103117157D02*
G75*
G02*
X145600033Y-103600033I-682900J-43D01*
G01*
X140000000Y-94950000D02*
G75*
G03*
X140247482Y-95547492I845000J0D01*
G01*
%TO.N,BMP390L_SCL*%
X145400000Y-105200000D02*
X145188063Y-104988063D01*
X142700000Y-94800000D02*
X142500000Y-94600000D01*
X143967946Y-104678081D02*
X143869901Y-104580036D01*
X143182842Y-95000000D02*
X145392893Y-95000000D01*
X145400000Y-105200000D02*
X145700000Y-105200000D01*
X147100000Y-96707106D02*
X147100000Y-103322182D01*
X146549999Y-104649999D02*
X146212132Y-104987867D01*
X144204649Y-104776127D02*
X144676403Y-104776127D01*
X144204649Y-104776127D02*
G75*
G02*
X143967976Y-104678051I51J334727D01*
G01*
X145700000Y-105200000D02*
G75*
G03*
X146212140Y-104987875I0J724300D01*
G01*
X143182842Y-95000000D02*
G75*
G02*
X142699987Y-94800013I-42J682800D01*
G01*
X146600000Y-95500000D02*
G75*
G02*
X147099997Y-96707106I-1207100J-1207100D01*
G01*
X146549999Y-104649999D02*
G75*
G03*
X147099991Y-103322182I-1327799J1327799D01*
G01*
X144676403Y-104776127D02*
G75*
G02*
X145188056Y-104988070I-3J-723573D01*
G01*
X146600000Y-95500000D02*
G75*
G03*
X145392893Y-95000003I-1207100J-1207100D01*
G01*
%TO.N,Net-(U1-CSB)*%
X144009915Y-102879951D02*
X143869901Y-103019965D01*
X144149929Y-102541927D02*
X144149929Y-102100127D01*
X144149929Y-102541927D02*
G75*
G02*
X144009900Y-102879936I-478029J27D01*
G01*
%TD*%
%TA.AperFunction,Conductor*%
%TO.N,VIN*%
G36*
X155242539Y-102419685D02*
G01*
X155288294Y-102472489D01*
X155299500Y-102524000D01*
X155299500Y-102560257D01*
X155279815Y-102627296D01*
X155263181Y-102647938D01*
X154850232Y-103060886D01*
X154850231Y-103060887D01*
X154845886Y-103065231D01*
X154845878Y-103065237D01*
X154820146Y-103090970D01*
X154817418Y-103093699D01*
X154802216Y-103108902D01*
X154790022Y-103119596D01*
X154731729Y-103164329D01*
X154703697Y-103180515D01*
X154643390Y-103205498D01*
X154612124Y-103213877D01*
X154539534Y-103223438D01*
X154523342Y-103224500D01*
X154061734Y-103224500D01*
X153915365Y-103263719D01*
X153915364Y-103263719D01*
X153915362Y-103263720D01*
X153915359Y-103263721D01*
X153882166Y-103282886D01*
X153820165Y-103299500D01*
X153530234Y-103299500D01*
X153471757Y-103311131D01*
X153471756Y-103311132D01*
X153405434Y-103355447D01*
X153361119Y-103421769D01*
X153361118Y-103421770D01*
X153349487Y-103480247D01*
X153349487Y-104119752D01*
X153361118Y-104178229D01*
X153361119Y-104178230D01*
X153405434Y-104244552D01*
X153471756Y-104288867D01*
X153471757Y-104288868D01*
X153530234Y-104300499D01*
X153530237Y-104300500D01*
X153530239Y-104300500D01*
X153820165Y-104300500D01*
X153882166Y-104317114D01*
X153915359Y-104336278D01*
X153915360Y-104336278D01*
X153915365Y-104336281D01*
X154061734Y-104375500D01*
X154453779Y-104375500D01*
X154461388Y-104375500D01*
X154461402Y-104375504D01*
X154479900Y-104375502D01*
X154480012Y-104375535D01*
X154531280Y-104375532D01*
X154531280Y-104375533D01*
X154631306Y-104375528D01*
X154829645Y-104349406D01*
X154843773Y-104345619D01*
X155022873Y-104297622D01*
X155022878Y-104297620D01*
X155207698Y-104221056D01*
X155380944Y-104121023D01*
X155539651Y-103999233D01*
X155600112Y-103938767D01*
X156402061Y-103136819D01*
X156463384Y-103103334D01*
X156489742Y-103100500D01*
X157104270Y-103100500D01*
X157128612Y-103098216D01*
X157134699Y-103097646D01*
X157235047Y-103062532D01*
X157304823Y-103058970D01*
X157365451Y-103093699D01*
X157397678Y-103155692D01*
X157400000Y-103179574D01*
X157400000Y-109318509D01*
X157381368Y-109383879D01*
X155655446Y-112165871D01*
X155603380Y-112212460D01*
X155561125Y-112222004D01*
X155561312Y-112223903D01*
X155555247Y-112224500D01*
X155496770Y-112236131D01*
X155496769Y-112236132D01*
X155430447Y-112280447D01*
X155386132Y-112346769D01*
X155386131Y-112346770D01*
X155374500Y-112405247D01*
X155374500Y-112583384D01*
X155369757Y-112600025D01*
X155370019Y-112616417D01*
X155355872Y-112648751D01*
X155354872Y-112650363D01*
X155302804Y-112696954D01*
X155233813Y-112708000D01*
X155169802Y-112679992D01*
X155131095Y-112621824D01*
X155125500Y-112584996D01*
X155125500Y-112405249D01*
X155125499Y-112405247D01*
X155113868Y-112346770D01*
X155113867Y-112346769D01*
X155069552Y-112280447D01*
X155003230Y-112236132D01*
X155003229Y-112236131D01*
X154944752Y-112224500D01*
X154944748Y-112224500D01*
X154555252Y-112224500D01*
X154555251Y-112224500D01*
X154524188Y-112230678D01*
X154475812Y-112230678D01*
X154444749Y-112224500D01*
X154444748Y-112224500D01*
X154055252Y-112224500D01*
X154055251Y-112224500D01*
X154024188Y-112230678D01*
X153975812Y-112230678D01*
X153944749Y-112224500D01*
X153944748Y-112224500D01*
X153555252Y-112224500D01*
X153555251Y-112224500D01*
X153524188Y-112230678D01*
X153475812Y-112230678D01*
X153444749Y-112224500D01*
X153444748Y-112224500D01*
X153055252Y-112224500D01*
X153055251Y-112224500D01*
X153024188Y-112230678D01*
X153022293Y-112230757D01*
X153021399Y-112231200D01*
X153013845Y-112231113D01*
X152986121Y-112232281D01*
X152980924Y-112231695D01*
X152944748Y-112224500D01*
X152917037Y-112224500D01*
X152910121Y-112223721D01*
X152884066Y-112212773D01*
X152856961Y-112204815D01*
X152852288Y-112199422D01*
X152845706Y-112196657D01*
X152829705Y-112173359D01*
X152811206Y-112152011D01*
X152809427Y-112143836D01*
X152806149Y-112139063D01*
X152805781Y-112127076D01*
X152800000Y-112100500D01*
X152800000Y-102524000D01*
X152819685Y-102456961D01*
X152872489Y-102411206D01*
X152924000Y-102400000D01*
X155175500Y-102400000D01*
X155242539Y-102419685D01*
G37*
%TD.AperFunction*%
%TD*%
%TA.AperFunction,Conductor*%
%TO.N,GND*%
G36*
X149522038Y-92435802D02*
G01*
X149567793Y-92488606D01*
X149577737Y-92557764D01*
X149567089Y-92593144D01*
X149549340Y-92630660D01*
X149549973Y-92722114D01*
X149620436Y-93021271D01*
X149616646Y-93091038D01*
X149575738Y-93147680D01*
X149510701Y-93173214D01*
X149499739Y-93173700D01*
X149450011Y-93173700D01*
X149357649Y-93211958D01*
X149286958Y-93282649D01*
X149248700Y-93375011D01*
X149248700Y-93474988D01*
X149263110Y-93509776D01*
X149286958Y-93567350D01*
X149357650Y-93638042D01*
X149450013Y-93676300D01*
X149634338Y-93676300D01*
X149696536Y-93693028D01*
X149847842Y-93780758D01*
X149858294Y-93791761D01*
X149871747Y-93798798D01*
X149894538Y-93828716D01*
X149900708Y-93840045D01*
X149900715Y-93840056D01*
X150099040Y-94152505D01*
X150112525Y-94170905D01*
X150115274Y-94174655D01*
X150115277Y-94174660D01*
X150119593Y-94179790D01*
X150147683Y-94243764D01*
X150148700Y-94259610D01*
X150148700Y-94574988D01*
X150167711Y-94620883D01*
X150186958Y-94667350D01*
X150257650Y-94738042D01*
X150350013Y-94776300D01*
X150350015Y-94776300D01*
X150449985Y-94776300D01*
X150449987Y-94776300D01*
X150542350Y-94738042D01*
X150542352Y-94738039D01*
X150553336Y-94733490D01*
X150622806Y-94726021D01*
X150671225Y-94745997D01*
X150972426Y-94953884D01*
X150983041Y-94960207D01*
X150995991Y-94967922D01*
X150996000Y-94967927D01*
X150996014Y-94967935D01*
X151151060Y-95046773D01*
X151314182Y-95129718D01*
X151325894Y-95135673D01*
X151325904Y-95135677D01*
X151325916Y-95135683D01*
X151351143Y-95146455D01*
X151573136Y-95224160D01*
X151700441Y-95268721D01*
X151726902Y-95276040D01*
X152089379Y-95350653D01*
X152099126Y-95351988D01*
X152105419Y-95352851D01*
X152136037Y-95361141D01*
X152172901Y-95376410D01*
X152227305Y-95420251D01*
X152247067Y-95466780D01*
X152248699Y-95474984D01*
X152248700Y-95474986D01*
X152248700Y-95474987D01*
X152286958Y-95567350D01*
X152357650Y-95638042D01*
X152450013Y-95676300D01*
X152450015Y-95676300D01*
X152549985Y-95676300D01*
X152549987Y-95676300D01*
X152642350Y-95638042D01*
X152713042Y-95567350D01*
X152751300Y-95474987D01*
X152751300Y-95474979D01*
X152752930Y-95466786D01*
X152756610Y-95459748D01*
X152756894Y-95451812D01*
X152772571Y-95429231D01*
X152785312Y-95404873D01*
X152793228Y-95399480D01*
X152796742Y-95394420D01*
X152827096Y-95376410D01*
X152873750Y-95357085D01*
X152903596Y-95348903D01*
X152910848Y-95347863D01*
X153184070Y-95290011D01*
X153272179Y-95271355D01*
X153272189Y-95271353D01*
X153298322Y-95263985D01*
X153298327Y-95263983D01*
X153298339Y-95263980D01*
X153646434Y-95140474D01*
X153671379Y-95129718D01*
X154000141Y-94961376D01*
X154023449Y-94947424D01*
X154166856Y-94848146D01*
X154233176Y-94826174D01*
X154300851Y-94843546D01*
X154348392Y-94894748D01*
X154360703Y-94963525D01*
X154333877Y-95028039D01*
X154325114Y-95037781D01*
X154239514Y-95123382D01*
X154239509Y-95123389D01*
X154180201Y-95226112D01*
X154180200Y-95226117D01*
X154155760Y-95317328D01*
X154149500Y-95340691D01*
X154149500Y-95459309D01*
X154165881Y-95520443D01*
X154180201Y-95573887D01*
X154239511Y-95676614D01*
X154323386Y-95760489D01*
X154426113Y-95819799D01*
X154450321Y-95826284D01*
X154450324Y-95826286D01*
X154450325Y-95826286D01*
X154480447Y-95834357D01*
X154540691Y-95850500D01*
X154540693Y-95850500D01*
X154659308Y-95850500D01*
X154659309Y-95850500D01*
X154749673Y-95826286D01*
X154773887Y-95819799D01*
X154876614Y-95760489D01*
X155009549Y-95627552D01*
X155014143Y-95622961D01*
X155014168Y-95622948D01*
X155025322Y-95611790D01*
X155056471Y-95594794D01*
X155086599Y-95578338D01*
X155086639Y-95578333D01*
X155086655Y-95578325D01*
X155086693Y-95578327D01*
X155112975Y-95575500D01*
X155608448Y-95575500D01*
X155675487Y-95595185D01*
X155681329Y-95599179D01*
X155686653Y-95603046D01*
X155686655Y-95603047D01*
X155686658Y-95603050D01*
X155775933Y-95648538D01*
X155799698Y-95660647D01*
X155893475Y-95675499D01*
X155893481Y-95675500D01*
X156506518Y-95675499D01*
X156600304Y-95660646D01*
X156713146Y-95603149D01*
X156781813Y-95590254D01*
X156846554Y-95616530D01*
X156874978Y-95648538D01*
X156956114Y-95780080D01*
X157074919Y-95898885D01*
X157204793Y-95978992D01*
X157220344Y-95996281D01*
X157238958Y-96010214D01*
X157243269Y-96021769D01*
X157251517Y-96030940D01*
X157255251Y-96053889D01*
X157263380Y-96075677D01*
X157260758Y-96087729D01*
X157262740Y-96099903D01*
X157253473Y-96121230D01*
X157248532Y-96143951D01*
X157236776Y-96159656D01*
X157234896Y-96163985D01*
X157227383Y-96172207D01*
X157221203Y-96178388D01*
X157211413Y-96188177D01*
X157150095Y-96221665D01*
X157123729Y-96224500D01*
X156791552Y-96224500D01*
X156724513Y-96204815D01*
X156718671Y-96200821D01*
X156713346Y-96196953D01*
X156713343Y-96196951D01*
X156713342Y-96196950D01*
X156637481Y-96158297D01*
X156600301Y-96139352D01*
X156506524Y-96124500D01*
X155893482Y-96124500D01*
X155812519Y-96137323D01*
X155799696Y-96139354D01*
X155686658Y-96196950D01*
X155686657Y-96196951D01*
X155686652Y-96196954D01*
X155596954Y-96286652D01*
X155596951Y-96286657D01*
X155539352Y-96399698D01*
X155524500Y-96493475D01*
X155524500Y-96956517D01*
X155535292Y-97024657D01*
X155539354Y-97050304D01*
X155596950Y-97163342D01*
X155596952Y-97163344D01*
X155596954Y-97163347D01*
X155686652Y-97253045D01*
X155686654Y-97253046D01*
X155686658Y-97253050D01*
X155798332Y-97309951D01*
X155799698Y-97310647D01*
X155893475Y-97325499D01*
X155893481Y-97325500D01*
X156506518Y-97325499D01*
X156600304Y-97310646D01*
X156713342Y-97253050D01*
X156716739Y-97249653D01*
X156804574Y-97161819D01*
X156831501Y-97147115D01*
X156857320Y-97130523D01*
X156863520Y-97129631D01*
X156865897Y-97128334D01*
X156892255Y-97125500D01*
X157098728Y-97125500D01*
X157165767Y-97145185D01*
X157186409Y-97161819D01*
X157274243Y-97249653D01*
X157274245Y-97249654D01*
X157274249Y-97249658D01*
X157392580Y-97309951D01*
X157392581Y-97309951D01*
X157392583Y-97309952D01*
X157392582Y-97309952D01*
X157490749Y-97325500D01*
X157490754Y-97325500D01*
X158069251Y-97325500D01*
X158167417Y-97309952D01*
X158167418Y-97309951D01*
X158167420Y-97309951D01*
X158285751Y-97249658D01*
X158379658Y-97155751D01*
X158439951Y-97037420D01*
X158439951Y-97037418D01*
X158439952Y-97037417D01*
X158455500Y-96939251D01*
X158455500Y-96435748D01*
X158439952Y-96337582D01*
X158439951Y-96337580D01*
X158379658Y-96219249D01*
X158379654Y-96219245D01*
X158379653Y-96219243D01*
X158332622Y-96172212D01*
X158299137Y-96110889D01*
X158304121Y-96041197D01*
X158345993Y-95985264D01*
X158355207Y-95978992D01*
X158485078Y-95898887D01*
X158603885Y-95780080D01*
X158692091Y-95637077D01*
X158692093Y-95637072D01*
X158744942Y-95477583D01*
X158754999Y-95379150D01*
X158755000Y-95379137D01*
X158755000Y-95362500D01*
X157904000Y-95362500D01*
X157836961Y-95342815D01*
X157791206Y-95290011D01*
X157780000Y-95238500D01*
X157780000Y-95112500D01*
X157654000Y-95112500D01*
X157586961Y-95092815D01*
X157541206Y-95040011D01*
X157530000Y-94988500D01*
X157530000Y-94862500D01*
X158030000Y-94862500D01*
X158754999Y-94862500D01*
X158754999Y-94845864D01*
X158754998Y-94845847D01*
X158744943Y-94747416D01*
X158692093Y-94587927D01*
X158692091Y-94587922D01*
X158603885Y-94444919D01*
X158485080Y-94326114D01*
X158342077Y-94237908D01*
X158342072Y-94237906D01*
X158182583Y-94185057D01*
X158084150Y-94175000D01*
X158030000Y-94175000D01*
X158030000Y-94862500D01*
X157530000Y-94862500D01*
X157530000Y-94175000D01*
X157529999Y-94174999D01*
X157475864Y-94175000D01*
X157475847Y-94175001D01*
X157377415Y-94185057D01*
X157217927Y-94237906D01*
X157217922Y-94237908D01*
X157074919Y-94326114D01*
X156956113Y-94444920D01*
X156956110Y-94444924D01*
X156906901Y-94524705D01*
X156854953Y-94571430D01*
X156785991Y-94582651D01*
X156721909Y-94554808D01*
X156713682Y-94547289D01*
X156713347Y-94546954D01*
X156713344Y-94546952D01*
X156713342Y-94546950D01*
X156636517Y-94507805D01*
X156600301Y-94489352D01*
X156506524Y-94474500D01*
X155893482Y-94474500D01*
X155812519Y-94487323D01*
X155799696Y-94489354D01*
X155686658Y-94546950D01*
X155686657Y-94546951D01*
X155686652Y-94546954D01*
X155595426Y-94638181D01*
X155534103Y-94671666D01*
X155507745Y-94674500D01*
X155136706Y-94674500D01*
X155128728Y-94674497D01*
X155128719Y-94674495D01*
X155122455Y-94674495D01*
X155120773Y-94674495D01*
X155120609Y-94674447D01*
X154997008Y-94674458D01*
X154995658Y-94674672D01*
X154994708Y-94674822D01*
X154993826Y-94674708D01*
X154992152Y-94674841D01*
X154992124Y-94674489D01*
X154925415Y-94665874D01*
X154871959Y-94620883D01*
X154851313Y-94554133D01*
X154851300Y-94552351D01*
X154851300Y-94247676D01*
X154870985Y-94180637D01*
X154877923Y-94170905D01*
X154878662Y-94169965D01*
X154878691Y-94169932D01*
X154894795Y-94148054D01*
X155093614Y-93836776D01*
X155098873Y-93827200D01*
X155147992Y-93778140D01*
X155306094Y-93691545D01*
X155334062Y-93685423D01*
X155361235Y-93676379D01*
X155365661Y-93676300D01*
X155549985Y-93676300D01*
X155549987Y-93676300D01*
X155642350Y-93638042D01*
X155713042Y-93567350D01*
X155751300Y-93474987D01*
X155751300Y-93375013D01*
X155713042Y-93282650D01*
X155642350Y-93211958D01*
X155621122Y-93203165D01*
X155549988Y-93173700D01*
X155549987Y-93173700D01*
X155519495Y-93173700D01*
X155452456Y-93154015D01*
X155406701Y-93101211D01*
X155396757Y-93032053D01*
X155397315Y-93028533D01*
X155415470Y-92923735D01*
X155452484Y-92710078D01*
X155450348Y-92629272D01*
X155433321Y-92593916D01*
X155421970Y-92524979D01*
X155449691Y-92460844D01*
X155507686Y-92421878D01*
X155545042Y-92416117D01*
X158493234Y-92416117D01*
X158506716Y-92416852D01*
X158537216Y-92420187D01*
X158653104Y-92432863D01*
X158673654Y-92436890D01*
X158811775Y-92476317D01*
X158831349Y-92483743D01*
X158955646Y-92543353D01*
X158960865Y-92545856D01*
X158978917Y-92556475D01*
X159031782Y-92593920D01*
X159096114Y-92639488D01*
X159096133Y-92639501D01*
X159112142Y-92653009D01*
X159213701Y-92754570D01*
X159227208Y-92770578D01*
X159310233Y-92887796D01*
X159320852Y-92905850D01*
X159382957Y-93035356D01*
X159390387Y-93054939D01*
X159429813Y-93193063D01*
X159433840Y-93213617D01*
X159449865Y-93360146D01*
X159450600Y-93373627D01*
X159450600Y-109755872D01*
X159449451Y-109772714D01*
X159435814Y-109872185D01*
X159429333Y-109898169D01*
X159396341Y-109987818D01*
X159384432Y-110011804D01*
X159379611Y-110019341D01*
X159332964Y-110092274D01*
X159316183Y-110113144D01*
X159248633Y-110180692D01*
X159227763Y-110197471D01*
X159147286Y-110248941D01*
X159123298Y-110260850D01*
X159033656Y-110293836D01*
X159007671Y-110300317D01*
X158906155Y-110314230D01*
X158892791Y-110315329D01*
X158872130Y-110315907D01*
X158864324Y-110317542D01*
X158838078Y-110319407D01*
X158838072Y-110319408D01*
X158723484Y-110352555D01*
X158618415Y-110409056D01*
X158618407Y-110409062D01*
X158527573Y-110486380D01*
X158455019Y-110581074D01*
X158455018Y-110581076D01*
X158403992Y-110688904D01*
X158388678Y-110754259D01*
X158376775Y-110805053D01*
X158376007Y-110844291D01*
X158375600Y-110844699D01*
X158375600Y-110865177D01*
X158375590Y-110865687D01*
X158375579Y-110866282D01*
X158375579Y-110866318D01*
X158375020Y-110896650D01*
X158375600Y-110900539D01*
X158375600Y-111890015D01*
X158355915Y-111957054D01*
X158303111Y-112002809D01*
X158233953Y-112012753D01*
X158177292Y-111989284D01*
X158167091Y-111981648D01*
X158167086Y-111981645D01*
X158032379Y-111931403D01*
X158032372Y-111931401D01*
X157972844Y-111925000D01*
X157925000Y-111925000D01*
X157925000Y-113026000D01*
X157922449Y-113034685D01*
X157923738Y-113043647D01*
X157912759Y-113067687D01*
X157905315Y-113093039D01*
X157898474Y-113098966D01*
X157894713Y-113107203D01*
X157872478Y-113121492D01*
X157852511Y-113138794D01*
X157841996Y-113141081D01*
X157835935Y-113144977D01*
X157801000Y-113150000D01*
X157749500Y-113150000D01*
X157682461Y-113130315D01*
X157636706Y-113077511D01*
X157625500Y-113026000D01*
X157625500Y-112405249D01*
X157625499Y-112405247D01*
X157613868Y-112346773D01*
X157613867Y-112346772D01*
X157613867Y-112346769D01*
X157595897Y-112319876D01*
X157575020Y-112253199D01*
X157575000Y-112250986D01*
X157575000Y-111925000D01*
X157527155Y-111925000D01*
X157467627Y-111931401D01*
X157467620Y-111931403D01*
X157332913Y-111981645D01*
X157332906Y-111981649D01*
X157217812Y-112067809D01*
X157136856Y-112175951D01*
X157114780Y-112192475D01*
X157094907Y-112211597D01*
X157085483Y-112214406D01*
X157080922Y-112217821D01*
X157061606Y-112223291D01*
X157055482Y-112224500D01*
X157055252Y-112224500D01*
X157024724Y-112230572D01*
X157024016Y-112230712D01*
X157023642Y-112230678D01*
X156975812Y-112230678D01*
X156938776Y-112223312D01*
X156939308Y-112220636D01*
X156885409Y-112198835D01*
X156863143Y-112175950D01*
X156782190Y-112067812D01*
X156782187Y-112067809D01*
X156667093Y-111981649D01*
X156667086Y-111981645D01*
X156532379Y-111931403D01*
X156532372Y-111931401D01*
X156472844Y-111925000D01*
X156425000Y-111925000D01*
X156425000Y-112250986D01*
X156422449Y-112259671D01*
X156423738Y-112268633D01*
X156406965Y-112312404D01*
X156405315Y-112318025D01*
X156404561Y-112318677D01*
X156404102Y-112319877D01*
X156386133Y-112346769D01*
X156386131Y-112346773D01*
X156374500Y-112405247D01*
X156374500Y-113026000D01*
X156371949Y-113034685D01*
X156373238Y-113043647D01*
X156362259Y-113067687D01*
X156354815Y-113093039D01*
X156347974Y-113098966D01*
X156344213Y-113107203D01*
X156321978Y-113121492D01*
X156302011Y-113138794D01*
X156291496Y-113141081D01*
X156285435Y-113144977D01*
X156250500Y-113150000D01*
X156249500Y-113150000D01*
X156182461Y-113130315D01*
X156136706Y-113077511D01*
X156125500Y-113026000D01*
X156125500Y-112405249D01*
X156125499Y-112405247D01*
X156113868Y-112346773D01*
X156113867Y-112346772D01*
X156113867Y-112346769D01*
X156095897Y-112319876D01*
X156092860Y-112310176D01*
X156086206Y-112302497D01*
X156082597Y-112277397D01*
X156075020Y-112253199D01*
X156075000Y-112250986D01*
X156075000Y-111914745D01*
X156093631Y-111849375D01*
X156465843Y-111249411D01*
X157555992Y-109492214D01*
X157578997Y-109440208D01*
X157597629Y-109374838D01*
X157605500Y-109318509D01*
X157605500Y-103206522D01*
X157625185Y-103139483D01*
X157641827Y-103118833D01*
X157642317Y-103118342D01*
X157734356Y-102969124D01*
X157734358Y-102969119D01*
X157789505Y-102802697D01*
X157789506Y-102802690D01*
X157799999Y-102699986D01*
X157800000Y-102699973D01*
X157800000Y-102575000D01*
X156524000Y-102575000D01*
X156456961Y-102555315D01*
X156411206Y-102502511D01*
X156400000Y-102451000D01*
X156400000Y-102325000D01*
X156274000Y-102325000D01*
X156206961Y-102305315D01*
X156161206Y-102252511D01*
X156150000Y-102201000D01*
X156150000Y-102075000D01*
X156650000Y-102075000D01*
X157799999Y-102075000D01*
X157799999Y-101950028D01*
X157799998Y-101950013D01*
X157789505Y-101847302D01*
X157734358Y-101680880D01*
X157734356Y-101680875D01*
X157642315Y-101531654D01*
X157518345Y-101407684D01*
X157369124Y-101315643D01*
X157369119Y-101315641D01*
X157202697Y-101260494D01*
X157202690Y-101260493D01*
X157099986Y-101250000D01*
X156650000Y-101250000D01*
X156650000Y-102075000D01*
X156150000Y-102075000D01*
X156150000Y-101250000D01*
X155700028Y-101250000D01*
X155700012Y-101250001D01*
X155597302Y-101260494D01*
X155430880Y-101315641D01*
X155430875Y-101315643D01*
X155281654Y-101407684D01*
X155157684Y-101531654D01*
X155065643Y-101680875D01*
X155065641Y-101680880D01*
X155010494Y-101847302D01*
X155010493Y-101847309D01*
X155000000Y-101950013D01*
X155000000Y-102070500D01*
X154980315Y-102137539D01*
X154927511Y-102183294D01*
X154876000Y-102194500D01*
X152923992Y-102194500D01*
X152880313Y-102199197D01*
X152828825Y-102210397D01*
X152818627Y-102212890D01*
X152818624Y-102212891D01*
X152737916Y-102255899D01*
X152737913Y-102255901D01*
X152685104Y-102301660D01*
X152660823Y-102325452D01*
X152659887Y-102324497D01*
X152610921Y-102360371D01*
X152541182Y-102364636D01*
X152533737Y-102362263D01*
X152469765Y-102349538D01*
X152469761Y-102349538D01*
X151230265Y-102349538D01*
X151230260Y-102349538D01*
X151171783Y-102361169D01*
X151171782Y-102361170D01*
X151105460Y-102405485D01*
X151061145Y-102471807D01*
X151061145Y-102471808D01*
X151060472Y-102475192D01*
X151056971Y-102481884D01*
X151056471Y-102483092D01*
X151056362Y-102483047D01*
X151028087Y-102537103D01*
X150967371Y-102571677D01*
X150938855Y-102575000D01*
X149850000Y-102575000D01*
X149850000Y-103399999D01*
X150299972Y-103399999D01*
X150299986Y-103399998D01*
X150402697Y-103389505D01*
X150569119Y-103334358D01*
X150569124Y-103334356D01*
X150718342Y-103242317D01*
X150842561Y-103118098D01*
X150903884Y-103084613D01*
X150973576Y-103089597D01*
X151029510Y-103131468D01*
X151051860Y-103181588D01*
X151061144Y-103228267D01*
X151061145Y-103228268D01*
X151105460Y-103294590D01*
X151171782Y-103338905D01*
X151171783Y-103338906D01*
X151230260Y-103350537D01*
X151230263Y-103350538D01*
X152470500Y-103350538D01*
X152537539Y-103370223D01*
X152583294Y-103423027D01*
X152594500Y-103474538D01*
X152594500Y-104125462D01*
X152574815Y-104192501D01*
X152522011Y-104238256D01*
X152470500Y-104249462D01*
X152179770Y-104249462D01*
X152117770Y-104232849D01*
X152084638Y-104213720D01*
X152084635Y-104213719D01*
X151938266Y-104174500D01*
X151786733Y-104174500D01*
X151640365Y-104213719D01*
X151640364Y-104213719D01*
X151640362Y-104213720D01*
X151640361Y-104213720D01*
X151607230Y-104232849D01*
X151545230Y-104249462D01*
X151230260Y-104249462D01*
X151171783Y-104261093D01*
X151171782Y-104261094D01*
X151105460Y-104305409D01*
X151061145Y-104371731D01*
X151061144Y-104371732D01*
X151049513Y-104430209D01*
X151049513Y-104575498D01*
X151046963Y-104584180D01*
X151048252Y-104593138D01*
X151037273Y-104617181D01*
X151029828Y-104642537D01*
X151022989Y-104648462D01*
X151019230Y-104656696D01*
X150996994Y-104670987D01*
X150977024Y-104688292D01*
X150966512Y-104690579D01*
X150960454Y-104694473D01*
X150925539Y-104699493D01*
X150925520Y-104699498D01*
X150922955Y-104699498D01*
X150896410Y-104699497D01*
X150896399Y-104699499D01*
X150888793Y-104699500D01*
X150888791Y-104699499D01*
X150888786Y-104699500D01*
X150687628Y-104699500D01*
X150620589Y-104679815D01*
X150587858Y-104649134D01*
X150572150Y-104627850D01*
X150462882Y-104547207D01*
X150462880Y-104547206D01*
X150334700Y-104502353D01*
X150304270Y-104499500D01*
X150304266Y-104499500D01*
X148895734Y-104499500D01*
X148895730Y-104499500D01*
X148865300Y-104502353D01*
X148865298Y-104502353D01*
X148737119Y-104547206D01*
X148737117Y-104547207D01*
X148627850Y-104627850D01*
X148547207Y-104737117D01*
X148547206Y-104737119D01*
X148502353Y-104865298D01*
X148502353Y-104865300D01*
X148499500Y-104895730D01*
X148499500Y-105654269D01*
X148502353Y-105684699D01*
X148502353Y-105684701D01*
X148534086Y-105775385D01*
X148547207Y-105812882D01*
X148627850Y-105922150D01*
X148732209Y-105999170D01*
X148751780Y-106024948D01*
X148772446Y-106049855D01*
X148772781Y-106052608D01*
X148774459Y-106054817D01*
X148776987Y-106087083D01*
X148780907Y-106119210D01*
X148779701Y-106121707D01*
X148779918Y-106124474D01*
X148764596Y-106152990D01*
X148750528Y-106182130D01*
X148747665Y-106184505D01*
X148746850Y-106186023D01*
X148723366Y-106204667D01*
X148690598Y-106224747D01*
X148658116Y-106244652D01*
X148640782Y-106253485D01*
X148526136Y-106300973D01*
X148507631Y-106306986D01*
X148386966Y-106335956D01*
X148367749Y-106339000D01*
X148250345Y-106348241D01*
X148239212Y-106349118D01*
X148229483Y-106349500D01*
X144744960Y-106349500D01*
X144677921Y-106329815D01*
X144632166Y-106277011D01*
X144622222Y-106207853D01*
X144651247Y-106144297D01*
X144657279Y-106137819D01*
X144729714Y-106065383D01*
X144729721Y-106065374D01*
X144812031Y-105926195D01*
X144812033Y-105926190D01*
X144857144Y-105770918D01*
X144857145Y-105770912D01*
X144858790Y-105750000D01*
X144204000Y-105750000D01*
X144136961Y-105730315D01*
X144091206Y-105677511D01*
X144080000Y-105626000D01*
X144080000Y-105374000D01*
X144099685Y-105306961D01*
X144152489Y-105261206D01*
X144204000Y-105250000D01*
X144851858Y-105250000D01*
X144918897Y-105269685D01*
X144964652Y-105322489D01*
X144971630Y-105341902D01*
X144980201Y-105373886D01*
X145039511Y-105476613D01*
X145123387Y-105560489D01*
X145226114Y-105619799D01*
X145340691Y-105650500D01*
X145340694Y-105650500D01*
X145459306Y-105650500D01*
X145459309Y-105650500D01*
X145573886Y-105619799D01*
X145676613Y-105560489D01*
X145676620Y-105560481D01*
X145683059Y-105555542D01*
X145684154Y-105556969D01*
X145736618Y-105528322D01*
X145762976Y-105525488D01*
X145782621Y-105525488D01*
X145861137Y-105513052D01*
X145945815Y-105499641D01*
X146102962Y-105448583D01*
X146250187Y-105373572D01*
X146383866Y-105276454D01*
X146411985Y-105248336D01*
X146411994Y-105248332D01*
X146453962Y-105206364D01*
X146478743Y-105181585D01*
X146478744Y-105181582D01*
X146487640Y-105172687D01*
X146487649Y-105172675D01*
X146743837Y-104916486D01*
X146743861Y-104916473D01*
X146780167Y-104880167D01*
X146780168Y-104880168D01*
X146867663Y-104792674D01*
X147021960Y-104599192D01*
X147153622Y-104389651D01*
X147260996Y-104166685D01*
X147342729Y-103933100D01*
X147397795Y-103691832D01*
X147425501Y-103445915D01*
X147425500Y-103322179D01*
X147425500Y-103296682D01*
X147425500Y-102699986D01*
X148200001Y-102699986D01*
X148210494Y-102802697D01*
X148265641Y-102969119D01*
X148265643Y-102969124D01*
X148357684Y-103118345D01*
X148481654Y-103242315D01*
X148630875Y-103334356D01*
X148630880Y-103334358D01*
X148797302Y-103389505D01*
X148797309Y-103389506D01*
X148900019Y-103399999D01*
X149349999Y-103399999D01*
X149350000Y-103399998D01*
X149350000Y-102575000D01*
X148200001Y-102575000D01*
X148200001Y-102699986D01*
X147425500Y-102699986D01*
X147425500Y-101950013D01*
X148200000Y-101950013D01*
X148200000Y-102075000D01*
X149350000Y-102075000D01*
X149850000Y-102075000D01*
X150999999Y-102075000D01*
X150999999Y-101950028D01*
X150999998Y-101950013D01*
X150989505Y-101847302D01*
X150934358Y-101680880D01*
X150934356Y-101680875D01*
X150842315Y-101531654D01*
X150718345Y-101407684D01*
X150569124Y-101315643D01*
X150569119Y-101315641D01*
X150402697Y-101260494D01*
X150402690Y-101260493D01*
X150299986Y-101250000D01*
X149850000Y-101250000D01*
X149850000Y-102075000D01*
X149350000Y-102075000D01*
X149350000Y-101250000D01*
X148900028Y-101250000D01*
X148900012Y-101250001D01*
X148797302Y-101260494D01*
X148630880Y-101315641D01*
X148630875Y-101315643D01*
X148481654Y-101407684D01*
X148357684Y-101531654D01*
X148265643Y-101680875D01*
X148265641Y-101680880D01*
X148210494Y-101847302D01*
X148210493Y-101847309D01*
X148200000Y-101950013D01*
X147425500Y-101950013D01*
X147425500Y-96664253D01*
X147425500Y-96655220D01*
X147425497Y-96655180D01*
X147425497Y-96642728D01*
X147425498Y-96592958D01*
X147399937Y-96366096D01*
X147349137Y-96143523D01*
X147273735Y-95928036D01*
X147273734Y-95928034D01*
X147273732Y-95928028D01*
X147174684Y-95722352D01*
X147145945Y-95676614D01*
X147053220Y-95529042D01*
X146910879Y-95350552D01*
X146910878Y-95350551D01*
X146910875Y-95350547D01*
X146866484Y-95306156D01*
X146866483Y-95306154D01*
X146787998Y-95227668D01*
X146749450Y-95189119D01*
X146570959Y-95046778D01*
X146541136Y-95028039D01*
X146377648Y-94925312D01*
X146171971Y-94826264D01*
X145956474Y-94750859D01*
X145733896Y-94700058D01*
X145507045Y-94674499D01*
X145507041Y-94674499D01*
X145392892Y-94674500D01*
X143324500Y-94674500D01*
X143257461Y-94654815D01*
X143211706Y-94602011D01*
X143200500Y-94550500D01*
X143200500Y-94531004D01*
X143173581Y-94395677D01*
X143173580Y-94395676D01*
X143173580Y-94395672D01*
X143173578Y-94395667D01*
X143120778Y-94268195D01*
X143120771Y-94268182D01*
X143044114Y-94153458D01*
X143044111Y-94153454D01*
X142946545Y-94055888D01*
X142946541Y-94055885D01*
X142831817Y-93979228D01*
X142831804Y-93979221D01*
X142704332Y-93926421D01*
X142704322Y-93926418D01*
X142568995Y-93899500D01*
X142568993Y-93899500D01*
X142431007Y-93899500D01*
X142431005Y-93899500D01*
X142295677Y-93926418D01*
X142295667Y-93926421D01*
X142168195Y-93979221D01*
X142168182Y-93979228D01*
X142053458Y-94055885D01*
X142053454Y-94055888D01*
X141955888Y-94153454D01*
X141955885Y-94153458D01*
X141879228Y-94268182D01*
X141879221Y-94268195D01*
X141826421Y-94395667D01*
X141826418Y-94395677D01*
X141799500Y-94531004D01*
X141799500Y-94531007D01*
X141799500Y-94668993D01*
X141799500Y-94668995D01*
X141799499Y-94668995D01*
X141826418Y-94804322D01*
X141826421Y-94804332D01*
X141879221Y-94931804D01*
X141879228Y-94931817D01*
X141955885Y-95046541D01*
X141955888Y-95046545D01*
X142053454Y-95144111D01*
X142053458Y-95144114D01*
X142168182Y-95220771D01*
X142168195Y-95220778D01*
X142290300Y-95271355D01*
X142295672Y-95273580D01*
X142295676Y-95273580D01*
X142295677Y-95273581D01*
X142431004Y-95300500D01*
X142431007Y-95300500D01*
X142568995Y-95300500D01*
X142660041Y-95282389D01*
X142704328Y-95273580D01*
X142731948Y-95262138D01*
X142801417Y-95254670D01*
X142817715Y-95258768D01*
X142946722Y-95300680D01*
X142946725Y-95300680D01*
X142946732Y-95300683D01*
X143103501Y-95325505D01*
X143182858Y-95325500D01*
X143182863Y-95325500D01*
X145341340Y-95325500D01*
X145388828Y-95325500D01*
X145396937Y-95325765D01*
X145565137Y-95336788D01*
X145581196Y-95338903D01*
X145742517Y-95370991D01*
X145758171Y-95375186D01*
X145913921Y-95428056D01*
X145928893Y-95434257D01*
X145994856Y-95466786D01*
X146076412Y-95507005D01*
X146090458Y-95515115D01*
X146227202Y-95606484D01*
X146240071Y-95616358D01*
X146363711Y-95724787D01*
X146375180Y-95736256D01*
X146483636Y-95859927D01*
X146493510Y-95872796D01*
X146584883Y-96009546D01*
X146592993Y-96023592D01*
X146665736Y-96171100D01*
X146671943Y-96186086D01*
X146724808Y-96341823D01*
X146729006Y-96357490D01*
X146761091Y-96518791D01*
X146763209Y-96534872D01*
X146773777Y-96696125D01*
X146774235Y-96703102D01*
X146774500Y-96711212D01*
X146774500Y-103318119D01*
X146774235Y-103326228D01*
X146761752Y-103516694D01*
X146759635Y-103532775D01*
X146723194Y-103715982D01*
X146718996Y-103731649D01*
X146658953Y-103908536D01*
X146652745Y-103923522D01*
X146570126Y-104091058D01*
X146562016Y-104105105D01*
X146458239Y-104260419D01*
X146448365Y-104273288D01*
X146322613Y-104416680D01*
X146317067Y-104422602D01*
X145987731Y-104751941D01*
X145975532Y-104762638D01*
X145912336Y-104811127D01*
X145884304Y-104827311D01*
X145818289Y-104854654D01*
X145787027Y-104863031D01*
X145781565Y-104863750D01*
X145769870Y-104865289D01*
X145749250Y-104862074D01*
X145748819Y-104862121D01*
X145748489Y-104861956D01*
X145700836Y-104854526D01*
X145678192Y-104840723D01*
X145676614Y-104839512D01*
X145676613Y-104839511D01*
X145573886Y-104780201D01*
X145459309Y-104749500D01*
X145459305Y-104749499D01*
X145451249Y-104748439D01*
X145451484Y-104746653D01*
X145394138Y-104729815D01*
X145373491Y-104713176D01*
X145359845Y-104699529D01*
X145359804Y-104699499D01*
X145226251Y-104602463D01*
X145226246Y-104602460D01*
X145226244Y-104602459D01*
X145117703Y-104547152D01*
X145068906Y-104502480D01*
X145036122Y-104450127D01*
X144524000Y-104450127D01*
X144515314Y-104447576D01*
X144506353Y-104448865D01*
X144482312Y-104437886D01*
X144456961Y-104430442D01*
X144451033Y-104423601D01*
X144442797Y-104419840D01*
X144428507Y-104397605D01*
X144411206Y-104377638D01*
X144408918Y-104367123D01*
X144405023Y-104361062D01*
X144400000Y-104326127D01*
X144400000Y-104274500D01*
X144419685Y-104207461D01*
X144472489Y-104161706D01*
X144524000Y-104150500D01*
X144572036Y-104150500D01*
X144579628Y-104150127D01*
X145072214Y-104150127D01*
X145082202Y-104152803D01*
X145091299Y-104151604D01*
X145109214Y-104160041D01*
X145134213Y-104166739D01*
X145226114Y-104219799D01*
X145340691Y-104250500D01*
X145340694Y-104250500D01*
X145459306Y-104250500D01*
X145459309Y-104250500D01*
X145573886Y-104219799D01*
X145676613Y-104160489D01*
X145760489Y-104076613D01*
X145819799Y-103973886D01*
X145850500Y-103859309D01*
X145850500Y-103859305D01*
X145851561Y-103851249D01*
X145853364Y-103851486D01*
X145870185Y-103794204D01*
X145883330Y-103777890D01*
X145883169Y-103777753D01*
X145886323Y-103774058D01*
X145886330Y-103774052D01*
X145979609Y-103645638D01*
X146051653Y-103504213D01*
X146100687Y-103353260D01*
X146125505Y-103196495D01*
X146125500Y-103117137D01*
X146125500Y-96937555D01*
X146125501Y-96937548D01*
X146125500Y-96878129D01*
X146125500Y-96822310D01*
X146105513Y-96696120D01*
X146066031Y-96574611D01*
X146008027Y-96460773D01*
X145932930Y-96357411D01*
X145913099Y-96337580D01*
X145887759Y-96312239D01*
X145851304Y-96275786D01*
X145851301Y-96275784D01*
X145842587Y-96267070D01*
X145739225Y-96191972D01*
X145625387Y-96133969D01*
X145503878Y-96094488D01*
X145503876Y-96094487D01*
X145503874Y-96094487D01*
X145413440Y-96080163D01*
X145377688Y-96074500D01*
X145377687Y-96074500D01*
X141881879Y-96074500D01*
X141873771Y-96074235D01*
X141834416Y-96071655D01*
X141683304Y-96061752D01*
X141667224Y-96059635D01*
X141484016Y-96023194D01*
X141468349Y-96018996D01*
X141291463Y-95958953D01*
X141276477Y-95952745D01*
X141108937Y-95870124D01*
X141094890Y-95862014D01*
X140939582Y-95758241D01*
X140926713Y-95748367D01*
X140783295Y-95622593D01*
X140777373Y-95617046D01*
X140481971Y-95321644D01*
X140473799Y-95312628D01*
X140470081Y-95308098D01*
X140456851Y-95291977D01*
X140429539Y-95227668D01*
X140441330Y-95158800D01*
X140465021Y-95125634D01*
X140544114Y-95046542D01*
X140620775Y-94931811D01*
X140673580Y-94804328D01*
X140693316Y-94705109D01*
X140700500Y-94668995D01*
X140700500Y-94531004D01*
X140673581Y-94395677D01*
X140673580Y-94395676D01*
X140673580Y-94395672D01*
X140673578Y-94395667D01*
X140620778Y-94268195D01*
X140620771Y-94268182D01*
X140544114Y-94153458D01*
X140544111Y-94153454D01*
X140446545Y-94055888D01*
X140446541Y-94055885D01*
X140331817Y-93979228D01*
X140331804Y-93979221D01*
X140204332Y-93926421D01*
X140204322Y-93926418D01*
X140068995Y-93899500D01*
X140068993Y-93899500D01*
X139931007Y-93899500D01*
X139931005Y-93899500D01*
X139795677Y-93926418D01*
X139795667Y-93926421D01*
X139668195Y-93979221D01*
X139668182Y-93979228D01*
X139553458Y-94055885D01*
X139553454Y-94055888D01*
X139455888Y-94153454D01*
X139455885Y-94153458D01*
X139379228Y-94268182D01*
X139379221Y-94268195D01*
X139326421Y-94395667D01*
X139326418Y-94395677D01*
X139299500Y-94531004D01*
X139299500Y-94531007D01*
X139299500Y-94668993D01*
X139299500Y-94668995D01*
X139299499Y-94668995D01*
X139326418Y-94804322D01*
X139326421Y-94804332D01*
X139379221Y-94931804D01*
X139379228Y-94931817D01*
X139455885Y-95046541D01*
X139455888Y-95046545D01*
X139553454Y-95144111D01*
X139553458Y-95144114D01*
X139673254Y-95224160D01*
X139672102Y-95225883D01*
X139715210Y-95268229D01*
X139724844Y-95290308D01*
X139760254Y-95399293D01*
X139760257Y-95399300D01*
X139760258Y-95399301D01*
X139843896Y-95563456D01*
X139854708Y-95578338D01*
X139952181Y-95712504D01*
X139952186Y-95712510D01*
X139982681Y-95743007D01*
X139987020Y-95747346D01*
X139987022Y-95747349D01*
X140019753Y-95780080D01*
X140035543Y-95795870D01*
X140035544Y-95795871D01*
X140060838Y-95821166D01*
X140060845Y-95821172D01*
X140286322Y-96046649D01*
X140286331Y-96046666D01*
X140319832Y-96080167D01*
X140319832Y-96080168D01*
X140407326Y-96167663D01*
X140600808Y-96321959D01*
X140781903Y-96435748D01*
X140810354Y-96453625D01*
X141033307Y-96560992D01*
X141033311Y-96560994D01*
X141033314Y-96560995D01*
X141266899Y-96642729D01*
X141508167Y-96697795D01*
X141508177Y-96697796D01*
X141508183Y-96697797D01*
X141584728Y-96706420D01*
X141754084Y-96725501D01*
X141877820Y-96725500D01*
X145305674Y-96725500D01*
X145321848Y-96726559D01*
X145339209Y-96728845D01*
X145370472Y-96737222D01*
X145379069Y-96740783D01*
X145407107Y-96756972D01*
X145414489Y-96762637D01*
X145437369Y-96785516D01*
X145443031Y-96792896D01*
X145459217Y-96820929D01*
X145462778Y-96829526D01*
X145471156Y-96860791D01*
X145473439Y-96878129D01*
X145474500Y-96894317D01*
X145474500Y-103065613D01*
X145474497Y-103065623D01*
X145474499Y-103102228D01*
X145474499Y-103109063D01*
X145474498Y-103109065D01*
X145473439Y-103125238D01*
X145464458Y-103193490D01*
X145456083Y-103224756D01*
X145435494Y-103274474D01*
X145391658Y-103328881D01*
X145348095Y-103345729D01*
X145348542Y-103347397D01*
X145340693Y-103349500D01*
X145340691Y-103349500D01*
X145226114Y-103380201D01*
X145133773Y-103433514D01*
X145071774Y-103450127D01*
X144582207Y-103450127D01*
X144580871Y-103450120D01*
X144572406Y-103450028D01*
X144569748Y-103449500D01*
X144523314Y-103449500D01*
X144522664Y-103449493D01*
X144489841Y-103439469D01*
X144456961Y-103429815D01*
X144456506Y-103429290D01*
X144455841Y-103429087D01*
X144433620Y-103402878D01*
X144411206Y-103377011D01*
X144411039Y-103376244D01*
X144410657Y-103375794D01*
X144410211Y-103372439D01*
X144400000Y-103325500D01*
X144400000Y-103274127D01*
X144419685Y-103207088D01*
X144472489Y-103161333D01*
X144524000Y-103150127D01*
X145050000Y-103150127D01*
X145050000Y-103102299D01*
X145049999Y-103102282D01*
X145043598Y-103042754D01*
X145043596Y-103042747D01*
X144993354Y-102908040D01*
X144993350Y-102908033D01*
X144907190Y-102792939D01*
X144907187Y-102792936D01*
X144792093Y-102706776D01*
X144792086Y-102706772D01*
X144657379Y-102656530D01*
X144649832Y-102654747D01*
X144650472Y-102652037D01*
X144598142Y-102630350D01*
X144558304Y-102572950D01*
X144555823Y-102503125D01*
X144563584Y-102481407D01*
X144563991Y-102480533D01*
X144563994Y-102480531D01*
X144613997Y-102373300D01*
X144620429Y-102324443D01*
X144620429Y-101875811D01*
X144613997Y-101826954D01*
X144563994Y-101719723D01*
X144480333Y-101636062D01*
X144373102Y-101586059D01*
X144373100Y-101586058D01*
X144373101Y-101586058D01*
X144324246Y-101579627D01*
X144324245Y-101579627D01*
X143975613Y-101579627D01*
X143975612Y-101579627D01*
X143926757Y-101586058D01*
X143819524Y-101636062D01*
X143792110Y-101663477D01*
X143730787Y-101696962D01*
X143661095Y-101691978D01*
X143605162Y-101650106D01*
X143580745Y-101584642D01*
X143580429Y-101575796D01*
X143580429Y-101110358D01*
X143580439Y-101110321D01*
X143580429Y-101051012D01*
X143580429Y-100991782D01*
X143572768Y-100963194D01*
X143561151Y-100904799D01*
X143549734Y-100877229D01*
X143549728Y-100877205D01*
X143549715Y-100877183D01*
X143547304Y-100871362D01*
X143547252Y-100871172D01*
X143546559Y-100869481D01*
X143546363Y-100869088D01*
X143528569Y-100826117D01*
X143523374Y-100813571D01*
X143523372Y-100813568D01*
X143496020Y-100772611D01*
X143496017Y-100772607D01*
X143490214Y-100763918D01*
X143475453Y-100738350D01*
X143433639Y-100696536D01*
X143429566Y-100692460D01*
X143429562Y-100692455D01*
X143386165Y-100649025D01*
X143385864Y-100648761D01*
X143376616Y-100639513D01*
X143376614Y-100639511D01*
X143325250Y-100609856D01*
X143273888Y-100580201D01*
X143261780Y-100576957D01*
X143249673Y-100573713D01*
X143249670Y-100573712D01*
X143211478Y-100563478D01*
X143159309Y-100549500D01*
X143040691Y-100549500D01*
X142950325Y-100573713D01*
X142950324Y-100573712D01*
X142926116Y-100580199D01*
X142926113Y-100580200D01*
X142823386Y-100639511D01*
X142823383Y-100639513D01*
X142739513Y-100723383D01*
X142739509Y-100723389D01*
X142680201Y-100826112D01*
X142680200Y-100826117D01*
X142649500Y-100940691D01*
X142649500Y-101059308D01*
X142673712Y-101149671D01*
X142675203Y-101155235D01*
X142679429Y-101187331D01*
X142679429Y-101770367D01*
X142667811Y-101822773D01*
X142665861Y-101826953D01*
X142665860Y-101826957D01*
X142659429Y-101875810D01*
X142659429Y-102324443D01*
X142665860Y-102373298D01*
X142665861Y-102373300D01*
X142713374Y-102475192D01*
X142714367Y-102477320D01*
X142718022Y-102501385D01*
X142725871Y-102524421D01*
X142723174Y-102535307D01*
X142724859Y-102546397D01*
X142714925Y-102568613D01*
X142709073Y-102592241D01*
X142700916Y-102599943D01*
X142696339Y-102610181D01*
X142675972Y-102623499D01*
X142658274Y-102640213D01*
X142643855Y-102644502D01*
X142637863Y-102648421D01*
X142624866Y-102651596D01*
X142555822Y-102664559D01*
X142531225Y-102662090D01*
X142506574Y-102663852D01*
X142492087Y-102658163D01*
X142486302Y-102657583D01*
X142482090Y-102654238D01*
X142469820Y-102649420D01*
X142366125Y-102588095D01*
X142366119Y-102588093D01*
X142210847Y-102542982D01*
X142210841Y-102542981D01*
X142189929Y-102541336D01*
X142189929Y-103196127D01*
X142170244Y-103263166D01*
X142117440Y-103308921D01*
X142065929Y-103320127D01*
X141939929Y-103320127D01*
X141939929Y-103446127D01*
X141920244Y-103513166D01*
X141867440Y-103558921D01*
X141815929Y-103570127D01*
X141135425Y-103570127D01*
X141177897Y-103716322D01*
X141260207Y-103855501D01*
X141260214Y-103855510D01*
X141374545Y-103969841D01*
X141380714Y-103974626D01*
X141379194Y-103976584D01*
X141418554Y-104018726D01*
X141431068Y-104087466D01*
X141430698Y-104090588D01*
X141429429Y-104100228D01*
X141429429Y-104460021D01*
X141429430Y-104460027D01*
X141435957Y-104509614D01*
X141435957Y-104509615D01*
X141435958Y-104509617D01*
X141457937Y-104556749D01*
X141469556Y-104609156D01*
X141469556Y-105349515D01*
X141465331Y-105381607D01*
X141449500Y-105440689D01*
X141449500Y-105648626D01*
X141449488Y-105648666D01*
X141449488Y-105773457D01*
X141462976Y-105858615D01*
X141472473Y-105918568D01*
X141516029Y-106052608D01*
X141517878Y-106058296D01*
X141584582Y-106189198D01*
X141670943Y-106308051D01*
X141670947Y-106308056D01*
X141721794Y-106358899D01*
X141721809Y-106358913D01*
X142077701Y-106714806D01*
X142077732Y-106714834D01*
X142110349Y-106747451D01*
X142284825Y-106886591D01*
X142473783Y-107005321D01*
X142674846Y-107102148D01*
X142833041Y-107157502D01*
X142885474Y-107175850D01*
X142885486Y-107175854D01*
X143103053Y-107225513D01*
X143324808Y-107250499D01*
X143324809Y-107250500D01*
X143324813Y-107250500D01*
X143377087Y-107250500D01*
X148175009Y-107250500D01*
X148182953Y-107250500D01*
X148182966Y-107250503D01*
X148234319Y-107250503D01*
X148234319Y-107250504D01*
X148353357Y-107250503D01*
X148353388Y-107250499D01*
X148371036Y-107248175D01*
X148589398Y-107219426D01*
X148819363Y-107157805D01*
X149039317Y-107066696D01*
X149245498Y-106947656D01*
X149434377Y-106802723D01*
X149476609Y-106760490D01*
X149476612Y-106760489D01*
X149482240Y-106754860D01*
X149482253Y-106754853D01*
X149534206Y-106702895D01*
X149613233Y-106623868D01*
X149620294Y-106616807D01*
X149620300Y-106616805D01*
X149625925Y-106611180D01*
X149625969Y-106611155D01*
X149662246Y-106574875D01*
X149662247Y-106574876D01*
X149723684Y-106513436D01*
X149829466Y-106375569D01*
X149916349Y-106225074D01*
X149956949Y-106127050D01*
X150000788Y-106072646D01*
X150067082Y-106050579D01*
X150071511Y-106050500D01*
X150304270Y-106050500D01*
X150334699Y-106047646D01*
X150334701Y-106047646D01*
X150403376Y-106023615D01*
X150462882Y-106002793D01*
X150572150Y-105922150D01*
X150587858Y-105900865D01*
X150643506Y-105858615D01*
X150687628Y-105850500D01*
X151050500Y-105850500D01*
X151050649Y-105850489D01*
X151062711Y-105850490D01*
X151253989Y-105825314D01*
X151440344Y-105775385D01*
X151618588Y-105701558D01*
X151785669Y-105605096D01*
X151938730Y-105487650D01*
X152006940Y-105419440D01*
X152056352Y-105370029D01*
X152056353Y-105370026D01*
X152099745Y-105326633D01*
X152139601Y-105286780D01*
X152200925Y-105253295D01*
X152227281Y-105250462D01*
X152470500Y-105250462D01*
X152537539Y-105270147D01*
X152583294Y-105322951D01*
X152594500Y-105374462D01*
X152594500Y-112103192D01*
X152574815Y-112170231D01*
X152522011Y-112215986D01*
X152452853Y-112225930D01*
X152446324Y-112224812D01*
X152444759Y-112224501D01*
X152444749Y-112224500D01*
X152444748Y-112224500D01*
X152055252Y-112224500D01*
X152055247Y-112224500D01*
X151996770Y-112236131D01*
X151996770Y-112236132D01*
X151969490Y-112254360D01*
X151902813Y-112275237D01*
X151835433Y-112256752D01*
X151788743Y-112204773D01*
X151776600Y-112151257D01*
X151776600Y-111392323D01*
X151776599Y-111392319D01*
X151743981Y-111249411D01*
X151680379Y-111117340D01*
X151667532Y-111101231D01*
X151654618Y-111085037D01*
X151588983Y-111002734D01*
X151523346Y-110950390D01*
X151474379Y-110911339D01*
X151474376Y-110911337D01*
X151342309Y-110847737D01*
X151342307Y-110847736D01*
X151342306Y-110847736D01*
X151297254Y-110837453D01*
X151199397Y-110815117D01*
X151199394Y-110815117D01*
X151052806Y-110815117D01*
X151052802Y-110815117D01*
X150909890Y-110847737D01*
X150777823Y-110911337D01*
X150777820Y-110911339D01*
X150663217Y-111002734D01*
X150571822Y-111117337D01*
X150571820Y-111117340D01*
X150508220Y-111249407D01*
X150475600Y-111392319D01*
X150475600Y-111964876D01*
X150455915Y-112031915D01*
X150403111Y-112077670D01*
X150333953Y-112087614D01*
X150277289Y-112064143D01*
X150167088Y-111981646D01*
X150167086Y-111981645D01*
X150032379Y-111931403D01*
X150032372Y-111931401D01*
X149972844Y-111925000D01*
X149925000Y-111925000D01*
X149925000Y-113026000D01*
X149922449Y-113034685D01*
X149923738Y-113043647D01*
X149912759Y-113067687D01*
X149905315Y-113093039D01*
X149898474Y-113098966D01*
X149894713Y-113107203D01*
X149872478Y-113121492D01*
X149852511Y-113138794D01*
X149841996Y-113141081D01*
X149835935Y-113144977D01*
X149801000Y-113150000D01*
X149749500Y-113150000D01*
X149682461Y-113130315D01*
X149636706Y-113077511D01*
X149625500Y-113026000D01*
X149625500Y-112405249D01*
X149625499Y-112405247D01*
X149613868Y-112346773D01*
X149613867Y-112346772D01*
X149613867Y-112346769D01*
X149595897Y-112319876D01*
X149575020Y-112253199D01*
X149575000Y-112250986D01*
X149575000Y-111925000D01*
X149527155Y-111925000D01*
X149467627Y-111931401D01*
X149467620Y-111931403D01*
X149332913Y-111981645D01*
X149332906Y-111981649D01*
X149217812Y-112067809D01*
X149136856Y-112175951D01*
X149114780Y-112192475D01*
X149094907Y-112211597D01*
X149085483Y-112214406D01*
X149080922Y-112217821D01*
X149061606Y-112223291D01*
X149055482Y-112224500D01*
X149055252Y-112224500D01*
X149024724Y-112230572D01*
X149024016Y-112230712D01*
X149023642Y-112230678D01*
X148975812Y-112230678D01*
X148938776Y-112223312D01*
X148939308Y-112220636D01*
X148885409Y-112198835D01*
X148863143Y-112175950D01*
X148782190Y-112067812D01*
X148782187Y-112067809D01*
X148667093Y-111981649D01*
X148667086Y-111981645D01*
X148532379Y-111931403D01*
X148532372Y-111931401D01*
X148472844Y-111925000D01*
X148425000Y-111925000D01*
X148425000Y-112250986D01*
X148422449Y-112259671D01*
X148423738Y-112268633D01*
X148406965Y-112312404D01*
X148405315Y-112318025D01*
X148404561Y-112318677D01*
X148404102Y-112319877D01*
X148386133Y-112346769D01*
X148386131Y-112346773D01*
X148374500Y-112405247D01*
X148374500Y-113201000D01*
X148371949Y-113209685D01*
X148373238Y-113218647D01*
X148362259Y-113242687D01*
X148354815Y-113268039D01*
X148347974Y-113273966D01*
X148344213Y-113282203D01*
X148321978Y-113296492D01*
X148302011Y-113313794D01*
X148291496Y-113316081D01*
X148285435Y-113319977D01*
X148250500Y-113325000D01*
X148249500Y-113325000D01*
X148182461Y-113305315D01*
X148136706Y-113252511D01*
X148125500Y-113201000D01*
X148125500Y-112405249D01*
X148125499Y-112405247D01*
X148113868Y-112346773D01*
X148113867Y-112346772D01*
X148113867Y-112346769D01*
X148095897Y-112319876D01*
X148092860Y-112310176D01*
X148086206Y-112302497D01*
X148082597Y-112277397D01*
X148075020Y-112253199D01*
X148075000Y-112250986D01*
X148075000Y-111925000D01*
X148027155Y-111925000D01*
X147967627Y-111931401D01*
X147967620Y-111931403D01*
X147832913Y-111981645D01*
X147832906Y-111981649D01*
X147717812Y-112067809D01*
X147636856Y-112175951D01*
X147614780Y-112192475D01*
X147594907Y-112211597D01*
X147585483Y-112214406D01*
X147580922Y-112217821D01*
X147561606Y-112223291D01*
X147555482Y-112224500D01*
X147555252Y-112224500D01*
X147524724Y-112230572D01*
X147524016Y-112230712D01*
X147523642Y-112230678D01*
X147475812Y-112230678D01*
X147438776Y-112223312D01*
X147439308Y-112220636D01*
X147385409Y-112198835D01*
X147363143Y-112175950D01*
X147282190Y-112067812D01*
X147282187Y-112067809D01*
X147167093Y-111981649D01*
X147167086Y-111981645D01*
X147032379Y-111931403D01*
X147032372Y-111931401D01*
X146972844Y-111925000D01*
X146925000Y-111925000D01*
X146925000Y-112250986D01*
X146922449Y-112259671D01*
X146923738Y-112268633D01*
X146906965Y-112312404D01*
X146905315Y-112318025D01*
X146904561Y-112318677D01*
X146904102Y-112319877D01*
X146886133Y-112346769D01*
X146886131Y-112346773D01*
X146874500Y-112405247D01*
X146874500Y-113026000D01*
X146871949Y-113034685D01*
X146873238Y-113043647D01*
X146862259Y-113067687D01*
X146854815Y-113093039D01*
X146847974Y-113098966D01*
X146844213Y-113107203D01*
X146821978Y-113121492D01*
X146802011Y-113138794D01*
X146791496Y-113141081D01*
X146785435Y-113144977D01*
X146750500Y-113150000D01*
X146749500Y-113150000D01*
X146682461Y-113130315D01*
X146636706Y-113077511D01*
X146625500Y-113026000D01*
X146625500Y-112405249D01*
X146625499Y-112405247D01*
X146613868Y-112346773D01*
X146613867Y-112346772D01*
X146613867Y-112346769D01*
X146595897Y-112319876D01*
X146592860Y-112310176D01*
X146586206Y-112302497D01*
X146582597Y-112277397D01*
X146575020Y-112253199D01*
X146575000Y-112250986D01*
X146575000Y-111925000D01*
X146527155Y-111925000D01*
X146467627Y-111931401D01*
X146467620Y-111931403D01*
X146332913Y-111981645D01*
X146332906Y-111981649D01*
X146217812Y-112067809D01*
X146136856Y-112175951D01*
X146114780Y-112192475D01*
X146094907Y-112211597D01*
X146085483Y-112214406D01*
X146080922Y-112217821D01*
X146061606Y-112223291D01*
X146055482Y-112224500D01*
X146055252Y-112224500D01*
X146024724Y-112230572D01*
X146024016Y-112230712D01*
X146023642Y-112230678D01*
X145975812Y-112230678D01*
X145944749Y-112224500D01*
X145944748Y-112224500D01*
X145555252Y-112224500D01*
X145555251Y-112224500D01*
X145524188Y-112230678D01*
X145475812Y-112230678D01*
X145444749Y-112224500D01*
X145444748Y-112224500D01*
X145055252Y-112224500D01*
X145055251Y-112224500D01*
X145024188Y-112230678D01*
X144975812Y-112230678D01*
X144944749Y-112224500D01*
X144944748Y-112224500D01*
X144555252Y-112224500D01*
X144555251Y-112224500D01*
X144524188Y-112230678D01*
X144475812Y-112230678D01*
X144444749Y-112224500D01*
X144444748Y-112224500D01*
X144055252Y-112224500D01*
X144055251Y-112224500D01*
X144024188Y-112230678D01*
X143975812Y-112230678D01*
X143944749Y-112224500D01*
X143944748Y-112224500D01*
X143555252Y-112224500D01*
X143555251Y-112224500D01*
X143524188Y-112230678D01*
X143475812Y-112230678D01*
X143444749Y-112224500D01*
X143444748Y-112224500D01*
X143055252Y-112224500D01*
X143055251Y-112224500D01*
X143024188Y-112230678D01*
X142975812Y-112230678D01*
X142944749Y-112224500D01*
X142944748Y-112224500D01*
X142555252Y-112224500D01*
X142555251Y-112224500D01*
X142524188Y-112230678D01*
X142475812Y-112230678D01*
X142444749Y-112224500D01*
X142444748Y-112224500D01*
X142055252Y-112224500D01*
X142055251Y-112224500D01*
X142024188Y-112230678D01*
X141975812Y-112230678D01*
X141944749Y-112224500D01*
X141944748Y-112224500D01*
X141555252Y-112224500D01*
X141555251Y-112224500D01*
X141524188Y-112230678D01*
X141475812Y-112230678D01*
X141444749Y-112224500D01*
X141444748Y-112224500D01*
X141055252Y-112224500D01*
X141055251Y-112224500D01*
X141024188Y-112230678D01*
X140975812Y-112230678D01*
X140944749Y-112224500D01*
X140944748Y-112224500D01*
X140555252Y-112224500D01*
X140555251Y-112224500D01*
X140524188Y-112230678D01*
X140475812Y-112230678D01*
X140444749Y-112224500D01*
X140444748Y-112224500D01*
X140055252Y-112224500D01*
X140055251Y-112224500D01*
X140024188Y-112230678D01*
X140015953Y-112230683D01*
X140011230Y-112232550D01*
X139976449Y-112230711D01*
X139975984Y-112230712D01*
X139975278Y-112230572D01*
X139944748Y-112224500D01*
X139944517Y-112224500D01*
X139938393Y-112223291D01*
X139912492Y-112209790D01*
X139885409Y-112198835D01*
X139879166Y-112192418D01*
X139876435Y-112190995D01*
X139874519Y-112187643D01*
X139863143Y-112175950D01*
X139782190Y-112067812D01*
X139782187Y-112067809D01*
X139667093Y-111981649D01*
X139667086Y-111981645D01*
X139532379Y-111931403D01*
X139532372Y-111931401D01*
X139472844Y-111925000D01*
X139425000Y-111925000D01*
X139425000Y-112250986D01*
X139405315Y-112318025D01*
X139404102Y-112319877D01*
X139386133Y-112346769D01*
X139386131Y-112346773D01*
X139374500Y-112405247D01*
X139374500Y-113026000D01*
X139371949Y-113034685D01*
X139373238Y-113043647D01*
X139362259Y-113067687D01*
X139354815Y-113093039D01*
X139347974Y-113098966D01*
X139344213Y-113107203D01*
X139321978Y-113121492D01*
X139302011Y-113138794D01*
X139291496Y-113141081D01*
X139285435Y-113144977D01*
X139250500Y-113150000D01*
X139199000Y-113150000D01*
X139131961Y-113130315D01*
X139086206Y-113077511D01*
X139075000Y-113026000D01*
X139075000Y-111925000D01*
X139027155Y-111925000D01*
X138967627Y-111931401D01*
X138967620Y-111931403D01*
X138832913Y-111981645D01*
X138832904Y-111981650D01*
X138824907Y-111987637D01*
X138759442Y-112012052D01*
X138691170Y-111997198D01*
X138641766Y-111947792D01*
X138626600Y-111888368D01*
X138626600Y-110881241D01*
X138627044Y-110880593D01*
X138626600Y-110864897D01*
X138626600Y-110844699D01*
X138626600Y-110826203D01*
X138625358Y-110820392D01*
X138624921Y-110804774D01*
X138596979Y-110689222D01*
X138545670Y-110581983D01*
X138473227Y-110487723D01*
X138382803Y-110410546D01*
X138278333Y-110353810D01*
X138278331Y-110353809D01*
X138278326Y-110353807D01*
X138164368Y-110319986D01*
X138164370Y-110319986D01*
X138164365Y-110319985D01*
X138164363Y-110319984D01*
X138164360Y-110319984D01*
X138138070Y-110317895D01*
X138137667Y-110317863D01*
X138119954Y-110316397D01*
X138118915Y-110315596D01*
X138105852Y-110315230D01*
X138102491Y-110314952D01*
X138101888Y-110314719D01*
X138095880Y-110314225D01*
X137994523Y-110300333D01*
X137968538Y-110293853D01*
X137878887Y-110260863D01*
X137854901Y-110248955D01*
X137774423Y-110197486D01*
X137753555Y-110180709D01*
X137685997Y-110113152D01*
X137669222Y-110092288D01*
X137617751Y-110011812D01*
X137605842Y-109987826D01*
X137572848Y-109898172D01*
X137566367Y-109872187D01*
X137552749Y-109772844D01*
X137551600Y-109756003D01*
X137551600Y-103070127D01*
X141135425Y-103070127D01*
X141689929Y-103070127D01*
X141689929Y-102541337D01*
X141689928Y-102541336D01*
X141669016Y-102542981D01*
X141669010Y-102542982D01*
X141513738Y-102588093D01*
X141513733Y-102588095D01*
X141374554Y-102670405D01*
X141374545Y-102670412D01*
X141260214Y-102784743D01*
X141260207Y-102784752D01*
X141177897Y-102923931D01*
X141135425Y-103070127D01*
X137551600Y-103070127D01*
X137551600Y-93373470D01*
X137552335Y-93359989D01*
X137554497Y-93340224D01*
X137568343Y-93213611D01*
X137572370Y-93193061D01*
X137600572Y-93094257D01*
X137611797Y-93054931D01*
X137619223Y-93035356D01*
X137681335Y-92905836D01*
X137691953Y-92887786D01*
X137774980Y-92770565D01*
X137788478Y-92754566D01*
X137890053Y-92652989D01*
X137906048Y-92639493D01*
X138023275Y-92556459D01*
X138041318Y-92545845D01*
X138170846Y-92483726D01*
X138190415Y-92476302D01*
X138328541Y-92436873D01*
X138349091Y-92432846D01*
X138495327Y-92416851D01*
X138508809Y-92416117D01*
X149454999Y-92416117D01*
X149522038Y-92435802D01*
G37*
%TD.AperFunction*%
%TA.AperFunction,Conductor*%
G36*
X143650180Y-103360524D02*
G01*
X143712093Y-103392903D01*
X143746674Y-103453615D01*
X143750000Y-103482144D01*
X143750000Y-103497971D01*
X143756401Y-103557499D01*
X143756403Y-103557506D01*
X143806645Y-103692213D01*
X143806648Y-103692219D01*
X143831800Y-103725818D01*
X143856216Y-103791282D01*
X143841364Y-103859555D01*
X143831800Y-103874436D01*
X143806648Y-103908034D01*
X143806645Y-103908040D01*
X143756403Y-104042747D01*
X143756401Y-104042754D01*
X143750002Y-104102268D01*
X143750000Y-104102299D01*
X143750000Y-104117856D01*
X143741055Y-104148317D01*
X143733748Y-104179227D01*
X143731280Y-104181607D01*
X143730315Y-104184895D01*
X143706325Y-104205682D01*
X143683464Y-104227737D01*
X143679094Y-104229278D01*
X143677511Y-104230650D01*
X143650179Y-104239476D01*
X143644143Y-104240676D01*
X143595773Y-104240673D01*
X143570546Y-104235655D01*
X143508635Y-104203270D01*
X143474061Y-104142554D01*
X143477800Y-104072785D01*
X143478557Y-104070701D01*
X143483525Y-104057381D01*
X143483527Y-104057372D01*
X143489928Y-103997844D01*
X143489929Y-103997827D01*
X143489929Y-103950000D01*
X143019557Y-103950000D01*
X143018726Y-103949997D01*
X143011286Y-103949947D01*
X143009677Y-103949627D01*
X142963545Y-103949627D01*
X142963098Y-103949624D01*
X142929990Y-103939661D01*
X142896890Y-103929942D01*
X142896607Y-103929616D01*
X142896192Y-103929491D01*
X142873702Y-103903181D01*
X142851135Y-103877138D01*
X142851031Y-103876660D01*
X142850792Y-103876381D01*
X142850489Y-103874168D01*
X142839929Y-103825627D01*
X142839929Y-103774000D01*
X142859614Y-103706961D01*
X142912418Y-103661206D01*
X142963929Y-103650000D01*
X143489929Y-103650000D01*
X143489929Y-103602180D01*
X143489928Y-103602168D01*
X143485751Y-103563321D01*
X143485360Y-103541160D01*
X143490249Y-103473241D01*
X143500977Y-103444516D01*
X143509614Y-103415105D01*
X143513087Y-103412095D01*
X143514696Y-103407788D01*
X143539255Y-103389420D01*
X143562418Y-103369350D01*
X143568884Y-103367261D01*
X143570649Y-103365942D01*
X143573626Y-103365730D01*
X143589743Y-103360525D01*
X143595781Y-103359325D01*
X143644143Y-103359324D01*
X143650180Y-103360524D01*
G37*
%TD.AperFunction*%
%TA.AperFunction,Conductor*%
G36*
X155382958Y-103321402D02*
G01*
X155384810Y-103321034D01*
X155393452Y-103323359D01*
X155413605Y-103327117D01*
X155603695Y-103391626D01*
X155631884Y-103411445D01*
X155660295Y-103431115D01*
X155660473Y-103431545D01*
X155660852Y-103431811D01*
X155673843Y-103463703D01*
X155687118Y-103495631D01*
X155687036Y-103496087D01*
X155687211Y-103496517D01*
X155680892Y-103530400D01*
X155674803Y-103564407D01*
X155674486Y-103564747D01*
X155674402Y-103565203D01*
X155651527Y-103596730D01*
X155454794Y-103793462D01*
X155454795Y-103793463D01*
X155409607Y-103838653D01*
X155397414Y-103849347D01*
X155272966Y-103944847D01*
X155259480Y-103953859D01*
X155123642Y-104032292D01*
X155109117Y-104039457D01*
X155106480Y-104040550D01*
X155059001Y-104050000D01*
X154273987Y-104050000D01*
X154206948Y-104030315D01*
X154161193Y-103977511D01*
X154149987Y-103926000D01*
X154149987Y-103674000D01*
X154169672Y-103606961D01*
X154222476Y-103561206D01*
X154273987Y-103550000D01*
X155249987Y-103550000D01*
X155249987Y-103452164D01*
X155249934Y-103451175D01*
X155249987Y-103450950D01*
X155249987Y-103448851D01*
X155250483Y-103448851D01*
X155257316Y-103419936D01*
X155263200Y-103388386D01*
X155265298Y-103386158D01*
X155266003Y-103383178D01*
X155289105Y-103360886D01*
X155311109Y-103337529D01*
X155314079Y-103336789D01*
X155316283Y-103334663D01*
X155347766Y-103328401D01*
X155378909Y-103320647D01*
X155382958Y-103321402D01*
G37*
%TD.AperFunction*%
%TD*%
M02*
