%TF.GenerationSoftware,KiCad,Pcbnew,9.0.0*%
%TF.CreationDate,2025-05-23T15:59:46+04:00*%
%TF.ProjectId,02_04_sensor_barometer_BMP390L,30325f30-345f-4736-956e-736f725f6261,rev?*%
%TF.SameCoordinates,Original*%
%TF.FileFunction,Soldermask,Bot*%
%TF.FilePolarity,Negative*%
%FSLAX46Y46*%
G04 Gerber Fmt 4.6, Leading zero omitted, Abs format (unit mm)*
G04 Created by KiCad (PCBNEW 9.0.0) date 2025-05-23 15:59:46*
%MOMM*%
%LPD*%
G01*
G04 APERTURE LIST*
G04 Aperture macros list*
%AMRoundRect*
0 Rectangle with rounded corners*
0 $1 Rounding radius*
0 $2 $3 $4 $5 $6 $7 $8 $9 X,Y pos of 4 corners*
0 Add a 4 corners polygon primitive as box body*
4,1,4,$2,$3,$4,$5,$6,$7,$8,$9,$2,$3,0*
0 Add four circle primitives for the rounded corners*
1,1,$1+$1,$2,$3*
1,1,$1+$1,$4,$5*
1,1,$1+$1,$6,$7*
1,1,$1+$1,$8,$9*
0 Add four rect primitives between the rounded corners*
20,1,$1+$1,$2,$3,$4,$5,0*
20,1,$1+$1,$4,$5,$6,$7,0*
20,1,$1+$1,$6,$7,$8,$9,0*
20,1,$1+$1,$8,$9,$2,$3,0*%
G04 Aperture macros list end*
%ADD10C,0.100000*%
%ADD11C,0.000000*%
%ADD12RoundRect,0.050000X-0.175000X-0.975000X0.175000X-0.975000X0.175000X0.975000X-0.175000X0.975000X0*%
%ADD13C,0.554000*%
G04 APERTURE END LIST*
D10*
X138500000Y-113950000D02*
X158400000Y-113950000D01*
X158400000Y-114500000D01*
X138500000Y-114500000D01*
X138500000Y-113950000D01*
G36*
X138500000Y-113950000D02*
G01*
X158400000Y-113950000D01*
X158400000Y-114500000D01*
X138500000Y-114500000D01*
X138500000Y-113950000D01*
G37*
D11*
%TO.C,J1*%
G36*
X150776586Y-92728884D02*
G01*
X150855538Y-93023535D01*
X150984456Y-93300000D01*
X151159422Y-93549878D01*
X151375122Y-93765578D01*
X151625000Y-93940544D01*
X151901465Y-94069462D01*
X152196116Y-94148414D01*
X152500000Y-94175000D01*
X152803884Y-94148414D01*
X153098535Y-94069462D01*
X153375000Y-93940544D01*
X153624878Y-93765578D01*
X153840578Y-93549878D01*
X154015544Y-93300000D01*
X154144462Y-93023535D01*
X154223414Y-92728884D01*
X154250000Y-92425000D01*
X155250000Y-92425000D01*
X155156296Y-93136752D01*
X155040669Y-93477379D01*
X154881570Y-93800000D01*
X154681722Y-94099094D01*
X154444544Y-94369544D01*
X154174094Y-94606722D01*
X153875000Y-94806570D01*
X153552379Y-94965669D01*
X153211752Y-95081296D01*
X152858947Y-95151473D01*
X152500000Y-95175000D01*
X152141053Y-95151473D01*
X151788248Y-95081296D01*
X151447621Y-94965669D01*
X151125000Y-94806570D01*
X150825906Y-94606722D01*
X150555456Y-94369544D01*
X150318278Y-94099094D01*
X150118430Y-93800000D01*
X149959331Y-93477379D01*
X149843704Y-93136752D01*
X149773527Y-92783947D01*
X149750000Y-92425000D01*
X150750000Y-92425000D01*
X150776586Y-92728884D01*
G37*
%TD*%
D12*
%TO.C,J1*%
X157500000Y-112900000D03*
X157000000Y-112900000D03*
X156500000Y-112900000D03*
X156000000Y-112900000D03*
X155500000Y-112900000D03*
X155000000Y-112900000D03*
X154500000Y-112900000D03*
X154000000Y-112900000D03*
X153500000Y-112900000D03*
X153000000Y-112900000D03*
X152500000Y-112900000D03*
X150000000Y-112900000D03*
X149500000Y-112900000D03*
X149000000Y-112900000D03*
X148500000Y-112900000D03*
X148000000Y-112900000D03*
X147500000Y-112900000D03*
X147000000Y-112900000D03*
X146500000Y-112900000D03*
X146000000Y-112900000D03*
X145500000Y-112900000D03*
X145000000Y-112900000D03*
X144500000Y-112900000D03*
X144000000Y-112900000D03*
X143500000Y-112900000D03*
X143000000Y-112900000D03*
X142500000Y-112900000D03*
X142000000Y-112900000D03*
X141500000Y-112900000D03*
X141000000Y-112900000D03*
X140500000Y-112900000D03*
X140000000Y-112900000D03*
X139500000Y-112900000D03*
D13*
X150400000Y-93425000D03*
X152500000Y-94725000D03*
X154600000Y-93425000D03*
%TD*%
M02*
