M48
; DRILL file {KiCad 9.0.0} date 2025-05-06T23:45:37+0400
; FORMAT={-:-/ absolute / inch / decimal}
; #@! TF.CreationDate,2025-05-06T23:45:37+04:00
; #@! TF.GenerationSoftware,Kicad,Pcbnew,9.0.0
; #@! TF.FileFunction,Plated,1,2,PTH
FMAT,2
INCH
; #@! TA.AperFunction,Plated,PTH,ViaDrill
T1C0.0118
; #@! TA.AperFunction,Plated,PTH,ComponentDrill
T2C0.0157
; #@! TA.AperFunction,Plated,PTH,ComponentDrill
T3C0.0197
; #@! TA.AperFunction,Plated,PTH,ComponentDrill
T4C0.0236
; #@! TA.AperFunction,Plated,PTH,ComponentDrill
T5C0.0394
; #@! TA.AperFunction,Plated,PTH,ComponentDrill
T6C0.0669
; #@! TA.AperFunction,Plated,PTH,ComponentDrill
T7C0.0669
; #@! TA.AperFunction,Plated,PTH,ComponentDrill
T8C0.1000
; #@! TA.AperFunction,Plated,PTH,ComponentDrill
T9C0.1260
%
G90
G05
T1
X3.0315Y-6.6929
X3.9488Y-6.5804
X4.0472Y-6.5804
X4.1457Y-6.5804
X4.2441Y-6.5804
X4.6682Y-6.6929
T2
X3.1681Y-6.8245
X3.1839Y-6.8521
X3.2154Y-6.8521
X3.2311Y-6.8245
X3.2469Y-6.8521
X3.2626Y-6.8245
X3.2941Y-6.8245
X3.3099Y-6.8521
X3.3256Y-6.8245
X3.3414Y-6.8521
X3.3728Y-6.8521
X3.3886Y-6.8245
X4.8059Y-6.8265
X4.8217Y-6.8541
X4.8532Y-6.8541
X4.8689Y-6.8265
X4.8846Y-6.8541
X4.9004Y-6.8265
X4.9319Y-6.8265
X4.9476Y-6.8541
X4.9634Y-6.8265
X4.9791Y-6.8541
X5.0106Y-6.8541
X5.0264Y-6.8265
T3
X2.4253Y-1.4096
X2.4253Y-6.9214
X2.453Y-1.3428
X2.453Y-1.4764
X2.453Y-6.8546
X2.453Y-6.9882
X2.5198Y-1.3151
X2.5198Y-1.5041
X2.5198Y-6.8269
X2.5198Y-7.0159
X2.5866Y-1.3428
X2.5866Y-1.4764
X2.5866Y-6.8546
X2.5866Y-6.9882
X2.6143Y-1.4096
X2.6143Y-6.9214
X5.5749Y-1.4096
X5.5749Y-6.9214
X5.6026Y-1.3428
X5.6026Y-1.4764
X5.6026Y-6.8546
X5.6026Y-6.9882
X5.6694Y-1.3151
X5.6694Y-1.5041
X5.6694Y-6.8269
X5.6694Y-7.0159
X5.7362Y-1.3428
X5.7362Y-1.4764
X5.7362Y-6.8546
X5.7362Y-6.9882
X5.7639Y-1.4096
X5.7639Y-6.9214
T5
X2.6705Y-5.5393
X2.6705Y-5.6393
X2.6705Y-5.7393
X2.6705Y-5.8393
X2.9837Y-3.1257
X2.9837Y-3.2257
X2.9837Y-3.3257
X2.9837Y-3.4257
X2.9837Y-3.5257
X2.9837Y-3.6257
X2.9837Y-3.7257
X2.9837Y-3.8257
X2.9837Y-3.9257
X2.9837Y-4.0257
X2.9837Y-4.1257
X2.9837Y-4.2257
X2.9837Y-4.3257
X2.9837Y-4.4257
X2.9837Y-4.5257
X3.063Y-1.6028
X3.0669Y-5.8836
X3.0837Y-3.1257
X3.0837Y-3.2257
X3.0837Y-3.3257
X3.0837Y-3.4257
X3.0837Y-3.5257
X3.0837Y-3.6257
X3.0837Y-3.7257
X3.0837Y-3.8257
X3.0837Y-3.9257
X3.0837Y-4.0257
X3.0837Y-4.1257
X3.0837Y-4.2257
X3.0837Y-4.3257
X3.0837Y-4.4257
X3.0837Y-4.5257
X3.4961Y-1.6028
X3.5Y-5.8836
X3.6923Y-3.1257
X3.6923Y-3.2257
X3.6923Y-3.3257
X3.6923Y-3.4257
X3.6923Y-3.5257
X3.6923Y-3.6257
X3.6923Y-3.7257
X3.6923Y-3.8257
X3.6923Y-3.9257
X3.6923Y-4.0257
X3.6923Y-4.1257
X3.6923Y-4.2257
X3.6923Y-4.3257
X3.6923Y-4.4257
X3.6923Y-4.5257
X3.7923Y-3.1257
X3.7923Y-3.2257
X3.7923Y-3.3257
X3.7923Y-3.4257
X3.7923Y-3.5257
X3.7923Y-3.6257
X3.7923Y-3.7257
X3.7923Y-3.8257
X3.7923Y-3.9257
X3.7923Y-4.0257
X3.7923Y-4.1257
X3.7923Y-4.2257
X3.7923Y-4.3257
X3.7923Y-4.4257
X3.7923Y-4.5257
X4.401Y-3.1257
X4.401Y-3.2257
X4.401Y-3.3257
X4.401Y-3.4257
X4.401Y-3.5257
X4.401Y-3.6257
X4.401Y-3.7257
X4.401Y-3.8257
X4.401Y-3.9257
X4.401Y-4.0257
X4.401Y-4.1257
X4.401Y-4.2257
X4.401Y-4.3257
X4.401Y-4.4257
X4.401Y-4.5257
X4.501Y-3.1257
X4.501Y-3.2257
X4.501Y-3.3257
X4.501Y-3.4257
X4.501Y-3.5257
X4.501Y-3.6257
X4.501Y-3.7257
X4.501Y-3.8257
X4.501Y-3.9257
X4.501Y-4.0257
X4.501Y-4.1257
X4.501Y-4.2257
X4.501Y-4.3257
X4.501Y-4.4257
X4.501Y-4.5257
X4.6969Y-1.6024
X4.6969Y-5.8836
X5.1096Y-3.1257
X5.1096Y-3.2257
X5.1096Y-3.3257
X5.1096Y-3.4257
X5.1096Y-3.5257
X5.1096Y-3.6257
X5.1096Y-3.7257
X5.1096Y-3.8257
X5.1096Y-3.9257
X5.1096Y-4.0257
X5.1096Y-4.1257
X5.1096Y-4.2257
X5.1096Y-4.3257
X5.1096Y-4.4257
X5.1096Y-4.5257
X5.1299Y-1.6024
X5.1299Y-5.8836
X5.2096Y-3.1257
X5.2096Y-3.2257
X5.2096Y-3.3257
X5.2096Y-3.4257
X5.2096Y-3.5257
X5.2096Y-3.6257
X5.2096Y-3.7257
X5.2096Y-3.8257
X5.2096Y-3.9257
X5.2096Y-4.0257
X5.2096Y-4.1257
X5.2096Y-4.2257
X5.2096Y-4.3257
X5.2096Y-4.4257
X5.2096Y-4.5257
X5.5217Y-5.5403
X5.5217Y-5.6403
X5.5217Y-5.7403
X5.5217Y-5.8403
T6
X3.185Y-6.2773
X3.3819Y-6.2773
X4.815Y-6.2773
X5.0118Y-6.2773
T7
X3.1811Y-1.406
X3.378Y-1.406
X4.815Y-1.4055
X5.0118Y-1.4055
T8
X2.5394Y-2.7244
X2.5394Y-2.9134
X2.5433Y-1.9764
X2.5433Y-2.1654
X3.0337Y-2.3521
X3.0337Y-2.5411
X3.0337Y-5.108
X3.0337Y-5.297
X3.7423Y-2.3521
X3.7423Y-2.5411
X3.7423Y-5.108
X3.7423Y-5.297
X3.8701Y-1.3858
X3.8701Y-1.5748
X4.3189Y-1.3858
X4.3189Y-1.5748
X4.451Y-2.3521
X4.451Y-2.5411
X4.451Y-5.108
X4.451Y-5.297
X5.1596Y-2.3521
X5.1596Y-2.5411
X5.1596Y-5.108
X5.1596Y-5.297
T9
X2.5198Y-1.4096
X2.5198Y-6.9214
X5.6694Y-1.4096
X5.6694Y-6.9214
T4
G00X3.1016Y-7.0092
M15
G01X3.1016Y-7.0328
M16
G05
G00X3.1158Y-6.8363
M15
G01X3.1158Y-6.86
M16
G05
G00X3.4409Y-6.8363
M15
G01X3.4409Y-6.86
M16
G05
G00X3.4551Y-7.0092
M15
G01X3.4551Y-7.0328
M16
G05
G00X4.7394Y-7.0112
M15
G01X4.7394Y-7.0348
M16
G05
G00X4.7535Y-6.8383
M15
G01X4.7535Y-6.8619
M16
G05
G00X5.0787Y-6.8383
M15
G01X5.0787Y-6.8619
M16
G05
G00X5.0929Y-7.0112
M15
G01X5.0929Y-7.0348
M16
G05
M30
