%TF.GenerationSoftware,KiCad,Pcbnew,9.0.0*%
%TF.CreationDate,2025-05-06T23:45:37+04:00*%
%TF.ProjectId,Ebay,45626179-2e6b-4696-9361-645f70636258,rev?*%
%TF.SameCoordinates,Original*%
%TF.FileFunction,Legend,Bot*%
%TF.FilePolarity,Positive*%
%FSLAX46Y46*%
G04 Gerber Fmt 4.6, Leading zero omitted, Abs format (unit mm)*
G04 Created by KiCad (PCBNEW 9.0.0) date 2025-05-06 23:45:37*
%MOMM*%
%LPD*%
G01*
G04 APERTURE LIST*
%ADD10C,0.175000*%
%ADD11C,0.260000*%
%ADD12C,0.000000*%
%ADD13C,0.127000*%
%ADD14C,0.059995*%
%ADD15C,0.254001*%
%ADD16C,4.300025*%
%ADD17O,1.700000X1.700000*%
%ADD18R,1.700000X1.700000*%
%ADD19C,3.800000*%
%ADD20C,0.800000*%
%ADD21C,6.400000*%
%ADD22C,1.508000*%
%ADD23R,2.550000X2.550000*%
%ADD24C,2.550000*%
%ADD25C,0.600000*%
%ADD26O,1.000000X1.600000*%
%ADD27C,1.800000*%
%ADD28C,2.500000*%
G04 APERTURE END LIST*
D10*
X117142964Y-74930090D02*
X116776297Y-74930090D01*
X116619154Y-75506280D02*
X117142964Y-75506280D01*
X117142964Y-75506280D02*
X117142964Y-74406280D01*
X117142964Y-74406280D02*
X116619154Y-74406280D01*
X115781059Y-74930090D02*
X115623916Y-74982471D01*
X115623916Y-74982471D02*
X115571535Y-75034852D01*
X115571535Y-75034852D02*
X115519154Y-75139614D01*
X115519154Y-75139614D02*
X115519154Y-75296757D01*
X115519154Y-75296757D02*
X115571535Y-75401519D01*
X115571535Y-75401519D02*
X115623916Y-75453900D01*
X115623916Y-75453900D02*
X115728678Y-75506280D01*
X115728678Y-75506280D02*
X116147726Y-75506280D01*
X116147726Y-75506280D02*
X116147726Y-74406280D01*
X116147726Y-74406280D02*
X115781059Y-74406280D01*
X115781059Y-74406280D02*
X115676297Y-74458661D01*
X115676297Y-74458661D02*
X115623916Y-74511042D01*
X115623916Y-74511042D02*
X115571535Y-74615804D01*
X115571535Y-74615804D02*
X115571535Y-74720566D01*
X115571535Y-74720566D02*
X115623916Y-74825328D01*
X115623916Y-74825328D02*
X115676297Y-74877709D01*
X115676297Y-74877709D02*
X115781059Y-74930090D01*
X115781059Y-74930090D02*
X116147726Y-74930090D01*
X114576297Y-75506280D02*
X114576297Y-74930090D01*
X114576297Y-74930090D02*
X114628678Y-74825328D01*
X114628678Y-74825328D02*
X114733440Y-74772947D01*
X114733440Y-74772947D02*
X114942964Y-74772947D01*
X114942964Y-74772947D02*
X115047726Y-74825328D01*
X114576297Y-75453900D02*
X114681059Y-75506280D01*
X114681059Y-75506280D02*
X114942964Y-75506280D01*
X114942964Y-75506280D02*
X115047726Y-75453900D01*
X115047726Y-75453900D02*
X115100107Y-75349138D01*
X115100107Y-75349138D02*
X115100107Y-75244376D01*
X115100107Y-75244376D02*
X115047726Y-75139614D01*
X115047726Y-75139614D02*
X114942964Y-75087233D01*
X114942964Y-75087233D02*
X114681059Y-75087233D01*
X114681059Y-75087233D02*
X114576297Y-75034852D01*
X114157250Y-74772947D02*
X113895345Y-75506280D01*
X113633440Y-74772947D02*
X113895345Y-75506280D01*
X113895345Y-75506280D02*
X114000107Y-75768185D01*
X114000107Y-75768185D02*
X114052488Y-75820566D01*
X114052488Y-75820566D02*
X114157250Y-75872947D01*
X112009631Y-74930090D02*
X111852488Y-74982471D01*
X111852488Y-74982471D02*
X111800107Y-75034852D01*
X111800107Y-75034852D02*
X111747726Y-75139614D01*
X111747726Y-75139614D02*
X111747726Y-75296757D01*
X111747726Y-75296757D02*
X111800107Y-75401519D01*
X111800107Y-75401519D02*
X111852488Y-75453900D01*
X111852488Y-75453900D02*
X111957250Y-75506280D01*
X111957250Y-75506280D02*
X112376298Y-75506280D01*
X112376298Y-75506280D02*
X112376298Y-74406280D01*
X112376298Y-74406280D02*
X112009631Y-74406280D01*
X112009631Y-74406280D02*
X111904869Y-74458661D01*
X111904869Y-74458661D02*
X111852488Y-74511042D01*
X111852488Y-74511042D02*
X111800107Y-74615804D01*
X111800107Y-74615804D02*
X111800107Y-74720566D01*
X111800107Y-74720566D02*
X111852488Y-74825328D01*
X111852488Y-74825328D02*
X111904869Y-74877709D01*
X111904869Y-74877709D02*
X112009631Y-74930090D01*
X112009631Y-74930090D02*
X112376298Y-74930090D01*
X110804869Y-75506280D02*
X110804869Y-74930090D01*
X110804869Y-74930090D02*
X110857250Y-74825328D01*
X110857250Y-74825328D02*
X110962012Y-74772947D01*
X110962012Y-74772947D02*
X111171536Y-74772947D01*
X111171536Y-74772947D02*
X111276298Y-74825328D01*
X110804869Y-75453900D02*
X110909631Y-75506280D01*
X110909631Y-75506280D02*
X111171536Y-75506280D01*
X111171536Y-75506280D02*
X111276298Y-75453900D01*
X111276298Y-75453900D02*
X111328679Y-75349138D01*
X111328679Y-75349138D02*
X111328679Y-75244376D01*
X111328679Y-75244376D02*
X111276298Y-75139614D01*
X111276298Y-75139614D02*
X111171536Y-75087233D01*
X111171536Y-75087233D02*
X110909631Y-75087233D01*
X110909631Y-75087233D02*
X110804869Y-75034852D01*
X109809631Y-75453900D02*
X109914393Y-75506280D01*
X109914393Y-75506280D02*
X110123917Y-75506280D01*
X110123917Y-75506280D02*
X110228679Y-75453900D01*
X110228679Y-75453900D02*
X110281060Y-75401519D01*
X110281060Y-75401519D02*
X110333441Y-75296757D01*
X110333441Y-75296757D02*
X110333441Y-74982471D01*
X110333441Y-74982471D02*
X110281060Y-74877709D01*
X110281060Y-74877709D02*
X110228679Y-74825328D01*
X110228679Y-74825328D02*
X110123917Y-74772947D01*
X110123917Y-74772947D02*
X109914393Y-74772947D01*
X109914393Y-74772947D02*
X109809631Y-74825328D01*
X109338203Y-75506280D02*
X109338203Y-74406280D01*
X109233441Y-75087233D02*
X108919155Y-75506280D01*
X108919155Y-74772947D02*
X109338203Y-75191995D01*
X108447727Y-75506280D02*
X108447727Y-74406280D01*
X108447727Y-74825328D02*
X108342965Y-74772947D01*
X108342965Y-74772947D02*
X108133441Y-74772947D01*
X108133441Y-74772947D02*
X108028679Y-74825328D01*
X108028679Y-74825328D02*
X107976298Y-74877709D01*
X107976298Y-74877709D02*
X107923917Y-74982471D01*
X107923917Y-74982471D02*
X107923917Y-75296757D01*
X107923917Y-75296757D02*
X107976298Y-75401519D01*
X107976298Y-75401519D02*
X108028679Y-75453900D01*
X108028679Y-75453900D02*
X108133441Y-75506280D01*
X108133441Y-75506280D02*
X108342965Y-75506280D01*
X108342965Y-75506280D02*
X108447727Y-75453900D01*
X107295346Y-75506280D02*
X107400108Y-75453900D01*
X107400108Y-75453900D02*
X107452489Y-75401519D01*
X107452489Y-75401519D02*
X107504870Y-75296757D01*
X107504870Y-75296757D02*
X107504870Y-74982471D01*
X107504870Y-74982471D02*
X107452489Y-74877709D01*
X107452489Y-74877709D02*
X107400108Y-74825328D01*
X107400108Y-74825328D02*
X107295346Y-74772947D01*
X107295346Y-74772947D02*
X107138203Y-74772947D01*
X107138203Y-74772947D02*
X107033441Y-74825328D01*
X107033441Y-74825328D02*
X106981060Y-74877709D01*
X106981060Y-74877709D02*
X106928679Y-74982471D01*
X106928679Y-74982471D02*
X106928679Y-75296757D01*
X106928679Y-75296757D02*
X106981060Y-75401519D01*
X106981060Y-75401519D02*
X107033441Y-75453900D01*
X107033441Y-75453900D02*
X107138203Y-75506280D01*
X107138203Y-75506280D02*
X107295346Y-75506280D01*
X105985822Y-75506280D02*
X105985822Y-74930090D01*
X105985822Y-74930090D02*
X106038203Y-74825328D01*
X106038203Y-74825328D02*
X106142965Y-74772947D01*
X106142965Y-74772947D02*
X106352489Y-74772947D01*
X106352489Y-74772947D02*
X106457251Y-74825328D01*
X105985822Y-75453900D02*
X106090584Y-75506280D01*
X106090584Y-75506280D02*
X106352489Y-75506280D01*
X106352489Y-75506280D02*
X106457251Y-75453900D01*
X106457251Y-75453900D02*
X106509632Y-75349138D01*
X106509632Y-75349138D02*
X106509632Y-75244376D01*
X106509632Y-75244376D02*
X106457251Y-75139614D01*
X106457251Y-75139614D02*
X106352489Y-75087233D01*
X106352489Y-75087233D02*
X106090584Y-75087233D01*
X106090584Y-75087233D02*
X105985822Y-75034852D01*
X105462013Y-75506280D02*
X105462013Y-74772947D01*
X105462013Y-74982471D02*
X105409632Y-74877709D01*
X105409632Y-74877709D02*
X105357251Y-74825328D01*
X105357251Y-74825328D02*
X105252489Y-74772947D01*
X105252489Y-74772947D02*
X105147727Y-74772947D01*
X104309632Y-75506280D02*
X104309632Y-74406280D01*
X104309632Y-75453900D02*
X104414394Y-75506280D01*
X104414394Y-75506280D02*
X104623918Y-75506280D01*
X104623918Y-75506280D02*
X104728680Y-75453900D01*
X104728680Y-75453900D02*
X104781061Y-75401519D01*
X104781061Y-75401519D02*
X104833442Y-75296757D01*
X104833442Y-75296757D02*
X104833442Y-74982471D01*
X104833442Y-74982471D02*
X104781061Y-74877709D01*
X104781061Y-74877709D02*
X104728680Y-74825328D01*
X104728680Y-74825328D02*
X104623918Y-74772947D01*
X104623918Y-74772947D02*
X104414394Y-74772947D01*
X104414394Y-74772947D02*
X104309632Y-74825328D01*
X103052490Y-74772947D02*
X102790585Y-75506280D01*
X102790585Y-75506280D02*
X102528680Y-74772947D01*
X101900109Y-74406280D02*
X101795347Y-74406280D01*
X101795347Y-74406280D02*
X101690585Y-74458661D01*
X101690585Y-74458661D02*
X101638204Y-74511042D01*
X101638204Y-74511042D02*
X101585823Y-74615804D01*
X101585823Y-74615804D02*
X101533442Y-74825328D01*
X101533442Y-74825328D02*
X101533442Y-75087233D01*
X101533442Y-75087233D02*
X101585823Y-75296757D01*
X101585823Y-75296757D02*
X101638204Y-75401519D01*
X101638204Y-75401519D02*
X101690585Y-75453900D01*
X101690585Y-75453900D02*
X101795347Y-75506280D01*
X101795347Y-75506280D02*
X101900109Y-75506280D01*
X101900109Y-75506280D02*
X102004871Y-75453900D01*
X102004871Y-75453900D02*
X102057252Y-75401519D01*
X102057252Y-75401519D02*
X102109633Y-75296757D01*
X102109633Y-75296757D02*
X102162014Y-75087233D01*
X102162014Y-75087233D02*
X102162014Y-74825328D01*
X102162014Y-74825328D02*
X102109633Y-74615804D01*
X102109633Y-74615804D02*
X102057252Y-74511042D01*
X102057252Y-74511042D02*
X102004871Y-74458661D01*
X102004871Y-74458661D02*
X101900109Y-74406280D01*
X101062014Y-75401519D02*
X101009633Y-75453900D01*
X101009633Y-75453900D02*
X101062014Y-75506280D01*
X101062014Y-75506280D02*
X101114395Y-75453900D01*
X101114395Y-75453900D02*
X101062014Y-75401519D01*
X101062014Y-75401519D02*
X101062014Y-75506280D01*
X99962013Y-75506280D02*
X100590585Y-75506280D01*
X100276299Y-75506280D02*
X100276299Y-74406280D01*
X100276299Y-74406280D02*
X100381061Y-74563423D01*
X100381061Y-74563423D02*
X100485823Y-74668185D01*
X100485823Y-74668185D02*
X100590585Y-74720566D01*
D11*
G36*
X126255165Y-164444828D02*
G01*
X123726953Y-164444828D01*
X123726953Y-162886643D01*
X123871397Y-162886643D01*
X123877047Y-162911494D01*
X124310381Y-164211494D01*
X124320771Y-164234765D01*
X124326858Y-164241784D01*
X124331011Y-164250089D01*
X124343321Y-164260765D01*
X124354005Y-164273084D01*
X124362315Y-164277238D01*
X124369330Y-164283323D01*
X124384790Y-164288476D01*
X124399374Y-164295768D01*
X124408641Y-164296426D01*
X124417451Y-164299363D01*
X124433702Y-164298207D01*
X124449969Y-164299364D01*
X124458784Y-164296425D01*
X124468046Y-164295767D01*
X124482621Y-164288479D01*
X124498090Y-164283323D01*
X124505107Y-164277236D01*
X124513415Y-164273083D01*
X124524094Y-164260768D01*
X124536409Y-164250089D01*
X124540563Y-164241780D01*
X124546649Y-164234764D01*
X124557039Y-164211494D01*
X124756457Y-163613241D01*
X125108471Y-163613241D01*
X125108471Y-163922765D01*
X125110969Y-163948127D01*
X125112756Y-163952443D01*
X125113088Y-163957101D01*
X125122195Y-163980903D01*
X125184101Y-164104713D01*
X125190971Y-164115626D01*
X125192285Y-164118799D01*
X125195216Y-164122370D01*
X125197677Y-164126280D01*
X125200269Y-164128528D01*
X125208452Y-164138499D01*
X125270357Y-164200404D01*
X125280327Y-164208586D01*
X125282576Y-164211179D01*
X125286485Y-164213640D01*
X125290057Y-164216571D01*
X125293228Y-164217884D01*
X125304144Y-164224756D01*
X125427952Y-164286660D01*
X125451754Y-164295767D01*
X125456411Y-164296098D01*
X125460728Y-164297886D01*
X125486090Y-164300384D01*
X125795614Y-164300384D01*
X125820976Y-164297886D01*
X125825290Y-164296099D01*
X125829949Y-164295768D01*
X125853751Y-164286660D01*
X125977561Y-164224756D01*
X125988475Y-164217885D01*
X125991649Y-164216571D01*
X125995221Y-164213639D01*
X125999128Y-164211180D01*
X126001376Y-164208587D01*
X126011349Y-164200403D01*
X126073252Y-164138498D01*
X126089420Y-164118798D01*
X126108830Y-164071936D01*
X126108830Y-164021212D01*
X126089418Y-163974350D01*
X126053551Y-163938483D01*
X126006689Y-163919073D01*
X125955965Y-163919073D01*
X125909103Y-163938485D01*
X125889403Y-163954652D01*
X125842416Y-164001638D01*
X125764925Y-164040384D01*
X125516779Y-164040384D01*
X125439287Y-164001638D01*
X125407218Y-163969569D01*
X125368471Y-163892075D01*
X125368471Y-163643929D01*
X125407215Y-163566440D01*
X125439289Y-163534366D01*
X125516778Y-163495622D01*
X125764924Y-163495622D01*
X125842417Y-163534368D01*
X125889403Y-163581355D01*
X125909103Y-163597522D01*
X125915151Y-163600027D01*
X125920218Y-163604173D01*
X125938405Y-163609660D01*
X125955965Y-163616934D01*
X125962515Y-163616934D01*
X125968779Y-163618824D01*
X125987680Y-163616934D01*
X126006689Y-163616934D01*
X126012738Y-163614428D01*
X126019251Y-163613777D01*
X126035991Y-163604797D01*
X126053551Y-163597524D01*
X126058180Y-163592894D01*
X126063949Y-163589800D01*
X126075981Y-163575093D01*
X126089418Y-163561657D01*
X126091923Y-163555608D01*
X126096069Y-163550542D01*
X126101557Y-163532350D01*
X126108830Y-163514795D01*
X126108830Y-163508248D01*
X126110721Y-163501981D01*
X126110683Y-163476496D01*
X126048779Y-162857449D01*
X126046926Y-162848205D01*
X126046926Y-162845022D01*
X126045689Y-162842037D01*
X126043770Y-162832461D01*
X126034786Y-162815713D01*
X126027515Y-162798160D01*
X126022886Y-162793531D01*
X126019792Y-162787763D01*
X126005085Y-162775730D01*
X125991648Y-162762293D01*
X125985599Y-162759787D01*
X125980534Y-162755643D01*
X125962342Y-162750154D01*
X125944786Y-162742882D01*
X125935068Y-162741924D01*
X125931973Y-162740991D01*
X125928804Y-162741307D01*
X125919424Y-162740384D01*
X125300376Y-162740384D01*
X125275014Y-162742882D01*
X125228152Y-162762293D01*
X125192285Y-162798160D01*
X125172874Y-162845022D01*
X125172874Y-162895746D01*
X125192285Y-162942608D01*
X125228152Y-162978475D01*
X125275014Y-162997886D01*
X125300376Y-163000384D01*
X125801775Y-163000384D01*
X125825730Y-163239939D01*
X125825292Y-163239907D01*
X125820976Y-163238120D01*
X125795614Y-163235622D01*
X125486090Y-163235622D01*
X125460728Y-163238120D01*
X125456411Y-163239907D01*
X125451754Y-163240239D01*
X125427952Y-163249347D01*
X125304143Y-163311252D01*
X125293229Y-163318122D01*
X125290057Y-163319436D01*
X125286485Y-163322367D01*
X125282576Y-163324828D01*
X125280327Y-163327420D01*
X125270357Y-163335603D01*
X125208452Y-163397508D01*
X125200272Y-163407475D01*
X125197677Y-163409726D01*
X125195214Y-163413638D01*
X125192285Y-163417208D01*
X125190971Y-163420378D01*
X125184101Y-163431294D01*
X125122196Y-163555103D01*
X125113088Y-163578904D01*
X125112756Y-163583562D01*
X125110969Y-163587879D01*
X125108471Y-163613241D01*
X124756457Y-163613241D01*
X124990372Y-162911494D01*
X124996022Y-162886643D01*
X124992426Y-162836048D01*
X124969742Y-162790679D01*
X124931423Y-162757445D01*
X124883302Y-162741405D01*
X124832707Y-162745001D01*
X124787338Y-162767685D01*
X124754104Y-162806004D01*
X124743714Y-162829275D01*
X124433709Y-163759287D01*
X124123705Y-162829274D01*
X124113315Y-162806004D01*
X124080081Y-162767685D01*
X124034712Y-162745001D01*
X123984117Y-162741405D01*
X123935996Y-162757445D01*
X123897677Y-162790679D01*
X123874993Y-162836048D01*
X123871397Y-162886643D01*
X123726953Y-162886643D01*
X123726953Y-162595940D01*
X126255165Y-162595940D01*
X126255165Y-164444828D01*
G37*
G36*
X83413843Y-162896128D02*
G01*
X83497276Y-162979561D01*
X83546566Y-163176723D01*
X83546566Y-163578045D01*
X83497276Y-163775207D01*
X83413846Y-163858638D01*
X83336354Y-163897384D01*
X83150113Y-163897384D01*
X83072620Y-163858638D01*
X82989190Y-163775208D01*
X82939900Y-163578048D01*
X82939900Y-163176720D01*
X82989190Y-162979560D01*
X83072620Y-162896130D01*
X83150112Y-162857384D01*
X83336355Y-162857384D01*
X83413843Y-162896128D01*
G37*
G36*
X86178561Y-164425638D02*
G01*
X80061763Y-164425638D01*
X80061763Y-162702022D01*
X80206207Y-162702022D01*
X80206207Y-162752746D01*
X80225618Y-162799608D01*
X80261485Y-162835475D01*
X80308347Y-162854886D01*
X80333709Y-162857384D01*
X80575137Y-162857384D01*
X80575137Y-164027384D01*
X80577635Y-164052746D01*
X80597046Y-164099608D01*
X80632913Y-164135475D01*
X80679775Y-164154886D01*
X80730499Y-164154886D01*
X80777361Y-164135475D01*
X80813228Y-164099608D01*
X80832639Y-164052746D01*
X80835137Y-164027384D01*
X80835137Y-162857384D01*
X81076566Y-162857384D01*
X81101928Y-162854886D01*
X81148790Y-162835475D01*
X81184657Y-162799608D01*
X81204068Y-162752746D01*
X81204068Y-162727384D01*
X81379900Y-162727384D01*
X81379900Y-163779765D01*
X81382398Y-163805127D01*
X81384184Y-163809441D01*
X81384516Y-163814100D01*
X81393624Y-163837902D01*
X81455528Y-163961712D01*
X81462399Y-163972628D01*
X81463713Y-163975799D01*
X81466642Y-163979368D01*
X81469104Y-163983279D01*
X81471697Y-163985528D01*
X81479880Y-163995499D01*
X81541785Y-164057404D01*
X81551755Y-164065586D01*
X81554005Y-164068180D01*
X81557915Y-164070641D01*
X81561485Y-164073571D01*
X81564655Y-164074884D01*
X81575572Y-164081756D01*
X81699382Y-164143660D01*
X81723183Y-164152768D01*
X81727843Y-164153099D01*
X81732157Y-164154886D01*
X81757519Y-164157384D01*
X82005138Y-164157384D01*
X82030500Y-164154886D01*
X82034813Y-164153099D01*
X82039474Y-164152768D01*
X82063275Y-164143660D01*
X82187084Y-164081756D01*
X82197998Y-164074885D01*
X82201171Y-164073571D01*
X82204745Y-164070637D01*
X82208651Y-164068179D01*
X82210897Y-164065588D01*
X82220871Y-164057404D01*
X82282776Y-163995499D01*
X82290958Y-163985528D01*
X82293551Y-163983280D01*
X82296012Y-163979369D01*
X82298943Y-163975799D01*
X82300256Y-163972629D01*
X82307128Y-163961713D01*
X82369033Y-163837903D01*
X82378141Y-163814101D01*
X82378472Y-163809440D01*
X82380259Y-163805127D01*
X82382757Y-163779765D01*
X82382757Y-163160718D01*
X82679900Y-163160718D01*
X82679900Y-163594051D01*
X82680335Y-163598475D01*
X82680054Y-163600370D01*
X82681456Y-163609855D01*
X82682398Y-163619413D01*
X82683131Y-163621184D01*
X82683782Y-163625581D01*
X82745687Y-163873200D01*
X82754261Y-163897199D01*
X82760016Y-163904967D01*
X82763714Y-163913893D01*
X82779881Y-163933594D01*
X82903690Y-164057403D01*
X82913659Y-164065584D01*
X82915910Y-164068180D01*
X82919821Y-164070641D01*
X82923390Y-164073571D01*
X82926560Y-164074884D01*
X82937477Y-164081756D01*
X83061287Y-164143660D01*
X83085088Y-164152768D01*
X83089748Y-164153099D01*
X83094062Y-164154886D01*
X83119424Y-164157384D01*
X83367043Y-164157384D01*
X83392405Y-164154886D01*
X83396718Y-164153099D01*
X83401379Y-164152768D01*
X83425180Y-164143660D01*
X83460836Y-164125832D01*
X83796683Y-164125832D01*
X83796683Y-164176556D01*
X83816094Y-164223418D01*
X83851961Y-164259285D01*
X83898823Y-164278696D01*
X83924185Y-164281194D01*
X84914662Y-164281194D01*
X84940024Y-164278696D01*
X84986886Y-164259285D01*
X85022753Y-164223418D01*
X85042164Y-164176556D01*
X85042164Y-164125832D01*
X85022753Y-164078970D01*
X84986886Y-164043103D01*
X84940024Y-164023692D01*
X84914662Y-164021194D01*
X83924185Y-164021194D01*
X83898823Y-164023692D01*
X83851961Y-164043103D01*
X83816094Y-164078970D01*
X83796683Y-164125832D01*
X83460836Y-164125832D01*
X83548989Y-164081756D01*
X83559903Y-164074885D01*
X83563076Y-164073571D01*
X83566650Y-164070637D01*
X83570556Y-164068179D01*
X83572802Y-164065588D01*
X83582776Y-164057404D01*
X83706586Y-163933594D01*
X83722753Y-163913894D01*
X83726452Y-163904963D01*
X83732206Y-163897198D01*
X83740781Y-163873199D01*
X83802685Y-163625580D01*
X83803335Y-163621182D01*
X83804068Y-163619413D01*
X83805008Y-163609860D01*
X83806412Y-163600369D01*
X83806130Y-163598475D01*
X83806566Y-163594051D01*
X83806566Y-163160718D01*
X83806130Y-163156293D01*
X83806412Y-163154400D01*
X83805008Y-163144908D01*
X83804068Y-163135356D01*
X83803335Y-163133586D01*
X83802685Y-163129189D01*
X83740781Y-162881570D01*
X83732206Y-162857571D01*
X83726452Y-162849805D01*
X83722753Y-162840875D01*
X83706586Y-162821175D01*
X83629054Y-162743643D01*
X84909492Y-162743643D01*
X84915142Y-162768494D01*
X85348476Y-164068494D01*
X85358866Y-164091765D01*
X85364953Y-164098784D01*
X85369106Y-164107089D01*
X85381416Y-164117765D01*
X85392100Y-164130084D01*
X85400410Y-164134238D01*
X85407425Y-164140323D01*
X85422885Y-164145476D01*
X85437469Y-164152768D01*
X85446736Y-164153426D01*
X85455546Y-164156363D01*
X85471797Y-164155207D01*
X85488064Y-164156364D01*
X85496879Y-164153425D01*
X85506141Y-164152767D01*
X85520716Y-164145479D01*
X85536185Y-164140323D01*
X85543202Y-164134236D01*
X85551510Y-164130083D01*
X85562189Y-164117768D01*
X85574504Y-164107089D01*
X85578658Y-164098780D01*
X85584744Y-164091764D01*
X85595134Y-164068494D01*
X86028467Y-162768494D01*
X86034117Y-162743643D01*
X86030521Y-162693048D01*
X86007837Y-162647679D01*
X85969518Y-162614445D01*
X85921397Y-162598405D01*
X85870802Y-162602001D01*
X85825433Y-162624685D01*
X85792199Y-162663004D01*
X85781809Y-162686275D01*
X85471804Y-163616287D01*
X85161800Y-162686274D01*
X85151410Y-162663004D01*
X85118176Y-162624685D01*
X85072807Y-162602001D01*
X85022212Y-162598405D01*
X84974091Y-162614445D01*
X84935772Y-162647679D01*
X84913088Y-162693048D01*
X84909492Y-162743643D01*
X83629054Y-162743643D01*
X83582776Y-162697365D01*
X83572808Y-162689185D01*
X83570558Y-162686590D01*
X83566645Y-162684127D01*
X83563076Y-162681198D01*
X83559905Y-162679884D01*
X83548990Y-162673014D01*
X83425181Y-162611109D01*
X83401380Y-162602001D01*
X83396721Y-162601669D01*
X83392405Y-162599882D01*
X83367043Y-162597384D01*
X83119424Y-162597384D01*
X83094062Y-162599882D01*
X83089748Y-162601668D01*
X83085088Y-162602000D01*
X83061286Y-162611108D01*
X82937476Y-162673013D01*
X82926559Y-162679884D01*
X82923390Y-162681198D01*
X82919820Y-162684127D01*
X82915909Y-162686590D01*
X82913658Y-162689184D01*
X82903690Y-162697366D01*
X82779881Y-162821175D01*
X82763714Y-162840876D01*
X82760016Y-162849801D01*
X82754261Y-162857570D01*
X82745687Y-162881569D01*
X82683782Y-163129188D01*
X82683131Y-163133584D01*
X82682398Y-163135356D01*
X82681456Y-163144913D01*
X82680054Y-163154399D01*
X82680335Y-163156293D01*
X82679900Y-163160718D01*
X82382757Y-163160718D01*
X82382757Y-162727384D01*
X82380259Y-162702022D01*
X82360848Y-162655160D01*
X82324981Y-162619293D01*
X82278119Y-162599882D01*
X82227395Y-162599882D01*
X82180533Y-162619293D01*
X82144666Y-162655160D01*
X82125255Y-162702022D01*
X82122757Y-162727384D01*
X82122757Y-163749076D01*
X82084010Y-163826568D01*
X82051941Y-163858638D01*
X81974449Y-163897384D01*
X81788208Y-163897384D01*
X81710715Y-163858638D01*
X81678645Y-163826568D01*
X81639900Y-163749076D01*
X81639900Y-162727384D01*
X81637402Y-162702022D01*
X81617991Y-162655160D01*
X81582124Y-162619293D01*
X81535262Y-162599882D01*
X81484538Y-162599882D01*
X81437676Y-162619293D01*
X81401809Y-162655160D01*
X81382398Y-162702022D01*
X81379900Y-162727384D01*
X81204068Y-162727384D01*
X81204068Y-162702022D01*
X81184657Y-162655160D01*
X81148790Y-162619293D01*
X81101928Y-162599882D01*
X81076566Y-162597384D01*
X80333709Y-162597384D01*
X80308347Y-162599882D01*
X80261485Y-162619293D01*
X80225618Y-162655160D01*
X80206207Y-162702022D01*
X80061763Y-162702022D01*
X80061763Y-162452940D01*
X86178561Y-162452940D01*
X86178561Y-164425638D01*
G37*
G36*
X126155165Y-126501828D02*
G01*
X123626953Y-126501828D01*
X123626953Y-124943643D01*
X123771397Y-124943643D01*
X123777047Y-124968494D01*
X124210381Y-126268494D01*
X124220771Y-126291765D01*
X124226858Y-126298784D01*
X124231011Y-126307089D01*
X124243321Y-126317765D01*
X124254005Y-126330084D01*
X124262315Y-126334238D01*
X124269330Y-126340323D01*
X124284790Y-126345476D01*
X124299374Y-126352768D01*
X124308641Y-126353426D01*
X124317451Y-126356363D01*
X124333702Y-126355207D01*
X124349969Y-126356364D01*
X124358784Y-126353425D01*
X124368046Y-126352767D01*
X124382621Y-126345479D01*
X124398090Y-126340323D01*
X124405107Y-126334236D01*
X124413415Y-126330083D01*
X124424094Y-126317768D01*
X124436409Y-126307089D01*
X124440563Y-126298780D01*
X124446649Y-126291764D01*
X124457039Y-126268494D01*
X124656457Y-125670241D01*
X125008471Y-125670241D01*
X125008471Y-125979765D01*
X125010969Y-126005127D01*
X125012756Y-126009443D01*
X125013088Y-126014101D01*
X125022195Y-126037903D01*
X125084101Y-126161713D01*
X125090971Y-126172626D01*
X125092285Y-126175799D01*
X125095216Y-126179370D01*
X125097677Y-126183280D01*
X125100269Y-126185528D01*
X125108452Y-126195499D01*
X125170357Y-126257404D01*
X125180327Y-126265586D01*
X125182576Y-126268179D01*
X125186485Y-126270640D01*
X125190057Y-126273571D01*
X125193228Y-126274884D01*
X125204144Y-126281756D01*
X125327952Y-126343660D01*
X125351754Y-126352767D01*
X125356411Y-126353098D01*
X125360728Y-126354886D01*
X125386090Y-126357384D01*
X125695614Y-126357384D01*
X125720976Y-126354886D01*
X125725290Y-126353099D01*
X125729949Y-126352768D01*
X125753751Y-126343660D01*
X125877561Y-126281756D01*
X125888475Y-126274885D01*
X125891649Y-126273571D01*
X125895221Y-126270639D01*
X125899128Y-126268180D01*
X125901376Y-126265587D01*
X125911349Y-126257403D01*
X125973252Y-126195498D01*
X125989420Y-126175798D01*
X126008830Y-126128936D01*
X126008830Y-126078212D01*
X125989418Y-126031350D01*
X125953551Y-125995483D01*
X125906689Y-125976073D01*
X125855965Y-125976073D01*
X125809103Y-125995485D01*
X125789403Y-126011652D01*
X125742416Y-126058638D01*
X125664925Y-126097384D01*
X125416779Y-126097384D01*
X125339287Y-126058638D01*
X125307218Y-126026569D01*
X125268471Y-125949075D01*
X125268471Y-125700929D01*
X125307215Y-125623440D01*
X125339289Y-125591366D01*
X125416778Y-125552622D01*
X125664924Y-125552622D01*
X125742417Y-125591368D01*
X125789403Y-125638355D01*
X125809103Y-125654522D01*
X125815151Y-125657027D01*
X125820218Y-125661173D01*
X125838405Y-125666660D01*
X125855965Y-125673934D01*
X125862515Y-125673934D01*
X125868779Y-125675824D01*
X125887680Y-125673934D01*
X125906689Y-125673934D01*
X125912738Y-125671428D01*
X125919251Y-125670777D01*
X125935991Y-125661797D01*
X125953551Y-125654524D01*
X125958180Y-125649894D01*
X125963949Y-125646800D01*
X125975981Y-125632093D01*
X125989418Y-125618657D01*
X125991923Y-125612608D01*
X125996069Y-125607542D01*
X126001557Y-125589350D01*
X126008830Y-125571795D01*
X126008830Y-125565248D01*
X126010721Y-125558981D01*
X126010683Y-125533496D01*
X125948779Y-124914449D01*
X125946926Y-124905205D01*
X125946926Y-124902022D01*
X125945689Y-124899037D01*
X125943770Y-124889461D01*
X125934786Y-124872713D01*
X125927515Y-124855160D01*
X125922886Y-124850531D01*
X125919792Y-124844763D01*
X125905085Y-124832730D01*
X125891648Y-124819293D01*
X125885599Y-124816787D01*
X125880534Y-124812643D01*
X125862342Y-124807154D01*
X125844786Y-124799882D01*
X125835068Y-124798924D01*
X125831973Y-124797991D01*
X125828804Y-124798307D01*
X125819424Y-124797384D01*
X125200376Y-124797384D01*
X125175014Y-124799882D01*
X125128152Y-124819293D01*
X125092285Y-124855160D01*
X125072874Y-124902022D01*
X125072874Y-124952746D01*
X125092285Y-124999608D01*
X125128152Y-125035475D01*
X125175014Y-125054886D01*
X125200376Y-125057384D01*
X125701775Y-125057384D01*
X125725730Y-125296939D01*
X125725292Y-125296907D01*
X125720976Y-125295120D01*
X125695614Y-125292622D01*
X125386090Y-125292622D01*
X125360728Y-125295120D01*
X125356411Y-125296907D01*
X125351754Y-125297239D01*
X125327952Y-125306347D01*
X125204143Y-125368252D01*
X125193229Y-125375122D01*
X125190057Y-125376436D01*
X125186485Y-125379367D01*
X125182576Y-125381828D01*
X125180327Y-125384420D01*
X125170357Y-125392603D01*
X125108452Y-125454508D01*
X125100272Y-125464475D01*
X125097677Y-125466726D01*
X125095214Y-125470638D01*
X125092285Y-125474208D01*
X125090971Y-125477378D01*
X125084101Y-125488294D01*
X125022196Y-125612103D01*
X125013088Y-125635904D01*
X125012756Y-125640562D01*
X125010969Y-125644879D01*
X125008471Y-125670241D01*
X124656457Y-125670241D01*
X124890372Y-124968494D01*
X124896022Y-124943643D01*
X124892426Y-124893048D01*
X124869742Y-124847679D01*
X124831423Y-124814445D01*
X124783302Y-124798405D01*
X124732707Y-124802001D01*
X124687338Y-124824685D01*
X124654104Y-124863004D01*
X124643714Y-124886275D01*
X124333709Y-125816287D01*
X124023705Y-124886274D01*
X124013315Y-124863004D01*
X123980081Y-124824685D01*
X123934712Y-124802001D01*
X123884117Y-124798405D01*
X123835996Y-124814445D01*
X123797677Y-124847679D01*
X123774993Y-124893048D01*
X123771397Y-124943643D01*
X123626953Y-124943643D01*
X123626953Y-124652940D01*
X126155165Y-124652940D01*
X126155165Y-126501828D01*
G37*
G36*
X84778561Y-34101510D02*
G01*
X81568789Y-34101510D01*
X81568789Y-32527384D01*
X81713233Y-32527384D01*
X81713233Y-33827384D01*
X81713875Y-33833909D01*
X81713551Y-33836464D01*
X81714453Y-33839771D01*
X81715731Y-33852746D01*
X81722348Y-33868721D01*
X81726897Y-33885400D01*
X81731970Y-33891951D01*
X81735142Y-33899608D01*
X81747367Y-33911833D01*
X81757954Y-33925504D01*
X81765149Y-33929615D01*
X81771009Y-33935475D01*
X81786982Y-33942091D01*
X81801995Y-33950670D01*
X81810215Y-33951714D01*
X81817871Y-33954886D01*
X81835163Y-33954886D01*
X81852313Y-33957066D01*
X81860306Y-33954886D01*
X81868595Y-33954886D01*
X81884570Y-33948268D01*
X81901249Y-33943720D01*
X81907800Y-33938646D01*
X81915457Y-33935475D01*
X81927682Y-33923249D01*
X81941353Y-33912663D01*
X81948899Y-33902032D01*
X81951324Y-33899608D01*
X81952309Y-33897228D01*
X81956105Y-33891882D01*
X82456090Y-33016906D01*
X82456090Y-33827384D01*
X82458588Y-33852746D01*
X82477999Y-33899608D01*
X82513866Y-33935475D01*
X82560728Y-33954886D01*
X82611452Y-33954886D01*
X82658314Y-33935475D01*
X82694181Y-33899608D01*
X82713592Y-33852746D01*
X82716090Y-33827384D01*
X82716090Y-32527384D01*
X83075138Y-32527384D01*
X83075138Y-33827384D01*
X83077636Y-33852746D01*
X83097047Y-33899608D01*
X83132914Y-33935475D01*
X83179776Y-33954886D01*
X83230500Y-33954886D01*
X83277362Y-33935475D01*
X83313229Y-33899608D01*
X83332640Y-33852746D01*
X83335138Y-33827384D01*
X83335138Y-32543643D01*
X83509492Y-32543643D01*
X83515142Y-32568494D01*
X83948476Y-33868494D01*
X83958866Y-33891765D01*
X83964953Y-33898784D01*
X83969106Y-33907089D01*
X83981416Y-33917765D01*
X83992100Y-33930084D01*
X84000410Y-33934238D01*
X84007425Y-33940323D01*
X84022885Y-33945476D01*
X84037469Y-33952768D01*
X84046736Y-33953426D01*
X84055546Y-33956363D01*
X84071797Y-33955207D01*
X84088064Y-33956364D01*
X84096879Y-33953425D01*
X84106141Y-33952767D01*
X84120716Y-33945479D01*
X84136185Y-33940323D01*
X84143202Y-33934236D01*
X84151510Y-33930083D01*
X84162189Y-33917768D01*
X84174504Y-33907089D01*
X84178658Y-33898780D01*
X84184744Y-33891764D01*
X84195134Y-33868494D01*
X84628467Y-32568494D01*
X84634117Y-32543643D01*
X84630521Y-32493048D01*
X84607837Y-32447679D01*
X84569518Y-32414445D01*
X84521397Y-32398405D01*
X84470802Y-32402001D01*
X84425433Y-32424685D01*
X84392199Y-32463004D01*
X84381809Y-32486275D01*
X84071804Y-33416287D01*
X83761800Y-32486274D01*
X83751410Y-32463004D01*
X83718176Y-32424685D01*
X83672807Y-32402001D01*
X83622212Y-32398405D01*
X83574091Y-32414445D01*
X83535772Y-32447679D01*
X83513088Y-32493048D01*
X83509492Y-32543643D01*
X83335138Y-32543643D01*
X83335138Y-32527384D01*
X83332640Y-32502022D01*
X83313229Y-32455160D01*
X83277362Y-32419293D01*
X83230500Y-32399882D01*
X83179776Y-32399882D01*
X83132914Y-32419293D01*
X83097047Y-32455160D01*
X83077636Y-32502022D01*
X83075138Y-32527384D01*
X82716090Y-32527384D01*
X82715447Y-32520858D01*
X82715772Y-32518304D01*
X82714869Y-32514996D01*
X82713592Y-32502022D01*
X82706974Y-32486046D01*
X82702426Y-32469368D01*
X82697352Y-32462816D01*
X82694181Y-32455160D01*
X82681953Y-32442932D01*
X82671369Y-32429265D01*
X82664175Y-32425154D01*
X82658314Y-32419293D01*
X82642334Y-32412673D01*
X82627328Y-32404099D01*
X82619110Y-32403054D01*
X82611452Y-32399882D01*
X82594158Y-32399882D01*
X82577010Y-32397702D01*
X82569017Y-32399882D01*
X82560728Y-32399882D01*
X82544752Y-32406499D01*
X82528074Y-32411048D01*
X82521522Y-32416121D01*
X82513866Y-32419293D01*
X82501640Y-32431518D01*
X82487970Y-32442105D01*
X82480423Y-32452735D01*
X82477999Y-32455160D01*
X82477013Y-32457539D01*
X82473218Y-32462886D01*
X81973233Y-33337859D01*
X81973233Y-32527384D01*
X81970735Y-32502022D01*
X81951324Y-32455160D01*
X81915457Y-32419293D01*
X81868595Y-32399882D01*
X81817871Y-32399882D01*
X81771009Y-32419293D01*
X81735142Y-32455160D01*
X81715731Y-32502022D01*
X81713233Y-32527384D01*
X81568789Y-32527384D01*
X81568789Y-32253258D01*
X84778561Y-32253258D01*
X84778561Y-34101510D01*
G37*
G36*
X83583843Y-124996128D02*
G01*
X83667276Y-125079561D01*
X83716566Y-125276723D01*
X83716566Y-125678045D01*
X83667276Y-125875207D01*
X83583846Y-125958638D01*
X83506354Y-125997384D01*
X83320113Y-125997384D01*
X83242620Y-125958638D01*
X83159190Y-125875208D01*
X83109900Y-125678048D01*
X83109900Y-125276720D01*
X83159190Y-125079560D01*
X83242620Y-124996130D01*
X83320112Y-124957384D01*
X83506355Y-124957384D01*
X83583843Y-124996128D01*
G37*
G36*
X86348561Y-126525638D02*
G01*
X80231763Y-126525638D01*
X80231763Y-124802022D01*
X80376207Y-124802022D01*
X80376207Y-124852746D01*
X80395618Y-124899608D01*
X80431485Y-124935475D01*
X80478347Y-124954886D01*
X80503709Y-124957384D01*
X80745137Y-124957384D01*
X80745137Y-126127384D01*
X80747635Y-126152746D01*
X80767046Y-126199608D01*
X80802913Y-126235475D01*
X80849775Y-126254886D01*
X80900499Y-126254886D01*
X80947361Y-126235475D01*
X80983228Y-126199608D01*
X81002639Y-126152746D01*
X81005137Y-126127384D01*
X81005137Y-124957384D01*
X81246566Y-124957384D01*
X81271928Y-124954886D01*
X81318790Y-124935475D01*
X81354657Y-124899608D01*
X81374068Y-124852746D01*
X81374068Y-124827384D01*
X81549900Y-124827384D01*
X81549900Y-125879765D01*
X81552398Y-125905127D01*
X81554184Y-125909441D01*
X81554516Y-125914100D01*
X81563624Y-125937902D01*
X81625528Y-126061712D01*
X81632399Y-126072628D01*
X81633713Y-126075799D01*
X81636642Y-126079368D01*
X81639104Y-126083279D01*
X81641697Y-126085528D01*
X81649880Y-126095499D01*
X81711785Y-126157404D01*
X81721755Y-126165586D01*
X81724005Y-126168180D01*
X81727915Y-126170641D01*
X81731485Y-126173571D01*
X81734655Y-126174884D01*
X81745572Y-126181756D01*
X81869382Y-126243660D01*
X81893183Y-126252768D01*
X81897843Y-126253099D01*
X81902157Y-126254886D01*
X81927519Y-126257384D01*
X82175138Y-126257384D01*
X82200500Y-126254886D01*
X82204813Y-126253099D01*
X82209474Y-126252768D01*
X82233275Y-126243660D01*
X82357084Y-126181756D01*
X82367998Y-126174885D01*
X82371171Y-126173571D01*
X82374745Y-126170637D01*
X82378651Y-126168179D01*
X82380897Y-126165588D01*
X82390871Y-126157404D01*
X82452776Y-126095499D01*
X82460958Y-126085528D01*
X82463551Y-126083280D01*
X82466012Y-126079369D01*
X82468943Y-126075799D01*
X82470256Y-126072629D01*
X82477128Y-126061713D01*
X82539033Y-125937903D01*
X82548141Y-125914101D01*
X82548472Y-125909440D01*
X82550259Y-125905127D01*
X82552757Y-125879765D01*
X82552757Y-125260718D01*
X82849900Y-125260718D01*
X82849900Y-125694051D01*
X82850335Y-125698475D01*
X82850054Y-125700370D01*
X82851456Y-125709855D01*
X82852398Y-125719413D01*
X82853131Y-125721184D01*
X82853782Y-125725581D01*
X82915687Y-125973200D01*
X82924261Y-125997199D01*
X82930016Y-126004967D01*
X82933714Y-126013893D01*
X82949881Y-126033594D01*
X83073690Y-126157403D01*
X83083659Y-126165584D01*
X83085910Y-126168180D01*
X83089821Y-126170641D01*
X83093390Y-126173571D01*
X83096560Y-126174884D01*
X83107477Y-126181756D01*
X83231287Y-126243660D01*
X83255088Y-126252768D01*
X83259748Y-126253099D01*
X83264062Y-126254886D01*
X83289424Y-126257384D01*
X83537043Y-126257384D01*
X83562405Y-126254886D01*
X83566718Y-126253099D01*
X83571379Y-126252768D01*
X83595180Y-126243660D01*
X83630836Y-126225832D01*
X83966683Y-126225832D01*
X83966683Y-126276556D01*
X83986094Y-126323418D01*
X84021961Y-126359285D01*
X84068823Y-126378696D01*
X84094185Y-126381194D01*
X85084662Y-126381194D01*
X85110024Y-126378696D01*
X85156886Y-126359285D01*
X85192753Y-126323418D01*
X85212164Y-126276556D01*
X85212164Y-126225832D01*
X85192753Y-126178970D01*
X85156886Y-126143103D01*
X85110024Y-126123692D01*
X85084662Y-126121194D01*
X84094185Y-126121194D01*
X84068823Y-126123692D01*
X84021961Y-126143103D01*
X83986094Y-126178970D01*
X83966683Y-126225832D01*
X83630836Y-126225832D01*
X83718989Y-126181756D01*
X83729903Y-126174885D01*
X83733076Y-126173571D01*
X83736650Y-126170637D01*
X83740556Y-126168179D01*
X83742802Y-126165588D01*
X83752776Y-126157404D01*
X83876586Y-126033594D01*
X83892753Y-126013894D01*
X83896452Y-126004963D01*
X83902206Y-125997198D01*
X83910781Y-125973199D01*
X83972685Y-125725580D01*
X83973335Y-125721182D01*
X83974068Y-125719413D01*
X83975008Y-125709860D01*
X83976412Y-125700369D01*
X83976130Y-125698475D01*
X83976566Y-125694051D01*
X83976566Y-125260718D01*
X83976130Y-125256293D01*
X83976412Y-125254400D01*
X83975008Y-125244908D01*
X83974068Y-125235356D01*
X83973335Y-125233586D01*
X83972685Y-125229189D01*
X83910781Y-124981570D01*
X83902206Y-124957571D01*
X83896452Y-124949805D01*
X83892753Y-124940875D01*
X83876586Y-124921175D01*
X83799054Y-124843643D01*
X85079492Y-124843643D01*
X85085142Y-124868494D01*
X85518476Y-126168494D01*
X85528866Y-126191765D01*
X85534953Y-126198784D01*
X85539106Y-126207089D01*
X85551416Y-126217765D01*
X85562100Y-126230084D01*
X85570410Y-126234238D01*
X85577425Y-126240323D01*
X85592885Y-126245476D01*
X85607469Y-126252768D01*
X85616736Y-126253426D01*
X85625546Y-126256363D01*
X85641797Y-126255207D01*
X85658064Y-126256364D01*
X85666879Y-126253425D01*
X85676141Y-126252767D01*
X85690716Y-126245479D01*
X85706185Y-126240323D01*
X85713202Y-126234236D01*
X85721510Y-126230083D01*
X85732189Y-126217768D01*
X85744504Y-126207089D01*
X85748658Y-126198780D01*
X85754744Y-126191764D01*
X85765134Y-126168494D01*
X86198467Y-124868494D01*
X86204117Y-124843643D01*
X86200521Y-124793048D01*
X86177837Y-124747679D01*
X86139518Y-124714445D01*
X86091397Y-124698405D01*
X86040802Y-124702001D01*
X85995433Y-124724685D01*
X85962199Y-124763004D01*
X85951809Y-124786275D01*
X85641804Y-125716287D01*
X85331800Y-124786274D01*
X85321410Y-124763004D01*
X85288176Y-124724685D01*
X85242807Y-124702001D01*
X85192212Y-124698405D01*
X85144091Y-124714445D01*
X85105772Y-124747679D01*
X85083088Y-124793048D01*
X85079492Y-124843643D01*
X83799054Y-124843643D01*
X83752776Y-124797365D01*
X83742808Y-124789185D01*
X83740558Y-124786590D01*
X83736645Y-124784127D01*
X83733076Y-124781198D01*
X83729905Y-124779884D01*
X83718990Y-124773014D01*
X83595181Y-124711109D01*
X83571380Y-124702001D01*
X83566721Y-124701669D01*
X83562405Y-124699882D01*
X83537043Y-124697384D01*
X83289424Y-124697384D01*
X83264062Y-124699882D01*
X83259748Y-124701668D01*
X83255088Y-124702000D01*
X83231286Y-124711108D01*
X83107476Y-124773013D01*
X83096559Y-124779884D01*
X83093390Y-124781198D01*
X83089820Y-124784127D01*
X83085909Y-124786590D01*
X83083658Y-124789184D01*
X83073690Y-124797366D01*
X82949881Y-124921175D01*
X82933714Y-124940876D01*
X82930016Y-124949801D01*
X82924261Y-124957570D01*
X82915687Y-124981569D01*
X82853782Y-125229188D01*
X82853131Y-125233584D01*
X82852398Y-125235356D01*
X82851456Y-125244913D01*
X82850054Y-125254399D01*
X82850335Y-125256293D01*
X82849900Y-125260718D01*
X82552757Y-125260718D01*
X82552757Y-124827384D01*
X82550259Y-124802022D01*
X82530848Y-124755160D01*
X82494981Y-124719293D01*
X82448119Y-124699882D01*
X82397395Y-124699882D01*
X82350533Y-124719293D01*
X82314666Y-124755160D01*
X82295255Y-124802022D01*
X82292757Y-124827384D01*
X82292757Y-125849076D01*
X82254010Y-125926568D01*
X82221941Y-125958638D01*
X82144449Y-125997384D01*
X81958208Y-125997384D01*
X81880715Y-125958638D01*
X81848645Y-125926568D01*
X81809900Y-125849076D01*
X81809900Y-124827384D01*
X81807402Y-124802022D01*
X81787991Y-124755160D01*
X81752124Y-124719293D01*
X81705262Y-124699882D01*
X81654538Y-124699882D01*
X81607676Y-124719293D01*
X81571809Y-124755160D01*
X81552398Y-124802022D01*
X81549900Y-124827384D01*
X81374068Y-124827384D01*
X81374068Y-124802022D01*
X81354657Y-124755160D01*
X81318790Y-124719293D01*
X81271928Y-124699882D01*
X81246566Y-124697384D01*
X80503709Y-124697384D01*
X80478347Y-124699882D01*
X80431485Y-124719293D01*
X80395618Y-124755160D01*
X80376207Y-124802022D01*
X80231763Y-124802022D01*
X80231763Y-124552940D01*
X86348561Y-124552940D01*
X86348561Y-126525638D01*
G37*
G36*
X126278561Y-34101510D02*
G01*
X123068789Y-34101510D01*
X123068789Y-32527384D01*
X123213233Y-32527384D01*
X123213233Y-33827384D01*
X123213875Y-33833909D01*
X123213551Y-33836464D01*
X123214453Y-33839771D01*
X123215731Y-33852746D01*
X123222348Y-33868721D01*
X123226897Y-33885400D01*
X123231970Y-33891951D01*
X123235142Y-33899608D01*
X123247367Y-33911833D01*
X123257954Y-33925504D01*
X123265149Y-33929615D01*
X123271009Y-33935475D01*
X123286982Y-33942091D01*
X123301995Y-33950670D01*
X123310215Y-33951714D01*
X123317871Y-33954886D01*
X123335163Y-33954886D01*
X123352313Y-33957066D01*
X123360306Y-33954886D01*
X123368595Y-33954886D01*
X123384570Y-33948268D01*
X123401249Y-33943720D01*
X123407800Y-33938646D01*
X123415457Y-33935475D01*
X123427682Y-33923249D01*
X123441353Y-33912663D01*
X123448899Y-33902032D01*
X123451324Y-33899608D01*
X123452309Y-33897228D01*
X123456105Y-33891882D01*
X123956090Y-33016906D01*
X123956090Y-33827384D01*
X123958588Y-33852746D01*
X123977999Y-33899608D01*
X124013866Y-33935475D01*
X124060728Y-33954886D01*
X124111452Y-33954886D01*
X124158314Y-33935475D01*
X124194181Y-33899608D01*
X124213592Y-33852746D01*
X124216090Y-33827384D01*
X124216090Y-32527384D01*
X124575138Y-32527384D01*
X124575138Y-33827384D01*
X124577636Y-33852746D01*
X124597047Y-33899608D01*
X124632914Y-33935475D01*
X124679776Y-33954886D01*
X124730500Y-33954886D01*
X124777362Y-33935475D01*
X124813229Y-33899608D01*
X124832640Y-33852746D01*
X124835138Y-33827384D01*
X124835138Y-32543643D01*
X125009492Y-32543643D01*
X125015142Y-32568494D01*
X125448476Y-33868494D01*
X125458866Y-33891765D01*
X125464953Y-33898784D01*
X125469106Y-33907089D01*
X125481416Y-33917765D01*
X125492100Y-33930084D01*
X125500410Y-33934238D01*
X125507425Y-33940323D01*
X125522885Y-33945476D01*
X125537469Y-33952768D01*
X125546736Y-33953426D01*
X125555546Y-33956363D01*
X125571797Y-33955207D01*
X125588064Y-33956364D01*
X125596879Y-33953425D01*
X125606141Y-33952767D01*
X125620716Y-33945479D01*
X125636185Y-33940323D01*
X125643202Y-33934236D01*
X125651510Y-33930083D01*
X125662189Y-33917768D01*
X125674504Y-33907089D01*
X125678658Y-33898780D01*
X125684744Y-33891764D01*
X125695134Y-33868494D01*
X126128467Y-32568494D01*
X126134117Y-32543643D01*
X126130521Y-32493048D01*
X126107837Y-32447679D01*
X126069518Y-32414445D01*
X126021397Y-32398405D01*
X125970802Y-32402001D01*
X125925433Y-32424685D01*
X125892199Y-32463004D01*
X125881809Y-32486275D01*
X125571804Y-33416287D01*
X125261800Y-32486274D01*
X125251410Y-32463004D01*
X125218176Y-32424685D01*
X125172807Y-32402001D01*
X125122212Y-32398405D01*
X125074091Y-32414445D01*
X125035772Y-32447679D01*
X125013088Y-32493048D01*
X125009492Y-32543643D01*
X124835138Y-32543643D01*
X124835138Y-32527384D01*
X124832640Y-32502022D01*
X124813229Y-32455160D01*
X124777362Y-32419293D01*
X124730500Y-32399882D01*
X124679776Y-32399882D01*
X124632914Y-32419293D01*
X124597047Y-32455160D01*
X124577636Y-32502022D01*
X124575138Y-32527384D01*
X124216090Y-32527384D01*
X124215447Y-32520858D01*
X124215772Y-32518304D01*
X124214869Y-32514996D01*
X124213592Y-32502022D01*
X124206974Y-32486046D01*
X124202426Y-32469368D01*
X124197352Y-32462816D01*
X124194181Y-32455160D01*
X124181953Y-32442932D01*
X124171369Y-32429265D01*
X124164175Y-32425154D01*
X124158314Y-32419293D01*
X124142334Y-32412673D01*
X124127328Y-32404099D01*
X124119110Y-32403054D01*
X124111452Y-32399882D01*
X124094158Y-32399882D01*
X124077010Y-32397702D01*
X124069017Y-32399882D01*
X124060728Y-32399882D01*
X124044752Y-32406499D01*
X124028074Y-32411048D01*
X124021522Y-32416121D01*
X124013866Y-32419293D01*
X124001640Y-32431518D01*
X123987970Y-32442105D01*
X123980423Y-32452735D01*
X123977999Y-32455160D01*
X123977013Y-32457539D01*
X123973218Y-32462886D01*
X123473233Y-33337859D01*
X123473233Y-32527384D01*
X123470735Y-32502022D01*
X123451324Y-32455160D01*
X123415457Y-32419293D01*
X123368595Y-32399882D01*
X123317871Y-32399882D01*
X123271009Y-32419293D01*
X123235142Y-32455160D01*
X123215731Y-32502022D01*
X123213233Y-32527384D01*
X123068789Y-32527384D01*
X123068789Y-32253258D01*
X126278561Y-32253258D01*
X126278561Y-34101510D01*
G37*
D12*
%TO.C,G\u002A\u002A\u002A*%
G36*
X119470314Y-69275281D02*
G01*
X119498243Y-69286722D01*
X119543927Y-69308457D01*
X119604195Y-69338754D01*
X119675871Y-69375883D01*
X119755783Y-69418110D01*
X119840757Y-69463706D01*
X119927619Y-69510937D01*
X120013197Y-69558073D01*
X120094315Y-69603382D01*
X120167801Y-69645132D01*
X120230481Y-69681592D01*
X120279182Y-69711029D01*
X120310729Y-69731714D01*
X120321951Y-69741913D01*
X120321364Y-69743908D01*
X120314088Y-69763978D01*
X120300249Y-69800732D01*
X120282067Y-69848257D01*
X120221025Y-70028044D01*
X120166632Y-70250529D01*
X120131152Y-70486244D01*
X120113970Y-70738431D01*
X120112321Y-70812778D01*
X120117783Y-71054995D01*
X120141055Y-71282841D01*
X120182991Y-71501097D01*
X120244443Y-71714544D01*
X120326265Y-71927961D01*
X120419336Y-72124952D01*
X120557898Y-72364188D01*
X120717662Y-72587628D01*
X120898440Y-72794989D01*
X121024579Y-72918016D01*
X121225949Y-73084233D01*
X121441243Y-73228394D01*
X121669122Y-73349815D01*
X121908246Y-73447811D01*
X122157277Y-73521697D01*
X122414875Y-73570787D01*
X122482685Y-73578388D01*
X122586095Y-73585596D01*
X122701458Y-73589958D01*
X122821124Y-73591403D01*
X122937445Y-73589858D01*
X123042773Y-73585253D01*
X123129458Y-73577514D01*
X123133115Y-73577051D01*
X123191537Y-73568282D01*
X123262232Y-73555784D01*
X123338798Y-73540896D01*
X123414834Y-73524955D01*
X123483940Y-73509301D01*
X123539714Y-73495270D01*
X123575755Y-73484203D01*
X123581594Y-73482139D01*
X123594978Y-73480588D01*
X123607286Y-73487906D01*
X123621518Y-73507909D01*
X123640673Y-73544411D01*
X123667750Y-73601227D01*
X123720020Y-73713464D01*
X123778713Y-73841834D01*
X123831584Y-73960090D01*
X123877813Y-74066271D01*
X123916578Y-74158420D01*
X123947059Y-74234579D01*
X123968435Y-74292787D01*
X123979884Y-74331087D01*
X123980585Y-74347519D01*
X123971729Y-74352352D01*
X123939764Y-74363845D01*
X123890019Y-74378989D01*
X123827408Y-74396470D01*
X123756846Y-74414975D01*
X123683250Y-74433190D01*
X123611533Y-74449801D01*
X123546612Y-74463495D01*
X123525227Y-74467614D01*
X123440712Y-74482141D01*
X123345716Y-74495678D01*
X123234912Y-74508936D01*
X123102972Y-74522625D01*
X123096632Y-74523204D01*
X123040797Y-74526352D01*
X122965758Y-74528314D01*
X122877823Y-74529137D01*
X122783297Y-74528869D01*
X122688486Y-74527557D01*
X122599696Y-74525248D01*
X122523233Y-74521991D01*
X122465403Y-74517832D01*
X122222387Y-74487054D01*
X121962857Y-74436896D01*
X121713788Y-74368813D01*
X121469039Y-74281098D01*
X121222472Y-74172042D01*
X121056446Y-74087616D01*
X120815354Y-73946730D01*
X120589382Y-73790377D01*
X120373378Y-73614885D01*
X120162187Y-73416582D01*
X120034757Y-73282008D01*
X119840811Y-73046693D01*
X119667318Y-72795713D01*
X119515105Y-72530721D01*
X119385000Y-72253374D01*
X119277830Y-71965324D01*
X119194423Y-71668227D01*
X119135606Y-71363738D01*
X119127691Y-71301711D01*
X119118017Y-71190426D01*
X119111176Y-71063964D01*
X119107262Y-70929049D01*
X119106367Y-70792405D01*
X119108586Y-70660755D01*
X119114011Y-70540823D01*
X119122738Y-70439332D01*
X119142997Y-70288497D01*
X119197061Y-70006733D01*
X119270240Y-69740838D01*
X119362116Y-69492460D01*
X119385386Y-69437363D01*
X119408980Y-69381365D01*
X119427659Y-69336889D01*
X119438716Y-69310369D01*
X119452299Y-69284825D01*
X119464302Y-69273951D01*
X119470314Y-69275281D01*
G37*
G36*
X113757347Y-69340609D02*
G01*
X113842315Y-69341128D01*
X113914261Y-69341951D01*
X113969817Y-69343030D01*
X114005619Y-69344316D01*
X114018301Y-69345761D01*
X114013746Y-69356871D01*
X113999218Y-69390880D01*
X113975334Y-69446327D01*
X113942729Y-69521746D01*
X113902041Y-69615669D01*
X113853906Y-69726632D01*
X113798960Y-69853167D01*
X113737841Y-69993808D01*
X113671185Y-70147090D01*
X113599629Y-70311545D01*
X113523810Y-70485709D01*
X113444364Y-70668114D01*
X113361928Y-70857294D01*
X113317546Y-70959126D01*
X113225079Y-71171363D01*
X113142445Y-71361194D01*
X113069109Y-71529909D01*
X113004538Y-71678799D01*
X112948197Y-71809155D01*
X112899552Y-71922268D01*
X112858070Y-72019428D01*
X112823215Y-72101925D01*
X112794455Y-72171051D01*
X112771254Y-72228097D01*
X112753079Y-72274352D01*
X112739396Y-72311108D01*
X112729670Y-72339655D01*
X112723368Y-72361284D01*
X112719956Y-72377286D01*
X112718898Y-72388952D01*
X112719662Y-72397571D01*
X112721713Y-72404436D01*
X112756650Y-72485937D01*
X112815215Y-72597246D01*
X112879596Y-72694012D01*
X112947497Y-72773300D01*
X113016621Y-72832182D01*
X113084672Y-72867724D01*
X113169665Y-72889352D01*
X113286400Y-72899678D01*
X113403166Y-72890136D01*
X113428618Y-72884954D01*
X113510667Y-72860698D01*
X113596541Y-72826232D01*
X113676187Y-72785917D01*
X113739555Y-72744117D01*
X113756954Y-72730844D01*
X113785476Y-72711502D01*
X113801698Y-72703914D01*
X113803366Y-72704765D01*
X113816352Y-72721612D01*
X113838371Y-72756893D01*
X113867208Y-72806464D01*
X113900651Y-72866186D01*
X113936485Y-72931916D01*
X113972499Y-72999512D01*
X114006478Y-73064833D01*
X114036209Y-73123738D01*
X114059479Y-73172084D01*
X114074075Y-73205730D01*
X114077783Y-73220534D01*
X114061761Y-73236516D01*
X114027499Y-73262256D01*
X113981715Y-73292853D01*
X113930591Y-73324359D01*
X113880309Y-73352825D01*
X113837052Y-73374302D01*
X113756360Y-73405938D01*
X113643598Y-73440828D01*
X113528102Y-73467979D01*
X113422368Y-73484081D01*
X113406919Y-73485497D01*
X113254936Y-73489892D01*
X113100576Y-73478516D01*
X112952371Y-73452380D01*
X112818857Y-73412496D01*
X112782986Y-73398009D01*
X112652197Y-73327310D01*
X112529406Y-73231789D01*
X112415090Y-73111928D01*
X112309727Y-72968211D01*
X112213796Y-72801119D01*
X112209309Y-72791811D01*
X112193205Y-72756627D01*
X112167727Y-72699820D01*
X112133637Y-72623133D01*
X112091696Y-72528312D01*
X112042664Y-72417103D01*
X111987305Y-72291250D01*
X111926377Y-72152500D01*
X111860644Y-72002596D01*
X111790867Y-71843284D01*
X111717806Y-71676310D01*
X111642223Y-71503419D01*
X111564879Y-71326356D01*
X111486536Y-71146865D01*
X111407955Y-70966693D01*
X111329897Y-70787585D01*
X111253124Y-70611285D01*
X111178396Y-70439539D01*
X111106476Y-70274092D01*
X111038124Y-70116690D01*
X110974103Y-69969077D01*
X110915172Y-69832999D01*
X110862094Y-69710201D01*
X110815630Y-69602428D01*
X110776541Y-69511426D01*
X110745588Y-69438939D01*
X110723533Y-69386713D01*
X110711138Y-69356493D01*
X110712460Y-69352309D01*
X110724634Y-69348096D01*
X110750883Y-69345095D01*
X110793686Y-69343208D01*
X110855526Y-69342336D01*
X110938880Y-69342383D01*
X111046231Y-69343250D01*
X111387909Y-69346788D01*
X111858866Y-70449055D01*
X111862436Y-70457409D01*
X111931430Y-70618677D01*
X111997497Y-70772732D01*
X112059893Y-70917856D01*
X112117873Y-71052336D01*
X112170692Y-71174456D01*
X112217606Y-71282500D01*
X112257868Y-71374751D01*
X112290735Y-71449496D01*
X112315462Y-71505018D01*
X112331304Y-71539602D01*
X112337516Y-71551532D01*
X112337606Y-71551488D01*
X112344397Y-71538163D01*
X112360715Y-71502262D01*
X112385821Y-71445501D01*
X112418975Y-71369595D01*
X112459437Y-71276258D01*
X112506468Y-71167206D01*
X112559328Y-71044154D01*
X112617277Y-70908816D01*
X112679576Y-70762907D01*
X112745484Y-70608143D01*
X112814263Y-70446238D01*
X113283317Y-69340735D01*
X113650809Y-69340451D01*
X113662721Y-69340444D01*
X113757347Y-69340609D01*
G37*
G36*
X94829250Y-71399447D02*
G01*
X94829250Y-73458727D01*
X94478311Y-73458727D01*
X94127373Y-73458727D01*
X94127373Y-72730364D01*
X94127301Y-72645543D01*
X94126896Y-72514237D01*
X94126162Y-72392681D01*
X94125135Y-72283268D01*
X94123850Y-72188387D01*
X94122341Y-72110429D01*
X94120643Y-72051785D01*
X94118790Y-72014846D01*
X94116818Y-72002001D01*
X94107567Y-72007023D01*
X94084129Y-72026776D01*
X94053913Y-72056388D01*
X94016267Y-72093178D01*
X93896135Y-72186788D01*
X93759297Y-72263582D01*
X93608799Y-72323230D01*
X93447689Y-72365400D01*
X93279011Y-72389762D01*
X93105813Y-72395985D01*
X92931142Y-72383737D01*
X92758044Y-72352689D01*
X92589564Y-72302509D01*
X92428751Y-72232867D01*
X92405628Y-72220844D01*
X92238092Y-72117764D01*
X92089753Y-71996758D01*
X91961088Y-71858602D01*
X91852575Y-71704066D01*
X91764690Y-71533925D01*
X91697910Y-71348952D01*
X91652712Y-71149920D01*
X91629574Y-70937601D01*
X91628609Y-70849864D01*
X92360467Y-70849864D01*
X92360554Y-70906346D01*
X92361316Y-70978182D01*
X92363356Y-71032601D01*
X92367261Y-71075178D01*
X92373617Y-71111482D01*
X92383012Y-71147085D01*
X92396031Y-71187559D01*
X92408311Y-71221998D01*
X92473258Y-71359451D01*
X92557294Y-71480789D01*
X92658500Y-71584290D01*
X92774954Y-71668232D01*
X92904736Y-71730890D01*
X93045926Y-71770543D01*
X93073153Y-71775320D01*
X93231465Y-71788922D01*
X93384970Y-71778269D01*
X93531309Y-71744086D01*
X93668124Y-71687095D01*
X93793056Y-71608020D01*
X93903747Y-71507583D01*
X93907359Y-71503625D01*
X93955186Y-71441309D01*
X94003597Y-71362233D01*
X94047858Y-71274836D01*
X94083236Y-71187559D01*
X94091768Y-71162575D01*
X94103067Y-71125616D01*
X94110904Y-71090621D01*
X94115919Y-71051900D01*
X94118751Y-71003763D01*
X94120038Y-70940522D01*
X94120419Y-70856485D01*
X94120426Y-70851267D01*
X94120121Y-70766101D01*
X94118621Y-70701370D01*
X94115386Y-70651335D01*
X94109877Y-70610259D01*
X94101553Y-70572405D01*
X94089875Y-70532033D01*
X94034788Y-70392547D01*
X93958290Y-70263823D01*
X93863939Y-70153437D01*
X93753293Y-70062446D01*
X93627911Y-69991908D01*
X93489350Y-69942881D01*
X93339166Y-69916421D01*
X93178918Y-69913587D01*
X93176777Y-69913710D01*
X93021384Y-69934988D01*
X92878523Y-69979267D01*
X92749446Y-70045590D01*
X92635405Y-70132999D01*
X92537654Y-70240537D01*
X92457446Y-70367246D01*
X92396031Y-70512168D01*
X92387404Y-70538441D01*
X92376728Y-70575207D01*
X92369309Y-70610599D01*
X92364560Y-70650190D01*
X92361895Y-70699549D01*
X92360726Y-70764250D01*
X92360467Y-70849864D01*
X91628609Y-70849864D01*
X91627793Y-70775628D01*
X91646547Y-70572465D01*
X91688263Y-70379291D01*
X91751991Y-70197465D01*
X91836781Y-70028346D01*
X91941683Y-69873294D01*
X92065746Y-69733668D01*
X92208021Y-69610827D01*
X92367558Y-69506130D01*
X92543406Y-69420937D01*
X92734617Y-69356606D01*
X92780669Y-69344733D01*
X92821629Y-69335907D01*
X92862751Y-69329666D01*
X92909300Y-69325543D01*
X92966540Y-69323072D01*
X93039735Y-69321787D01*
X93134151Y-69321221D01*
X93142891Y-69321194D01*
X93239938Y-69321342D01*
X93315786Y-69322627D01*
X93375323Y-69325371D01*
X93423438Y-69329893D01*
X93465019Y-69336514D01*
X93504954Y-69345556D01*
X93601714Y-69373581D01*
X93770093Y-69441392D01*
X93922016Y-69529480D01*
X94058442Y-69638350D01*
X94153859Y-69726692D01*
X94153859Y-69533429D01*
X94153859Y-69340166D01*
X94491554Y-69340166D01*
X94829250Y-69340166D01*
X94829250Y-70851267D01*
X94829250Y-71399447D01*
G37*
G36*
X109936823Y-69343262D02*
G01*
X110290407Y-69346788D01*
X110294207Y-70167851D01*
X110294575Y-70255003D01*
X110295064Y-70453226D01*
X110294886Y-70627808D01*
X110293954Y-70780776D01*
X110292186Y-70914151D01*
X110289495Y-71029959D01*
X110285798Y-71130223D01*
X110281010Y-71216967D01*
X110275047Y-71292215D01*
X110267823Y-71357991D01*
X110259254Y-71416318D01*
X110249256Y-71469222D01*
X110237744Y-71518725D01*
X110224941Y-71565885D01*
X110164096Y-71733335D01*
X110083993Y-71882692D01*
X109984942Y-72013696D01*
X109867252Y-72126083D01*
X109731233Y-72219592D01*
X109577194Y-72293960D01*
X109405445Y-72348925D01*
X109216295Y-72384226D01*
X109112544Y-72394344D01*
X108921421Y-72395820D01*
X108737662Y-72374824D01*
X108563371Y-72331944D01*
X108400653Y-72267767D01*
X108251610Y-72182880D01*
X108118348Y-72077869D01*
X108019239Y-71986547D01*
X108019239Y-72173054D01*
X108019239Y-72359561D01*
X107681544Y-72359561D01*
X107343848Y-72359561D01*
X107343848Y-70849864D01*
X107343848Y-69340166D01*
X107700875Y-69340166D01*
X108057902Y-69340166D01*
X108062141Y-70217512D01*
X108062403Y-70272649D01*
X108063219Y-70445345D01*
X108064054Y-70594366D01*
X108065107Y-70721884D01*
X108066578Y-70830073D01*
X108068665Y-70921109D01*
X108071567Y-70997166D01*
X108075483Y-71060417D01*
X108080610Y-71113037D01*
X108087148Y-71157200D01*
X108095296Y-71195080D01*
X108105253Y-71228852D01*
X108117216Y-71260689D01*
X108131385Y-71292767D01*
X108147958Y-71327259D01*
X108167134Y-71366339D01*
X108197077Y-71421557D01*
X108273645Y-71526839D01*
X108365729Y-71614437D01*
X108469737Y-71680622D01*
X108564626Y-71720633D01*
X108691800Y-71754949D01*
X108822396Y-71771066D01*
X108952303Y-71769379D01*
X109077411Y-71750286D01*
X109193608Y-71714183D01*
X109296785Y-71661467D01*
X109382830Y-71592534D01*
X109389209Y-71585986D01*
X109453606Y-71504863D01*
X109504768Y-71408215D01*
X109545315Y-71291179D01*
X109546088Y-71288415D01*
X109551613Y-71267898D01*
X109556380Y-71247445D01*
X109560458Y-71225014D01*
X109563912Y-71198564D01*
X109566808Y-71166051D01*
X109569215Y-71125434D01*
X109571198Y-71074670D01*
X109572823Y-71011716D01*
X109574158Y-70934531D01*
X109575268Y-70841072D01*
X109576221Y-70729296D01*
X109577082Y-70597162D01*
X109577919Y-70442626D01*
X109578799Y-70263648D01*
X109583239Y-69339736D01*
X109936823Y-69343262D01*
G37*
G36*
X106633666Y-71472283D02*
G01*
X106633225Y-71544460D01*
X106627129Y-71632418D01*
X106612917Y-71709836D01*
X106588729Y-71785844D01*
X106552704Y-71869572D01*
X106551320Y-71872504D01*
X106523610Y-71925185D01*
X106491426Y-71972839D01*
X106449339Y-72022625D01*
X106391924Y-72081704D01*
X106387665Y-72085891D01*
X106260925Y-72192207D01*
X106121884Y-72275141D01*
X105970148Y-72334889D01*
X105805325Y-72371643D01*
X105803295Y-72371943D01*
X105750628Y-72379852D01*
X105704696Y-72386965D01*
X105675235Y-72391774D01*
X105642554Y-72394653D01*
X105587102Y-72395487D01*
X105517439Y-72394178D01*
X105439929Y-72391049D01*
X105360930Y-72386419D01*
X105286806Y-72380609D01*
X105223917Y-72373941D01*
X105178624Y-72366734D01*
X105149518Y-72360158D01*
X104994270Y-72312727D01*
X104854607Y-72248404D01*
X104733056Y-72168540D01*
X104632144Y-72074487D01*
X104562826Y-71996714D01*
X104562826Y-72178138D01*
X104562826Y-72359561D01*
X104231079Y-72359561D01*
X103899332Y-72359561D01*
X103903741Y-71329921D01*
X103903846Y-71305351D01*
X104604217Y-71305351D01*
X104604573Y-71355919D01*
X104607518Y-71392605D01*
X104613974Y-71421791D01*
X104624865Y-71449864D01*
X104641114Y-71483208D01*
X104661526Y-71520417D01*
X104737693Y-71623230D01*
X104834630Y-71711180D01*
X104950622Y-71782897D01*
X105083955Y-71837011D01*
X105097097Y-71841012D01*
X105204801Y-71864310D01*
X105323967Y-71876371D01*
X105443274Y-71876539D01*
X105551404Y-71864156D01*
X105634361Y-71841728D01*
X105721197Y-71804677D01*
X105797098Y-71758333D01*
X105854303Y-71706731D01*
X105900142Y-71638415D01*
X105931529Y-71551565D01*
X105940577Y-71460146D01*
X105927468Y-71369020D01*
X105892386Y-71283049D01*
X105835513Y-71207094D01*
X105808728Y-71182018D01*
X105766575Y-71151275D01*
X105717411Y-71125885D01*
X105658811Y-71105446D01*
X105588352Y-71089559D01*
X105503611Y-71077820D01*
X105402165Y-71069830D01*
X105281589Y-71065186D01*
X105139462Y-71063488D01*
X104973358Y-71064333D01*
X104609177Y-71068373D01*
X104605473Y-71236820D01*
X104604217Y-71305351D01*
X103903846Y-71305351D01*
X103908150Y-70300281D01*
X103943889Y-70167851D01*
X103945287Y-70162710D01*
X104003077Y-69994642D01*
X104079437Y-69845207D01*
X104174540Y-69714258D01*
X104288559Y-69601648D01*
X104421669Y-69507232D01*
X104574042Y-69430864D01*
X104745852Y-69372399D01*
X104937271Y-69331689D01*
X104972241Y-69326902D01*
X105070731Y-69318671D01*
X105185475Y-69314696D01*
X105309546Y-69314802D01*
X105436020Y-69318814D01*
X105557969Y-69326556D01*
X105668468Y-69337853D01*
X105760590Y-69352530D01*
X105809698Y-69363168D01*
X105915498Y-69389936D01*
X106024463Y-69421890D01*
X106129267Y-69456672D01*
X106222583Y-69491921D01*
X106297083Y-69525279D01*
X106313590Y-69533781D01*
X106366519Y-69562873D01*
X106420140Y-69594591D01*
X106469676Y-69625850D01*
X106510352Y-69653567D01*
X106537391Y-69674657D01*
X106546016Y-69686035D01*
X106538051Y-69703195D01*
X106519215Y-69739966D01*
X106492510Y-69790241D01*
X106460205Y-69849929D01*
X106424570Y-69914938D01*
X106387874Y-69981177D01*
X106352385Y-70044552D01*
X106320373Y-70100973D01*
X106294107Y-70146347D01*
X106275856Y-70176583D01*
X106267888Y-70187589D01*
X106257497Y-70183272D01*
X106230573Y-70167052D01*
X106195052Y-70142899D01*
X106152591Y-70114655D01*
X106039221Y-70052880D01*
X105910254Y-69998109D01*
X105773185Y-69953308D01*
X105635506Y-69921443D01*
X105632160Y-69920858D01*
X105578469Y-69914152D01*
X105507812Y-69908744D01*
X105428984Y-69905174D01*
X105350783Y-69903980D01*
X105284741Y-69904606D01*
X105215680Y-69907230D01*
X105159599Y-69912640D01*
X105108854Y-69921641D01*
X105055798Y-69935038D01*
X105025937Y-69943984D01*
X104906338Y-69994298D01*
X104806636Y-70062031D01*
X104727153Y-70146770D01*
X104668212Y-70248106D01*
X104630135Y-70365628D01*
X104613245Y-70498925D01*
X104609177Y-70591626D01*
X105172003Y-70599535D01*
X105199311Y-70599921D01*
X105334004Y-70601938D01*
X105445713Y-70603903D01*
X105537395Y-70605976D01*
X105612011Y-70608315D01*
X105672520Y-70611081D01*
X105721882Y-70614431D01*
X105763055Y-70618525D01*
X105798999Y-70623521D01*
X105832674Y-70629579D01*
X105867038Y-70636857D01*
X105949267Y-70657243D01*
X106110860Y-70712051D01*
X106250705Y-70781735D01*
X106369041Y-70866484D01*
X106466107Y-70966486D01*
X106542143Y-71081930D01*
X106597390Y-71213007D01*
X106601641Y-71226378D01*
X106616921Y-71281664D01*
X106626461Y-71334704D01*
X106631596Y-71395058D01*
X106633341Y-71460146D01*
X106633666Y-71472283D01*
G37*
G36*
X103233798Y-70922700D02*
G01*
X103225627Y-71051749D01*
X103206054Y-71205076D01*
X103175219Y-71343890D01*
X103131719Y-71474155D01*
X103074152Y-71601836D01*
X103059566Y-71629700D01*
X102968816Y-71774473D01*
X102858669Y-71911165D01*
X102733660Y-72035182D01*
X102598324Y-72141931D01*
X102457196Y-72226819D01*
X102432666Y-72238869D01*
X102308590Y-72290200D01*
X102170018Y-72334346D01*
X102026541Y-72368559D01*
X101887748Y-72390088D01*
X101806170Y-72396655D01*
X101619040Y-72395399D01*
X101436861Y-72371831D01*
X101262526Y-72326810D01*
X101098928Y-72261196D01*
X100948958Y-72175847D01*
X100815510Y-72071622D01*
X100723125Y-71987304D01*
X100719435Y-72170122D01*
X100715746Y-72352940D01*
X100381361Y-72356478D01*
X100046977Y-72360016D01*
X100046977Y-70902061D01*
X100739661Y-70902061D01*
X100741744Y-70938686D01*
X100752397Y-71043839D01*
X100770697Y-71134842D01*
X100798860Y-71220801D01*
X100839100Y-71310822D01*
X100878736Y-71382680D01*
X100966967Y-71502374D01*
X101072930Y-71603107D01*
X101195077Y-71683523D01*
X101331862Y-71742270D01*
X101380509Y-71757192D01*
X101442376Y-71771334D01*
X101508432Y-71779701D01*
X101589782Y-71784093D01*
X101620795Y-71784930D01*
X101710333Y-71784440D01*
X101785695Y-71778066D01*
X101856062Y-71764709D01*
X101930611Y-71743268D01*
X102015210Y-71710290D01*
X102138812Y-71640457D01*
X102249239Y-71550973D01*
X102342684Y-71445116D01*
X102415339Y-71326162D01*
X102443200Y-71267016D01*
X102473827Y-71191096D01*
X102494886Y-71118934D01*
X102507976Y-71043017D01*
X102514695Y-70955831D01*
X102516640Y-70849864D01*
X102516641Y-70842974D01*
X102515194Y-70744375D01*
X102509966Y-70664493D01*
X102499468Y-70596097D01*
X102482212Y-70531959D01*
X102456711Y-70464847D01*
X102421476Y-70387533D01*
X102347503Y-70261555D01*
X102254400Y-70152192D01*
X102144724Y-70061975D01*
X102020313Y-69991939D01*
X101883009Y-69943115D01*
X101734651Y-69916539D01*
X101577080Y-69913244D01*
X101464295Y-69925531D01*
X101317880Y-69962133D01*
X101185066Y-70020103D01*
X101067086Y-70097986D01*
X100965171Y-70194330D01*
X100880552Y-70307680D01*
X100814460Y-70436582D01*
X100768126Y-70579582D01*
X100742783Y-70735227D01*
X100739661Y-70902061D01*
X100046977Y-70902061D01*
X100046977Y-70260559D01*
X100046977Y-68161103D01*
X100394604Y-68164633D01*
X100742232Y-68168164D01*
X100745651Y-68934175D01*
X100749070Y-69700186D01*
X100820549Y-69634858D01*
X100912669Y-69558414D01*
X101034979Y-69478838D01*
X101171506Y-69413198D01*
X101327782Y-69358480D01*
X101372408Y-69347082D01*
X101467544Y-69330826D01*
X101577194Y-69319760D01*
X101693989Y-69314160D01*
X101810561Y-69314299D01*
X101919539Y-69320453D01*
X102013556Y-69332897D01*
X102147089Y-69362925D01*
X102337102Y-69425933D01*
X102511235Y-69509962D01*
X102669897Y-69615220D01*
X102813493Y-69741915D01*
X102888177Y-69822745D01*
X103002471Y-69974714D01*
X103093760Y-70138302D01*
X103162291Y-70314202D01*
X103208309Y-70503107D01*
X103232063Y-70705708D01*
X103233161Y-70842974D01*
X103233798Y-70922700D01*
G37*
G36*
X98928730Y-71466063D02*
G01*
X98977234Y-71468688D01*
X99015185Y-71475502D01*
X99051820Y-71488378D01*
X99096375Y-71509188D01*
X99110244Y-71516272D01*
X99200453Y-71577811D01*
X99270674Y-71655733D01*
X99319414Y-71748437D01*
X99336067Y-71812233D01*
X99344355Y-71896957D01*
X99341870Y-71986013D01*
X99328944Y-72069750D01*
X99305913Y-72138521D01*
X99254245Y-72219519D01*
X99181796Y-72292670D01*
X99096349Y-72349818D01*
X99004299Y-72385723D01*
X98966345Y-72391292D01*
X98913013Y-72393973D01*
X98856509Y-72393057D01*
X98760430Y-72378313D01*
X98661452Y-72340180D01*
X98575721Y-72281318D01*
X98506238Y-72203848D01*
X98456007Y-72109893D01*
X98454900Y-72107011D01*
X98433859Y-72024866D01*
X98425818Y-71931134D01*
X98430980Y-71836973D01*
X98449547Y-71753543D01*
X98450530Y-71750717D01*
X98486601Y-71679827D01*
X98541397Y-71610024D01*
X98608236Y-71548569D01*
X98680433Y-71502722D01*
X98699248Y-71493758D01*
X98736194Y-71479076D01*
X98773048Y-71470593D01*
X98818659Y-71466681D01*
X98881874Y-71465717D01*
X98928730Y-71466063D01*
G37*
G36*
X96786370Y-69316252D02*
G01*
X96995421Y-69334119D01*
X97185053Y-69369195D01*
X97355906Y-69421695D01*
X97508624Y-69491839D01*
X97643850Y-69579842D01*
X97762227Y-69685924D01*
X97809293Y-69738930D01*
X97892013Y-69859169D01*
X97949877Y-69988429D01*
X97982923Y-70126842D01*
X97991187Y-70274536D01*
X97974706Y-70431641D01*
X97941572Y-70554283D01*
X97883928Y-70672474D01*
X97803671Y-70777312D01*
X97701262Y-70868200D01*
X97577164Y-70944542D01*
X97551005Y-70957755D01*
X97492902Y-70985585D01*
X97436797Y-71009586D01*
X97379159Y-71030689D01*
X97316459Y-71049826D01*
X97245168Y-71067925D01*
X97161757Y-71085919D01*
X97062696Y-71104738D01*
X96944456Y-71125313D01*
X96803507Y-71148575D01*
X96732459Y-71160228D01*
X96625919Y-71178439D01*
X96539834Y-71194477D01*
X96470513Y-71209232D01*
X96414264Y-71223597D01*
X96367395Y-71238461D01*
X96326216Y-71254718D01*
X96287034Y-71273257D01*
X96222745Y-71311570D01*
X96167174Y-71363173D01*
X96136045Y-71421924D01*
X96128357Y-71489886D01*
X96143107Y-71569120D01*
X96170432Y-71628478D01*
X96224561Y-71688908D01*
X96301434Y-71737751D01*
X96400349Y-71774755D01*
X96520603Y-71799668D01*
X96661493Y-71812238D01*
X96822315Y-71812214D01*
X96829200Y-71811945D01*
X97054046Y-71791514D01*
X97268078Y-71748219D01*
X97475481Y-71680968D01*
X97680444Y-71588671D01*
X97725629Y-71565948D01*
X97770537Y-71544434D01*
X97801874Y-71530697D01*
X97814699Y-71527005D01*
X97815181Y-71527560D01*
X97826907Y-71546616D01*
X97846937Y-71584257D01*
X97873260Y-71636256D01*
X97903865Y-71698382D01*
X97936739Y-71766406D01*
X97969871Y-71836099D01*
X98001250Y-71903233D01*
X98028863Y-71963577D01*
X98050698Y-72012903D01*
X98064745Y-72046982D01*
X98068990Y-72061584D01*
X98068739Y-72062139D01*
X98052522Y-72076155D01*
X98016651Y-72097881D01*
X97965698Y-72125108D01*
X97904234Y-72155629D01*
X97836833Y-72187235D01*
X97768067Y-72217718D01*
X97702506Y-72244871D01*
X97644724Y-72266485D01*
X97626691Y-72272536D01*
X97532161Y-72300141D01*
X97421902Y-72327093D01*
X97304668Y-72351535D01*
X97189216Y-72371608D01*
X97084300Y-72385453D01*
X97062371Y-72387463D01*
X96979726Y-72391846D01*
X96881288Y-72393481D01*
X96774095Y-72392556D01*
X96665185Y-72389260D01*
X96561598Y-72383783D01*
X96470370Y-72376314D01*
X96398541Y-72367041D01*
X96344840Y-72357210D01*
X96163441Y-72311718D01*
X96000303Y-72250831D01*
X95856250Y-72175329D01*
X95732106Y-72085991D01*
X95628694Y-71983596D01*
X95546839Y-71868924D01*
X95487365Y-71742754D01*
X95451094Y-71605866D01*
X95438852Y-71459040D01*
X95439093Y-71435792D01*
X95452566Y-71291836D01*
X95487068Y-71163740D01*
X95543149Y-71050603D01*
X95621362Y-70951520D01*
X95722257Y-70865591D01*
X95846387Y-70791912D01*
X95941290Y-70747664D01*
X96038995Y-70709347D01*
X96142242Y-70676743D01*
X96256267Y-70648388D01*
X96386304Y-70622817D01*
X96537592Y-70598566D01*
X96643768Y-70581996D01*
X96794747Y-70554428D01*
X96922906Y-70525585D01*
X97027025Y-70495755D01*
X97105882Y-70465225D01*
X97173593Y-70429934D01*
X97230444Y-70388472D01*
X97267044Y-70342395D01*
X97286631Y-70287438D01*
X97292441Y-70219333D01*
X97291095Y-70190376D01*
X97271169Y-70111172D01*
X97227821Y-70043277D01*
X97161583Y-69986981D01*
X97072986Y-69942574D01*
X96962559Y-69910346D01*
X96830835Y-69890588D01*
X96678342Y-69883589D01*
X96626010Y-69884146D01*
X96434269Y-69898449D01*
X96248817Y-69931191D01*
X96074808Y-69981260D01*
X95917400Y-70047546D01*
X95801146Y-70105932D01*
X95666246Y-69835750D01*
X95531345Y-69565567D01*
X95613831Y-69523929D01*
X95618306Y-69521680D01*
X95791802Y-69447833D01*
X95984906Y-69389722D01*
X96195686Y-69347735D01*
X96422207Y-69322258D01*
X96662539Y-69313680D01*
X96786370Y-69316252D01*
G37*
G36*
X91206793Y-71502409D02*
G01*
X91203274Y-71590096D01*
X91195111Y-71668750D01*
X91182427Y-71729828D01*
X91162617Y-71788544D01*
X91099333Y-71921284D01*
X91014479Y-72038928D01*
X90907124Y-72142878D01*
X90891473Y-72155374D01*
X90779011Y-72229937D01*
X90650438Y-72293162D01*
X90513833Y-72341560D01*
X90377275Y-72371643D01*
X90375244Y-72371943D01*
X90322578Y-72379848D01*
X90276645Y-72386951D01*
X90247185Y-72391746D01*
X90224792Y-72394204D01*
X90171879Y-72395858D01*
X90103223Y-72395069D01*
X90025304Y-72392169D01*
X89944601Y-72387493D01*
X89867592Y-72381375D01*
X89800757Y-72374148D01*
X89750574Y-72366147D01*
X89688697Y-72351524D01*
X89546652Y-72304336D01*
X89416336Y-72241772D01*
X89302224Y-72166197D01*
X89208793Y-72079975D01*
X89148825Y-72013276D01*
X89145112Y-72183108D01*
X89141398Y-72352940D01*
X88807013Y-72356478D01*
X88472628Y-72360016D01*
X88472628Y-71409259D01*
X88472736Y-71302013D01*
X89176081Y-71302013D01*
X89176495Y-71351599D01*
X89179677Y-71388010D01*
X89186655Y-71417929D01*
X89198460Y-71448042D01*
X89216120Y-71485034D01*
X89270731Y-71573849D01*
X89353400Y-71665032D01*
X89454535Y-71743291D01*
X89570487Y-71805858D01*
X89697602Y-71849964D01*
X89740331Y-71859241D01*
X89834820Y-71871609D01*
X89937505Y-71876809D01*
X90037268Y-71874467D01*
X90122992Y-71864212D01*
X90227493Y-71836549D01*
X90327352Y-71789718D01*
X90407894Y-71725908D01*
X90470186Y-71644441D01*
X90477636Y-71631485D01*
X90492253Y-71600587D01*
X90500663Y-71568198D01*
X90504506Y-71525996D01*
X90505423Y-71465661D01*
X90505303Y-71438691D01*
X90503422Y-71386734D01*
X90497945Y-71349460D01*
X90487198Y-71318476D01*
X90469511Y-71285387D01*
X90446355Y-71249129D01*
X90410707Y-71205004D01*
X90369184Y-71168048D01*
X90319506Y-71137711D01*
X90259393Y-71113445D01*
X90186565Y-71094702D01*
X90098744Y-71080933D01*
X89993650Y-71071589D01*
X89869002Y-71066124D01*
X89722522Y-71063987D01*
X89551930Y-71064630D01*
X89181127Y-71068373D01*
X89177386Y-71233418D01*
X89176081Y-71302013D01*
X88472736Y-71302013D01*
X88472804Y-71233990D01*
X88473366Y-71059459D01*
X88474294Y-70899760D01*
X88475567Y-70756560D01*
X88477163Y-70631522D01*
X88479061Y-70526311D01*
X88481238Y-70442591D01*
X88483675Y-70382027D01*
X88486348Y-70346284D01*
X88504200Y-70233456D01*
X88549464Y-70062153D01*
X88614624Y-69908250D01*
X88699776Y-69771645D01*
X88805018Y-69652234D01*
X88930446Y-69549915D01*
X89076158Y-69464584D01*
X89242251Y-69396138D01*
X89428822Y-69344473D01*
X89450721Y-69339930D01*
X89492830Y-69332945D01*
X89539835Y-69327787D01*
X89596051Y-69324221D01*
X89665797Y-69322009D01*
X89753387Y-69320917D01*
X89863139Y-69320707D01*
X89944337Y-69320907D01*
X90031500Y-69321633D01*
X90100877Y-69323217D01*
X90157407Y-69326021D01*
X90206033Y-69330408D01*
X90251697Y-69336740D01*
X90299339Y-69345379D01*
X90353902Y-69356688D01*
X90571864Y-69412563D01*
X90773371Y-69484328D01*
X90953440Y-69570985D01*
X91112396Y-69672673D01*
X91112451Y-69672724D01*
X91108482Y-69685918D01*
X91094139Y-69718197D01*
X91071545Y-69765433D01*
X91042822Y-69823500D01*
X91010090Y-69888267D01*
X90975472Y-69955607D01*
X90941090Y-70021392D01*
X90909065Y-70081493D01*
X90881519Y-70131782D01*
X90860574Y-70168131D01*
X90848352Y-70186412D01*
X90836904Y-70182970D01*
X90809459Y-70167907D01*
X90772363Y-70144487D01*
X90754745Y-70132999D01*
X90594439Y-70045067D01*
X90420340Y-69976416D01*
X90237751Y-69928480D01*
X90051978Y-69902689D01*
X89868326Y-69900475D01*
X89785633Y-69907232D01*
X89650833Y-69930160D01*
X89535452Y-69967472D01*
X89437147Y-70020027D01*
X89353573Y-70088681D01*
X89350829Y-70091441D01*
X89281477Y-70175890D01*
X89231864Y-70270460D01*
X89200420Y-70379047D01*
X89185576Y-70505547D01*
X89181127Y-70591626D01*
X89743953Y-70599535D01*
X89771303Y-70599922D01*
X89905991Y-70601938D01*
X90017697Y-70603903D01*
X90109380Y-70605977D01*
X90184000Y-70608317D01*
X90244520Y-70611084D01*
X90293898Y-70614435D01*
X90335095Y-70618531D01*
X90371072Y-70623529D01*
X90404790Y-70629590D01*
X90439208Y-70636871D01*
X90585149Y-70676329D01*
X90739586Y-70737480D01*
X90872443Y-70813937D01*
X90983768Y-70905740D01*
X91073609Y-71012931D01*
X91142013Y-71135550D01*
X91189030Y-71273638D01*
X91199405Y-71334112D01*
X91205545Y-71414234D01*
X91206273Y-71465661D01*
X91206793Y-71502409D01*
G37*
G36*
X86319946Y-69316690D02*
G01*
X86422747Y-69323342D01*
X86507625Y-69333978D01*
X86567532Y-69345292D01*
X86770371Y-69399185D01*
X86958909Y-69474266D01*
X87132122Y-69569814D01*
X87288992Y-69685108D01*
X87428498Y-69819426D01*
X87549619Y-69972047D01*
X87651334Y-70142250D01*
X87705146Y-70261593D01*
X87762029Y-70439191D01*
X87797413Y-70625613D01*
X87811295Y-70816980D01*
X87803675Y-71009414D01*
X87774551Y-71199040D01*
X87723923Y-71381978D01*
X87651788Y-71554351D01*
X87569695Y-71697944D01*
X87453810Y-71853052D01*
X87319187Y-71990841D01*
X87167331Y-72110300D01*
X86999747Y-72210415D01*
X86817939Y-72290176D01*
X86623411Y-72348571D01*
X86417669Y-72384586D01*
X86245918Y-72397437D01*
X86040524Y-72393260D01*
X85844598Y-72367419D01*
X85659637Y-72320521D01*
X85487139Y-72253170D01*
X85328601Y-72165975D01*
X85185521Y-72059539D01*
X85059395Y-71934469D01*
X84951720Y-71791372D01*
X84946724Y-71783581D01*
X84921501Y-71742829D01*
X84903743Y-71711753D01*
X84897029Y-71696557D01*
X84901114Y-71692430D01*
X84924404Y-71676175D01*
X84965535Y-71649882D01*
X85021323Y-71615531D01*
X85088580Y-71575100D01*
X85164124Y-71530570D01*
X85431220Y-71374576D01*
X85464737Y-71420119D01*
X85482364Y-71442889D01*
X85541740Y-71509108D01*
X85610528Y-71574484D01*
X85680836Y-71631859D01*
X85744771Y-71674077D01*
X85781987Y-71693959D01*
X85877453Y-71736335D01*
X85972409Y-71763879D01*
X86075367Y-71778647D01*
X86194839Y-71782692D01*
X86244234Y-71781715D01*
X86387860Y-71768460D01*
X86514851Y-71738504D01*
X86629379Y-71690221D01*
X86735616Y-71621985D01*
X86837736Y-71532170D01*
X86879367Y-71488528D01*
X86955252Y-71392467D01*
X87012506Y-71291098D01*
X87053042Y-71179723D01*
X87078771Y-71053643D01*
X87091604Y-70908161D01*
X87092956Y-70814199D01*
X87079393Y-70649954D01*
X87044577Y-70500884D01*
X86988219Y-70366199D01*
X86910032Y-70245114D01*
X86809729Y-70136840D01*
X86750858Y-70087938D01*
X86631516Y-70013217D01*
X86501545Y-69958887D01*
X86364421Y-69924917D01*
X86223621Y-69911281D01*
X86082620Y-69917948D01*
X85944894Y-69944889D01*
X85813921Y-69992075D01*
X85693175Y-70059478D01*
X85586133Y-70147067D01*
X85569916Y-70163265D01*
X85526712Y-70208202D01*
X85489378Y-70249404D01*
X85464573Y-70279609D01*
X85431220Y-70325152D01*
X85164124Y-70169157D01*
X85117617Y-70141837D01*
X85046701Y-70099517D01*
X84985998Y-70062471D01*
X84938694Y-70032683D01*
X84907976Y-70012136D01*
X84897029Y-70002816D01*
X84898991Y-69997341D01*
X84912247Y-69972989D01*
X84935258Y-69934949D01*
X84964779Y-69888686D01*
X84968184Y-69883501D01*
X85073670Y-69747594D01*
X85199047Y-69628157D01*
X85342784Y-69526129D01*
X85503346Y-69442452D01*
X85679199Y-69378068D01*
X85868810Y-69333917D01*
X85894716Y-69329924D01*
X85986606Y-69320637D01*
X86093614Y-69315337D01*
X86207481Y-69314021D01*
X86319946Y-69316690D01*
G37*
G36*
X84574986Y-70772618D02*
G01*
X84572361Y-70974300D01*
X84546250Y-71175945D01*
X84543198Y-71191583D01*
X84492586Y-71379303D01*
X84419229Y-71554972D01*
X84324474Y-71717407D01*
X84209666Y-71865420D01*
X84076150Y-71997827D01*
X83925272Y-72113442D01*
X83758376Y-72211080D01*
X83576808Y-72289554D01*
X83381915Y-72347680D01*
X83175040Y-72384271D01*
X83119605Y-72389241D01*
X83023266Y-72393032D01*
X82914765Y-72393047D01*
X82801810Y-72389560D01*
X82692108Y-72382844D01*
X82593368Y-72373172D01*
X82513296Y-72360817D01*
X82414125Y-72338359D01*
X82234426Y-72281536D01*
X82071983Y-72206696D01*
X81924319Y-72112599D01*
X81788955Y-71998002D01*
X81693656Y-71906205D01*
X81855170Y-71721001D01*
X81903503Y-71665480D01*
X81953148Y-71608234D01*
X81995486Y-71559189D01*
X82027140Y-71522256D01*
X82044733Y-71501347D01*
X82072782Y-71466897D01*
X82155461Y-71541717D01*
X82195340Y-71575190D01*
X82300348Y-71646139D01*
X82418348Y-71706361D01*
X82540144Y-71750857D01*
X82548643Y-71753220D01*
X82625280Y-71768743D01*
X82719096Y-71780142D01*
X82822111Y-71787047D01*
X82926343Y-71789088D01*
X83023812Y-71785896D01*
X83106536Y-71777100D01*
X83211902Y-71754710D01*
X83354837Y-71705510D01*
X83484719Y-71637942D01*
X83598811Y-71553802D01*
X83694372Y-71454885D01*
X83768664Y-71342986D01*
X83770847Y-71338857D01*
X83797265Y-71284501D01*
X83822476Y-71225689D01*
X83843802Y-71169448D01*
X83858562Y-71122805D01*
X83864078Y-71092785D01*
X83863844Y-71091934D01*
X83858161Y-71088891D01*
X83843767Y-71086220D01*
X83819180Y-71083899D01*
X83782920Y-71081905D01*
X83733506Y-71080215D01*
X83669455Y-71078809D01*
X83589287Y-71077662D01*
X83491521Y-71076754D01*
X83374675Y-71076061D01*
X83237268Y-71075560D01*
X83077820Y-71075231D01*
X82894848Y-71075049D01*
X82686871Y-71074994D01*
X82555467Y-71074981D01*
X82366587Y-71074897D01*
X82201588Y-71074709D01*
X82058869Y-71074388D01*
X81936829Y-71073907D01*
X81833868Y-71073238D01*
X81748384Y-71072351D01*
X81678778Y-71071218D01*
X81623448Y-71069813D01*
X81580793Y-71068105D01*
X81549213Y-71066067D01*
X81527107Y-71063670D01*
X81512875Y-71060887D01*
X81504914Y-71057688D01*
X81501626Y-71054046D01*
X81497956Y-71036987D01*
X81494587Y-70993793D01*
X81493364Y-70933679D01*
X81494141Y-70862230D01*
X81496769Y-70785033D01*
X81501101Y-70707674D01*
X81506989Y-70635739D01*
X81513777Y-70579067D01*
X82168979Y-70579067D01*
X82168979Y-70611490D01*
X83015747Y-70611490D01*
X83058185Y-70611478D01*
X83203432Y-70611243D01*
X83340099Y-70610731D01*
X83465948Y-70609967D01*
X83578740Y-70608977D01*
X83676238Y-70607788D01*
X83756202Y-70606426D01*
X83816396Y-70604916D01*
X83854580Y-70603285D01*
X83868517Y-70601558D01*
X83868924Y-70600434D01*
X83867764Y-70580295D01*
X83861015Y-70542836D01*
X83849916Y-70495158D01*
X83847290Y-70485120D01*
X83797779Y-70349161D01*
X83726755Y-70226039D01*
X83636514Y-70118089D01*
X83529349Y-70027645D01*
X83407555Y-69957042D01*
X83273426Y-69908613D01*
X83190966Y-69892374D01*
X83087324Y-69882150D01*
X82979744Y-69880136D01*
X82877882Y-69886478D01*
X82791398Y-69901322D01*
X82733265Y-69918498D01*
X82602734Y-69975299D01*
X82481858Y-70053082D01*
X82375505Y-70148399D01*
X82288542Y-70257797D01*
X82274112Y-70281526D01*
X82243882Y-70340935D01*
X82215397Y-70408069D01*
X82191514Y-70475253D01*
X82175089Y-70534811D01*
X82168979Y-70579067D01*
X81513777Y-70579067D01*
X81514286Y-70574816D01*
X81550536Y-70397728D01*
X81612597Y-70210838D01*
X81696182Y-70037679D01*
X81800155Y-69879536D01*
X81923382Y-69737697D01*
X82064728Y-69613450D01*
X82223058Y-69508081D01*
X82397238Y-69422878D01*
X82586132Y-69359128D01*
X82638549Y-69347104D01*
X82741754Y-69331046D01*
X82858930Y-69320020D01*
X82982525Y-69314308D01*
X83104985Y-69314191D01*
X83218758Y-69319951D01*
X83316292Y-69331871D01*
X83374305Y-69342972D01*
X83568779Y-69396031D01*
X83750973Y-69470765D01*
X83919158Y-69566088D01*
X84071606Y-69680912D01*
X84206588Y-69814150D01*
X84322375Y-69964714D01*
X84362257Y-70028466D01*
X84447760Y-70198820D01*
X84512103Y-70381729D01*
X84554706Y-70574045D01*
X84557401Y-70600434D01*
X84574986Y-70772618D01*
G37*
G36*
X115809296Y-69318625D02*
G01*
X115887425Y-69326397D01*
X115993058Y-69345949D01*
X116163106Y-69395560D01*
X116321760Y-69464894D01*
X116465484Y-69552294D01*
X116590746Y-69656105D01*
X116666893Y-69730004D01*
X116666893Y-69535085D01*
X116666893Y-69340166D01*
X117004589Y-69340166D01*
X117342284Y-69340166D01*
X117342284Y-70849864D01*
X117342284Y-72359561D01*
X116985331Y-72359561D01*
X116628379Y-72359561D01*
X116623727Y-71468972D01*
X116623438Y-71413003D01*
X116622531Y-71238547D01*
X116621607Y-71087838D01*
X116620481Y-70958761D01*
X116618968Y-70849199D01*
X116616882Y-70757037D01*
X116614039Y-70680157D01*
X116610253Y-70616443D01*
X116605339Y-70563780D01*
X116599112Y-70520050D01*
X116591386Y-70483138D01*
X116581978Y-70450927D01*
X116570701Y-70421301D01*
X116557370Y-70392143D01*
X116541801Y-70361337D01*
X116523808Y-70326767D01*
X116480127Y-70254233D01*
X116394661Y-70153239D01*
X116289924Y-70068395D01*
X116168064Y-70001331D01*
X116031231Y-69953673D01*
X115983931Y-69943928D01*
X115899703Y-69934334D01*
X115806712Y-69930616D01*
X115713609Y-69932759D01*
X115629046Y-69940746D01*
X115561672Y-69954561D01*
X115516379Y-69969309D01*
X115402561Y-70020249D01*
X115308740Y-70086205D01*
X115232297Y-70169300D01*
X115170614Y-70271657D01*
X115157417Y-70298974D01*
X115141980Y-70332986D01*
X115128676Y-70366533D01*
X115117346Y-70401689D01*
X115107833Y-70440527D01*
X115099977Y-70485119D01*
X115093620Y-70537540D01*
X115088604Y-70599861D01*
X115084771Y-70674156D01*
X115081962Y-70762498D01*
X115080019Y-70866961D01*
X115078784Y-70989617D01*
X115078097Y-71132540D01*
X115077801Y-71297802D01*
X115077738Y-71487477D01*
X115077738Y-72359994D01*
X114723489Y-72356467D01*
X114369239Y-72352940D01*
X114365364Y-71518633D01*
X114364982Y-71428191D01*
X114364490Y-71230598D01*
X114364655Y-71056624D01*
X114365560Y-70904256D01*
X114367287Y-70771478D01*
X114369919Y-70656275D01*
X114373539Y-70556634D01*
X114378230Y-70470538D01*
X114384075Y-70395973D01*
X114391155Y-70330925D01*
X114399555Y-70273378D01*
X114409356Y-70221318D01*
X114420642Y-70172730D01*
X114427616Y-70146376D01*
X114486051Y-69980764D01*
X114565224Y-69831373D01*
X114664470Y-69698864D01*
X114783122Y-69583898D01*
X114920514Y-69487138D01*
X115075978Y-69409243D01*
X115248849Y-69350876D01*
X115252797Y-69349847D01*
X115321316Y-69336704D01*
X115408774Y-69326383D01*
X115508236Y-69319149D01*
X115612767Y-69315267D01*
X115715432Y-69315004D01*
X115809296Y-69318625D01*
G37*
G36*
X122860892Y-67131800D02*
G01*
X122991681Y-67135241D01*
X123117466Y-67141379D01*
X123231116Y-67150038D01*
X123325501Y-67161041D01*
X123407655Y-67174094D01*
X123708900Y-67238856D01*
X124003387Y-67328911D01*
X124289899Y-67443727D01*
X124567219Y-67582774D01*
X124834131Y-67745519D01*
X125089417Y-67931432D01*
X125094127Y-67935187D01*
X125159100Y-67990276D01*
X125236316Y-68060571D01*
X125321217Y-68141499D01*
X125409247Y-68228488D01*
X125495847Y-68316964D01*
X125576461Y-68402354D01*
X125646530Y-68480087D01*
X125701499Y-68545588D01*
X125747846Y-68605233D01*
X125927401Y-68862842D01*
X126084289Y-69133745D01*
X126218055Y-69416893D01*
X126328243Y-69711242D01*
X126414400Y-70015742D01*
X126476070Y-70329347D01*
X126480607Y-70362925D01*
X126488731Y-70451667D01*
X126494671Y-70558741D01*
X126498431Y-70678649D01*
X126500014Y-70805893D01*
X126499424Y-70934975D01*
X126496665Y-71060397D01*
X126491740Y-71176660D01*
X126484652Y-71278266D01*
X126475405Y-71359718D01*
X126472504Y-71378937D01*
X126454273Y-71489086D01*
X126433150Y-71602371D01*
X126410639Y-71711432D01*
X126388247Y-71808912D01*
X126367477Y-71887449D01*
X126355621Y-71922748D01*
X126343526Y-71948187D01*
X126335230Y-71953664D01*
X126335057Y-71953461D01*
X126322676Y-71938662D01*
X126297168Y-71908009D01*
X126262162Y-71865867D01*
X126221285Y-71816600D01*
X126133813Y-71712945D01*
X126016215Y-71577848D01*
X125892453Y-71439619D01*
X125769805Y-71306370D01*
X125655553Y-71186214D01*
X125499948Y-71025869D01*
X125499932Y-70841855D01*
X125496998Y-70707230D01*
X125472675Y-70434352D01*
X125424345Y-70169731D01*
X125352739Y-69914593D01*
X125258583Y-69670168D01*
X125142608Y-69437684D01*
X125005542Y-69218371D01*
X124848113Y-69013457D01*
X124671050Y-68824170D01*
X124475082Y-68651740D01*
X124260938Y-68497394D01*
X124029347Y-68362362D01*
X123899790Y-68298489D01*
X123691993Y-68212172D01*
X123484658Y-68147272D01*
X123272441Y-68102499D01*
X123049999Y-68076559D01*
X122811986Y-68068163D01*
X122603780Y-68075017D01*
X122347241Y-68104324D01*
X122101506Y-68157111D01*
X121864946Y-68233835D01*
X121635933Y-68334952D01*
X121412837Y-68460921D01*
X121295805Y-68534396D01*
X121096912Y-68493942D01*
X121054280Y-68485395D01*
X120814216Y-68442144D01*
X120569816Y-68406732D01*
X120310209Y-68377548D01*
X120079959Y-68354930D01*
X120243995Y-68195224D01*
X120307819Y-68134242D01*
X120513747Y-67953665D01*
X120725266Y-67793579D01*
X120948619Y-67649509D01*
X121190049Y-67516978D01*
X121223521Y-67500151D01*
X121473027Y-67386145D01*
X121719268Y-67294851D01*
X121968033Y-67224601D01*
X122225109Y-67173726D01*
X122496285Y-67140558D01*
X122509817Y-67139419D01*
X122612829Y-67133713D01*
X122732231Y-67131232D01*
X122860892Y-67131800D01*
G37*
D13*
%TO.C,J5*%
X131450000Y-150693000D02*
X131450000Y-148193000D01*
X131450000Y-148193000D02*
X129750000Y-148193000D01*
X129750000Y-155493000D02*
X129750000Y-150693000D01*
X129750000Y-150693000D02*
X131450000Y-150693000D01*
X129750000Y-148193000D02*
X129750000Y-146493000D01*
X129750000Y-146493000D02*
X119850000Y-146493000D01*
X127800000Y-161693000D02*
X126800000Y-161693000D01*
X127300000Y-162193000D02*
X127300000Y-161193000D01*
X122800000Y-161693000D02*
X121800000Y-161693000D01*
X119850000Y-155493000D02*
X129750000Y-155493000D01*
X119850000Y-150693000D02*
X119850000Y-155493000D01*
X119850000Y-148193000D02*
X118150000Y-148193000D01*
X119850000Y-146493000D02*
X119850000Y-148193000D01*
X118150000Y-150693000D02*
X119850000Y-150693000D01*
X118150000Y-148193000D02*
X118150000Y-150693000D01*
%TO.C,J6*%
X90050000Y-150693000D02*
X90050000Y-148193000D01*
X90050000Y-148193000D02*
X88350000Y-148193000D01*
X88350000Y-155493000D02*
X88350000Y-150693000D01*
X88350000Y-150693000D02*
X90050000Y-150693000D01*
X88350000Y-148193000D02*
X88350000Y-146493000D01*
X88350000Y-146493000D02*
X78450000Y-146493000D01*
X86400000Y-161693000D02*
X85400000Y-161693000D01*
X85900000Y-162193000D02*
X85900000Y-161193000D01*
X81400000Y-161693000D02*
X80400000Y-161693000D01*
X78450000Y-155493000D02*
X88350000Y-155493000D01*
X78450000Y-150693000D02*
X78450000Y-155493000D01*
X78450000Y-148193000D02*
X76750000Y-148193000D01*
X78450000Y-146493000D02*
X78450000Y-148193000D01*
X76750000Y-150693000D02*
X78450000Y-150693000D01*
X76750000Y-148193000D02*
X76750000Y-150693000D01*
D14*
%TO.C,U14*%
X90079921Y-34961385D02*
G75*
G02*
X90019977Y-34961385I-29972J0D01*
G01*
X90019977Y-34961385D02*
G75*
G02*
X90079921Y-34961385I29972J0D01*
G01*
D15*
X78350051Y-43811500D02*
X78350051Y-41811424D01*
X88250051Y-43811500D02*
X88250051Y-41811424D01*
X76550051Y-41811424D02*
X78350026Y-41811424D01*
X77116066Y-39811449D02*
X76550051Y-39811449D01*
X76550051Y-39811449D02*
X76550051Y-41811424D01*
X90050000Y-41811424D02*
X88250051Y-41811424D01*
X90050000Y-39811449D02*
X90050000Y-41811424D01*
X89484011Y-39811449D02*
X90050000Y-39811449D01*
X81799988Y-37861589D02*
X81799988Y-36864078D01*
X79800038Y-37861589D02*
X79800038Y-36914903D01*
X82050026Y-37861589D02*
X79549949Y-37861589D01*
X79549949Y-39811576D02*
X79549949Y-37861589D01*
X82050026Y-39811576D02*
X82050026Y-37861589D01*
X86800013Y-37861462D02*
X86800013Y-36863976D01*
X84800013Y-37861462D02*
X84800013Y-36914827D01*
X87050000Y-37861462D02*
X84549949Y-37861462D01*
X84549949Y-39811449D02*
X84549949Y-37861462D01*
X87050000Y-39811449D02*
X87050000Y-37861462D01*
X88116498Y-39811449D02*
X78483528Y-39811449D01*
X78350051Y-43811500D02*
X88250051Y-43811500D01*
X78800038Y-49811551D02*
X78800038Y-43811525D01*
X87800064Y-49811551D02*
X87800064Y-43811500D01*
X87800064Y-49811551D02*
X78800038Y-49811551D01*
D14*
%TO.C,U17*%
X131579908Y-34949936D02*
G75*
G02*
X131519964Y-34949936I-29972J0D01*
G01*
X131519964Y-34949936D02*
G75*
G02*
X131579908Y-34949936I29972J0D01*
G01*
D15*
X119850038Y-43800051D02*
X119850038Y-41799975D01*
X129750038Y-43800051D02*
X129750038Y-41799975D01*
X118050038Y-41799975D02*
X119850013Y-41799975D01*
X118616053Y-39800000D02*
X118050038Y-39800000D01*
X118050038Y-39800000D02*
X118050038Y-41799975D01*
X131549987Y-41799975D02*
X129750038Y-41799975D01*
X131549987Y-39800000D02*
X131549987Y-41799975D01*
X130983998Y-39800000D02*
X131549987Y-39800000D01*
X123299975Y-37850140D02*
X123299975Y-36852629D01*
X121300025Y-37850140D02*
X121300025Y-36903454D01*
X123550013Y-37850140D02*
X121049936Y-37850140D01*
X121049936Y-39800127D02*
X121049936Y-37850140D01*
X123550013Y-39800127D02*
X123550013Y-37850140D01*
X128300000Y-37850013D02*
X128300000Y-36852527D01*
X126300000Y-37850013D02*
X126300000Y-36903378D01*
X128549987Y-37850013D02*
X126049936Y-37850013D01*
X126049936Y-39800000D02*
X126049936Y-37850013D01*
X128549987Y-39800000D02*
X128549987Y-37850013D01*
X129616485Y-39800000D02*
X119983515Y-39800000D01*
X119850038Y-43800051D02*
X129750038Y-43800051D01*
X120300025Y-49800102D02*
X120300025Y-43800076D01*
X129300051Y-49800102D02*
X129300051Y-43800051D01*
X129300051Y-49800102D02*
X120300025Y-49800102D01*
%TD*%
%LPC*%
D16*
%TO.C,U24*%
X108200000Y-120343000D03*
%TD*%
%TO.C,U23*%
X99900000Y-120343000D03*
%TD*%
%TO.C,U22*%
X66700000Y-87143000D03*
%TD*%
%TO.C,U21*%
X141400000Y-87143000D03*
%TD*%
D17*
%TO.C,J12*%
X67830000Y-140698000D03*
X67830000Y-143238000D03*
X67830000Y-145778000D03*
D18*
X67830000Y-148318000D03*
%TD*%
D19*
%TO.C,U10*%
X98300000Y-35200152D03*
X98300000Y-40000000D03*
%TD*%
%TO.C,U11*%
X109700000Y-35200152D03*
X109700000Y-40000000D03*
%TD*%
D20*
%TO.C,H2*%
X146402944Y-35802944D03*
X145700000Y-37500000D03*
X145700000Y-34105888D03*
X144002944Y-38202944D03*
D21*
X144002944Y-35802944D03*
D20*
X144002944Y-33402944D03*
X142305888Y-37500000D03*
X142305888Y-34105888D03*
X141602944Y-35802944D03*
%TD*%
%TO.C,H4*%
X146402944Y-175802945D03*
X145700000Y-177500001D03*
X145700000Y-174105889D03*
X144002944Y-178202945D03*
D21*
X144002944Y-175802945D03*
D20*
X144002944Y-173402945D03*
X142305888Y-177500001D03*
X142305888Y-174105889D03*
X141602944Y-175802945D03*
%TD*%
%TO.C,H3*%
X66402944Y-175802945D03*
X65700000Y-177500001D03*
X65700000Y-174105889D03*
X64002944Y-178202945D03*
D21*
X64002944Y-175802945D03*
D20*
X64002944Y-173402945D03*
X62305888Y-177500001D03*
X62305888Y-174105889D03*
X61602944Y-175802945D03*
%TD*%
%TO.C,H1*%
X66402944Y-35802944D03*
X65700000Y-37500000D03*
X65700000Y-34105888D03*
X64002944Y-38202944D03*
D21*
X64002944Y-35802944D03*
D20*
X64002944Y-33402944D03*
X62305888Y-37500000D03*
X62305888Y-34105888D03*
X61602944Y-35802944D03*
%TD*%
D22*
%TO.C,J5*%
X130300000Y-149443000D03*
X119300000Y-149443000D03*
D23*
X127300000Y-159443000D03*
D24*
X122300000Y-159443000D03*
%TD*%
D22*
%TO.C,J6*%
X88900000Y-149443000D03*
X77900000Y-149443000D03*
D23*
X85900000Y-159443000D03*
D24*
X80900000Y-159443000D03*
%TD*%
D17*
%TO.C,J10*%
X140250000Y-148343000D03*
X140250000Y-145803000D03*
X140250000Y-143263000D03*
D18*
X140250000Y-140723000D03*
%TD*%
D19*
%TO.C,U12*%
X64600000Y-54999924D03*
X64600000Y-50200076D03*
%TD*%
%TO.C,U13*%
X64500000Y-73999848D03*
X64500000Y-69200000D03*
%TD*%
D18*
%TO.C,H6*%
X96325000Y-79393000D03*
D17*
X93785000Y-79393000D03*
X96325000Y-81933000D03*
X93785000Y-81933000D03*
X96325000Y-84473000D03*
X93785000Y-84473000D03*
X96325000Y-87013000D03*
X93785000Y-87013000D03*
X96325000Y-89553000D03*
X93785000Y-89553000D03*
X96325000Y-92093000D03*
X93785000Y-92093000D03*
X96325000Y-94633000D03*
X93785000Y-94633000D03*
X96325000Y-97173000D03*
X93785000Y-97173000D03*
X96325000Y-99713000D03*
X93785000Y-99713000D03*
X96325000Y-102253000D03*
X93785000Y-102253000D03*
X96325000Y-104793000D03*
X93785000Y-104793000D03*
X96325000Y-107333000D03*
X93785000Y-107333000D03*
X96325000Y-109873000D03*
X93785000Y-109873000D03*
X96325000Y-112413000D03*
X93785000Y-112413000D03*
X96325000Y-114953000D03*
X93785000Y-114953000D03*
%TD*%
D18*
%TO.C,H8*%
X132325000Y-79393000D03*
D17*
X129785000Y-79393000D03*
X132325000Y-81933000D03*
X129785000Y-81933000D03*
X132325000Y-84473000D03*
X129785000Y-84473000D03*
X132325000Y-87013000D03*
X129785000Y-87013000D03*
X132325000Y-89553000D03*
X129785000Y-89553000D03*
X132325000Y-92093000D03*
X129785000Y-92093000D03*
X132325000Y-94633000D03*
X129785000Y-94633000D03*
X132325000Y-97173000D03*
X129785000Y-97173000D03*
X132325000Y-99713000D03*
X129785000Y-99713000D03*
X132325000Y-102253000D03*
X129785000Y-102253000D03*
X132325000Y-104793000D03*
X129785000Y-104793000D03*
X132325000Y-107333000D03*
X129785000Y-107333000D03*
X132325000Y-109873000D03*
X129785000Y-109873000D03*
X132325000Y-112413000D03*
X129785000Y-112413000D03*
X132325000Y-114953000D03*
X129785000Y-114953000D03*
%TD*%
D18*
%TO.C,H5*%
X78325000Y-79393000D03*
D17*
X75785000Y-79393000D03*
X78325000Y-81933000D03*
X75785000Y-81933000D03*
X78325000Y-84473000D03*
X75785000Y-84473000D03*
X78325000Y-87013000D03*
X75785000Y-87013000D03*
X78325000Y-89553000D03*
X75785000Y-89553000D03*
X78325000Y-92093000D03*
X75785000Y-92093000D03*
X78325000Y-94633000D03*
X75785000Y-94633000D03*
X78325000Y-97173000D03*
X75785000Y-97173000D03*
X78325000Y-99713000D03*
X75785000Y-99713000D03*
X78325000Y-102253000D03*
X75785000Y-102253000D03*
X78325000Y-104793000D03*
X75785000Y-104793000D03*
X78325000Y-107333000D03*
X75785000Y-107333000D03*
X78325000Y-109873000D03*
X75785000Y-109873000D03*
X78325000Y-112413000D03*
X75785000Y-112413000D03*
X78325000Y-114953000D03*
X75785000Y-114953000D03*
%TD*%
D18*
%TO.C,H7*%
X114325000Y-79393000D03*
D17*
X111785000Y-79393000D03*
X114325000Y-81933000D03*
X111785000Y-81933000D03*
X114325000Y-84473000D03*
X111785000Y-84473000D03*
X114325000Y-87013000D03*
X111785000Y-87013000D03*
X114325000Y-89553000D03*
X111785000Y-89553000D03*
X114325000Y-92093000D03*
X111785000Y-92093000D03*
X114325000Y-94633000D03*
X111785000Y-94633000D03*
X114325000Y-97173000D03*
X111785000Y-97173000D03*
X114325000Y-99713000D03*
X111785000Y-99713000D03*
X114325000Y-102253000D03*
X111785000Y-102253000D03*
X114325000Y-104793000D03*
X111785000Y-104793000D03*
X114325000Y-107333000D03*
X111785000Y-107333000D03*
X114325000Y-109873000D03*
X111785000Y-109873000D03*
X114325000Y-112413000D03*
X111785000Y-112413000D03*
X114325000Y-114953000D03*
X111785000Y-114953000D03*
%TD*%
D19*
%TO.C,U9*%
X131055000Y-134542924D03*
X131055000Y-129743076D03*
%TD*%
%TO.C,U7*%
X113055000Y-134542924D03*
X113055000Y-129743076D03*
%TD*%
%TO.C,U3*%
X77055000Y-134542924D03*
X77055000Y-129743076D03*
%TD*%
%TO.C,U5*%
X95055000Y-134542924D03*
X95055000Y-129743076D03*
%TD*%
D25*
%TO.C,U1*%
X122070104Y-173393495D03*
X122470155Y-174093521D03*
X123270257Y-174093521D03*
X123670308Y-173393495D03*
X124070104Y-174093521D03*
X124470155Y-173393495D03*
X125270257Y-173393495D03*
X125670308Y-174093521D03*
X126070104Y-173393495D03*
X126470409Y-174093521D03*
X127270257Y-174093521D03*
X127670054Y-173393495D03*
D26*
X129360173Y-178383589D03*
X129000000Y-173993445D03*
X120740158Y-173993445D03*
X120379985Y-178383589D03*
D20*
X128545085Y-172743000D03*
X121195073Y-172743000D03*
%TD*%
D25*
%TO.C,U15*%
X80470104Y-173343050D03*
X80870155Y-174043076D03*
X81670257Y-174043076D03*
X82070308Y-173343050D03*
X82470104Y-174043076D03*
X82870155Y-173343050D03*
X83670257Y-173343050D03*
X84070308Y-174043076D03*
X84470104Y-173343050D03*
X84870409Y-174043076D03*
X85670257Y-174043076D03*
X86070054Y-173343050D03*
D26*
X87760173Y-178333144D03*
X87400000Y-173943000D03*
X79140158Y-173943000D03*
X78779985Y-178333144D03*
D20*
X86945085Y-172692555D03*
X79595073Y-172692555D03*
%TD*%
D27*
%TO.C,U14*%
X88800013Y-40711449D03*
X77800013Y-40711449D03*
D28*
X80800013Y-35711449D03*
X85800013Y-35711449D03*
%TD*%
D27*
%TO.C,U17*%
X130300000Y-40700000D03*
X119300000Y-40700000D03*
D28*
X122300000Y-35700000D03*
X127300000Y-35700000D03*
%TD*%
D19*
%TO.C,U6*%
X113055000Y-59743076D03*
X113055000Y-64542924D03*
%TD*%
%TO.C,U4*%
X95055000Y-59743076D03*
X95055000Y-64542924D03*
%TD*%
%TO.C,U8*%
X131055000Y-59743076D03*
X131055000Y-64542924D03*
%TD*%
%TO.C,U2*%
X77055000Y-59743076D03*
X77055000Y-64542924D03*
%TD*%
%LPD*%
M02*
