%TF.GenerationSoftware,KiCad,Pcbnew,9.0.0*%
%TF.CreationDate,2025-05-06T23:45:37+04:00*%
%TF.ProjectId,Ebay,45626179-2e6b-4696-9361-645f70636258,rev?*%
%TF.SameCoordinates,Original*%
%TF.FileFunction,Soldermask,Bot*%
%TF.FilePolarity,Negative*%
%FSLAX46Y46*%
G04 Gerber Fmt 4.6, Leading zero omitted, Abs format (unit mm)*
G04 Created by KiCad (PCBNEW 9.0.0) date 2025-05-06 23:45:37*
%MOMM*%
%LPD*%
G01*
G04 APERTURE LIST*
%ADD10C,4.300025*%
%ADD11O,1.700000X1.700000*%
%ADD12R,1.700000X1.700000*%
%ADD13C,3.800000*%
%ADD14C,0.800000*%
%ADD15C,6.400000*%
%ADD16C,1.508000*%
%ADD17R,2.550000X2.550000*%
%ADD18C,2.550000*%
%ADD19C,0.600000*%
%ADD20O,1.000000X1.600000*%
%ADD21C,1.800000*%
%ADD22C,2.500000*%
G04 APERTURE END LIST*
D10*
%TO.C,U24*%
X108200000Y-120343000D03*
%TD*%
%TO.C,U23*%
X99900000Y-120343000D03*
%TD*%
%TO.C,U22*%
X66700000Y-87143000D03*
%TD*%
%TO.C,U21*%
X141400000Y-87143000D03*
%TD*%
D11*
%TO.C,J12*%
X67830000Y-140698000D03*
X67830000Y-143238000D03*
X67830000Y-145778000D03*
D12*
X67830000Y-148318000D03*
%TD*%
D13*
%TO.C,U10*%
X98300000Y-35200152D03*
X98300000Y-40000000D03*
%TD*%
%TO.C,U11*%
X109700000Y-35200152D03*
X109700000Y-40000000D03*
%TD*%
D14*
%TO.C,H2*%
X146402944Y-35802944D03*
X145700000Y-37500000D03*
X145700000Y-34105888D03*
X144002944Y-38202944D03*
D15*
X144002944Y-35802944D03*
D14*
X144002944Y-33402944D03*
X142305888Y-37500000D03*
X142305888Y-34105888D03*
X141602944Y-35802944D03*
%TD*%
%TO.C,H4*%
X146402944Y-175802945D03*
X145700000Y-177500001D03*
X145700000Y-174105889D03*
X144002944Y-178202945D03*
D15*
X144002944Y-175802945D03*
D14*
X144002944Y-173402945D03*
X142305888Y-177500001D03*
X142305888Y-174105889D03*
X141602944Y-175802945D03*
%TD*%
%TO.C,H3*%
X66402944Y-175802945D03*
X65700000Y-177500001D03*
X65700000Y-174105889D03*
X64002944Y-178202945D03*
D15*
X64002944Y-175802945D03*
D14*
X64002944Y-173402945D03*
X62305888Y-177500001D03*
X62305888Y-174105889D03*
X61602944Y-175802945D03*
%TD*%
%TO.C,H1*%
X66402944Y-35802944D03*
X65700000Y-37500000D03*
X65700000Y-34105888D03*
X64002944Y-38202944D03*
D15*
X64002944Y-35802944D03*
D14*
X64002944Y-33402944D03*
X62305888Y-37500000D03*
X62305888Y-34105888D03*
X61602944Y-35802944D03*
%TD*%
D16*
%TO.C,J5*%
X130300000Y-149443000D03*
X119300000Y-149443000D03*
D17*
X127300000Y-159443000D03*
D18*
X122300000Y-159443000D03*
%TD*%
D16*
%TO.C,J6*%
X88900000Y-149443000D03*
X77900000Y-149443000D03*
D17*
X85900000Y-159443000D03*
D18*
X80900000Y-159443000D03*
%TD*%
D11*
%TO.C,J10*%
X140250000Y-148343000D03*
X140250000Y-145803000D03*
X140250000Y-143263000D03*
D12*
X140250000Y-140723000D03*
%TD*%
D13*
%TO.C,U12*%
X64600000Y-54999924D03*
X64600000Y-50200076D03*
%TD*%
%TO.C,U13*%
X64500000Y-73999848D03*
X64500000Y-69200000D03*
%TD*%
D12*
%TO.C,H6*%
X96325000Y-79393000D03*
D11*
X93785000Y-79393000D03*
X96325000Y-81933000D03*
X93785000Y-81933000D03*
X96325000Y-84473000D03*
X93785000Y-84473000D03*
X96325000Y-87013000D03*
X93785000Y-87013000D03*
X96325000Y-89553000D03*
X93785000Y-89553000D03*
X96325000Y-92093000D03*
X93785000Y-92093000D03*
X96325000Y-94633000D03*
X93785000Y-94633000D03*
X96325000Y-97173000D03*
X93785000Y-97173000D03*
X96325000Y-99713000D03*
X93785000Y-99713000D03*
X96325000Y-102253000D03*
X93785000Y-102253000D03*
X96325000Y-104793000D03*
X93785000Y-104793000D03*
X96325000Y-107333000D03*
X93785000Y-107333000D03*
X96325000Y-109873000D03*
X93785000Y-109873000D03*
X96325000Y-112413000D03*
X93785000Y-112413000D03*
X96325000Y-114953000D03*
X93785000Y-114953000D03*
%TD*%
D12*
%TO.C,H8*%
X132325000Y-79393000D03*
D11*
X129785000Y-79393000D03*
X132325000Y-81933000D03*
X129785000Y-81933000D03*
X132325000Y-84473000D03*
X129785000Y-84473000D03*
X132325000Y-87013000D03*
X129785000Y-87013000D03*
X132325000Y-89553000D03*
X129785000Y-89553000D03*
X132325000Y-92093000D03*
X129785000Y-92093000D03*
X132325000Y-94633000D03*
X129785000Y-94633000D03*
X132325000Y-97173000D03*
X129785000Y-97173000D03*
X132325000Y-99713000D03*
X129785000Y-99713000D03*
X132325000Y-102253000D03*
X129785000Y-102253000D03*
X132325000Y-104793000D03*
X129785000Y-104793000D03*
X132325000Y-107333000D03*
X129785000Y-107333000D03*
X132325000Y-109873000D03*
X129785000Y-109873000D03*
X132325000Y-112413000D03*
X129785000Y-112413000D03*
X132325000Y-114953000D03*
X129785000Y-114953000D03*
%TD*%
D12*
%TO.C,H5*%
X78325000Y-79393000D03*
D11*
X75785000Y-79393000D03*
X78325000Y-81933000D03*
X75785000Y-81933000D03*
X78325000Y-84473000D03*
X75785000Y-84473000D03*
X78325000Y-87013000D03*
X75785000Y-87013000D03*
X78325000Y-89553000D03*
X75785000Y-89553000D03*
X78325000Y-92093000D03*
X75785000Y-92093000D03*
X78325000Y-94633000D03*
X75785000Y-94633000D03*
X78325000Y-97173000D03*
X75785000Y-97173000D03*
X78325000Y-99713000D03*
X75785000Y-99713000D03*
X78325000Y-102253000D03*
X75785000Y-102253000D03*
X78325000Y-104793000D03*
X75785000Y-104793000D03*
X78325000Y-107333000D03*
X75785000Y-107333000D03*
X78325000Y-109873000D03*
X75785000Y-109873000D03*
X78325000Y-112413000D03*
X75785000Y-112413000D03*
X78325000Y-114953000D03*
X75785000Y-114953000D03*
%TD*%
D12*
%TO.C,H7*%
X114325000Y-79393000D03*
D11*
X111785000Y-79393000D03*
X114325000Y-81933000D03*
X111785000Y-81933000D03*
X114325000Y-84473000D03*
X111785000Y-84473000D03*
X114325000Y-87013000D03*
X111785000Y-87013000D03*
X114325000Y-89553000D03*
X111785000Y-89553000D03*
X114325000Y-92093000D03*
X111785000Y-92093000D03*
X114325000Y-94633000D03*
X111785000Y-94633000D03*
X114325000Y-97173000D03*
X111785000Y-97173000D03*
X114325000Y-99713000D03*
X111785000Y-99713000D03*
X114325000Y-102253000D03*
X111785000Y-102253000D03*
X114325000Y-104793000D03*
X111785000Y-104793000D03*
X114325000Y-107333000D03*
X111785000Y-107333000D03*
X114325000Y-109873000D03*
X111785000Y-109873000D03*
X114325000Y-112413000D03*
X111785000Y-112413000D03*
X114325000Y-114953000D03*
X111785000Y-114953000D03*
%TD*%
D13*
%TO.C,U9*%
X131055000Y-134542924D03*
X131055000Y-129743076D03*
%TD*%
%TO.C,U7*%
X113055000Y-134542924D03*
X113055000Y-129743076D03*
%TD*%
%TO.C,U3*%
X77055000Y-134542924D03*
X77055000Y-129743076D03*
%TD*%
%TO.C,U5*%
X95055000Y-134542924D03*
X95055000Y-129743076D03*
%TD*%
D19*
%TO.C,U1*%
X122070104Y-173393495D03*
X122470155Y-174093521D03*
X123270257Y-174093521D03*
X123670308Y-173393495D03*
X124070104Y-174093521D03*
X124470155Y-173393495D03*
X125270257Y-173393495D03*
X125670308Y-174093521D03*
X126070104Y-173393495D03*
X126470409Y-174093521D03*
X127270257Y-174093521D03*
X127670054Y-173393495D03*
D20*
X129360173Y-178383589D03*
X129000000Y-173993445D03*
X120740158Y-173993445D03*
X120379985Y-178383589D03*
D14*
X128545085Y-172743000D03*
X121195073Y-172743000D03*
%TD*%
D19*
%TO.C,U15*%
X80470104Y-173343050D03*
X80870155Y-174043076D03*
X81670257Y-174043076D03*
X82070308Y-173343050D03*
X82470104Y-174043076D03*
X82870155Y-173343050D03*
X83670257Y-173343050D03*
X84070308Y-174043076D03*
X84470104Y-173343050D03*
X84870409Y-174043076D03*
X85670257Y-174043076D03*
X86070054Y-173343050D03*
D20*
X87760173Y-178333144D03*
X87400000Y-173943000D03*
X79140158Y-173943000D03*
X78779985Y-178333144D03*
D14*
X86945085Y-172692555D03*
X79595073Y-172692555D03*
%TD*%
D21*
%TO.C,U14*%
X88800013Y-40711449D03*
X77800013Y-40711449D03*
D22*
X80800013Y-35711449D03*
X85800013Y-35711449D03*
%TD*%
D21*
%TO.C,U17*%
X130300000Y-40700000D03*
X119300000Y-40700000D03*
D22*
X122300000Y-35700000D03*
X127300000Y-35700000D03*
%TD*%
D13*
%TO.C,U6*%
X113055000Y-59743076D03*
X113055000Y-64542924D03*
%TD*%
%TO.C,U4*%
X95055000Y-59743076D03*
X95055000Y-64542924D03*
%TD*%
%TO.C,U8*%
X131055000Y-59743076D03*
X131055000Y-64542924D03*
%TD*%
%TO.C,U2*%
X77055000Y-59743076D03*
X77055000Y-64542924D03*
%TD*%
M02*
