%TF.GenerationSoftware,KiCad,Pcbnew,9.0.0*%
%TF.CreationDate,2025-05-05T23:42:48+04:00*%
%TF.ProjectId,Dumpling_Main,44756d70-6c69-46e6-975f-4d61696e2e6b,rev?*%
%TF.SameCoordinates,Original*%
%TF.FileFunction,Soldermask,Bot*%
%TF.FilePolarity,Negative*%
%FSLAX46Y46*%
G04 Gerber Fmt 4.6, Leading zero omitted, Abs format (unit mm)*
G04 Created by KiCad (PCBNEW 9.0.0) date 2025-05-05 23:42:48*
%MOMM*%
%LPD*%
G01*
G04 APERTURE LIST*
G04 Aperture macros list*
%AMRoundRect*
0 Rectangle with rounded corners*
0 $1 Rounding radius*
0 $2 $3 $4 $5 $6 $7 $8 $9 X,Y pos of 4 corners*
0 Add a 4 corners polygon primitive as box body*
4,1,4,$2,$3,$4,$5,$6,$7,$8,$9,$2,$3,0*
0 Add four circle primitives for the rounded corners*
1,1,$1+$1,$2,$3*
1,1,$1+$1,$4,$5*
1,1,$1+$1,$6,$7*
1,1,$1+$1,$8,$9*
0 Add four rect primitives between the rounded corners*
20,1,$1+$1,$2,$3,$4,$5,0*
20,1,$1+$1,$4,$5,$6,$7,0*
20,1,$1+$1,$6,$7,$8,$9,0*
20,1,$1+$1,$8,$9,$2,$3,0*%
G04 Aperture macros list end*
%ADD10C,4.300025*%
%ADD11C,0.800000*%
%ADD12C,6.400000*%
%ADD13C,1.000000*%
%ADD14C,1.500000*%
%ADD15C,0.990600*%
%ADD16C,0.650000*%
%ADD17O,1.000000X2.100000*%
%ADD18O,1.000000X1.800000*%
%ADD19C,1.400000*%
%ADD20RoundRect,0.770000X0.980000X-0.980000X0.980000X0.980000X-0.980000X0.980000X-0.980000X-0.980000X0*%
%ADD21C,3.500000*%
%ADD22C,1.100000*%
%ADD23C,1.600000*%
%ADD24C,0.660000*%
%ADD25O,1.000000X0.580000*%
G04 APERTURE END LIST*
D10*
%TO.C,U28*%
X126992705Y-96339895D03*
%TD*%
%TO.C,U21*%
X162925000Y-132400000D03*
%TD*%
%TO.C,U30*%
X127200000Y-167600000D03*
%TD*%
%TO.C,U29*%
X162925000Y-167550000D03*
%TD*%
%TO.C,U27*%
X127200000Y-132400000D03*
%TD*%
%TO.C,U31*%
X162878875Y-96350443D03*
%TD*%
D11*
%TO.C,H3*%
X99400000Y-176000000D03*
X98697056Y-177697056D03*
X98697056Y-174302944D03*
X97000000Y-178400000D03*
D12*
X97000000Y-176000000D03*
D11*
X97000000Y-173600000D03*
X95302944Y-177697056D03*
X95302944Y-174302944D03*
X94600000Y-176000000D03*
%TD*%
D13*
%TO.C,TP5*%
X164500000Y-63550000D03*
%TD*%
%TO.C,TP10*%
X164500000Y-58800000D03*
%TD*%
D14*
%TO.C,VIN1*%
X99400000Y-63300000D03*
%TD*%
D13*
%TO.C,TP8*%
X164500000Y-69550000D03*
%TD*%
%TO.C,TP9*%
X164500000Y-56800000D03*
%TD*%
%TO.C,TP6*%
X164500000Y-65550000D03*
%TD*%
%TO.C,TP3*%
X164500000Y-72600000D03*
%TD*%
%TO.C,TP11*%
X164500000Y-60800000D03*
%TD*%
%TO.C,TP7*%
X164500000Y-67550000D03*
%TD*%
%TO.C,TP1*%
X99400000Y-73625000D03*
%TD*%
D14*
%TO.C,VBAT1*%
X99400000Y-69300000D03*
%TD*%
%TO.C,VBUS1*%
X99400000Y-66300000D03*
%TD*%
D13*
%TO.C,TP2*%
X99400000Y-75925000D03*
%TD*%
%TO.C,TP4*%
X164500000Y-74600000D03*
%TD*%
D11*
%TO.C,H1*%
X94600000Y-48000000D03*
X95302944Y-46302944D03*
X95302944Y-49697056D03*
X97000000Y-45600000D03*
D12*
X97000000Y-48000000D03*
D11*
X97000000Y-50400000D03*
X98697056Y-46302944D03*
X98697056Y-49697056D03*
X99400000Y-48000000D03*
%TD*%
%TO.C,H2*%
X162600000Y-176000000D03*
X163302944Y-174302944D03*
X163302944Y-177697056D03*
X165000000Y-173600000D03*
D12*
X165000000Y-176000000D03*
D11*
X165000000Y-178400000D03*
X166697056Y-174302944D03*
X166697056Y-177697056D03*
X167400000Y-176000000D03*
%TD*%
%TO.C,H4*%
X162600000Y-48000000D03*
X163302944Y-46302944D03*
X163302944Y-49697056D03*
X165000000Y-45600000D03*
D12*
X165000000Y-48000000D03*
D11*
X165000000Y-50400000D03*
X166697056Y-46302944D03*
X166697056Y-49697056D03*
X167400000Y-48000000D03*
%TD*%
D15*
%TO.C,J1*%
X97250000Y-53060000D03*
X98266000Y-58140000D03*
X96234000Y-58140000D03*
%TD*%
D16*
%TO.C,J3*%
X158240000Y-50220000D03*
X152460000Y-50220000D03*
D17*
X159670000Y-50740000D03*
D18*
X159670000Y-46540000D03*
D17*
X151030000Y-50740000D03*
D18*
X151030000Y-46540000D03*
%TD*%
D19*
%TO.C,J4*%
X95075000Y-71900000D03*
X95075000Y-60900000D03*
D20*
X105075000Y-63900000D03*
D21*
X105075000Y-68900000D03*
%TD*%
D15*
%TO.C,J6*%
X138865075Y-105941643D03*
X143945075Y-104925643D03*
X143945075Y-106957643D03*
%TD*%
D22*
%TO.C,J7*%
X106851405Y-102606095D03*
D23*
X106851405Y-82606095D03*
%TD*%
D24*
%TO.C,J8*%
X101655500Y-77869500D03*
D25*
X109155500Y-77869500D03*
D22*
X103005500Y-75719500D03*
X103005500Y-80019500D03*
X107805500Y-75719500D03*
X107805500Y-80019500D03*
%TD*%
D15*
%TO.C,J9*%
X102978905Y-105931095D03*
X108058905Y-104915095D03*
X108058905Y-106947095D03*
%TD*%
D22*
%TO.C,J10*%
X142737575Y-102616643D03*
D23*
X142737575Y-82616643D03*
%TD*%
D24*
%TO.C,J11*%
X101879352Y-113927298D03*
D25*
X109379352Y-113927298D03*
D22*
X103229352Y-111777298D03*
X103229352Y-116077298D03*
X108029352Y-111777298D03*
X108029352Y-116077298D03*
%TD*%
D15*
%TO.C,J12*%
X103202757Y-141988893D03*
X108282757Y-140972893D03*
X108282757Y-143004893D03*
%TD*%
D22*
%TO.C,J13*%
X107075257Y-138663893D03*
D23*
X107075257Y-118663893D03*
%TD*%
D24*
%TO.C,J14*%
X137599170Y-113937845D03*
D25*
X145099170Y-113937845D03*
D22*
X138949170Y-111787845D03*
X138949170Y-116087845D03*
X143749170Y-111787845D03*
X143749170Y-116087845D03*
%TD*%
D15*
%TO.C,J15*%
X138922575Y-141999440D03*
X144002575Y-140983440D03*
X144002575Y-143015440D03*
%TD*%
D22*
%TO.C,J16*%
X142795075Y-138674440D03*
D23*
X142795075Y-118674440D03*
%TD*%
D24*
%TO.C,J17*%
X101879352Y-149127298D03*
D25*
X109379352Y-149127298D03*
D22*
X103229352Y-146977298D03*
X103229352Y-151277298D03*
X108029352Y-146977298D03*
X108029352Y-151277298D03*
%TD*%
D15*
%TO.C,J18*%
X103202757Y-177188893D03*
X108282757Y-176172893D03*
X108282757Y-178204893D03*
%TD*%
D22*
%TO.C,J19*%
X107075257Y-173863893D03*
D23*
X107075257Y-153863893D03*
%TD*%
D24*
%TO.C,J20*%
X137599170Y-149084422D03*
D25*
X145099170Y-149084422D03*
D22*
X138949170Y-146934422D03*
X138949170Y-151234422D03*
X143749170Y-146934422D03*
X143749170Y-151234422D03*
%TD*%
D15*
%TO.C,J21*%
X138922575Y-177146017D03*
X144002575Y-176130017D03*
X144002575Y-178162017D03*
%TD*%
D22*
%TO.C,J22*%
X142795075Y-173821017D03*
D23*
X142795075Y-153821017D03*
%TD*%
D24*
%TO.C,J23*%
X137541670Y-77880048D03*
D25*
X145041670Y-77880048D03*
D22*
X138891670Y-75730048D03*
X138891670Y-80030048D03*
X143691670Y-75730048D03*
X143691670Y-80030048D03*
%TD*%
M02*
