%TF.GenerationSoftware,KiCad,Pcbnew,9.0.0*%
%TF.CreationDate,2025-05-05T23:42:48+04:00*%
%TF.ProjectId,Dumpling_Main,44756d70-6c69-46e6-975f-4d61696e2e6b,rev?*%
%TF.SameCoordinates,Original*%
%TF.FileFunction,Copper,L3,Inr*%
%TF.FilePolarity,Positive*%
%FSLAX46Y46*%
G04 Gerber Fmt 4.6, Leading zero omitted, Abs format (unit mm)*
G04 Created by KiCad (PCBNEW 9.0.0) date 2025-05-05 23:42:48*
%MOMM*%
%LPD*%
G01*
G04 APERTURE LIST*
G04 Aperture macros list*
%AMRoundRect*
0 Rectangle with rounded corners*
0 $1 Rounding radius*
0 $2 $3 $4 $5 $6 $7 $8 $9 X,Y pos of 4 corners*
0 Add a 4 corners polygon primitive as box body*
4,1,4,$2,$3,$4,$5,$6,$7,$8,$9,$2,$3,0*
0 Add four circle primitives for the rounded corners*
1,1,$1+$1,$2,$3*
1,1,$1+$1,$4,$5*
1,1,$1+$1,$6,$7*
1,1,$1+$1,$8,$9*
0 Add four rect primitives between the rounded corners*
20,1,$1+$1,$2,$3,$4,$5,0*
20,1,$1+$1,$4,$5,$6,$7,0*
20,1,$1+$1,$6,$7,$8,$9,0*
20,1,$1+$1,$8,$9,$2,$3,0*%
G04 Aperture macros list end*
%TA.AperFunction,ComponentPad*%
%ADD10C,0.800000*%
%TD*%
%TA.AperFunction,ComponentPad*%
%ADD11C,6.400000*%
%TD*%
%TA.AperFunction,ComponentPad*%
%ADD12O,1.000000X2.100000*%
%TD*%
%TA.AperFunction,ComponentPad*%
%ADD13O,1.000000X1.800000*%
%TD*%
%TA.AperFunction,ComponentPad*%
%ADD14C,1.400000*%
%TD*%
%TA.AperFunction,ComponentPad*%
%ADD15RoundRect,0.770000X0.980000X-0.980000X0.980000X0.980000X-0.980000X0.980000X-0.980000X-0.980000X0*%
%TD*%
%TA.AperFunction,ComponentPad*%
%ADD16C,3.500000*%
%TD*%
%TA.AperFunction,ComponentPad*%
%ADD17C,1.100000*%
%TD*%
%TA.AperFunction,HeatsinkPad*%
%ADD18C,1.100000*%
%TD*%
%TA.AperFunction,ViaPad*%
%ADD19C,0.500000*%
%TD*%
%TA.AperFunction,ViaPad*%
%ADD20C,0.600000*%
%TD*%
%TA.AperFunction,ViaPad*%
%ADD21C,0.700000*%
%TD*%
%TA.AperFunction,Conductor*%
%ADD22C,2.000000*%
%TD*%
%TA.AperFunction,Conductor*%
%ADD23C,1.000000*%
%TD*%
G04 APERTURE END LIST*
D10*
%TO.N,N/C*%
%TO.C,H3*%
X99400000Y-176000000D03*
X98697056Y-177697056D03*
X98697056Y-174302944D03*
X97000000Y-178400000D03*
D11*
X97000000Y-176000000D03*
D10*
X97000000Y-173600000D03*
X95302944Y-177697056D03*
X95302944Y-174302944D03*
X94600000Y-176000000D03*
%TD*%
%TO.N,N/C*%
%TO.C,H1*%
X94600000Y-48000000D03*
X95302944Y-46302944D03*
X95302944Y-49697056D03*
X97000000Y-45600000D03*
D11*
X97000000Y-48000000D03*
D10*
X97000000Y-50400000D03*
X98697056Y-46302944D03*
X98697056Y-49697056D03*
X99400000Y-48000000D03*
%TD*%
%TO.N,N/C*%
%TO.C,H2*%
X162600000Y-176000000D03*
X163302944Y-174302944D03*
X163302944Y-177697056D03*
X165000000Y-173600000D03*
D11*
X165000000Y-176000000D03*
D10*
X165000000Y-178400000D03*
X166697056Y-174302944D03*
X166697056Y-177697056D03*
X167400000Y-176000000D03*
%TD*%
%TO.N,N/C*%
%TO.C,H4*%
X162600000Y-48000000D03*
X163302944Y-46302944D03*
X163302944Y-49697056D03*
X165000000Y-45600000D03*
D11*
X165000000Y-48000000D03*
D10*
X165000000Y-50400000D03*
X166697056Y-46302944D03*
X166697056Y-49697056D03*
X167400000Y-48000000D03*
%TD*%
D12*
%TO.N,GND*%
%TO.C,J3*%
X159670000Y-50740000D03*
D13*
X159670000Y-46540000D03*
D12*
X151030000Y-50740000D03*
D13*
X151030000Y-46540000D03*
%TD*%
D14*
%TO.N,*%
%TO.C,J4*%
X95075000Y-71900000D03*
X95075000Y-60900000D03*
D15*
%TO.N,GND*%
X105075000Y-63900000D03*
D16*
%TO.N,Net-(J4-P)*%
X105075000Y-68900000D03*
%TD*%
D17*
%TO.N,GND*%
%TO.C,J8*%
X103005500Y-75719500D03*
X103005500Y-80019500D03*
X107805500Y-75719500D03*
X107805500Y-80019500D03*
%TD*%
%TO.N,GND*%
%TO.C,J11*%
X103229352Y-111777298D03*
X103229352Y-116077298D03*
X108029352Y-111777298D03*
X108029352Y-116077298D03*
%TD*%
%TO.N,GND*%
%TO.C,J14*%
X138949170Y-111787845D03*
X138949170Y-116087845D03*
X143749170Y-111787845D03*
X143749170Y-116087845D03*
%TD*%
%TO.N,GND*%
%TO.C,J17*%
X103229352Y-146977298D03*
X103229352Y-151277298D03*
X108029352Y-146977298D03*
X108029352Y-151277298D03*
%TD*%
%TO.N,GND*%
%TO.C,J20*%
X138949170Y-146934422D03*
X138949170Y-151234422D03*
X143749170Y-146934422D03*
X143749170Y-151234422D03*
%TD*%
D18*
%TO.N,GND*%
%TO.C,J23*%
X138891670Y-75730048D03*
X138891670Y-80030048D03*
X143691670Y-75730048D03*
X143691670Y-80030048D03*
%TD*%
D19*
%TO.N,GND*%
X122625000Y-91400000D03*
%TO.N,+3V3*%
X121625000Y-91400000D03*
X104750000Y-48500000D03*
X134943670Y-154596039D03*
X121623852Y-153457798D03*
X110874852Y-132771707D03*
X113124127Y-93425873D03*
X103250000Y-45500000D03*
X141934761Y-107636957D03*
X140200000Y-70800000D03*
X147943670Y-127268345D03*
X104750000Y-46250000D03*
X117500000Y-150800000D03*
X112848852Y-153682798D03*
X110600000Y-101200000D03*
X154793670Y-141200000D03*
X157900000Y-127300000D03*
X103250000Y-46250000D03*
X167250000Y-66000000D03*
X134943670Y-119449462D03*
X104000000Y-46250000D03*
X112625000Y-82425000D03*
X104000000Y-45500000D03*
X165461170Y-78250000D03*
X146543670Y-172414922D03*
X106272443Y-143684207D03*
X143543670Y-155714922D03*
X101750000Y-46250000D03*
X129518413Y-75956587D03*
X120300000Y-70160000D03*
X129798852Y-114107798D03*
X149686156Y-93436421D03*
X127600000Y-67525000D03*
X104000000Y-47750000D03*
X104750000Y-45500000D03*
X157700000Y-91300000D03*
X134886170Y-83391665D03*
X110874852Y-167971707D03*
X101750000Y-47000000D03*
X157343670Y-153414922D03*
X107823852Y-120557798D03*
X146543670Y-137268345D03*
X129575000Y-78050000D03*
X103250000Y-47750000D03*
X146486170Y-101210548D03*
X112000000Y-91200000D03*
X105500000Y-45500000D03*
X150750000Y-57375000D03*
X147886170Y-91210548D03*
X129742265Y-147214385D03*
X149100000Y-51690000D03*
X148511170Y-82435548D03*
X102500000Y-48500000D03*
X118297500Y-69525000D03*
X112223852Y-127257798D03*
X101750000Y-48500000D03*
X110823852Y-137257798D03*
D20*
X156400000Y-82250000D03*
D19*
X150550000Y-68275000D03*
X106272443Y-178884207D03*
X101750000Y-45500000D03*
D20*
X153850000Y-80500000D03*
D19*
X149743656Y-164640795D03*
X110823852Y-172457798D03*
X156400000Y-63200000D03*
X122100000Y-162500000D03*
X103250000Y-48500000D03*
X98000000Y-84500000D03*
X105500000Y-46250000D03*
X107600000Y-84500000D03*
X102500000Y-47750000D03*
X157800000Y-162600000D03*
X144970000Y-53900000D03*
X145900000Y-72500000D03*
X143486170Y-84510548D03*
X104000000Y-48500000D03*
X114023838Y-164683671D03*
X148568670Y-118493345D03*
X111950000Y-71200003D03*
X157343670Y-118268345D03*
X107823852Y-155757798D03*
X143543670Y-120568345D03*
X165462083Y-112024932D03*
X114023838Y-129483671D03*
X101750000Y-47750000D03*
X158575000Y-55075000D03*
X118700000Y-173800000D03*
X165461170Y-76000000D03*
X147943670Y-162414922D03*
X106048591Y-107626409D03*
X149743656Y-129494218D03*
X154193670Y-151739922D03*
X105500000Y-48500000D03*
X99223852Y-154638915D03*
X165518670Y-149264922D03*
X150000000Y-71900000D03*
X146594670Y-132782254D03*
X104750000Y-47750000D03*
X129742265Y-112014385D03*
X104750000Y-47000000D03*
X141055243Y-56568407D03*
X105500000Y-47750000D03*
X138950000Y-58955000D03*
X165462083Y-147171509D03*
X112848852Y-118482798D03*
X104000000Y-47000000D03*
X102500000Y-45500000D03*
X148568670Y-153639922D03*
X142750000Y-70900000D03*
X102500000Y-46250000D03*
X122400000Y-82400000D03*
X117500000Y-115600000D03*
X105500000Y-47000000D03*
X129798852Y-149307798D03*
X129100000Y-59700000D03*
X102500000Y-47000000D03*
X146537170Y-96724457D03*
X118250000Y-80525000D03*
X110651000Y-96713909D03*
X165518670Y-114118345D03*
X112223852Y-162457798D03*
X103250000Y-47000000D03*
X146594670Y-167928831D03*
X99223852Y-119438915D03*
X141992261Y-178841331D03*
X121623852Y-118257798D03*
X154193670Y-116593345D03*
X141992261Y-143694754D03*
X154931095Y-176818905D03*
X121374936Y-64950064D03*
X122100000Y-127300000D03*
%TO.N,SDIO_D7*%
X159650000Y-68700000D03*
X152600000Y-65050000D03*
%TO.N,IMU_INT*%
X147968506Y-63378321D03*
X149100000Y-52710000D03*
%TO.N,I2C3_SCL*%
X144509880Y-47446707D03*
X148500000Y-63900000D03*
%TO.N,Net-(U26-EN)*%
X118300000Y-55850000D03*
X124180000Y-55839000D03*
%TO.N,Net-(U25-EN)*%
X109499000Y-55169000D03*
X106150000Y-55150000D03*
D21*
%TO.N,Net-(U26-SW)*%
X126261000Y-54070000D03*
X124680000Y-48489000D03*
%TO.N,Net-(U25-SW)*%
X112050000Y-53569000D03*
X110250000Y-48019000D03*
D19*
%TO.N,USART_RX*%
X138650000Y-56400000D03*
X141650000Y-62450000D03*
%TO.N,I2C3_SDA*%
X143696733Y-47446680D03*
X149038654Y-64442168D03*
%TO.N,USART_TX*%
X141075000Y-63100000D03*
X137900000Y-56400000D03*
%TO.N,co6_SPI1_MOSI*%
X161462083Y-156946509D03*
X162918670Y-152364922D03*
%TO.N,SPI2_NSS6*%
X134500000Y-163500000D03*
X143750000Y-62463174D03*
X155518670Y-154514922D03*
%TO.N,co5_SPI1_MOSI*%
X125742265Y-156989385D03*
X127211352Y-152200000D03*
%TO.N,SPI2_NSS5*%
X98700000Y-163457798D03*
X144500000Y-65800000D03*
X119798852Y-152400000D03*
%TO.N,co2_SPI1_MOSI*%
X161404583Y-85742135D03*
X162861170Y-81160548D03*
%TO.N,co4_SPI1_MOSI*%
X161462083Y-121799932D03*
X162918670Y-117218345D03*
%TO.N,SPI2_NSS4*%
X134500000Y-128400000D03*
X152600000Y-65750003D03*
X155518670Y-119368345D03*
%TO.N,SPI2_NSS2*%
X152600000Y-67350000D03*
X134400000Y-92210548D03*
X155461170Y-83310548D03*
%TO.N,co1_SPI1_MOSI*%
X125518413Y-85731587D03*
X126975000Y-80700000D03*
%TO.N,co3_SPI1_MOSI*%
X127211352Y-117000000D03*
X125742265Y-121789385D03*
%TO.N,SPI2_NSS3*%
X134850000Y-71900000D03*
X119798852Y-117300000D03*
X98700000Y-128300000D03*
%TO.N,SPI2_NSS1*%
X135850000Y-71900000D03*
X98100000Y-92200000D03*
X119500000Y-80600000D03*
%TO.N,SPI2_SCK*%
X119098852Y-154107798D03*
X154818670Y-154064922D03*
X148536826Y-66463174D03*
X119098852Y-118907798D03*
X154818670Y-118918345D03*
X118875000Y-82850000D03*
X154761170Y-82860548D03*
%TO.N,SPI2_MISO*%
X118125000Y-82400000D03*
X154068670Y-118468345D03*
X118348852Y-153657798D03*
X154011170Y-82410548D03*
X147950000Y-65800000D03*
X118348852Y-118457798D03*
X154068670Y-153614922D03*
%TO.N,SPI2_MOSI*%
X117623852Y-153207798D03*
X153343670Y-153164922D03*
X153343670Y-118018345D03*
X147350000Y-65150000D03*
X117623852Y-118007798D03*
X117400000Y-81950000D03*
X153286170Y-81960548D03*
%TO.N,SPI1_NSS*%
X123550000Y-68100000D03*
X142300000Y-65150000D03*
%TO.N,SPI1_SCK*%
X142300000Y-66475000D03*
X130750000Y-70200000D03*
%TO.N,SPI1_MISO*%
X143750000Y-65150000D03*
X123550000Y-68925000D03*
%TO.N,SPI1_MOSI*%
X131350000Y-71450000D03*
X143750000Y-66450000D03*
%TO.N,co6_FLASH_WP*%
X150443658Y-164639855D03*
X154150000Y-148850000D03*
%TO.N,co6_FLASH_HOLD*%
X161100000Y-147400000D03*
X147910127Y-160871173D03*
%TO.N,co5_FLASH_WP*%
X114723840Y-164682731D03*
X118450000Y-148950000D03*
%TO.N,co5_FLASH_HOLD*%
X112190309Y-160914049D03*
X125600000Y-148000000D03*
%TO.N,co4_FLASH_WP*%
X154172610Y-113776947D03*
X150443658Y-129493278D03*
%TO.N,co4_FLASH_HOLD*%
X147910127Y-125724596D03*
X161350000Y-112850000D03*
%TO.N,co3_FLASH_WP*%
X114723840Y-129482731D03*
X118450000Y-113550000D03*
%TO.N,co3_FLASH_HOLD*%
X125550000Y-112950000D03*
X112190309Y-125714049D03*
%TO.N,co2_FLASH_WP*%
X150386158Y-93435481D03*
D20*
X153850000Y-77600000D03*
D19*
%TO.N,co2_FLASH_HOLD*%
X147852627Y-89666799D03*
X161350000Y-77400000D03*
%TO.N,Trigger*%
X160213083Y-159200000D03*
X136750000Y-59000000D03*
X124525000Y-159300000D03*
X124200000Y-88050000D03*
X124500000Y-124050000D03*
X160144087Y-88019087D03*
X160212083Y-124273440D03*
%TO.N,I2C2_SCL*%
X122400000Y-87125000D03*
X122700000Y-122700000D03*
X158225000Y-86425000D03*
X158400000Y-157600000D03*
X146885000Y-72485000D03*
X158400000Y-122500000D03*
X122773852Y-157750000D03*
%TO.N,I2C2_SDA*%
X147800000Y-72500000D03*
X147861170Y-90410548D03*
X147918670Y-161614922D03*
X111975000Y-90400000D03*
X112198852Y-126457798D03*
X112198852Y-161657798D03*
X147918670Y-126468345D03*
%TO.N,I2C1_SCL*%
X119187500Y-71900000D03*
%TO.N,I2C1_SDA*%
X118750000Y-71325000D03*
%TO.N,co1_FLASH_WP*%
X114100000Y-93450000D03*
X118250000Y-77650000D03*
%TO.N,co1_FLASH_HOLD*%
X125550000Y-77750000D03*
X111966457Y-89656251D03*
%TO.N,buzzer*%
X131550000Y-63150000D03*
X140306587Y-61106587D03*
%TO.N,Net-(SW1-B)*%
X139700000Y-52090000D03*
X158575000Y-56675000D03*
%TO.N,BOOT0*%
X139700000Y-54615000D03*
X142400000Y-60150000D03*
%TO.N,VBAT*%
X108375000Y-65425000D03*
%TO.N,co6_gpio1*%
X143693670Y-162364922D03*
X154493670Y-163739922D03*
%TO.N,co6_pwr_cyc*%
X157800000Y-158300000D03*
X142793670Y-162814922D03*
%TO.N,co6_gpio2*%
X143400000Y-161714922D03*
X155293670Y-163739922D03*
%TO.N,co6_gpio4*%
X139617575Y-157514922D03*
X157200000Y-162021017D03*
%TO.N,co6_gpio3*%
X156099765Y-163739922D03*
X143693670Y-161000000D03*
%TO.N,co6_USB_D-_ESD*%
X141749170Y-148300000D03*
X140939170Y-149844422D03*
X151200000Y-146700000D03*
%TO.N,co5_gpio2*%
X107623852Y-161801581D03*
X119573852Y-163782798D03*
%TO.N,co5_gpio4*%
X121400000Y-162063893D03*
X103897757Y-157557798D03*
%TO.N,co5_pwr_cyc*%
X107050000Y-163150000D03*
X122000000Y-158200000D03*
%TO.N,co5_gpio3*%
X107981926Y-161112344D03*
X120379947Y-163782798D03*
%TO.N,co5_gpio1*%
X118773852Y-163782798D03*
X107973852Y-162407798D03*
%TO.N,co5_USB_D-_ESD*%
X105219352Y-149887298D03*
X115400000Y-146700000D03*
X106021477Y-148407875D03*
%TO.N,co4_gpio4*%
X157200000Y-126874440D03*
X139617575Y-122368345D03*
%TO.N,co4_pwr_cyc*%
X142793670Y-127668345D03*
X157500000Y-123100000D03*
%TO.N,co4_gpio1*%
X154493670Y-128593345D03*
X143693670Y-127218345D03*
%TO.N,co4_gpio2*%
X143400000Y-126500000D03*
X155293670Y-128593345D03*
%TO.N,co4_gpio3*%
X156099765Y-128593345D03*
X143693670Y-125800000D03*
%TO.N,co4_USB_D-_ESD*%
X151200000Y-111500000D03*
X141749170Y-113100000D03*
X140939170Y-114697845D03*
%TO.N,co3_gpio4*%
X121400000Y-126863893D03*
X103897757Y-122357798D03*
%TO.N,co3_gpio2*%
X107700000Y-126500000D03*
X119573852Y-128582798D03*
%TO.N,co3_pwr_cyc*%
X121900000Y-123100000D03*
X107073852Y-127657798D03*
%TO.N,co3_gpio3*%
X120379947Y-128582798D03*
X107973852Y-125807798D03*
%TO.N,co3_gpio1*%
X118773852Y-128582798D03*
X107973852Y-127207798D03*
%TO.N,co3_USB_D-_ESD*%
X105219352Y-114687298D03*
X115400000Y-111500000D03*
X106029352Y-113100000D03*
%TO.N,co2_gpio2*%
X155236170Y-92535548D03*
X143300000Y-90510548D03*
%TO.N,co2_gpio3*%
X143636170Y-89860548D03*
X156042265Y-92535548D03*
%TO.N,co2_pwr_cyc*%
X157600000Y-87000000D03*
X142736170Y-91610548D03*
%TO.N,co2_gpio1*%
X143637517Y-91160480D03*
X154436170Y-92535548D03*
%TO.N,co2_gpio4*%
X139560075Y-86310548D03*
X157100000Y-90825000D03*
%TO.N,co1_USB_D-_ESD*%
X115000000Y-75400000D03*
X104995500Y-78629500D03*
X105785500Y-77109500D03*
%TO.N,co1_gpio4*%
X103673905Y-86300000D03*
X121200000Y-90806095D03*
%TO.N,co1_pwr_cyc*%
X106850000Y-91600000D03*
X121375000Y-87100000D03*
%TO.N,co1_gpio3*%
X107750000Y-89750000D03*
X120156095Y-92525000D03*
%TO.N,co1_gpio2*%
X107400000Y-90500000D03*
X119350000Y-92525000D03*
%TO.N,co1_gpio1*%
X107750000Y-91150000D03*
X118550000Y-92525000D03*
%TO.N,co2_USB_D-_ESD*%
X150886170Y-75600000D03*
X141671670Y-77120048D03*
X140881670Y-78640048D03*
%TO.N,SDIO_CMD*%
X167250000Y-64950000D03*
X145720924Y-60350000D03*
%TO.N,SDIO_CLK*%
X159650000Y-67500000D03*
X146400000Y-61200000D03*
%TO.N,SDIO_D2*%
X147750000Y-61200000D03*
X159625000Y-65125000D03*
%TO.N,SDIO_D3*%
X147070924Y-60350000D03*
X159650000Y-66300000D03*
%TO.N,SWCLK*%
X99850000Y-55600000D03*
X148420924Y-60350000D03*
%TO.N,SWDIO*%
X149100000Y-61200000D03*
X99850000Y-54475000D03*
%TO.N,co6_RGB_LED*%
X159543670Y-156900000D03*
D20*
X136075765Y-156938922D03*
%TO.N,co5_RGB_LED*%
X100355947Y-156981798D03*
D19*
X123823852Y-157100000D03*
%TO.N,co4_RGB_LED*%
X159543670Y-121900000D03*
D20*
X136075765Y-121792345D03*
D19*
%TO.N,co3_RGB_LED*%
X123823852Y-121900000D03*
D20*
X100355947Y-121781798D03*
%TO.N,co2_RGB_LED*%
X136018265Y-85734548D03*
D19*
X159487731Y-85700000D03*
%TO.N,co1_RGB_LED*%
X123600000Y-86200000D03*
D20*
X100132095Y-85724000D03*
D19*
%TO.N,RGB_LED*%
X140297250Y-60127520D03*
X130425000Y-61900000D03*
%TO.N,VBUS*%
X147623670Y-77960548D03*
X104579352Y-151257798D03*
X142443670Y-147114922D03*
X140299170Y-151214922D03*
X104579352Y-116057798D03*
X142443670Y-111968345D03*
X106723852Y-147157798D03*
X140299170Y-116068345D03*
X111961352Y-149207798D03*
X142386170Y-75910548D03*
X104355500Y-80000000D03*
X106723852Y-111957798D03*
X111961352Y-114007798D03*
D21*
X152950000Y-54137500D03*
X157750000Y-54137500D03*
X114050000Y-62937500D03*
D19*
X147681170Y-149164922D03*
X140241670Y-80010548D03*
X106500000Y-75900000D03*
X147681170Y-114018345D03*
X111737500Y-77950000D03*
%TO.N,co6_NRST*%
X147700000Y-173839221D03*
X146000000Y-55462834D03*
X153082252Y-163782252D03*
%TO.N,co5_NRST*%
X112200000Y-174100000D03*
X117398852Y-163788711D03*
X146000000Y-56162837D03*
%TO.N,co4_NRST*%
X144380913Y-63094087D03*
X153118670Y-128599258D03*
X149300000Y-139231655D03*
%TO.N,co3_NRST*%
X146550000Y-66450000D03*
X117398852Y-128588711D03*
X113950000Y-139200000D03*
%TO.N,co2_NRST*%
X145800000Y-65800000D03*
X148500000Y-103100000D03*
X153061170Y-92541461D03*
D21*
%TO.N,+5V*%
X142943670Y-170914922D03*
D19*
X117450000Y-47750000D03*
X159750000Y-53475000D03*
X119700000Y-47750000D03*
D21*
X119900000Y-56600000D03*
D19*
X119700000Y-45500000D03*
X116700000Y-47750000D03*
X116700000Y-47000000D03*
D21*
X96750000Y-100000000D03*
D19*
X117450000Y-46250000D03*
X117450000Y-47000000D03*
X118950000Y-46250000D03*
X119700000Y-47000000D03*
X117450000Y-45500000D03*
D21*
X107223852Y-135757798D03*
D19*
X118950000Y-48500000D03*
X118950000Y-45500000D03*
X118200000Y-47000000D03*
X118200000Y-48500000D03*
D21*
X127980000Y-45979500D03*
D19*
X116700000Y-45500000D03*
X118200000Y-46250000D03*
X116700000Y-46250000D03*
X119700000Y-48500000D03*
X127950000Y-45249982D03*
X118200000Y-45500000D03*
D21*
X107223852Y-170957798D03*
X98350000Y-171600000D03*
D19*
X118200000Y-47750000D03*
D21*
X142943670Y-135768345D03*
D19*
X116700000Y-48500000D03*
D21*
X142886170Y-99710548D03*
D19*
X117450000Y-48500000D03*
X139250000Y-46450000D03*
X118950000Y-47000000D03*
D21*
X107000000Y-99700000D03*
X96950000Y-136100000D03*
D19*
X119700000Y-46250000D03*
X118950000Y-47750000D03*
%TO.N,VIN*%
X102000000Y-59750000D03*
X105000000Y-59750000D03*
D21*
X134877190Y-100722810D03*
D19*
X102750000Y-59000000D03*
D21*
X103473852Y-135307798D03*
D19*
X104250000Y-59000000D03*
X102000000Y-57500000D03*
X104250000Y-59750000D03*
X102750000Y-57500000D03*
D21*
X103473852Y-170507798D03*
D19*
X103500000Y-58250000D03*
X103500000Y-59750000D03*
X102000000Y-56750000D03*
X102000000Y-58250000D03*
D21*
X103250000Y-99250000D03*
D19*
X102750000Y-59750000D03*
X103500000Y-59000000D03*
D21*
X135077190Y-136722810D03*
D19*
X102750000Y-58250000D03*
D21*
X135177190Y-171922810D03*
D19*
X102000000Y-59000000D03*
%TO.N,co1_NRST*%
X112700000Y-103300000D03*
X142750000Y-71900000D03*
X117175000Y-92530913D03*
D21*
%TO.N,GND*%
X150962575Y-157596017D03*
X115018905Y-86381095D03*
X150962575Y-122449440D03*
D19*
X121423852Y-151082798D03*
D21*
X153305075Y-87191643D03*
X153362575Y-123249440D03*
D19*
X127455000Y-50704500D03*
X158700000Y-127000000D03*
D21*
X153362575Y-159996017D03*
D19*
X109148852Y-150007798D03*
X138993670Y-119468345D03*
X157143670Y-151039922D03*
X149492261Y-118494754D03*
D21*
X115242757Y-125638893D03*
D19*
X107723852Y-177157798D03*
D21*
X152562575Y-122449440D03*
X150905075Y-89591643D03*
D20*
X139340000Y-71787500D03*
D19*
X107723852Y-141957798D03*
X138993670Y-154614922D03*
X139000000Y-101600000D03*
D21*
X154162575Y-122449440D03*
X154105075Y-89591643D03*
D19*
X153311170Y-95135548D03*
D21*
X150905075Y-87991643D03*
X154162575Y-160796017D03*
D19*
X111500000Y-50159500D03*
X138943670Y-165114922D03*
X138880075Y-90904453D03*
X137786170Y-76910548D03*
X129525000Y-76930000D03*
X134036170Y-85810548D03*
X98150000Y-85800000D03*
D21*
X118442757Y-122438893D03*
X117642757Y-123238893D03*
X152562575Y-160796017D03*
X152562575Y-157596017D03*
X151762575Y-124849440D03*
D19*
X159975000Y-72775000D03*
D21*
X118442757Y-124038893D03*
D19*
X117648852Y-131182798D03*
X103273852Y-119457798D03*
X109148852Y-114807798D03*
X138937575Y-162108827D03*
X98373852Y-121857798D03*
X103323852Y-171657798D03*
X165512500Y-57687500D03*
X144868670Y-114818345D03*
X122623852Y-154457798D03*
D21*
X154105075Y-87991643D03*
D19*
X158343670Y-154414922D03*
X103223852Y-129957798D03*
X158525000Y-162200000D03*
X150653907Y-77970995D03*
X114750000Y-78000000D03*
X122900000Y-127100000D03*
X126680000Y-50704500D03*
D21*
X154162575Y-159196017D03*
D19*
X138886170Y-93910548D03*
D21*
X116842757Y-125638893D03*
X151762575Y-159996017D03*
D19*
X103217757Y-126951703D03*
X122973852Y-133782798D03*
X117648852Y-166382798D03*
X101900000Y-76900000D03*
D21*
X116842757Y-160838893D03*
D19*
X112800000Y-51459500D03*
D21*
X152505075Y-86391643D03*
D19*
X139043670Y-171614922D03*
D21*
X151762575Y-123249440D03*
D19*
X125955000Y-50704500D03*
X125955000Y-52079500D03*
X142300000Y-49300000D03*
D21*
X116842757Y-124038893D03*
D19*
X113772443Y-153684207D03*
X167250000Y-67050000D03*
X149075000Y-48500000D03*
X101123852Y-114382798D03*
X103223852Y-163657798D03*
X113772443Y-118484207D03*
D21*
X153362575Y-124849440D03*
X115242757Y-160838893D03*
X154162575Y-157596017D03*
D19*
X149043655Y-129500000D03*
D21*
X115018905Y-87981095D03*
D19*
X155350000Y-46540000D03*
D21*
X116842757Y-122438893D03*
D19*
X113548591Y-82426409D03*
X136843670Y-149539922D03*
X114006095Y-178143905D03*
X165468670Y-112998345D03*
X133195000Y-69800000D03*
X148986170Y-93431530D03*
X103217757Y-162151703D03*
X136843670Y-114393345D03*
X123406095Y-177193905D03*
D21*
X154162575Y-124049440D03*
X152505075Y-87991643D03*
D19*
X153368670Y-166339922D03*
X101123852Y-149582798D03*
X158693670Y-133793345D03*
X121423852Y-115882798D03*
D21*
X117642757Y-124838893D03*
D19*
X122973852Y-168982798D03*
D21*
X154162575Y-125649440D03*
X151762575Y-158396017D03*
X115242757Y-159238893D03*
D19*
X107973852Y-164357798D03*
X102993905Y-90893905D03*
X150056170Y-111493345D03*
X132930000Y-49755000D03*
D21*
X117642757Y-160038893D03*
D19*
X153368670Y-131193345D03*
D20*
X157400000Y-82250000D03*
D19*
X103125000Y-101650000D03*
D21*
X116618905Y-87981095D03*
D19*
X143693670Y-164314922D03*
D21*
X116842757Y-159238893D03*
D19*
X165468670Y-148144922D03*
D21*
X117642757Y-158438893D03*
D19*
X103000000Y-92400000D03*
X139043670Y-136468345D03*
D21*
X151705075Y-88791643D03*
D19*
X113323852Y-164678780D03*
D21*
X115242757Y-122438893D03*
D19*
X125955000Y-51379500D03*
X139050000Y-137725000D03*
X103273852Y-154657798D03*
D21*
X154105075Y-86391643D03*
X117418905Y-88781095D03*
D19*
X155400000Y-52900000D03*
X143386170Y-105910548D03*
D21*
X152562575Y-159196017D03*
D19*
X122925000Y-162300000D03*
X143443670Y-141968345D03*
X117425000Y-95125000D03*
X134155000Y-64550000D03*
X138943670Y-163614922D03*
X103223852Y-128457798D03*
X103000000Y-93900000D03*
X113323852Y-129478780D03*
X122623852Y-119257798D03*
D21*
X116042757Y-158438893D03*
D19*
X111975000Y-93950000D03*
X151650000Y-57375000D03*
X152200000Y-52900000D03*
X150100000Y-177900000D03*
X94700000Y-56870000D03*
X137843670Y-148114922D03*
D21*
X150962575Y-124049440D03*
X150962575Y-159196017D03*
D19*
X126680000Y-51379500D03*
X144868670Y-149964922D03*
X121100000Y-79200000D03*
X129748852Y-112987798D03*
X129748852Y-148187798D03*
X144811170Y-78760548D03*
X137843670Y-112968345D03*
X157143670Y-115893345D03*
X114336352Y-111482798D03*
X112150000Y-50159500D03*
X138936170Y-83410548D03*
X111500000Y-50809500D03*
X135750000Y-53900000D03*
X151950000Y-71900000D03*
D21*
X118218905Y-87981095D03*
D19*
X114336352Y-146682798D03*
D21*
X118442757Y-157638893D03*
D19*
X158631170Y-168877422D03*
X141800000Y-52300000D03*
X158506095Y-176843905D03*
X112150000Y-51459500D03*
X148775000Y-54375000D03*
X138937575Y-126962250D03*
X150056170Y-146639922D03*
X140525000Y-63700000D03*
D21*
X115818905Y-88781095D03*
X152562575Y-125649440D03*
D19*
X103323852Y-136457798D03*
D21*
X153362575Y-158396017D03*
X115242757Y-124038893D03*
D19*
X138886170Y-92410548D03*
X103050000Y-83400000D03*
D21*
X116842757Y-157638893D03*
X118442757Y-125638893D03*
D19*
X112800000Y-50809500D03*
D21*
X115818905Y-87181095D03*
D19*
X136275000Y-57965000D03*
D21*
X118218905Y-89581095D03*
D19*
X139043670Y-172900000D03*
D21*
X116618905Y-86381095D03*
X116618905Y-89581095D03*
D19*
X112150000Y-50809500D03*
X141825000Y-56600000D03*
X143693670Y-129168345D03*
X126225000Y-61875000D03*
X138943670Y-129968345D03*
X149434761Y-82436957D03*
D21*
X150962575Y-160796017D03*
X115242757Y-157638893D03*
D19*
X149492261Y-153641331D03*
D21*
X118442757Y-160838893D03*
D19*
X112800000Y-50159500D03*
X107750000Y-93100000D03*
X158636170Y-97735548D03*
X149511170Y-106843905D03*
X122400000Y-83200000D03*
D21*
X116042757Y-124838893D03*
D19*
X149043670Y-164635904D03*
X111950000Y-70450000D03*
D21*
X116042757Y-160038893D03*
D19*
X158368670Y-141225000D03*
X122750000Y-97725000D03*
X138943670Y-128468345D03*
X143636170Y-93110548D03*
X103223852Y-165157798D03*
X138986170Y-100410548D03*
X134093670Y-157014922D03*
D21*
X115018905Y-89581095D03*
D19*
X123550000Y-70201000D03*
X136786170Y-78335548D03*
D21*
X116042757Y-123238893D03*
X153305075Y-88791643D03*
D19*
X107973852Y-129157798D03*
X150268670Y-142525000D03*
X103100000Y-100400000D03*
X143443670Y-177114922D03*
X158700000Y-91120000D03*
D21*
X152562575Y-124049440D03*
D19*
X158575000Y-52900000D03*
D21*
X150962575Y-125649440D03*
X152505075Y-89591643D03*
D19*
X108925000Y-78750000D03*
X103325000Y-172925000D03*
X100900000Y-78325000D03*
D21*
X117418905Y-87181095D03*
D19*
X102123852Y-148157798D03*
X103325000Y-137625000D03*
X127597500Y-65520000D03*
D21*
X151705075Y-87191643D03*
X118218905Y-86381095D03*
D19*
X98373852Y-157057798D03*
X107500000Y-105900000D03*
X158343670Y-119268345D03*
X165461170Y-77000000D03*
X111500000Y-51459500D03*
X134093670Y-121868345D03*
X102123852Y-112957798D03*
X164500000Y-52225000D03*
D21*
X118442757Y-159238893D03*
X150905075Y-86391643D03*
D19*
%TO.N,NRST*%
X94700000Y-55600000D03*
X131970000Y-49755000D03*
X142400000Y-61100000D03*
%TO.N,I2C1_SDA*%
X140800000Y-55200000D03*
%TO.N,I2C1_SCL*%
X141800000Y-55187500D03*
%TO.N,+3V3*%
X154831095Y-105618905D03*
%TO.N,GND*%
X158406095Y-105643905D03*
%TO.N,+3V3*%
X119331095Y-141697596D03*
%TO.N,GND*%
X113806095Y-142943905D03*
X122906095Y-141722596D03*
X113925000Y-106996309D03*
X122500000Y-105700000D03*
%TO.N,+3V3*%
X118450000Y-105671309D03*
X140800000Y-52300000D03*
%TD*%
D22*
%TO.N,VBUS*%
X110250000Y-80000000D02*
X110250000Y-93250000D01*
X110250000Y-93250000D02*
X108750000Y-94750000D01*
X109423852Y-125826148D02*
X109423852Y-133805774D01*
X108750000Y-102250000D02*
X110653886Y-104153886D01*
X108750000Y-94750000D02*
X108750000Y-102250000D01*
X112274852Y-145725148D02*
X110750000Y-147250000D01*
X111130352Y-112289289D02*
X111130352Y-124119648D01*
X110653886Y-111812823D02*
X111130352Y-112289289D01*
X110653886Y-104153886D02*
X110653886Y-111812823D01*
X111130352Y-124119648D02*
X109423852Y-125826148D01*
X109423852Y-133805774D02*
X112274852Y-136656774D01*
X112274852Y-136656774D02*
X112274852Y-145725148D01*
%TO.N,+5V*%
X136697500Y-118697500D02*
X136697500Y-120291345D01*
X137486575Y-161507803D02*
X137486575Y-166736575D01*
X137486575Y-166736575D02*
X138750000Y-168000000D01*
X137250000Y-107500000D02*
X135392670Y-109357330D01*
D23*
X140014512Y-135637823D02*
X139099590Y-134722901D01*
D22*
X137486575Y-126361226D02*
X137486575Y-131486575D01*
D23*
X139928886Y-99637823D02*
X139013964Y-98722901D01*
X140043808Y-170752745D02*
X139128886Y-169837823D01*
D22*
X137576765Y-126271036D02*
X137486575Y-126361226D01*
D23*
X142557634Y-99637823D02*
X139928886Y-99637823D01*
X142643260Y-135637823D02*
X140014512Y-135637823D01*
D22*
X135392670Y-145357330D02*
X137000000Y-143750000D01*
X135392670Y-145357330D02*
X135392670Y-152993015D01*
D23*
X142672556Y-170752745D02*
X140043808Y-170752745D01*
D22*
X135392670Y-117392670D02*
X136697500Y-118697500D01*
X135392670Y-109357330D02*
X135392670Y-117392670D01*
X137576765Y-161417613D02*
X137486575Y-161507803D01*
X137486575Y-131486575D02*
X138750000Y-132750000D01*
X137576765Y-155177110D02*
X137576765Y-161417613D01*
X137000000Y-143750000D02*
X137250000Y-143750000D01*
X136697500Y-120291345D02*
X137576765Y-121170610D01*
X137576765Y-121170610D02*
X137576765Y-126271036D01*
X135392670Y-152993015D02*
X137576765Y-155177110D01*
%TO.N,VIN*%
X131653886Y-139137823D02*
X131653886Y-166837823D01*
X131528886Y-103837823D02*
X131528886Y-134437823D01*
%TD*%
M02*
