%TF.GenerationSoftware,KiCad,Pcbnew,9.0.0*%
%TF.CreationDate,2025-05-05T23:42:48+04:00*%
%TF.ProjectId,Dumpling_Main,44756d70-6c69-46e6-975f-4d61696e2e6b,rev?*%
%TF.SameCoordinates,Original*%
%TF.FileFunction,Soldermask,Top*%
%TF.FilePolarity,Negative*%
%FSLAX46Y46*%
G04 Gerber Fmt 4.6, Leading zero omitted, Abs format (unit mm)*
G04 Created by KiCad (PCBNEW 9.0.0) date 2025-05-05 23:42:48*
%MOMM*%
%LPD*%
G01*
G04 APERTURE LIST*
G04 Aperture macros list*
%AMRoundRect*
0 Rectangle with rounded corners*
0 $1 Rounding radius*
0 $2 $3 $4 $5 $6 $7 $8 $9 X,Y pos of 4 corners*
0 Add a 4 corners polygon primitive as box body*
4,1,4,$2,$3,$4,$5,$6,$7,$8,$9,$2,$3,0*
0 Add four circle primitives for the rounded corners*
1,1,$1+$1,$2,$3*
1,1,$1+$1,$4,$5*
1,1,$1+$1,$6,$7*
1,1,$1+$1,$8,$9*
0 Add four rect primitives between the rounded corners*
20,1,$1+$1,$2,$3,$4,$5,0*
20,1,$1+$1,$4,$5,$6,$7,0*
20,1,$1+$1,$6,$7,$8,$9,0*
20,1,$1+$1,$8,$9,$2,$3,0*%
%AMFreePoly0*
4,1,110,1.094590,1.468199,1.088926,1.386563,1.081179,1.305055,1.071374,1.223800,1.059462,1.142824,1.045491,1.062154,1.029464,0.981890,1.011405,0.902057,0.991288,0.822708,0.969139,0.743917,0.945009,0.665685,0.918872,0.588113,0.890780,0.511252,0.860706,0.435103,0.828702,0.359766,0.794768,0.285243,0.758954,0.211684,0.721285,0.139014,0.681737,0.067336,0.640386,-0.003302,
0.597257,-0.072873,0.552350,-0.141300,0.505690,-0.208560,0.457353,-0.274625,0.407315,-0.339395,0.355652,-0.402896,0.302388,-0.465050,0.247549,-0.525806,0.191161,-0.585141,0.133274,-0.643028,0.073940,-0.699416,0.013183,-0.754255,-0.048971,-0.807518,-0.112471,-0.859182,-0.177242,-0.909220,-0.243307,-0.957557,-0.310566,-1.004216,-0.378994,-1.049124,-0.448565,-1.092253,-0.519202,-1.133604,
-0.590881,-1.173152,-0.663551,-1.210820,-0.737109,-1.246634,-0.811633,-1.280569,-0.886970,-1.312573,-0.963119,-1.342647,-1.039980,-1.370739,-1.117551,-1.396876,-1.195784,-1.421006,-1.274575,-1.443155,-1.353924,-1.463272,-1.433757,-1.481331,-1.514021,-1.497358,-1.594691,-1.511328,-1.675667,-1.523241,-1.756922,-1.533045,-1.838430,-1.540792,-1.920066,-1.546457,-2.001854,-1.550013,-2.001854,-0.550013,
-1.934061,-0.545949,-1.866421,-0.539776,-1.799009,-0.531547,-1.731877,-0.521234,-1.665100,-0.508839,-1.598755,-0.494412,-1.532893,-0.477927,-1.467513,-0.459411,-1.402769,-0.438887,-1.338710,-0.416383,-1.275362,-0.391923,-1.212776,-0.365507,-1.151054,-0.337160,-1.090246,-0.306934,-1.030378,-0.274854,-0.971552,-0.240919,-0.913792,-0.205207,-0.857150,-0.167717,-0.801702,-0.128499,-0.747498,-0.087579,
-0.694590,-0.045034,-0.643002,-0.000838,-0.592837,0.044907,-0.544044,0.092177,-0.496774,0.140970,-0.451029,0.191135,-0.406833,0.242723,-0.364288,0.295631,-0.323368,0.349835,-0.284150,0.405283,-0.246660,0.461925,-0.210947,0.519685,-0.177013,0.578512,-0.144933,0.638379,-0.114707,0.699187,-0.086360,0.760909,-0.059944,0.823495,-0.035484,0.886843,-0.012979,0.950902,0.007544,1.015646,
0.026060,1.081026,0.042545,1.146888,0.056972,1.213233,0.069368,1.280010,0.079680,1.347142,0.087910,1.414554,0.094082,1.482195,0.098146,1.549987,1.098146,1.549987,1.094590,1.468199,1.094590,1.468199,$1*%
%AMFreePoly1*
4,1,110,-0.545949,1.934061,-0.539776,1.866421,-0.531547,1.799009,-0.521234,1.731877,-0.508839,1.665100,-0.494412,1.598755,-0.477927,1.532893,-0.459411,1.467513,-0.438887,1.402769,-0.416383,1.338710,-0.391923,1.275362,-0.365507,1.212776,-0.337160,1.151054,-0.306934,1.090246,-0.274854,1.030378,-0.240919,0.971552,-0.205207,0.913792,-0.167717,0.857150,-0.128499,0.801702,-0.087579,0.747498,
-0.045034,0.694590,-0.000838,0.643002,0.044907,0.592837,0.092177,0.544044,0.140970,0.496774,0.191135,0.451029,0.242723,0.406833,0.295631,0.364288,0.349835,0.323368,0.405283,0.284150,0.461925,0.246660,0.519685,0.210947,0.578512,0.177013,0.638379,0.144933,0.699187,0.114707,0.760909,0.086360,0.823495,0.059944,0.886843,0.035484,0.950902,0.012979,1.015646,-0.007544,
1.081026,-0.026060,1.146888,-0.042545,1.213233,-0.056972,1.280010,-0.069368,1.347142,-0.079680,1.414554,-0.087910,1.482195,-0.094082,1.549987,-0.098146,1.549987,-1.098146,1.468199,-1.094590,1.386563,-1.088926,1.305055,-1.081179,1.223800,-1.071374,1.142824,-1.059462,1.062154,-1.045491,0.981890,-1.029464,0.902057,-1.011405,0.822708,-0.991288,0.743917,-0.969139,0.665685,-0.945009,
0.588113,-0.918872,0.511252,-0.890780,0.435103,-0.860706,0.359766,-0.828702,0.285243,-0.794768,0.211684,-0.758954,0.139014,-0.721285,0.067336,-0.681737,-0.003302,-0.640386,-0.072873,-0.597257,-0.141300,-0.552350,-0.208560,-0.505690,-0.274625,-0.457353,-0.339395,-0.407315,-0.402896,-0.355652,-0.465050,-0.302388,-0.525806,-0.247549,-0.585141,-0.191161,-0.643028,-0.133274,-0.699416,-0.073940,
-0.754255,-0.013183,-0.807518,0.048971,-0.859182,0.112471,-0.909220,0.177242,-0.957557,0.243307,-1.004216,0.310566,-1.049124,0.378994,-1.092253,0.448565,-1.133604,0.519202,-1.173152,0.590881,-1.210820,0.663551,-1.246634,0.737109,-1.280569,0.811633,-1.312573,0.886970,-1.342647,0.963119,-1.370739,1.039980,-1.396876,1.117551,-1.421006,1.195784,-1.443155,1.274575,-1.463272,1.353924,
-1.481331,1.433757,-1.497358,1.514021,-1.511328,1.594691,-1.523241,1.675667,-1.533045,1.756922,-1.540792,1.838430,-1.546457,1.920066,-1.550013,2.001854,-0.550013,2.001854,-0.545949,1.934061,-0.545949,1.934061,$1*%
%AMFreePoly2*
4,1,110,2.001854,0.550013,1.934061,0.545949,1.866421,0.539776,1.799009,0.531547,1.731877,0.521234,1.665100,0.508839,1.598755,0.494412,1.532868,0.477927,1.467513,0.459411,1.402769,0.438887,1.338710,0.416383,1.275362,0.391923,1.212776,0.365507,1.151054,0.337160,1.090246,0.306934,1.030378,0.274854,0.971552,0.240919,0.913792,0.205207,0.857150,0.167717,0.801702,0.128499,
0.747498,0.087579,0.694590,0.045034,0.643002,0.000838,0.592812,-0.044907,0.544044,-0.092177,0.496774,-0.140945,0.451029,-0.191135,0.406833,-0.242723,0.364288,-0.295631,0.323368,-0.349835,0.284150,-0.405283,0.246660,-0.461925,0.210947,-0.519685,0.177013,-0.578512,0.144933,-0.638379,0.114707,-0.699187,0.086360,-0.760909,0.059944,-0.823495,0.035484,-0.886843,0.012979,-0.950902,
-0.007544,-1.015646,-0.026060,-1.081001,-0.042545,-1.146888,-0.056972,-1.213233,-0.069368,-1.280010,-0.079680,-1.347142,-0.087910,-1.414554,-0.094082,-1.482195,-0.098146,-1.549987,-1.098146,-1.549987,-1.094590,-1.468199,-1.088926,-1.386563,-1.081179,-1.305055,-1.071349,-1.223800,-1.059462,-1.142824,-1.045491,-1.062154,-1.029464,-0.981890,-1.011405,-0.902057,-0.991288,-0.822708,-0.969139,-0.743917,
-0.945009,-0.665685,-0.918872,-0.588113,-0.890780,-0.511252,-0.860706,-0.435103,-0.828702,-0.359766,-0.794768,-0.285268,-0.758954,-0.211684,-0.721285,-0.139014,-0.681737,-0.067336,-0.640386,0.003302,-0.597257,0.072873,-0.552350,0.141300,-0.505690,0.208560,-0.457353,0.274625,-0.407315,0.339395,-0.355652,0.402896,-0.302388,0.465050,-0.247549,0.525806,-0.191161,0.585141,-0.133274,0.643028,
-0.073940,0.699416,-0.013183,0.754255,0.048971,0.807518,0.112471,0.859182,0.177242,0.909220,0.243307,0.957557,0.310566,1.004216,0.378994,1.049124,0.448565,1.092253,0.519202,1.133604,0.590881,1.173152,0.663551,1.210820,0.737135,1.246634,0.811633,1.280569,0.886970,1.312573,0.963119,1.342647,1.039980,1.370739,1.117551,1.396876,1.195784,1.421006,1.274575,1.443155,
1.353924,1.463272,1.433757,1.481331,1.514021,1.497358,1.594691,1.511328,1.675667,1.523216,1.756922,1.533045,1.838430,1.540792,1.920066,1.546457,2.001854,1.550013,2.001854,0.550013,2.001854,0.550013,$1*%
%AMFreePoly3*
4,1,110,-1.468199,1.094590,-1.386563,1.088926,-1.305055,1.081179,-1.223800,1.071349,-1.142824,1.059462,-1.062154,1.045491,-0.981890,1.029464,-0.902057,1.011405,-0.822708,0.991288,-0.743917,0.969139,-0.665685,0.945009,-0.588113,0.918872,-0.511252,0.890780,-0.435103,0.860706,-0.359766,0.828702,-0.285268,0.794768,-0.211684,0.758954,-0.139014,0.721285,-0.067336,0.681737,0.003302,0.640386,
0.072873,0.597257,0.141300,0.552350,0.208560,0.505690,0.274625,0.457353,0.339395,0.407315,0.402896,0.355652,0.465050,0.302388,0.525806,0.247549,0.585141,0.191161,0.643028,0.133274,0.699416,0.073940,0.754255,0.013183,0.807518,-0.048971,0.859182,-0.112471,0.909220,-0.177242,0.957557,-0.243307,1.004216,-0.310566,1.049124,-0.378994,1.092253,-0.448565,1.133604,-0.519202,
1.173152,-0.590881,1.210820,-0.663551,1.246634,-0.737135,1.280569,-0.811633,1.312573,-0.886970,1.342647,-0.963119,1.370739,-1.039980,1.396876,-1.117551,1.421006,-1.195784,1.443155,-1.274575,1.463272,-1.353924,1.481331,-1.433757,1.497358,-1.514021,1.511328,-1.594691,1.523216,-1.675667,1.533045,-1.756922,1.540792,-1.838430,1.546457,-1.920066,1.550013,-2.001854,0.550013,-2.001854,
0.545949,-1.934061,0.539776,-1.866421,0.531547,-1.799009,0.521234,-1.731877,0.508839,-1.665100,0.494412,-1.598755,0.477927,-1.532868,0.459411,-1.467513,0.438887,-1.402769,0.416383,-1.338710,0.391923,-1.275362,0.365507,-1.212776,0.337160,-1.151054,0.306934,-1.090246,0.274854,-1.030378,0.240919,-0.971552,0.205207,-0.913792,0.167717,-0.857150,0.128499,-0.801702,0.087579,-0.747498,
0.045034,-0.694590,0.000838,-0.643002,-0.044907,-0.592812,-0.092177,-0.544044,-0.140945,-0.496774,-0.191135,-0.451029,-0.242723,-0.406833,-0.295631,-0.364288,-0.349835,-0.323368,-0.405283,-0.284150,-0.461925,-0.246660,-0.519685,-0.210947,-0.578512,-0.177013,-0.638379,-0.144933,-0.699187,-0.114707,-0.760909,-0.086360,-0.823495,-0.059944,-0.886843,-0.035484,-0.950902,-0.012979,-1.015646,0.007544,
-1.081001,0.026060,-1.146888,0.042545,-1.213233,0.056972,-1.280010,0.069368,-1.347142,0.079680,-1.414554,0.087910,-1.482195,0.094082,-1.549987,0.098146,-1.549987,1.098146,-1.468199,1.094590,-1.468199,1.094590,$1*%
G04 Aperture macros list end*
%ADD10RoundRect,0.147500X-0.172500X0.147500X-0.172500X-0.147500X0.172500X-0.147500X0.172500X0.147500X0*%
%ADD11RoundRect,0.140000X0.170000X-0.140000X0.170000X0.140000X-0.170000X0.140000X-0.170000X-0.140000X0*%
%ADD12RoundRect,0.225000X0.250000X-0.225000X0.250000X0.225000X-0.250000X0.225000X-0.250000X-0.225000X0*%
%ADD13FreePoly0,0.000000*%
%ADD14FreePoly1,0.000000*%
%ADD15FreePoly2,0.000000*%
%ADD16FreePoly3,0.000000*%
%ADD17C,0.800000*%
%ADD18C,6.400000*%
%ADD19RoundRect,0.140000X-0.170000X0.140000X-0.170000X-0.140000X0.170000X-0.140000X0.170000X0.140000X0*%
%ADD20RoundRect,0.102000X-0.500000X-0.800000X0.500000X-0.800000X0.500000X0.800000X-0.500000X0.800000X0*%
%ADD21RoundRect,0.135000X-0.135000X-0.185000X0.135000X-0.185000X0.135000X0.185000X-0.135000X0.185000X0*%
%ADD22RoundRect,0.150000X-0.150000X0.512500X-0.150000X-0.512500X0.150000X-0.512500X0.150000X0.512500X0*%
%ADD23C,1.000000*%
%ADD24R,0.900000X1.700000*%
%ADD25RoundRect,0.135000X0.185000X-0.135000X0.185000X0.135000X-0.185000X0.135000X-0.185000X-0.135000X0*%
%ADD26RoundRect,0.140000X-0.140000X-0.170000X0.140000X-0.170000X0.140000X0.170000X-0.140000X0.170000X0*%
%ADD27R,1.400000X1.200000*%
%ADD28RoundRect,0.140000X0.140000X0.170000X-0.140000X0.170000X-0.140000X-0.170000X0.140000X-0.170000X0*%
%ADD29RoundRect,0.200000X-0.200000X-0.275000X0.200000X-0.275000X0.200000X0.275000X-0.200000X0.275000X0*%
%ADD30RoundRect,0.225000X-0.225000X-0.250000X0.225000X-0.250000X0.225000X0.250000X-0.225000X0.250000X0*%
%ADD31RoundRect,0.250000X-0.475000X0.250000X-0.475000X-0.250000X0.475000X-0.250000X0.475000X0.250000X0*%
%ADD32RoundRect,0.150000X0.587500X0.150000X-0.587500X0.150000X-0.587500X-0.150000X0.587500X-0.150000X0*%
%ADD33RoundRect,0.135000X0.135000X0.185000X-0.135000X0.185000X-0.135000X-0.185000X0.135000X-0.185000X0*%
%ADD34RoundRect,0.135000X-0.185000X0.135000X-0.185000X-0.135000X0.185000X-0.135000X0.185000X0.135000X0*%
%ADD35R,0.700000X0.700000*%
%ADD36RoundRect,0.218750X0.218750X0.256250X-0.218750X0.256250X-0.218750X-0.256250X0.218750X-0.256250X0*%
%ADD37RoundRect,0.362500X-0.637500X0.362500X-0.637500X-0.362500X0.637500X-0.362500X0.637500X0.362500X0*%
%ADD38R,1.500000X0.800000*%
%ADD39R,1.000000X1.800000*%
%ADD40RoundRect,0.225000X0.225000X0.250000X-0.225000X0.250000X-0.225000X-0.250000X0.225000X-0.250000X0*%
%ADD41RoundRect,0.162500X-0.650000X-0.162500X0.650000X-0.162500X0.650000X0.162500X-0.650000X0.162500X0*%
%ADD42RoundRect,0.200000X0.200000X0.275000X-0.200000X0.275000X-0.200000X-0.275000X0.200000X-0.275000X0*%
%ADD43R,3.700000X1.100000*%
%ADD44R,1.200000X1.400000*%
%ADD45RoundRect,0.075000X0.075000X-0.350000X0.075000X0.350000X-0.075000X0.350000X-0.075000X-0.350000X0*%
%ADD46RoundRect,0.075000X-0.350000X-0.075000X0.350000X-0.075000X0.350000X0.075000X-0.350000X0.075000X0*%
%ADD47R,1.800000X1.000000*%
%ADD48RoundRect,0.112500X0.187500X0.112500X-0.187500X0.112500X-0.187500X-0.112500X0.187500X-0.112500X0*%
%ADD49RoundRect,0.250001X0.999999X-0.499999X0.999999X0.499999X-0.999999X0.499999X-0.999999X-0.499999X0*%
%ADD50RoundRect,0.162500X-0.162500X0.617500X-0.162500X-0.617500X0.162500X-0.617500X0.162500X0.617500X0*%
%ADD51RoundRect,0.075000X-0.075000X-0.700000X0.075000X-0.700000X0.075000X0.700000X-0.075000X0.700000X0*%
%ADD52RoundRect,0.075000X-0.700000X-0.075000X0.700000X-0.075000X0.700000X0.075000X-0.700000X0.075000X0*%
%ADD53RoundRect,0.250000X-1.425000X0.362500X-1.425000X-0.362500X1.425000X-0.362500X1.425000X0.362500X0*%
%ADD54RoundRect,0.150000X-0.150000X0.587500X-0.150000X-0.587500X0.150000X-0.587500X0.150000X0.587500X0*%
%ADD55RoundRect,0.218750X0.256250X-0.218750X0.256250X0.218750X-0.256250X0.218750X-0.256250X-0.218750X0*%
%ADD56RoundRect,0.125000X-0.537500X-0.125000X0.537500X-0.125000X0.537500X0.125000X-0.537500X0.125000X0*%
%ADD57R,2.000000X1.000000*%
%ADD58C,0.787400*%
%ADD59R,0.600000X1.240000*%
%ADD60R,0.300000X1.240000*%
%ADD61O,1.000000X2.100000*%
%ADD62O,1.000000X1.800000*%
%ADD63C,1.400000*%
%ADD64RoundRect,0.770000X0.980000X-0.980000X0.980000X0.980000X-0.980000X0.980000X-0.980000X-0.980000X0*%
%ADD65C,3.500000*%
%ADD66RoundRect,0.150000X0.150000X0.625000X-0.150000X0.625000X-0.150000X-0.625000X0.150000X-0.625000X0*%
%ADD67RoundRect,0.250000X0.350000X0.650000X-0.350000X0.650000X-0.350000X-0.650000X0.350000X-0.650000X0*%
%ADD68RoundRect,0.102000X0.775000X-0.150000X0.775000X0.150000X-0.775000X0.150000X-0.775000X-0.150000X0*%
%ADD69RoundRect,0.102000X1.375000X-0.600000X1.375000X0.600000X-1.375000X0.600000X-1.375000X-0.600000X0*%
%ADD70RoundRect,0.075000X-0.075000X-0.425000X0.075000X-0.425000X0.075000X0.425000X-0.075000X0.425000X0*%
%ADD71C,1.100000*%
%ADD72RoundRect,0.062500X0.062500X-0.375000X0.062500X0.375000X-0.062500X0.375000X-0.062500X-0.375000X0*%
%ADD73RoundRect,0.062500X0.375000X-0.062500X0.375000X0.062500X-0.375000X0.062500X-0.375000X-0.062500X0*%
%ADD74R,5.600000X5.600000*%
G04 APERTURE END LIST*
D10*
%TO.C,FB3*%
X121625000Y-92090000D03*
X121625000Y-93060000D03*
%TD*%
D11*
%TO.C,C24*%
X122600000Y-93080000D03*
X122600000Y-92120000D03*
%TD*%
D12*
%TO.C,C21*%
X123825000Y-92800000D03*
X123825000Y-91250000D03*
%TD*%
D13*
%TO.C,U28*%
X129094559Y-97989882D03*
D14*
X125342718Y-98441749D03*
D15*
X124890851Y-94689908D03*
D16*
X128642692Y-94238041D03*
%TD*%
%TO.C,U21*%
X164574987Y-130298146D03*
D15*
X160823146Y-130750013D03*
D14*
X161275013Y-134501854D03*
D13*
X165026854Y-134049987D03*
%TD*%
D14*
%TO.C,U30*%
X125550013Y-169701854D03*
D16*
X128849987Y-165498146D03*
D15*
X125098146Y-165950013D03*
D13*
X129301854Y-169249987D03*
%TD*%
D16*
%TO.C,U29*%
X164574987Y-165448146D03*
D15*
X160823146Y-165900013D03*
D14*
X161275013Y-169651854D03*
D13*
X165026854Y-169199987D03*
%TD*%
D16*
%TO.C,U27*%
X128849987Y-130298146D03*
D15*
X125098146Y-130750013D03*
D14*
X125550013Y-134501854D03*
D13*
X129301854Y-134049987D03*
%TD*%
D16*
%TO.C,U31*%
X164528862Y-94248589D03*
D15*
X160777021Y-94700456D03*
D14*
X161228888Y-98452297D03*
D13*
X164980729Y-98000430D03*
%TD*%
D17*
%TO.C,H3*%
X99400000Y-176000000D03*
X98697056Y-177697056D03*
X98697056Y-174302944D03*
X97000000Y-178400000D03*
D18*
X97000000Y-176000000D03*
D17*
X97000000Y-173600000D03*
X95302944Y-177697056D03*
X95302944Y-174302944D03*
X94600000Y-176000000D03*
%TD*%
D19*
%TO.C,C99*%
X146200000Y-177500000D03*
X146200000Y-176540000D03*
%TD*%
D20*
%TO.C,SW1*%
X134500000Y-52100000D03*
X132000000Y-54500000D03*
X137000000Y-54500000D03*
%TD*%
D12*
%TO.C,C102*%
X159725000Y-162550000D03*
X159725000Y-164100000D03*
%TD*%
D21*
%TO.C,R27*%
X122240000Y-56989000D03*
X121220000Y-56989000D03*
%TD*%
D22*
%TO.C,U6*%
X115050000Y-79137500D03*
X114100000Y-79137500D03*
X113150000Y-79137500D03*
X113150000Y-76862500D03*
X114100000Y-76862500D03*
X115050000Y-76862500D03*
%TD*%
D19*
%TO.C,C70*%
X158631170Y-132948345D03*
X158631170Y-131988345D03*
%TD*%
D21*
%TO.C,R83*%
X144100000Y-53900000D03*
X143080000Y-53900000D03*
%TD*%
D23*
%TO.C,TP36*%
X134442500Y-96242203D03*
%TD*%
D11*
%TO.C,C41*%
X125350000Y-54070000D03*
X125350000Y-55030000D03*
%TD*%
D24*
%TO.C,SW2*%
X134150000Y-47600000D03*
X130750000Y-47600000D03*
%TD*%
D19*
%TO.C,C13*%
X112000000Y-93080000D03*
X112000000Y-92120000D03*
%TD*%
D25*
%TO.C,R41*%
X164536170Y-77860548D03*
X164536170Y-78880548D03*
%TD*%
D19*
%TO.C,C9*%
X140100000Y-57880000D03*
X140100000Y-56920000D03*
%TD*%
D25*
%TO.C,R6*%
X161250000Y-50255000D03*
X161250000Y-51275000D03*
%TD*%
D22*
%TO.C,U14*%
X115273852Y-115195298D03*
X114323852Y-115195298D03*
X113373852Y-115195298D03*
X113373852Y-112920298D03*
X114323852Y-112920298D03*
X115273852Y-112920298D03*
%TD*%
D25*
%TO.C,R51*%
X110873852Y-135497798D03*
X110873852Y-136517798D03*
%TD*%
D26*
%TO.C,C46*%
X157391170Y-83185548D03*
X156431170Y-83185548D03*
%TD*%
%TO.C,C104*%
X149517575Y-154496017D03*
X148557575Y-154496017D03*
%TD*%
D27*
%TO.C,HSE3*%
X118987500Y-95550000D03*
X121187500Y-95550000D03*
X121187500Y-97250000D03*
X118987500Y-97250000D03*
%TD*%
D28*
%TO.C,C74*%
X148865075Y-128649440D03*
X149825075Y-128649440D03*
%TD*%
D26*
%TO.C,C20*%
X113573905Y-83281095D03*
X112613905Y-83281095D03*
%TD*%
D10*
%TO.C,FB7*%
X157525000Y-164360000D03*
X157525000Y-163390000D03*
%TD*%
D25*
%TO.C,R12*%
X118250000Y-78540000D03*
X118250000Y-79560000D03*
%TD*%
D29*
%TO.C,R36*%
X158325000Y-101050000D03*
X156675000Y-101050000D03*
%TD*%
D30*
%TO.C,C36*%
X152350000Y-58675000D03*
X150800000Y-58675000D03*
%TD*%
D10*
%TO.C,FB4*%
X121900000Y-129085000D03*
X121900000Y-128115000D03*
%TD*%
D31*
%TO.C,C42*%
X126450000Y-49300000D03*
X126450000Y-47400000D03*
%TD*%
D25*
%TO.C,R50*%
X128873852Y-113907798D03*
X128873852Y-114927798D03*
%TD*%
D32*
%TO.C,Q2*%
X127247500Y-64570000D03*
X129122500Y-63620000D03*
X129122500Y-65520000D03*
%TD*%
D33*
%TO.C,R81*%
X153190000Y-62200000D03*
X154210000Y-62200000D03*
%TD*%
D28*
%TO.C,C48*%
X148807575Y-92591643D03*
X149767575Y-92591643D03*
%TD*%
D19*
%TO.C,C96*%
X158631170Y-168094922D03*
X158631170Y-167134922D03*
%TD*%
D23*
%TO.C,TP47*%
X163868670Y-153589922D03*
%TD*%
%TO.C,TP35*%
X163811170Y-87185548D03*
%TD*%
D25*
%TO.C,R69*%
X110873852Y-170697798D03*
X110873852Y-171717798D03*
%TD*%
D28*
%TO.C,C94*%
X149376170Y-165975000D03*
X150336170Y-165975000D03*
%TD*%
D23*
%TO.C,TP31*%
X98476148Y-98650000D03*
%TD*%
%TO.C,TP32*%
X127925000Y-87175000D03*
%TD*%
D28*
%TO.C,C37*%
X141070000Y-70825000D03*
X142030000Y-70825000D03*
%TD*%
D21*
%TO.C,R13*%
X120660000Y-93850000D03*
X119640000Y-93850000D03*
%TD*%
D19*
%TO.C,C59*%
X112223852Y-129137798D03*
X112223852Y-128177798D03*
%TD*%
D34*
%TO.C,R52*%
X110873852Y-134617798D03*
X110873852Y-133597798D03*
%TD*%
D23*
%TO.C,TP52*%
X134500000Y-169846577D03*
%TD*%
D35*
%TO.C,D8*%
X99015000Y-84650000D03*
X99015000Y-85750000D03*
X97185000Y-85750000D03*
X97185000Y-84650000D03*
%TD*%
D34*
%TO.C,R19*%
X99955500Y-79329500D03*
X99955500Y-78309500D03*
%TD*%
D11*
%TO.C,C54*%
X117711352Y-131965298D03*
X117711352Y-132925298D03*
%TD*%
D19*
%TO.C,C78*%
X147943670Y-129148345D03*
X147943670Y-128188345D03*
%TD*%
D33*
%TO.C,R63*%
X121490000Y-171650000D03*
X122510000Y-171650000D03*
%TD*%
D36*
%TO.C,D1*%
X162925000Y-56675000D03*
X164500000Y-56675000D03*
%TD*%
D21*
%TO.C,R53*%
X156603670Y-129918345D03*
X155583670Y-129918345D03*
%TD*%
D26*
%TO.C,C5*%
X139340000Y-70837500D03*
X138380000Y-70837500D03*
%TD*%
D37*
%TO.C,J2*%
X158600000Y-72750000D03*
X166900000Y-72750000D03*
X158600000Y-59000000D03*
X166900000Y-59000000D03*
D38*
X164300000Y-70370000D03*
X164300000Y-69270000D03*
X164300000Y-68170000D03*
X164300000Y-67070000D03*
X164300000Y-65970000D03*
X164300000Y-64870000D03*
X164300000Y-63770000D03*
X164300000Y-62670000D03*
%TD*%
D23*
%TO.C,TP41*%
X128148852Y-160832798D03*
%TD*%
D21*
%TO.C,R26*%
X156546170Y-93860548D03*
X155526170Y-93860548D03*
%TD*%
D24*
%TO.C,SW13*%
X151000000Y-177100000D03*
X147600000Y-177100000D03*
%TD*%
D34*
%TO.C,R61*%
X146593670Y-134628345D03*
X146593670Y-133608345D03*
%TD*%
D23*
%TO.C,TP38*%
X134500000Y-134700000D03*
%TD*%
D26*
%TO.C,C22*%
X121505000Y-83175000D03*
X120545000Y-83175000D03*
%TD*%
%TO.C,C25*%
X116230000Y-94750000D03*
X115270000Y-94750000D03*
%TD*%
D22*
%TO.C,U23*%
X150993670Y-150352422D03*
X150043670Y-150352422D03*
X149093670Y-150352422D03*
X149093670Y-148077422D03*
X150043670Y-148077422D03*
X150993670Y-148077422D03*
%TD*%
D26*
%TO.C,C1*%
X132930000Y-49755000D03*
X131970000Y-49755000D03*
%TD*%
D35*
%TO.C,D10*%
X134901170Y-84660548D03*
X134901170Y-85760548D03*
X133071170Y-85760548D03*
X133071170Y-84660548D03*
%TD*%
D25*
%TO.C,R76*%
X154193670Y-149754922D03*
X154193670Y-150774922D03*
%TD*%
D21*
%TO.C,R62*%
X120883852Y-165107798D03*
X119863852Y-165107798D03*
%TD*%
D26*
%TO.C,C61*%
X113797757Y-119338893D03*
X112837757Y-119338893D03*
%TD*%
%TO.C,C107*%
X148180000Y-47350000D03*
X147220000Y-47350000D03*
%TD*%
D33*
%TO.C,R54*%
X156590000Y-136150000D03*
X157610000Y-136150000D03*
%TD*%
D36*
%TO.C,D6*%
X162912500Y-53475000D03*
X164487500Y-53475000D03*
%TD*%
D39*
%TO.C,Y6*%
X116286352Y-167657798D03*
X113786352Y-167657798D03*
%TD*%
D21*
%TO.C,R31*%
X122240000Y-56039000D03*
X121220000Y-56039000D03*
%TD*%
D26*
%TO.C,C85*%
X113797757Y-154538893D03*
X112837757Y-154538893D03*
%TD*%
D25*
%TO.C,R2*%
X139700000Y-53900000D03*
X139700000Y-52880000D03*
%TD*%
D19*
%TO.C,C47*%
X146500000Y-106403800D03*
X146500000Y-105443800D03*
%TD*%
D12*
%TO.C,C63*%
X124100000Y-127275000D03*
X124100000Y-128825000D03*
%TD*%
D26*
%TO.C,C106*%
X147780000Y-53900000D03*
X146820000Y-53900000D03*
%TD*%
D24*
%TO.C,SW5*%
X151205075Y-105900000D03*
X147805075Y-105900000D03*
%TD*%
D28*
%TO.C,C12*%
X133195000Y-69800000D03*
X134155000Y-69800000D03*
%TD*%
D29*
%TO.C,R73*%
X157925000Y-172900000D03*
X156275000Y-172900000D03*
%TD*%
D19*
%TO.C,C44*%
X158573670Y-96890548D03*
X158573670Y-95930548D03*
%TD*%
D40*
%TO.C,C79*%
X121725000Y-155700000D03*
X123275000Y-155700000D03*
%TD*%
D25*
%TO.C,R65*%
X100179352Y-147667298D03*
X100179352Y-148687298D03*
%TD*%
D39*
%TO.C,Y5*%
X152006170Y-132468345D03*
X149506170Y-132468345D03*
%TD*%
D10*
%TO.C,FB2*%
X157700000Y-92985000D03*
X157700000Y-92015000D03*
%TD*%
D19*
%TO.C,C4*%
X135325000Y-62180000D03*
X135325000Y-61220000D03*
%TD*%
D26*
%TO.C,C45*%
X149460075Y-83291643D03*
X148500075Y-83291643D03*
%TD*%
D41*
%TO.C,U3*%
X126987500Y-75995000D03*
X126987500Y-77265000D03*
X126987500Y-78535000D03*
X126987500Y-79805000D03*
X119812500Y-79805000D03*
X119812500Y-78535000D03*
X119812500Y-77265000D03*
X119812500Y-75995000D03*
%TD*%
D25*
%TO.C,R42*%
X146536170Y-99450548D03*
X146536170Y-100470548D03*
%TD*%
D27*
%TO.C,HSE7*%
X154931170Y-166764922D03*
X157131170Y-166764922D03*
X157131170Y-168464922D03*
X154931170Y-168464922D03*
%TD*%
D34*
%TO.C,R79*%
X146593670Y-169774922D03*
X146593670Y-168754922D03*
%TD*%
D28*
%TO.C,C55*%
X113656352Y-130800000D03*
X114616352Y-130800000D03*
%TD*%
D23*
%TO.C,TP37*%
X134500000Y-132300000D03*
%TD*%
D25*
%TO.C,R14*%
X128650000Y-77850000D03*
X128650000Y-78870000D03*
%TD*%
D34*
%TO.C,R9*%
X130635000Y-64307500D03*
X130635000Y-63287500D03*
%TD*%
D42*
%TO.C,R20*%
X159750000Y-55075000D03*
X161400000Y-55075000D03*
%TD*%
D12*
%TO.C,C50*%
X159900000Y-91175000D03*
X159900000Y-92725000D03*
%TD*%
D11*
%TO.C,C90*%
X122900000Y-163320000D03*
X122900000Y-164280000D03*
%TD*%
D27*
%TO.C,HSE4*%
X119211352Y-131607798D03*
X121411352Y-131607798D03*
X121411352Y-133307798D03*
X119211352Y-133307798D03*
%TD*%
D23*
%TO.C,TP44*%
X98700000Y-167507798D03*
%TD*%
D26*
%TO.C,C72*%
X149517575Y-119349440D03*
X148557575Y-119349440D03*
%TD*%
%TO.C,C88*%
X121728852Y-154432798D03*
X120768852Y-154432798D03*
%TD*%
D43*
%TO.C,L2*%
X108550000Y-46050000D03*
X108550000Y-49050000D03*
%TD*%
D11*
%TO.C,C33*%
X110850000Y-53450000D03*
X110850000Y-54410000D03*
%TD*%
D25*
%TO.C,R84*%
X149100000Y-51690000D03*
X149100000Y-52710000D03*
%TD*%
%TO.C,R78*%
X146593670Y-170654922D03*
X146593670Y-171674922D03*
%TD*%
D19*
%TO.C,C73*%
X146400000Y-142385455D03*
X146400000Y-141425455D03*
%TD*%
D44*
%TO.C,HSE1*%
X134525000Y-66050000D03*
X134525000Y-68250000D03*
X132825000Y-68250000D03*
X132825000Y-66050000D03*
%TD*%
D42*
%TO.C,R37*%
X159750000Y-53475000D03*
X161400000Y-53475000D03*
%TD*%
D34*
%TO.C,R34*%
X130750000Y-68835000D03*
X130750000Y-67815000D03*
%TD*%
D23*
%TO.C,TP40*%
X128148852Y-153632798D03*
%TD*%
D25*
%TO.C,R32*%
X137900000Y-57965000D03*
X137900000Y-58985000D03*
%TD*%
D26*
%TO.C,C65*%
X121728852Y-119232798D03*
X120768852Y-119232798D03*
%TD*%
D36*
%TO.C,D2*%
X162912500Y-55075000D03*
X164487500Y-55075000D03*
%TD*%
D35*
%TO.C,D7*%
X129120000Y-60767500D03*
X129120000Y-61867500D03*
X127290000Y-61867500D03*
X127290000Y-60767500D03*
%TD*%
D25*
%TO.C,R33*%
X120300000Y-69140000D03*
X120300000Y-70160000D03*
%TD*%
D23*
%TO.C,TP18*%
X98700000Y-132307798D03*
%TD*%
D25*
%TO.C,R15*%
X105200000Y-53789000D03*
X105200000Y-54809000D03*
%TD*%
D41*
%TO.C,U10*%
X127211352Y-112052798D03*
X127211352Y-113322798D03*
X127211352Y-114592798D03*
X127211352Y-115862798D03*
X120036352Y-115862798D03*
X120036352Y-114592798D03*
X120036352Y-113322798D03*
X120036352Y-112052798D03*
%TD*%
D33*
%TO.C,R72*%
X156290000Y-171650000D03*
X157310000Y-171650000D03*
%TD*%
D34*
%TO.C,R70*%
X110873852Y-169817798D03*
X110873852Y-168797798D03*
%TD*%
D36*
%TO.C,FB1*%
X138362500Y-69612500D03*
X139937500Y-69612500D03*
%TD*%
D23*
%TO.C,TP29*%
X163811170Y-89585548D03*
%TD*%
%TO.C,TP13*%
X98700000Y-129907798D03*
%TD*%
%TO.C,TP49*%
X163868670Y-155989922D03*
%TD*%
D45*
%TO.C,U7*%
X144700000Y-48550000D03*
X145200000Y-48550000D03*
X145700000Y-48550000D03*
X146200000Y-48550000D03*
X146700000Y-48550000D03*
X147200000Y-48550000D03*
D46*
X147900000Y-49250000D03*
X147900000Y-49750000D03*
X147900000Y-50250000D03*
X147900000Y-50750000D03*
X147900000Y-51250000D03*
X147900000Y-51750000D03*
D45*
X147200000Y-52450000D03*
X146700000Y-52450000D03*
X146200000Y-52450000D03*
X145700000Y-52450000D03*
X145200000Y-52450000D03*
X144700000Y-52450000D03*
D46*
X144000000Y-51750000D03*
X144000000Y-51250000D03*
X144000000Y-50750000D03*
X144000000Y-50250000D03*
X144000000Y-49750000D03*
X144000000Y-49250000D03*
%TD*%
D23*
%TO.C,TP12*%
X98476148Y-93850000D03*
%TD*%
D47*
%TO.C,Y2*%
X133650000Y-62000000D03*
X133650000Y-59500000D03*
%TD*%
D25*
%TO.C,R21*%
X119610000Y-54419000D03*
X119610000Y-55439000D03*
%TD*%
D40*
%TO.C,C66*%
X157525000Y-120500000D03*
X159075000Y-120500000D03*
%TD*%
D23*
%TO.C,TP21*%
X98700000Y-134707798D03*
%TD*%
D25*
%TO.C,R74*%
X135899170Y-147624422D03*
X135899170Y-148644422D03*
%TD*%
D48*
%TO.C,D5*%
X115450000Y-64550000D03*
X117550000Y-64550000D03*
%TD*%
D49*
%TO.C,L3*%
X122980000Y-45820000D03*
X122980000Y-49520000D03*
%TD*%
D26*
%TO.C,C98*%
X157448670Y-154389922D03*
X156488670Y-154389922D03*
%TD*%
D25*
%TO.C,R18*%
X99955500Y-76409500D03*
X99955500Y-77429500D03*
%TD*%
D11*
%TO.C,C64*%
X122875000Y-128145000D03*
X122875000Y-129105000D03*
%TD*%
D23*
%TO.C,TP20*%
X134442500Y-93842203D03*
%TD*%
D21*
%TO.C,R44*%
X120883852Y-129907798D03*
X119863852Y-129907798D03*
%TD*%
D12*
%TO.C,C76*%
X159900000Y-127275000D03*
X159900000Y-128825000D03*
%TD*%
D25*
%TO.C,R59*%
X164593670Y-113918345D03*
X164593670Y-114938345D03*
%TD*%
D40*
%TO.C,C15*%
X157550000Y-84425000D03*
X159100000Y-84425000D03*
%TD*%
D23*
%TO.C,TP51*%
X134500000Y-167446577D03*
%TD*%
D11*
%TO.C,C3*%
X135325000Y-59365000D03*
X135325000Y-60325000D03*
%TD*%
D23*
%TO.C,TP19*%
X127925000Y-82375000D03*
%TD*%
D31*
%TO.C,C34*%
X111800000Y-48625000D03*
X111800000Y-46725000D03*
%TD*%
D11*
%TO.C,C16*%
X153373670Y-95918048D03*
X153373670Y-96878048D03*
%TD*%
%TO.C,C103*%
X158500000Y-163420000D03*
X158500000Y-164380000D03*
%TD*%
D36*
%TO.C,D17*%
X159424925Y-172900000D03*
X160999925Y-172900000D03*
%TD*%
D39*
%TO.C,Y3*%
X151948670Y-96410548D03*
X149448670Y-96410548D03*
%TD*%
D33*
%TO.C,R5*%
X117277500Y-70525000D03*
X118297500Y-70525000D03*
%TD*%
D39*
%TO.C,Y1*%
X116062500Y-96400000D03*
X113562500Y-96400000D03*
%TD*%
D25*
%TO.C,R82*%
X142800000Y-51690000D03*
X142800000Y-52710000D03*
%TD*%
D11*
%TO.C,C67*%
X153431170Y-131975845D03*
X153431170Y-132935845D03*
%TD*%
D25*
%TO.C,R60*%
X146593670Y-135508345D03*
X146593670Y-136528345D03*
%TD*%
D21*
%TO.C,R25*%
X146885000Y-71700000D03*
X145865000Y-71700000D03*
%TD*%
D50*
%TO.C,U25*%
X109500000Y-53800000D03*
X108550000Y-53800000D03*
X107600000Y-53800000D03*
X107600000Y-51100000D03*
X108550000Y-51100000D03*
X109500000Y-51100000D03*
%TD*%
D34*
%TO.C,R30*%
X110650000Y-98560000D03*
X110650000Y-97540000D03*
%TD*%
D24*
%TO.C,SW9*%
X151100000Y-141881655D03*
X147700000Y-141881655D03*
%TD*%
D22*
%TO.C,U2*%
X156300000Y-56475000D03*
X155350000Y-56475000D03*
X154400000Y-56475000D03*
X154400000Y-54200000D03*
X155350000Y-54200000D03*
X156300000Y-54200000D03*
%TD*%
D34*
%TO.C,R66*%
X100179352Y-150587298D03*
X100179352Y-149567298D03*
%TD*%
D26*
%TO.C,C6*%
X139340000Y-71787500D03*
X138380000Y-71787500D03*
%TD*%
D22*
%TO.C,U11*%
X150936170Y-79148048D03*
X149986170Y-79148048D03*
X149036170Y-79148048D03*
X149036170Y-76873048D03*
X149986170Y-76873048D03*
X150936170Y-76873048D03*
%TD*%
D33*
%TO.C,R80*%
X153190000Y-63150000D03*
X154210000Y-63150000D03*
%TD*%
D51*
%TO.C,U1*%
X141025000Y-57950000D03*
X141525000Y-57950000D03*
X142025000Y-57950000D03*
X142525000Y-57950000D03*
X143025000Y-57950000D03*
X143525000Y-57950000D03*
X144025000Y-57950000D03*
X144525000Y-57950000D03*
X145025000Y-57950000D03*
X145525000Y-57950000D03*
X146025000Y-57950000D03*
X146525000Y-57950000D03*
X147025000Y-57950000D03*
X147525000Y-57950000D03*
X148025000Y-57950000D03*
X148525000Y-57950000D03*
D52*
X150450000Y-59875000D03*
X150450000Y-60375000D03*
X150450000Y-60875000D03*
X150450000Y-61375000D03*
X150450000Y-61875000D03*
X150450000Y-62375000D03*
X150450000Y-62875000D03*
X150450000Y-63375000D03*
X150450000Y-63875000D03*
X150450000Y-64375000D03*
X150450000Y-64875000D03*
X150450000Y-65375000D03*
X150450000Y-65875000D03*
X150450000Y-66375000D03*
X150450000Y-66875000D03*
X150450000Y-67375000D03*
D51*
X148525000Y-69300000D03*
X148025000Y-69300000D03*
X147525000Y-69300000D03*
X147025000Y-69300000D03*
X146525000Y-69300000D03*
X146025000Y-69300000D03*
X145525000Y-69300000D03*
X145025000Y-69300000D03*
X144525000Y-69300000D03*
X144025000Y-69300000D03*
X143525000Y-69300000D03*
X143025000Y-69300000D03*
X142525000Y-69300000D03*
X142025000Y-69300000D03*
X141525000Y-69300000D03*
X141025000Y-69300000D03*
D52*
X139100000Y-67375000D03*
X139100000Y-66875000D03*
X139100000Y-66375000D03*
X139100000Y-65875000D03*
X139100000Y-65375000D03*
X139100000Y-64875000D03*
X139100000Y-64375000D03*
X139100000Y-63875000D03*
X139100000Y-63375000D03*
X139100000Y-62875000D03*
X139100000Y-62375000D03*
X139100000Y-61875000D03*
X139100000Y-61375000D03*
X139100000Y-60875000D03*
X139100000Y-60375000D03*
X139100000Y-59875000D03*
%TD*%
D25*
%TO.C,R38*%
X135841670Y-76420048D03*
X135841670Y-77440048D03*
%TD*%
D40*
%TO.C,C53*%
X121725000Y-120500000D03*
X123275000Y-120500000D03*
%TD*%
D27*
%TO.C,HSE2*%
X154873670Y-95560548D03*
X157073670Y-95560548D03*
X157073670Y-97260548D03*
X154873670Y-97260548D03*
%TD*%
D53*
%TO.C,R28*%
X109400000Y-69125000D03*
X109400000Y-63200000D03*
%TD*%
D26*
%TO.C,C56*%
X116480000Y-130800000D03*
X115520000Y-130800000D03*
%TD*%
D22*
%TO.C,U17*%
X150993670Y-115205845D03*
X150043670Y-115205845D03*
X149093670Y-115205845D03*
X149093670Y-112930845D03*
X150043670Y-112930845D03*
X150993670Y-112930845D03*
%TD*%
D19*
%TO.C,C97*%
X164593670Y-148144922D03*
X164593670Y-147184922D03*
%TD*%
D28*
%TO.C,C81*%
X113656352Y-166025000D03*
X114616352Y-166025000D03*
%TD*%
D23*
%TO.C,TP14*%
X128148852Y-118432798D03*
%TD*%
D54*
%TO.C,Q1*%
X113100000Y-66387500D03*
X112150000Y-64512500D03*
X114050000Y-64512500D03*
%TD*%
D28*
%TO.C,C84*%
X113145257Y-163838893D03*
X114105257Y-163838893D03*
%TD*%
%TO.C,C19*%
X112921405Y-92581095D03*
X113881405Y-92581095D03*
%TD*%
D33*
%TO.C,R35*%
X156690000Y-99800000D03*
X157710000Y-99800000D03*
%TD*%
%TO.C,R24*%
X147790000Y-71700000D03*
X148810000Y-71700000D03*
%TD*%
D23*
%TO.C,TP45*%
X98700000Y-169907798D03*
%TD*%
D19*
%TO.C,C75*%
X164593670Y-112998345D03*
X164593670Y-112038345D03*
%TD*%
D25*
%TO.C,R7*%
X149450000Y-49655000D03*
X149450000Y-50675000D03*
%TD*%
D31*
%TO.C,C31*%
X103200000Y-52450000D03*
X103200000Y-50550000D03*
%TD*%
D26*
%TO.C,C69*%
X152180000Y-130825000D03*
X151220000Y-130825000D03*
%TD*%
D34*
%TO.C,R39*%
X135841670Y-79340048D03*
X135841670Y-78320048D03*
%TD*%
D25*
%TO.C,R49*%
X118473852Y-114597798D03*
X118473852Y-115617798D03*
%TD*%
D23*
%TO.C,TP30*%
X98476148Y-96250000D03*
%TD*%
%TO.C,TP46*%
X134500000Y-165046577D03*
%TD*%
D26*
%TO.C,C95*%
X152180000Y-165975000D03*
X151220000Y-165975000D03*
%TD*%
D25*
%TO.C,R77*%
X164593670Y-149064922D03*
X164593670Y-150084922D03*
%TD*%
D19*
%TO.C,C29*%
X128650000Y-76930000D03*
X128650000Y-75970000D03*
%TD*%
D55*
%TO.C,D13*%
X162000000Y-140894155D03*
X162000000Y-142469155D03*
%TD*%
D34*
%TO.C,R22*%
X140800000Y-54400000D03*
X140800000Y-53380000D03*
%TD*%
D28*
%TO.C,C23*%
X113432500Y-94750000D03*
X114392500Y-94750000D03*
%TD*%
D29*
%TO.C,R3*%
X161425000Y-56675000D03*
X159775000Y-56675000D03*
%TD*%
D25*
%TO.C,R29*%
X110650000Y-99440000D03*
X110650000Y-100460000D03*
%TD*%
D23*
%TO.C,TP28*%
X127925000Y-84775000D03*
%TD*%
D21*
%TO.C,R71*%
X156603670Y-165064922D03*
X155583670Y-165064922D03*
%TD*%
D39*
%TO.C,Y7*%
X152006170Y-167614922D03*
X149506170Y-167614922D03*
%TD*%
D26*
%TO.C,C7*%
X151505000Y-69100000D03*
X150545000Y-69100000D03*
%TD*%
D28*
%TO.C,C68*%
X149376170Y-130825000D03*
X150336170Y-130825000D03*
%TD*%
D33*
%TO.C,R16*%
X107590000Y-56769000D03*
X108610000Y-56769000D03*
%TD*%
D19*
%TO.C,C83*%
X122911352Y-168137798D03*
X122911352Y-167177798D03*
%TD*%
D23*
%TO.C,TP33*%
X163811170Y-84785548D03*
%TD*%
%TO.C,TP42*%
X128148852Y-156032798D03*
%TD*%
D12*
%TO.C,C89*%
X124125000Y-162450000D03*
X124125000Y-164000000D03*
%TD*%
D23*
%TO.C,TP25*%
X163811170Y-82385548D03*
%TD*%
%TO.C,TP50*%
X163868670Y-158389922D03*
%TD*%
D33*
%TO.C,R4*%
X117277500Y-69525000D03*
X118297500Y-69525000D03*
%TD*%
D23*
%TO.C,TP43*%
X128148852Y-158432798D03*
%TD*%
%TO.C,TP24*%
X127925000Y-89575000D03*
%TD*%
D56*
%TO.C,U9*%
X115787500Y-69750000D03*
X115787500Y-70400000D03*
X115787500Y-71050000D03*
X115787500Y-71700000D03*
X113512500Y-71700000D03*
X113512500Y-71050000D03*
X113512500Y-70400000D03*
X113512500Y-69750000D03*
%TD*%
D23*
%TO.C,TP27*%
X163868670Y-120843345D03*
%TD*%
D19*
%TO.C,R1*%
X136425000Y-67230000D03*
X136425000Y-66270000D03*
%TD*%
D26*
%TO.C,C11*%
X134155000Y-64550000D03*
X133195000Y-64550000D03*
%TD*%
D23*
%TO.C,TP17*%
X128148852Y-123232798D03*
%TD*%
D34*
%TO.C,R75*%
X135899170Y-150544422D03*
X135899170Y-149524422D03*
%TD*%
D23*
%TO.C,TP16*%
X128148852Y-120832798D03*
%TD*%
D25*
%TO.C,R58*%
X154193670Y-114608345D03*
X154193670Y-115628345D03*
%TD*%
D19*
%TO.C,C91*%
X128873852Y-148187798D03*
X128873852Y-147227798D03*
%TD*%
D34*
%TO.C,R43*%
X146536170Y-98570548D03*
X146536170Y-97550548D03*
%TD*%
D23*
%TO.C,TP90*%
X134442500Y-98642203D03*
%TD*%
D19*
%TO.C,C57*%
X122911352Y-132937798D03*
X122911352Y-131977798D03*
%TD*%
D11*
%TO.C,C10*%
X149475000Y-56945000D03*
X149475000Y-57905000D03*
%TD*%
D41*
%TO.C,U18*%
X162931170Y-147209922D03*
X162931170Y-148479922D03*
X162931170Y-149749922D03*
X162931170Y-151019922D03*
X155756170Y-151019922D03*
X155756170Y-149749922D03*
X155756170Y-148479922D03*
X155756170Y-147209922D03*
%TD*%
D25*
%TO.C,R40*%
X154136170Y-78550548D03*
X154136170Y-79570548D03*
%TD*%
%TO.C,R56*%
X135899170Y-112477845D03*
X135899170Y-113497845D03*
%TD*%
D28*
%TO.C,C17*%
X149320000Y-94750000D03*
X150280000Y-94750000D03*
%TD*%
D11*
%TO.C,C8*%
X138950000Y-57995000D03*
X138950000Y-58955000D03*
%TD*%
D28*
%TO.C,C105*%
X144970000Y-53900000D03*
X145930000Y-53900000D03*
%TD*%
D23*
%TO.C,TP26*%
X163868670Y-125643345D03*
%TD*%
D11*
%TO.C,C93*%
X153431170Y-167122422D03*
X153431170Y-168082422D03*
%TD*%
D41*
%TO.C,U12*%
X162931170Y-112063345D03*
X162931170Y-113333345D03*
X162931170Y-114603345D03*
X162931170Y-115873345D03*
X155756170Y-115873345D03*
X155756170Y-114603345D03*
X155756170Y-113333345D03*
X155756170Y-112063345D03*
%TD*%
D10*
%TO.C,FB6*%
X121925000Y-164260000D03*
X121925000Y-163290000D03*
%TD*%
D26*
%TO.C,C18*%
X152130000Y-94750000D03*
X151170000Y-94750000D03*
%TD*%
D23*
%TO.C,TP39*%
X98700000Y-165107798D03*
%TD*%
D28*
%TO.C,C58*%
X113145257Y-128638893D03*
X114105257Y-128638893D03*
%TD*%
D11*
%TO.C,C77*%
X158675000Y-128145000D03*
X158675000Y-129105000D03*
%TD*%
D41*
%TO.C,U8*%
X162873670Y-76005548D03*
X162873670Y-77275548D03*
X162873670Y-78545548D03*
X162873670Y-79815548D03*
X155698670Y-79815548D03*
X155698670Y-78545548D03*
X155698670Y-77275548D03*
X155698670Y-76005548D03*
%TD*%
D50*
%TO.C,U26*%
X123900000Y-54450000D03*
X122950000Y-54450000D03*
X122000000Y-54450000D03*
X122000000Y-51750000D03*
X122950000Y-51750000D03*
X123900000Y-51750000D03*
%TD*%
D19*
%TO.C,C30*%
X122687500Y-96880000D03*
X122687500Y-95920000D03*
%TD*%
%TO.C,C62*%
X128873852Y-112987798D03*
X128873852Y-112027798D03*
%TD*%
D35*
%TO.C,D12*%
X99238852Y-120707798D03*
X99238852Y-121807798D03*
X97408852Y-121807798D03*
X97408852Y-120707798D03*
%TD*%
D31*
%TO.C,C43*%
X128450000Y-49300000D03*
X128450000Y-47400000D03*
%TD*%
%TO.C,C40*%
X117600000Y-53100000D03*
X117600000Y-51200000D03*
%TD*%
D23*
%TO.C,TP23*%
X163868670Y-118443345D03*
%TD*%
%TO.C,TP22*%
X134500000Y-129900000D03*
%TD*%
D11*
%TO.C,C80*%
X117711352Y-167165298D03*
X117711352Y-168125298D03*
%TD*%
D41*
%TO.C,U24*%
X129087500Y-67645000D03*
X129087500Y-68915000D03*
X129087500Y-70185000D03*
X129087500Y-71455000D03*
X121912500Y-71455000D03*
X121912500Y-70185000D03*
X121912500Y-68915000D03*
X121912500Y-67645000D03*
%TD*%
D19*
%TO.C,C52*%
X164536170Y-76940548D03*
X164536170Y-75980548D03*
%TD*%
D27*
%TO.C,HSE6*%
X119211352Y-166807798D03*
X121411352Y-166807798D03*
X121411352Y-168507798D03*
X119211352Y-168507798D03*
%TD*%
D19*
%TO.C,C100*%
X147943670Y-164294922D03*
X147943670Y-163334922D03*
%TD*%
D23*
%TO.C,TP15*%
X128148852Y-125632798D03*
%TD*%
D40*
%TO.C,C26*%
X121550000Y-84450000D03*
X123100000Y-84450000D03*
%TD*%
D42*
%TO.C,R8*%
X108675000Y-61362500D03*
X110325000Y-61362500D03*
%TD*%
D31*
%TO.C,C2*%
X153450000Y-71400000D03*
X153450000Y-69500000D03*
%TD*%
D29*
%TO.C,R64*%
X123125000Y-172900000D03*
X121475000Y-172900000D03*
%TD*%
D35*
%TO.C,D14*%
X134958670Y-120718345D03*
X134958670Y-121818345D03*
X133128670Y-121818345D03*
X133128670Y-120718345D03*
%TD*%
D11*
%TO.C,C27*%
X117487500Y-95907500D03*
X117487500Y-96867500D03*
%TD*%
D26*
%TO.C,C71*%
X157448670Y-119243345D03*
X156488670Y-119243345D03*
%TD*%
D19*
%TO.C,C87*%
X112223852Y-164337798D03*
X112223852Y-163377798D03*
%TD*%
D31*
%TO.C,C39*%
X119600000Y-53100000D03*
X119600000Y-51200000D03*
%TD*%
D28*
%TO.C,C101*%
X148865075Y-163796017D03*
X149825075Y-163796017D03*
%TD*%
D25*
%TO.C,R68*%
X128873852Y-149107798D03*
X128873852Y-150127798D03*
%TD*%
D33*
%TO.C,R17*%
X107590000Y-55819000D03*
X108610000Y-55819000D03*
%TD*%
D31*
%TO.C,C32*%
X105200000Y-52450000D03*
X105200000Y-50550000D03*
%TD*%
D35*
%TO.C,D16*%
X99238852Y-155907798D03*
X99238852Y-157007798D03*
X97408852Y-157007798D03*
X97408852Y-155907798D03*
%TD*%
D48*
%TO.C,D3*%
X115450000Y-66450000D03*
X117550000Y-66450000D03*
%TD*%
D30*
%TO.C,C35*%
X151250000Y-70325000D03*
X149700000Y-70325000D03*
%TD*%
D19*
%TO.C,C49*%
X147886170Y-93090548D03*
X147886170Y-92130548D03*
%TD*%
D29*
%TO.C,R55*%
X158225000Y-137400000D03*
X156575000Y-137400000D03*
%TD*%
D40*
%TO.C,C92*%
X157525000Y-155600000D03*
X159075000Y-155600000D03*
%TD*%
D22*
%TO.C,U20*%
X115273852Y-150395298D03*
X114323852Y-150395298D03*
X113373852Y-150395298D03*
X113373852Y-148120298D03*
X114323852Y-148120298D03*
X115273852Y-148120298D03*
%TD*%
D25*
%TO.C,R67*%
X118473852Y-149797798D03*
X118473852Y-150817798D03*
%TD*%
D34*
%TO.C,R57*%
X135899170Y-115397845D03*
X135899170Y-114377845D03*
%TD*%
D41*
%TO.C,U15*%
X127211352Y-147252798D03*
X127211352Y-148522798D03*
X127211352Y-149792798D03*
X127211352Y-151062798D03*
X120036352Y-151062798D03*
X120036352Y-149792798D03*
X120036352Y-148522798D03*
X120036352Y-147252798D03*
%TD*%
D27*
%TO.C,HSE5*%
X154931170Y-131618345D03*
X157131170Y-131618345D03*
X157131170Y-133318345D03*
X154931170Y-133318345D03*
%TD*%
D25*
%TO.C,R47*%
X100179352Y-112467298D03*
X100179352Y-113487298D03*
%TD*%
D31*
%TO.C,C38*%
X113800000Y-48625000D03*
X113800000Y-46725000D03*
%TD*%
D26*
%TO.C,C82*%
X116480000Y-166025000D03*
X115520000Y-166025000D03*
%TD*%
D19*
%TO.C,C28*%
X120300000Y-72030000D03*
X120300000Y-71070000D03*
%TD*%
D35*
%TO.C,D18*%
X134958670Y-155864922D03*
X134958670Y-156964922D03*
X133128670Y-156964922D03*
X133128670Y-155864922D03*
%TD*%
D39*
%TO.C,Y4*%
X116286352Y-132457798D03*
X113786352Y-132457798D03*
%TD*%
D11*
%TO.C,C51*%
X158675000Y-92045000D03*
X158675000Y-93005000D03*
%TD*%
D23*
%TO.C,TP34*%
X163868670Y-123243345D03*
%TD*%
%TO.C,TP48*%
X163868670Y-160789922D03*
%TD*%
D10*
%TO.C,FB5*%
X157700000Y-129085000D03*
X157700000Y-128115000D03*
%TD*%
D34*
%TO.C,R48*%
X100179352Y-115387298D03*
X100179352Y-114367298D03*
%TD*%
D47*
%TO.C,BZ1*%
X121374936Y-64950064D03*
X124875064Y-64950064D03*
D57*
X121374936Y-61449936D03*
%TD*%
D17*
%TO.C,H1*%
X94600000Y-48000000D03*
X95302944Y-46302944D03*
X95302944Y-49697056D03*
X97000000Y-45600000D03*
D18*
X97000000Y-48000000D03*
D17*
X97000000Y-50400000D03*
X98697056Y-46302944D03*
X98697056Y-49697056D03*
X99400000Y-48000000D03*
%TD*%
%TO.C,H2*%
X162600000Y-176000000D03*
X163302944Y-174302944D03*
X163302944Y-177697056D03*
X165000000Y-173600000D03*
D18*
X165000000Y-176000000D03*
D17*
X165000000Y-178400000D03*
X166697056Y-174302944D03*
X166697056Y-177697056D03*
X167400000Y-176000000D03*
%TD*%
%TO.C,H4*%
X162600000Y-48000000D03*
X163302944Y-46302944D03*
X163302944Y-49697056D03*
X165000000Y-45600000D03*
D18*
X165000000Y-48000000D03*
D17*
X165000000Y-50400000D03*
X166697056Y-46302944D03*
X166697056Y-49697056D03*
X167400000Y-48000000D03*
%TD*%
D58*
%TO.C,J1*%
X96615000Y-54330000D03*
X97885000Y-54330000D03*
X96615000Y-55600000D03*
X97885000Y-55600000D03*
X96615000Y-56870000D03*
X97885000Y-56870000D03*
%TD*%
D59*
%TO.C,J3*%
X158550000Y-51340000D03*
X157750000Y-51340000D03*
D60*
X156600000Y-51340000D03*
X155600000Y-51340000D03*
X155100000Y-51340000D03*
X154100000Y-51340000D03*
D59*
X152950000Y-51340000D03*
X152150000Y-51340000D03*
X152150000Y-51340000D03*
X152950000Y-51340000D03*
D60*
X153600000Y-51340000D03*
X154600000Y-51340000D03*
X156100000Y-51340000D03*
X157100000Y-51340000D03*
D59*
X157750000Y-51340000D03*
X158550000Y-51340000D03*
D61*
X159670000Y-50740000D03*
D62*
X159670000Y-46540000D03*
D61*
X151030000Y-50740000D03*
D62*
X151030000Y-46540000D03*
%TD*%
D63*
%TO.C,J4*%
X95075000Y-71900000D03*
X95075000Y-60900000D03*
D64*
X105075000Y-63900000D03*
D65*
X105075000Y-68900000D03*
%TD*%
D66*
%TO.C,J5*%
X140600000Y-49550000D03*
X139600000Y-49550000D03*
X138600000Y-49550000D03*
X137600000Y-49550000D03*
D67*
X141900000Y-45675000D03*
X136300000Y-45675000D03*
%TD*%
D58*
%TO.C,J6*%
X140135075Y-106576643D03*
X140135075Y-105306643D03*
X141405075Y-106576643D03*
X141405075Y-105306643D03*
X142675075Y-106576643D03*
X142675075Y-105306643D03*
%TD*%
D68*
%TO.C,J7*%
X101576405Y-101856095D03*
X109126405Y-101606095D03*
X101576405Y-101356095D03*
X109126405Y-101106095D03*
X101576405Y-100856095D03*
X109126405Y-100606095D03*
X101576405Y-100356095D03*
X109126405Y-100106095D03*
X101576405Y-99856095D03*
X109126405Y-99606095D03*
X101576405Y-99356095D03*
X109126405Y-99106095D03*
X101576405Y-98856095D03*
X109126405Y-98606095D03*
X101576405Y-98356095D03*
X109126405Y-98106095D03*
X101576405Y-97856095D03*
X109126405Y-97606095D03*
X101576405Y-97356095D03*
X109126405Y-97106095D03*
X101576405Y-96856095D03*
X109126405Y-96606095D03*
X101576405Y-96356095D03*
X109126405Y-94106095D03*
X101576405Y-93856095D03*
X109126405Y-93606095D03*
X101576405Y-93356095D03*
X109126405Y-93106095D03*
X101576405Y-92856095D03*
X109126405Y-92606095D03*
X101576405Y-92356095D03*
X109126405Y-92106095D03*
X101576405Y-91856095D03*
X109126405Y-91606095D03*
X101576405Y-91356095D03*
X109126405Y-91106095D03*
X101576405Y-90856095D03*
X109126405Y-90606095D03*
X101576405Y-90356095D03*
X109126405Y-90106095D03*
X101576405Y-89856095D03*
X109126405Y-89606095D03*
X101576405Y-89356095D03*
X109126405Y-89106095D03*
X101576405Y-88856095D03*
X109126405Y-88606095D03*
X101576405Y-88356095D03*
X109126405Y-88106095D03*
X101576405Y-87856095D03*
X109126405Y-87606095D03*
X101576405Y-87356095D03*
X109126405Y-87106095D03*
X101576405Y-86856095D03*
X109126405Y-86606095D03*
X101576405Y-86356095D03*
X109126405Y-86106095D03*
X101576405Y-85856095D03*
X109126405Y-85606095D03*
X101576405Y-85356095D03*
X109126405Y-85106095D03*
X101576405Y-84856095D03*
X109126405Y-84606095D03*
X101576405Y-84356095D03*
X109126405Y-84106095D03*
X101576405Y-83856095D03*
X109126405Y-83606095D03*
X101576405Y-83356095D03*
D69*
X102351405Y-102956095D03*
X102351405Y-82256095D03*
%TD*%
D70*
%TO.C,J8*%
X102625500Y-77109500D03*
X103415500Y-77109500D03*
X104205500Y-77109500D03*
X104995500Y-77109500D03*
X105785500Y-77109500D03*
X106575500Y-77109500D03*
X107365500Y-77109500D03*
X108155500Y-77109500D03*
X108155500Y-78629500D03*
X107365500Y-78629500D03*
X106575500Y-78629500D03*
X105785500Y-78629500D03*
X104995500Y-78629500D03*
X104205500Y-78629500D03*
X103415500Y-78629500D03*
X102625500Y-78629500D03*
D71*
X103005500Y-75719500D03*
X103005500Y-80019500D03*
X107805500Y-75719500D03*
X107805500Y-80019500D03*
%TD*%
D58*
%TO.C,J9*%
X104248905Y-106566095D03*
X104248905Y-105296095D03*
X105518905Y-106566095D03*
X105518905Y-105296095D03*
X106788905Y-106566095D03*
X106788905Y-105296095D03*
%TD*%
D68*
%TO.C,J10*%
X137462575Y-101866643D03*
X145012575Y-101616643D03*
X137462575Y-101366643D03*
X145012575Y-101116643D03*
X137462575Y-100866643D03*
X145012575Y-100616643D03*
X137462575Y-100366643D03*
X145012575Y-100116643D03*
X137462575Y-99866643D03*
X145012575Y-99616643D03*
X137462575Y-99366643D03*
X145012575Y-99116643D03*
X137462575Y-98866643D03*
X145012575Y-98616643D03*
X137462575Y-98366643D03*
X145012575Y-98116643D03*
X137462575Y-97866643D03*
X145012575Y-97616643D03*
X137462575Y-97366643D03*
X145012575Y-97116643D03*
X137462575Y-96866643D03*
X145012575Y-96616643D03*
X137462575Y-96366643D03*
X145012575Y-94116643D03*
X137462575Y-93866643D03*
X145012575Y-93616643D03*
X137462575Y-93366643D03*
X145012575Y-93116643D03*
X137462575Y-92866643D03*
X145012575Y-92616643D03*
X137462575Y-92366643D03*
X145012575Y-92116643D03*
X137462575Y-91866643D03*
X145012575Y-91616643D03*
X137462575Y-91366643D03*
X145012575Y-91116643D03*
X137462575Y-90866643D03*
X145012575Y-90616643D03*
X137462575Y-90366643D03*
X145012575Y-90116643D03*
X137462575Y-89866643D03*
X145012575Y-89616643D03*
X137462575Y-89366643D03*
X145012575Y-89116643D03*
X137462575Y-88866643D03*
X145012575Y-88616643D03*
X137462575Y-88366643D03*
X145012575Y-88116643D03*
X137462575Y-87866643D03*
X145012575Y-87616643D03*
X137462575Y-87366643D03*
X145012575Y-87116643D03*
X137462575Y-86866643D03*
X145012575Y-86616643D03*
X137462575Y-86366643D03*
X145012575Y-86116643D03*
X137462575Y-85866643D03*
X145012575Y-85616643D03*
X137462575Y-85366643D03*
X145012575Y-85116643D03*
X137462575Y-84866643D03*
X145012575Y-84616643D03*
X137462575Y-84366643D03*
X145012575Y-84116643D03*
X137462575Y-83866643D03*
X145012575Y-83616643D03*
X137462575Y-83366643D03*
D69*
X138237575Y-102966643D03*
X138237575Y-82266643D03*
%TD*%
D70*
%TO.C,J11*%
X102849352Y-113167298D03*
X103639352Y-113167298D03*
X104429352Y-113167298D03*
X105219352Y-113167298D03*
X106009352Y-113167298D03*
X106799352Y-113167298D03*
X107589352Y-113167298D03*
X108379352Y-113167298D03*
X108379352Y-114687298D03*
X107589352Y-114687298D03*
X106799352Y-114687298D03*
X106009352Y-114687298D03*
X105219352Y-114687298D03*
X104429352Y-114687298D03*
X103639352Y-114687298D03*
X102849352Y-114687298D03*
D71*
X103229352Y-111777298D03*
X103229352Y-116077298D03*
X108029352Y-111777298D03*
X108029352Y-116077298D03*
%TD*%
D58*
%TO.C,J12*%
X104472757Y-142623893D03*
X104472757Y-141353893D03*
X105742757Y-142623893D03*
X105742757Y-141353893D03*
X107012757Y-142623893D03*
X107012757Y-141353893D03*
%TD*%
D68*
%TO.C,J13*%
X101800257Y-137913893D03*
X109350257Y-137663893D03*
X101800257Y-137413893D03*
X109350257Y-137163893D03*
X101800257Y-136913893D03*
X109350257Y-136663893D03*
X101800257Y-136413893D03*
X109350257Y-136163893D03*
X101800257Y-135913893D03*
X109350257Y-135663893D03*
X101800257Y-135413893D03*
X109350257Y-135163893D03*
X101800257Y-134913893D03*
X109350257Y-134663893D03*
X101800257Y-134413893D03*
X109350257Y-134163893D03*
X101800257Y-133913893D03*
X109350257Y-133663893D03*
X101800257Y-133413893D03*
X109350257Y-133163893D03*
X101800257Y-132913893D03*
X109350257Y-132663893D03*
X101800257Y-132413893D03*
X109350257Y-130163893D03*
X101800257Y-129913893D03*
X109350257Y-129663893D03*
X101800257Y-129413893D03*
X109350257Y-129163893D03*
X101800257Y-128913893D03*
X109350257Y-128663893D03*
X101800257Y-128413893D03*
X109350257Y-128163893D03*
X101800257Y-127913893D03*
X109350257Y-127663893D03*
X101800257Y-127413893D03*
X109350257Y-127163893D03*
X101800257Y-126913893D03*
X109350257Y-126663893D03*
X101800257Y-126413893D03*
X109350257Y-126163893D03*
X101800257Y-125913893D03*
X109350257Y-125663893D03*
X101800257Y-125413893D03*
X109350257Y-125163893D03*
X101800257Y-124913893D03*
X109350257Y-124663893D03*
X101800257Y-124413893D03*
X109350257Y-124163893D03*
X101800257Y-123913893D03*
X109350257Y-123663893D03*
X101800257Y-123413893D03*
X109350257Y-123163893D03*
X101800257Y-122913893D03*
X109350257Y-122663893D03*
X101800257Y-122413893D03*
X109350257Y-122163893D03*
X101800257Y-121913893D03*
X109350257Y-121663893D03*
X101800257Y-121413893D03*
X109350257Y-121163893D03*
X101800257Y-120913893D03*
X109350257Y-120663893D03*
X101800257Y-120413893D03*
X109350257Y-120163893D03*
X101800257Y-119913893D03*
X109350257Y-119663893D03*
X101800257Y-119413893D03*
D69*
X102575257Y-139013893D03*
X102575257Y-118313893D03*
%TD*%
D70*
%TO.C,J14*%
X138569170Y-113177845D03*
X139359170Y-113177845D03*
X140149170Y-113177845D03*
X140939170Y-113177845D03*
X141729170Y-113177845D03*
X142519170Y-113177845D03*
X143309170Y-113177845D03*
X144099170Y-113177845D03*
X144099170Y-114697845D03*
X143309170Y-114697845D03*
X142519170Y-114697845D03*
X141729170Y-114697845D03*
X140939170Y-114697845D03*
X140149170Y-114697845D03*
X139359170Y-114697845D03*
X138569170Y-114697845D03*
D71*
X138949170Y-111787845D03*
X138949170Y-116087845D03*
X143749170Y-111787845D03*
X143749170Y-116087845D03*
%TD*%
D58*
%TO.C,J15*%
X140192575Y-142634440D03*
X140192575Y-141364440D03*
X141462575Y-142634440D03*
X141462575Y-141364440D03*
X142732575Y-142634440D03*
X142732575Y-141364440D03*
%TD*%
D68*
%TO.C,J16*%
X137520075Y-137924440D03*
X145070075Y-137674440D03*
X137520075Y-137424440D03*
X145070075Y-137174440D03*
X137520075Y-136924440D03*
X145070075Y-136674440D03*
X137520075Y-136424440D03*
X145070075Y-136174440D03*
X137520075Y-135924440D03*
X145070075Y-135674440D03*
X137520075Y-135424440D03*
X145070075Y-135174440D03*
X137520075Y-134924440D03*
X145070075Y-134674440D03*
X137520075Y-134424440D03*
X145070075Y-134174440D03*
X137520075Y-133924440D03*
X145070075Y-133674440D03*
X137520075Y-133424440D03*
X145070075Y-133174440D03*
X137520075Y-132924440D03*
X145070075Y-132674440D03*
X137520075Y-132424440D03*
X145070075Y-130174440D03*
X137520075Y-129924440D03*
X145070075Y-129674440D03*
X137520075Y-129424440D03*
X145070075Y-129174440D03*
X137520075Y-128924440D03*
X145070075Y-128674440D03*
X137520075Y-128424440D03*
X145070075Y-128174440D03*
X137520075Y-127924440D03*
X145070075Y-127674440D03*
X137520075Y-127424440D03*
X145070075Y-127174440D03*
X137520075Y-126924440D03*
X145070075Y-126674440D03*
X137520075Y-126424440D03*
X145070075Y-126174440D03*
X137520075Y-125924440D03*
X145070075Y-125674440D03*
X137520075Y-125424440D03*
X145070075Y-125174440D03*
X137520075Y-124924440D03*
X145070075Y-124674440D03*
X137520075Y-124424440D03*
X145070075Y-124174440D03*
X137520075Y-123924440D03*
X145070075Y-123674440D03*
X137520075Y-123424440D03*
X145070075Y-123174440D03*
X137520075Y-122924440D03*
X145070075Y-122674440D03*
X137520075Y-122424440D03*
X145070075Y-122174440D03*
X137520075Y-121924440D03*
X145070075Y-121674440D03*
X137520075Y-121424440D03*
X145070075Y-121174440D03*
X137520075Y-120924440D03*
X145070075Y-120674440D03*
X137520075Y-120424440D03*
X145070075Y-120174440D03*
X137520075Y-119924440D03*
X145070075Y-119674440D03*
X137520075Y-119424440D03*
D69*
X138295075Y-139024440D03*
X138295075Y-118324440D03*
%TD*%
D70*
%TO.C,J17*%
X102849352Y-148367298D03*
X103639352Y-148367298D03*
X104429352Y-148367298D03*
X105219352Y-148367298D03*
X106009352Y-148367298D03*
X106799352Y-148367298D03*
X107589352Y-148367298D03*
X108379352Y-148367298D03*
X108379352Y-149887298D03*
X107589352Y-149887298D03*
X106799352Y-149887298D03*
X106009352Y-149887298D03*
X105219352Y-149887298D03*
X104429352Y-149887298D03*
X103639352Y-149887298D03*
X102849352Y-149887298D03*
D71*
X103229352Y-146977298D03*
X103229352Y-151277298D03*
X108029352Y-146977298D03*
X108029352Y-151277298D03*
%TD*%
D58*
%TO.C,J18*%
X104472757Y-177823893D03*
X104472757Y-176553893D03*
X105742757Y-177823893D03*
X105742757Y-176553893D03*
X107012757Y-177823893D03*
X107012757Y-176553893D03*
%TD*%
D68*
%TO.C,J19*%
X101800257Y-173113893D03*
X109350257Y-172863893D03*
X101800257Y-172613893D03*
X109350257Y-172363893D03*
X101800257Y-172113893D03*
X109350257Y-171863893D03*
X101800257Y-171613893D03*
X109350257Y-171363893D03*
X101800257Y-171113893D03*
X109350257Y-170863893D03*
X101800257Y-170613893D03*
X109350257Y-170363893D03*
X101800257Y-170113893D03*
X109350257Y-169863893D03*
X101800257Y-169613893D03*
X109350257Y-169363893D03*
X101800257Y-169113893D03*
X109350257Y-168863893D03*
X101800257Y-168613893D03*
X109350257Y-168363893D03*
X101800257Y-168113893D03*
X109350257Y-167863893D03*
X101800257Y-167613893D03*
X109350257Y-165363893D03*
X101800257Y-165113893D03*
X109350257Y-164863893D03*
X101800257Y-164613893D03*
X109350257Y-164363893D03*
X101800257Y-164113893D03*
X109350257Y-163863893D03*
X101800257Y-163613893D03*
X109350257Y-163363893D03*
X101800257Y-163113893D03*
X109350257Y-162863893D03*
X101800257Y-162613893D03*
X109350257Y-162363893D03*
X101800257Y-162113893D03*
X109350257Y-161863893D03*
X101800257Y-161613893D03*
X109350257Y-161363893D03*
X101800257Y-161113893D03*
X109350257Y-160863893D03*
X101800257Y-160613893D03*
X109350257Y-160363893D03*
X101800257Y-160113893D03*
X109350257Y-159863893D03*
X101800257Y-159613893D03*
X109350257Y-159363893D03*
X101800257Y-159113893D03*
X109350257Y-158863893D03*
X101800257Y-158613893D03*
X109350257Y-158363893D03*
X101800257Y-158113893D03*
X109350257Y-157863893D03*
X101800257Y-157613893D03*
X109350257Y-157363893D03*
X101800257Y-157113893D03*
X109350257Y-156863893D03*
X101800257Y-156613893D03*
X109350257Y-156363893D03*
X101800257Y-156113893D03*
X109350257Y-155863893D03*
X101800257Y-155613893D03*
X109350257Y-155363893D03*
X101800257Y-155113893D03*
X109350257Y-154863893D03*
X101800257Y-154613893D03*
D69*
X102575257Y-174213893D03*
X102575257Y-153513893D03*
%TD*%
D70*
%TO.C,J20*%
X138569170Y-148324422D03*
X139359170Y-148324422D03*
X140149170Y-148324422D03*
X140939170Y-148324422D03*
X141729170Y-148324422D03*
X142519170Y-148324422D03*
X143309170Y-148324422D03*
X144099170Y-148324422D03*
X144099170Y-149844422D03*
X143309170Y-149844422D03*
X142519170Y-149844422D03*
X141729170Y-149844422D03*
X140939170Y-149844422D03*
X140149170Y-149844422D03*
X139359170Y-149844422D03*
X138569170Y-149844422D03*
D71*
X138949170Y-146934422D03*
X138949170Y-151234422D03*
X143749170Y-146934422D03*
X143749170Y-151234422D03*
%TD*%
D58*
%TO.C,J21*%
X140192575Y-177781017D03*
X140192575Y-176511017D03*
X141462575Y-177781017D03*
X141462575Y-176511017D03*
X142732575Y-177781017D03*
X142732575Y-176511017D03*
%TD*%
D68*
%TO.C,J22*%
X137520075Y-173071017D03*
X145070075Y-172821017D03*
X137520075Y-172571017D03*
X145070075Y-172321017D03*
X137520075Y-172071017D03*
X145070075Y-171821017D03*
X137520075Y-171571017D03*
X145070075Y-171321017D03*
X137520075Y-171071017D03*
X145070075Y-170821017D03*
X137520075Y-170571017D03*
X145070075Y-170321017D03*
X137520075Y-170071017D03*
X145070075Y-169821017D03*
X137520075Y-169571017D03*
X145070075Y-169321017D03*
X137520075Y-169071017D03*
X145070075Y-168821017D03*
X137520075Y-168571017D03*
X145070075Y-168321017D03*
X137520075Y-168071017D03*
X145070075Y-167821017D03*
X137520075Y-167571017D03*
X145070075Y-165321017D03*
X137520075Y-165071017D03*
X145070075Y-164821017D03*
X137520075Y-164571017D03*
X145070075Y-164321017D03*
X137520075Y-164071017D03*
X145070075Y-163821017D03*
X137520075Y-163571017D03*
X145070075Y-163321017D03*
X137520075Y-163071017D03*
X145070075Y-162821017D03*
X137520075Y-162571017D03*
X145070075Y-162321017D03*
X137520075Y-162071017D03*
X145070075Y-161821017D03*
X137520075Y-161571017D03*
X145070075Y-161321017D03*
X137520075Y-161071017D03*
X145070075Y-160821017D03*
X137520075Y-160571017D03*
X145070075Y-160321017D03*
X137520075Y-160071017D03*
X145070075Y-159821017D03*
X137520075Y-159571017D03*
X145070075Y-159321017D03*
X137520075Y-159071017D03*
X145070075Y-158821017D03*
X137520075Y-158571017D03*
X145070075Y-158321017D03*
X137520075Y-158071017D03*
X145070075Y-157821017D03*
X137520075Y-157571017D03*
X145070075Y-157321017D03*
X137520075Y-157071017D03*
X145070075Y-156821017D03*
X137520075Y-156571017D03*
X145070075Y-156321017D03*
X137520075Y-156071017D03*
X145070075Y-155821017D03*
X137520075Y-155571017D03*
X145070075Y-155321017D03*
X137520075Y-155071017D03*
X145070075Y-154821017D03*
X137520075Y-154571017D03*
D69*
X138295075Y-174171017D03*
X138295075Y-153471017D03*
%TD*%
D70*
%TO.C,J23*%
X138511670Y-77120048D03*
X139301670Y-77120048D03*
X140091670Y-77120048D03*
X140881670Y-77120048D03*
X141671670Y-77120048D03*
X142461670Y-77120048D03*
X143251670Y-77120048D03*
X144041670Y-77120048D03*
X144041670Y-78640048D03*
X143251670Y-78640048D03*
X142461670Y-78640048D03*
X141671670Y-78640048D03*
X140881670Y-78640048D03*
X140091670Y-78640048D03*
X139301670Y-78640048D03*
X138511670Y-78640048D03*
D71*
X138891670Y-75730048D03*
X138891670Y-80030048D03*
X143691670Y-75730048D03*
X143691670Y-80030048D03*
%TD*%
D72*
%TO.C,U4*%
X113868905Y-91418595D03*
X114368905Y-91418595D03*
X114868905Y-91418595D03*
X115368905Y-91418595D03*
X115868905Y-91418595D03*
X116368905Y-91418595D03*
X116868905Y-91418595D03*
X117368905Y-91418595D03*
X117868905Y-91418595D03*
X118368905Y-91418595D03*
X118868905Y-91418595D03*
X119368905Y-91418595D03*
D73*
X120056405Y-90731095D03*
X120056405Y-90231095D03*
X120056405Y-89731095D03*
X120056405Y-89231095D03*
X120056405Y-88731095D03*
X120056405Y-88231095D03*
X120056405Y-87731095D03*
X120056405Y-87231095D03*
X120056405Y-86731095D03*
X120056405Y-86231095D03*
X120056405Y-85731095D03*
X120056405Y-85231095D03*
D72*
X119368905Y-84543595D03*
X118868905Y-84543595D03*
X118368905Y-84543595D03*
X117868905Y-84543595D03*
X117368905Y-84543595D03*
X116868905Y-84543595D03*
X116368905Y-84543595D03*
X115868905Y-84543595D03*
X115368905Y-84543595D03*
X114868905Y-84543595D03*
X114368905Y-84543595D03*
X113868905Y-84543595D03*
D73*
X113181405Y-85231095D03*
X113181405Y-85731095D03*
X113181405Y-86231095D03*
X113181405Y-86731095D03*
X113181405Y-87231095D03*
X113181405Y-87731095D03*
X113181405Y-88231095D03*
X113181405Y-88731095D03*
X113181405Y-89231095D03*
X113181405Y-89731095D03*
X113181405Y-90231095D03*
X113181405Y-90731095D03*
D74*
X116618905Y-87981095D03*
%TD*%
D72*
%TO.C,U5*%
X149755075Y-91429143D03*
X150255075Y-91429143D03*
X150755075Y-91429143D03*
X151255075Y-91429143D03*
X151755075Y-91429143D03*
X152255075Y-91429143D03*
X152755075Y-91429143D03*
X153255075Y-91429143D03*
X153755075Y-91429143D03*
X154255075Y-91429143D03*
X154755075Y-91429143D03*
X155255075Y-91429143D03*
D73*
X155942575Y-90741643D03*
X155942575Y-90241643D03*
X155942575Y-89741643D03*
X155942575Y-89241643D03*
X155942575Y-88741643D03*
X155942575Y-88241643D03*
X155942575Y-87741643D03*
X155942575Y-87241643D03*
X155942575Y-86741643D03*
X155942575Y-86241643D03*
X155942575Y-85741643D03*
X155942575Y-85241643D03*
D72*
X155255075Y-84554143D03*
X154755075Y-84554143D03*
X154255075Y-84554143D03*
X153755075Y-84554143D03*
X153255075Y-84554143D03*
X152755075Y-84554143D03*
X152255075Y-84554143D03*
X151755075Y-84554143D03*
X151255075Y-84554143D03*
X150755075Y-84554143D03*
X150255075Y-84554143D03*
X149755075Y-84554143D03*
D73*
X149067575Y-85241643D03*
X149067575Y-85741643D03*
X149067575Y-86241643D03*
X149067575Y-86741643D03*
X149067575Y-87241643D03*
X149067575Y-87741643D03*
X149067575Y-88241643D03*
X149067575Y-88741643D03*
X149067575Y-89241643D03*
X149067575Y-89741643D03*
X149067575Y-90241643D03*
X149067575Y-90741643D03*
D74*
X152505075Y-87991643D03*
%TD*%
D72*
%TO.C,U13*%
X114092757Y-127476393D03*
X114592757Y-127476393D03*
X115092757Y-127476393D03*
X115592757Y-127476393D03*
X116092757Y-127476393D03*
X116592757Y-127476393D03*
X117092757Y-127476393D03*
X117592757Y-127476393D03*
X118092757Y-127476393D03*
X118592757Y-127476393D03*
X119092757Y-127476393D03*
X119592757Y-127476393D03*
D73*
X120280257Y-126788893D03*
X120280257Y-126288893D03*
X120280257Y-125788893D03*
X120280257Y-125288893D03*
X120280257Y-124788893D03*
X120280257Y-124288893D03*
X120280257Y-123788893D03*
X120280257Y-123288893D03*
X120280257Y-122788893D03*
X120280257Y-122288893D03*
X120280257Y-121788893D03*
X120280257Y-121288893D03*
D72*
X119592757Y-120601393D03*
X119092757Y-120601393D03*
X118592757Y-120601393D03*
X118092757Y-120601393D03*
X117592757Y-120601393D03*
X117092757Y-120601393D03*
X116592757Y-120601393D03*
X116092757Y-120601393D03*
X115592757Y-120601393D03*
X115092757Y-120601393D03*
X114592757Y-120601393D03*
X114092757Y-120601393D03*
D73*
X113405257Y-121288893D03*
X113405257Y-121788893D03*
X113405257Y-122288893D03*
X113405257Y-122788893D03*
X113405257Y-123288893D03*
X113405257Y-123788893D03*
X113405257Y-124288893D03*
X113405257Y-124788893D03*
X113405257Y-125288893D03*
X113405257Y-125788893D03*
X113405257Y-126288893D03*
X113405257Y-126788893D03*
D74*
X116842757Y-124038893D03*
%TD*%
D72*
%TO.C,U16*%
X149812575Y-127486940D03*
X150312575Y-127486940D03*
X150812575Y-127486940D03*
X151312575Y-127486940D03*
X151812575Y-127486940D03*
X152312575Y-127486940D03*
X152812575Y-127486940D03*
X153312575Y-127486940D03*
X153812575Y-127486940D03*
X154312575Y-127486940D03*
X154812575Y-127486940D03*
X155312575Y-127486940D03*
D73*
X156000075Y-126799440D03*
X156000075Y-126299440D03*
X156000075Y-125799440D03*
X156000075Y-125299440D03*
X156000075Y-124799440D03*
X156000075Y-124299440D03*
X156000075Y-123799440D03*
X156000075Y-123299440D03*
X156000075Y-122799440D03*
X156000075Y-122299440D03*
X156000075Y-121799440D03*
X156000075Y-121299440D03*
D72*
X155312575Y-120611940D03*
X154812575Y-120611940D03*
X154312575Y-120611940D03*
X153812575Y-120611940D03*
X153312575Y-120611940D03*
X152812575Y-120611940D03*
X152312575Y-120611940D03*
X151812575Y-120611940D03*
X151312575Y-120611940D03*
X150812575Y-120611940D03*
X150312575Y-120611940D03*
X149812575Y-120611940D03*
D73*
X149125075Y-121299440D03*
X149125075Y-121799440D03*
X149125075Y-122299440D03*
X149125075Y-122799440D03*
X149125075Y-123299440D03*
X149125075Y-123799440D03*
X149125075Y-124299440D03*
X149125075Y-124799440D03*
X149125075Y-125299440D03*
X149125075Y-125799440D03*
X149125075Y-126299440D03*
X149125075Y-126799440D03*
D74*
X152562575Y-124049440D03*
%TD*%
D72*
%TO.C,U19*%
X114092757Y-162676393D03*
X114592757Y-162676393D03*
X115092757Y-162676393D03*
X115592757Y-162676393D03*
X116092757Y-162676393D03*
X116592757Y-162676393D03*
X117092757Y-162676393D03*
X117592757Y-162676393D03*
X118092757Y-162676393D03*
X118592757Y-162676393D03*
X119092757Y-162676393D03*
X119592757Y-162676393D03*
D73*
X120280257Y-161988893D03*
X120280257Y-161488893D03*
X120280257Y-160988893D03*
X120280257Y-160488893D03*
X120280257Y-159988893D03*
X120280257Y-159488893D03*
X120280257Y-158988893D03*
X120280257Y-158488893D03*
X120280257Y-157988893D03*
X120280257Y-157488893D03*
X120280257Y-156988893D03*
X120280257Y-156488893D03*
D72*
X119592757Y-155801393D03*
X119092757Y-155801393D03*
X118592757Y-155801393D03*
X118092757Y-155801393D03*
X117592757Y-155801393D03*
X117092757Y-155801393D03*
X116592757Y-155801393D03*
X116092757Y-155801393D03*
X115592757Y-155801393D03*
X115092757Y-155801393D03*
X114592757Y-155801393D03*
X114092757Y-155801393D03*
D73*
X113405257Y-156488893D03*
X113405257Y-156988893D03*
X113405257Y-157488893D03*
X113405257Y-157988893D03*
X113405257Y-158488893D03*
X113405257Y-158988893D03*
X113405257Y-159488893D03*
X113405257Y-159988893D03*
X113405257Y-160488893D03*
X113405257Y-160988893D03*
X113405257Y-161488893D03*
X113405257Y-161988893D03*
D74*
X116842757Y-159238893D03*
%TD*%
D72*
%TO.C,U22*%
X149812575Y-162633517D03*
X150312575Y-162633517D03*
X150812575Y-162633517D03*
X151312575Y-162633517D03*
X151812575Y-162633517D03*
X152312575Y-162633517D03*
X152812575Y-162633517D03*
X153312575Y-162633517D03*
X153812575Y-162633517D03*
X154312575Y-162633517D03*
X154812575Y-162633517D03*
X155312575Y-162633517D03*
D73*
X156000075Y-161946017D03*
X156000075Y-161446017D03*
X156000075Y-160946017D03*
X156000075Y-160446017D03*
X156000075Y-159946017D03*
X156000075Y-159446017D03*
X156000075Y-158946017D03*
X156000075Y-158446017D03*
X156000075Y-157946017D03*
X156000075Y-157446017D03*
X156000075Y-156946017D03*
X156000075Y-156446017D03*
D72*
X155312575Y-155758517D03*
X154812575Y-155758517D03*
X154312575Y-155758517D03*
X153812575Y-155758517D03*
X153312575Y-155758517D03*
X152812575Y-155758517D03*
X152312575Y-155758517D03*
X151812575Y-155758517D03*
X151312575Y-155758517D03*
X150812575Y-155758517D03*
X150312575Y-155758517D03*
X149812575Y-155758517D03*
D73*
X149125075Y-156446017D03*
X149125075Y-156946017D03*
X149125075Y-157446017D03*
X149125075Y-157946017D03*
X149125075Y-158446017D03*
X149125075Y-158946017D03*
X149125075Y-159446017D03*
X149125075Y-159946017D03*
X149125075Y-160446017D03*
X149125075Y-160946017D03*
X149125075Y-161446017D03*
X149125075Y-161946017D03*
D74*
X152562575Y-159196017D03*
%TD*%
D34*
%TO.C,R23*%
X141800000Y-53380000D03*
X141800000Y-54400000D03*
%TD*%
D20*
%TO.C,SW10*%
X159062575Y-143081655D03*
X154062575Y-143081655D03*
X156562575Y-140681655D03*
%TD*%
%TO.C,SW6*%
X156600000Y-104700000D03*
X154100000Y-107100000D03*
X159100000Y-107100000D03*
%TD*%
D55*
%TO.C,D9*%
X161994925Y-106745857D03*
X161994925Y-105170857D03*
%TD*%
D20*
%TO.C,SW8*%
X121100000Y-140700000D03*
X118600000Y-143100000D03*
X123600000Y-143100000D03*
%TD*%
D24*
%TO.C,SW7*%
X115500000Y-141900000D03*
X112100000Y-141900000D03*
%TD*%
D19*
%TO.C,C60*%
X110800000Y-142380000D03*
X110800000Y-141420000D03*
%TD*%
D33*
%TO.C,R45*%
X122010000Y-136050000D03*
X120990000Y-136050000D03*
%TD*%
D29*
%TO.C,R46*%
X120975000Y-137300000D03*
X122625000Y-137300000D03*
%TD*%
D55*
%TO.C,D11*%
X126557243Y-141112500D03*
X126557243Y-142687500D03*
%TD*%
%TO.C,D4*%
X126600000Y-105179904D03*
X126600000Y-106754904D03*
%TD*%
D29*
%TO.C,R11*%
X121093905Y-101202404D03*
X122743905Y-101202404D03*
%TD*%
D19*
%TO.C,C14*%
X110800000Y-106580000D03*
X110800000Y-105620000D03*
%TD*%
D33*
%TO.C,R10*%
X122128905Y-99952404D03*
X121108905Y-99952404D03*
%TD*%
D24*
%TO.C,SW3*%
X115618905Y-106052404D03*
X112218905Y-106052404D03*
%TD*%
D20*
%TO.C,SW4*%
X121100000Y-104700000D03*
X118600000Y-107100000D03*
X123600000Y-107100000D03*
%TD*%
D19*
%TO.C,C86*%
X110950000Y-176693800D03*
X110950000Y-177653800D03*
%TD*%
D24*
%TO.C,SW11*%
X112300000Y-177200000D03*
X115700000Y-177200000D03*
%TD*%
D55*
%TO.C,D15*%
X127000000Y-177287500D03*
X127000000Y-175712500D03*
%TD*%
D20*
%TO.C,SW12*%
X121600000Y-176000000D03*
X119100000Y-178400000D03*
X124100000Y-178400000D03*
%TD*%
%TO.C,SW14*%
X158896310Y-178300000D03*
X153896310Y-178300000D03*
X156396310Y-175900000D03*
%TD*%
M02*
