M48
; DRILL file {KiCad 9.0.0} date 2025-05-05T23:42:48+0400
; FORMAT={-:-/ absolute / inch / decimal}
; #@! TF.CreationDate,2025-05-05T23:42:48+04:00
; #@! TF.GenerationSoftware,Kicad,Pcbnew,9.0.0
; #@! TF.FileFunction,NonPlated,1,6,NPTH
FMAT,2
INCH
; #@! TA.AperFunction,NonPlated,NPTH,ComponentDrill
T1C0.0228
; #@! TA.AperFunction,NonPlated,NPTH,ComponentDrill
T2C0.0256
; #@! TA.AperFunction,NonPlated,NPTH,ComponentDrill
T3C0.0260
; #@! TA.AperFunction,NonPlated,NPTH,ComponentDrill
T4C0.0390
; #@! TA.AperFunction,NonPlated,NPTH,ComponentDrill
T5C0.0433
; #@! TA.AperFunction,NonPlated,NPTH,ComponentDrill
T6C0.0630
; #@! TA.AperFunction,NonPlated,NPTH,ComponentDrill
T7C0.1693
%
G90
G05
T2
X6.0024Y-1.9772
X6.2299Y-1.9772
T3
X4.0022Y-3.0657
X4.011Y-4.4853
X4.011Y-5.8712
X5.415Y-3.0661
X5.4173Y-4.4857
X5.4173Y-5.8695
T4
X3.7887Y-2.289
X3.8287Y-2.089
X3.8687Y-2.289
X4.0543Y-4.1705
X4.0631Y-5.5901
X4.0631Y-6.9759
X4.2543Y-4.1305
X4.2543Y-4.2105
X4.2631Y-5.5501
X4.2631Y-5.6301
X4.2631Y-6.9359
X4.2631Y-7.0159
X5.4671Y-4.1709
X5.4694Y-5.5905
X5.4694Y-6.9743
X5.6671Y-4.1309
X5.6671Y-4.2109
X5.6694Y-5.5505
X5.6694Y-5.6305
X5.6694Y-6.9343
X5.6694Y-7.0143
T5
X4.2067Y-4.0396
X4.2156Y-5.4592
X4.2156Y-6.845
X5.6196Y-4.04
X5.6219Y-5.4596
X5.6219Y-6.8433
T6
X4.2067Y-3.2522
X4.2156Y-4.6718
X4.2156Y-6.0576
X5.6196Y-3.2526
X5.6219Y-4.6722
X5.6219Y-6.0559
T7
X4.9997Y-3.7929
X5.0079Y-5.2126
X5.0079Y-6.5984
X6.4126Y-3.7933
X6.4144Y-5.2126
X6.4144Y-6.5965
T1
G00X4.2892Y-3.0657
M15
G01X4.3057Y-3.0657
M16
G05
G00X4.298Y-4.4853
M15
G01X4.3145Y-4.4853
M16
G05
G00X4.298Y-5.8712
M15
G01X4.3145Y-5.8712
M16
G05
G00X5.702Y-3.0661
M15
G01X5.7186Y-3.0661
M16
G05
G00X5.7043Y-4.4857
M15
G01X5.7208Y-4.4857
M16
G05
G00X5.7043Y-5.8695
M15
G01X5.7208Y-5.8695
M16
G05
M30
